<?xml version="1.0" encoding="utf-8"?>
<!-- Generator: Adobe Illustrator 16.0.3, SVG Export Plug-In . SVG Version: 6.00 Build 0)  -->
<!DOCTYPE svg PUBLIC "-//W3C//DTD SVG 1.1 Basic//EN" "http://www.w3.org/Graphics/SVG/1.1/DTD/svg11-basic.dtd" [
	<!ENTITY ns_flows "http://ns.adobe.com/Flows/1.0/">
	<!ENTITY ns_extend "http://ns.adobe.com/Extensibility/1.0/">
	<!ENTITY ns_ai "http://ns.adobe.com/AdobeIllustrator/10.0/">
	<!ENTITY ns_graphs "http://ns.adobe.com/Graphs/1.0/">
]>
<svg version="1.1" baseProfile="basic" id="Layer_1" xmlns:x="&ns_extend;" xmlns:i="&ns_ai;" xmlns:graph="&ns_graphs;"
	 xmlns="http://www.w3.org/2000/svg" xmlns:xlink="http://www.w3.org/1999/xlink" xmlns:a="http://ns.adobe.com/AdobeSVGViewerExtensions/3.0/"
	 x="0px" y="0px" width="965.813px" height="1324.804px" viewBox="0 0 965.813 1324.804" xml:space="preserve">
<path fill="#D39A98" stroke="#B57978" stroke-width="1.8907" d="M405.5,641.664c4.162,10.083,38.333,27.021,50.931,36.082
	c19.953,14.354,38.936,31.547,54.783,50.087c15.081,17.648,73.266,97.32,96.221,82.809c28.721-18.16-16.92-100.428-29.555-120.857
	c-25.152-40.657-56.807-76.192-101.923-94.657c-24.996-10.229-49.943-20.811-77.043-25.526c-12.419-2.162-25.816-6.998-38.584-5.982
	c-8.642,0.687-5.993-2.136-12.624,5.155c-4.619,5.074-6.303,12.002-9.62,17.746c24.928,15.81,53.816,35.799,70.716,58.971
	c1.049,0.002,3.202-0.377,4.264-0.548"/>
<path fill="#D39A98" stroke="#B57978" stroke-width="1.8907" d="M385,613.669c13.665,23.42,26.714,57.709,22.983,84.284
	c-3.78,26.901-12.255,58.166-14.976,85.563c-3.476,34.992-4.567,57.51-1.742,85.689c2.147,21.379,9.088,49-7.378,68.196
	c-5.932,6.918-18.458,12.705-25.278,1.529c-3.179-5.217-0.024-20.815,0.085-27.468l-1.207-5.625
	c1.734-37.627-6.355-84.104-8.148-149.032c-0.726-26.394-7.056-52.145-12.586-77.835c-2.49-11.574-4.104-23.7-8.334-34.536
	c-2.887-7.404-8.75-15.967-7.669-23.85c1.575-11.464,15.625-27.317,22.53-36.889"/>
<path fill="#FCD4D2"  a:adobe-blending-mode="multiply" d="M367.06,891.041c-4.34-9.701-4.362-26.585-5.291-37.366
	c-1.198-13.912-2.058-27.651-1.826-41.619c0.347-20.868,1.108-40.589-1.876-61.015c1.612,9.66,3.991,27.43,10.833,34.429
	c17.579-24.328,22.245-69.78,20.678-99.063c-1.609-30.081-10.294-48.982-23.636-75.214c-4.632,7.09-6.866,15.698-9.522,23.896
	c-0.411-7.636-5.95-31.971,0.457-38.03c6.186-5.851,15.093,1.86,22.053,2.718c-1.058-4.717-1.871-9.602-2.52-14.378
	c4.513,3.424,7.823,9.537,12.337,12.49c2.343,1.535,2.438,4.422,5.745,5.533c3.008,1.01,5.956-5.48,7.86-4.835
	c9.955,3.375,17.322,18.491,26.074,25.447c24.014,19.091,52.507,32.352,77.342,49.695c1.815-9.647-2.373-19.774-4.291-29.727
	c15.163,17.32,43.934,34.301,40.782,61.683c-1.049,9.146-10.714,23.381-19.907,20.665c-6.362-1.88-17.49-20.313-22.591-25.539
	c-15.014-15.383-32.338-28.36-52.421-38.746c-20.104-10.396-37.714-15.973-50.829-36.111c-3.68-5.653-8.239-10.5-12.983-14.568
	c-1.087,0.836-2.023,1.535-3.063,2.173c2.285,9.891,9.709,17.029,13.736,25.755c4.62,10.015,5.609,21.143,7.489,31.608
	c3.817,21.253-0.509,38.991-4.865,59.814c-9.354,44.733-5.56,91.046-10.424,137.264c-0.642,6.119-0.252,11.883-2.797,17.036
	c-8.034-15.877-10.682-33.849-16.87-50.215c0.769,10.729,1.587,22.14,1.075,32.529c-0.204,4.102-0.417,7.978-1.012,12.225
	c-0.68,4.851-4.771,9.455-1.28,8.856"/>
<path fill="none" stroke="#000000" stroke-width="0.4727" d="M348.487,861.445c-4.132,7.288-9.213,14.494-16.666,18.281"/>
<path fill="none" stroke="#000000" stroke-width="0.4727" d="M373.589,855.081c0.014,5.782,7.947,11.967,15.202,11.441"/>
<path fill="none" stroke="#000000" stroke-width="0.4727" d="M369.031,824.686c7.112,2.245,13.531,8.198,21.894,6.087"/>
<path fill="none" stroke="#000000" stroke-width="0.4727" d="M373.645,805.071c5.05-0.211,10.511,0.701,15.803,0.527"/>
<path fill="none" stroke="#000000" stroke-width="0.4727" d="M322.837,828.712c7.172-4.984,11.725-12.917,17.401-19.418"/>
<path fill="none" stroke="#000000" stroke-width="0.4727" d="M328.387,795.171c0.204-3.499,5.807-11.443,9.166-16.672"/>
<path fill="none" stroke="#000000" stroke-width="0.4727" d="M361.786,763.498c5.096,0.927,8.561,4.559,12.521,8.099"/>
<path fill="none" stroke="#000000" stroke-width="0.4727" d="M379.324,753.85c2.01,3.224,4.602,6.005,7.633,8.171"/>
<path fill="none" stroke="#000000" stroke-width="0.4727" d="M360.653,790.212c-0.38-0.247-0.759-0.491-1.139-0.736"/>
<path fill="none" stroke="#000000" stroke-width="0.4727" d="M343.338,896.866c3.599-2.633,7.348-5.083,11.18-7.302"/>
<path fill="none" stroke="#000000" stroke-width="0.4727" d="M371.792,887.818c-0.451,5.109,6.522,5.887,12.119,6.226"/>
<path fill="none" stroke="#000000" stroke-width="0.4727" d="M363.162,916.14c-0.084-1.138-4.232-3.139,0.393-1.559
	c2.395,3.032,5.269,7.063,6.505,10.859"/>
<path fill="none" stroke="#000000" stroke-width="0.4727" d="M358.124,851.534c-1.931-5.44,7.03,0.788,10.58,3.611"/>
<path fill="none" stroke="#000000" stroke-width="0.4727" d="M341.451,842.37c1.195-1.006,8.298-9.524,10.709-14.063"/>
<path fill="none" stroke="#000000" stroke-width="0.4727" d="M355.765,790.279c2.557-2.05,4.615-4.407,6.292-7.232"/>
<path fill="none" stroke="#000000" stroke-width="0.4727" d="M326.232,748.578c1.208-0.087,9.348-12.013,12.917-17.477"/>
<path fill="none" stroke="#000000" stroke-width="0.4727" d="M385.478,736.847c3.835,0.645,7.819,2.672,10.98,5.485"/>
<path fill="none" stroke="#000000" stroke-width="0.4727" d="M305.183,641.332c-7.811,1.58,6.455,0.911,8.198,0.489
	c6.554-1.592,11.348-1.387,14.389-8.273c-5.812-4.424-13.625-3.304-20.127-0.37c9.229,1.341,20.557-2.926,26.734-9.845
	c-6.063-4.237-15.844-1.541-21.741,1.693c7.052,0.87,16.523-2.789,20.146-9.223c-3.573-3.027-7.761-3.272-11.803-1.391"/>
<path fill="#D39A98" stroke="#B57978" stroke-width="1.8907" d="M349.406,938.846c0.031,33.733-19.644,63.031-46.113,87.879
	c-25.348,23.797-65.16,37.23-59.081,78.872c27.709,5.26,58.496-26.147,81.123-39.291c15.371-8.928,27.052-14.157,46.054-13.139
	c16.696,0.896,34.094,11.762,48.422-4.335c21.662-24.336-16.826-70.95-21.918-96.909c-2.718-13.853-4.699-35.697-13.802-47.763
	c-9.788-12.977-33.441-20.363-36.935,1.71c-0.795,5.02,0.099,9.03,2.25,13.189"/>
<path fill="#686D73" stroke="#95979A" stroke-width="1.8907" d="M373.587,1112.525c-3.615,1.906-6.289,3.33-10.659,1.866
	c-2.297-19.289-2.405-36.81-22.439-33.257c-13.78,2.444-27.125,23.182-41.919,5.115c6.894-13.629,37.151-45.591,51.097-26.595
	c-2.426,2.554-4.121,7.813-7.171,10.33c4.784-3.98,10.533-3.64,15.269-5.545c3.668,15.959,8.127,28.8,13.625,43.687"/>
<path fill="#84A53E" stroke="#48AA48" stroke-width="1.8907" d="M592.077,696.597c-5.892-0.918-13.146-13.188-17.349-17.406
	c-4.695-4.714-9.223-7.842-11.484-14.31c-16.907,10.979-28.881,35.676-38.146,53.375c-10.808,20.647,5.248,39.84,23.634,50.393
	c11.989,6.88,35.425,16.008,48.452,6.759c10.648-7.559,14.9-28.097,14.95-40.326c0.035-8.896-6.998-41.528-19.335-39.929"/>
<path fill="#228E44" d="M583.973,699.024c-0.202-0.635-0.431-0.987-0.93-1.451c-4.356,0.866-9.055,3.476-13.409,4.84
	c-2.907-5.609-11.603-14.741-11.544-15.562c0.06-0.819,4.461,12.526,7.485,14.773c-2.426-0.935-19.276-3.082-19.276-3.082
	s13.569,5.436,16.453,4.95c-3.804,0.025-20.238,9.801-20.238,9.801s17.175-3.226,20.869-6.619
	c-3.035,2.509-7.389,16.879-7.389,16.879s10.705-11.101,10.58-15.792c1.723,3.743,3.311,11.808,3.311,11.808
	s-1.096-10.301,0.004-15.277c0.745-3.367,2.014-1.922,5.266-2.853C575.881,701.233,584.159,699.618,583.973,699.024z"/>
<path fill="#A41E22" stroke="#7C1317" stroke-width="1.8907" d="M686.394,972.62c0,3.651,2.958,6.609,6.606,6.609h4.1
	c3.648,0,6.606-2.958,6.606-6.609V840.858c0-3.648-2.958-6.606-6.606-6.606H693c-3.648,0-6.606,2.958-6.606,6.606V972.62z"/>
<linearGradient id="SVGID_1_" gradientUnits="userSpaceOnUse" x1="695.2808" y1="886.6704" x2="693.7722" y2="845.9348">
	<stop  offset="0" style="stop-color:#FFFFFF"/>
	<stop  offset="1" style="stop-color:#000000"/>
	<a:midPointStop  offset="0" style="stop-color:#FFFFFF"/>
	<a:midPointStop  offset="0.5" style="stop-color:#FFFFFF"/>
	<a:midPointStop  offset="1" style="stop-color:#000000"/>
</linearGradient>
<rect x="687.039" y="845.404" fill="url(#SVGID_1_)"  a:adobe-blending-mode="multiply" width="15.086" height="44.759"/>
<g  a:adobe-knockout="true">
	<path fill="#A41E22" stroke="#7C1317" stroke-width="1.8907"  a:adobe-knockout="false" d="M392.09,871.026
		c0,0,146.071,3.245,256.436,100.627c110.363,97.38,144.988,206.661,144.988,206.661l61.124,0.322
		c0.2,0.479-87.632-165.526-188.802-244.854c-95.425-74.821-167.71-96.298-274.828-99.544c-49.75-1.506-1.083,37.87-1.083,37.87"/>
	<path fill="#A21E21"  a:adobe-knockout="false" d="M392.089,871.026c0,0,146.071,3.245,256.437,100.627
		c110.363,97.38,144.988,206.661,144.988,206.661l59.492,0.407c0.2,0.479-86.452-164.668-187.622-243.995
		c-95.425-74.821-167.525-96.181-274.644-99.427c-49.75-1.506-0.815,36.81-0.815,36.81"/>
	<path fill="#9F1D21"  a:adobe-knockout="false" d="M392.09,871.026c0,0,146.07,3.245,256.436,100.627
		c110.363,97.38,144.988,206.661,144.988,206.661l57.86,0.492c0.2,0.479-85.271-163.809-186.442-243.136
		c-95.424-74.821-167.341-96.063-274.459-99.31c-49.75-1.506-0.547,35.748-0.547,35.748"/>
	<path fill="#9C1D20"  a:adobe-knockout="false" d="M392.09,871.026c0,0,146.071,3.245,256.436,100.627
		c110.363,97.38,144.988,206.661,144.988,206.661l56.229,0.577c0.2,0.479-84.093-162.95-185.263-242.276
		c-95.425-74.822-167.158-95.947-274.276-99.193c-49.75-1.506-0.279,34.688-0.279,34.688"/>
	<path fill="#9A1C20"  a:adobe-knockout="false" d="M392.09,871.026c0,0,146.071,3.245,256.436,100.627
		c110.363,97.38,144.988,206.661,144.988,206.661l54.598,0.662c0.2,0.48-82.913-162.091-184.083-241.418
		c-95.425-74.821-166.974-95.829-274.091-99.075c-49.75-1.506-0.012,33.626-0.012,33.626"/>
	<path fill="#971C1F"  a:adobe-knockout="false" d="M392.09,871.026c0,0,146.071,3.245,256.436,100.627
		c110.363,97.38,144.988,206.661,144.988,206.661l52.966,0.747c0.2,0.479-81.733-161.232-182.903-240.56
		c-95.425-74.82-166.789-95.712-273.907-98.958c-49.75-1.506,0.256,32.565,0.256,32.565"/>
	<path fill="#941B1F"  a:adobe-knockout="false" d="M392.089,871.026c0,0,146.071,3.245,256.437,100.627
		c110.363,97.38,144.988,206.661,144.988,206.661l51.334,0.832c0.2,0.479-80.554-160.374-181.724-239.7
		c-95.425-74.821-166.604-95.595-273.723-98.841c-49.751-1.506,0.523,31.504,0.523,31.504"/>
	<path fill="#921B1E"  a:adobe-knockout="false" d="M392.09,871.026c0,0,146.07,3.245,256.436,100.627
		c110.363,97.38,144.988,206.661,144.988,206.661l49.702,0.917c0.2,0.479-79.373-159.515-180.543-238.842
		c-95.425-74.821-166.422-95.478-273.54-98.724c-49.75-1.506,0.792,30.443,0.792,30.443"/>
	<path fill="#8F1A1E"  a:adobe-knockout="false" d="M392.09,871.026c0,0,146.07,3.245,256.436,100.627
		c110.363,97.38,144.988,206.661,144.988,206.661l48.071,1.002c0.2,0.48-78.194-158.656-179.364-237.982
		c-95.424-74.821-166.237-95.36-273.355-98.606c-49.75-1.506,1.06,29.382,1.06,29.382"/>
	<path fill="#8C1A1D"  a:adobe-knockout="false" d="M392.089,871.026c0,0,146.071,3.245,256.437,100.627
		c110.363,97.38,144.988,206.661,144.988,206.661l46.439,1.087c0.2,0.479-77.014-157.798-178.185-237.123
		c-95.425-74.822-166.054-95.245-273.171-98.49c-49.75-1.506,1.327,28.321,1.327,28.321"/>
	<path fill="#8A191D"  a:adobe-knockout="false" d="M392.09,871.025c0,0,146.071,3.246,256.436,100.628
		c110.363,97.38,144.988,206.661,144.988,206.661l44.808,1.172c0.199,0.479-75.835-156.939-177.005-236.265
		c-95.425-74.822-165.869-95.127-272.987-98.373c-49.75-1.506,1.595,27.261,1.595,27.261"/>
	<path fill="#87181C"  a:adobe-knockout="false" d="M392.09,871.026c0,0,146.071,3.245,256.436,100.627
		c110.363,97.38,144.988,206.661,144.988,206.661l43.176,1.257c0.2,0.479-74.654-156.08-175.824-235.405
		c-95.426-74.822-165.686-95.011-272.803-98.256c-49.75-1.506,1.863,26.199,1.863,26.199"/>
	<path fill="#84181B"  a:adobe-knockout="false" d="M392.09,871.026c0,0,146.07,3.245,256.436,100.627
		c110.363,97.38,144.988,206.661,144.988,206.661l41.545,1.342c0.199,0.48-73.476-155.221-174.646-234.547
		c-95.425-74.822-165.501-94.893-272.619-98.139c-49.75-1.506,2.131,25.139,2.131,25.139"/>
	<path fill="#82171B"  a:adobe-knockout="false" d="M392.09,871.026c0,0,146.071,3.245,256.436,100.627
		c110.363,97.38,144.988,206.661,144.988,206.661l39.913,1.428c0.199,0.479-72.296-154.363-173.466-233.688
		c-95.425-74.822-165.316-94.776-272.435-98.021c-49.75-1.507,2.398,24.077,2.398,24.077"/>
	<path fill="#7F161A"  a:adobe-knockout="false" d="M392.09,871.026c0,0,146.071,3.245,256.436,100.627
		c110.363,97.38,144.988,206.661,144.988,206.661l38.281,1.512c0.199,0.48-71.115-153.504-172.285-232.829
		c-95.426-74.821-165.133-94.659-272.251-97.903c-49.751-1.508,2.666,23.016,2.666,23.016"/>
	<path fill="#7D151A"  a:adobe-knockout="false" d="M392.089,871.026c0,0,146.071,3.245,256.437,100.627
		c110.363,97.38,144.988,206.661,144.988,206.661l36.649,1.598c0.199,0.479-69.936-152.646-171.106-231.972
		c-95.424-74.821-164.947-94.54-272.065-97.786c-49.751-1.507,2.934,21.955,2.934,21.955"/>
	<path fill="#7A1519"  a:adobe-knockout="false" d="M392.09,871.026c0,0,146.071,3.245,256.436,100.627
		c110.363,97.38,144.988,206.661,144.988,206.661l35.018,1.682c0.199,0.48-68.756-151.786-169.926-231.111
		c-95.425-74.822-164.765-94.424-271.883-97.67c-49.75-1.506,3.202,20.895,3.202,20.895"/>
	<path fill="#781418"  a:adobe-knockout="false" d="M392.09,871.026c0,0,146.07,3.245,256.436,100.627
		c110.363,97.38,144.988,206.661,144.988,206.661l33.387,1.768c0.199,0.479-67.577-150.929-168.747-230.254
		c-95.425-74.821-164.58-94.307-271.698-97.552c-49.75-1.507,3.47,19.833,3.47,19.833"/>
	<path fill="#751317"  a:adobe-knockout="false" d="M392.09,871.026c0,0,146.071,3.245,256.436,100.627
		c110.363,97.38,144.988,206.661,144.988,206.661l31.755,1.852c0.199,0.48-66.397-150.068-167.567-229.394
		c-95.425-74.822-164.396-94.19-271.514-97.436c-49.75-1.507,3.738,18.772,3.738,18.772"/>
	<path fill="#731217"  a:adobe-knockout="false" d="M392.09,871.026c0,0,146.071,3.245,256.436,100.627
		c110.363,97.38,144.988,206.661,144.988,206.661l30.123,1.938c0.199,0.479-65.217-149.211-166.387-228.535
		c-95.426-74.822-164.213-94.073-271.331-97.318c-49.75-1.507,4.006,17.711,4.006,17.711"/>
	<path fill="#701116"  a:adobe-knockout="false" d="M392.09,871.026c0,0,146.07,3.245,256.436,100.627
		c110.363,97.38,144.988,206.661,144.988,206.661l28.491,2.022c0.2,0.479-64.037-148.352-165.207-227.677
		c-95.425-74.822-164.028-93.956-271.146-97.201c-49.75-1.507,4.274,16.65,4.274,16.65"/>
	<path fill="#6E1015"  a:adobe-knockout="false" d="M392.09,871.026c0,0,146.071,3.245,256.436,100.627
		c110.363,97.38,144.988,206.661,144.988,206.661l26.859,2.107c0.199,0.479-62.857-147.493-164.027-226.818
		c-95.425-74.821-163.844-93.838-270.962-97.083c-49.75-1.507,4.542,15.589,4.542,15.589"/>
	<path fill="#6C0F15"  a:adobe-knockout="false" d="M392.09,871.026c0,0,146.071,3.245,256.436,100.627
		c110.363,97.38,144.988,206.661,144.988,206.661l25.228,2.192c0.2,0.479-61.677-146.635-162.848-225.959
		c-95.425-74.822-163.659-93.722-270.778-96.967c-49.75-1.507,4.81,14.528,4.81,14.528"/>
	<path fill="#690E14"  a:adobe-knockout="false" d="M392.09,871.026c0,0,146.071,3.245,256.436,100.627
		c110.363,97.38,144.988,206.661,144.988,206.661l23.597,2.277c0.199,0.479-60.498-145.775-161.668-225.101
		c-95.425-74.821-163.477-93.604-270.595-96.849c-49.75-1.508,5.078,13.467,5.078,13.467"/>
	<path fill="#670D13"  a:adobe-knockout="false" d="M392.09,871.026c0,0,146.071,3.245,256.436,100.627
		c110.363,97.38,144.988,206.661,144.988,206.661l21.965,2.362c0.199,0.479-59.318-144.917-160.488-224.241
		c-95.425-74.822-163.292-93.487-270.41-96.732c-49.75-1.507,5.345,12.406,5.345,12.406"/>
</g>
<path fill="#A41E22" stroke="#7C1317" stroke-width="1.8907" d="M955.813,1190.101c0,3.649-2.958,6.607-6.607,6.607H725.461
	c-3.651,0-6.609-2.958-6.609-6.607v-11.671c0-3.65,2.958-6.608,6.609-6.608h223.744c3.649,0,6.607,2.958,6.607,6.608V1190.101z"/>
<path fill="#95979A" stroke="#686D73" stroke-width="1.8907" d="M370.678,824.948c-0.08-12.962-4.839-27.051-12.942-39.75
	c-7.967-12.483-17.303-19.49-27.501-29.81c-8.938-9.047-14.72-28.521,1.617-32.123c6.063-1.338,16.268,0.512,19.231,6.446
	c3.843,7.694-5.356,12.411-3.306,19.226c1.455,4.838,11.648,13.667,14.811,18.465c4.954,7.518,16.261,18.276,19.183,27.041
	c3.697,11.092,4.622,16.639,2.775,26.808c-0.57,3.135-2.368,6.764-4.353,9.29c-3.456,4.402-10.385,2.183-8.59-0.97"/>
<path fill="#E85E67" d="M953.061,1180.692c-0.328-0.979-2.22-4.892-5.87-4.892l-217.28,1.479c-3.65,0-3.588-1.303-7.827,1.957
	l-0.948,0.175c0-3.651,2.958-6.608,6.607-6.608l219.922,0.803c3.651,0,6.609,2.958,6.609,6.608L953.061,1180.692z"/>
<path fill="#A41E22" stroke="#7C1317" stroke-width="1.8907" d="M394.713,893.257c0,3.121-2.526,5.648-5.643,5.648h-23.84
	c-3.118,0-5.644-2.527-5.644-5.648v-75.606c0-3.116,2.526-5.643,5.644-5.643h23.84c3.117,0,5.643,2.526,5.643,5.643V893.257z"/>
<g>
	<path fill="#373D42" stroke="#000000" stroke-width="1.8907" d="M378.265,976.958c-85.832,0-155.411,69.577-155.411,155.408
		c0,85.832,69.579,155.41,155.411,155.41c85.831,0,155.409-69.578,155.409-155.41C533.674,1046.536,464.096,976.958,378.265,976.958
		z M333.516,1248.365c-64.063-24.716-95.962-96.683-71.248-160.746c24.715-64.063,96.682-95.962,160.743-71.247
		c64.067,24.713,95.962,96.682,71.25,160.744C469.546,1241.178,397.579,1273.076,333.516,1248.365z"/>
</g>
<g>
	<path fill="#828282" stroke="#FFFFFF" stroke-width="1.8907" d="M423.011,1016.372c-64.061-24.715-136.028,7.185-160.743,71.247
		c-24.714,64.063,7.185,136.03,71.248,160.746c64.063,24.711,136.03-7.187,160.745-71.249
		C518.973,1113.053,487.078,1041.084,423.011,1016.372z M479.89,1172.581c-21.727,56.312-84.986,84.352-141.3,62.627
		c-56.313-21.722-84.353-84.984-62.628-141.298c21.725-56.316,84.985-84.355,141.301-62.629
		C473.576,1053.005,501.614,1116.267,479.89,1172.581z"/>
</g>
<line fill="#FFFFFF" stroke="#000000" stroke-width="1.8907" x1="338.59" y1="1235.208" x2="416.434" y2="1038.822"/>
<line fill="#FFFFFF" stroke="#000000" stroke-width="1.8907" x1="280.557" y1="1178.925" x2="474.469" y2="1095.099"/>
<line fill="#FFFFFF" stroke="#000000" stroke-width="1.8907" x1="279.318" y1="1098.091" x2="475.706" y2="1175.937"/>
<line fill="#FFFFFF" stroke="#000000" stroke-width="1.8907" x1="332.196" y1="1041.602" x2="422.828" y2="1232.425"/>
<line fill="#FFFFFF" stroke="#000000" stroke-width="1.8907" x1="299.706" y1="1208.451" x2="455.318" y2="1065.579"/>
<line fill="#FFFFFF" stroke="#000000" stroke-width="1.8907" x1="271.98" y1="1132.511" x2="483.042" y2="1141.515"/>
<line fill="#FFFFFF" stroke="#000000" stroke-width="1.8907" x1="306.076" y1="1059.207" x2="448.948" y2="1214.818"/>
<line fill="#FFFFFF" stroke="#000000" stroke-width="1.8907" x1="378.279" y1="1031.391" x2="376.745" y2="1242.637"/>
<path fill="#95979A" stroke="#686D73" stroke-width="1.8907" d="M276.992,988.594c8.261-1.636,16.324-6.376,24.834-8.286
	c18.352-4.121,141.791-48.027,208.046,56.854c6.776,10.73,11.051,26.744,22.272,33.881c3.441,2.187,17.127,4.827,20.342,1.933
	c4.691-4.222,0.613-17.737-0.364-23.455c-3.353-19.595-16.445-38.935-29.084-54.116c-24.198-29.082-57.731-54.756-95.698-59.596
	c-37.188-4.736-72.65,0.445-108.779,12.467c-12.348,4.109-58.648,16.562-55.026,33.04
	C263.535,981.316,269.97,989.988,276.992,988.594z"/>
<path fill="#FFFFFF" d="M493.763,1007.373c19.437,10.677,22.267,59.867,50.897,57.981c-19.979-8.189-32.12-38.616-42.192-55.87
	c-5.758-9.864-11.29-16.922-20.031-24.157c-7.652-6.333-21.497-14.824-26.611-22.862c4.597-0.357,9.357-0.414,13.595,1.332
	c-4.33-2.766-10.495-4.605-13.307-8.824c2.377,0.054,5.059-0.564,7.273-0.001c-2.26-1.452-6.286-2.991-8.577-4.506
	c1.565,0.21,3.521,0.167,5.244,0.374c-10.583-4.379-20.694-3.017-31.403-4.93c4.527,2.271,9.547,5.09,13.314,8.05
	c-2.923,0.144-6.134,1.015-9.055,1.127c2.471,2.373,6.067,4.183,9.404,5.595c-2.028-0.193-4.129,0.581-6.09,0.577
	c1.089,1.36,2.273,4.502,4.025,5.874c-14.265-4.509-27.768-5.541-42.184-6.521c-16.22-1.104-34.312-5.782-50.516-5.166
	c-12.822,0.488-29.562,6.297-40.771,11.743c-3.388,1.646-14.697,9.391-19.006,6.256c-6.01-4.373,3.851-8.978,6.34-12.445
	c-3.75-0.166-16.686,7.007-19.279,9.99c-7.995,9.201-1.909,12.86,5.221,9.54c16.972-7.896,30.3-8.987,45.15-14.866
	c25.256-9.992,64.707-0.591,90.144,2.026c17.036,1.753,39.418,2.87,53.943,12.956c8,5.551,20.779,18.861,24.547,27.648"/>
<path fill="#D0181F" stroke="#911518" stroke-width="1.8907" d="M371.604,1127.236l-10.168-220.938c0,0,5.546-13.863,14.791-17.563
	c9.244-3.699,18.487,12.94,18.487,12.94l-5.546,225.561c0,0,3.698,12.018-8.319,15.715
	C368.831,1146.648,371.604,1127.236,371.604,1127.236z"/>
<path fill="#373D42" stroke="#000000" stroke-width="1.8907" d="M818.397,1113.141c-52.665,0-95.358,42.692-95.358,95.358
	s42.693,95.359,95.358,95.359c52.668,0,95.36-42.693,95.36-95.359S871.065,1113.141,818.397,1113.141z M790.938,1279.675
	c-39.307-15.166-58.878-59.324-43.714-98.634c15.165-39.308,59.323-58.881,98.631-43.717c39.311,15.163,58.882,59.325,43.718,98.633
	C874.409,1275.266,830.25,1294.838,790.938,1279.675z"/>
<g>
	<path fill="#828282" stroke="#FFFFFF" stroke-width="1.8907" d="M845.855,1137.325c-39.308-15.164-83.466,4.409-98.631,43.717
		c-15.164,39.31,4.407,83.468,43.714,98.634c39.312,15.163,83.471-4.409,98.635-43.718
		C904.737,1196.65,885.166,1152.488,845.855,1137.325z M880.755,1233.172c-13.33,34.555-52.146,51.759-86.7,38.431
		c-34.555-13.329-51.759-52.146-38.43-86.701c13.33-34.554,52.148-51.76,86.703-38.429
		C876.881,1159.804,894.085,1198.622,880.755,1233.172z"/>
</g>
<line fill="#FFFFFF" stroke="#000000" stroke-width="1.8907" x1="794.055" y1="1271.603" x2="841.82" y2="1151.1"/>
<line fill="#FFFFFF" stroke="#000000" stroke-width="1.8907" x1="758.446" y1="1237.066" x2="877.428" y2="1185.634"/>
<line fill="#FFFFFF" stroke="#000000" stroke-width="1.8907" x1="757.688" y1="1187.468" x2="878.188" y2="1235.236"/>
<line fill="#FFFFFF" stroke="#000000" stroke-width="1.8907" x1="790.13" y1="1152.808" x2="845.743" y2="1269.894"/>
<line fill="#FFFFFF" stroke="#000000" stroke-width="1.8907" x1="770.194" y1="1255.185" x2="865.677" y2="1167.517"/>
<line fill="#FFFFFF" stroke="#000000" stroke-width="1.8907" x1="753.184" y1="1208.589" x2="882.69" y2="1214.113"/>
<line fill="#FFFFFF" stroke="#000000" stroke-width="1.8907" x1="774.105" y1="1163.61" x2="861.771" y2="1259.091"/>
<line fill="#FFFFFF" stroke="#000000" stroke-width="1.8907" x1="818.407" y1="1146.542" x2="817.466" y2="1276.16"/>
<circle fill="#95979A" stroke="#FFFFFF" stroke-width="1.8907" cx="819.266" cy="1210.215" r="22.502"/>
<circle fill="#D0181F" stroke="#911518" stroke-width="1.8907" cx="819.48" cy="1208.611" r="11.901"/>
<path fill="#D0181F" stroke="#911518" stroke-width="1.8907" d="M633.446,846.36c14.732-5.478,37.733-0.438,51.94,2.137
	c13.074,2.367,41.56,7.269,54.148,1.137c16.066-7.825,16.613-33.347,2.107-42.226c-18.902-11.571-38.221,4.592-55.178,11.113
	c-12.251,4.71-25.602,2.995-37.871,0.55c-12.568-2.507-25.747-12.904-38.947-10.578c-3.931,0.694-12.084,3.316-13.039,8.604
	c-1.421,7.861,7.006,9.358,12.245,12.767c7.904,5.141,17.536,17.805,25.676,16.497"/>
<path fill="#D0181F" stroke="#911518" stroke-width="1.8907" d="M471.87,1178.535c1.007,3.511-1.018,7.168-4.524,8.179
	l-59.05,16.985c-3.506,1.008-7.168-1.013-8.176-4.522l-2.33-8.097c-1.008-3.509,1.018-7.168,4.525-8.178l59.047-16.986
	c3.508-1.008,7.169,1.016,8.178,4.524L471.87,1178.535z"/>
<path fill="#E85E67" d="M699.253,823.91c9.055,0,32.365-4.146,36.571,5.035c-0.057-3.446-0.999-6.803-2.735-9.99
	c2.998,0.893,5.153,0.519,7.895,2.783c-0.479-1.315-0.277-3.43-0.683-4.827c1.502,0.346,3.44,0.203,4.8,0.713
	c-1.589-5.293-17.069-17.737-20.191-8.228c2.049,0.532,2.554,1.389,3.89,2.048c-3.678,1.25-8.119,1.455-11.781,2.274
	c0.788,0.414,1.457,0.294,2.297,1.023c-7.657,0.561-16.244,5.683-24.067,7.327c1.258,1.925,2.81,1.596,5.029,1.841"/>
<path fill="#686D73" stroke="#45494E" stroke-width="1.8907" d="M381.038,666.445c9.865-2.313,15.673-15.908,25.324-17.697
	c21.362-3.958,49.081-4.626,69.741,1.965c20.454,6.525,115.014,43.841,108.54,0.96c-39.505,17.51-76.129-9.289-114.602-18.198
	c-55.339-12.813-103.216,12.169-117.28,45.762C351.825,681.475,372.899,668.358,381.038,666.445z"/>
<path fill="#FCD4D2" stroke="#CB8E8D" stroke-width="1.8907" d="M373.209,1142.041c-3.287,11.875-30.388-13.246-39.764-7.063
	c-14.629,9.649,1.891,34.528,12.654,40.206c12.094,6.381,37.812-4.053,31.686-21.318c-1.518-4.279-31.639-17.248-37.088-17.55
	c-1.331,18.053,16.962,27.805,13.394,7.438c6.999-0.912,13.338,0.594,19.119,4.237"/>
<path fill="#D39A98" stroke="#B57978" stroke-width="1.8907" d="M321.085,382.567c6.075-18.774,33.293-47.268,50.384-57.197
	c9.96-5.786,22.967-10.001,34.708-7.831c9.719,1.796,16.353,10.235,25.381,11.501c11.249,1.578,26.498-5.895,37.525-8.228
	c13.787-2.916,27.51-4.917,41.223-8.686c32.063-8.809,63.312-15.993,95.781-19.579c14.064-1.553,26.839-5.474,40.166-7.556
	c13.698-2.139,25.164-10.474,27.456,5.961c2.52,18.086-5.825,43.795-8.221,61.878c-4.227,31.951-7.089,64.006-11.337,95.837
	c-6.52,48.907-12.274,98.304-19.477,146.961c-1.532,10.35-0.767,15.778-13.125,18.505c-11.591,2.558-21.844-0.971-24.459-11.555
	c-5.117-20.735,5.696-53.876,10.113-73.915c5.823-26.436,8.471-53.851,12.04-80.836c4.981-37.638,2.473-76.561,5.593-113.477
	c-16.016-5.48-13.879,3.006-30.001,2.795c-20.235-0.265-37.164,0.564-57.177,7.15c-25.881,8.512-51.935,19.995-75.971,32.137
	c-9.267,4.681-69.015,39.896-50.021,52.274"/>
<path fill="#FCD4D2" stroke="#CB8E8D" stroke-width="1.8907" d="M583.495,700.138c0-16.367,8.137-17.781-2.977-32.736
	c-22.328-30.048-66.382-57.37-93.78-82.169c-19.225-17.398-35.867-35.524-62.464-36.875c-25.315-1.288-48.299-1.309-72.579-9.301
	c-28.323-9.321-42.061-24.237-53.9-51.786c-7.871-18.319-9.67-43.097-20.838-58.836c0.525,4.769,1.49,7.9,3.005,12.338
	c-0.067-2.797-0.886-4.188-1.776-6.737c-13.585-0.794-21.506-6.639-35.117-7.327c-1.361-13.307-11.364-23.077-18.046-34.188
	c10.103-6.403,29.828-30.302,34.001-41.618c11.832,19.646,12.679,42.612,41.742,38.233c15.72-2.368,30.878-9.729,46.456-13.065
	c37.605-8.057,67.94-17.737,106.343-7.818c32.943,8.508,74.624,37.735,94.181,62.958c24.574,31.69,48.039,62.105,66.704,97.544
	c28.081,53.321,41.826,119.378,77.859,166.917c4.186,5.528-46.094,43.068-51.556,45.659c-8.146,3.866-20.688,8.914-28.501,1.373
	c-3.475-3.352-21.771,4.256-24.292-0.897C584.2,734.121,583.495,708.675,583.495,700.138z"/>
<path fill="none" stroke="#000000" stroke-width="0.4727" d="M580.049,713.479c-16.758-3.496-0.669,16.079,6.829,9.851
	c9.943-8.255-10.568-17.553-17.161-10.179c7.244,4.254,21.802-0.688,17.906-11.311c-3.164-8.627-15.037-4.921-16.298,2.486
	c10.919,2.012,14.968-9.592,13.035-18.963c-6.813-1.587-13.896,0.819-16.169,7.385c14.298,7.208,20.587-26.601,5.904-19.446"/>
<path fill="#FCD4D2"  a:adobe-blending-mode="multiply" d="M410.411,457.535c0.176,7.161,5.771,12.864,12.875,13.494
	c-3.562-3.818-3.554-7.877-5.21-11.781c12.096,5.656,27.599,10.461,33.706,25.038c3.303,7.892,6.145,42.256,2.378,47.796
	c7.533-8.063,4.656-56.804,11.314-56.868c14.142-0.135,14.992,62.984,14.799,74.207c4.512-15.129,2.846-30.002,1.482-45.382
	c-0.796-8.996-3.92-29.146,10.537-19.756c13.623,8.849,17.36,55.373,16.627,69.823c9.762-10.484-0.443-40.623-0.298-54.492
	c0.237-22.372,9.886-19.87,18.228-1.902c5.467,11.783,8.982,24.866,11.865,37.202c2.551,10.919,1.576,25.363,5.697,35.187
	c-0.238-14.13-3.006-53.559,20.792-48.281c13.321,2.953,31.997,27.52,38.323,38.357c8.366,14.332,14.484,37.753,10.415,53.57
	c-4.666,18.142-18.294,31.6-16.03,51.666c1.269-11.095,5.188-27.201,14.875-33.954c10.675,15.271,0.413,60.905,12.991,69.971
	c8.851-10.374,26.674-14.233,32.012-27.795c5.971-15.171-5.694-36.589-11.184-50.919c-9.256-24.151-16.273-47.584-28.986-69.939
	c-22.005-38.697-43.641-78.138-71.833-114.543c-14.146-18.264-54.301-61.981-78.83-58.442c-26.082,3.76-90.189,49.383-61.012,77.744
	"/>
<path fill="#FCD4D2" stroke="#CB8E8D" stroke-width="1.8907" d="M340.471,780.442c9.845,6.813,51.441,2.057,68.452,2.898
	c26.948,1.337,54.695,5.866,80.353,13.512c24.422,7.276,125.547,46.027,138.056,18.968c15.646-33.856-75.462-82.482-99.287-93.781
	c-47.418-22.48-97.779-36.367-150.371-26.493c-29.139,5.472-58.441,10.589-86.23,22.398c-12.736,5.41-27.967,8.938-39.131,17.485
	c-7.556,5.785-6.797,1.604-8.562,12.276c-1.232,7.432,1.345,14.821,1.711,22.094c32.402-0.288,70.945,0.914,100.337,12.198
	c0.967-0.622,2.725-2.256,3.602-3.044"/>
<path fill="#FCD4D2" stroke="#CB8E8D" stroke-width="1.8907" d="M303.27,765.562c26.555,13.441,59.025,37.269,71.427,63.987
	c12.554,27.049,23.379,60.921,37.201,87.795c17.657,34.325,30.073,55.731,49.475,80.021c14.723,18.426,37.586,39.748,33.851,67.26
	c-1.344,9.911-9.44,22.712-22.387,16.476c-6.041-2.912-12.432-19.171-16.296-25.369l-4.464-4.463
	c-20.833-35.715-55.995-73.736-96.351-132.516c-16.402-23.896-37.587-43.858-58-64.24c-9.194-9.183-17.91-19.399-28.268-26.866
	c-7.076-5.103-17.584-9.499-21.286-17.409c-5.385-11.508-1.882-34.495-1.224-47.433"/>
<path fill="#FCD4D2"  a:adobe-blending-mode="multiply" d="M452.076,1031.923c-9.782-6.357-19.869-21.905-27.15-31.29
	c-9.396-12.108-18.381-24.261-26.492-37.272c-12.121-19.444-23.173-38.074-38.101-55.124c7.245,7.945,20.029,22.904,30.509,25.276
	c1.701-32.9-21.093-77.577-39.992-103.635c-19.415-26.77-38.687-39.012-66.623-55.238c-0.043,9.296,3.03,18.562,5.469,27.703
	c-4.934-6.795-24.544-25.925-22.25-35.329c2.215-9.08,15.021-7.281,21.949-10.64c-3.788-3.717-7.447-7.736-10.894-11.752
	c6.201,0.465,12.896,4.126,18.817,4.157c3.074,0.019,4.884,2.624,8.593,1.677c3.375-0.862,2.224-8.602,4.363-9.142
	c11.188-2.824,26.992,6.718,39.204,7.912c33.515,3.282,67.684-1.479,100.913-0.3c-4.077-9.974-13.976-16.813-21.675-24.841
	c24.3,6.927,60.943,5.427,74.361,32.546c4.482,9.055,4.06,27.938-6.032,30.914c-6.985,2.059-28.229-8.3-36.044-10.074
	c-23.01-5.229-46.715-6.864-71.417-4.466c-24.729,2.401-44.284,7.759-68.378-2.985c-6.762-3.018-13.854-4.768-20.651-5.689
	c-0.503,1.42-0.95,2.62-1.527,3.832c8.001,7.753,19.101,9.905,28.012,15.548c10.231,6.478,17.775,16.146,25.746,24.673
	c16.188,17.313,22.773,36.242,31.172,58.035c18.043,46.809,49.148,87.23,72.215,132.732c3.056,6.023,6.852,11.106,7.578,17.371
	c-16.869-9.846-30.024-24.834-45.484-36.228c7.105,9.431,14.661,19.46,20.382,29.343c2.258,3.902,4.37,7.602,6.354,11.87
	c2.265,4.876,1.239,11.56,4.101,8.927"/>
<path fill="#A5CF46" stroke="#48AA48" stroke-width="1.8907" d="M507.134,704.552c-13.439,57.448-18.851,114.35-8.89,175.546
	c10.384,63.774,100.503-2.332,126.44-20.461c14.745-10.3,31.464-19.357,47.546-28.232c14.332-7.912,41.197-15.265,47.396-31.947
	c13.664-36.758-25.879-71.785-6.991-103.83c-12.949-18.387-63.077-5.364-79.018,1.449c-23.487,10.038-37.364,26.12-61.009,34.259
	c6.483,9.204,18.247,27.773,26.561,33.253c-26.607-22.919-53.555-55.816-90.29-61.342c-1.828,4.471-1.348,7.999-1.745,7.257"/>
<path fill="#FCD4D2" stroke="#CB8E8D" stroke-width="1.8907" d="M310.709,420.333c3.968-21.632,27.211-50.183,44.643-63.652
	c10.159-7.848,23.914-14.409,37.201-13.728c11.002,0.564,19.566,8.917,29.729,8.996c12.655,0.101,28.406-10.384,40.25-14.575
	c14.808-5.239,29.678-9.456,44.276-15.624c34.137-14.421,67.61-26.926,102.956-35.636c15.318-3.771,28.857-9.97,43.275-14.217
	c14.826-4.367,26.274-15.254,31.207,2.571c5.429,19.614-0.034,49.236-0.034,69.564c0,35.92,1.524,71.756,1.489,107.544
	c-0.056,54.986,0.806,110.402-0.035,165.212c-0.182,11.66,1.457,17.545-11.795,22.362c-12.431,4.522-24.277,2.12-28.715-9.188
	c-8.685-22.16-1.581-60.356,0.365-83.141c2.571-30.06,1.487-60.732,1.487-91.07c0-42.312-8.461-84.947-10.415-126.191
	c-18.495-3.712-14.893,5.351-32.736,7.475c-22.396,2.665-40.979,6.056-62.126,16.257c-27.345,13.19-54.451,29.685-79.235,46.615
	c-9.553,6.526-70.418,54.167-47.623,65.066"/>
<path fill="#37B44A" d="M542.197,883.716c1.103,0.053,1.783-0.099,2.792-0.61c1.163-7.286-0.19-16.104,0.194-23.676
	c10.414-1.294,29.65-9.574,30.893-9.01c1.242,0.565-22.08-0.273-27.326,3.144c2.854-3.241,15.914-28.249,15.914-28.249
	s-16.291,18.001-17.195,22.773c2.153-5.938-3.599-37.171-3.599-37.171s-4.874,28.607-1.719,36.322
	c-2.158-6.177-22.03-21.241-22.03-21.241s11.114,23.071,18.494,25.581c-6.82,0.526-20.3-1.65-20.3-1.65s16.68,4.233,23.794,8.814
	c4.816,3.102,1.835,4.245,1.406,9.847C543.419,869.842,541.165,883.667,542.197,883.716z"/>
<path fill="#37B44A" d="M706.006,801.38c0.646-0.896,0.888-1.551,1.01-2.675c-5.479-4.943-13.615-8.605-19.756-13.05
	c4.585-9.44,8.108-30.085,9.258-30.819c1.151-0.735-12.247,18.373-12.238,24.632c-1.165-4.158-15.033-28.726-15.033-28.726
	s6.231,23.464,9.744,26.82c-3.81-5.037-33.141-17.215-33.141-17.215s21.344,19.663,29.533,21.215
	c-6.356-1.552-29.811,6.917-29.811,6.917s25.404,3.235,31.526-1.589c-3.271,6.008-12.435,16.13-12.435,16.13
	s12.631-11.686,20.344-15.16c5.226-2.354,4.562,0.771,9.028,4.18C695.033,792.803,705.402,802.219,706.006,801.38z"/>
<path fill="#37B44A" d="M520.297,734.273c-0.894,0.65-1.325,1.194-1.795,2.225c3.664,6.407,10.246,12.43,14.69,18.569
	c-7.305,7.535-17.102,26.045-18.424,26.385c-1.324,0.338,17.375-13.626,19.32-19.575c-0.192,4.313,5.307,31.984,5.307,31.984
	s1.411-24.237-0.875-28.522c2.044,5.975,26.102,26.708,26.102,26.708s-14.13-25.348-21.425-29.38
	c5.552,3.458,30.478,2.742,30.478,2.742s-23.12-11.01-30.444-8.341c4.985-4.684,16.852-11.436,16.852-11.436
	s-15.649,7.152-24.062,8.044c-5.699,0.603-4.092-2.158-7.271-6.79C528.041,745.85,521.135,733.664,520.297,734.273z"/>
<path fill="#37B44A" d="M624.124,823.266c0.439-0.609,0.604-1.055,0.687-1.819c-3.722-3.356-9.248-5.846-13.419-8.862
	c3.113-6.414,5.51-20.435,6.289-20.934c0.782-0.501-8.32,12.479-8.313,16.731c-0.792-2.825-10.213-19.513-10.213-19.513
	s4.234,15.938,6.619,18.217c-2.588-3.419-22.511-11.693-22.511-11.693s14.498,13.356,20.06,14.411
	c-4.317-1.055-20.247,4.699-20.247,4.699s17.256,2.197,21.413-1.081c-2.223,4.081-8.446,10.957-8.446,10.957s8.58-7.938,13.82-10.3
	c3.548-1.595,3.098,0.525,6.131,2.84C616.672,817.439,623.713,823.836,624.124,823.266z"/>
<path fill="#37B44A" d="M657.56,813.898c-1.015-0.441-1.705-0.539-2.83-0.421c-3.67,6.402-5.527,15.129-8.571,22.071
	c-10.196-2.482-31.119-1.555-32.081-2.522c-0.962-0.97,20.55,8.079,26.666,6.744c-3.817,2.021-24.892,20.776-24.892,20.776
	s21.611-11.058,24.147-15.202c-0.584,0.682-1.202,1.899-1.833,3.484l13.113-8.639c-0.958-1.005-1.808-1.985-2.491-2.908
	c-3.404-4.608-0.21-4.621,2.175-9.708C651.498,826.438,658.506,814.311,657.56,813.898z"/>
<path fill="#37B44A" d="M643.891,743.279c-0.201-0.636-0.43-0.988-0.93-1.452c-4.357,0.866-9.055,3.475-13.409,4.84
	c-2.906-5.609-11.603-14.742-11.544-15.562c0.06-0.82,4.461,12.525,7.486,14.772c-2.427-0.934-19.276-3.081-19.276-3.081
	s13.568,5.436,16.452,4.949c-3.803,0.026-20.238,9.801-20.238,9.801s17.175-3.226,20.869-6.619
	c-3.035,2.509-7.388,16.88-7.388,16.88s10.704-11.101,10.579-15.793c1.722,3.743,3.31,11.809,3.31,11.809
	s-1.095-10.301,0.004-15.277c0.746-3.368,2.015-1.922,5.267-2.853C635.8,745.487,644.078,743.871,643.891,743.279z"/>
<path fill="#37B44A" d="M694.766,677.083c-0.978-0.515-1.659-0.665-2.789-0.63c-4.139,6.109-6.645,14.671-10.198,21.368
	c-9.981-3.238-30.917-3.882-31.803-4.919c-0.886-1.039,19.888,9.596,26.086,8.723c-3.959,1.728-26.377,18.853-26.377,18.853
	s22.379-9.409,25.219-13.351c-4.462,4.468-12.479,35.198-12.479,35.198s16.532-23.853,16.938-32.176
	c-0.661,6.509,10.964,28.568,10.964,28.568s-0.301-25.607-5.923-31.004c6.401,2.411,17.691,10.091,17.691,10.091
	s-13.317-10.897-17.824-18.06c-3.051-4.851,0.137-4.623,2.895-9.519C687.785,689.135,695.68,677.566,694.766,677.083z"/>
<path opacity="0.48" fill="#7C9E34"  a:adobe-blending-mode="multiply" d="M510.109,753.658c0.526-1.486,1.136-2.934,1.824-4.346
	c13.2,1.307,28.896,11.477,41.41,15.842c12.871,4.486,25.242,10.66,37.227,17.701c-1.26-3.497-0.468-7.912-1.368-11.228
	c7.54,5.125,17.592,11.137,26.408,13.088c-2.32-5.001-5.599-9.99-8.214-14.796c5.912,0.493,11.346,1.504,17.182,1.292
	c-3.938-4.108-8.271-9.056-12.83-12.854c4.302,2.381,9.513,3.868,14.304,4.001c-3.874-4.728-10.527-7.853-16.093-12.015
	c4.716-10.217-0.091-20.689,2.827-30.911c2.911-10.203,9.798-13.06,19.263-18.271c19.739-10.867,40.774-15.799,60.867-24.735
	c1.117,22.173,5.77,41.199,9.157,62.352c1.664,10.369,6.156,19.889,7.433,29.765c1.289,9.983-4.395,21.069,0.151,29.752
	c-6.239,6.18-17.645,8.81-25.368,13.733c-11.135,7.102-21.22,15.228-32.774,21.654c-21.183,11.784-42.458,22.465-64.059,34.146
	c-8.275,4.476-17.027,7.222-25.271,11.074c-8.478,3.965-16.519,14.695-23.725,17.684c-21.637,8.971-35.369-16.248-38.575-34.007
	c12.07-3.826,23.392-7.084,35.149-12.529c11.8-5.462,34.739-9.914,41.996-20.241c-23.737-1.219-46.711,11.929-69.638,8.407
	c-7.651-16.445-20.395-77.823-0.259-87.533"/>
<g>
	<path fill="#E1F4FD" stroke="#A5D1E6" stroke-width="1.8907" d="M710.142,678.567c-0.241,0.436-1.782,0.91-0.035,0.527
		c8.415-8.214,18.578-10.909,29.849-6.067c11.139,4.788,14.246,16.274,21.424,24.934c6.11,7.371,20.844,14.094,29.946,8.086
		c5.321-3.512,2.223-9.471,2.323-15.196c-11.092,4.613-19.744,9.413-32.851,6.636c-14.362-3.042-5.374-17.704-14.631-25.481
		c-6.943-5.833-18.544-7.791-27.346-5.509c-7.936,2.059-15.839,10.272-8.68,18.175"/>
	<path fill="#A41E22" stroke="#7C1317" stroke-width="1.8907" d="M713.194,683.449c5.783-20.402,38.237-7.529,51.262-4.867
		c12.095,2.472,27.678-2.214,38.35-7.446c0.743-5.232-1.487-9.612-3.065-14.462c-9.005,3.232-16.192,13.807-25.515,17.145
		c-7.697,2.757-16.078,3.972-23.326,0.037c-7.723-4.191-11.637-11.573-21.868-8.12c-5.902,1.99-18.021,14.889-17.668,20.156"/>
	<path fill="#509AD4" stroke="#155580" stroke-width="1.8907" d="M715.024,683.449c-0.698-0.17-1.145-0.576-1.34-1.221
		c1.943-7.177,11.454-0.431,14.309,2.568c6.811,7.158,7.506,18.887,13.277,27.066c8.801,12.47,18.897,13.096,32.894,12.387
		c-1.456-3.265-1.028-6.682-1.251-10.189c-13.216-0.681-40.514,6.568-39.593-13.018c0.671-14.293-4.42-24.599-20.212-23.728
		c-0.864,0.709,0.525,0.187,0.695,0.641"/>
	<path fill="#95979A" stroke="#686D73" stroke-width="1.8907" d="M362.049,696.469c13.027-3.058,18.016-13.924,30.763-16.287
		c28.212-5.229,64.82-6.111,92.11,2.595c27.013,8.616,151.904,57.903,143.354,1.268c-52.174,23.126-101.894-7.496-151.36-24.033
		c-39.598-13.239-119.644-5.406-138.217,38.962C337.461,701.931,351.297,698.993,362.049,696.469z"/>
	<path fill="#D0181F" stroke="#911518" stroke-width="1.8907" d="M595.4,691.384c0.93,7.78,0.624,25.305,15.869,22.003
		c10.738-2.326,16.274-10.84,27.465-9.034c5.713,0.922,9.115,1.793,14.202-1.83c5.282-3.761,6.212-5.056,13.263-5.037
		c11.389,0.03,22.505-1.922,33.581-2.457c5.079-0.245,8.15,1.73,12.326-3.037c3.076-3.51,5.089-9.872,4.288-14.66
		c-2.351-14.069-15.886-17.459-27.616-16.433c-26.334,2.308-51.749,14.16-78.12,17.057c-5.994,0.659-17.867,3.889-15.775,12.738
		c0.97,0.406,0.935-0.311,1.738-0.53"/>
</g>
<path fill="#B2B4B7" d="M339.675,699.929c7.865-13.963,24.946-23.848,38.484-31.126c16.33-8.781,31.044-8.859,48.946-7.938
	c20.67,1.062,38.969,3.249,58.422,7.786c10.893,2.538,21.239,4.739,31.753,8.682c8.608,3.229,16.705,7.759,25.756,9.776
	c11.564,2.577,22.156,4.557,33.445,7.938c6.623,1.984,14.658,3.772,21.362,1.83c-11.045,4.159-25.212,2.787-36.62,1.22
	c-15.686-2.156-34.262-11.423-50.046-14.48c-34.957-6.772-67.4-17.865-102.976-17.865c-13.667,0-27.457,4.399-39.231,11.429
	c-5.871,3.506-10.788,8.589-15.839,12.971C348.153,694.467,344.856,696.467,339.675,699.929
	C339.518,698.88,339.553,701,339.675,699.929c0.301,0.842,1.41-0.371,1.892,0.361"/>
<path fill="#911518" d="M609.087,679.722c-1.472,0.516-2.112,1.322-1.662,2.966c2.015,0.738,3.541-0.477,5.135,0.923
	c1.542,1.354,1.383,5.685,1.642,7.498c0.485,3.406,0.663,11.891,2.701,14.295c0.962-1.366,0.912-3.839,1.207-5.238
	c0.234,1.907,0.733,3.862,2.156,5.141c0.354-1.415,0.728-2.873,1.1-4.282c0.191,1.147,1.299,2.151,2.049,3.099
	c1.665-1.78,1.846-4.791,3.453-6.671c0.448,0.349,1.418,0.611,1.779,0.917c2.697-5.166,0.547-11.473,0.501-16.822
	c-0.013-1.379,1.678-1.412,0.692-3.462c-0.623-1.296-3.863-2.294-5.12-2.3c-4.424-0.016-12.71,7.389-16.067,4.373"/>
<path fill="#FFFFFF" d="M436.718,659.647c-3.416-1.296-9.021,0.63-10.949,3.556c4.835,1.67,16.01,2.57,20.707,0.563
	c-2.821-2.348-8.994-3.621-12.811-3.507"/>
<path fill="#FCD4D2" stroke="#CB8E8D" stroke-width="1.8907" d="M641.056,601.876c-3.869,18.745-12.029,19.381-23.849,31.21
	c-10.331,10.339-11.231,28.426-10.072,43.044c5.645-2.256,10.464-0.473,16.716-0.75c3.136,13.396-3.117,66.226,24.724,56.026
	c17.05-6.244,13.316-57.636,13.316-72.53c0.754,11.275-13.941,64.383,14.876,49.802c17.332-8.771,11.52-42.508,8.935-57.241
	c0.004,11.514-2.973,52.662,17.854,48.648c12.539-2.415,9.138-32.023,10.459-43.187c3.652-30.856-32.248-40.252-32.778-69.455
	c0,1.337-0.014,2.675,0,4.014"/>
<path fill="#FCD4D2" stroke="#CB8E8D" stroke-width="1.8907" d="M636.594,329.561c0.5-12.584-5.953-25.297,14.882-37.2"/>
<path fill="#E5E4D9" stroke="#BAB8A1" stroke-width="1.8907" d="M438.684,1036.387c-1.257-0.637-9.782,11.241-8.598,17.855
	c1.676,9.364,7.376,7.125,15.441,10.72c-2.203,2.272-3.068,6.456-5.539,8.667c2.989,0.868,6.219,4.26,10.403,4.682
	c-0.807,1.272-1.302,5.187-2.665,6.847c4.318,3.157,9.184,4.273,14.575,3.535c-2.143,7.013-0.58,5.914,2.984,10.522
	c-9.497,32.402-66.49,50.375-97.874,41.561c2.958,4.366,7.374,8.794,10.074,13.161c-4.136,2.067-7.293,5.902-10.412,8.938
	c2.282,1.308,5.319,6.037,7.429,7.106c-3.822,0.688-7.531,3.864-11.105,4.801c4.034,2.263,8.031,6.091,11.181,8.696
	c-3.039-1.108-5.748-0.443-8.657-0.958c-10.569-13.695-20.985,65.173,48.955,29.458c22.316-11.395,25.189-25.285,43.152-41.667
	c20.167-18.389,41.79-2.815,65.514-20.466c21.67-16.113,12.916-42.208-0.372-59.882c-11.513-15.313-7.938-22.47-8.815-41.453
	c-4.279-0.122-7.313-2.779-11.432-3.449c-1.538-7.822-2.048-29.358-13.387-25.233c0.678-17.987-13.528-33.86-21.456-14.359
	c-2.854,7.016,1.085,12.308-5.257,20.869c-3.989,5.381-7.941,9.711-13.762,13.208c-1.643-3.343-5.153-6.073-6.244-10.411
	c-5.575,3.683-4.312,7.269,1.82,10.228"/>
<path fill="#E0CE9B" stroke="#B7A26F" stroke-width="1.8907" d="M319.544,376.922c3.823,0.771,9.777-3.899,13.857-5.032
	c5.102-1.416,11.565-0.855,16.885-0.512c-4.519,6.596-12.764,11.201-17.524,17.823c-6.131,8.532-5.986,24.64-5.007,34.826
	c0.865,8.985,6.189,18.516,8.612,26.917c3.078,10.675,8.611,20.685,12.831,31.079c8.911,21.949,7.59,55.957-13.743,70.561
	c-6.345,4.344-42.6,31.697-37.867-16.951c0.742-7.625-1.012-17.278-3.167-24.264c-2.497-8.083-7.373-15.065-10.934-23.06
	c-5.021-11.267-5.457-26.324-6.042-38.48c-0.458-9.501,1.277-19.536,3.691-28.686c13.915,5.477,14.301-48.519,37.895-42.681"/>
<path fill="#B7A26F" d="M279.51,454.939c-1.69,0.27,0.901,2.353,2.444,3.604c2.699,2.193,8.017,4.192,11.439,4.759
	c6.487,1.074,10.039-5.872,15.375-0.828c7.067,6.685,3.335,18.166-5.509,20.728c-9.326,2.702-14.11-3.71-19.976-9.309
	c9.059,23.132,19.024,21.098,32.669,17.999c9.133-2.075,9.908-9.571,18.363-2.566c8.347,6.915,10.791,20.702,5.772,30.283
	c-8.991,17.168-26.903,5.172-37.296-4.179c3.96,3.57,5.402,13.209,10.081,15.984c4.093,2.429,8.883,2.726,11.292,7.186
	c3.562,6.588,0.522,10.744-4.989,15.345c26.581-7.536,29.701-34.366,27.687-57.564c-1.081-12.417-4.88-24.292-11.42-34.758
	c-8.936-14.301-11.205-29.134-9.768-46.204c0.748-8.862,2.619-16.315,6.729-24.112c2.073-3.932,8.206-10.894,7.593-15.335
	c-6.195-1.728-14.672,0.257-19.939,4.034c-5.1,3.654-5.752,10.852-7.698,16.435c-1.98,5.68-4.813,11.127-6.574,16.949
	c-3.701,12.245-15.196,33.445-25.249,38.982"/>
<path fill="#FCD4D2" stroke="#CB8E8D" stroke-width="1.8907" d="M377.542,345.099c-2.176,2.047-6.357,3.106-9.212,4.622
	c-4.542,2.41-8.228,5.596-12.333,8.726c-6.184,4.713-12.421,8.729-17.849,14.495c-4.916,5.226-7.513,11.174-12.316,16.425
	c-7.243,7.916-13.051,17.854-11.445,29.155c1.092,7.689,5.819,13.959,10.292,19.965c3.198,4.292,9.564,8.366,11.804,12.344"/>
<path fill="#FCD4D2"  a:adobe-blending-mode="multiply" d="M630.641,716.456c18.894-10.336,21.994-35.77,19.119-55.985
	c-5.113,2.916-10.66,3.188-14.54-0.225c16.496,1.104,18.24-12.574,20.39-24.025c1.192,8.224-1.154,22.973,10.778,22.23
	c8.802-0.551,11.187-15.292,11.831-21.791c2.128,6.917,3.094,14.509,10.422,17.254c9.265,3.47,17.414-2.016,14.839-12.822
	c7.177,12.003,6.895,25.563,6.029,39.652c-0.729,11.913-10.677,28.565-17.704,9.225c7.529,0.087,16.133-14.969,11.822-22.688
	c-2.788-5-14.271-4.106-19.415-10.49c-2.111,1.584-6.424,5.587-7.587,7.662c-1.098-0.033-1.098-0.097,0-0.188
	c6.94,9.014,11.042,47.237-10.009,43.009c0.28-0.845-0.776-2.219-1.193-2.76c10.149-4.904,10.14-21.499,6.59-30.914
	c-0.981-2.6-5.81-11.484-8.562-12.274c-11.094-3.176-6.59,4.926-7.519,10.489c-2,12,5.214,70.855-20.57,53.316
	c-0.248-1.416-1.816-7.435-1.745-5.697"/>
<path fill="#FCD4D2"  a:adobe-blending-mode="multiply" d="M675.284,582.53c-1.557,0.823-11.007-57.144-11.574-68.45
	c-1.349-26.975-3.628-54.005-4.872-80.32c-1.212-25.646,3.362-51.827,4.542-77.414c0.587-12.795,2.091-24.725,3.342-37.201
	c0.544-5.442,2.374-12.09,1.124-17.856c-2.139-9.843-3.232-6.852-8.672-11.502c-0.095,0.151-0.192,0.301-0.289,0.453
	c-7.496-24.728-116.963,32.204-135.38,38.199c-24.691,8.036-47.733,19.235-72.916,26.418c-12.384,3.535-19.059,5.375-28.274,14.888
	c-2.158,2.228-27.705,34.79-26.814,35.223c0-0.261,0-0.524,0-0.786c4.478-13.513,4.396-31.117-10.386-38.577
	c-12.601-6.355-23.347,1.971-33.995,8.455c7.906-22.538,43.781-12.598,58.128-14.411c19.989-2.527,44.239-14.873,62.511-22.275
	c38.297-15.52,77.543-34.709,117.143-45.094c21.364-5.604,43.83-13.342,65.551-16.618c26.807-4.044,27.163,26.029,28.273,47.949
	c2.471,48.827,2.548,101.877-1.488,150.293c-3.241,38.897-5.953,77.845-5.953,117.556"/>
<path fill="#BAB8A1" d="M447.614,1061.685c1.964,0.523,1.972,1.697,4.172,1.302c5.55-13.496,29.093-19.673,28.231-35.858
	c-1.304-24.509-19.171,9.834-28.903,13.898c7.526-9.309,11.411-18.644,17.412-28.367c8.008-12.977,18.022-12.603,16.512,7.133
	c11.818-0.082,12.688,16.071,11.938,25.265c18.661,4.768,9.887,14.952,5.622,27.051c-4.215,11.947-1.819,27.654-18.002,32.134
	c7.86-7.585,21.524-51.524,7.917-49.741c-4.668,15.572-25.98,36.055-43.183,32.258c0.771-18.25,44.624-10.194,41.435-36.979
	c-3.082-25.874-30.377,21.65-47.398,19.12c-1.427-9.073-13.183-7.688-11.828-17.479c5.631,6.99,12.688,12.759,22.025,8.776"/>
<path fill="#BAB8A1" d="M465.468,1098.883c-1.4,1.702-2.689,4.509-2.787,7.184c8.222-0.228,13.27,5.212,20.642,6.244
	c7.485,1.05,13.621-2.145,20.384-2.677c-11.811,3.535-38.068-12.974-42.703-7.773"/>
<path fill="none" stroke="#000000" stroke-width="0.4727" d="M347.912,533.425c2.94,7.085-2.836,24.226,6.261,25.466
	c11.669,1.591,22.102-25.607,20.296-34.229c-9.732,1.37-23.399,19.305-15.94,29.36c12.795,17.243,23.617-13.015,21.896-23.444
	c-11.024,0.025-15.641,24.974-5.462,29.862c15.828,7.601,20.074-23.208,18.854-32.791c-8.709,2.281-8.285,23.247-0.96,29.085
	c13.094,10.44,19.468-9.085,17.33-20.279c-9.953,1.672-9.071,15.386-2.823,21.19c7.573-4.167,11.038-17.669,13.464-25.709"/>
<path fill="none" stroke="#000000" stroke-width="0.4727" d="M660.406,592.948c8.859,4.082,22.467-2.331,28.478-8.882
	c-5.232-5.645-16.996-3.081-25.184-2.952c9.86-2.336,22.959-5.1,24.853-16.618c-6.17-2.737-13.81-0.883-19.236,2.959
	c5.334-1.507,21.89-10.421,18.111-18.621c-3.339-7.259-14.951-1.893-21.693-0.687c9.835-3.84,18.808-14.186,18.354-25.043
	c-6.943,0.965-12.384,5.128-18.681,8.778c10.937-4.747,20.909-15.057,20.203-27.787c-7.432-0.523-18.198,6.653-22.167,12.756
	c6.51-0.524,30.16-13.491,23.648-23.556c-4.925-7.616-19.196,4.958-22.124,8.68c11.465-2.269,18.614-12.107,19.12-23.562
	c-6.21-3.707-13.909,0.259-18.603,5.74c5.971,0.462,24.435-10.63,20.456-18.978c-3.846-8.071-16.787,3.089-19.535,8.377
	c8.492-7.579,16.377-21.224,11.989-32.287c-5.701,2.381-10.663,7.881-13.066,12.937c8.264-7.551,14.251-21.125,15.743-32.324
	c-5.828,1.775-10.201,6.136-15.156,10.34c8.515-6.386,21.75-19.966,18.461-31.137c-7.391,1.183-13.179,6.992-19.279,11.721
	c10.491-2.118,19.561-18.27,16.307-28.089c-7.13,0.493-13.817,6.004-14.953,13.396c8.557-7.841,21.464-19.632,19.125-32.74
	c-7.143-0.407-14.188,4.763-17.677,10.191c7.58-2.804,10.774-11.508,11.651-19.048c-4.355-0.057-4.869,2.489-7.242,5.786"/>
<path fill="none" stroke="#000000" stroke-width="0.4727" d="M410.411,982.817c0.536,9.179,0.148,18.852-4.466,26.784"/>
<path fill="none" stroke="#000000" stroke-width="0.4727" d="M429.755,961.985c3.458,5.323,14.457,6.294,20.833,1.486"/>
<path fill="none" stroke="#000000" stroke-width="0.4727" d="M407.435,936.686c7.893-2.171,17.359-0.507,23.809-7.438"/>
<path fill="none" stroke="#000000" stroke-width="0.4727" d="M399.994,915.855c4.529-3.203,10.107-5.619,14.882-8.931"/>
<path fill="none" stroke="#000000" stroke-width="0.4727" d="M367.256,967.936c3.64-8.869,3.107-18.897,4.465-28.271"/>
<path fill="none" stroke="#000000" stroke-width="0.4727" d="M352.376,933.71c-1.896-3.346-1.468-14.01-1.488-20.831"/>
<path fill="none" stroke="#000000" stroke-width="0.4727" d="M364.282,884.606c5.251-2.183,10.607-0.901,16.368,0"/>
<path fill="none" stroke="#000000" stroke-width="0.4727" d="M374.697,865.259c3.774,1.772,7.821,2.791,11.905,2.979"/>
<path fill="none" stroke="#000000" stroke-width="0.4727" d="M379.161,909.903c-0.496,0-0.991,0-1.488,0"/>
<path fill="none" stroke="#000000" stroke-width="0.4727" d="M426.779,1018.533c1.749-4.573,3.742-9.065,5.953-13.395"/>
<path fill="none" stroke="#000000" stroke-width="0.4727" d="M447.614,993.235c2.629,4.978,9.519,1.535,14.88-1.488"/>
<path fill="none" stroke="#000000" stroke-width="0.4727" d="M456.541,1024.483c-0.755-0.998-5.772-0.37-0.567-1.672
	c4.014,1.368,9.066,3.37,12.47,6.136"/>
<path fill="none" stroke="#000000" stroke-width="0.4727" d="M413.385,967.936c-5.023-3.865,6.95-3.465,11.906-2.977"/>
<path fill="none" stroke="#000000" stroke-width="0.4727" d="M392.553,969.425c0.502-1.64,1.972-13.724,1.488-19.346"/>
<path fill="none" stroke="#000000" stroke-width="0.4727" d="M374.697,912.879c1.136-3.413,1.626-6.811,1.488-10.416"/>
<path fill="none" stroke="#000000" stroke-width="0.4727" d="M322.615,892.044c1.062-0.795,1.458-16.644,1.489-23.807"/>
<path fill="none" stroke="#000000" stroke-width="0.4727" d="M370.232,845.916c3.92-1.689,8.802-2.197,13.392-1.489"/>
<path fill="none" stroke="#000000" stroke-width="0.4727" d="M239.284,805.739c-6.257,6.116,6.493-3.006,7.848-4.436
	c5.093-5.371,9.633-8.041,8.331-16.201c-7.994-0.615-14.528,5.075-18.772,11.657c9.306-4.265,17.205-14.953,18.772-25.01
	c-8.115-0.294-15.522,8.021-19.03,14.519c7.019-3.402,13.568-12.418,13.072-20.511c-5.099-0.659-9.105,1.612-11.709,5.755"/>
<path fill="#BAB8A1" d="M373.209,1211.978c42.647,17.31,48.081-44.096,69.98-60.713c16.043-12.172,90.407,1.381,75.413-40.252
	c-0.543-0.592-0.561-0.553-0.051,0.113c0.376,0.783,0.961,1.093,1.755,0.931c-3.489-2.963-6.139-5.954-11.159-7.179
	c14.887-2.808-1.115-18.292,0.891-27.788c10.755,12.796,28.297,42.152,20.573,58.699c-10.605,22.724-37.981,11.907-54.726,17.823
	c-38.796,13.711-52.034,65.958-99.251,64.289c2.073-0.35,2.341,1.003,4.016,1.515"/>
<path fill="#95979A" stroke="#686D73" stroke-width="1.8907" d="M587.935,595.009c4.075,16.353-5.116,32.115-17.962,35.316
	c-12.843,3.202-26.562-7.459-30.637-23.812c-4.074-16.35,3.034-32.202,15.879-35.404C568.061,567.907,583.86,578.66,587.935,595.009
	z"/>
<ellipse transform="matrix(0.9703 -0.2418 0.2418 0.9703 -128.7828 153.2871)" fill="#D0181F" stroke="#911518" stroke-width="1.8907" cx="560.04" cy="601.254" rx="23.438" ry="28.692"/>
<path fill="#911518" d="M551.986,625.918c2.604,1.561,5.625-5.268,6.149-7.547c1.092-4.751,0.998-9.618,0.306-14.286
	c-0.683-4.604-2.25-7.471-6.091-10.379c-3.935-2.982-10.023-3.428-12.424,1.81c-0.514-3.964,1.122-9.744,3.69-12.721
	c2.152-2.495,8.97-6.717,12.286-6.406c-2.984,2.11,0.334,5.35,2.937,5.527c3.799,0.257,5.345-2.938,8.577-1.424
	c6.686,3.133,10.243,10.192,11.97,16.9c2.438,9.487,0.595,22.033-9.132,26.644c-5,2.369-12.985,4.392-17.826,2.662
	c0.468-0.177,0.747-0.044,1.236-0.006"/>
<ellipse transform="matrix(0.9703 -0.2419 0.2419 0.9703 -128.9095 153.5143)" fill="#D0181F" stroke="#911518" stroke-width="1.8907" cx="560.856" cy="601.846" rx="4.906" ry="4.762"/>
<path fill="#95979A" stroke="#686D73" stroke-width="1.8907" d="M516.413,668.635l31.741-32.478l3.69-24.358
	c0,0-6.643-6.643,0.738-8.857c7.382-2.215,5.903,6.643,4.428,9.595c-1.475,2.953-2.952,25.097-2.952,25.097l-33.217,33.217
	L516.413,668.635z"/>
<path fill="#D0181F" stroke="#911518" stroke-width="1.8907" d="M501.651,691.519c-3.906-0.207-7.077-8.909-7.382-13.286
	c-0.515-7.404,3.031-10.228,9.596-11.812c7.467-1.804,25.336,3.52,27.218,12.42c-7.303,1.061-11.301-7.621-14.83,3.819
	c-3.459,11.203,7.258,8.814,8.166,15.393c-9.623,1.594-12.646-8.396-22.11-6.534H501.651z"/>
<path fill="none" d="M268.062,417.813c-3.354-0.537-7.366-0.092-10.608,0.382c-7.588,20.556-15.317,49.342-30.948,65.571
	c-31.328,32.529-85.958,39.502-125.526,21.154c-28.854-13.38-55.012-25.813-70.292-54.045c-15.534-28.7-27.76-60.176-32.66-92.488
	c-8.528-56.231-6.971-113.155-6.971-169.947c0-89.619,53.794-148.342,129.768-192.302c56.13-32.479,169.656-10.016,224.396,15.499
	c39.274,18.306,72.432,74.006,83.329,111.581c15.706,54.153,7.485,137.315-32.978,180.273c-16.566,17.587-57.173-8.44-72.435,9.232
	c-13.45,15.575-24.188,38.473-33.091,56.722"/>
<path fill="#E0CE9B" stroke="#B7A26F" stroke-width="1.8907" d="M225.203,405.032c-0.722,0.149-1.379,0.086-2.089,0.212
	c-1.953,13.975,13.386,15.698,16.426,28.595c3.497,14.83,7.677,23.742,24.898,23.55c25.612-0.284,42.745-27.813,51.253-49.073
	c4.662-11.669,10.273-27.822,4.124-39.994c-6.013-11.911-23.571-8.344-30.64-20.116c-6.024-10.03-6.103-26.587-20.223-30.31
	c-15.336-4.046-31.095,11.699-38.246,23.201c-12.042,19.383-17.141,45.746-10.159,67.536"/>
<path fill="#B7A26F" d="M251.227,452.98c-3.944-4.113-7.067-7.348-7.322-13.315c-0.227-5.299-1.195-10.344-4.809-14.608
	c-3.234-3.815-7.577-6.664-10.842-10.384c-4.11-4.686-1.192-11.455,1.219-16.207c0.912-1.801,2.059-3.767,3.674-5.041
	c1.804,1.573,2.233,4.79,3.441,6.912c1.683,2.948,4.358,5.939,6.739,8.423c5.248,5.489,9.766,8.807,11.17,16.545
	c1.119,6.178,3.242,13.205,6.512,18.87c2.724,4.723,7.402,5.103,10.995,8.412c-9.855,4.438-18.766-10.321-20.236-18.366
	c-0.944-5.205-0.735-11.133-3.861-15.823c-3.182-4.784-8.794-7.259-12.391-11.717c-1.142-1.414-2.382-2.967-3.396-4.42
	c-3.787,3.784-0.452,12.227,3.056,15.061c5.264,4.252,9.034,7.465,11.746,13.829c2.275,5.354,1.573,11.026,3.715,16.494
	c1.233,3.144,2.853,3.384,4.92,5.447c2.631,2.631,0.453,3.055-2.199,1.772c-1.595-0.774-3.419-2.583-4.168-4.138"/>
<path fill="#B7A26F" d="M236.197,390.636c-0.443-1.01,1.013,2.393,1.312,2.998c1.385,2.833,3.058,5.768,5.076,8.22
	c3.757,4.576,9.163,7.399,12.568,12.308c6.187,8.912,5.033,27.314,17.143,31c2.888,0.879,5.674,1.883,8.458,0.144
	c2.9-1.802,2.74-3.785,0.528-5.808c-3.423-3.132-7.435-5.17-10.288-9.084c-3.172-4.35-5.926-9.786-8.087-14.71
	c-2.404-5.475-2.887-10.744-7.034-15.489c-3.135-3.597-7.692-5.174-11.06-8.453c-1.841-1.786-4.413-4.409-4.597-7.081
	c-0.377-5.466,3.936-3.421,6.558-1.042c6.111,5.532,12.917,10.578,17.19,17.513c5.539,8.984,10.343,18.637,15.945,27.655
	c2.109,3.393,8.334,12.515,13.338,7.467c5.609-5.661-8.205-18.253-10.956-22.039c-4.221-5.811-8.924-11.086-13.409-16.658
	c-3.399-4.228-5.664-8.526-10.206-11.536c-3.276-2.175-6.662-4.254-9.358-7.171c-2.319-2.509-3.969-5.076-7.637-2.88
	c-2.642,1.591-6.855,9.139-4.918,11.951"/>
<path fill="#B7A26F" d="M300.959,423.527c-0.526,1.174-6.265-5.345-7.587-6.752c-3.153-3.364-5.914-7.042-9.034-10.456
	c-6.516-7.118-11.298-16.623-18.731-22.603c-4.837-3.886-10.654-6.255-15.901-9.573c-5.535-3.499-4.279-8.532-2.061-14.062
	c1.235-3.076,2.511-6.18,4.092-9.125c1.986-3.692,2.193-5.503,5.205-1.659c4.399,5.62,12.095,8.423,15.625,14.128
	c3.321,5.376,6.601,9.789,11.384,14.034c4.203,3.721,9.246,6.084,13.835,9.227c4.474,3.061,13.599,8.919,12.642,15.476
	c-1.209,8.285-17.311-9.73-19.553-12.101c-4.31-4.568-9.867-7.011-14.267-11.165c-2.771-2.614-5.039-6.036-7.498-8.938
	c-2.683-3.163-11.242-11.273-16.213-8.312c-5.755,3.423,2.853,10.679,5.674,12.976c10.354,8.449,23.094,14.963,30.782,26.352
	c3.32,4.926,5.513,10.563,9.342,15.138c2.369,2.831,4.272,4.474,2.648,8.296"/>
<path fill="#B7A26F" d="M311.917,391.792c-0.171,0.356-0.011,0.552-0.281,0.795c-3.613-8.495-11.038-15.116-18.853-19.787
	c-7.38-4.405-11.571-7.924-16.628-14.969c-4.617-6.431-11.963-11.482-15.973-17.922c-2.692-4.315-3.929-14.073,2.274-16.412
	c4.712-1.774,11.186,8.68,13.021,12.154c4.324,8.174,8.031,15.532,15.837,21.006c5.512,3.864,10.791,6.471,16.76,9.536
	c2.535,1.308,10.724,7.194,6.646,10.412c-6.87-1.291-12.457-8.724-18.055-12.498c-7.847-5.288-14.459-8.892-19.691-17.191
	c-2.233-3.55-4.81-6.837-7.048-10.297c-1.222-1.89-2.507-5.332-4.848-6.119c-8.602-2.899-0.347,11.909,1.502,13.87
	c5.364,5.672,11.792,10.277,17.05,16.156c2.018,2.254,3.548,4.395,5.966,6.032c2.598,1.763,5.688,2.583,8.482,3.997
	c6.154,3.121,9.938,7.401,14.067,12.748c1.479,1.913,6.211,11.592,0.377,10.676"/>
<path d="M299.208,342.351c3.248,3.493,7.839,4.353,12.422,2.589c6.325-2.434,6.722-6.327,6.942-12.224
	c8.155,12.478,36.953-1.313,31.603-16.418c9.567,6.342,18.003-3.819,19.543-12.266c9.122,2.516,14.568-12.426,14.047-19.317
	c9.958,2.08,23.553-13.804,27.403-21.466c3.534-7.041,4.269-19.104-1.367-25.327c10.757-5.64,2.107-23.209-6.146-27.234
	c4.082-6.584,8.107-9.304,7.948-17.902c-0.077-4.281-0.557-8.569-2.669-12.375c-0.791-1.425-3.711-2.715-3.804-4.228
	c-0.1-1.663,3.002-4.477,3.8-5.905c2.204-3.952,3.717-8.706,3.97-13.261c0.472-8.435-3.015-11.793-9.568-15.702
	c5.99-9.221-1.187-23.69-12.592-22.536c-1.614-5.026,2.315-11.449,1.314-17.366c-1.239-7.325-3.282-14.087-10.953-9.628
	c-3.37-4.805-3.768-11.678-8.333-16.806c-2.392-2.688-11.904-12.054-13.855-4.423c3.937-13.774-23.022-19.459-21.229-9.692
	c4.23-7.875-34.697-16.281-41.302-1.068c6.833-21.75-29.906-12.44-21.251-3.531c8.444-19.106-42.175-11.886-30.497,0.936
	c-4.604-20.171-45.296-9.759-37.992,3.99c1.496-5.018-3.239-7.377-7.416-6.118c-6,1.806-7.945,9.557-7.688,14.735
	c-2.521-15.692-26.271-4.087-26.144,8.374c-5.729-6.056-13.778-8.702-21.862-5.197c-10.053,4.356-12.352,14.918-13.432,24.58
	c-3.04-4.738-8.72-3.608-13.387-1.449c-10.81,4.999-19.973,18.037-16.496,30.184c-9.119,2.805-23.102,18.167-10.318,25.718
	c-10.921,0.75-20.898,36.431-11.218,35.465c-4.971,6.977-11.302,35.143,4.393,30.136c-2.882,11.281-8.347,39.856,12.331,26.485
	c-4.902,9.513,0.027,24.033,12.427,20.319c0.215,4.635-0.075,11.139,4.009,14.291c4.315,3.332,7.103,0.172,11.383-0.343
	c0.949,8.832,5.31,22.543,15.708,10.813c-1.707,13.944,13.149,2.176,16.294-3.156c4.245,18.832,28.86-3.978,35.506-7.711
	c-0.418,6.027,0.588,10.19,6.908,11.901c5.29,1.434,12.262-0.827,17.369-2.077c2.449-0.6,10.656-4.559,12.995-3.611
	c4.679,1.896,3.009,9.687,7.125,13.463c4.625,4.243,11.364,3.069,16.876,2.675c-3.032,10.959-4.122,14.823,4.605,22.694
	c3.941,3.554,2.905,3.721,5.07,8.195c2.508,5.179,7.334,4.435,11.589,6.905c4.341,2.522,3.26,5.396,6.646,8.249
	C284.442,350.519,298.138,349.321,299.208,342.351z"/>
<ellipse transform="matrix(0.3995 0.9167 -0.9167 0.3995 393.9786 83.1863)" fill="#BF7BB4" stroke="#000000" stroke-width="1.8907" cx="133.495" cy="342.309" rx="21.314" ry="12.74"/>
<path fill="#DBACD0" d="M122.885,341.875c-1.813-3.459,0.375-7.329,4.275-6.486c2.375,0.514,5.521,6.486,6.743,8.453
	c4.945-4.75-1.433-4.436-3.377-7.206c-2.013-2.865-1.963-7.256,2.688-5.295c-5.749-8.341-16.36,1.423-11.028,8.112"/>
<path fill="#FCD4D2" stroke="#CB8E8D" stroke-width="1.8907" d="M150.889,261.716c-11.246,20.669-14.871,47.016-32.772,63.163
	c4.676,3.053,14.672,1.771,17.888,7.086c4.688,7.749-7.733,13.624-10.042,19.07c-3.451,8.139,4.761,13.482,11.338,15.081
	c5.979,1.454,3.63,8.952,4.93,15.44c-5.386,0.441-11.185-3.391-16.373-2.094c16.126,15.837,6.143,58.453-6.621,73.559
	c4.61,2.722,11.54-0.794,16.189-2.485c6.041-2.195,12.657-3.184,18.583-5.335c13.893-5.043,27.08-11.087,39.962-18.447
	c28.997-16.567,54.781-35.484,74.686-62.693c7.045-9.632,12.425-16.659,12.209-29.168c-0.155-9.01,4.281-8.218,11.378-13.534
	c11.792-8.832,20.019-22.457,24.626-36.298c12.084-36.285-10.934-82.946-48.826-91.415c-34.093-7.619-73.278,3.572-95.743,30.238
	c-6.117,7.26-10.623,14.27-13.867,23.011c-1.22,3.291-2.746,6.731-4.129,9.928c-1.037,2.399-3.915,6.862-2.951,6.508"/>
<path fill="#FCD4D2"  a:adobe-blending-mode="multiply" d="M158.205,355.282c-0.481,1.354-1.246,2.481-2.394,3.134
	c-6.018-10.914-10.071-2.54-19.136-4.246c6.436-4.156,6.863-8.476,5.97-15.812c-0.771-6.335-9.104-12.021-5.697-18.353
	c-0.382,3.362,2.557,5.721,5.562,4.903c-1.218-4.627-4.064-10.795,1.022-14.299c1.175,3.789,1.048,8.339,4.588,11.364
	c3.43,2.932,6.327,1.933,8.025,7.264c2.304,7.239,1.208,16.1,3.495,23.446"/>
<path fill="#FCD4D2"  a:adobe-blending-mode="multiply" d="M159.038,438.485c2.079-5.898,1.616-10.793-1.768-16.442
	c-2.732-4.559-10.014-11.277-5.525-16.804c4.486-5.522,12.683,0.342,17.877,1.81c12.111,3.42,9.795-6.525,1.368-10.912
	c5.288-5.17,11.554-0.312,17.388-0.314c6.471-0.002,12.889-3.673,18.735-6.027c9.558-3.847,15.75-8.832,22.981-15.825
	c4.921-4.759,7.353-8.669,10.864-15.023c3.444-6.236,2.786-16.095-14.853-13.63c4.331-1.693,7.179-1.591,14.569-8.229
	c5.127-4.606,5.557-18.64-0.505-23.371c-6.246-4.875-22.07-2.134-28.62,1.139c-8.191,4.092-15.695,12.751-22.028,19.067
	c-4.546,4.535-5.34,7.215-10.95,4.105c-2.581-1.431-9.316-5.492-11.191-8.014c-6.777-9.114-4.473-16.685-0.185-25.362
	c4.472-9.047,6.952-19.017,13.626-27.08c2.776-3.352,5.877-9.059,10.386-10.574c4.562-1.534,7.998,2.24,12.226,4.226
	c4.698,2.206,7.507,5.096,11.811,7.626c3.516-4.23,0.212-14.527-1.54-19.093c-2.518-6.565-8.78-14.524-16.188-15.875
	c-6.147-1.121-29.426,16.979-27.207,0.843c-9.734,2.572-9.632-8.35-8.214-15.632c3.476-17.864,16.96-31.54,31.106-41.816
	c18.024-13.095,43.266-21.626,65.001-12.669c17.227,7.098,34.815,17.131,50.158,27.738c26.865,18.574,38.251,57.108,21.113,86.015
	c-6.927,11.685-21.072,21.681-32.261,29.242c-4.397,2.971-12.772,3.809-16.093,7.9c-2.865,3.529-1.563,9.852-2.948,13.986
	c-3.461,10.334-16.216,28.796-23.566,36.491c-15.607,16.344-28.656,24.864-48.734,38.188c-8.558,5.679-15.962,12.099-25.503,16.43
	c-3.829,1.738-21.303,7.025-20.579,8.979"/>
<path fill="none" stroke="#CB8E8D" stroke-width="1.8907" d="M142.23,381.555c10.278,2.456,16.069,3.361,24.812,4.382
	c10.468,1.221,11.972,0.854,22.835,0.406c20.528-0.846,40.14-18.23,35.148-39.466c-0.076-0.302-0.062-0.306,0.044-0.012
	c-0.351,1.099-0.328-2.049-0.524-0.904"/>
<path fill="none" stroke="#CB8E8D" stroke-width="1.8907" d="M215.989,358.719c-2.461-2.758,4.95-10.917,8.555-12.757
	c4.705-2.399,11.202-2.382,15.864,0.475"/>
<path fill="none" stroke="#CB8E8D" stroke-width="1.8907" d="M258.291,325.117c0.688,0.173,1.271,0.028,1.751-0.44
	c-6.999-16.313-35.688-14.345-48.342-8.192c-16.12,7.84-21.594,26.689-40.26,27.119"/>
<path fill="none" stroke="#000000" stroke-width="1.8907" d="M135.613,336.02c1.112-6.958,11.249-9.645,13.372-2.108"/>
<path d="M149.926,317.476c4.406,6.618,13.93-0.63,16.107-4.667c4.023-7.455,5.758-15.738,9.451-23.246
	c3.654-7.429,8.541-16.88,15.914-21.068c8.756-4.974,12.614,2.811,19.146,6.403c-2.077-9.197-11.516-20.348-21.719-18.011
	c-12.189,2.792-16.353,16.131-18.051,26.833c-1.216,7.659-3.587,18.755-8.012,25.248c-1.52,2.229-4.766,5.667-7.19,6.877
	c-2.408,1.201-6.604,0.542-6.166,1.343"/>
<path d="M137.103,332.095c-8.379-3.674-19.136-9.894-28.828-6.5c3.5-8.951,8.638-8.734,16.001-4.656
	c6.158,3.411,10.275,6.794,13.292,12.769"/>
<path fill="#DCDDDE" stroke="#000000" stroke-width="1.8907" d="M164.936,317.862c8.088-2.236,15.906-3.655,23.307,1.869
	c-4.285,5.073-7.26,12.651-12.604,16.545c1.032-0.623,1.249-1.501,1.998-2.505"/>
<ellipse transform="matrix(0.3995 0.9167 -0.9167 0.3995 407.2224 51.1597)" fill="#BF7BB4" stroke="#000000" stroke-width="1.8907" cx="164.561" cy="336.412" rx="25.824" ry="15.435"/>
<path fill="#DBACD0" d="M152.678,334.596c-4.167,0.94-5.12-9.545,1.146-9.441c4.221,0.071,8.379,7.185,10.606,9.995
	c2.138,2.701,7.015,8.282,6.944,11.943c-0.073,3.744-3.794,8.141-7.598,5.841c4.584,2.512,8.66,5.325,12.098-0.08
	c2.565-4.033,1.372-11.131-0.23-15.505c0.451,1.844-0.429,3.113-0.727,4.682c-5.199-1.626-15.685-15.274-16.438-20.51
	c2.063-1.554,4.552-1.472,6.517,0.227c-3.338-3.986-9.657-7.992-13.748-4.235c-4.278,3.929-2.455,10.677-0.075,14.897"/>
<path fill="#FFFFFF" stroke="#000000" stroke-width="0.9453" d="M118.511,441.869c2.746-3.257,10.28-9.046,15.832-10.245"/>
<path fill="#FFFFFF" stroke="#000000" stroke-width="0.9453" d="M117.907,430.684c5.638-5.286,11.702-10.967,19.4-13.02"/>
<path fill="#FFFFFF" stroke="#000000" stroke-width="0.9453" d="M128.439,445.998c-0.564-0.243-0.226-1.675-0.939-0.594
	c-0.429,7.644-4.369,19.285-0.904,26.026"/>
<path fill="#FFFFFF" stroke="#000000" stroke-width="0.9453" d="M138.979,441.646c-2.435,5.23,2.678,13.492,4.829,18.268"/>
<path fill="#FFFFFF" stroke="#000000" stroke-width="0.9453" d="M151.025,439.484c1.833,6.291,3.858,12.279,6.963,18.088"/>
<path fill="none" stroke="#000000" stroke-width="0.9453" d="M139.037,369.109c0.126,3.004-2.263,5.186-1.695,7.978
	c2.431-1.049,4.68-3.301,7.167-4.408c0.872,2.189,1.523,4.528,3.382,5.998c4.452-7.585,5.282-5.869,10.1,0.135
	c4.789-8.07,5.315-6.29,11.201-0.575c0.343-1.862,0.843-3.992,1.379-5.863c2.047,1.996,4.069,4.829,6.286,6.69
	c0.24-1.136,0.292-5.339,1.316-6.017c3.319-2.199,3.593,1.771,5.812,2.783c3.873,1.766,8.287,1.653,6.41-4.696
	c2.467,3.167,8.448,3.575,5.884-2.177c2.177,1.687,4.958,2.208,7.025,0.354c-0.839-0.955-0.991-2.785-1.49-3.522
	c2.785-0.705,5.944-0.603,8.886-1.177"/>
<line fill="none" stroke="#000000" stroke-width="1.8907" x1="177.875" y1="327.974" x2="269.237" y2="297.933"/>
<path d="M146.212,259.133c3.197,4.919,14.094-3.213,11.484-9.305c4.697,3.857,15.282-4.82,14.054-9.729
	c-0.5,7.677,13.925,6.896,14.69,0.143c-1.37,13.849,21.881-0.006,25.442-4.472c-7.264,5.176,4.931,18.667,8.447,8.073
	c-4.98,0.933,0.008,9.927,3.588,3.504c-1.786,5.431,4.321,5.477,7.222,2.615c-2.6,7.519,7.048,5.813,10.456,2.896
	c-4.567,5.799,2.817,6.314,6.637,3.665c-0.083,4.163,5.042,7.513,8.904,5.087c-2.654,2.885-3.068,9.214,1.716,9.813
	c-3.286,2.435-2.519,8.153,2.158,5.889c-3.634,4.525,0.469,10.545,4.708,5.843c-4.506,6.518,4.597,6.649,8.637,5.602
	c-0.96,1.816-0.401,3.36-0.167,5.059c1.805-1.161,2.853-0.626,3.726-3.057c-1.1,6.193,6.203,6.973,10.38,4.344
	c-1.862,2.643-2.793,7.746,1.079,7.936c-2.727,2.003-6.917,11.883-0.624,10.485c-0.885,4.781,5.139,4.898,6.978,1.281
	c-2.507,2.045-4.658,6.999,0.056,7.54c-0.289,1.557,0.731,2.585,0.789,3.52c4.132-1.51,5.163-4.695,8.075-7.588
	c2.282-2.267,5.362-3.546,7.461-6.126c3.497-4.297,4.256-11.124,6.353-16.189c2.511-6.067,4.811-12.002,7.729-17.913
	c7.969-16.141,11.398-28.076,4.247-45.53c-4.796-11.704-11.174-26.467-21.082-35.079c-13.663-11.875-34.637-17.169-52.062-17.841
	c-21.462-0.829-44.835-2.353-65.591,4.472c-14.226,4.677-25.021,24.116-27.176,38.133c0.181,0.124,0.73-0.037,1.118,0.288
	c0.271,7.573-2.587,8.222-6.812,13.769c-2.583,3.392-8.646,12.12-2.893,14.715c-14.064-17.471-20.341,14.816-2.655,6.163
	c-2.493,7.592,4.731,9.254,5.837,2.412c1.898,4.648,6.358-0.771,6.844-3.799c4.851,0.776,6.45-7.518,2.982-10.394
	c3.579,3.047,5.468-7.29,1.259-7.56"/>
<path fill="#110E0D" d="M261.435,314.344c-3.94-6.033-16.006-4.75-23.306-5.025c11.12-4.829,10.01-19.988,2.279-28.506
	c14.074,1.717,7.257-20.988,3.858-27.016c-1.793-3.182-7.734-7.541-8.542-10.501c-1.894-6.985,10.006-10.984,15.248-11.176
	c6.753-0.242,14.412,5.33,19.532,9.204c9.185,6.946,14.59,15.352,18.416,25.906c7.622,21.023,8.449,38.624,3.542,60.529
	c0.297-8.229-19.433-18.925-26.27-17.406c1.719-3.569-0.976-8.627-3.175-11.564c-0.7,4.394-1.188,10.697-1.45,14.134"/>
<path fill="#FCD4D2" stroke="#CB8E8D" stroke-width="1.8907" d="M270.348,328.688c0.658,4.101,4.119,6.794,8.074,6.072
	c4.319-0.792,5.11-3.977,6.238-7.611c2.128-6.844,6.87-14.247,8.162-21.441c1.433-7.962-5.131-26.191-13.563-28.386
	c-10.846-2.826-17.659,12.606-18.419,21.153c-0.382,4.235-1.345,16.28,1.121,18.551"/>
<path fill="#FCD4D2"  a:adobe-blending-mode="multiply" d="M272.758,321.837c-0.053-0.966,2.964-4.443,3.008-6.819
	c0.06-3.396-2.553-4.581-4.611-6.58c-4.615-4.488-4.912-9.211-4.241-15.54c0.677-6.375,1.86-11.846,8.8-13.266
	c7.233-1.478,10.713,3.687,13.127,9.58c-2.77-4.762-6.387-8.943-12.326-7.174c-0.264,3.429,8.216,12.337,11.523,11.467
	c4.482,7.514-2.49,28.869-12.42,29.012c1.946-5.903,20.829-24.328,4.395-27.933c-3.862-0.845-6.254,1.008-7.045,4.556
	c-1.138,5.08,1.91,4.503,4.138,7.825c3.171,4.743-0.809,12.125-4.392,15.344"/>
<path fill="#FCD4D2"  a:adobe-blending-mode="multiply" d="M249.052,288.074c2.559,3.271,6.891,3.955,10.003,1.41
	c3.397-2.78,2.549-5.952,1.78-9.679c-1.445-7.02-0.875-15.792-3.224-22.713c-2.596-7.663-17.157-20.445-25.598-18.289
	c-10.86,2.771-9.361,19.573-5.894,27.423c1.713,3.892,6.695,14.899,9.952,15.696"/>
<path d="M216.375,253.358c3.677,1.652,13.013,9.346,13.639-1.087c0.978,7.273,11.392,8.279,11.626,0.019
	c1.317,2.923,4.179,4.626,7.003,3.079c0.883,3.354,3.703,8.659,7.282,6.013c0.343,0.245,1.527,1.049,1.965,1.121
	c5.015-2.58,6.204-13.171,5.076-18.192c-1.999-8.898-12.354-13.966-20-15.585c-8.957-1.897-21.012-4.202-28.535,3.161
	c-3.8,3.718-6.579,13.876-1.3,16.932"/>
<path fill="#939598" d="M91.111,222.595c-1.876,8.303,7.155,17.004,14.769,10.775c-3.67,4.408,4.72,11.043,9.32,8.233
	c0.67,8.61,9.531,5.755,13.336,1.888c1.433,7.413,8.524-0.393,10.577-3.161c1.079,4.85,10.209,12.723,14.056,5.221
	c0.106,10.182,14.097,2.353,9.187-1.776c-0.127-0.094,1.208,1.407,1.117,1.089c2.45-1.983,3.202-4.966,2.519-7.88
	c4.783,1.279,8.891,2.955,11.263-3.17c3.864,5.089,7.761-0.826,8.918-4.756c3.081,5.685,10.691,4.743,13.729-0.582
	c-0.72,5.521,3.646,5.863,6.545,1.63c1.745,3.542,5.658,3.26,8.481,0.609c2.914,3.534,11.085-1.015,12.243-4.647
	c-1.743,4.248-6.915,0.743-8.406-2.352c3.354,1.896,5.918-4.181,4.829-7.761c-1.379,4.352-6.18,7.111-10.529,5.676
	c0.853,1.257,1.677,3.375,2.625,4.846c-2.22,0.72-2.9,1.333-3.682,3.048c-3.569,0.475-9.024-1.023-7.873-5.331
	c-1.198,3.691-7.602,5.849-8.566,2.099c-2.19,1.696-5.039,2.644-5.855-0.03c-0.23,2.682-2.185,2.644-3.358-0.056
	c5.8-0.077,9.58-5.037,7.46-10.427c1.355,7.771-11.822,7.5-15.401,3.597c-0.206,3.238,1.546,6.679,5.06,6.154
	c-1.347,1.96-3.273,3.852-5.313,5.015c-0.711-0.664-1.448-0.806-2.081-1.64c-0.898,3.098-4.248,2.533-6.735,0.96
	c0.2,0.202,1.082,0.76,1.324,0.832c-2.05,1.784-4.864,2.504-7.48,1.837c-0.816,0.79-1.832,1.767-2.98,2.606
	c0.693,2.631,0.473,6.992-2.778,6.043c-1.817,5.437-5.169,0.817-6.375-1.666c-4.529,5.566-8.545-0.165-11.721-3.175
	c7.185,1.724,9.398-5.844,9.423-11.018c-0.661,0.307-2.112,0.877-2.607,1.135c4.148,0.021,10.294-1.793,10.365-6.834
	c-4.858,2.21-10.761,1.97-14.385-2c-1.272,3.164,0.798,6.671,3.952,8.155c-2.885,1.355-0.864,2.645-1.916,4.23
	c-1.412,2.126-1.908,1.872-4.047,3.339c-2.655,1.822-2.87,0.516-4.628,3.072c-0.025,0.038,0.271,4.294,0.231,4.707
	c-4.145,1.449-8.07-1.008-9.884-4.848c0.67,0.76,1.186,2.213,1.615,2.96c-1.807,0.909-3.973,0.758-5.852-0.334
	c3.657,4.654-7.34,5.486-3.833-2.199c-6.057,1.543-10.47,1.655-10.272-5.591c4.531,1.182,8.086-5.768,8.509-9.455
	c-1.784,4.704-6.268,4.457-9.96,2.937c-0.284,0.12-0.282,0.138,0.006,0.054c4.199-3.934,7.277-9.246,7.952-14.985
	c-4.62,6.407-10.307,1.869-15.965-0.747c1.084,3.715,4.995,8.387,9.092,7.684c0.132,3.486-2.834,5.585-5.638,6.954
	c0.422,2.419,2.428,3.916,4.676,4.738c-3.592,9.645-11.37-1.816-12.929-5.752c2.878,1.792,5.46-0.601,4.164-3.702
	c-3.801,2.816-7.792,0.126-11.106-2.2c-0.414,4.808,4.367,7.33,7.017,10.555"/>
<path fill="#939598" d="M230.335,235.755c-3.548,2.959,2.418,11.95,6.563,6.578c-1.144,6.539,6.712,8.345,10.935,4.684
	c-0.363,5.943,4.353,6.99,9.01,5.52c-0.074,3.046,1.755,4.262,4.227,2.468c-0.624,3.754-2.539,11.493,3.381,12.056
	c-0.284,4.362,1.116,13.21,7.698,9.663c-0.241,5.146,2.583,10.528,8.392,6.638c-1.255,5.006,5.457,8.379,8.259,3.885
	c0.487,3.29,4.36,8.821,7.649,5.581c-0.886,3.066-1.088,6.715,2.021,8.474c-1.833,3.961-1.331,9.476,2.673,10.442
	c-1.918,3.41,2.779,5.559,5.204,2.561c0.193-0.396,0.175-0.408-0.054-0.033c0.631,7.637,7.27,0.496,7.887-2.952
	c0.487,5.437,5.465,0.094,5.641-2.936c4.674,2.868,9.699-0.214,11.915-4.505c-2.928,2.513-11.968,2.769-13.965-2.766
	c1.199,2.869-0.155,5.545-2.777,7.078c-0.425-0.504-1.801-1.189-2.221-1.716c-1.34,3.242-4.376,6.961-6.695,2.387
	c-3.818,1.921-4.681-1.966-2.476-4.574c-5.279-0.886-6.039-5.327-3.44-9.361c3.396,3.83,7.456,2.25,10.279-0.592
	c-1.577,0.578-2.298-0.203-3.859-0.286c-0.146-0.708,0.467-1.02,0.444-1.195c-0.611-1.15-0.809-2.491-1.03-3.639
	c4.64,2.989,9.816,3.491,13.69-0.811c-11.215,2.142-12.517-8.48-13.101-16.427c-2.213,4.271-0.88,11.054,1.686,14.988
	c-1.707-0.556-2.587,0.324-4.113,0.423c0.243,0.978-0.109,2.429,0.168,3.312c-0.417,0.5-2.14,2.038-2.791,2.596
	c-4.685-1.55-5.381-4.38-5.556-8.966c1.612,2.049,3.573,2.348,5.043,0.038c-4.061,0.914-8.003-2.043-10.232-5.469
	c1.213,2.886,2.171,6.36,1.951,9.505c-2.414-0.83-3.793-2.895-4.294-5.425c-2.452,4.431-9.516,1.31-6.653-3.148
	c-3.169,1.796-5.399-1.559-4.622-4.585c-2.585,4.837-6.441-0.012-5.193-4.039c-9.165,6.463-7.778-2.832-4.124-9.08
	c-7.784,3.907-6.244-6.264-4.407-10.01c4.034,2.382,9.901,4.883,13.647,0.739c-0.913-0.25-2.115-0.969-3.146-1.149
	c5.646,2.473,14.286,0.535,18.278-3.906c-7.437,3.09-13.1-2.105-14.035-9.142c-1.336,3.333-0.769,9.456,2.475,11.47
	c-3.025,0.443-12.935-4.927-10.385,2.81c-5.062-1.498-7.104-4.964-9.573-9.644c-1.009,2.76-1.255,5.971,0.658,8.282
	c-1.488-1.336-3.114-1.244-4.721-1.848c-0.217,0.505-0.439,1.188-0.599,1.633c-2.36-1.578-3.787-4.143-4.136-6.875
	c-2.678,4.324-4.453-0.627-2.272-3.441c-2.772,1.524-10.744,1.195-9.992-2.804c-1.311,2.635-4.037,3.068-5.699-0.252
	c-0.341,0.71-1.149,1.507-1.447,2.249c-1.665-0.999-2.695-2.897-3.005-4.994c0.599,0.477,1.077,1.028,1.589,1.604"/>
<path fill="#0B6276" d="M358.896,81.606c7.229-1.19,23.922,10.597,16.827,18.589c7.333-5.593,7.611,9.917,3.163,14.071
	c5.023,1.066,10.05,6.58,6.474,11.699c6.485,3.839,13.045,9.282,8.055,17.337c8.852,5.861-0.093,8.4,1.986,14.589
	c1.352,4.026,7.94,4.044,7.565,9.796c-0.255,3.896-4.835,5.268-6.651,8.429c4.662,2.135,6.375,7.038,4.4,11.507
	c-1.023,2.315-4.369,3.273-4.764,6.062c-0.378,2.69,2.675,4.304,3.709,6.601c3.636,8.08-3.809,7.068-4.304,13.233
	c-0.439,5.469,6.433,7.248,2.098,14.178c-1.289,2.063-3.874,1.517-4.169,3.969c-0.231,1.938,3.161,5.23,3.353,7.605
	c0.539,6.733-5.553,7.41-7.354,12.243c-1.063,2.856,1.181,5.146,0.71,8.619c-0.827,6.107-5.882,7.013-9.261,10.451
	c6.619,4.001-2.312,6.569-3.91,9.319c-1.739,2.991,0.657,12.071-5.099,10.883c2.449,4.613-3.091,9.798-6.805,11.737
	c-0.61-0.323-1.378-0.57-2.003-0.886c-3.146,7.263-10.201,7.245-16.787,7.985c7.198-3.079,6.75-11.337,7.358-17.956
	c2.84,2.441,3.207,6.789,1.26,10.05c2.631-0.673,5.159-10.293,7.907-3.786c3.091-1.42,4.292-4.333,2.954-7.553
	c-1.18,1.855-3.123,2.75-5.413,2.651c5.537-5.065,2.565-12.192,2.732-18.508c4.12,2.435,5.786,5.991,5.002,10.554
	c3.421-6.424,2.04-14.516-0.618-20.921c-0.535,3.358-5.304,4.195-8.265,5.197c2.915-4.748,3.224-10.924,2.784-16.328
	c-1.571,3.032-6.164,5.101-9.121,6.688c5.052-7.259,4.499-16.316,4.333-24.541c4.262,3.053,4.872,10.732,3.381,15.274
	c4.652-9.095,6.442,0.782,5.765,5.861c1.586-2.798,1.417-5.907,1.814-8.994c3.961,5.286,2.237,12.721,2.822,19.019
	c0.311-0.286,0.464-0.916,0.768-1.273c3.059,1.833,1.584,5.983,1.024,9.078c2.68-4.311,5.86-7.887,6.204-13.254
	c3.07,3.832,6.859-4.842,2.904-8.114c7.212-2.157,11.713-16.206,4.781-20.839c-0.988,3.103-2.412,6.704-5.884,7.951
	c4.825-7.045,0.837-14.866,0.477-22.502c2.895,3.009,5.018,7.437,5.467,11.528c6.491-2.487,7.938-11.833,1.362-15.236
	c6.713-7.453,1.012-13.104,2.893-19.475c1.189-4.025,4.644-6.061,4.147-10.613c-0.424-3.901-3.515-6.32-5.998-8.632
	c0.134,3.999-2.13,8.857-5.588,10.824c2.644-3.962,1.976-9.439-0.819-13.03c-2.065,8.184-10.006,17.198-16.445,22.519
	c1.989-3.344,2.575-6.716,2.238-10.526c-2.209,5.22-7.269,10.006-12.18,12.51c6.404-7.036,6.328-15.929,3.967-24.492
	c3.157,2.795,4.569,8.441,4.607,11.206c1.528-1.913,2.946-3.821,4.599-5.622c1.585,1.433,2.38,3.659,2.719,5.938
	c3.396-5.2,6.914-13.986,7.115-20.179c2.237,3.006,6.053,5.84,6.559,9.606c-0.161-1.664,0.688-3.314,0.949-4.749
	c2.188,0.643,4.048,2.015,5.148,3.845c1.036-4.895,2.245-10.41-3.538-13.231c5.823-1.327,1.76-12.255-2.389-15.018
	c10.213-2.624-1.243-12.399-5.427-14.425c1.877,4.461-0.165,10.302-4.873,12.017c5.296-8.586-1.377-18.021-7.697-23.692
	c3.502,1.567,6.185,4.231,9.086,6.289c5.42-2.618,3.075-12.525-2.859-11.887c2.593-4.188,4.931-9.564-2.087-10.679
	c0.382-7.642-5.171-13.035-12.07-15.042c1.272,3.342,1.497,7.694-1.628,10.216c-1.043-11.615-13.811-21.463-25.193-20.529
	c3.889-4.676,11.75-1.227,16.041,1.369c0.064-3.359-1.829-6.641-4.236-9.053c5.713,4.112,13.289,9.11,14.859,15.702"/>
<path fill="#FCD4D2" stroke="#CB8E8D" stroke-width="1.8907" d="M141.763,323.587c-6.419-0.793-5.585-12.229-3.367-16.47
	c-0.123,6.615,3.501,8.825,7.013,12.554"/>
</svg>
