<?xml version="1.0" encoding="utf-8"?>
<!-- Generator: Adobe Illustrator 16.0.3, SVG Export Plug-In . SVG Version: 6.00 Build 0)  -->
<!DOCTYPE svg PUBLIC "-//W3C//DTD SVG 1.1 Basic//EN" "http://www.w3.org/Graphics/SVG/1.1/DTD/svg11-basic.dtd" [
	<!ENTITY ns_flows "http://ns.adobe.com/Flows/1.0/">
	<!ENTITY ns_extend "http://ns.adobe.com/Extensibility/1.0/">
	<!ENTITY ns_ai "http://ns.adobe.com/AdobeIllustrator/10.0/">
	<!ENTITY ns_graphs "http://ns.adobe.com/Graphs/1.0/">
]>
<svg version="1.1" baseProfile="basic" id="Layer_1" xmlns:x="&ns_extend;" xmlns:i="&ns_ai;" xmlns:graph="&ns_graphs;"
	 xmlns="http://www.w3.org/2000/svg" xmlns:xlink="http://www.w3.org/1999/xlink" xmlns:a="http://ns.adobe.com/AdobeSVGViewerExtensions/3.0/"
	 x="0px" y="0px" width="973.285px" height="230.435px" viewBox="0 0 973.285 230.435" xml:space="preserve">
<path fill="#0061AF" d="M282.367,133.304c0,1.826,1.48,3.307,3.306,3.307h385.976c1.827,0,3.306-1.48,3.306-3.307V90.465
	c0-1.826-1.479-3.306-3.306-3.306H285.673c-1.826,0-3.306,1.48-3.306,3.306V133.304z"/>
<path fill="#7D847C" stroke="#535953" stroke-width="0.4592" d="M647.127,93.252c-0.448,1.319-1.885,2.025-3.204,1.575
	l-25.209-8.594c-1.319-0.449-2.025-1.885-1.575-3.205l0,0c0.448-1.321,1.885-2.026,3.205-1.576l25.209,8.593
	C646.874,90.497,647.579,91.932,647.127,93.252L647.127,93.252z"/>
<g>
	<path fill="#9BA398" stroke="#7D847C" stroke-width="0.4592" d="M620.289,80.724c-0.38,1.382-1.809,2.196-3.19,1.816l-0.557-0.153
		c-1.383-0.379-2.195-1.807-1.817-3.19l1.011-3.686c0.38-1.383,1.809-2.197,3.19-1.817l0.558,0.152
		c1.382,0.379,2.195,1.808,1.816,3.191L620.289,80.724z"/>
	<path fill="#FFFFFF" d="M618.974,80.063c-0.211,0.769-1.005,1.22-1.771,1.009l0,0c-0.77-0.211-1.221-1.004-1.011-1.772l0.858-3.13
		c0.21-0.768,1.004-1.22,1.772-1.009l0,0c0.768,0.211,1.22,1.005,1.01,1.773L618.974,80.063z"/>
	<path fill="#9BA398" stroke="#7D847C" stroke-width="0.4592" d="M623.064,71.014c-0.38,1.383-1.808,2.197-3.19,1.817l-0.557-0.153
		c-1.383-0.379-2.195-1.807-1.816-3.19l1.011-3.686c0.379-1.383,1.808-2.197,3.191-1.816l0.556,0.152
		c1.383,0.379,2.195,1.808,1.817,3.19L623.064,71.014z"/>
	<path fill="#FFFFFF" d="M621.75,70.355c-0.21,0.768-1.005,1.221-1.771,1.01l0,0c-0.77-0.21-1.222-1.004-1.011-1.773l0.858-3.13
		c0.21-0.768,1.004-1.22,1.773-1.009l0,0c0.767,0.211,1.22,1.005,1.009,1.773L621.75,70.355z"/>
	<path fill="#9BA398" stroke="#7D847C" stroke-width="0.4592" d="M617.663,75.029c-0.159,0.577,0.181,1.172,0.756,1.33l0,0
		c0.576,0.158,1.172-0.18,1.332-0.757l1.191-4.347c0.158-0.577-0.182-1.172-0.759-1.33l0,0c-0.575-0.159-1.171,0.18-1.328,0.757
		L617.663,75.029z"/>
	<path fill="#9BA398" stroke="#7D847C" stroke-width="0.4592" d="M614.898,100.372c-0.379,1.382-1.809,2.196-3.19,1.816
		l-0.557-0.153c-1.383-0.379-2.196-1.808-1.816-3.19l1.012-3.686c0.379-1.383,1.807-2.197,3.189-1.817l0.557,0.152
		c1.383,0.379,2.196,1.809,1.817,3.191L614.898,100.372z"/>
	<path fill="#FFFFFF" d="M613.583,99.712c-0.21,0.768-1.003,1.22-1.771,1.009l0,0c-0.77-0.211-1.222-1.005-1.01-1.772l0.857-3.13
		c0.21-0.768,1.005-1.22,1.774-1.009l0,0c0.767,0.211,1.22,1.005,1.01,1.773L613.583,99.712z"/>
	<path fill="#9BA398" stroke="#7D847C" stroke-width="0.4592" d="M617.674,90.663c-0.379,1.383-1.808,2.196-3.191,1.817
		l-0.555-0.152c-1.385-0.38-2.198-1.808-1.817-3.191l1.011-3.686c0.379-1.382,1.807-2.196,3.19-1.816l0.556,0.152
		c1.383,0.379,2.196,1.808,1.817,3.19L617.674,90.663z"/>
	<path fill="#FFFFFF" d="M616.36,90.003c-0.212,0.768-1.005,1.22-1.772,1.009l0,0c-0.769-0.21-1.221-1.004-1.01-1.772l0.858-3.13
		c0.211-0.769,1.004-1.22,1.773-1.009l0,0c0.768,0.21,1.219,1.004,1.009,1.773L616.36,90.003z"/>
	<path fill="#9BA398" stroke="#7D847C" stroke-width="0.4592" d="M612.272,94.678c-0.157,0.576,0.182,1.17,0.758,1.329l0,0
		c0.575,0.158,1.171-0.181,1.33-0.756l1.191-4.347c0.159-0.577-0.182-1.172-0.757-1.33l0,0c-0.577-0.158-1.171,0.181-1.329,0.757
		L612.272,94.678z"/>
	<path fill="#9BA398" stroke="#7D847C" stroke-width="0.4592" d="M614.887,84.738c-0.16,0.576,0.182,1.171,0.757,1.329l0,0
		c0.575,0.158,1.171-0.18,1.33-0.757l1.191-4.347c0.159-0.576-0.182-1.171-0.757-1.33l0,0c-0.576-0.158-1.172,0.181-1.329,0.757
		L614.887,84.738z"/>
</g>
<path fill="#E6B8A5" stroke="#BB9787" stroke-width="0.4592" d="M565.266,71.119c-0.267-2.313,1.283-5.699,2.826-7.392
	c-1.579,2.347-2.309,4.439-2.785,7.163c2.18-2.655,5.103-3.474,8.238-4.12c2.973-0.611,6.06-2.238,8.903-2.691
	c2.851-0.452,5.927,1.671,9.109,1.46c3.378-0.224,6.329-2.462,9.52-2.914c1.697-0.241,3.377,0.092,4.974,0.005
	c2.24-0.122,2.352,0.166,4.141,1.402c1.928,1.332,0.798-0.801,1.385,1.461c0.36,1.388,0.602,1.986,1.489,3.236
	c1.272,1.792,5.145,8.434,5.511,2.526c0.1-1.604-2.116-7.766,1.837-5.051c2.541,1.744,2.584,7.392,4.734,8.796
	c2.743,1.79,1.465-8.209,1.465-9.715c-0.032,1.534,1.258,6.831,1.225,8.301c2.679-0.725,1.762-6.521,1.76-8.76
	c-0.02,0.688,0.462,4.76,0.507,5.436c2.665-1.025,0.533-7.186-0.29-8.875c-1.045-2.14-3.736-5.185-5.745-6.205
	c-1.581-0.802-3.29-0.78-4.976-1.202c-1.406-0.352-2.718-1.009-4.146-1.282c-1.573-0.302-3.171,0.103-4.711-0.052
	c-1.637-0.165-3.349-1.191-5.014-1.56c-3.329-0.736-6.576-1.493-9.938-2.115c-3.708-0.686-6.081,0.786-9.363,1.806
	c-3.615,1.125-6.32,0.034-9.68-0.161c-1.657-0.096-3.172,0.655-4.767,0.625c-1.748-0.032-2.962-0.794-4.555-1.241
	c-3.949-1.108-9.51-1.696-13.053,0.979c-2.129,1.608-4.029,3.709-3.722,6.516c0.204,1.86,1.578,7.338,4.146,6.998"/>
<path opacity="0.32" fill="#E6B8A5"  a:adobe-blending-mode="multiply" d="M566.458,60.465c1.014,0.291,6.039-1.582,7.368-2.209
	c-0.453,1.74-2.46,2.734-2.747,4.47c1.325-0.064,2.42-0.9,3.701-1.181c1.437-0.315,3.099-0.2,4.534-0.34
	c2.12-0.207,4.084-0.257,6.2-0.045c3.782,0.378,8.124,0.151,11.709-1.097c3.903-1.36,7.587-2.256,11.71-0.937
	c2.205,0.706,3.033,1.248,3.456,3.417c0.325,1.681,0.399,3.029,1.364,4.81c0.763,1.411,2.301,5.867,4.327,5.476
	c0.134-2.637-1.503-9.709,2.951-9.344c-0.571,0.446-0.755,1.083-1.049,1.538c0.79-0.114,1.654-0.367,2.473-0.389
	c-0.688,1.511,0.876,4.23,1.396,5.699c0.522,1.49,2.694,3.631,2.268,5.021c-2.803,0.03-3.853-6.854-5.42-8.522
	c-4.104-4.365-1.482,5.572-3.267,6.445c-3.156,1.543-5.114-6.24-6.032-7.703c-1.742-2.777-5.485-3.516-8.425-3.036
	c-3.502,0.572-6.703,1.849-10.113,3.036c-4.019,1.398-6.383-1.341-10.333-1.205c-3.446,0.118-7.383,0.997-10.562,2.347
	c-5.415,2.3-5.711-2.107-8.329-5.796c-1.478-2.085-3.987-3.573-5.39-5.799c-2.466-3.913,2.165-3.282,4.746-3.104
	c-0.619,0.354-0.761,1.02-1.1,1.51c1.633,0.814,3.288,1.256,4.997,1.697c-0.902,1.649-3.006,5.422,0.023,6.16"/>
<path fill="#9BA398" stroke="#7D847C" stroke-width="0.9184" d="M694.355,92.044c-4.279-3.69-9.286-3.568-14.515-4.542
	c-5.832-1.085-11.546-2.351-17.635-2.346c-3.846,0.002-7.26-0.916-11.014-1.384c-3.014-0.375-5.988-0.32-8.961-0.912
	c-4.974-0.989-7.967,1.872-11.004,5.511c-1.701,2.039-4.523,4.696-4.84,7.342c-0.725,6.081,3.492,6.252,8.781,6.439
	c5.512,0.195,10.765,0.214,16.239,1.086c6.294,1.003,12.888,2.495,19.287,2.141c6.743-0.373,15.139-1.105,21.155-4.436
	c1.929-1.068,5.559-5.324,5.49-6.832"/>
<g>
	<path fill="#B4143D" stroke="#872041" stroke-width="0.4592" d="M351.435,30.167c0.038-0.186,0.028-0.369-0.029-0.545
		c-1.621-0.225-3.151,1.778-3.153,3.299c-0.002,1.714,1.979,2.747,2.076,4.158c0.17,2.516-4.621,5.512-6.485,6.15
		c2.262,0.625,6.277-1.678,7.227-3.863c-0.233,2.504-1.639,5.26-2.542,7.588c2.116-2.015,3.84-5.384,4.438-8.242
		c0.376-1.798,1.787-8.878-1.157-9.105"/>
	<path fill="#E6B8A5" stroke="#BB9787" stroke-width="0.4592" d="M346.987,94.251c0.002,0,58.336,0.715,58.336,0.715
		c1.824,1.42-0.842-4.76-1.512-6.004c-1.338-2.493-2.555-5.193-4.205-7.587c-1.414-2.05-4.592-3.39-5.656-5.1
		c-1.264-2.034-0.833-5.713-1.87-8.169c-1.978-4.688-6.44-8.59-10.109-11.703c-0.041-0.034-0.083-0.071-0.125-0.106
		c-0.091-0.078-0.009-1.471-0.087-1.719c-0.284-0.9-2.304-1.352-2.695-2.008c-0.728-1.223,0.912-2.895-0.424-3.693
		c-0.696-0.415-2.475-0.53-4.243-1.161c-3.057-1.09-7.3-3.37-9.586-5.386c1.705,2.122,6.546,4.36,8.839,5.199
		c2.538,0.929,4.137,1.393,6.907,0.561c7.108-2.137,6.47-11.704,7.091-17.922c0.673-6.742-3.064-13.831-9.476-16.378
		c-8.904-3.537-20.845-1.549-25.01,8.019c-3.125,7.178,0.834,13.957-0.234,21.055c-0.48,3.192-0.641,6.96-2.126,9.88
		c-1.159,2.277-3.039,4.078-4.018,6.474c-1.821,4.456-2.06,9.519-2.031,14.27C344.797,80.264,345.208,87.668,346.987,94.251z"/>
	<path fill="#E6B8A5" stroke="#BB9787" stroke-width="0.4592" d="M350.121,53.338c-6.144,1.364-9.564,11.489-7.964,16.831
		c0.746,2.489,2.082,4.415,2.235,7.148c0.169,2.997-0.808,5.916-0.363,8.948c1.132,7.745,5.938,8.24,12.892,8.231
		c4.285-0.004,14.483,2.004,16.472-2.156c2.405-5.034-2.619-10.169-4.035-14.593c-1.457-4.554,2.356-9.54-0.286-14.637
		c0.379,2.682,1.427,5.386,1.521,8.087c1.284-1.382,1.833-4.282,1.718-6.297c0.087,2.708-0.553,5.148-0.645,7.729
		c1.021-0.595,1.764-1.612,2.077-2.826"/>
	<path fill="#E5D6D6" stroke="#BCAAAA" stroke-width="0.4592" d="M371.75,84.116c3.496,2.995,4.215-6.739,4.294-8.569
		c0.221-5.161-1.646-9.089-3.856-13.62c-4.1-8.402-13.944-11.023-23.739-8.424c5.974-2.614,15.793-3.478,19.975,0.374
		c2.028,1.866,2.182,0.431,4.854,1.12c3.38,0.873,4.659,0.02,7.468,0.187c5.123,0.305,11.751,8.115,12.826,12.471
		c1.478,5.997,5.233,9.809,8.696,14.96c2.806,4.177,5.158,8.298,5.646,13.187c-1.852-1.244-6.254-0.981-8.606-1.306
		c-3.176-0.438-6.399-0.188-9.662-0.35c-5.87-0.29-13.409,1.725-18.931-0.447c1.409-2.422,1.562-5.54,1.036-8.15"/>
	<path opacity="0.35" fill="#BCAAAA"  a:adobe-blending-mode="multiply" d="M377.677,68.012c-0.831,2.804,2.014,6.952,5.726,6.361
		c3.133-0.498,5.188-3.97,8.465-4.587c-2.229,1.722-4.372,3.946-6.171,6.107c1.848,0.849,4.187-0.229,6.188-0.373
		c-9.094,1.965-15.734,10.321-8.597,18.922c-3.833-0.661-7.312-0.184-11.283-0.358c-0.394-2.453,0.301-4.917,0.366-7.399
		c6.618-1.018,3.915-13.83,4.233-18.315"/>
	<path d="M369.088,75.527c0.227,0.699,0.736,1.803,1.468,2.755c-0.554-0.958-0.541-2.062-0.696-3.067
		c0.539,0.333,1.356,0.447,1.949,0.983c-0.65-0.917-0.285-1.43-0.519-2.406c0.504,0.035,1.078-0.081,1.61-0.036
		c-0.449-0.378-0.89-1.078-1.269-1.378c0.317-0.011,0.972,0.043,1.268-0.044c-1.045-0.825-2.155-1.931-3.025-2.853
		c-0.589,2.345-1.242,4.663-0.428,7.12"/>
	<path fill="none" stroke="#000000" stroke-width="0.2296" d="M342.247,86.98c1.066,2.481,5.225,2.98,7.762,2.88
		c-2.884-1.337-6.935-2.661-8.358-5.724c1.8,1.223,3.727,2.187,5.942,2.431c-1.726-1.802-5.009-2.611-5.664-5.266
		c2.125,0.403,4.317,1.367,6.47,1.945c-1.869-1.382-3.912-3.6-4.363-5.931"/>
	<path opacity="0.32" fill="#E6B8A5"  a:adobe-blending-mode="multiply" d="M355.847,93.064c-2.96-3.108-2.538-9.22-3.167-13.205
		c1.393,1.053,3.011,1.521,4.831,1.412c-2.653-2.792-4.984-5.478-5.913-9.206c1.973,1.654,3.69,4.296,6.359,4.474
		c-2.368-3.173-5.586-6.609-6.503-10.593c-0.859-3.731,0.102-7.556,0.402-11.122c-7.014-2.05-2.21,14.97-1.782,17.07
		c-5.288-1.273-4.42-8.671-5.303-12.721c-1.58,4.013-2.75,7.546-1.361,11.702c1.267,3.795,3.108,6.253,2.495,10.378
		c-0.446,2.985-1.764,6.422,0.54,9.323c1.768,2.227,5.921,3.958,8.328,2.846"/>
	<path fill="#B4143D" stroke="#872041" stroke-width="0.4592" d="M355.729,27.554c2.35-2.741,5.007-4.795,8.453-6.203
		c2.875-1.174,6.929-2.411,10.039-2.571c2.368-0.123,5.108-0.302,7.458,0c2.683,0.345,3.208,1.862,5.003,3.34
		c0.514-2.493-1.177-5.909-2.011-8.19c-0.999-2.728-2.615-5.619-5.461-6.87c-3.164-1.392-7.094-0.926-10.413-0.425
		c-3.688,0.557-7.383,1.172-10.641,3.324c-4.115,2.718-6.576,7.034-7.271,11.798c-0.309,2.117-0.281,4.384,0.876,6.175
		c1.35,2.086,2.469,0.49,4.528,0.182"/>
	<path opacity="0.32" fill="#E6B8A5"  a:adobe-blending-mode="multiply" d="M365.997,51.263c-0.507-2.262-2.119-4.517-3.034-6.68
		c-0.845-2-1.437-4.184-2.398-6.136c1.156,1.787,2.116,3.867,3.905,5.142c-0.156-0.486-0.101-1.111-0.271-1.636
		c2.973,1.118,5.792,3.765,8.695,5.202c2.294,1.136,6.473,1.002,5.584,4.267c-4.59,1.463-7.609-1.583-10.927-4.024
		c1.882,2.646,3.724,5.413,7.034,5.731c2.348,0.227,4.581-0.009,6.146,1.829c-2.919,0.199-5.925,0.373-8.76-0.143
		C370.339,54.518,366.012,52.971,365.997,51.263"/>
	<path opacity="0.32" fill="#E6B8A5"  a:adobe-blending-mode="multiply" d="M356.289,50.889c1.838-1.74,1.922-7.798,1.671-10.21
		c1.433,3.237,2.175,7.819,2.222,11.302c-0.897-0.194-3.545-0.571-3.707-0.905"/>
	<path d="M377.198,44.355c0,1.289-0.638,4.904,1.465,4.639c0.037-0.178,0.014-0.337,0.065-0.514c0.457,0.342,0.985,0.33,1.441,0.513
		c-0.205-0.268-0.333-0.795-0.526-1.067c0.311,0.151,0.905,0.146,1.259,0.331c-0.039-0.67-0.3-1.354-0.508-2.01
		c0.254,0.146,0.768,0.232,1.078,0.46c-1.728-2.045,0.467-5.949-1.61-7.443c-1.317-0.948-2.036,0.129-2.478,1.167
		c-0.268,0.629-0.191,1.432-0.505,2.058c-0.345,0.688-0.99,0.961-1.291,1.698c0.325-0.216,0.859-0.271,1.208-0.513
		c-0.029,0.587-0.148,1.241-0.321,1.787c0.182-0.114,0.508-0.233,0.694-0.344c-0.178,0.73-0.35,1.659,0.215,1.852"/>
	<path fill="#BB9787" d="M371.225,38.942c-0.604,0.203-0.144,1.062,0.386,1.624c-0.778-2.729,5.282-3.678,7.081-3.678
		c1.892,0,7.423,1.659,6.939,4.238c0.627-0.562,0.578-1.388,0.333-2.119c0.091,0.606-0.057,0.464-0.318,1.04
		c-1.326-2.287-5.12-3.411-7.518-3.528c-1.669-0.083-2.473-0.015-3.957,0.692c-1.016,0.483-2.773,2.064-3.702,1.423
		c-0.069,0.351,0.033,0.586,0.196,0.868"/>
	<path opacity="0.32" fill="#E6B8A5"  a:adobe-blending-mode="multiply" d="M384.292,42.115c-1.524-1.167-2.938-2.967-5.041-3.401
		c-1.299-0.269-6.606,0.561-6.729,2.457c-0.18,2.789,4.831-0.006,5.982,0.01c1.953,0.028,3.787,3.193,5.227,1.121"/>
	<path fill="#E6B8A5" stroke="#BB9787" stroke-width="0.4592" d="M356.858,33.67c-2.264,2.62-6.321-0.458-6.817-3.203
		c-0.699-3.854,5.028-5.862,6.102-1.808"/>
	<path opacity="0.32" fill="#E6B8A5"  a:adobe-blending-mode="multiply" d="M355.785,31.881c-0.941-0.042-1.464,0.187-1.735-0.983
		c0.244-0.132,0.751-0.359,0.957-0.512c0.602-3.153-4.269-3.458-3.454-0.342c0.451-0.312,1.655-0.667,2.05-0.955
		c-1.513,0.813-2.011,2.453-0.324,3.542c0.563-0.643,1.229-0.397,1.792-0.75"/>
	<path fill="#B4143D"  a:adobe-blending-mode="multiply" d="M356.475,24.94c-0.634-2.184,5.692-4.786,7.462-5.464
		c3.093-1.186,6.171-1.275,9.284-2.003c-5.755-0.872-10.227,1.222-15.274,3.85c2.871-5.255,8.647-7.605,14.262-6.843
		c3.698,0.502,9.366,4.841,12.774,3.175c-2.05,0.013-4.627-1.351-6.478-2.236c-2.286-1.095-4.156-1.34-6.679-1.493
		c-2.442-0.147-4.895-0.237-7.277,0.42c-2.976,0.821-4.67,4.144-7.298,4.922c0.183-1.464,1.266-2.774,1.955-4.063
		c-1.279,0.986-2.332,2.376-3.444,3.372c-0.074-1.249-0.015-2.489,0.317-3.662c-2.766,2.436-4.166,6.833-3.868,10.369
		c1.378-0.111,2.309,0.501,3.471,0.943c0.172-0.744,0.572-0.88,0.981-1.101"/>
	<path fill="#E6B8A5" stroke="#BB9787" stroke-width="0.4592" d="M380.185,26.621c1.456,1.265,3.106,6.343,1.634,7.798
		c-1.431,1.414-6.251,1.309-7.421,0.417"/>
	<path d="M376.824,26.621c-2.594-0.356-5.327,2.764-7.588,3.522c0.525-1.019,1.426-2.068,2.482-2.594
		c-1.517-0.739-5.801,1.109-7.335,1.708c0.771-0.969,2.212-1.83,3.424-2.082c-2.18,0.029-4.332,0.298-6.41,0.764
		c0.967-0.938,2.718-1.645,3.838-2.201c-0.741-0.458-1.649-0.553-2.434-0.234c4.401-1.125,8.968,0.991,13.594,0.569
		c-0.958-0.753-2.11-1.15-3.051-1.894c1.198,0.519,2.483,0.954,3.639,1.493c-0.087-0.636,0.121-1.231,0.257-1.797
		c1.195,1.806,1.124,1.989,3.244,1.046c-0.363,0.329-0.564,0.792-0.84,1.115c2.886-0.811,7.111-0.485,9.53,0.583
		c-0.996,0.003-2.033-0.14-2.953,0.228c1.298,0.666,2.918,1.081,3.471,2.558c-1.01-0.664-2.12-1.051-3.28-1.503
		c0.978,0.978,2.087,1.53,2.528,2.951c-2.067-1.767-3.98-3.282-6.556-3.819c-2.155-0.449-4.588-0.114-6.306-0.227"/>
	<path fill="#9BA398" stroke="#7D847C" stroke-width="0.4592" d="M351.809,34.835c0.16-0.076,0.294-0.182,0.4-0.317
		c-1.586,5.701,5.745,2.548,2.797-0.957c2.295,0.767,1.533,5.833-0.957,5.799c-2.944-0.041-2.524-3.511-1.867-5.272"/>
	<path opacity="0.32" fill="#E6B8A5"  a:adobe-blending-mode="multiply" d="M374.398,35.021c0.641,0.471,0.816,1.268,1.489,1.498
		c0.811,0.276,1.906-0.353,2.809-0.195c1.371,0.238,3.44,0.852,4.709,1.453c1.322,0.625,2.258,2.566,3.168,0.978
		c0.668-1.166,0.282-4.374,0.332-5.731c-0.308,3.681-4.901,0.173-5.222-1.927c-0.107-0.704-0.203-2.554,0.919-2.818
		c0.414-0.097,2.851,1.657,3.528,1.871c0.058-1.155-0.002-2.345,0.057-3.5c0.259,0.036,0.624-0.094,0.881-0.062
		c-0.205-1.745-0.793-3.569-1.324-5.325c-0.157,0.454-0.427,0.95-0.58,1.414c0.223-1.69-0.304-2.671-1.988-3.519
		c-1.218-0.612-4.501-1.779-5.438-0.377c0.537,1.151,0.719,2.359,1.164,3.476c-0.421-0.45-0.945-0.863-1.485-1.171
		c-0.209,1.892,1.582,3.864-0.937,4.648c1.563,1.44,1.11,4.365,1.847,6.246c-0.276-1.087-1.551-4.654-0.195-5.507
		c1.777-1.118,2.437,2.648,2.805,3.69c0.694,1.967,1.292,3.154-0.576,4.289c-1.317,0.8-3.926,1.466-5.348,0.936
		c0.291,0.047,0.351,0.269,0.504,0.382"/>
	<path opacity="0.32" fill="#E6B8A5"  a:adobe-blending-mode="multiply" d="M374.398,33.341c0.024-0.589,0.262-2.375,0.974-2.585
		c0.71-0.209,1.187,0.77,1.653,1.208c-0.068-1.867-0.714-3.61-0.603-5.501c-2.237-0.129-4.691-0.937-6.878-0.775
		c-1.058,0.079-2.064,0.577-3.174,0.751c-1.847,0.289-1.84,0.067-2.847,2.059c-0.676,1.339-1.296,2.098,0.047,3.028
		c0.792,0.55,2.591,0.614,3.546,0.519c2.452-0.245,4.954-2.386,7.057-3.537c-0.098,1.313-0.802,3.053-0.298,4.255
		c0.322-0.099,0.64-0.291,0.896-0.542"/>
</g>
<path fill="none" stroke="#000000" stroke-width="0.2296" d="M612.641,52.765c-1.294,0.665-2.354,1.248-2.794,2.46
	c1.47,0.181,4.874-1.132,4.316-3.092c-0.887-3.107-7.357,1.093-8.614,1.855c1.854-0.007,4.146-1.728,4.259-3.667
	c-3.144-1.346-8.909,1.007-10.597,3.659c1.195-0.218,5.867-2.473,4.578-4.37c-1.564-2.303-8.839,3.071-9.84,4.401
	c1.652-0.836,4.061-2.635,3.993-4.661c-3.826-0.484-6.281,1.7-8.978,4.099c1.568-0.683,2.506-2.348,3.108-3.854
	c-2.536-1.095-5.396,1.502-6.941,3.409c1.083-0.936,2.104-2.216,2.158-3.636c-2.417-0.391-4.435,1.843-5.581,3.637
	c0.937-0.789,1.375-1.82,1.206-3.005c-1.934-0.361-6.596,2.893-5.289,3.077"/>
<g>
	<path d="M565.484,44.179c0.327,1.513,1.438,2.609,2.869,3.037c-2.588-3.443,2.265-8.51-0.609-11.638
		c-4.564-4.967-4.064,6.314-2.928,8.601"/>
	<g>
		<path fill="#E6B8A5" stroke="#BB9787" stroke-width="0.4592" d="M579.84,86.887c-1.248-2.325-2.382-4.842-3.921-7.075
			c-1.318-1.911-4.281-3.16-5.272-4.755c-1.179-1.896-0.778-5.326-1.744-7.618c-1.844-4.37-6.006-8.01-9.427-10.913
			c-0.038-0.032-0.077-0.067-0.116-0.1c0.167-1.1-0.092-2.742-1.501-3.303c0.024-0.322,0.231-0.571,0.281-0.866
			c0.023,0.185,0.12,0.304,0.337,0.316c-0.026,0.025,0.57-0.705,0.388-0.663c5.008-1.341,5.12-5.316,7.203-9.148
			c1.161-2.139,2.982-3.385,1.175-5.665c-0.615-0.777-1.693-1.337-2.819-1.542c0.027-0.434,0.162-0.939,0.108-1.336
			c1.281,0.336,2.47,1.048,3.905,0.9c1.204-3.856-1.021-6.918-2.238-10.232c0.188-0.045,0.374-0.085,0.563-0.121
			c0.828-4.034-4.728-9.447-7.944-11.206c-4.229-2.31-12.198-2.118-16.693-0.751c-10.945,3.328-10.218,17.54-11.088,26.697
			c-0.494,5.217-4.474,12.221-3.302,17.695c-0.502,0.864-0.938,1.75-1.286,2.646c-3.932,10.06,0.258,32.029,0.406,31.97
			l54.396,0.667C582.952,93.809,580.465,88.046,579.84,86.887z"/>
		<path fill="#E6B8A5" stroke="#BB9787" stroke-width="0.4592" d="M529.776,54.19c-5.729,1.272-8.918,10.713-7.426,15.694
			c0.695,2.321,1.94,4.116,2.085,6.666c0.156,2.794-0.755,5.516-0.34,8.342c1.056,7.223,5.537,7.684,12.021,7.676
			c3.996-0.004,13.506,1.868,15.36-2.011c2.242-4.694-2.443-9.482-3.764-13.607c-1.358-4.247,2.198-8.896-0.267-13.648
			c0.354,2.5,1.331,5.022,1.418,7.541c1.197-1.289,1.709-3.993,1.602-5.872c0.082,2.526-0.516,4.801-0.601,7.207
			c0.951-0.556,1.644-1.503,1.937-2.635"/>
		<path fill="#B4143D" stroke="#872041" stroke-width="0.4592" d="M550.465,82.891c3.261,2.792,3.932-6.285,4.005-7.991
			c0.206-4.813-1.536-8.476-3.597-12.7c-3.821-7.835-13.3-11.1-22.434-8.677c4.423-4.443,15.365-4.166,19.265-0.575
			c1.891,1.74,3.608,3.586,6.101,4.228c3.152,0.813,4.061-1.48,6.68-1.325c4.777,0.284,9.327,7.627,10.328,11.688
			c1.38,5.592,4.881,9.147,8.108,13.95c2.618,3.895,4.811,7.737,5.266,12.296c-1.727-1.161-5.832-0.915-8.025-1.217
			c-2.961-0.409-5.967-0.176-9.01-0.326c-5.474-0.271-12.503,1.608-17.652-0.416c1.315-2.261,1.457-5.167,0.966-7.602"/>
		<path fill="#B4143D"  a:adobe-blending-mode="multiply" d="M555.471,67.873c-0.774,2.616,1.878,6.482,5.338,5.932
			c2.923-0.465,4.839-3.702,7.895-4.277c-2.079,1.606-4.077,3.68-5.755,5.695c1.724,0.791,3.903-0.213,5.771-0.348
			c-8.48,1.832-14.672,9.624-8.017,17.644c-3.574-0.616-6.818-0.171-10.521-0.333c-0.367-2.288,0.28-4.586,0.341-6.899
			c6.17-0.949,3.649-12.896,3.946-17.079"/>
		<path d="M547.462,74.881c0.211,0.651,0.688,1.681,1.367,2.568c-0.516-0.893-0.503-1.922-0.647-2.859
			c0.501,0.311,1.264,0.416,1.816,0.916c-0.605-0.854-0.266-1.333-0.483-2.243c0.471,0.032,1.005-0.076,1.501-0.034
			c-0.418-0.354-0.829-1.005-1.183-1.285c0.296-0.01,0.906,0.041,1.182-0.041c-0.974-0.769-2.009-1.8-2.819-2.66
			c-0.551,2.186-1.158,4.348-0.4,6.64"/>
		<path fill="none" stroke="#000000" stroke-width="0.2296" d="M522.433,85.561c0.995,2.314,4.873,2.779,7.239,2.686
			c-2.689-1.247-6.467-2.481-7.794-5.337c1.679,1.141,3.475,2.04,5.54,2.268c-1.609-1.682-4.671-2.436-5.281-4.911
			c1.982,0.376,4.026,1.275,6.033,1.814c-1.743-1.289-3.647-3.356-4.067-5.53"/>
		<path fill="#E6B8A5" stroke="#BB9787" stroke-width="0.4592" d="M564.482,35.836c-4.662-0.636-9.154,1.638-11.688,5.547
			c-0.121-0.647-0.324-1.033-0.324-1.775c-0.392,1.688,0.176,3.685,2.001,3.236"/>
		<path d="M564.482,34.501c-1.874-2.165-8.18-0.113-10.363,1.335c-3.752,2.488-2.298,6.164-4.954,9.275
			c1.707-0.017,5.083-4.445,6.707-5.847c3.325-2.87,5.779-3.306,9.887-3.152c0.197-0.455,0.286-0.789,0.341-1.211
			c-0.565-0.09-0.994-0.342-1.574-0.455c-0.088-0.173,0.091-0.917,0.291-0.612"/>
		<path opacity="0.32" fill="#E6B8A5"  a:adobe-blending-mode="multiply" d="M562.813,33.167c-0.707-1.5,0.934-2.689,2.427-1.452
			c0.627-1.94-0.723-6.809-1.01-8.792c-0.129,0.528-0.555,1.224-0.674,1.542c-0.029-0.671-0.318-1.24-0.41-1.875
			c-0.179,0.861-0.742,1.123-1.073,1.768c-2.305-2.058-5.943-2.962-8.936-2.12c-2.061,0.581-6.483,3.806-5.681,6.582
			c0.917,3.176,6.637,0.4,9.017,0.27c3.905-0.214,4.944,2.712,5.28,6.357c-1.938,0.968-5.459,1.34-6.291,3.71
			c-1.265,3.603,2.317,3.278,4.565,1.986c-0.136,0.224-0.435,0.484-0.593,0.692c1.122,1.798,4.115,0.624,5.654-0.21
			c-0.173,1.983-2.245,4.261-3.92,5.125c3.879,2.592-7.757,4.54-3.747,8.357c-2.89,1.74-5.947-2.851-8.199-4.345
			c-3.357-2.227-5.449-3.411-8.06-6.792c0.903,0.821,2.034,1.503,3.261,1.845c-1.477-3.144-3.261-6.032-3.634-9.544
			c0.469,3.455,3.474,8.775,6.63,10.193c-2.14-2.474-2.539-5.988-2.978-9.182c1.055,2.049,6.625,14.198,8.7,7.571
			c0.861-2.747-1.225-2.99,1.402-5.663c1.783-1.813,3.801-3.394,6.265-4.022"/>
		<path fill="#E6B8A5" stroke="#BB9787" stroke-width="0.4592" d="M541.455,35.503c-2.11,2.442-5.893-0.429-6.356-2.987
			c-0.652-3.595,4.688-5.467,5.689-1.686"/>
		<path opacity="0.32" fill="#E6B8A5"  a:adobe-blending-mode="multiply" d="M540.454,33.833c-0.878-0.04-1.365,0.175-1.617-0.916
			c0.228-0.123,0.699-0.335,0.892-0.477c0.562-2.94-3.98-3.225-3.22-0.32c0.42-0.29,1.542-0.623,1.911-0.89
			c-1.411,0.758-1.876,2.288-0.303,3.302c0.525-0.6,1.146-0.37,1.67-0.7"/>
		<path d="M541.455,27.827l26.031-3.003l0.333,1.668l-2.669,1.001c0,0,0.333,2.002-5.339,3.337
			c-5.675,1.335-7.676-2.669-7.676-2.669l-10.348,1.669L541.455,27.827z"/>
		<path fill="#FFFFFF" d="M561.812,27.16c-0.566,0.434-0.983,0.558-0.957,1.276c0.535,0.051,1.034,0.06,1.575,0.009
			c0.468-0.921-0.024-0.801-0.285-1.286"/>
		<path opacity="0.32" fill="#E6B8A5"  a:adobe-blending-mode="multiply" d="M535.115,91.233c-2.76-2.898-2.366-8.597-2.954-12.313
			c1.3,0.982,2.809,1.419,4.506,1.317c-2.475-2.604-4.647-5.109-5.514-8.584c1.84,1.542,3.44,4.006,5.93,4.171
			c-2.208-2.958-5.208-6.163-6.064-9.877c-0.801-3.48,0.096-7.046,0.376-10.37c-6.54-1.912-2.062,13.959-1.661,15.917
			c-4.932-1.188-4.123-8.086-4.946-11.862c-1.472,3.742-2.563,7.037-1.268,10.912c1.18,3.539,2.898,5.831,2.325,9.676
			c-0.415,2.784-1.644,5.988,0.504,8.694c1.647,2.076,5.521,3.69,7.765,2.653"/>
	</g>
</g>
<path fill="#FFFFFF" d="M538.438,65.265c-4.811,1.011-9.441-7.998-14.405-4.399c-6.097,4.418,1.038,22.005,5.587,25.677
	c3.766,3.041,10.107,2.199,14.613,2.55c2.28,0.177,6.419,0.857,7.076-2.538c0.482-2.496-3.845-8.325-5.18-10.277
	c-1.682-2.458-4.399-5.167-5.124-8.078"/>
<path fill="#6D969B" d="M527.412,58.491c1.376-1.051,2.277-4.201,3.401-5.86c-1.538-1.565-4.837-3.497-6.846-1.39
	c-1.486,1.561-2.061,11.646,1.538,8.965"/>
<path fill="#E6B8A5" stroke="#BB9787" stroke-width="0.4592" d="M321.253,54.4c1.363,0.325,2.356-20.773,2.54-24.334
	c0.341-6.616,1.649-14.754,8.813-17.3c8.776-3.12,13.738,3.519,17.906,9.952c2.09,3.225,3.006,4.5,2.902,7.844
	c-0.036,1.137-1.047,2.38-1.101,3.871c-0.059,1.604,0.982,3.538,0.98,5.306c-0.005,6.747-0.865,17.464-10.167,15.488
	c-4.632-0.984-12.595-7.292-14.985-11.651c2.251,4.421,4.769,5.603,8.013,7.732c3.967,2.603,4.813,2.928,4.492,8.672
	c-3.893,1.599-16.5-1.621-16.854-6.699"/>
<path fill="#E6B8A5" stroke="#BB9787" stroke-width="0.4592" d="M499.644,33.223c0,4.524,0.237,9.505-0.053,15.168
	c-0.225,4.377,7.762,1.078,11.285,2.918c4.563,2.383,6.314,7.06,10.581,9.545c5.524,3.217,6.101-3.951,5.763-8.653
	c-2.567,0.542-4.333,1.618-6.47-0.076c14.976,4.592,17.633-19.367,13.521-24.125c-7.26-8.398-13.953-12.215-24.146-8.784
	c-4.502,1.516-7.813,4.747-8.864,9.539c-0.289-1.644-1.194-3.257-2.729-4.035c-2.538,1.448-1.45,5.955-0.977,8.174"/>
<path fill="#A3C3C9" stroke="#6D969B" stroke-width="0.4592" d="M548.252,83.419c-3.751-8.063-14.035-16.524-22.358-20.597
	c0.143-1.268-0.169-2.621-1.004-3.557c0.289,1.189,0.307,2.438,0.966,3.5c-0.567-2.792,3.473-7.887,4.413-10.374
	c1.376,3.527,2.875,7.545,4.878,10.753c-1.845-1.023-5.83-5.609-5.321-5.531c0.349-0.323-0.734,0.739-2.081,2.714
	c0.122-0.207,1.488-1.629,1.762-2.22c0.452,0.464-0.003-1.129,0.319-0.494c0.114,0.117,0.108,0.123,0,0c-0.71-0.568,0.425,0.723,0,0
	c1.381,0.177,4.276,4.038,5.236,5.305c-0.751-2.198-1.332-4.329-2.887-5.955c6.421-0.452,10.998,6.389,14.831,10.891
	c4.353,5.113,6.736,11.452,9.3,17.375C554.733,84.727,548.511,82.984,548.252,83.419"/>
<path fill="none" stroke="#000000" stroke-width="0.4592" d="M593.833,50.438c2.651-7.645,1.948-17.817,5.568-24.652
	c0.165,5.798,1.095,22.617,3.421,26.035"/>
<path fill="#896729" d="M605.986,50.182c0.282,0.312,0.303,0.632,0.75,0.449c0.233,0.248,0.348,0.396,0.675,0.528
	c0.136,0.332,0.144,0.396,0.433,0.767c-0.198,0.956,0.515,1.578,1.066,2.203c-0.221,0.701-0.129,1.03,0.389,1.545
	c-0.125,0.807,0.183,2.362,0.598,2.856c0.214,0.442,0.467,1.139,0.573,1.576c0.008-0.014-0.476,0.255-0.509,0.272
	c-0.019,0.095,0.02,0.162,0.118,0.202c0.081,0.066,0.088,0.064,0.019-0.005c-4.265-0.984-3.613-5.619-4.863-8.89"/>
<path fill="#ACBEE2" stroke="#0061AF" stroke-width="0.9184" d="M302.077,126.187c-6.317-5.472-20.012-40.787-5.124-41.936
	c-13.077,9.254-15.004-11.453-4.237-17.886c11.349-6.78,24.974-0.086,22.327,14.253c-1.858,0.057-7.05,0.155-7.055,0.153
	c9.835-2.431,21.405,19.443,25.374,27.271c8.188,16.155-13.883,19.502-27.37,18.167c-1.246-0.462,0.747-0.442,1.13-1.032"/>
<path fill="#ACBEE2" stroke="#0061AF" stroke-width="0.9184" d="M480.174,126.519c-6.317-5.471-20.012-40.786-5.124-41.936
	c-13.076,9.255-15.003-11.453-4.235-17.886c11.348-6.78,24.973-0.085,22.326,14.253c-1.857,0.057-7.05,0.155-7.056,0.153
	c9.836-2.431,21.405,19.443,25.375,27.272c8.188,16.155-13.884,19.5-27.37,18.167c-1.245-0.462,0.747-0.443,1.13-1.033"/>
<path fill="#939598" d="M13.126,144.957c-3.915-1.305-8.211-1.48-11.8,0.187c1.915,6.777,2.961,14.602,4.249,21.142
	c1.144,5.812,6.118,13.926,3.303,19.304c2.863,2.034,6.85,2.095,10.56,1.476c-1.177-6.117-6.203-40.947-9.066-41.189"/>
<rect x="116.548" y="134.875" width="766.315" height="60.238"/>
<g>
	<circle fill="#434A4F" stroke="#000000" stroke-width="0.9184" cx="799.963" cy="172.588" r="53.34"/>
	<circle fill="#FFFFFF" cx="799.963" cy="172.588" r="41.688"/>
	<circle fill="#434A4F" stroke="#000000" stroke-width="0.9184" cx="799.962" cy="172.589" r="33.135"/>
	<circle fill="#939598" cx="799.962" cy="172.589" r="27.478"/>
	<path fill="#B8BABC" d="M823.648,172.589c0-13.081-10.604-23.686-23.686-23.686c-13.08,0-23.688,10.604-23.688,23.686H823.648z"/>
	<path fill="#545456" d="M800.697,172.586l-0.736,23.687c0,0,9.845,1.653,15.979-6.203
		C815.092,189.413,800.697,172.586,800.697,172.586z"/>
	<path fill="#545456" d="M800.809,172.462l-10.297,21.342c0,0-9.495-3.085-11.301-12.886
		C780.265,180.726,800.809,172.462,800.809,172.462z"/>
	<circle fill="#B1B3B6" stroke="#D8D9DA" stroke-width="0.9184" cx="800.809" cy="172.462" r="13.897"/>
	<circle fill="#545456" cx="800.301" cy="172.589" r="9.843"/>
	<path fill="#B1B3B6" stroke="#D8D9DA" stroke-width="0.9184" d="M817.542,168.687c0.183,0.636-0.184,1.3-0.818,1.484l-33.111,9.563
		c-0.636,0.184-1.301-0.185-1.485-0.82l0,0c-0.183-0.637,0.184-1.303,0.82-1.484l33.109-9.562
		C816.693,167.682,817.359,168.05,817.542,168.687L817.542,168.687z"/>
	<path fill="#B1B3B6" stroke="#D8D9DA" stroke-width="0.9184" d="M805.337,190.942c-0.637,0.183-1.301-0.184-1.484-0.82
		l-9.562-33.11c-0.185-0.636,0.183-1.301,0.82-1.485l0,0c0.636-0.183,1.301,0.185,1.484,0.819l9.563,33.11
		C806.341,190.091,805.975,190.758,805.337,190.942L805.337,190.942z"/>
	<circle fill="#B1B3B6" stroke="#D8D9DA" stroke-width="0.9184" cx="800.302" cy="172.589" r="6.571"/>
</g>
<g>
	<circle fill="#434A4F" stroke="#000000" stroke-width="0.9184" cx="228.221" cy="172.757" r="53.34"/>
	<circle fill="#FFFFFF" cx="228.221" cy="172.757" r="41.688"/>
	<circle fill="#434A4F" stroke="#000000" stroke-width="0.9184" cx="228.22" cy="172.757" r="33.135"/>
	<circle fill="#939598" cx="228.22" cy="172.757" r="27.477"/>
	<path fill="#B8BABC" d="M251.906,172.757c0-13.081-10.604-23.686-23.687-23.686c-13.08,0-23.686,10.604-23.686,23.686H251.906z"/>
	<path fill="#545456" d="M228.955,172.754l-0.737,23.686c0,0,9.846,1.655,15.979-6.202
		C243.35,189.581,228.955,172.754,228.955,172.754z"/>
	<path fill="#545456" d="M229.067,172.63l-10.297,21.342c0,0-9.495-3.085-11.302-12.888
		C208.523,180.893,229.067,172.63,229.067,172.63z"/>
	<circle fill="#B1B3B6" stroke="#D8D9DA" stroke-width="0.9184" cx="229.067" cy="172.63" r="13.896"/>
	<circle fill="#545456" cx="228.559" cy="172.757" r="9.843"/>
	<path fill="#B1B3B6" stroke="#D8D9DA" stroke-width="0.9184" d="M245.8,168.855c0.184,0.635-0.183,1.301-0.82,1.483l-33.109,9.563
		c-0.637,0.184-1.301-0.185-1.485-0.82l0,0c-0.184-0.637,0.183-1.303,0.82-1.486l33.109-9.561
		C244.951,167.851,245.617,168.218,245.8,168.855L245.8,168.855z"/>
	<path fill="#B1B3B6" stroke="#D8D9DA" stroke-width="0.9184" d="M233.596,191.109c-0.637,0.184-1.302-0.184-1.486-0.82
		l-9.562-33.108c-0.184-0.638,0.183-1.303,0.82-1.485l0,0c0.637-0.185,1.302,0.183,1.485,0.819l9.561,33.109
		C234.6,190.259,234.232,190.925,233.596,191.109L233.596,191.109z"/>
	<circle fill="#B1B3B6" stroke="#D8D9DA" stroke-width="0.9184" cx="228.559" cy="172.757" r="6.571"/>
</g>
<path fill="#007AC2" stroke="#0061AF" stroke-width="0.9184" d="M10.886,143.761c0,44.438,10.092,51.384,10.092,51.384
	l134.085,9.843c0,0,6.913-40.489,63.202-41.477c56.289-0.987,72.089,42.465,72.089,42.465l400.935-0.988
	c0,0,30.611-47.4,111.587-53.326c80.977-5.925,54.314,53.326,54.314,53.326l54.629,0.592l46.017-43.386l0.08-44.108l12.838-23.701
	l-283.418-6.912l-84.927-68.139h-13.825l73.076,75.051H306.154c0,0-9.875-9.875-44.438-11.85
	c-13.803-0.789-238.72,7.652-238.72,7.652S10.886,99.323,10.886,143.761z"/>
<polygon fill="#939598" points="970.753,94.385 955.534,115.848 948.304,119.792 948.961,148.717 961.451,149.375 959.479,116.176 
	973.285,94.812 "/>
<path fill="#0061AF" d="M19.555,144.038l923.903-2.755l-24.797,56.94l-56.021,1.837c0,0-2.755-46.838-26.633-51.43
	c-23.878-4.593-114.995,12.907-147.861,52.349c-4.593,5.511-395.828,1.837-395.828,1.837s-14.356-35.632-74.052-39.305
	c-43.171-2.656-66.462,40.223-66.462,40.223L24.147,193.632C24.147,193.632,7.616,147.711,19.555,144.038z"/>
<path fill="#939598" d="M891.744,155.878l-16.287,48.487c0,0-2.981,4.805,1.281,4.527c4.264-0.276,41.128-0.692,41.128-0.692
	l42.066-36.983c0,0,31.153-22.445-17.126-20.3c-48.28,2.146-42.747,1.126-42.747,1.126S894.006,150.132,891.744,155.878z"/>
<polygon fill="#239BD7" points="966.113,95.976 454.874,95.363 893.867,102.099 883.458,108.222 956.316,106.997 "/>
<path fill="#B8BABC" d="M904.795,154.051c-5.055,0.697-10.901,1.406-12.224,7.744c-1.388,6.655,9.801,5.477,13.712,5.657
	c12.543,0.578,24.809,0.921,37.223-0.292c5.023-0.49,30.046-1.721,19.885-11.619c-2.938-2.864-10.637-2.291-14.518-2.681
	c-6.989-0.701-13.831,0.595-20.778,1.183c-4.803,0.408-9.216,0.698-13.771-0.209c-2.225-0.441-8.887-0.495-10.422,1.11"/>
<path fill="#B8BABC" d="M951.25,120.103c-2.66-0.135-2.52,4.061-1.438,5.606c2.624-0.068,3.852,1.549,4.43,3.923
	c0.771,3.163-0.552,3.235-2.694,5.063c-1.457,1.244-4.064,4.243-2.622,6.559c1.242,1.988,5.306,0.902,7.386,0.886
	c8.396-0.067,1.279-6.208-0.306-9.818c-0.771-1.758-0.992-4.748,0.075-6.494c1.044-1.705,3.735-1.507,1.644-4.451
	c-1.564-2.203-3.951-1.433-5.582-1.571"/>
<path fill="#B8BABC" d="M967.33,98.067c-0.354,0.726-2.671,3.745-1.133,4.405c1.192,0.513,2.793-2.973,3.463-3.562
	c0.121-0.387-0.031-0.727,0-1.089c-0.335-0.079-0.546-0.208-0.842-0.35"/>
<path fill="#545456" d="M894.967,156.731c-1.916,1.966-4.076,10.133-3.871,12.805c2.979,1.191,14.369,0.197,19.952-0.008
	c5.563-0.203,17.956-0.284,23.525-0.29c-1.921-0.933-14.028-0.528-16.676-0.893c-3.361-0.464-7.663-0.839-11.019-1.489
	c-6.119-1.188-8.863-4.44-12.209-9.231"/>
<path fill="#545456" d="M959.884,141.247c-2.905,1.998-6.819,0.073-10.079,0.64c-0.705,3.327,2.378,3.92,5.018,3.827
	c3.348-0.121,4.553-0.828,4.764-4.169"/>
<path fill="#545456" d="M964.948,101.343c-0.692,0.631-2.89,4.238-0.596,4.196c1.561-0.028,2.414-3.879,0.596-4.494"/>
<path fill="#239BD7" d="M861.094,197.637c3.443-11.009,2.34-27.158-4.938-36.847c-6.723-8.945-23.095-13.809-33.81-14.454
	c-12.408-0.748-23.704,1.775-35.61,4.188c-11.449,2.318-22.644,5.126-33.399,9.154c13.148-7.208,27.943-9.376,42.04-12.183
	c6.709-1.335,13.235-2.844,20.134-3.438c6.042-0.52,12.971-1.675,19.077-1.13c11.432,1.022,23.578,5.151,26.219,17.863
	c1.221,5.871,1.279,11.744,1.89,17.854c0.535,5.367,0.892,13.667-1.224,18.613"/>
<path fill="#545456" d="M965.934,162.691c-0.188,0.229,0.249,0.929-0.287,0.435c-2.938-5.616-8.721-8.961-14.991-10.228
	c-5.055-1.021-14.615-2.991-19.534-0.805c5.206-1.965,14.539-0.624,19.998-0.02c5.236,0.579,12.228,1.368,14.352,7.198
	c2.403,6.601-4.799,9.076-8.947,12.63c-6.73,5.769-11.995,13.136-19.079,18.602c-6.56,5.063-15.241,5.899-23.416,6.394
	c6.599-2.682,14.697-0.9,21.117-4.293c4.086-2.16,15.681-11.614,15.974-14.72"/>
<path fill="#239BD7" d="M661.66,96.222H306.154c0,0-9.875-9.875-44.438-11.85c-13.803-0.789-238.72,7.652-238.72,7.652
	s-12.11,9.136-12.11,53.574c0,0,10.506-44.723,17.853-46.56c7.347-1.837,226.843-11.939,226.843-11.939s41.328,6.428,47.757,15.612
	L661.66,96.222z"/>
<g>
	<g  a:adobe-knockout="true">
		<path fill="#F39E3E"  a:adobe-knockout="false" d="M700.185,194.135c0,1.53-58.145,15.938-86.488,6.003
			c9.786-3.983,8.181-9.532-4.364-12.003c-14.892-2.932-28.967-1.61-44.131-0.026c-24.552,2.564-61.161,21.054-84.719,5.958
			c11.142,5.635,21.013,0.831,31.739-3.691c9.128-3.851,20.416-18.848,30.421-12.79c-25.668-27.431-82.06,5.773-97.886-36.633
			c12.204,33.785,80.486,7.769,105.843,7.769c25.968,0,48.42,9.936,72.531,18.267c-6.938-4.502-15.261-7.385-22.07-12.968
			c-6.429-5.271-8.788-10.631-13.756-17.032c14.696,20.696,50.071,25.129,72.508,19.526c28.595-7.14,49.722-21.198,78.343-5.677
			c-7.842-7.979-19.577-15.81-23.937-26.033c8.243,18.068,36.552,16.605,52.326,15.843c9.409-0.455,44.581,0.935,49.701,6.055
			c4.036,4.037-46.426,3.028-58.535,10.093C748.322,162.271,700.185,185.052,700.185,194.135z"/>
		<path fill="#F4A53E"  a:adobe-knockout="false" d="M616.129,199.583c11.009-3.533,7.881-9.769-4.664-12.239
			c-14.892-2.932-30.791-1.607-45.955-0.023c-24.553,2.564-61.47,21.842-85.028,6.746c11.142,5.635,21.713,0.801,32.439-3.722
			c9.128-3.851,21.297-18.548,31.302-12.491c-26.067-28.531-83.641,5.505-99.467-36.901c12.204,33.785,80.623,8.441,105.979,8.441
			c25.968,0,49.22,10.148,73.331,18.479c-6.938-4.502-16.197-8.271-23.007-13.854c-6.429-5.271-8.788-10.631-13.756-17.032
			c14.696,20.696,49.96,26.394,72.396,20.791c28.596-7.14,50.437-21.577,79.058-6.055c-7.841-7.979-20.18-16.696-24.539-26.92
			c8.243,18.068,36.579,17.503,52.354,16.74c9.409-0.456,44.554,0.037,49.674,5.157c4.036,4.037-46.426,3.028-58.535,10.093
			c-9.389,5.477-57.302,27.36-57.302,36.443C700.409,194.768,644.473,209.517,616.129,199.583z"/>
		<path fill="#F5AD3F"  a:adobe-knockout="false" d="M618.563,199.029c12.231-3.082,7.58-10.006-4.964-12.476
			c-14.892-2.932-32.617-1.604-47.781-0.021c-24.552,2.564-61.777,22.63-85.335,7.534c11.142,5.635,22.414,0.771,33.139-3.753
			c9.128-3.85,22.179-18.248,32.184-12.19c-26.468-29.633-85.223,5.235-101.049-37.171c12.204,33.785,80.76,9.114,106.116,9.114
			c25.968,0,50.02,10.362,74.131,18.692c-6.938-4.502-17.134-9.156-23.943-14.739c-6.429-5.271-8.788-10.631-13.756-17.032
			c14.696,20.696,49.848,27.658,72.284,22.056c28.595-7.14,51.151-21.955,79.772-6.434c-7.842-7.979-20.783-17.582-25.143-27.806
			c8.243,18.068,36.606,18.399,52.382,17.637c9.409-0.455,44.525-0.859,49.646,4.261c4.036,4.037-46.426,3.028-58.535,10.093
			c-9.389,5.477-57.077,26.464-57.077,35.547C700.633,193.872,646.907,208.962,618.563,199.029z"/>
		<path fill="#F6B43F"  a:adobe-knockout="false" d="M620.997,198.474c13.453-2.632,7.28-10.241-5.265-12.712
			c-14.892-2.932-34.441-1.602-49.605-0.018c-24.552,2.564-62.086,23.418-85.644,8.322c11.142,5.635,23.113,0.739,33.84-3.784
			c9.127-3.85,23.059-17.947,33.063-11.891c-26.867-30.734-86.804,4.967-102.63-37.439c12.204,33.785,80.896,9.787,106.252,9.787
			c25.969,0,50.82,10.574,74.932,18.905c-6.938-4.502-18.07-10.042-24.88-15.625c-6.429-5.271-8.788-10.631-13.756-17.032
			c14.696,20.696,49.736,28.922,72.173,23.32c28.595-7.14,51.865-22.334,80.486-6.813c-7.842-7.979-21.386-18.468-25.745-28.691
			c8.243,18.068,36.634,19.297,52.409,18.534c9.408-0.455,44.498-1.757,49.618,3.363c4.036,4.037-46.426,3.028-58.535,10.093
			c-9.389,5.477-56.853,25.566-56.853,34.649C700.858,192.974,649.34,208.408,620.997,198.474z"/>
		<path fill="#F7BC40"  a:adobe-knockout="false" d="M623.429,197.918c14.676-2.181,6.981-10.478-5.564-12.947
			c-14.892-2.933-36.267-1.599-51.431-0.015c-24.552,2.564-62.394,24.206-85.951,9.11c11.142,5.635,23.814,0.709,34.54-3.814
			c9.128-3.85,23.939-17.648,33.944-11.591c-27.268-31.836-88.385,4.697-104.211-37.709c12.204,33.785,81.033,10.459,106.39,10.459
			c25.968,0,51.619,10.789,75.729,19.119c-6.938-4.502-19.006-10.928-25.815-16.511c-6.429-5.271-8.788-10.631-13.756-17.032
			c14.696,20.696,49.625,30.187,72.061,24.585c28.595-7.14,52.581-22.713,81.202-7.19c-7.842-7.979-21.989-19.354-26.349-29.578
			c8.243,18.068,36.662,20.193,52.437,19.432c9.409-0.456,44.471-2.654,49.591,2.466c4.036,4.037-46.426,3.028-58.535,10.093
			c-9.389,5.477-56.628,24.67-56.628,33.752C701.083,192.078,651.773,207.853,623.429,197.918z"/>
		<path fill="#F9C340"  a:adobe-knockout="false" d="M625.862,197.364c15.899-1.729,6.682-10.714-5.864-13.184
			c-14.892-2.933-38.091-1.596-53.255-0.012c-24.553,2.564-62.702,24.994-86.26,9.898c11.142,5.635,24.514,0.679,35.24-3.846
			c9.127-3.85,24.82-17.348,34.826-11.29c-27.668-32.938-89.967,4.428-105.793-37.979c12.204,33.785,81.17,11.132,106.525,11.132
			c25.969,0,52.42,11.002,76.531,19.333c-6.938-4.503-19.943-11.814-26.753-17.397c-6.429-5.271-8.788-10.631-13.756-17.032
			c14.696,20.696,49.513,31.451,71.948,25.85c28.596-7.14,53.296-23.092,81.917-7.568c-7.841-7.98-22.592-20.241-26.951-30.465
			c8.243,18.068,36.689,21.091,52.464,20.328c9.409-0.455,44.443-3.551,49.563,1.569c4.036,4.037-46.426,3.028-58.535,10.093
			c-9.389,5.477-56.404,23.772-56.404,32.855C701.306,191.18,654.206,207.297,625.862,197.364z"/>
		<path fill="#FACB40"  a:adobe-knockout="false" d="M628.295,196.809c17.121-1.279,6.381-10.95-6.164-13.42
			c-14.892-2.933-39.917-1.593-55.08-0.009c-24.553,2.564-63.011,25.782-86.568,10.687c11.142,5.635,25.215,0.648,35.94-3.876
			c9.128-3.85,25.702-17.049,35.707-10.991c-28.067-34.038-91.548,4.159-107.374-38.247c12.204,33.785,81.306,11.805,106.662,11.805
			c25.969,0,53.22,11.215,77.33,19.545c-6.938-4.502-20.879-12.699-27.688-18.282c-6.429-5.271-8.788-10.631-13.756-17.032
			c14.696,20.696,49.401,32.716,71.837,27.114c28.595-7.14,54.01-23.47,82.632-7.947c-7.842-7.979-23.195-21.127-27.555-31.351
			c8.243,18.068,36.717,21.988,52.491,21.226c9.409-0.456,44.416-4.448,49.536,0.672c4.036,4.037-46.426,3.028-58.535,10.093
			c-9.389,5.477-56.18,22.875-56.18,31.959C701.531,190.284,656.639,206.743,628.295,196.809z"/>
		<path fill="#FBD240"  a:adobe-knockout="false" d="M630.728,196.254c18.344-0.829,6.081-11.187-6.464-13.656
			c-14.891-2.933-41.741-1.59-56.904-0.006c-24.553,2.564-63.319,26.57-86.877,11.475c11.142,5.635,25.916,0.618,36.641-3.907
			c9.127-3.849,26.583-16.748,36.588-10.69c-28.467-35.14-93.129,3.89-108.955-38.517c12.204,33.785,81.442,12.478,106.799,12.478
			c25.97,0,54.02,11.429,78.131,19.759c-6.938-4.503-21.816-13.586-28.626-19.169c-6.429-5.271-8.788-10.631-13.756-17.032
			c14.696,20.696,49.29,33.98,71.726,28.379c28.595-7.14,54.725-23.849,83.346-8.326c-7.842-7.979-23.798-22.013-28.157-32.236
			c8.243,18.068,36.745,22.886,52.52,22.123c9.409-0.456,44.388-5.346,49.508-0.226c4.036,4.037-46.426,3.028-58.535,10.093
			c-9.389,5.477-55.955,21.979-55.955,31.062C701.755,189.386,659.073,206.187,630.728,196.254z"/>
		<path fill="#FCDA3F"  a:adobe-knockout="false" d="M633.161,195.7c19.567-0.378,5.782-11.423-6.764-13.893
			c-14.891-2.933-43.565-1.587-58.729-0.003c-24.553,2.564-63.627,27.358-87.185,12.263c11.142,5.635,26.616,0.587,37.342-3.938
			c9.127-3.849,27.464-16.449,37.468-10.392c-28.866-36.24-94.71,3.621-110.536-38.785c12.204,33.785,81.579,13.15,106.936,13.15
			c25.97,0,54.819,11.642,78.93,19.972c-6.938-4.503-22.752-14.472-29.562-20.055c-6.429-5.271-8.788-10.631-13.756-17.032
			c14.696,20.696,49.179,35.245,71.613,29.644c28.595-7.14,55.44-24.227,84.061-8.704c-7.841-7.979-24.4-22.899-28.76-33.123
			c8.243,18.068,36.772,23.782,52.547,23.02c9.409-0.456,44.36-6.242,49.48-1.122c4.036,4.037-46.426,3.028-58.535,10.093
			c-9.389,5.477-55.731,21.082-55.731,30.164C701.979,188.49,661.505,205.632,633.161,195.7z"/>
		<path fill="#FEE13F"  a:adobe-knockout="false" d="M702.204,186.062c0,1.53-38.265,19.016-66.609,9.083
			c20.789,0.072,5.481-11.659-7.064-14.129c-14.891-2.933-45.391-1.584-60.554,0c-24.553,2.564-63.936,28.146-87.494,13.051
			c11.142,5.635,27.316,0.557,38.042-3.969c9.127-3.849,28.345-16.148,38.35-10.091c-29.267-37.342-96.292,3.352-112.118-39.055
			c12.204,33.785,81.716,13.823,107.072,13.823c25.97,0,55.619,11.854,79.729,20.185c-6.938-4.503-23.688-15.357-30.498-20.94
			c-6.429-5.271-8.788-10.631-13.756-17.032c14.696,20.696,49.066,36.51,71.502,30.908c28.595-7.14,56.154-24.605,84.775-9.083
			c-7.842-7.979-25.004-23.785-29.363-34.009c8.243,18.068,36.8,24.68,52.574,23.917c9.409-0.456,44.333-7.14,49.453-2.02
			c4.036,4.037-46.426,3.028-58.535,10.093C748.322,162.271,702.204,176.979,702.204,186.062z"/>
	</g>
	<g  a:adobe-knockout="true">
		<path fill="#FEE13F"  a:adobe-knockout="false" d="M702.204,186.062c0,1.53-38.265,19.016-66.609,9.083
			c20.789,0.072,5.481-11.659-7.064-14.129c-14.891-2.933-45.391-1.584-60.554,0c-24.553,2.564-63.936,28.146-87.494,13.051
			c11.142,5.635,27.316,0.557,38.042-3.969c9.127-3.849,28.345-16.148,38.35-10.091c-29.267-37.342-96.292,3.352-112.118-39.055
			c12.204,33.785,81.716,13.823,107.072,13.823c25.97,0,55.619,11.854,79.729,20.185c-6.938-4.503-23.688-15.357-30.498-20.94
			c-6.429-5.271-8.788-10.631-13.756-17.032c14.696,20.696,49.066,36.51,71.502,30.908c28.595-7.14,56.154-24.605,84.775-9.083
			c-7.842-7.979-25.004-23.785-29.363-34.009c8.243,18.068,36.8,24.68,52.574,23.917c9.409-0.456,44.333-7.14,49.453-2.02
			c4.036,4.037-46.426,3.028-58.535,10.093C748.322,162.271,702.204,176.979,702.204,186.062z"/>
	</g>
	<g  a:adobe-knockout="true">
		<path fill="#FEE13F"  a:adobe-knockout="false" d="M698.167,193.126c-15.139,10.093-57.614,8.84-70.646,8.073
			c2.887-1.5,10.653-15.05,12.111-18.165c-5.731-6.247-8.745-18.637-17.158-18.166c17.158,4.036,60.48,20.075,66.608,4.036
			c-3.989-5.345-10.357-6.718-16.147-8.074c9.584-0.43,32.62-6.547,42.388-6.055c8.873,0.446,15.535,1.29,22.832-3.938
			c-0.938-1.374,0.472-5.917-0.629-7.163c5.135,1.015,28.69-0.434,32.294,4.036c-13.316,3.851-35.89,20.668-48.387,26.521
			c-7.097,3.325-25.918,7.278-26.295,16.876"/>
		<path fill="#FEE45B"  a:adobe-knockout="false" d="M698.167,193.126c-14.641,8.002-55.026,8.369-68.058,7.603
			c2.887-1.5,10.179-13.772,11.637-16.888c-5.73-6.247-9.177-18.434-17.59-17.963c17.271,3.923,60.688,19.088,66.816,3.048
			c-3.989-5.344-10.31-6.406-16.1-7.762c9.584-0.43,31.02-6.096,40.787-5.604c8.873,0.446,16.009,1.146,23.305-4.083
			c-0.938-1.374,0.234-5.755-0.867-7.001c5.136,1.015,26.986-0.473,30.591,3.997c-13.317,3.851-34.758,19.905-47.255,25.758
			c-7.097,3.325-25.918,7.278-26.295,16.876"/>
		<path fill="#FEE673"  a:adobe-knockout="false" d="M698.167,193.126c-14.144,5.912-52.438,7.898-65.469,7.131
			c2.886-1.499,9.704-12.494,11.162-15.609c-5.731-6.246-9.608-18.231-18.021-17.761c17.382,3.812,60.895,18.101,67.023,2.062
			c-3.99-5.345-10.262-6.095-16.052-7.451c9.584-0.43,29.419-5.645,39.187-5.152c8.873,0.446,16.481,1,23.778-4.229
			c-0.938-1.374-0.004-5.593-1.105-6.838c5.135,1.014,25.281-0.512,28.886,3.958c-13.316,3.851-33.625,19.142-46.122,24.994
			c-7.097,3.325-25.918,7.278-26.295,16.876"/>
		<path fill="#FEE988"  a:adobe-knockout="false" d="M698.167,193.126c-13.646,3.821-49.85,7.427-62.881,6.66
			c2.887-1.499,9.23-11.216,10.688-14.332c-5.731-6.246-10.04-18.028-18.453-17.558c17.494,3.699,61.104,17.112,67.23,1.073
			c-3.988-5.344-10.213-5.783-16.002-7.139c9.583-0.43,27.817-5.193,37.585-4.702c8.873,0.446,16.954,0.855,24.251-4.374
			c-0.938-1.373-0.242-5.43-1.343-6.676c5.134,1.016,23.577-0.55,27.181,3.92c-13.316,3.851-32.492,18.379-44.989,24.231
			c-7.097,3.325-25.918,7.278-26.295,16.876"/>
		<path fill="#FFEC9B"  a:adobe-knockout="false" d="M698.167,193.126c-13.148,1.73-47.262,6.956-60.293,6.189
			c2.887-1.499,8.756-9.938,10.213-13.054c-5.73-6.247-10.471-17.827-18.884-17.356c17.606,3.588,61.31,16.126,67.438,0.087
			c-3.989-5.345-10.165-5.472-15.954-6.828c9.583-0.43,26.217-4.742,35.984-4.251c8.873,0.446,17.428,0.711,24.724-4.518
			c-0.938-1.374-0.479-5.268-1.581-6.514c5.135,1.015,21.873-0.589,25.478,3.88c-13.317,3.851-31.36,17.616-43.857,23.469
			c-7.097,3.325-25.918,7.278-26.295,16.876"/>
		<path fill="#FFEFAE"  a:adobe-knockout="false" d="M698.167,193.126c-12.65-0.36-44.673,6.485-57.705,5.719
			c2.887-1.5,8.281-8.661,9.738-11.776c-5.73-6.246-10.902-17.624-19.315-17.153c17.718,3.475,61.518,15.138,67.646-0.901
			c-3.989-5.344-10.116-5.16-15.906-6.516c9.583-0.431,24.615-4.292,34.384-3.8c8.873,0.445,17.901,0.564,25.197-4.664
			c-0.938-1.373-0.718-5.105-1.819-6.352c5.135,1.016,20.168-0.627,23.773,3.843c-13.318,3.851-30.229,16.853-42.726,22.705
			c-7.097,3.325-25.918,7.278-26.295,16.876"/>
		<path fill="#FFF2C2"  a:adobe-knockout="false" d="M698.167,193.126c-12.152-2.451-42.085,6.015-55.117,5.248
			c2.887-1.5,7.808-7.384,9.265-10.499c-5.731-6.246-11.334-17.421-19.747-16.951c17.83,3.363,61.725,14.151,67.853-1.888
			c-3.989-5.344-10.069-4.849-15.858-6.205c9.583-0.43,23.016-3.84,32.783-3.349c8.873,0.446,18.374,0.421,25.67-4.809
			c-0.938-1.373-0.956-4.942-2.058-6.188c5.135,1.015,18.464-0.666,22.069,3.803c-13.317,3.851-29.096,16.09-41.593,21.942
			c-7.097,3.325-25.918,7.278-26.295,16.876"/>
		<path fill="#FFF6D5"  a:adobe-knockout="false" d="M698.167,193.126c-11.654-4.541-39.497,5.543-52.529,4.777
			c2.887-1.5,7.333-6.105,8.791-9.222c-5.731-6.246-11.767-17.219-20.18-16.748c17.941,3.251,61.932,13.163,68.06-2.876
			c-3.989-5.344-10.02-4.537-15.809-5.893c9.582-0.431,21.413-3.39,31.181-2.898c8.874,0.447,18.848,0.275,26.144-4.953
			c-0.938-1.373-1.193-4.78-2.295-6.026c5.135,1.015,16.759-0.705,20.364,3.764c-13.317,3.851-27.963,15.327-40.46,21.18
			c-7.097,3.325-25.918,7.278-26.295,16.876"/>
		<path fill="#FFFAE8"  a:adobe-knockout="false" d="M698.167,193.126c-11.157-6.632-36.909,5.072-49.94,4.306
			c2.887-1.499,6.857-4.827,8.315-7.942c-5.73-6.246-12.197-17.018-20.61-16.546c18.054,3.138,62.139,12.176,68.267-3.863
			c-3.989-5.344-9.972-4.227-15.761-5.581c9.582-0.431,19.813-2.938,29.58-2.447c8.874,0.445,19.321,0.13,26.616-5.099
			c-0.937-1.373-1.432-4.618-2.533-5.864c5.136,1.015,15.056-0.743,18.661,3.726c-13.317,3.85-26.831,14.563-39.328,20.416
			c-7.097,3.325-25.918,7.278-26.295,16.876"/>
		<path fill="#FFFFFF"  a:adobe-knockout="false" d="M698.167,193.126c-10.659-8.723-34.32,4.602-47.353,3.835
			c2.887-1.499,6.384-3.55,7.841-6.665c-5.73-6.246-12.629-16.814-21.042-16.344c18.166,3.026,62.347,11.188,68.475-4.851
			c-3.989-5.344-9.924-3.914-15.713-5.27c9.582-0.431,18.212-2.487,27.979-1.996c8.874,0.446,19.794-0.015,27.09-5.243
			c-0.938-1.373-1.67-4.456-2.771-5.702c5.135,1.015,13.351-0.782,16.956,3.687c-13.317,3.851-25.698,13.801-38.195,19.653
			c-7.097,3.325-25.918,7.278-26.295,16.876"/>
	</g>
</g>
<polyline fill="#F6ECF5" points="686.056,87.159 670.918,88.167 599.262,20.55 605.318,21.559 "/>
<path fill="#D9DADD" d="M945.425,154.777c-4.031-3.906-14.338,1.377-19.959,2.242c-8.506,1.311-13.439-1.49-21.266-3.095
	c-4.509,16.639,37.235,8.46,46.067,10.792c3.459-5.983-6.034-8.319-9.889-10.949"/>
<path fill="#D9DADD" d="M955.518,138.628c-0.893-1.871-0.842-3.213-3.027-4.134c-3.575,3.772-1.109,5.836,3.903,4.995
	c0.601-3.07-1.158-1.985-2.895-2.879"/>
<path fill="#D9DADD" d="M954.508,122.482c-2.223,0.005-3.727-2.019-3.907,1.842c3.353,0.772,5.668,0.26,7.789-1.59
	c-0.933-1.406-1.759-0.662-2.872-1.261"/>
<path fill="#D9DADD" d="M4.83,142.667c-6.925-1.148-5.295,9.332-1.97,13.771c-0.746-5.657,3.042-9.095,7.141-11.781
	c-1.815-1.865-4.278-2.358-7.189-1.99"/>
<path d="M4.83,172.943c-0.336,0.672-0.672,1.345-1.009,2.018"/>
<path fill="#545456" d="M15.932,188.081c-12.866,6.526-9.975-29.476-13.12-36.331c5.707,10.37,3.008,22.763,11.101,31.285"/>
<path fill="#545456" d="M951.481,172.943c-9.958,4.669-16.851,19.993-29.92,18.218c6.76-5.411,17.507-8.551,20.46-17.505
	c-6.804-1.66-14.627,0.279-21.521-1.745c6.302,0.048,26.232-1.896,26.943,3.05"/>
<path fill="#B8BABC" d="M916.159,205.238c-11.268-4.231-26.075,1.238-37.214-3.203c2.767-6.351,4.585-14.694,8.702-20.039
	c5.551-7.203,11.611-4.08,21.317-3.831c-1.382,3.222-4.054,6.98-5.092,10.753c-6.506,1.103-11.963,3.703-18.823,3.353
	c-0.888,1.753-1.276,3.876-1.031,5.751c8.997,0.486,18.254,3.092,26.942,2.322c1.03,3.386,0.177,5.853-1.866,7.922"/>
<path fill="none" stroke="#B8BABC" stroke-width="0.9184" d="M658.806,95.232c0,0,23.213,28.26,23.213,51.471
	c0,23.212-14.129,50.46-14.129,50.46l-175.605,2.02c0,0-31.285-31.286-26.24-72.663c5.046-41.379,4.038-32.296,4.038-32.296"/>
<path fill="none" stroke="#B8BABC" stroke-width="0.9184" d="M305.579,94.223c0,0-23.212,30.277,9.083,67.618
	c32.295,37.341,14.129,39.359,14.129,39.359l157.438-3.028"/>
<path fill="#0061AF" d="M480.174,112.389l31.286,2.02c0,0-8.074,5.045-15.139,6.055
	C489.256,121.473,480.174,112.389,480.174,112.389z"/>
<path fill="#0061AF" d="M312.714,110.291L344,112.308c0,0-8.074,5.047-15.138,6.057
	C321.797,119.373,312.714,110.291,312.714,110.291z"/>
<path fill="#C5952C" d="M600.723,59.769c0.176-0.147,0.373-0.205,0.591-0.173c-0.033,0.445,0.224,0.767,0,1.272
	c0.029,0.007,0.467-0.125,0.504-0.135c0.026,0.268-0.038,0.634,0.06,0.888c0.13,0.036,0.415-0.042,0.511,0.054
	c0.069,0.143-0.06,0.357,0.052,0.464c0.108-0.074,0.229-0.105,0.361-0.093c0.256,0.511,0.479,0.525,0.59,1.089
	c0.087,0.096,0.179-0.202,0.302-0.153c0.04,0.181,0.011,0.347,0.068,0.523c0.327-0.002,1.075-0.182,1.403-0.344
	c-0.015-0.123-0.076-0.379-0.09-0.544c1.454-0.209,2.627-1.582,4.056-1.366c0.346-0.139,0.243-0.238,0.619-0.244
	c0.197-0.067,0.452-0.248,0.687-0.334c-0.384-0.466-0.446-0.756-0.724-1.247c-0.312-0.493-0.465-0.343-0.569-1.142
	c-0.754-0.135-1.047-0.896-1.498-1.682c-2.262-0.283-4.912,1-6.17,2.416"/>
<path fill="#F9C340" d="M600.723,52.25c-0.587,0.704-1.147,1.452-1.627,2.237c0.215-0.05,0.468-0.102,0.659-0.146
	c0.025,0.635-0.092,1.274-0.325,1.827c0.225,0.01,0.479,0.06,0.701,0.057c-0.032,0.593,0.014,1.103-0.328,1.634
	c0.219-0.004,0.482,0.065,0.702,0.057c-0.026,0.375,0.126,0.843,0.021,1.222c0.123-0.018,0.18-0.264,0.347-0.292
	c-0.115,0.483,0.04,0.637,0.081,1.085c0.55-0.178,0.975-0.226,1.58-0.337c-0.032,0.047-0.141-0.265-0.097-0.358
	c0.408,0.011,0.819-0.164,1.223-0.206c-0.004-0.124-0.088-0.371-0.089-0.551c0.383,0.052,0.876-0.11,1.254-0.06
	c0.075-0.063,0.166-0.389,0.258-0.502c0.17,0.104,0.494,0.229,0.674,0.324c0.37-0.373,0.592-0.27,0.979-0.432
	c0.559-0.327,1.201-0.493,1.862-0.523c-0.475-0.526-0.665-1.239-0.234-1.852c-0.752-0.275-0.778-1.085-0.527-1.841
	c-0.904,0.013-1.134-0.639-0.943-1.5c-0.29-0.542-0.5-0.349-0.361-1.122c-0.112-0.143-0.377,0.047-0.515-0.065
	c-0.013-0.193-0.125-0.704-0.215-0.846c-0.539,0.689-0.813,0.801-1.311,0.375c-0.723,0.58-1.606,1.09-2.613,1.091
	c-0.037,0.782-2.388,2.115-2.471,2.04"/>
<path d="M605.986,59.769c-0.283,0.16-0.575,0.395-0.78,0.563c0.56,0.32,1.131,0.083,1.513-0.525
	c-0.298-0.047-0.614-0.06-0.921-0.038"/>
<path d="M602.415,57.137c-0.409,0.287-0.783,0.238-0.584,0.915c0.438-0.129,0.468-0.169,0.794-0.534
	c-0.079-0.473-0.301-0.242-0.586-0.381"/>
<path d="M603.542,54.317c-0.188,0.067-0.372,0.144-0.55,0.23c0.186,0.999,0.963,1.09,1.084-0.014
	c-0.342-0.034-0.75-0.08-1.098-0.028"/>
<path d="M605.046,52.25c-0.991,1.593,1.692,0.561,0.188-0.188"/>
<path fill="#896729" d="M599.327,47.261c0.213,0.416,0.123,0.724,0.704,0.75c0.177,0.333,0.257,0.522,0.585,0.788
	c0.039,0.37,0.026,0.434,0.226,0.906c-0.57,0.807,0.029,1.7,0.44,2.527c-0.502,0.558-0.515,0.906-0.103,1.615
	c-0.432,0.699-0.632,2.287-0.331,2.931c0.089,0.506,0.13,1.268,0.098,1.723c0.014-0.01-0.64,0.029-0.682,0.031
	c-0.057,0.08-0.035,0.159,0.063,0.241c0.07,0.097,0.077,0.098,0.023,0.003c-4.558-2.792-2.155-6.836-2.426-10.441"/>
<path fill="#C5952C" d="M589.852,53.907c0.256-0.061,0.503-0.027,0.743,0.098c-0.197,0.402-0.017,0.815-0.453,1.19
	c0.029,0.018,0.581,0.088,0.627,0.094c-0.064,0.262-0.27,0.576-0.247,0.856c0.137,0.09,0.492,0.142,0.566,0.274
	c0.032,0.165-0.195,0.307-0.104,0.457c0.15-0.021,0.299,0.002,0.446,0.071c0.113,0.589,0.366,0.702,0.292,1.276
	c0.066,0.127,0.276-0.111,0.402-0.01c-0.02,0.187-0.113,0.328-0.107,0.519c0.377,0.141,1.301,0.301,1.734,0.293
	c0.03-0.12,0.05-0.388,0.093-0.548c1.746,0.443,3.585-0.324,5.151,0.504c0.448,0.022,0.366-0.116,0.801,0.043
	c0.25,0.024,0.607-0.032,0.908-0.011c-0.275-0.604-0.242-0.901-0.387-1.481c-0.183-0.597-0.413-0.525-0.249-1.317
	c-0.819-0.457-0.884-1.296-1.125-2.229c-2.498-1.258-6.006-1.223-7.959-0.453"/>
<path fill="#F9C340" d="M592.533,46.882c-0.924,0.4-1.836,0.853-2.667,1.376c0.265,0.048,0.574,0.11,0.809,0.153
	c-0.196,0.605-0.56,1.151-1.024,1.565c0.254,0.107,0.529,0.267,0.784,0.361c-0.247,0.54-0.376,1.036-0.959,1.383
	c0.254,0.092,0.534,0.273,0.788,0.362c-0.164,0.337-0.154,0.842-0.413,1.15c0.149,0.037,0.303-0.168,0.504-0.12
	c-0.306,0.402-0.181,0.612-0.294,1.049c0.696,0.076,1.204,0.217,1.938,0.378c-0.052,0.03-0.065-0.31,0.019-0.377
	c0.465,0.188,0.999,0.207,1.479,0.345c0.038-0.117,0.03-0.385,0.094-0.553c0.421,0.217,1.046,0.281,1.464,0.494
	c0.108-0.025,0.329-0.291,0.477-0.355c0.157,0.171,0.486,0.431,0.657,0.598c0.561-0.185,0.776,0.008,1.285,0.028
	c0.756-0.061,1.555,0.066,2.325,0.328c-0.357-0.7-0.323-1.45,0.391-1.833c-0.767-0.587-0.509-1.356,0.051-1.952
	c-1.045-0.386-1.077-1.095-0.552-1.816c-0.141-0.634-0.448-0.544-0.014-1.207c-0.079-0.183-0.452-0.123-0.568-0.288
	c0.053-0.187,0.106-0.712,0.054-0.884c-0.866,0.407-1.221,0.391-1.641-0.226c-1.039,0.225-2.239,0.313-3.397-0.127
	c-0.319,0.714-3.499,0.928-3.57,0.82"/>
<path d="M597.611,53.43c-0.074,0.039-0.143-0.003-0.086,0.18c0.529,0.162,0.528-0.635-0.102-0.456
	c-0.073,0.12-0.05,0.229,0.001,0.322"/>
<path d="M597.424,50.86c-0.731,0.091,0.437,0.853,0.227,0.007c-0.111,0.009-0.327-0.014-0.367-0.007"/>
<path d="M597.144,49.039c-0.032-0.014-0.028-0.079-0.084-0.088c-0.057,0.368,0.463,0.325,0.496,0.041
	c0.046-0.378-0.486-0.188-0.598,0"/>
<path d="M592.518,49.178c-0.22,0.093,0.256,0.47,0.414,0.131c0.144-0.304-0.457-0.49-0.507-0.084"/>
<path d="M592.379,50.72c-0.204,0.188-0.099,0.6,0.232,0.424c0.324-0.171,0.171-0.554-0.18-0.464c-0.013,0.047,0,0.087-0.007,0.134"
	/>
<path d="M592.472,52.636c-0.229-0.018-0.212,0.632,0.14,0.375c0.301-0.22,0.078-0.583-0.187-0.515"/>
<path d="M592.24,55.392c-0.13,0.008-0.224,0.029-0.288,0.14c0.209,0.21,0.737,0.094,0.701-0.273c-0.164-0.026-0.411,0.008-0.46,0.04
	"/>
<path d="M597.331,57.448c-0.187-0.054-0.354,0.069-0.473,0.236c0.201,0.23,0.731,0.197,0.898-0.05
	c-0.145-0.347-0.481-0.129-0.659-0.327"/>
<path fill="#E6B8A5" stroke="#BB9787" stroke-width="0.4592" d="M497.433,86.257c5.088,3.412,8.155,5.235,14.227,6.1
	c4.478,0.637,9.313,0.629,13.729,1.587c6.854,1.487,12.11,3.146,19.308,2.813c5.575-0.258,10.387,0.002,15.953,0.548
	c2.88,0.283,5.789-0.266,8.586-0.264c2.84,0.001,3.104,1.186,5.719,1.914c4.872,1.358,12.56-4.047,15.245,1.281
	c0.94,1.863,0.709,7.557,3.884,2.239c2.021-3.383,0.145-5.18-2.276-7.258c1.36,0.038,4.566-0.205,5.699,0.625
	c1.45,1.063,0.868,3.951,2.861,4.717c4.628,1.778,2.111-5.986,1.525-7.894c-2.146-1.048-4.468-1.446-6.839-1.96
	c7.799-3.647,6.437,8.63,10.974,8.854c0.361-2.932,0.763-7.324-1.152-9.876c-1.736-2.315-5.531-2.105-8.55-2.805
	c1.834-0.336,6.674-2.022,8.24-1.349c2.278,0.978,2.257,4.707,4.949,5.136c0.313-3.05-1.363-5.681-3.2-7.917
	c-2.5-3.044-3.407-2.285-6.908-1.245c-5.03,1.493-9.937,2.788-14.931,3.787c-10.865,2.171-21.447,1-32.085-1.82
	c-10.181-2.699-20.221-4.235-29.861-8.329c-8.507-3.612-25.508-7.771-25.73,6.354c-0.033,2.143-0.087,3.876,1.668,5.353
	c0.395-0.295,0.746-0.12,1.191-0.271"/>
<path opacity="0.32" fill="#E6B8A5"  a:adobe-blending-mode="multiply" d="M608.626,89.272c-1.571-2.029-2.528-6.316-5.829-5.996
	c-1.771,0.171-7.538,1.804-8.171,3.701c-0.767,2.292,1.386,2.013,2.965,2.087c1.654,0.077,3.314,0.3,4.638,1.4
	c1.926,1.604,4.433,5.859,2.921,8.162c-1.716-2.554-2.163-6.791-4.909-8.468c-2.429-1.484-5.958-0.087-8.107,1.359
	c-0.775,0.521-1.421-0.177-1.161,1.3c0.139,0.797,1.227,1.278,1.826,1.458c1.683,0.505,3.518-0.338,5.209,0.412
	c1.32,0.585,2.135,1.612,2.714,2.92c0.756,1.71,0.39,3.736-1.422,1.405c-1.8-2.313-0.912-3.637-4.412-4.337
	c-1.179-0.235-2.193-0.171-3.334-0.196c-1.138-0.026-2.431-0.701-3.549-0.614c-3.647,0.282,0.952,3.043,2.099,4.147
	c1.588,1.53,3.58,4.063,1.607,5.97c-1.641-2.61-2.643-6.855-6.194-7.214c-3.739-0.377-7.3,2.796-10.826,1.614
	c-1.46-0.489-2.448-2.189-3.943-2.666c-1.387-0.441-3.54-0.597-5.008-0.833c-3.597-0.577-7.602-0.197-11.289-0.197
	c-3.524,0-7.182,0.026-10.629,0.579c-3.295,0.527-5.609-0.492-8.734-1.146c-2.622-0.55-5.206-1.624-7.864-1.942
	c-3.037-0.363-6.949-0.155-4.943-4.563c3.325,1.773,8.248,3.035,12.079,3.336c4.699,0.37,9.35-0.52,13.897,0.776
	c4.308,1.227,8.729,0.045,13.111,0.717c3.212,0.491,6.679,0.466,9.755,0.962c0.11-0.836,0.431-1.641,0.706-2.449
	c0.279,0.613,0.618,1.513,0.989,2.21c0.472-0.941,0.852-1.931,1.468-2.778c0.119,1.53-1.087,4.573,0.604,5.35
	c1.023,0.471,3.902-0.943,5.007-1.214c3.186-0.782,6.297-2.221,8.738-4.458c2.34-2.144,4.128-4.572,7.033-5.841
	c2.279-0.995,6.805-2.656,9.062-1.045c1.522,1.087,2.916,4.507,3.69,5.678"/>
<path opacity="0.32" fill="#E6B8A5"  a:adobe-blending-mode="multiply" d="M508.199,49.145c-2.518-2.378-2.871-6.022-3.802-8.589
	c0.006,2.379,0.454,4.329,0.843,6.485c-0.369-0.946-0.769-1.973-1.332-2.802c-0.023,0.266-0.026,0.583-0.034,0.842
	c-1.687-1.665-2.097-3.997-2.863-6.118c-0.808,0.626-1.501,7.186-1.14,8.28c0.852,2.592,5.68,3.124,7.615,2.852"/>
<path fill="#A3C3C9" stroke="#6D969B" stroke-width="0.4592" d="M522.211,95.152c0.207,0.153-0.008,0.778,0.334,0.363
	c-0.12-7.111,1.608-12.733,3.757-19.033c-3.242-1.019-6.108-3.209-9.182-4.766c-2.802-1.42-7.367-2.335-9.728-4.224
	c2.7,0.554,6.257,2.306,8.717,3.47c-1.443-1.835-4.223-4.472-5.873-6.282c2.307,1.29,3.687,5.001,5.873,6.282
	c-0.618-1.989-1.726-5.056-2.762-6.828c2.588,2.656,0.795,4.021,3.251,6.95c-0.745-1.012,1.099,0.322,0,0
	c2.167,1.125,5.477,3.028,7.826,4.064c2.193,0.966,4.679,2.508,6.939,2.992c-1.788-4.602-2.869-10.637-5.659-14.747
	c-2.857-4.207-6.712-5.78-11.117-7.711c-9.896-4.337-24.292-3.657-28.034,8.339c-2.952,9.459,2.496,17.491,9.92,23.507
	c4.109,3.331,9.567,6.435,14.3,8.507c2.236,0.978,4.347,1.729,6.673,2.293c3.298,0.798,4.366,0.412,5.099-2.814"/>
<path fill="#A3C3C9" stroke="#6D969B" stroke-width="0.4592" d="M498.166,44.662c-0.531,0.209-0.691,5.563-1.052,6.207
	c-0.625,1.111-0.427,1.383-0.572,2.667c0.848,0.086,4.002,1.126,4.855,1.178c1.695,0.104,3.307,0.731,4.923,1.199
	c2.89,0.838,5.885,1.504,8.665,2.689c2.436,1.038,5.625,3.064,7.249,5.22c-0.04-2.691,0.418-5.457,0.239-8.116
	c-0.073,1.447,1.014,3.732,1.369,5.226c0.313,1.317,1.041,2.489,2.038,3.389c-0.138-1.737-0.992-3.602-1.422-5.324
	c-0.339-1.352-0.472-3.195-1.011-4.439c-0.939-2.17-5.187-2.829-7.216-3.261c-4.61-0.98-14.638-2.777-18.546-5.383
	c-0.261,0.467,4.173,2.176,4.108,2.657"/>
<path fill="none" stroke="#6D969B" stroke-width="0.9184" d="M648.688,93.444c0.986,0.084,1.951,0.181,2.934,0.293"/>
<path fill="#E6B8A5" stroke="#BB9787" stroke-width="0.4592" d="M516.913,36.93c2.313,2.223,5.527,1.162,8.142,0.631
	c0.141-2.354-0.081-5.571-0.634-7.799"/>
<path fill="none" stroke="#BB9787" stroke-width="0.2296" d="M519.839,33.384c2.083-0.683,3.265,0.141,4.958,1.027
	c-0.021-0.94,0.146-1.611-0.673-2.246c-1.079-0.837-2.481-0.646-3.611-0.03c1.394-1.207,3.013,0.055,4.177,0.749
	c0.297-0.839-0.209-1.859-1.031-2.178c-0.716-0.279-2.837-0.116-3.331,0.242"/>
<path opacity="0.32" fill="#E6B8A5"  a:adobe-blending-mode="multiply" d="M527.212,53.635c-0.858,0.194-2.527-0.26-3.222,0.31
	c0.734,1.255,0.249,3.553,1.197,4.536c0.818-1.362,1.704-3.521,1.738-5.13"/>
<path fill="#A3C3C9"  a:adobe-blending-mode="multiply" d="M521.185,85.732c-2.98,0.343-8.431-4.519-10.884-6.042
	c-3.378-2.099-5.584-4.222-8.271-7.08c-2.459-2.615-7.688-8.999-3.706-12.662c1.342,0.763,2.962,1.219,4.476,1.643
	c-0.965-0.369-2.429-1.24-2.613-2.272c1.565,0.276,3.357,0.386,4.909,0.822c-0.911-0.18-1.748-0.739-2.007-1.649
	c1.137-0.063,2.394,0.087,3.453-0.189c-0.482-0.187-0.993-0.661-1.372-0.842c1.273-0.092,2.591-0.053,3.877-0.032
	c-1.939-0.977-3.297-2.979-5.334-3.664c1.346,0.169,2.75,0.466,4.073,0.761c-0.624-0.5-1.344-1.005-1.563-1.655
	c0.933,0.042,1.975-0.061,2.823-0.386c-0.638-0.297-1.021-0.871-1.38-1.321c0.251-0.067,0.496-0.184,0.796-0.239
	c-1.034-1.034-2.507-1.366-3.889-1.879c-2.402-0.894-2.688-0.959-3.949,1.509c-0.945,1.847-1.434,3.026-3.176,3.95
	c-1.438,0.764-3.11,2.229-4.579,3.123c-3.905,2.379-4.989,4.313-5.621,8.952c-0.62,4.543,0.025,8.765,2.914,12.492
	c5,6.45,11.261,11.227,18.738,14.782c3.438,1.634,5.537,2.123,9.161,2.915c1.693,0.371,1.8,1.736,2.914-0.208
	c0.94-1.64,0.924-3.431,0.832-5.206c-0.094-1.837,1.4-4.707-0.832-5.412"/>
<path fill="#9BA398" stroke="#7D847C" stroke-width="0.9184" d="M327.78,93.257C327.335,92.917,328.195,93.666,327.78,93.257
	c-4.761-4.679-7.254-12.703-9.976-18.417c-2.88-6.045-5.024-14.5,1.546-18.968c13.622-9.262,28.863,15.52,35.692,24.276
	c3.248,4.165,7.326,9.412,9.113,13.109"/>
<path fill="#E6B8A5" stroke="#BB9787" stroke-width="0.4592" d="M352.731,86.93c-1.789,1.236,3.7,3.72,5.439,4.716
	c2.067,1.184,4.45,2.871,6.64,3.519c5.943,1.759,12.257-0.556,17.905-1.464c2.16-0.347,6.275,0.13,7.737-1.427
	c2.119-2.258,0.408-6.123-1.102-8.11c-2.934-3.868-9.652-5.858-13.744-2.175c1.84,0.854,3.566,2.282,4.615,3.915
	c-2.745-2.033-4.583-5.318-7.637-7.196c-3.106-1.909-6.763-3.463-10.182-4.727c-3.903-1.443-8.233-3.188-12.077-0.954
	c-3.477,2.022-6.022,7.884-2.431,11.002"/>
<path fill="#9BA398" stroke="#7D847C" stroke-width="0.9184" d="M327.1,74.84c-0.966,6.031,13.106,15.722,18.27,17.53
	c7.711,2.701,16.746-12.739,20.37-18.885c-8.901-3.696-16.373-9.061-24.722-13.517c-6.01-3.208-14.361-8.387-21.089-4.874
	c-1.035,1.539-2.239,3.324-1.534,4.753"/>
<path fill="#E6B8A5" stroke="#BB9787" stroke-width="0.4592" d="M325.104,35.475c-0.186,1.896-1.74,0.754-2.342-0.1
	c-0.812-1.153-1.762-3.002-1.391-4.525c0.333-1.362,1.64-2.225,2.84-1.449c1.188,0.769,0.874,2.093,1.407,3.119"/>
<path opacity="0.32" fill="#E6B8A5"  a:adobe-blending-mode="multiply" d="M343.606,42.731c6.287,2.307,3.516-6.727,2.973-9.254
	c1.487-0.952,4.702-4.184,6.565-3.799c0.072,1.034-0.732,1.958-0.966,2.927c-0.255,1.056-0.229,2.013-0.014,3.045
	c-1.506-0.306-2.634,2.158-2.48,3.394c0.231,1.872,1.81,1.427,3.181,1.178c0.445,3.505-0.148,14.278-5.311,14.771
	c1.984,0.266,1.705-2.946,0.271-3.685c-1.972-1.017-2.871,0.516-4.896,0.26c-0.753-1.929,5.254-1.694,6.276-1.69
	c0.66-1.295-0.604-2.744-1.624-3.386c-1.473-0.925-2.625-1.151-4.229-0.688c-0.293-1.064-0.424-2.579-0.853-3.401
	c0.389,0.355,0.789,0.597,1.247,0.751"/>
<path fill="#C0BCC0"  a:adobe-blending-mode="multiply" d="M325.662,32.555c-0.167-0.032-0.259-0.122-0.274-0.27
	c0.73,0.926,0.525,2.528,1.263,3.355c0.289,0.325,2.79,1.707,3.523,1.779c-0.702-1.67-1.302-3.674-0.312-5.388
	c-1.976-1.272-1.423-5.48-1.248-7.49c0.205-2.343,1.303-5.165,3.642-6.08c-0.735-1.664,3.398-3.501,4.654-3.619
	c2.157-0.203,4.233,0.512,6.445,0.4c0.241-1.837-3.222-3.075-4.618-3.321c-2.069-0.366-4.534,0.343-6.319,1.128
	c-4.501,1.978-5.984,6.091-7.068,10.368c-0.494,1.95-0.411,4.165-0.935,6.021c1.441,0.326,1.568,2.151,1.529,3.398"/>
<path d="M353.586,30.359c-1.393-2.597-5.747,2.654-7.257,3.111c2.355-2.013,6.87-8.578,7.97-2.176
	c-0.299-0.291-0.626-0.619-0.854-0.935"/>
<path d="M342.198,33.593c-0.696-0.842-3.256-2.146-4.355-2.565c-1.377-0.526-4.117-0.147-4.895,1.258
	c-0.413-2.552,2.163-3.986,4.291-3.012c1.903,0.872,2.943,3.194,4.819,4.038"/>
<path fill="none" stroke="#000000" stroke-width="0.4592" d="M337.559,46.948c0.209-0.271,0.613-0.614,0.854-0.934
	c-0.078,0.292-0.063,0.587-0.164,0.885c0.266-0.399,0.617-0.797,0.97-1.059c0.013,0.075,0.03,0.148,0.051,0.22
	c0.165-0.257,0.496-0.491,0.655-0.756c-0.008,0.239,0.067,0.543,0.052,0.786c0.149-0.26,0.562-0.614,0.713-0.92
	c0.026,0.126,0.096,0.32,0.13,0.467c0.164-0.298,0.541-0.466,0.687-0.647c0.063,0.108,0.087,0.27,0.157,0.362
	c0.146-0.249,0.454-0.427,0.566-0.783c0.059,0.098,0.195,0.198,0.273,0.393c0.161-0.162,0.745-0.493,0.937-0.667
	c0.058,0.159,0.125,0.324,0.165,0.424c0.106-0.213,0.439-0.399,0.562-0.568c0.076,0.163,0.202,0.327,0.281,0.506
	c0.271-0.511,0.667-0.41,1.104-0.007c0.032-0.121-0.005-0.231,0.042-0.352c0.274,0.096,0.8,0.093,1.054,0.239
	c-0.057-0.138-0.154-0.257-0.218-0.372c0.567,0.038,0.946,0.453,1.48,0.688c0.004-0.025-0.085-0.191-0.074-0.281
	c0.472,0.18,0.874,0.551,1.238,0.92c0.01-0.079-0.106-0.115-0.115-0.213c0.335,0.263,0.718,0.642,1.059,0.986
	c-0.018-0.128-0.057-0.276-0.063-0.431c0.229,0.259,0.662,0.489,0.937,0.791c-0.024-0.195-0.056-0.318-0.105-0.502
	c0.183,0.225,0.499,0.449,0.698,0.781c0.056-0.05,0.015-0.154,0.122-0.227c0.441,0.332,0.808,0.743,0.995,1.255"/>
<path fill="none" stroke="#000000" stroke-width="0.2296" d="M346.698,56.228c-0.077-0.595-0.595-1.337-0.843-1.546"/>
<path fill="none" stroke="#000000" stroke-width="0.2296" d="M348.384,54.259c0.576,0.208,1.035,0.686,1.265,1.266"/>
<path fill="none" stroke="#000000" stroke-width="0.2296" d="M343.323,54.962c0,0.563,0,1.125,0,1.687"/>
<path fill="none" stroke="#000000" stroke-width="0.2296" d="M341.355,53.696c-0.506,0.517-0.914,1.134-1.125,1.828"/>
<path d="M325.609,32.328l29.523,0.422c0,0-0.421,3.233-3.093,3.936c-2.672,0.704-5.061-3.374-5.061-3.374s-2.812-0.984-3.375,0.141
	s-2.531,3.093-4.78,3.093c-2.249,0-5.201-3.093-5.201-3.093l-7.451-0.141L325.609,32.328z"/>
<path opacity="0.32" fill="#E6B8A5"  a:adobe-blending-mode="multiply" d="M327.718,43.996c-0.688,1.664,0.922,5.052,1.824,6.467
	c1.016,1.594,2.589,3.009,4.218,3.968c2.067,1.217,3.948,2.646,5.908,3.918c1.917-2.729-2.298-5.935-4.354-7.359
	c-2.854-1.974-5.509-3.825-7.595-6.572"/>
<path opacity="0.32" fill="#E6B8A5"  a:adobe-blending-mode="multiply" d="M324.332,34.576c-0.291-0.166-0.516-0.482-0.655-0.771
	c0.118-0.081,0.238-0.193,0.376-0.28c0.064-1.092,0.017-1.905-0.513-2.782c-1.103-0.4-2.401,0.729-1.52,1.661
	c0.325-0.805,1.688-1.509,1.266-0.032c-0.292-0.022-0.473,0.167-0.729,0.171c-0.109,0.667-0.053,1.544,0.598,1.759
	c0.011-0.211,0.119-0.648,0.122-0.743c-0.012,0.349-0.086,1.138,0.158,1.402c0.511,0.553,0.726-0.071,0.514-0.513"/>
<path fill="#E6B8A5" stroke="#BB9787" stroke-width="0.4592" d="M341.074,48.354c2.03-0.996,4.474-2.715,6.889-1.828"/>
<path fill="#FFFFFF" d="M352.461,34.155c0.35,0.594,0.896,0.797,0.959-0.116c-0.112-0.073-0.275-0.111-0.396-0.179
	c-0.133,0.101-0.291,0.198-0.422,0.295"/>
<path fill="#FFFFFF" d="M340.652,33.874c-1.576,1.714,2.717-0.247,0-0.281"/>
<path opacity="0.32" fill="#E6B8A5"  a:adobe-blending-mode="multiply" d="M344.026,40.903c0.359,0.134-0.062-0.452-0.383-0.733
	c-0.477-0.416-0.624-0.856-1.205-0.424c-0.401,0.296-0.398,2.075-0.38,2.584c-0.625-0.763-0.838-2.949-1.968-3.535
	c-1.411-0.732-3.997,1.296-5.76,0.594c1.701-0.094,5.287-1.238,2.277-2.527c-1.282-0.549-3.548-1.247-3.243-3.107
	c1.872,0.034,3.795-0.281,5.707-0.302c1.62-0.019,3.331,0.316,4.906,0.133c-0.075,0.156-0.15,0.431-0.21,0.549
	c1.314,0.149,1.127-2.323,0.741-3.061c0.36,0.709,0.729,1.402,0.776,2.188c0.211-0.652,0.486-1.562,0.422-2.305
	c0.707,2.087-0.953,3.505-0.867,5.054c0.065,1.195,1.637,5.122,0.308,5.816c-0.291-0.275-0.786-0.593-0.839-0.642"/>
<path opacity="0.31" fill="#9BA398"  a:adobe-blending-mode="multiply" d="M355.325,84.327c-2.343,0.074-9.433-3.555-11.427-5.542
	c1.62,0.09,3.283-0.325,4.845-0.781c-2.227-1.269-5.486-1.74-7.566-3.569c1.159-0.309,2.883-0.329,4.254-0.689
	c-1.952-2.029-6.775-2.016-9.436-3.826c1.192-0.561,2.529-0.408,3.85-0.443c-1.407-1.487-4.034-1.941-5.853-3.241
	c-1.586-1.134-2.535-2.564-3.757-3.929c-1.465-1.637-3.374-3.302-5.575-3.893c-5.031-1.349-8.992,2.014-8.142,7.146
	c0.884,5.33,5.203,11.443,7.474,16.464c1.878,4.154,2.978,7.255,5.455,10.898c4.627-0.164,10.427,0.996,15.351,1.001
	c4.872,0.005,8.654-1.077,13.371-1.029c-1.734-1.39-3.681-2.772-5.188-4.276c0.649-1.175,1.223-2.351,1.685-3.634"/>
<path opacity="0.32" fill="#E6B8A5"  a:adobe-blending-mode="multiply" d="M341.462,17.837c0.482,0.421,0.942,1.408,1.3,1.927
	c-1.534,0.502-3.637,1.005-3.927,2.687c1.638-0.18,3.584-0.481,4.937,0.318c-0.803,0.172-1.422,0.533-2.208,0.757
	c1.021-0.131,2.135,0.02,3.134,0.034c-0.721,0.438-1.363,1.5-1.948,1.96c0.412,0.093,1.01,0.647,1.682,0.726
	c-0.742,0.849-0.839,1.942-1.007,2.886c1.659-0.136,2.1,1.104,1.775,2.611c1.521-2.247,3.898-2.746,5.581-4.48
	c-2.126-1.177-3.35-3.475-4.344-5.655c0.53,0.757,0.71,1.696,0.994,2.524c-1.803-0.992-2.388-4.156-4.226-5.596
	c-0.124,0.311-0.497,1.246-0.407,0.968"/>
<path opacity="0.32" fill="#E6B8A5"  a:adobe-blending-mode="multiply" d="M360.817,86.917c2.236,0.294,17.27,8.566,17.746,1.118
	c2.051,1.234,4.318,0.071,6.566,0.167c-0.903-4.537,6.542-1.308,3.794,2.793c-1.524,2.273-8.308,2.656-11.086,2.93
	c-3.553,0.35-8.626,1.66-11.762,0.417c-2.729-1.082-7.219-3.16-9.311-5.098c1.078-0.96,2.629-2.208,3.72-2.994"/>
<path fill="none" stroke="#BB9787" stroke-width="0.4592" d="M342.509,42.511c4.773,2.621,5.542-1.699,4.739-5.609
	c-0.726-3.535-1.793-6.528,2.398-8.317"/>
<path fill="#E6B8A5" stroke="#BB9787" stroke-width="0.4592" d="M501.544,33.936c-6.396-7.995-4.918,9.992,0,4.04"/>
<path opacity="0.32" fill="#E6B8A5"  a:adobe-blending-mode="multiply" d="M501.069,33.223c2.327,1.223-0.326,4.295,4.017,3.516
	c-0.746-1.349-0.992-3.223-0.41-4.664c2.147-0.61,2.132,0.165,3.768,0.975c1.555,0.77,2.765,0.729,4.508,0.887
	c3.41,0.308,4.642-1.219,7.657-2.324c3.654-1.34,4.713,0.502,7.796,2.033c1.563,0.775,2.548,0.102,3.849,0.338
	c1.423,0.259,2.359,1.409,3.459,2.299c1.078-2.574-1.251-5.761-3.44-7.046c-4.578-2.687-10.972-2.507-15.993-1.954
	c-3.582,0.395-13.957,0.604-14.992,5.49c0.209,0.284,0.188-0.123,0.497-0.023"/>
<path d="M551.002,23.778c0.168-1.001,1.901-1.7,2.822-1.684c1.196,0.02,2.614,0.744,3.667,1.245c0.965,0.46,3.481,2.19,4.471,1.614
	c-2.158-0.917-3.436-3.444-5.646-4.546c-1.782-0.889-6.739,0.829-5.839,3.372"/>
<path fill="#434A4F" stroke="#000000" stroke-width="0.9184" d="M497.608,34.198c0.013,0.014,3-1.477,3.952-1.823
	c1.597-0.582,3.373-0.716,4.981-1.084c3.562-0.814,6.543-0.696,10.18-0.878c3.518-0.176,6.938-0.021,10.388,0.461
	c2.813,0.393,6.9,0.144,8.482,2.944c0.375,0.663,0.223,1.429,0.663,2.073c2.907-4.439-2.593-13.726-5.447-17.453
	c-3.973-5.187-10.044-8.927-17.855-7.812c-6.101,0.871-11.553,5.668-14.786,10.88c-1.421,2.292-5.701,15.055-0.803,15.782
	c0.05-0.907-0.068-2.147,0.245-2.467"/>
<path fill="#E6B8A5" stroke="#BB9787" stroke-width="0.4592" d="M513.426,42.016c-0.583-0.489,2.424-0.667,3.327-0.713
	c1.475-0.074,2.87,0.167,4.278,0.237c2.547,0.127,6.347-0.849,8.316,0.951"/>
<path d="M522.218,43.441c-3.768-0.805-2.729,3.304-3.634,5.91c0.04-0.063,0.818-0.681,1.027-0.9
	c0.242,0.761,0.582,1.765,1.122,2.339c0.07-0.292,0.269-0.601,0.352-0.913c0.323,0.387,1.101,0.676,1.341,0.9
	c-0.09-0.314-0.101-0.817-0.176-1.138c0.269,0.289,1.064,0.638,1.358,0.914c0.049-2.012-0.585-5.384-1.864-6.873"/>
<path fill="none" stroke="#BB9787" stroke-width="0.4592" d="M590.184,5.182c0.078,0,0.158,0,0.237,0"/>
<path d="M512.011,11.741c-3.244-0.396-7.362,6.168-9.382,8.371c-2.081,2.27-3.784,6.174-4.376,9.238
	c4.707-4.979,8.438-12.203,13.299-17.045c-2.548,3.302-7.478,11.399-7.881,15.855c2.031-4.364,5.698-11.953,9.011-15.45
	c-0.74,4.141-2.719,9.984-2.582,14.369c1.347-3.637,2.507-10.354,3.806-14.311c1.272,3.77,0.432,10.422,1.91,13.953
	c-0.065-3.971-0.457-9.82-0.192-13.774c3.023,3.943,4.068,10.945,6.134,15.201c-0.061-2.789-0.385-5.143-1.38-7.758
	c-0.662-1.743-2.134-5.621-2.383-7.391c2.188,2.155,4.594,6.058,6.072,8.815c1.083,2.019,1.449,4.223,2.442,6.095
	c0.045-5.662-3.413-10.539-6.15-14.939c2.985,0.938,6.577,6.651,8.217,9.333c1.324,2.166,2.282,4.742,3.333,6.86
	c-0.277-6.525-5.771-15.298-11.531-18.113c-0.058,0.317-0.114,0.775-0.09,1.082c-0.318-0.138-0.643-0.362-0.929-0.542
	c-0.025,0.103,0.142,0.551-0.017,0.607c-0.471-0.446-1.146-0.429-1.593-0.66c-0.067,0.268-0.152,0.601-0.202,0.838
	c-0.249-0.126-0.211-0.383-0.554-0.435c-0.366,0.483-1.062,0.69-1.383,0.956c0.002-0.285-0.046-0.604-0.071-0.889
	c-0.449,0.239-1.35,0.318-1.828,0.658c0.005-0.285-0.083-0.62-0.085-0.902c-0.906,0.557-2.887,0.095-2.565,0.452"/>
<path fill="none" stroke="#000000" stroke-width="0.4592" d="M495.605,34.173c0.076,0.742-0.005,1.272,0.735,1.807
	c-1.216-1.036-0.816-2.897-0.071-4.122c-0.23,0.944-0.271,2.087,0.476,2.772c-0.268-1.124-0.111-2.439,0.713-3.29
	c0.072,0.88,0.289,1.919,0.706,2.577c0.024-1.163,0.099-2.576,0.958-3.284c0.12,0.521,0.503,1.076,0.587,1.572
	c0.168-0.753,0.593-1.324,0.944-2.053c0.179,0.417,0.738,0.991,0.891,1.561c0.114-0.633,0.684-1.307,0.893-1.792
	c0.198,0.401,0.62,0.659,0.777,0.901c0.261-0.769,0.582-1.674,1.188-2.279c0.098,0.494,0.585,1.206,0.715,1.74
	c0.066-0.597,0.549-1.141,0.707-1.609c0.27,0.556,0.835,1.127,0.95,1.864c0.197-0.684,0.695-1.341,0.897-1.993
	c0.102,0.545,0.483,1.058,0.594,1.577c0.182-0.508,0.725-1.251,0.95-1.87c0.066,0.318,0.412,0.897,0.457,1.388
	c0.132-0.351,0.76-0.934,0.963-1.37c0.182,0.391,0.8,1.039,0.892,1.555c0.191-0.678,0.805-1.292,1.187-1.869
	c0.111,0.399,0.684,1.137,0.769,1.684c0.546-0.47,1.089-1.372,1.614-1.863c0.073,0.564,0.543,1.288,0.661,1.625
	c0.128-0.603,0.575-1.055,0.72-1.388c0.035,0.774,0.452,1.417,0.759,2.055c0.194-0.677,0.799-1.165,1.194-1.591
	c0.061,0.465,0.415,1.078,0.464,1.573c0.16-0.548,0.791-1.021,0.956-1.323c0.163,0.452,0.636,0.9,0.772,1.388
	c0.141-0.462,0.688-1.224,0.819-1.811c0.157,0.505,0.62,0.983,0.784,1.515c0.129-0.455,0.549-0.789,0.713-1.146
	c0.127,0.309,0.579,0.745,0.706,1.139c0.106-0.446,0.442-0.894,0.542-1.323c0.127,0.458,0.609,1.277,0.713,1.863
	c0.17-0.488,0.877-1.236,1.082-1.626c0.045,0.564,0.306,1.054,0.324,1.62c0.446-0.618,0.733-1.593,1.339-2.096
	c0.081,0.54,0.382,1.078,0.463,1.574c0.058-0.391,0.2-0.692,0.291-1.032c0.122,0.636,0.534,1.153,0.712,1.72
	c0.07-0.25,0.202-0.545,0.285-0.835c0.133,0.313,0.774,0.895,0.909,1.145c0.194-0.66,0.381-1.492,0.219-2.267
	c0.568,0.856,0.933,1.885,0.958,2.933c0.258-0.861,0.325-1.848,0.293-2.761c0.758,0.791,0.965,2.007,1.39,2.986
	c-0.038-0.834-0.025-1.691,0.035-2.51c0.959,0.787,1.244,2.224,1.142,3.473c0.205-0.858,0.335-1.868,0.29-2.773
	c0.67,1.032,0.771,2.674,0.896,3.961c0.006-1.124-0.113-2.229,0.251-3.289c0.263,0.532,0.222,2.281,0.224,3.36"/>
<path fill="#E6B8A5" stroke="#BB9787" stroke-width="0.4592" d="M513.666,41.778c-0.776-0.19-1.67,0.511-1.047,1.593
	c-0.557-0.732-0.931-1.563-1.11-2.459c0.195,0.765,0.388,1.741,0.968,2.292"/>
<path opacity="0.32" fill="#E6B8A5"  a:adobe-blending-mode="multiply" d="M521.032,42.966c-1.159-0.491-5.926,0.914-6.136,2.424
	c-0.236,1.705,4.776-1.226,5.897-1.235c1.507-0.013,7.094,2.412,4.925-0.415c-1.185-1.548-4.848-1.799-6.113-0.773"/>
<path opacity="0.32" fill="#E6B8A5"  a:adobe-blending-mode="multiply" d="M517.228,37.263c0.425,0.055,1.771,3.068,3.382,3.511
	c1.97,0.542,4.088-1.245,3.938-3.25c-1.968,1.255-5.283,1.167-6.844-0.023"/>
<path d="M501.175,33.247c-0.38,0.475,0.176,2.707,0.323,3.597c0.938-0.17,1.868-0.454,2.813,0.008
	c-0.205-1.366-0.257-3.157,0.008-4.488c-0.908-0.14-3.117,0.607-3.295,1.034"/>
<path fill="#9BA398" stroke="#7D847C" stroke-width="0.4592" d="M498.158,38.979c-0.342-0.411-0.844,0.976-0.871,1.626
	c-0.051,1.187,0.422,2.171,1.743,1.879c1.841-0.407,1.652-3.034,0.769-4.206c1.681,1.3,1.383,5.713-1.338,5.38
	c-2.318-0.282-2.219-3.391-0.604-4.528"/>
<path opacity="0.39" fill="#7D847C"  a:adobe-blending-mode="color" d="M504.78,37.133c1.184-0.643,4.925,1.934,6.878,2.172
	c2.904,0.354,5.466-0.451,8.44-0.609c5.416-0.289,9.728,3.109,14.641-0.914c-0.074,8.822-5.975,15.807-14.952,14.357
	c-3.037-0.492-8.899-1.157-11.34-3.361c-2.658-2.399-1.593-6.725-4.214-8.799c-0.4,0.944-0.637,1.974-0.687,3
	c-0.685-1.943-1.638-3.92-2.165-5.791c1.188-0.101,2.52-0.105,3.398,0.258"/>
<path fill="none" stroke="#000000" stroke-width="0.2296" d="M529.792,84.656c-2.063,0.386,0.773,7.086,1.944,8.133
	c3.877,3.461,5.053-4.615,2.393-5.861c-0.778,1.584,0.813,8.233,3.111,8.35c2.572,0.133,1.708-6.107,0.9-7.514
	c-0.756,1.839,2.35,7.114,4.802,6.633c2.46-0.481,1.364-4.431-0.61-5.049c0.244,1.648,3.465,8.151,5.621,7.814
	c2.465-0.386,1.667-5.073,0.888-6.741c-0.077,2.09,2.502,6.337,4.67,6.405c0.243-2.018-0.771-3.971-1.496-5.789
	c0.822,1.5,3.364,6.133,5.554,5.783c2.358-0.376,0.915-3.364,0.091-4.51c0.478,2.033,2.401,4.665,4.59,4.832
	c0.698-1.551-0.081-3.2-0.284-4.438c0.517,1.368,1.353,2.604,2.529,3.52"/>
</svg>
