<?xml version="1.0" encoding="utf-8"?>
<!-- Generator: Adobe Illustrator 16.0.3, SVG Export Plug-In . SVG Version: 6.00 Build 0)  -->
<!DOCTYPE svg PUBLIC "-//W3C//DTD SVG 1.1//EN" "http://www.w3.org/Graphics/SVG/1.1/DTD/svg11.dtd">
<svg version="1.1" id="Layer_1" xmlns="http://www.w3.org/2000/svg" xmlns:xlink="http://www.w3.org/1999/xlink" x="0px" y="0px"
	 width="300px" height="300px" viewBox="0 0 300 300" enable-background="new 0 0 300 300" xml:space="preserve">
<g>
	<defs>
		<circle id="SVGID_1_" cx="150" cy="150" r="140"/>
	</defs>
	<clipPath id="SVGID_2_">
		<use xlink:href="#SVGID_1_"  overflow="visible"/>
	</clipPath>
	
		<circle clip-path="url(#SVGID_2_)" fill="#F58620" stroke="#000000" stroke-width="10" stroke-linecap="round" stroke-linejoin="round" stroke-miterlimit="10" cx="150" cy="150" r="140"/>
	<g clip-path="url(#SVGID_2_)">
		<g>
			<path fill="#E4B623" d="M55.651,152.666c-3.954,2.738,2.183,7.985,3.362,10.334c2.021,4.012-0.977,9.438-5.426,6.604
				c1.021,2.271,4.006,3.755,6.138,2.428c0.674,4.158-3.147,6.289-6.48,5.422c2.888,2.932,8.095,2.732,11.703,2.001
				c-0.634,2.214-3.561,3.664-5.584,4.518c6.417,0.594,14.352-4.475,16.307-10.704c1.521-4.836,1.313-11.033-1.07-15.567
				c-2.521-4.802-7.006-2.757-10.797-4.972"/>
			<g>
				<g>
					<path fill="#FAD3D2" d="M233.658,296.833l-0.82,12.341c0,0-7.845,11.516-6.178,15.926c3.881,10.266,11.703,4.5,11.703,4.5l0,0
						l7.529,8.441c0,0,3.898,2.614,8.192-0.402c4.293-3.019,10.356-9.472,13.811-10.234c3.453-0.768,6.036-12.723-4.305-28.321
						c-10.342-15.596-10.772-15.764-10.81-18.521C252.749,277.81,233.658,296.833,233.658,296.833z"/>
					<path fill="#C78C8F" d="M249.705,340.136L249.705,340.136c-2.531,0-4.318-1.183-4.393-1.232l-0.195-0.168l-6.945-7.785
						c-0.96,0.534-2.675,1.308-4.633,1.308c-2.411,0-5.731-1.178-7.854-6.79c-1.721-4.558,4.791-14.642,6.132-16.642l0.83-12.457
						l0.276-0.276c6.313-6.288,17.255-16.843,19.604-16.843c0.739,0,1.288,0.547,1.298,1.302c0.021,1.974,0.208,2.308,6.609,11.906
						l4.024,6.049c7.485,11.287,8.702,21.623,6.593,26.859c-0.689,1.703-1.728,2.789-2.929,3.053
						c-1.969,0.438-5.325,3.332-8.288,5.887c-1.84,1.581-3.577,3.078-5.148,4.185C253.132,339.58,251.457,340.136,249.705,340.136
						L249.705,340.136z M246.566,337.23c0.338,0.195,1.551,0.82,3.139,0.82c1.317,0,2.586-0.424,3.782-1.267
						c1.487-1.048,3.189-2.509,4.988-4.06c3.455-2.978,6.717-5.792,9.197-6.337c0.383-0.085,0.964-0.604,1.447-1.798
						c1.424-3.536,1.68-12.754-6.395-24.929l-4.026-6.047c-5.518-8.276-6.654-9.982-6.893-11.907
						c-2.63,1.71-10.308,8.797-17.135,15.584l-0.813,12.238l-0.16,0.233c-2.914,4.279-7.14,12.124-6.062,14.969
						c1.363,3.608,3.349,5.44,5.902,5.44c2.233,0,4.189-1.398,4.207-1.411l0.769-0.561L246.566,337.23L246.566,337.23z"/>
				</g>
				<path fill="#C78C8F" d="M234.841,332.594c-0.849,0-1.652-0.235-2.318-0.679l0.944-1.841c0.477,0.177,0.884,0.271,1.216,0.271
					c0.722,0,1.32-0.413,2.397-2.569c0.373-0.748,0.648-1.54,0.945-2.381c0.558-1.59,1.132-3.23,2.412-4.633
					c1.909-2.1,4.36-3.255,6.896-3.255l0.315,0.005c0.367,0.013,2.241,0.137,3.089,1.278c0.392,0.52,0.505,1.146,0.337,1.806
					c-0.163,0.636-0.695,1.391-2.301,1.391c-0.404,0-0.837-0.043-1.22-0.084c-0.24-0.026-0.459-0.054-0.619-0.054l-1.344-0.023
					c-1.111,0-1.367,0.167-1.391,0.185c0.006,0.163,0.536,0.623,0.821,0.869c0.187,0.162,0.372,0.327,0.531,0.482l0.445,0.404
					c0.775,0.713,1.656,1.52,2.087,2.642c0.309,0.817,0.444,1.973-0.103,2.758c-0.543,0.782-1.561,0.957-2.68,0.354
					c-0.999-0.545-1.517-1.689-2.019-2.799c-0.546-1.199-0.972-2.045-1.521-2.045c-0.655,0.006-0.867,0.433-1.13,2.287
					c-0.109,0.784-0.228,1.597-0.562,2.238C239.008,331.23,236.904,332.594,234.841,332.594L234.841,332.594z M245.188,325.868
					c0.313,0.692,0.702,1.548,1.072,1.793c-0.016-0.146-0.055-0.326-0.125-0.516C245.965,326.7,245.601,326.274,245.188,325.868
					L245.188,325.868z M246.854,319.766c0.311,0,0.603,0.03,0.922,0.063c0.346,0.039,0.753,0.077,1.082,0.075
					c-0.277-0.158-0.795-0.293-1.289-0.313l-0.236-0.003c-0.467,0-0.937,0.055-1.398,0.157c0.146,0.003,0.291,0.008,0.428,0.008
					l0.486,0.012H246.854L246.854,319.766z"/>
			</g>
			<path fill="#004B72" d="M82.77,314.09c0,0-4.915,25.918,0.677,44.025c0,0,43.883-15.9,63.777,4.591
				c0,0,18.367-20.265,30.704,16.325l7.691-9.855l52.466-7.828c0,0-8.408-21.72-4.454-45.062
				C235.822,303.36,82.77,314.09,82.77,314.09z"/>
			<g>
				<path fill="#FFFFFF" d="M253.207,231.631c0,0,8.957,21.208,11.287,47.79c0,0-0.277,6.604,0.408,13.731
					c0,0-22.365,16.021-34.091,1.786c-11.717-14.233-6.954-45.231-6.954-45.231l2.57-25.893"/>
				<path fill="#9CCAE1" d="M243.607,301.829c-4.908,0-9.784-1.596-13.6-6.227c-11.88-14.431-7.378-44.769-7.179-46.056
					l2.563-25.835l2.073,0.206l-2.567,25.893c-0.058,0.36-4.565,30.756,6.72,44.463c10.054,12.209,28.92,0.534,32.189-1.64
					c-0.611-6.878-0.355-13.192-0.353-13.253c-2.285-25.968-11.122-47.131-11.208-47.344l1.919-0.81
					c0.09,0.212,9.051,21.664,11.369,48.104c0,0.196-0.263,6.754,0.404,13.725l0.06,0.596l-0.49,0.346
					C265.35,294.113,254.401,301.829,243.607,301.829L243.607,301.829z"/>
			</g>
			<g>
				<g>
					<path fill="#055A81" d="M48.639,239.389l-11.08,4.726c0,0-4.85,2.733,10.356,12.322c1.256-6.691,2.717-12.577,3.839-16.717
						L48.639,239.389z"/>
					<path fill="#1A94D2" d="M47.916,257.477c-0.196,0-0.387-0.055-0.554-0.163c-7.756-4.888-11.652-8.855-11.577-11.794
						c0.038-1.58,1.141-2.245,1.263-2.315l11.185-4.773c0.162-0.069,0.337-0.1,0.52-0.08l3.112,0.332
						c0.303,0.031,0.578,0.198,0.75,0.449c0.171,0.251,0.223,0.566,0.144,0.864c-1.034,3.815-2.536,9.801-3.821,16.632
						c-0.063,0.342-0.29,0.622-0.608,0.762C48.198,257.447,48.057,257.477,47.916,257.477L47.916,257.477z M37.991,245.063
						c0.036,0-0.132,0.178-0.122,0.567c0.021,0.944,1.005,3.659,9.313,9.094c1.1-5.607,2.315-10.557,3.251-14.095l-1.634-0.179
						l-10.825,4.616C37.982,245.067,37.985,245.063,37.991,245.063L37.991,245.063z"/>
				</g>
				<path fill="#0F99C5" d="M83.81,251.344l6.53,3.849c-1.127,5.001-1.824,9.963-2.225,14.709c4.621,0.424,7.517,0.339,7.517,0.339
					l3.092-12.933L83.81,251.344z"/>
			</g>
			<path fill="#250F17" d="M175.804,197.338c-0.339,8.021-11.058,14.047-23.937,13.47c-12.882-0.574-23.05-7.538-22.713-15.55
				c0.339-8.021,11.059-14.05,23.939-13.478C165.974,182.357,176.143,189.322,175.804,197.338z"/>
			<path fill="#1FB7EB" d="M265.238,227.192c0,0-13.752-14.771-14.021-22.48c-0.217-6.112-9.294-29.813-25.495-37.642
				c7.245,13.153-11.452,4.821-36.336,5.971c-12.924,0.595-9.077,22.342-16.25,20.217l-13.933,22.478l-32.417-21.905
				c-8.651,2.898-18.275,5.374-29.257,3.623c-18.685-2.984-23.497-16.531-24.675-21.782c-7.781,2.807-19.94,11.247-24.364,36.605
				c0.634,17.616-9.155,29.769-10.701,31.577c1.546-1.558,11.896-8.721,55.335,17.518c0,0-17.639,40.813-10.818,63.592
				c0,0,98.398,24.977,151.475-5.283c0,0,0.011-56.949-4.432-72.231C229.35,247.448,260.642,243.918,265.238,227.192z"/>
			<path fill="#C78C8F" d="M172.699,185.35c-0.228,5.404-10.25,10.343-27.708,9.561c-17.459-0.777-35.744-6.979-35.516-12.384
				c0.23-5.405,14.566-9.148,32.024-8.366C158.958,174.938,172.927,179.95,172.699,185.35z"/>
			<g>
				<defs>
					<path id="SVGID_3_" d="M211.584,164.768c25.001-3.502,39.363,32.232,39.634,39.944c0.269,7.709,14.021,22.48,14.021,22.48
						c-4.597,16.726-35.889,20.256-35.889,20.256c4.442,15.282,4.432,72.231,4.432,72.231C180.704,349.939,81,325.775,81,325.775
						c-6.821-22.778,12.124-64.404,12.124-64.404c-47.881-28.925-55.564-17.257-55.564-17.257s11.618-12.719,10.931-31.838
						c6.714-38.484,31.248-38.006,31.248-38.006l33.586,10.461l44.832,29.5l24.783-35.041L211.584,164.768z"/>
				</defs>
				<clipPath id="SVGID_4_">
					<use xlink:href="#SVGID_3_"  overflow="visible"/>
				</clipPath>
				<g clip-path="url(#SVGID_4_)">
					<path fill="#FFFFFF" d="M95.528,253.793c0,0-16.063-16.966-55.832-18.306l-4.292,6.368c0,0,22.21-3.328,57.512,16.941
						c0.512,0.289,1.029,0.588,1.55,0.893"/>
					<path fill="#FFFFFF" d="M98.272,241.439c0,0-16.52-16.966-56.286-18.309l-1.367,5.756c0,0,18.81-3.041,54.116,17.219
						c0.511,0.295,1.024,0.592,1.542,0.896"/>
					<path fill="#FFFFFF" d="M228.232,240.062l0.191,5.628c0,0,32.446,4.063,42.599-25.539l-4.351-4.798
						C266.672,215.353,260.942,238.037,228.232,240.062z"/>
					<path fill="#FFFFFF" d="M224.571,227.709l-0.03,5.335c0,0,32.448,4.062,42.603-25.534l-4.589-4.972
						C262.555,202.538,257.284,225.685,224.571,227.709z"/>
					<path fill="#FFFFFF" d="M82.714,297.723c0,0,29.25,15.959,80.081,16.017c49.986,0.051,77.793-20.136,77.793-20.136
						l-0.021,8.634c0,0-38.992,20.47-77.526,20.054c-38.535-0.408-82.012-14.114-82.012-14.114l-0.207-15.257"/>
					<path fill="#FFFFFF" d="M80.424,313.739c0,0,31.534,12.759,82.371,12.811c49.984,0.06,77.792-19.218,77.792-19.218
						l-0.778,9.858c0,0-38.996,20.467-77.527,20.05c-38.539-0.411-82.017-14.114-82.017-14.114l-0.203-15.255"/>
				</g>
			</g>
			<path fill="#0F99C5" d="M92.107,333.249c0,0,10.771-3.449,11.491-10.408c0.719-6.958-9.188-13.953-8.096-19.586
				c1.087-5.63-8.815-22.673-0.149-46.749l-6.71,8L82.77,314.09"/>
			<path fill="#1A94D2" d="M160.085,335.957c-41.034,0-78.954-9.074-79.329-9.17c-0.363-0.087-0.652-0.359-0.758-0.715
				c-6.393-21.357,9.066-58.07,11.8-64.285c-42.348-25.419-52.064-18.362-53.241-17.235l-0.227,0.268
				c-0.367,0.396-0.983,0.444-1.41,0.116c-0.426-0.338-0.527-0.941-0.229-1.399c0.037-0.051,0.141-0.201,0.34-0.403
				c1.911-2.252,11.025-13.93,10.417-30.816c-0.003-0.073,0.002-0.146,0.014-0.216c6.703-38.432,31.192-38.875,32.233-38.875
				c0.105,0,0.252,0.019,0.35,0.047l33.587,10.464c0.086,0.026,0.166,0.063,0.239,0.111l43.661,27.225l23.73-32.962
				c0.1-0.146,0.239-0.261,0.4-0.339l29.474-13.947c0.098-0.047,0.198-0.074,0.305-0.09c1.186-0.165,2.383-0.25,3.557-0.25
				c23.788,0,37.015,34.237,37.259,41.191c0.256,7.229,13.605,21.664,13.744,21.809c0.247,0.263,0.337,0.638,0.241,0.987
				c-4.263,15.507-29.646,20.007-35.581,20.853c4.123,16.696,4.162,69.081,4.162,71.355c0,0.373-0.201,0.721-0.524,0.905
				C216.406,330.783,191.439,335.953,160.085,335.957L160.085,335.957z M81.832,324.897c4.946,1.148,40.259,8.975,78.253,8.975
				c30.677-0.003,55.118-4.981,72.654-14.798c-0.02-6.172-0.284-57.212-4.389-71.337c-0.087-0.294-0.038-0.612,0.132-0.868
				c0.172-0.257,0.443-0.424,0.749-0.459c0.302-0.031,29.945-3.561,34.842-18.945c-2.345-2.583-13.64-15.388-13.897-22.717
				c-0.231-6.617-12.723-39.182-35.177-39.182c-1.027,0-2.074,0.07-3.113,0.208l-29.085,13.767l-24.146,33.542
				c-0.325,0.445-0.938,0.564-1.401,0.274l-44.367-27.672l-33.304-10.37c-2.126,0.049-23.796,1.452-30.048,37.033
				c0.448,13.362-4.924,23.601-8.41,28.784c1.06-0.235,2.356-0.387,3.922-0.387c7.275,0,21.612,3.424,48.615,19.733
				c0.454,0.272,0.629,0.845,0.412,1.323C93.888,262.212,75.687,302.629,81.832,324.897L81.832,324.897z"/>
			<path fill="none" d="M126.787,193.83l32.417,21.905l13.592-22.263c-7.132-2.112-12.877-4.617-20.14-5.613
				C144.949,186.813,136.486,190.586,126.787,193.83z"/>
			<path fill="#1FB7EB" d="M211.584,164.768l-4.063,1.774l15.037-0.784C219.17,164.634,215.511,164.218,211.584,164.768z"/>
			<path fill="#1FB7EB" d="M37.789,243.854c-0.16,0.159-0.229,0.261-0.229,0.261S37.655,244.008,37.789,243.854z"/>
			<path fill="#0F99C5" d="M224.924,165.637l-2.366,0.121c1.081,0.363,2.138,0.812,3.165,1.313
				C225.462,166.591,225.222,166.112,224.924,165.637z"/>
			<g>
				<path fill="none" d="M164.7,190.651c-4.235-1.221-8.475-2.3-12.044-2.792c-4.76-0.647-9.813,0.545-15.265,2.32l19.923,15.852
					L164.7,190.651z"/>
				<path fill="#FFFFFF" d="M157.314,206.031l-19.923-15.852c-3.373,1.098-6.896,2.414-10.604,3.65l-13.462-9.099l-8.203-3.089
					l-0.456,0.255l54.598,36.236l17.528-23.817c-3.57-1.066-7.822-2.434-12.092-3.665L157.314,206.031z"/>
				<path fill="#FFFFFF" d="M168.777,182.151l-4.077,8.5c4.27,1.231,8.521,2.599,12.092,3.665l6.609-8.977L168.777,182.151z"/>
				<path opacity="0.51" fill="#0F99C5" d="M168.777,182.151l-4.077,8.5c4.27,1.231,8.521,2.599,12.092,3.665l6.609-8.977
					L168.777,182.151z"/>
				<path fill="#FFFFFF" d="M126.787,193.83c3.708-1.236,7.231-2.553,10.604-3.65l-13.397-10.661l-17.854,2.976l7.185,2.237
					L126.787,193.83z"/>
				<path opacity="0.51" fill="#0F99C5" d="M123.977,194.713c6.518-2.119,10.041-3.436,13.414-4.533l-13.397-10.661l-17.854,2.976
					l4.375,3.125L123.977,194.713z"/>
			</g>
			<path fill="#1FB7EB" d="M97.53,197.453c10.982,1.751,17.952,0.145,26.603-2.751l-13.813-9.249l-30.582-11.183
				c0,0-2.856-0.054-6.884,1.4C74.033,180.922,78.845,194.469,97.53,197.453z"/>
			<path fill="#0F99C5" d="M97.53,197.453c10.982,1.751,17.952,0.145,26.603-2.751l-15.033-9.945l-29.361-10.486
				c0,0-2.856-0.054-6.884,1.4C74.033,180.922,78.845,194.469,97.53,197.453z"/>
			<path fill="#1FB7EB" d="M201.457,196.734c24.882-1.146,31.511-16.511,24.266-29.664c-1.027-0.501-2.084-0.949-3.165-1.313
				l-15.037,0.784l-20.357,11.795"/>
			<path fill="#0F99C5" d="M176.792,194.316c7.174,2.126,11.74,3.015,24.665,2.418c24.882-1.146,31.511-16.511,24.266-29.664
				c-1.027-0.501-2.084-0.949-3.165-1.313l-15.037,0.784l-18.699,11.678L176.792,194.316z"/>
			<g>
				<path fill="#FAD3D2" d="M58.579,131.544c0,0-9.294-7.302-11.707,8.457c-2.417,15.753,13.263,16.755,19.743,14.952
					c0,0-0.273,34.105,35.83,33.92c0,0,6.962,0.614,18.205-3.676c11.246-4.285,36.613-5.246,53.354-1.803
					c16.739,3.438,28.056,11.131,51.228-13.58c0,0,20.99-28.093-4.547-50.782c-25.534-22.695-77.698-28.317-77.698-28.317
					l-57.345,13.604C85.643,104.318,65.692,107.913,58.579,131.544z"/>
				<path fill="#C78C8F" d="M103.446,189.949c-0.718,0-1.091-0.035-1.091-0.035l-0.197,0.005c-11.187,0-20.079-3.252-26.436-9.656
					c-8.507-8.578-9.884-20.132-10.105-24.011c-1.33,0.26-2.814,0.396-4.303,0.396c-3.214,0-9.157-0.638-12.834-4.925
					c-2.51-2.922-3.398-6.92-2.638-11.88c1.395-9.118,5.17-11.031,8.087-11.031c1.621,0,3.089,0.602,4.064,1.13
					c7.546-22.807,27.266-26.612,27.465-26.649l57.459-13.634l0.181,0.023c0.522,0.055,52.789,5.921,78.281,28.572
					c25.949,23.058,4.902,51.897,4.689,52.185c-11.619,12.398-21.302,17.887-31.482,17.887c-4.827,0-9.39-1.148-14.221-2.364
					c-2.113-0.529-4.303-1.08-6.571-1.548c-6.482-1.33-14.74-2.065-23.258-2.065c-12.196,0-23.231,1.431-29.516,3.825
					C112.087,189.576,105.757,189.949,103.446,189.949L103.446,189.949z M102.44,187.834c0.123,0.004,0.431,0.028,1.006,0.028
					c2.191,0,8.219-0.353,16.833-3.637c6.51-2.483,17.821-3.961,30.258-3.961c8.654,0,17.062,0.75,23.674,2.108
					c2.319,0.474,4.527,1.029,6.663,1.563c4.702,1.185,9.142,2.303,13.713,2.303c6.433,0,15.643-1.95,29.888-17.136
					c0.758-1.027,20.029-27.519-4.48-49.294c-24.256-21.553-73.601-27.646-76.945-28.036l-57.165,13.561
					c-0.248,0.045-19.474,3.811-26.306,26.509l-0.437,1.455l-1.201-0.934c-0.021-0.017-1.914-1.467-4.011-1.467
					c-3.807,0-5.381,5.037-6.025,9.259c-0.667,4.333,0.06,7.769,2.157,10.206c3.253,3.791,8.952,4.202,11.253,4.202
					c1.806,0,3.591-0.22,5.025-0.617l1.33-0.371l-0.008,1.381c-0.003,0.142,0.016,14.244,9.556,23.85
					c5.948,5.99,14.342,9.027,24.941,9.027H102.44L102.44,187.834z"/>
			</g>
			<path fill="#C78C8F" d="M59.491,137.568c-3.864-1.578-9.257,2.549-7.882,7.144c0.245,0.842,0.688,2.064,1.662,2.166
				c1.829,0.188,0.795-1.243,1.045-2.12c0.333-1.167-1.21-2.266,0.631-2.917c1.223-0.427,2.353,1.12,2.916,1.875
				c1.034,1.385,1.116,4.775,3.108,5.368c3.242,0.966,1.397-2.973,0.251-4.25c-0.77-0.855-4.721-2.827-4.8-3.792
				c-0.228-2.75,4.368-0.848,5.538-0.717c-0.372-1.213-1.561-2.082-2.771-2.468"/>
			<path fill="#C78C8F" d="M58.467,127.35c-1.617,10.701,10.836,11.1,17.295,9.488c1.769,3.825,5.44,6.65,9.417,6.968
				c-0.458-0.331-1.564-1.854-1.907-2.98c1.035,1.566,2.744,2.05,4.403,2.521c-3.706-6.945-1.914-18.73,0.545-25.745
				c0.871-2.477,3.844-10.94,6.93-11.077c3.486-0.157,7.291,6.674,9.502,8.495c0.4-4.229-0.33-8.538,0.033-12.515
				c1.706,0.886,2.839,2.502,4.684,3.394c2.35,1.142,4.723,1.674,6.934,3.088c2.825,1.809,5.83,4.373,8.986,5.455
				c-0.996-2.174-2.299-6.239,0.208-8.031c1.562-1.123,6.076,0.362,8.127,0.716c5.197,0.893,11.285,1.45,15.636,4.717
				c-0.568-0.97-2.211-4.497-1.631-5.593c0.623-1.184,4.652-1.274,5.82-1.296c3.776-0.072,7.297,0.832,10.747,2.044
				c9.948,3.473,17.966,11.075,25.941,17.527c-1.186-4.371-3.747-9.077-4.594-13.608c9.541,0.712,15.793,12.537,23.121,17.647
				c-0.443-2.278-3.598-10.752-0.687-11.921c2.188-0.876,5.687,4.047,7.048,5.43c4.63,4.714,10.566,8.319,15.494,12.557
				c-0.583-7.17-5.763-12.887-11.604-16.564c-9.633-6.06-19.682-10.095-29.947-14.892c-10.095-4.722-19.309-7.782-30.324-9.141
				c-18.456-2.27-40.19-5.052-57.582,3.417c-9.739,4.743-20.026,10.9-28.673,17.35c-3.482,2.599-7.491,4.623-10.236,7.92"/>
			<path fill="#FFFFFF" d="M143.086,301.008c-11.178-0.29-22.281-3.19-22.281-3.19s3.237-52.191-4.107-73.165
				c13.873-3.083,22.406-2.696,22.406-2.696S147.288,256.926,143.086,301.008z"/>
			<path fill="#FFFFFF" d="M203.909,298.493c-7.733,2.253-20.802,3.341-20.802,3.341s2.366-58.751-4.977-79.727
				c15.035,0.666,21.66,3.223,21.66,3.223S208.103,254.409,203.909,298.493z"/>
			<path fill="#0F99C5" d="M94.311,261.467c0,0,8.661-24.441,8.529-41.433c0,0,0.368-8.692-6.069-6.805
				c-6.434,1.892-3.238,6.392-2.553,10.339c0.683,3.951,3.97,26.313-6.968,34.534L94.311,261.467z"/>
			<path fill="#0F99C5" d="M228.445,248.714c0,0-5.899-24.202-7.744-30.819c0,0,1.525-6.03,5.107-0.642
				c3.589,5.388,3.074,17.561,3.074,17.561s1.249,10.508,5.862,11.587C239.361,247.476,228.445,248.714,228.445,248.714z"/>
			<g>
				<g>
					<g>
						<path fill="#C8E1ED" d="M187.779,374.128c0,0-4.001,8.214-3.086,21.156c0,0,45.139,13.036,91.25,2.697
							c0,0,7.364-37.333-39.919-36.623c-9.563,0.144-11.118,1.78-11.118,1.78S194.348,359.768,187.779,374.128z"/>
						<path fill="#FFFFFF" d="M237.911,403.007c-29.872,0-53.272-6.657-53.507-6.723l-0.699-0.202l-0.048-0.727
							c-0.924-13.069,3.016-21.339,3.187-21.681c4.737-10.37,21.132-11.921,30.479-11.921c3.599,0,6.31,0.216,7.297,0.312
							c1.033-0.623,3.867-1.635,11.389-1.747l1.331-0.009c15.479,0,26.711,4.119,33.39,12.242
							c9.003,10.954,6.356,25.034,6.237,25.631l-0.136,0.668l-0.659,0.148C264.298,401.658,251.427,403.007,237.911,403.007
							L237.911,403.007z M185.688,394.474c4.093,1.094,25.539,6.449,52.224,6.449c13.1,0,25.579-1.276,37.111-3.804
							c0.393-2.858,1.405-14.368-5.918-23.262c-6.264-7.606-16.953-11.464-31.765-11.464l-1.303,0.007
							c-8.592,0.128-10.415,1.498-10.436,1.51l-0.353,0.378l-0.458-0.11c-0.033-0.006-3.124-0.34-7.468-0.34
							c-8.847,0-24.328,1.392-28.597,10.726C188.677,374.664,185.002,382.419,185.688,394.474L185.688,394.474z"/>
					</g>
					<g>
						<defs>
							<path id="SVGID_5_" d="M187.779,374.128c0,0-4.001,8.214-3.086,21.156c0,0,46.199,15.112,92.304,4.771
								c0,0,6.311-39.407-40.973-38.697c-9.563,0.144-11.118,1.78-11.118,1.78S194.348,359.768,187.779,374.128z"/>
						</defs>
						<defs>
							<path id="SVGID_6_" d="M242.489,404.716c-31.938,0-57.863-8.361-58.117-8.444l-0.667-0.217l-0.048-0.699
								c-0.924-13.069,3.016-21.339,3.187-21.681c4.737-10.37,21.132-11.921,30.479-11.921c3.599,0,6.31,0.216,7.297,0.312
								c1.033-0.623,3.867-1.635,11.389-1.747l1.267-0.009c15.121,0,26.322,4.139,33.283,12.308
								c9.895,11.604,7.571,26.955,7.468,27.603l-0.112,0.698l-0.686,0.154C266.447,403.492,254.763,404.716,242.489,404.716
								L242.489,404.716z M185.408,387.391c4.244,1.293,28.375,8.624,57.123,8.624c11.849,0,22.926-1.169,33.354-3.449
								c0.316-3.072,1.207-9.094-6.923-18.614c-6.55-7.67-17.21-11.558-31.687-11.558l-1.238,0.007
								c-8.592,0.128-10.415,1.498-10.436,1.51l-0.353,0.378l-0.458-0.11c-0.033-0.006-3.124-0.34-7.468-0.34
								c-8.847,0-24.328,1.392-28.597,10.726c-0.05,0.101-3.73,7.866-3.039,19.939L185.408,387.391z M227.6,360.979l27.068,8.368
								c0,0-8.481,15.458-7.193,34.821c0,0-1.726-0.248-6.173-0.165c-20.938,0.393-46.319-5.004-46.319-5.004
								s10.359-30.56-2.622-32.872l32.222-8.535L227.6,360.979z"/>
						</defs>
						<use xlink:href="#SVGID_5_"  overflow="visible" fill="#C8E1ED"/>
						<use xlink:href="#SVGID_6_"  overflow="visible" fill="#FFFFFF"/>
						<clipPath id="SVGID_7_">
							<use xlink:href="#SVGID_5_"  overflow="visible"/>
						</clipPath>
						<clipPath id="SVGID_8_" clip-path="url(#SVGID_7_)">
							<use xlink:href="#SVGID_6_"  overflow="visible"/>
						</clipPath>
						<g clip-path="url(#SVGID_8_)">
							<g>
								<path fill="#FBF9E4" d="M196.342,398.188l45.461,8.281l4.162-6.299c-0.973-16.015,4.828-26.764,7.048-30.242l-26.001-8.04
									l-2.784-3.127l-28.588,7.575c0.941,0.642,1.736,1.509,2.374,2.586C202.574,376.641,197.773,393.582,196.342,398.188
									L196.342,398.188z M242.784,408.769l-49.179-8.96l0.391-1.147c0.069-0.202,6.932-20.713,2.222-28.675
									c-0.937-1.589-2.26-2.513-4.039-2.83l-0.085-2.035l32.84-8.698l3.25,3.652l28.214,8.716l-0.899,1.185
									c-0.086,0.116-8.675,11.702-7.429,30.409l0.022,0.352L242.784,408.769L242.784,408.769z"/>
							</g>
							<polyline fill="#1FB7EB" points="202.689,396.306 212.426,380.475 221.057,381.074 208.424,405.455 215.148,405.972 
								226.74,381.325 235.163,381.706 224.716,409.218 194.047,406.115 							"/>
							<g>
								<path fill="#C6C6C7" d="M234.761,371.274c-0.072,1.676-1.448,2.974-3.081,2.903c-1.628-0.071-2.89-1.49-2.815-3.166
									c0.07-1.676,1.448-2.972,3.072-2.896C233.566,368.185,234.83,369.601,234.761,371.274z"/>
								<path fill="#010101" d="M231.814,375.224l-0.182-0.006c-2.2-0.1-3.911-2.007-3.811-4.252
									c0.091-2.183,1.838-3.899,3.98-3.899c2.378,0.104,4.095,2.008,3.997,4.252C235.71,373.51,233.955,375.224,231.814,375.224
									L231.814,375.224z M231.89,369.155c-1.11,0-1.941,0.834-1.983,1.897c-0.052,1.103,0.768,2.033,1.822,2.083l0.086,1.044
									v-1.043c1.023,0,1.858-0.838,1.906-1.904c0.043-1.097-0.777-2.031-1.826-2.077
									C231.89,369.155,231.89,369.155,231.89,369.155L231.89,369.155z"/>
							</g>
							<g>
								<path fill="#C6C6C7" d="M246.487,373.322c-0.07,1.674-1.448,2.973-3.076,2.899c-1.626-0.076-2.894-1.495-2.824-3.166
									c0.076-1.673,1.452-2.971,3.08-2.9C245.298,370.231,246.559,371.643,246.487,373.322z"/>
								<path fill="#010101" d="M243.543,377.265l-0.18-0.005c-2.195-0.093-3.908-2.001-3.815-4.246
									c0.099-2.192,1.85-3.901,3.993-3.901c2.376,0.104,4.079,2.009,3.983,4.255C247.435,375.549,245.688,377.265,243.543,377.265
									L243.543,377.265z M243.617,371.193c-1.104,0-1.938,0.844-1.986,1.908c-0.047,1.101,0.773,2.032,1.827,2.078l0.085,1.045
									v-1.044c1.021,0,1.856-0.837,1.898-1.903c0.048-1.102-0.768-2.035-1.822-2.084H243.617L243.617,371.193z"/>
							</g>
							<g>
								<path fill="#FFFFFF" d="M182.815,387.392c0,0,46.408,15.091,96.81,5.412l-0.016,10.407l-99.497,3.146l1.211-13.606"/>
								<path fill="#9CCAE1" d="M178.972,407.435l1.314-14.779l2.074,0.188l-1.104,12.434l97.312-3.073l0.012-8.145
									c-49.616,9.139-95.628-5.526-96.09-5.677l0.644-1.982c0.465,0.149,46.758,14.896,96.294,5.38l1.242-0.236l-0.021,12.678
									L178.972,407.435L178.972,407.435z"/>
							</g>
						</g>
					</g>
				</g>
				<g>
					<path fill="#FFFFFF" d="M251.427,361.085c-5.438,0.729-8.527,9.131-8.73,10.089c-0.174,0.838,0.229,0.544,0.826,0.814
						c0.46,0.212,0.448,0.783,0.801,0.977c1.027,0.574,1.806-1.724,2.104-2.335c0.754-1.505,4.929-7.882,8.787-8.419
						C255.219,361.043,251.497,361.09,251.427,361.085z"/>
					<path fill="#9CCAE1" d="M244.653,373.575L244.653,373.575c-0.203,0-0.399-0.052-0.586-0.157
						c-0.299-0.166-0.435-0.437-0.545-0.655c-0.095-0.182-0.143-0.27-0.217-0.302c-0.12-0.057-0.232-0.077-0.352-0.1
						c-0.216-0.039-0.502-0.096-0.685-0.368c-0.184-0.281-0.147-0.623-0.084-0.928c0.25-1.187,3.445-9.729,9.171-10.497
						c3.002,0.032,4.382,0.57,4.378,1.648l-0.001,0.448l-0.448,0.062c-3.533,0.491-7.563,6.487-8.389,8.136l-0.147,0.34
						C246.338,372.145,245.719,373.575,244.653,373.575L244.653,373.575z M243.191,371.344c0.2,0.044,0.363,0.086,0.548,0.172
						c0.417,0.19,0.594,0.545,0.711,0.778c0.038,0.077,0.096,0.191,0.128,0.214l0.075,0.025l0,0c0.172,0,0.512-0.307,1.134-1.748
						c0.071-0.155,0.13-0.287,0.178-0.383c0.572-1.152,4.314-7.122,8.228-8.475c-0.457-0.149-1.283-0.304-2.692-0.322
						c-5.067,0.672-8.072,8.632-8.296,9.675C243.199,371.308,243.195,371.328,243.191,371.344L243.191,371.344z"/>
				</g>
				<g>
					<path fill="#FFFFFF" d="M240.038,359.048c-5.431,0.729-8.534,9.132-8.732,10.09c-0.172,0.832,0.235,0.539,0.827,0.813
						c0.466,0.215,0.45,0.784,0.801,0.979c1.028,0.573,1.806-1.726,2.109-2.335c0.748-1.505,4.922-7.888,8.783-8.421
						C243.826,359.001,240.108,359.056,240.038,359.048z"/>
					<path fill="#9CCAE1" d="M233.265,371.54L233.265,371.54c-0.202,0-0.398-0.051-0.588-0.157c-0.298-0.166-0.44-0.448-0.544-0.653
						c-0.09-0.185-0.139-0.271-0.217-0.308c-0.123-0.053-0.236-0.074-0.354-0.097c-0.213-0.042-0.499-0.099-0.681-0.379
						c-0.189-0.275-0.149-0.616-0.085-0.914c0.251-1.188,3.429-9.729,9.173-10.499c3,0.031,4.379,0.57,4.374,1.645v0.453
						l-0.447,0.062c-3.495,0.479-7.597,6.549-8.384,8.135l-0.159,0.349C234.943,370.116,234.324,371.54,233.265,371.54
						L233.265,371.54z M231.803,369.31c0.199,0.042,0.364,0.085,0.551,0.17c0.414,0.191,0.597,0.546,0.714,0.783
						c0.036,0.074,0.095,0.187,0.121,0.21l0.076,0.025l0,0c0.169,0,0.505-0.304,1.134-1.737c0.07-0.162,0.131-0.3,0.18-0.4
						c0.572-1.146,4.303-7.12,8.225-8.468c-0.456-0.151-1.278-0.306-2.685-0.319c-5.047,0.666-8.111,8.774-8.304,9.671
						C231.81,369.269,231.806,369.286,231.803,369.31L231.803,369.31z"/>
				</g>
			</g>
			<g>
				<g>
					<path fill="#FAD3D2" d="M50.799,306.98c4.237,1.363-0.842,20.388-0.437,25.058c0.319,3.674,1.082,8.609,4.657,10.021
						c1.802,0.709,4.072-0.635,5.484-0.186c1.983,0.635,1.99,2.813,4.432,3.366c1.896,0.433,3.377-1.783,5.157-1.373
						c1.705,0.401,2.344,2.378,3.929,3.21c3.26,1.696,7.774,2.684,11.122,1.148c5.422-2.495,1.769-5.131,3.539-9.262
						c1.279-2.972,5.025-4.156,6.427-7.42c4.333-10.122-3.959-17.772-9.862-25.103c-9.196-11.421-18.053,0.127-28.649-4.432"/>
					<path fill="#C78C8F" d="M81.325,350.033c-2.782,0-5.625-0.908-7.786-2.037c-0.876-0.457-1.49-1.16-2.031-1.779
						c-0.554-0.641-1.034-1.188-1.658-1.338c-0.496-0.121-1.079,0.209-1.764,0.577c-0.905,0.494-2.031,1.112-3.384,0.801
						c-1.668-0.383-2.463-1.379-3.097-2.18c-0.517-0.648-0.836-1.025-1.422-1.214c-0.374-0.116-1.095,0.027-1.797,0.166
						c-1.159,0.233-2.479,0.499-3.751,0c-4.003-1.582-4.941-6.658-5.314-10.898c-0.144-1.681,0.331-4.845,0.883-8.512
						c0.733-4.871,2.257-15.009,0.274-15.647l0.64-1.985c3.413,1.103,2.67,7.821,1.146,17.944c-0.506,3.388-0.988,6.584-0.862,8.019
						c0.317,3.646,1.06,7.979,4.001,9.141c0.698,0.275,1.652,0.084,2.575-0.103c0.957-0.198,1.947-0.391,2.84-0.107
						c1.22,0.393,1.856,1.193,2.42,1.902c0.542,0.685,0.971,1.224,1.929,1.442c0.586,0.136,1.204-0.207,1.93-0.598
						c0.922-0.502,1.967-1.07,3.229-0.773c1.279,0.297,2.062,1.201,2.756,1.995c0.458,0.526,0.896,1.025,1.422,1.302
						c2.734,1.425,7.048,2.574,10.201,1.127c2.702-1.247,2.627-2.2,2.473-4.098c-0.102-1.258-0.23-2.823,0.546-4.629
						c0.721-1.677,2.065-2.805,3.36-3.906c1.257-1.064,2.443-2.065,3.064-3.513c3.534-8.257-2.017-14.852-7.387-21.231
						c-0.793-0.942-1.577-1.875-2.328-2.806c-4.957-6.157-9.663-5.123-15.115-3.936c-4.131,0.905-8.405,1.838-13.132-0.191
						l0.823-1.915c4.112,1.768,8.051,0.908,11.862,0.071c5.617-1.227,11.417-2.494,17.187,4.665c0.735,0.917,1.513,1.838,2.296,2.77
						c5.509,6.543,11.747,13.957,7.71,23.393c-0.813,1.902-2.313,3.167-3.635,4.283c-1.164,0.986-2.263,1.914-2.792,3.142
						c-0.568,1.328-0.473,2.502-0.381,3.632c0.16,2.021,0.346,4.311-3.68,6.159C84.251,349.779,82.796,350.033,81.325,350.033
						L81.325,350.033z"/>
				</g>
				<path fill="#C78C8F" d="M87.332,339.713c0,0,2.619-8.606,1.077-12.901c-0.656-1.833,2.643-2.884,2.576,1.751
					c-0.032,2.471-2.39,9.574-2.39,9.574"/>
			</g>
			<path fill="#250F17" d="M149.775,127.82c-0.109,2.61-1.702,4.661-3.557,4.577c-1.853-0.087-3.269-2.265-3.155-4.877
				c0.105-2.611,1.703-4.658,3.558-4.575C148.471,123.027,149.887,125.21,149.775,127.82z"/>
			<path fill="#250F17" d="M168.867,128.182c-0.112,2.605-1.705,4.655-3.559,4.573c-1.855-0.083-3.269-2.267-3.155-4.875
				c0.107-2.612,1.699-4.659,3.554-4.576C167.562,123.388,168.977,125.57,168.867,128.182z"/>
			<path fill="#FFFFFF" d="M168.274,129.406c-0.028,0.621-0.406,1.106-0.846,1.088c-0.438-0.021-0.775-0.539-0.746-1.156
				c0.027-0.62,0.401-1.107,0.843-1.088C167.965,128.272,168.297,128.788,168.274,129.406z"/>
			<path fill="#FFFFFF" d="M148.482,129.516c-0.027,0.624-0.405,1.106-0.845,1.085c-0.44-0.017-0.775-0.534-0.749-1.158
				c0.026-0.617,0.398-1.098,0.842-1.08C148.171,128.385,148.506,128.902,148.482,129.516z"/>
			<path fill="#C78C8F" d="M149.955,141.463c0,0,7.702,6.353,13.087,0.219C163.042,141.683,155.863,165.031,149.955,141.463z"/>
			<path fill="#250F17" d="M109.077,135.665c-1.228,0-2.393-0.725-2.889-1.931c-0.663-1.597,0.092-3.42,1.686-4.082
				c1.842-0.768,45.623-18.534,89.671-1.965c1.616,0.609,2.437,2.414,1.828,4.027c-0.605,1.615-2.408,2.436-4.027,1.825
				c-41.686-15.675-84.649,1.709-85.076,1.884C109.878,135.589,109.473,135.665,109.077,135.665L109.077,135.665z"/>
			<path opacity="0.44" fill="#F9A61C" d="M197.373,146.495c-0.035,0.8-0.695,1.422-1.479,1.389
				c-0.778-0.037-1.385-0.714-1.354-1.516c0.039-0.805,0.698-1.425,1.479-1.39C196.802,145.012,197.406,145.689,197.373,146.495z"/>
			<path opacity="0.44" fill="#F9A61C" d="M204.172,140.606c-0.033,0.802-0.693,1.426-1.473,1.389
				c-0.784-0.032-1.387-0.708-1.354-1.515c0.034-0.803,0.696-1.427,1.475-1.389C203.601,139.126,204.209,139.805,204.172,140.606z"
				/>
			<path opacity="0.44" fill="#F9A61C" d="M203.616,149.505c-0.032,0.799-0.693,1.423-1.477,1.388
				c-0.778-0.037-1.386-0.716-1.354-1.516c0.036-0.805,0.695-1.431,1.473-1.392C203.048,148.024,203.647,148.7,203.616,149.505z"/>
			<path opacity="0.44" fill="#F9A61C" d="M209.396,151.039c-0.032,0.801-0.691,1.424-1.475,1.389s-1.388-0.711-1.353-1.516
				c0.03-0.805,0.692-1.424,1.478-1.391C208.826,149.557,209.434,150.233,209.396,151.039z"/>
			<path opacity="0.44" fill="#F9A61C" d="M107.475,153.582c-0.034,0.804-0.693,1.425-1.474,1.392
				c-0.782-0.038-1.387-0.714-1.354-1.519c0.035-0.803,0.694-1.424,1.473-1.391C106.905,152.1,107.509,152.775,107.475,153.582z"/>
			<path opacity="0.44" fill="#F9A61C" d="M100.922,145.285c-0.033,0.801-0.693,1.421-1.477,1.389
				c-0.778-0.036-1.386-0.713-1.351-1.516c0.035-0.808,0.695-1.425,1.475-1.394C100.352,143.802,100.956,144.479,100.922,145.285z"
				/>
			<path opacity="0.44" fill="#F9A61C" d="M94.645,155.559c-0.035,0.804-0.696,1.424-1.479,1.389
				c-0.78-0.035-1.385-0.711-1.353-1.518c0.035-0.801,0.698-1.422,1.476-1.389C94.071,154.078,94.676,154.753,94.645,155.559z"/>
			<path opacity="0.44" fill="#F9A61C" d="M152.938,137.776c-0.027,0.802-0.69,1.425-1.471,1.389
				c-0.778-0.034-1.385-0.715-1.354-1.516c0.033-0.801,0.695-1.425,1.476-1.394C152.368,136.292,152.975,136.974,152.938,137.776z"
				/>
			<path opacity="0.44" fill="#F9A61C" d="M159.195,136.415c-0.033,0.803-0.693,1.424-1.479,1.392
				c-0.777-0.038-1.385-0.717-1.346-1.519c0.03-0.801,0.691-1.423,1.471-1.393C158.623,134.932,159.226,135.61,159.195,136.415z"/>
			<path opacity="0.44" fill="#F9A61C" d="M157.035,133.042c-0.03,0.802-0.691,1.422-1.475,1.391
				c-0.781-0.037-1.384-0.716-1.352-1.518c0.035-0.807,0.695-1.426,1.475-1.392C156.466,131.559,157.071,132.237,157.035,133.042z"
				/>
			<g>
				<defs>
					<path id="SVGID_9_" d="M134.38,157.052c0,0-11.65-3.556-15.563,6.321c-1.971,4.991,4.626,7.467,6.415,6.936
						c1.786-0.523,5.474-2.127,6.672-7.561C132.486,160.111,131.75,158.021,134.38,157.052z"/>
				</defs>
				<clipPath id="SVGID_10_">
					<use xlink:href="#SVGID_9_"  overflow="visible"/>
				</clipPath>
			</g>
			<g>
				<path fill="#FCE600" d="M55.205,126.626c3.189-0.86,8.303,5.181,9.597,8.514c2.125,5.479,4.933,7.221,7.641-1.007
					c-0.373,4.345,7.657,6.588,11.485,8.448c-2.318-2.377-2.351-7.159-2.318-10.219c1.686,3.045,3.975,6.862,7.749,7.095
					c-1.045-9.226-1.597-18.986,2.457-27.69c0.992-2.127,2.129-4.12,3.31-6.119c1.579-2.682,1.498-2.876,3.921-1.845
					c3.699,1.573,6.957,4.887,9.823,7.506c0.33-2.869,0.46-6.275-0.393-8.917c1.965,0.779,19.588,9.694,23.021,11.333
					c-0.766-3.964-2.58-8.633-3.189-12.545c2.499,0.841,13.14,3.433,15.853,4.629c6.528,2.883,12.943,6.314,19.585,8.237
					c-2.532-2.371-5.107-4.701-7.371-7.424c18.034-10.504,39.727,15.136,44.363,19.863c1.862-2.975-3.563-14.875-5.904-17.599
					c9.748-1.071,18.924,11.08,22.665,22.464c-0.895-2.805,0.322-12.785-0.149-15.802c7.893,0.113,35.526,33.648,37.076,37.588
					c-0.404-15.05-5.034-30.758-12.693-43.039c5.028-0.141,5.99,1.597,9.95,4.585c-3.368-5.814-6.564-13.875-11.09-19.009
					c-4.635-5.266-18.032-8.319-24.208-13.034c3.252-0.086,16.085,0.117,19.079,1.12c-0.624-3.796-17.027-21.703-55.93-24.336
					c-51.081-3.458-50.043,10.745-53.076,10.151c-0.295-3.186,2.869-9.095,3.374-12.074c-9.111-1.567-18.947,9.039-26.695,12.781
					c0.114-1.845,1.227-3.797-0.734-4.424c-2.081-0.667-11.442,8.981-14.671,10.711c-0.005-3.133,1.982-10.456-3.062-6.053
					c-3.663,3.196-5.411,9.092-7.536,13.35c-1.828-0.901-3.03-2.288-5.07-2.997c-1.962-0.672-4.088-0.361-5.968-1.096
					c1.92,1.805,4.128,3.634,5.157,6.139c-5.207-3.751-14.711,0.912-19.271,4.056c5.468,0.332,9.763-1.279,14.563,2.434
					c-4.261-0.521-10.113,1.461-12.34,5.395c3.021-0.784,6.118-1.071,8.958,0.405c-1.143,2.729-14.373,12.783-8.733,28.12"/>
				<path fill="#FFCB0A" d="M254.426,154.183c-0.423,0-0.814-0.257-0.971-0.66c-1.729-4.403-26.538-33.766-34.961-36.692
					c0.042,1.465-0.044,3.43-0.135,5.481c-0.141,3.259-0.316,7.314,0.131,8.725c0.176,0.545-0.122,1.132-0.669,1.309
					c-0.553,0.174-1.132-0.121-1.313-0.666c-3.454-10.517-11.342-21.18-19.71-21.788c2.688,4.397,6.769,14.043,4.824,17.15
					c-0.17,0.273-0.453,0.448-0.773,0.485c-0.315,0.03-0.63-0.08-0.854-0.31c-0.367-0.372-0.841-0.88-1.413-1.486
					c-6.228-6.635-24.875-26.519-40.571-18.799c1.772,1.996,3.732,3.823,5.64,5.604l0.81,0.754c0.352,0.328,0.432,0.858,0.191,1.276
					c-0.24,0.415-0.731,0.619-1.193,0.483c-4.919-1.42-9.763-3.68-14.449-5.865c-1.752-0.821-3.506-1.64-5.271-2.417
					c-1.625-0.719-6.446-2.018-10.321-3.063c-1.425-0.385-2.734-0.736-3.764-1.028c0.353,1.593,0.847,3.293,1.332,4.95
					c0.575,1.98,1.173,4.024,1.535,5.905c0.074,0.391-0.075,0.784-0.39,1.023c-0.312,0.242-0.733,0.284-1.088,0.119
					c-1.273-0.615-4.505-2.225-8.167-4.053c-4.592-2.294-10.032-5.007-12.919-6.396c0.291,1.974,0.275,4.354-0.055,7.208
					c-0.044,0.389-0.302,0.718-0.667,0.856c-0.368,0.135-0.781,0.057-1.072-0.205l-1.183-1.1c-2.488-2.312-5.309-4.93-8.341-6.222
					c-0.393-0.166-1.215-0.525-1.425-0.493c-0.133,0.094-0.536,0.78-0.921,1.445l-0.274,0.463c-1.291,2.192-2.34,4.057-3.262,6.034
					c-4.034,8.667-3.337,18.551-2.367,27.132c0.036,0.305-0.069,0.611-0.278,0.831c-0.211,0.226-0.511,0.348-0.819,0.325
					c-2.913-0.176-5.006-2.151-6.537-4.269c0.189,2.115,0.68,4.361,1.916,5.627c0.352,0.36,0.395,0.923,0.096,1.333
					c-0.293,0.415-0.841,0.552-1.301,0.33c-0.735-0.36-1.63-0.729-2.59-1.129c-3.133-1.303-6.811-2.834-8.521-5.153
					c-1.124,2.399-2.35,3.551-3.781,3.587c-1.75-0.02-3.339-1.69-4.746-5.309c-1.241-3.207-6.022-8.525-8.351-7.878
					c-0.374,0.097-0.756-0.018-1.012-0.27c-0.39,0.009-0.854-0.251-1.012-0.682c-4.721-12.835,3.209-22.162,7.019-26.65
					c0.417-0.489,0.826-0.968,1.141-1.369c-1.935-0.67-4.198-0.624-7.147,0.138c-0.404,0.103-0.832-0.042-1.087-0.375
					c-0.256-0.333-0.287-0.785-0.081-1.149c1.826-3.222,5.65-5.189,9.375-5.798c-2.03-0.652-4.071-0.576-6.438-0.488
					c-1.374,0.05-2.787,0.105-4.317,0.013c-0.443-0.025-0.821-0.333-0.94-0.763c-0.121-0.425,0.045-0.883,0.412-1.132
					c4.093-2.824,11.565-6.518,17.214-5.422c-0.757-0.875-1.636-1.684-2.499-2.485l-0.724-0.673
					c-0.364-0.342-0.434-0.896-0.164-1.317c0.263-0.422,0.792-0.593,1.26-0.414c0.835,0.327,1.777,0.419,2.771,0.517
					c1.03,0.1,2.09,0.206,3.155,0.573c1.322,0.454,2.301,1.146,3.247,1.815c0.346,0.246,0.681,0.483,1.028,0.707
					c0.373-0.812,0.746-1.668,1.12-2.537c1.545-3.574,3.298-7.623,6.187-10.146c1.165-1.016,2.669-2.092,3.955-1.426
					c1.543,0.8,1.284,3.317,1.008,5.975c-0.006,0.07-0.014,0.141-0.021,0.208c1.158-0.9,2.589-2.127,3.989-3.332
					c5.556-4.773,8.167-6.809,9.808-6.287c1.957,0.623,1.978,2.232,1.783,3.497c1.863-1.089,3.851-2.484,5.921-3.945
					c6.059-4.26,12.938-9.092,19.58-7.943c0.569,0.098,0.947,0.637,0.854,1.201c-0.216,1.257-0.836,2.919-1.495,4.676
					c-0.639,1.704-1.332,3.563-1.673,5.114c3.134-3.438,11.563-11.81,51.915-9.081c39.406,2.671,56.163,20.812,56.888,25.206
					c0.058,0.36-0.074,0.728-0.351,0.963c-0.278,0.239-0.656,0.313-1.009,0.197c-2.105-0.709-10.057-1.014-15.169-1.075
					c2.349,1.276,5.159,2.47,7.908,3.635c5.291,2.246,10.763,4.565,13.5,7.676c3.179,3.602,5.651,8.475,8.042,13.185
					c1.088,2.144,2.114,4.17,3.166,5.988c0.248,0.431,0.161,0.972-0.214,1.303c-0.37,0.331-0.922,0.346-1.315,0.052
					c-0.74-0.562-1.379-1.08-1.959-1.548c-2.019-1.635-3.146-2.547-5.48-2.779c7.161,12.179,11.463,27.34,11.853,41.923
					c0.015,0.508-0.337,0.95-0.834,1.047C254.562,154.172,254.491,154.183,254.426,154.183L254.426,154.183z M217.35,114.511
					c0.007,0,0.01,0,0.017,0c7.334,0.101,28.79,25.178,35.824,34.84c-1.006-13.684-5.421-27.6-12.344-38.703
					c-0.196-0.317-0.209-0.715-0.031-1.046c0.176-0.328,0.516-0.537,0.887-0.549c3.248-0.09,5.025,0.602,6.722,1.77
					c-0.285-0.558-0.576-1.129-0.869-1.708c-2.331-4.592-4.74-9.343-7.746-12.749c-2.423-2.751-7.673-4.979-12.749-7.134
					c-4.161-1.769-8.462-3.593-11.304-5.762c-0.353-0.269-0.497-0.729-0.361-1.149s0.522-0.709,0.965-0.722
					c2.137-0.057,12.28,0.013,17.331,0.736c-3.602-5.519-20.151-19.563-54.228-21.871c-40.153-2.722-47.6,5.503-50.407,8.602
					c-0.858,0.948-1.604,1.769-2.797,1.536c-0.453-0.085-0.794-0.465-0.837-0.925c-0.204-2.182,0.911-5.166,1.994-8.057
					c0.437-1.162,0.854-2.282,1.13-3.216c-5.485-0.308-11.552,3.949-16.919,7.722c-2.833,1.991-5.508,3.873-8.036,5.095
					c-0.333,0.159-0.726,0.132-1.034-0.074c-0.309-0.203-0.482-0.562-0.458-0.931c0.031-0.521,0.136-1.049,0.237-1.56
					c0.323-1.621,0.189-1.663-0.249-1.803c-1.004,0.032-5.268,3.695-7.813,5.883c-2.507,2.154-4.677,4.016-6.047,4.755
					c-0.323,0.178-0.712,0.163-1.028-0.026c-0.313-0.186-0.506-0.525-0.507-0.891c0-0.691,0.087-1.583,0.184-2.511
					c0.122-1.187,0.348-3.366,0.053-3.925c-0.043,0.083-0.527,0.25-1.573,1.16c-2.532,2.212-4.115,5.868-5.644,9.401
					c-0.548,1.271-1.084,2.507-1.648,3.632c-0.251,0.514-0.872,0.727-1.389,0.47c-0.846-0.416-1.546-0.914-2.229-1.394
					c-0.863-0.612-1.679-1.192-2.722-1.55c-0.744-0.256-1.541-0.353-2.383-0.438c1.153,1.184,2.228,2.511,2.877,4.092
					c0.176,0.433,0.049,0.928-0.32,1.217c-0.364,0.288-0.874,0.298-1.252,0.027c-3.752-2.701-10.332-0.354-14.97,2.172
					c0.16-0.005,0.322-0.009,0.482-0.015c3.717-0.144,7.225-0.272,11.025,2.668c0.373,0.284,0.506,0.786,0.326,1.224
					c-0.177,0.429-0.625,0.702-1.088,0.632c-2.991-0.357-6.95,0.659-9.503,2.769c2.116-0.244,4.449-0.109,6.726,1.071
					c0.482,0.25,0.693,0.83,0.48,1.333c-0.29,0.691-0.994,1.523-2.064,2.776c-3.781,4.453-10.783,12.688-6.8,24.165
					c4.088-0.679,9.258,5.961,10.515,9.212c1.142,2.938,2.184,3.975,2.735,3.975c0.005,0,0.01,0,0.013,0
					c0.136-0.001,1.368-0.168,2.931-4.93c0.168-0.502,0.68-0.796,1.201-0.696c0.517,0.107,0.874,0.585,0.826,1.112
					c-0.231,2.677,4.439,4.675,7.979,6.148c-0.949-2.717-0.917-5.987-0.896-8.021c0.007-0.47,0.329-0.881,0.79-0.998
					c0.458-0.119,0.936,0.091,1.167,0.505c1.462,2.642,3.203,5.447,5.644,6.306c-0.91-8.527-1.335-18.158,2.707-26.833
					c0.955-2.052,2.031-3.971,3.355-6.212l0.268-0.46c1.512-2.582,2.106-3.021,4.962-1.816c3.207,1.364,6.045,3.927,8.565,6.264
					c0.16-2.646-0.021-4.791-0.538-6.392c-0.123-0.385-0.013-0.806,0.283-1.083c0.293-0.276,0.725-0.356,1.097-0.209
					c1.274,0.509,8.538,4.135,14.943,7.332c2.393,1.192,4.598,2.293,6.191,3.082c-0.305-1.188-0.665-2.42-1.013-3.624
					c-0.672-2.313-1.367-4.7-1.708-6.871c-0.053-0.357,0.08-0.719,0.36-0.953c0.28-0.237,0.664-0.303,1.003-0.189
					c0.905,0.301,2.951,0.851,5.32,1.492c4.149,1.118,8.852,2.386,10.621,3.169c1.777,0.785,3.545,1.609,5.314,2.432
					c3.16,1.477,6.398,2.987,9.656,4.235c-1.372-1.333-2.723-2.729-3.979-4.235c-0.193-0.236-0.279-0.546-0.223-0.849
					c0.05-0.299,0.236-0.566,0.502-0.72c17.337-10.093,37.586,11.479,44.248,18.576c-0.263-3.937-4.06-12.408-6.057-14.733
					c-0.248-0.292-0.318-0.701-0.174-1.06c0.138-0.362,0.467-0.612,0.852-0.654c8.503-0.916,16.682,7.53,21.438,17.404
					c0.03-0.992,0.076-2.02,0.122-3.034c0.11-2.606,0.229-5.302,0.04-6.508c-0.045-0.304,0.042-0.613,0.243-0.843
					C216.764,114.639,217.051,114.511,217.35,114.511L217.35,114.511z"/>
			</g>
			<g>
				<path fill="#7CA8B8" d="M175.988,374.783c1.15,7.755,0.677,1.191,6.468,8.384c6.359,7.888,7.806-25.262,57.308-22.188
					c13.887,2.331-4.294-6.187,1.744-8.381c0,0,9.508-12.729-21.843-9.503C195.483,345.582,174.832,367.029,175.988,374.783z"/>
				<path fill="#4E869E" d="M184.392,385.424L184.392,385.424c-0.979,0-1.876-0.526-2.743-1.603
					c-2.481-3.076-3.65-3.407-4.273-3.583c-1.644-0.46-1.83-1.317-2.419-5.3c-0.38-2.548,1.17-6.222,4.368-10.344
					c7.477-9.626,23.256-20.788,40.233-22.536c13.654-1.406,21.668,0.021,23.794,4.264c1.645,3.277-0.899,6.745-1.005,6.898
					l-0.188,0.245l-0.294,0.108c-0.446,0.161-0.574,0.317-0.586,0.358c-0.133,0.607,1.644,2.406,2.494,3.265
					c1.567,1.581,2.805,2.829,2.279,4.083c-0.477,1.139-2.022,1.139-2.603,1.139c-0.934,0-2.194-0.137-3.857-0.412
					c-2.028-0.122-4.134-0.188-6.159-0.188c-27.768,0-38.014,12.435-43.522,19.122C187.685,383.641,186.215,385.424,184.392,385.424
					L184.392,385.424z M177.76,378.199c0.035,0,0.101,0.012,0.174,0.03c1.18,0.332,2.66,0.968,5.335,4.28
					c0.304,0.38,0.748,0.833,1.123,0.833l0,0c0.841,0,2.263-1.727,3.913-3.728c5.724-6.949,16.384-19.883,45.129-19.883
					c2.069,0,4.22,0.069,6.396,0.207c1.943,0.316,3.331,0.432,4.004,0.384c-0.369-0.48-1.046-1.162-1.542-1.659
					c-1.683-1.705-3.433-3.468-3.042-5.189c0.165-0.751,0.695-1.333,1.572-1.728c0.427-0.672,1.553-2.741,0.666-4.496
					c-0.839-1.66-3.725-3.637-12.72-3.637c-2.627,0-5.651,0.176-8.995,0.518c-16.369,1.685-31.589,12.453-38.802,21.746
					c-2.76,3.554-4.24,6.825-3.954,8.751c0.169,1.136,0.485,3.25,0.722,3.574C177.742,378.199,177.749,378.199,177.76,378.199
					L177.76,378.199z"/>
			</g>
			<g>
				<g>
					<path fill="#C8E1ED" d="M80.995,381.848c0,0-5.746,9.674-4.883,21.921c0,0,42.365,13.352,85.988,3.566
						c0,0,9.416-32.861-35.457-37.573c-9.002-0.941-11.604-0.839-11.604-0.839S87.212,368.264,80.995,381.848z"/>
					<path fill="#FFFFFF" d="M128.076,411.96c-29.091,0-52.045-7.124-52.275-7.202l-0.673-0.211l-0.053-0.706
						c-0.875-12.427,4.783-22.117,5.025-22.524c5.842-12.787,29.611-13.437,34.317-13.437l0.65,0.005l0.273-0.005
						c1.011,0,4.143,0.083,11.41,0.847c15.727,1.651,26.672,6.896,32.542,15.592c7.281,10.791,3.96,22.798,3.814,23.304
						l-0.172,0.597l-0.606,0.134C151.653,410.743,140.125,411.96,128.076,411.96L128.076,411.96z M77.109,402.979
						c3.999,1.16,24.999,6.897,50.967,6.897c11.661,0,22.816-1.149,33.166-3.417c0.541-2.483,2.172-12.322-3.693-21.002
						c-5.512-8.146-15.945-13.078-31.017-14.661c-7.37-0.772-10.428-0.833-11.193-0.833l-0.257,0.006l-0.666-0.006
						c-2.747,0-26.994,0.348-32.473,12.317C81.837,382.474,76.547,391.558,77.109,402.979L77.109,402.979z"/>
				</g>
				<g>
					<g>
						<path fill="#FFFFFF" d="M142.23,371.242l-7.423,10.945c0,0,14.386,1.468,16.567,19.444l11.817-1.123
							C163.192,400.509,167.419,376.493,142.23,371.242z"/>
						<path fill="#9CCAE1" d="M150.464,402.764l-0.122-1.01c-2.058-16.946-15.505-18.516-15.642-18.531l-1.736-0.174l8.792-12.969
							l0.686,0.143c25.876,5.395,21.82,30.219,21.777,30.466l-0.138,0.782L150.464,402.764L150.464,402.764z M136.544,381.479
							c3.902,1.02,13.602,4.937,15.729,19.019l10.003-0.946c0.474-4.087,1.386-22.382-19.581-27.142L136.544,381.479
							L136.544,381.479z"/>
					</g>
					<g>
						<defs>
							<path id="SVGID_11_" d="M80.995,381.848c0,0-5.746,9.674-4.883,21.921c0,0,42.365,13.352,85.988,3.566
								c0,0,9.416-32.861-35.457-37.573c-9.002-0.941-11.604-0.839-11.604-0.839S87.212,368.264,80.995,381.848z"/>
						</defs>
						<clipPath id="SVGID_12_">
							<use xlink:href="#SVGID_11_"  overflow="visible"/>
						</clipPath>
						<g clip-path="url(#SVGID_12_)">
							<path fill="#FFFFFF" d="M72.98,395.652c0.803,0.038,40.365,13.356,93.154,4.988l-0.639,8.771l-43.736,9.323l-40.572-8.415
								l-10.768-4.605"/>
							<path fill="#9CCAE1" d="M121.767,419.799l-0.216-0.041l-40.572-8.421l-10.97-4.664l0.819-1.919l10.769,4.605l40.161,8.309
								l42.752-9.114l0.488-6.682c-43.275,6.596-78.209-1.242-91.309-4.951c-0.459-0.129-0.751-0.214-0.87-0.236l0.203-2.071
								c0.191,0.007,0.332,0.048,1.236,0.304c13.094,3.702,48.242,11.58,91.71,4.692l1.298-0.207l-0.793,10.863L121.767,419.799
								L121.767,419.799z"/>
						</g>
					</g>
					<g>
						<path fill="#FFFFFF" d="M98.913,368.444l6.468,11.566c0,0-14.454,0.179-18.145,17.89l-11.674-2.169
							C75.562,395.731,73.373,371.43,98.913,368.444z"/>
						<path fill="#9CCAE1" d="M88.046,399.113l-13.452-2.501l-0.069-0.789c-0.024-0.254-1.978-25.349,24.269-28.411l0.69-0.079
							l7.659,13.691l-1.747,0.032c-0.556,0.004-13.672,0.419-17.142,17.06L88.046,399.113L88.046,399.113z M76.556,394.853
							l9.881,1.84c3.312-13.833,13.294-16.873,17.272-17.54l-5.361-9.587C77.008,372.442,76.417,390.755,76.556,394.853
							L76.556,394.853z"/>
					</g>
					<g>
						<path fill="#C6C6C7" d="M146.288,380.385c-0.811,1.352-2.006,2.099-2.669,1.676c-0.663-0.419-0.546-1.858,0.262-3.206
							c0.811-1.351,2.009-2.104,2.673-1.675C147.22,377.604,147.101,379.035,146.288,380.385z"/>
						<path fill="#010101" d="M144.045,382.965c-0.312,0-0.594-0.082-0.845-0.241c-1.072-0.679-1.066-2.476,0.009-4.271
							c1.044-1.738,2.731-2.589,3.764-1.934c1.071,0.677,1.065,2.474-0.016,4.268C146.165,382.109,145.021,382.965,144.045,382.965
							L144.045,382.965z M146.128,377.837c-0.293,0.006-0.998,0.455-1.579,1.42c-0.648,1.086-0.648,2.002-0.506,2.152l0.002-0.009
							c0.291,0,0.995-0.452,1.576-1.414C146.27,378.903,146.27,377.984,146.128,377.837L146.128,377.837z"/>
					</g>
					<g>
						<path fill="#C6C6C7" d="M97.395,376.751c0.695,1.418,1.822,2.273,2.52,1.91c0.698-0.36,0.701-1.802,0.008-3.219
							c-0.693-1.414-1.825-2.271-2.524-1.908C96.7,373.896,96.698,375.34,97.395,376.751z"/>
						<path fill="#010101" d="M99.563,379.525H99.56c-1.015,0-2.142-0.952-2.87-2.428c-0.921-1.883-0.775-3.672,0.354-4.254
							c1.085-0.567,2.677,0.409,3.581,2.255c0.921,1.886,0.775,3.675-0.353,4.257C100.054,379.468,99.813,379.525,99.563,379.525
							L99.563,379.525z M97.753,374.232c-0.128,0.122-0.243,0.993,0.341,2.176c0.533,1.088,1.229,1.556,1.469,1.556l-0.003,0.78
							l0.009-0.78c0.119-0.121,0.232-0.989-0.348-2.179C98.688,374.702,97.991,374.232,97.753,374.232L97.753,374.232z"/>
					</g>
					<g>
						<path fill="#FFFFFF" d="M99.233,377.441c0,0,22.597-7.649,44.5,3.629c0,0,2.574-0.537,2.368-3.07
							c-0.214-2.527-30.688-12.771-48.02-3.57C98.082,374.43,97.251,376.585,99.233,377.441z"/>
						<path fill="#9CCAE1" d="M143.659,381.619l-0.165-0.084c-7.869-4.05-16.701-6.104-26.248-6.104
							c-10.324,0-17.771,2.476-17.846,2.502l-0.189,0.066l-0.185-0.081c-1.935-0.834-1.781-2.768-1.431-3.676l0.072-0.181
							l0.172-0.091c4.78-2.54,10.89-3.825,18.159-3.825c14.61,0,30.42,5.418,30.617,7.813c0.199,2.359-1.731,3.405-2.776,3.623
							L143.659,381.619L143.659,381.619z M117.247,374.388c9.641,0,18.573,2.063,26.543,6.129c0.504-0.157,1.933-0.757,1.791-2.473
							c-0.536-1.356-14.44-6.853-29.582-6.853c-7.003,0-12.884,1.208-17.485,3.602c-0.123,0.441-0.291,1.524,0.758,2.088
							C100.554,376.479,107.71,374.388,117.247,374.388L117.247,374.388z"/>
					</g>
					<path fill="#1FB7EB" d="M155.613,400.229c0,0,2.129-7.683-5.601-13.729c0.138-0.649,5.129-2.619,4.813-2.851
						c7.897,4.845,6.463,15.957,6.463,15.957L155.613,400.229z"/>
					<path fill="#1FB7EB" d="M82.994,396.056c0,0-1.474-7.844,6.737-13.173c-0.086-0.666-4.891-3.069-4.558-3.272
						c-7.827,4.193-7.786,15.317-7.786,15.317L82.994,396.056z"/>
				</g>
			</g>
			<g>
				<path fill="#7CA8B8" d="M72.792,365.008c-0.78,7.807,9.481-0.446,6.811,9.456c-2.674,9.896,24.885-23.718,76.505,2.109
					c13.723,5.84-2.851-7.098,3.933-7.664c0,0,2.365-13.4-30.766-18.363C103.709,346.718,73.57,357.205,72.792,365.008z"/>
				<path fill="#4E869E" d="M160.934,379.126L160.934,379.126c-1.03,0-2.643-0.492-5.23-1.593
					c-13.153-6.58-26.02-9.899-38.302-9.899c-15.21,0-26.154,5.096-32.037,7.834c-2.563,1.196-4.113,1.921-5.201,1.921
					c-0.762,0-1.189-0.353-1.413-0.646c-0.554-0.719-0.373-1.743-0.154-2.552c0.656-2.425,0.377-3.31,0.154-3.622
					c-0.345-0.483-1.3-0.54-2.306-0.605c-1.348-0.083-2.876-0.179-3.874-1.353c-0.716-0.838-0.982-2.053-0.817-3.705
					c0.79-7.882,24.483-16.218,46.097-16.218c4.022,0,7.918,0.275,11.578,0.826c18.856,2.826,26.438,8.454,29.475,12.679
					c2.684,3.729,2.188,6.77,2.165,6.896l-0.142,0.79l-0.798,0.066c-0.539,0.044-0.715,0.179-0.73,0.206
					c-0.273,0.543,1.14,2.799,1.742,3.764c1.189,1.902,2.052,3.272,1.439,4.377C162.371,378.673,161.913,379.126,160.934,379.126
					L160.934,379.126z M117.401,365.546c12.609,0,25.788,3.396,39.177,10.095c2.138,0.907,3.313,1.256,3.949,1.359
					c-0.261-0.556-0.778-1.381-1.152-1.983c-1.298-2.066-2.638-4.208-1.842-5.799c0.287-0.571,0.787-0.966,1.501-1.181
					c-0.048-0.916-0.373-2.654-1.898-4.733c-2.839-3.859-10.002-9.029-28.015-11.726c-3.561-0.535-7.349-0.806-11.27-0.806
					c-23.097,0-43.47,8.808-44.024,14.34c-0.068,0.716-0.068,1.677,0.331,2.149c0.425,0.499,1.392,0.561,2.417,0.623
					c1.38,0.085,2.946,0.182,3.869,1.469c0.803,1.115,0.855,2.827,0.167,5.379c-0.062,0.221-0.095,0.39-0.116,0.521
					c0.821-0.193,2.366-0.919,3.993-1.674C90.513,370.774,101.727,365.546,117.401,365.546L117.401,365.546z"/>
			</g>
			<path fill="#FFFFFF" d="M90.158,259.553c-1.129,4.996-1.827,9.96-2.224,14.712c-1.626,19.449,1.796,35.36,1.796,35.36
				c-10.004,6.086-37.392,2.686-37.392,2.686c-9.849-10.524-7.952-33.78-4.61-51.517c1.261-6.689,2.721-12.572,3.844-16.714
				C51.572,244.08,56.682,243.019,90.158,259.553z"/>
			<g>
				<path fill="#FFFFFF" d="M51.946,243.791c-1.12,4.139-2.957,10.313-4.217,17.003c-3.342,17.736-5.239,40.992,4.61,51.517
					c0,0,27.388,3.4,37.392-2.686c0,0-3.422-15.911-1.796-35.36c0.397-4.752,1.095-9.716,2.224-14.712"/>
				<path fill="#9CCAE1" d="M68.599,314.309c-8.418,0-15.803-0.896-16.389-0.966l-0.373-0.047l-0.259-0.276
					c-10.151-10.842-8.252-34.489-4.874-52.419c1.053-5.589,2.526-10.907,3.605-14.79l0.632-2.295l2.009,0.547l-0.634,2.306
					c-1.125,4.06-2.529,9.117-3.563,14.618c-3.261,17.3-5.177,39.993,4.09,50.331c3.241,0.364,26.318,2.756,35.719-2.231
					c-0.643-3.405-3.089-17.903-1.669-34.906c0.433-5.166,1.189-10.166,2.245-14.854l2.034,0.454
					c-1.039,4.602-1.779,9.501-2.203,14.57c-1.591,19.074,1.745,34.896,1.78,35.057l0.158,0.721l-0.634,0.387
					C85.333,313.519,76.51,314.309,68.599,314.309L68.599,314.309z"/>
			</g>
		</g>
		<path opacity="0.41" fill="#FFCB0A" d="M66.31,102.041c-2.774,1.907-2.724,12.636-2.054,15.629
			c0.069-1.998,0.655-3.908,1.815-5.516c0.204,1.775-0.31,3.357,0.002,5.193c0.325,1.931,1.039,3.827,0.741,5.833
			c-0.5,3.371-2.421,3.194-4.895,2.141c1.896,2.637,5.178,3.4,6.211-0.38c0.24,0.843,0.204,1.903,0.656,2.745
			c0.325-1.172,0.606-2.494,1.074-3.688c1.949,2.4,2.684,6.138,5.142,8.336c-0.413-4.325-0.948-8.341-0.826-12.876
			c0.981,2.813,1.63,5.959,2.917,8.585c0.015-3.016,0.922-6.821,2.651-9.283c1.708,3.224,2.05,6.632,4.56,9.604
			c-3.067-6.953-1.103-16.666,2.612-22.929c-2.346,2.465-3.518,5.275-4.52,8.322c-0.416-2.256,0.047-5.375-1.146-7.252
			c-2.525,2.739-2.702,6.389-4.307,9.399c-0.293-2.142,0.399-9.473-2.544-6.994c-2.279,1.913-3.243,7.201-3.438,10.021
			c-1.953-4.258-1.177-10.356-0.354-14.749c-1.69,0.219-2.819,3.93-3.507,5.522c-1.465-1.541-2.067-4.807-1.749-6.986"/>
		<path opacity="0.41" fill="#FFCB0A" d="M94.681,91.583c3.283-0.068,7.04,1.421,10.062,2.628c-0.949-0.996-2.255-1.951-2.803-3.225
			c5.5-0.083,10.856,2.564,16.034,4.011c-0.403-0.679-2.111-3.047-1.591-3.831c0.545-0.819,5.26,0.086,6.182,0.043
			c3.57-0.148,6.934-0.043,10.457,0.588c1.971,0.354,5.118,1.478,6.974,0.877c0.015-1.982-2.517-3.33-2.988-5.147
			c3.315-0.282,6.859,0.852,10.173,1.138c2.847,0.247,6.016-0.5,8.747,0.354c-1.246-0.688-3.424-1.27-3.732-2.777
			c2.63-1.209,7.057-0.144,9.913-0.023c4.21,0.178,7.963,1.697,11.951,2.417c-2.154-1.877-5.155-3.087-7.826-3.917
			c-1.173-0.369-5.504-0.491-5.552-2.378c-0.107-3.97,12.133-5.192,14.294-7.227c-1.724-0.677-3.518-0.979-5.343-1.3
			c-2.207-0.388-6.067-0.161-7.997-1.257c-2.206-1.252,0.125-1.924,1.922-2.958c1.878-1.079,4.093-1.576,5.885-2.677
			c-2.533-1.67-7.564-1.255-10.438-0.776c-2.672,0.447-7.351,0.887-9.343,2.734c2.376-0.505,5.033-1.764,7.462-1.269
			c-1.452,1.396-3.833,2.464-4.341,4.753c2.362,0.597,6.074,0.507,7.522,2.734c-1.691-0.029-6.156,0.83-6.477,3.093
			c-0.251,1.792,2.659,3.332,4.055,4.09c-4.245-1.375-10.035-1.261-14.804-1.179c0.602,0.824,1.556,1.712,2.382,2.422
			c-2.691,0.053-5.146,0.448-7.821,0.825c-2.727,0.377-5.496-0.222-8.159,0.454c0.834,0.865,1.985,1.514,2.608,2.431
			c-3.314,0.294-6.651-1.741-9.894-2.264c-2.321-0.374-4.671-0.161-6.943-0.091c0.045,1.139,0.754,2.063,1.201,3.077
			c-5.249,1.673-11.953,1.186-17.497,0.947c0.266,0.107,0.946,0.964,1.346,1.46c-2.988-0.161-5.909-0.604-9-0.571
			c-0.267,1.333-1.342,2.896-2.457,3.65c-0.858-1.917-0.463-2.642-2.729-2.957c-1.765-0.25-3.411,0.731-5.125,0.934
			c0.057-1.169,0.855-2.118,0.999-3.242c-3,0.379-6.007,2.697-8.286,4.573c1.766,0.074,3.575-0.563,5.137-1.374
			c-0.288,1.257-0.853,2.768-0.395,4.002c2.317-0.55,3.901-2.671,6.156-3.018c0.378,1.461,1.587,6.378,3.281,5.885
			c1.979-0.577,1.619-4.802,4.627-4.848"/>
	</g>
</g>
</svg>
