<?xml version="1.0" encoding="utf-8"?>
<!-- Generator: Adobe Illustrator 16.0.3, SVG Export Plug-In . SVG Version: 6.00 Build 0)  -->
<!DOCTYPE svg PUBLIC "-//W3C//DTD SVG 1.1//EN" "http://www.w3.org/Graphics/SVG/1.1/DTD/svg11.dtd">
<svg version="1.1" id="Layer_1" xmlns="http://www.w3.org/2000/svg" xmlns:xlink="http://www.w3.org/1999/xlink" x="0px" y="0px"
	 width="300px" height="300px" viewBox="0 0 300 300" enable-background="new 0 0 300 300" xml:space="preserve">
<g>
	<defs>
		<circle id="SVGID_1_" cx="150" cy="150" r="140"/>
	</defs>
	<clipPath id="SVGID_2_">
		<use xlink:href="#SVGID_1_"  overflow="visible"/>
	</clipPath>
	
		<circle clip-path="url(#SVGID_2_)" fill="#F58620" stroke="#000000" stroke-width="10" stroke-linecap="round" stroke-linejoin="round" stroke-miterlimit="10" cx="150" cy="150" r="140"/>
	<g clip-path="url(#SVGID_2_)">
		<path fill="#C67B5A" stroke="#914E30" stroke-width="1.1674" d="M22.64,207.892c0,0-7.679,37.787,13.778,83.019
			c0,0,6.358,50.101,37.694,30.159l-6.605-116.74"/>
		<path fill="#C67B5A" stroke="#914E30" stroke-width="1.1674" d="M44.538,299.608c0,0,2.877-1.542,14.497,12.761
			c7.535,9.278,14.499-1.741,14.499-1.741"/>
		<ellipse fill="#C67B5A" stroke="#914E30" stroke-width="1.1674" cx="145.561" cy="145.155" rx="51.791" ry="27.52"/>
		<path fill="#E92231" stroke="#A51E23" stroke-width="1.1674" d="M196.409,124.351l-13.608,20.778c0,0-14.032,19.938-44.304,19.938
			s-40.607-22.89-40.607-22.89l-0.002-14.027c0,0-58.33,5.166-80.483,79.742c0,0,41.347,19.938,72.358,13.29l4.09-41.17
			c15.585,4.891,46.897,11.658,104.552,0.528l6.124,36.848c31.012,6.645,77.955-17.616,77.955-17.616
			C260.332,125.196,196.409,124.351,196.409,124.351z"/>
		<path fill="#4E869E" stroke="#2E6071" stroke-width="1.1674" d="M77.213,335.631c0,0-39.135-56.854-16.981-139.552L72.206,151.5
			l15.842-1.055l1.93,27.509l93.038,2.216l1.664-28.67l17.424,1.584l1.372,61.454c0,0,10.339,6.646,17.724,4.429l16.244-2.213
			c0,0,16.982,56.851,4.43,93.035c-12.551,36.182-9.6,36.921-9.6,36.921l-63.504-1.478l-14.766,8.121l-22.152-8.121"/>
		<path fill="#4E869E" stroke="#2E6071" stroke-width="1.1674" d="M202.216,148.066c0,0,0.412-19.27,10.975-20.854
			c0,0-7.92-5.284-15.841-3.17c0,0-12.671,11.09-12.671,27.458"/>
		<path fill="#4E869E" stroke="#2E6071" stroke-width="1.1674" d="M90.803,148.596c0,0,0.409-19.272,10.975-20.855
			c0,0-7.922-5.285-15.843-3.172c0,0-12.675,11.093-12.675,27.458"/>
		<path fill="#2E6071" d="M125.252,318.818c0,0,29.048,8.447,48.055-1.583c0,0-12.144,10.559-19.007,10.03l-1.59,19.54l0.53,4.752
			l-6.864-0.528l3.694-23.235C150.07,327.794,128.948,325.155,125.252,318.818z"/>
		<g>
			<g>
				<defs>
					<path id="SVGID_3_" d="M147.239,359.487c0,0,3.943,7.857,2.361,19.938c0,0-50.544,12.219-99.834,0.608
						c0,0-5.008-37.163,45.99-34.523c10.317,0.531,11.916,2.136,11.916,2.136S140.804,345.766,147.239,359.487z"/>
				</defs>
				<use xlink:href="#SVGID_3_"  overflow="visible" fill="#93469A"/>
				<clipPath id="SVGID_4_">
					<use xlink:href="#SVGID_3_"  overflow="visible"/>
				</clipPath>
				<g clip-path="url(#SVGID_4_)">
					<path fill="#AB68AB" stroke="#FFFFFF" stroke-width="1.1674" d="M104.864,345.51l-29.601,6.702c0,0,9.108,11.372,6.835,29.449
						l4.779,6.904l51.451-6.09c0,0-9.785-29.047,4.326-30.675l-34.375-9.341L104.864,345.51z"/>
					<path fill="#231F20" stroke="#93469A" stroke-width="1.1674" d="M96.666,354.852c0,1.569,1.432,2.846,3.189,2.846
						c1.761,0,3.189-1.276,3.189-2.846c0-1.57-1.428-2.846-3.189-2.846C98.097,352.006,96.666,353.281,96.666,354.852z"/>
					<path fill="#231F20" stroke="#93469A" stroke-width="1.1674" d="M83.917,356.277c0,1.564,1.424,2.842,3.186,2.842
						c1.763,0,3.192-1.277,3.192-2.842c0-1.575-1.429-2.849-3.192-2.849C85.341,353.429,83.917,354.702,83.917,356.277z"/>
					<path fill="#FFFFFF" stroke="#9CCAE1" stroke-width="1.1674" d="M151.994,372.109c0,0-50.771,12.194-104.729,1.024
						l-0.457,9.749l107.235,7.103l-0.688-12.794"/>
				</g>
				<use xlink:href="#SVGID_3_"  overflow="visible" fill="none" stroke="#9CCAE1" stroke-width="1.1674"/>
			</g>
			<path fill="#FFFFFF" stroke="#9CCAE1" stroke-width="0.5837" d="M79.144,344.611c5.834,0.91,8.792,8.905,8.965,9.814
				c0.149,0.784-0.276,0.496-0.929,0.722c-0.511,0.18-0.523,0.719-0.905,0.886c-1.143,0.493-1.874-1.691-2.178-2.277
				c-0.736-1.436-4.951-7.586-9.09-8.251C75.059,344.412,79.069,344.613,79.144,344.611z"/>
			<path fill="#FFFFFF" stroke="#9CCAE1" stroke-width="0.5837" d="M91.529,343.177c5.832,0.911,8.789,8.909,8.965,9.815
				c0.151,0.79-0.277,0.496-0.931,0.729c-0.512,0.182-0.524,0.713-0.903,0.88c-1.142,0.492-1.873-1.691-2.175-2.271
				c-0.742-1.443-4.952-7.593-9.089-8.25C87.448,342.979,91.454,343.187,91.529,343.177z"/>
			<path fill="#FFFFFF" stroke="#9CCAE1" stroke-width="1.1674" d="M62.042,352.432c0,0,12.756,6.289,11.68,24.072
				c0,0-24.074-1.796-24.074-3.231C49.648,360.973,55.755,353.149,62.042,352.432z"/>
		</g>
		<g>
			<g>
				<path fill="#78337F" stroke="#FFFFFF" stroke-width="1.1674" d="M240.553,361.551c0,0,5.967,8.614,4.42,19.204
					c0,0-48.017,9.939-96.362-0.241c0,0-8.98-28.87,41.446-31.221c10.113-0.473,13.021-0.276,13.021-0.276
					S234.239,349.519,240.553,361.551z"/>
				<g>
					<path fill="#AB68AB" stroke="#FFFFFF" stroke-width="1.1674" d="M172.549,349.973l6.215,8.828c0,0-16.455,4.134-20.372,17.25
						l-10.676-1.498C147.716,374.553,144.118,353.554,172.549,349.973z"/>
					<g>
						<defs>
							<path id="SVGID_5_" d="M240.553,361.551c0,0,5.967,8.614,4.42,19.204c0,0-48.017,9.939-96.362-0.241
								c0,0-8.98-28.87,41.446-31.221c10.113-0.473,13.021-0.276,13.021-0.276S234.239,349.519,240.553,361.551z"/>
						</defs>
						<clipPath id="SVGID_6_">
							<use xlink:href="#SVGID_5_"  overflow="visible"/>
						</clipPath>
						<path clip-path="url(#SVGID_6_)" fill="#FFFFFF" stroke="#9CCAE1" stroke-width="1.1674" d="M248.867,373.836
							c-0.903,0-45.789,10.02-104.448,0.717l0.3,7.633l48.482,9.784l45.788-5.731l12.268-3.574"/>
					</g>
					<path fill="#AB68AB" stroke="#FFFFFF" stroke-width="1.1674" d="M221.138,349.226l-6.528,9.758c0,0,13.125,3.773,18.199,16.249
						l13.168-1.433C245.977,373.8,249.572,352.801,221.138,349.226z"/>
					<path fill="#231F20" stroke="#93469A" stroke-width="1.1674" d="M167.576,357.746c0.844,1.203,2.145,1.898,2.909,1.562
						c0.765-0.342,0.701-1.596-0.145-2.795c-0.839-1.204-2.146-1.902-2.908-1.557C166.667,355.296,166.729,356.545,167.576,357.746z
						"/>
					<path fill="#231F20" stroke="#93469A" stroke-width="1.1674" d="M222.449,356.492c-0.85,1.201-2.151,1.897-2.91,1.56
						c-0.766-0.343-0.706-1.595,0.142-2.797c0.838-1.198,2.147-1.897,2.913-1.558C223.355,354.04,223.292,355.288,222.449,356.492z"
						/>
					<path fill="#FFFFFF" stroke="#9CCAE1" stroke-width="0.5837" d="M220.357,357.019c0,0-24.918-7.51-49.952,1.426
						c0,0-2.857-0.572-2.502-2.76c0.354-2.185,34.93-9.886,53.883-1.233C221.786,354.451,222.616,356.35,220.357,357.019z"/>
				</g>
			</g>
			<path fill="#FFFFFF" stroke="#9CCAE1" stroke-width="1.1674" d="M165.249,375.689c0,0,4.7-14.729,30.361-14.014
				c25.664,0.722,30.365,11.315,31.34,14.553c0,0-12.539,2.335-31.734,2.517c-19.194,0.177-30.163-1.617-30.163-1.617
				L165.249,375.689z"/>
		</g>
		<path fill="#7CA8B8" stroke="#4E869E" stroke-width="1.1674" d="M154.003,353.354c-1.704,8.044,3.39,0.484-4.158,8.52
			c-8.264,8.821-9.043-24.765-71.611-15.542c-17.595,4.086,5.612-6.827-1.935-8.326c0,0-14.917-6.967,24.543-7.541
			C131.277,330.021,155.708,345.316,154.003,353.354z"/>
		<path fill="#7CA8B8" stroke="#4E869E" stroke-width="1.1674" d="M148.832,349.663c-0.705,7.856,1.939,1.82-0.733,11.813
			c-2.678,9.992,30.919-29.332,85.97-4.101c14.623,5.679-3.128-7.094,4.048-7.762c0,0,2.725-9.459-32.425-13.983
			C178.563,332.14,149.54,341.801,148.832,349.663z"/>
		<g>
			<path fill="#C67B5A" stroke="#914E30" stroke-width="1.1674" stroke-linecap="round" stroke-linejoin="round" d="M184.537,134.58
				c13.581-10.669,20.794-26.029,19.537-42.125c-2.163-27.79-27.914-49.061-65.446-46.023c-37.542,3.038-66.209,28.03-64.047,55.816
				c0.27,3.464,1.004,6.805,2.161,9.987c-3.664,1.767-6.076,5.8-5.724,10.331c0.451,5.773,5.207,10.1,10.615,9.661
				c2.516-0.203,4.696-1.425,6.307-3.218c5.743,8.965,12.627,14.334,19.931,17.318"/>
			<g>
				<defs>
					<path id="SVGID_7_" d="M116.877,145.782c-11.514-3.541-21.436-9.593-28.936-16.774c-1.61,1.793-3.791,3.016-6.307,3.218
						c-5.408,0.438-10.164-3.888-10.615-9.661c-0.352-4.531,2.06-8.564,5.724-10.331c-1.157-3.182-1.004-6.932-1.275-10.394
						c-2.167-27.787,27.377-51.332,63.062-54.263c37.53-3.083,62.811,16.155,64.978,43.945c1.788,22.919-13.21,44.989-39.581,53.729
						"/>
				</defs>
				<clipPath id="SVGID_8_">
					<use xlink:href="#SVGID_7_"  overflow="visible"/>
				</clipPath>
				<path clip-path="url(#SVGID_8_)" fill="#57433E" d="M74.616,111.751c0,0,11.466,1.06,17.834-2.184
					c9.729-4.949,0.076-11.76,2.22-19.027c2.036-6.891,1.343-14.291,17.486-16.086c16.139-1.797,28.678-2.33,37.189-16.479
					c8.514-14.146,22.076-7.902,29.712-8.03c7.634-0.13-46.825-21.659-77.471-3.518C70.939,64.567,55.209,93.739,55.209,93.739
					L74.616,111.751z"/>
			</g>
			<g>
				<path fill="#010101" d="M182.315,70.015l-27.106,11.93c-1.183,0.523-1.727,1.925-1.214,3.132l0.063,0.145
					c-2.508-0.484-7.532-0.56-11.561,5.007l-0.032-0.074c-0.513-1.208-1.887-1.77-3.064-1.249l-27.109,11.936
					c-1.183,0.519-1.725,1.921-1.212,3.131l8.199,19.364c0.511,1.211,1.89,1.769,3.071,1.247l27.107-11.933
					c1.177-0.518,1.724-1.918,1.211-3.126l-5.047-11.92c0.878-2.277,3.846-7.862,11.281-5.656l5.296,12.496
					c0.511,1.211,1.886,1.768,3.07,1.247l27.103-11.931c1.183-0.524,1.723-1.929,1.211-3.135l-8.196-19.367
					C184.867,70.048,183.5,69.494,182.315,70.015z M187.768,90.251c0.359,0.844-0.032,1.826-0.871,2.198l-19.205,8.451
					c-0.836,0.373-1.806-0.016-2.163-0.862l-5.721-13.513c-0.362-0.846,0.025-1.831,0.868-2.199l19.197-8.453
					c0.841-0.374,1.809,0.014,2.167,0.858L187.768,90.251z"/>
				<path fill="#AFDEDA" stroke="#231F20" stroke-width="1.1674" d="M179.873,75.873l-19.197,8.453
					c-0.843,0.368-1.23,1.353-0.868,2.199l5.721,13.513c0.357,0.847,1.327,1.235,2.163,0.862l19.205-8.451
					c0.839-0.372,1.23-1.354,0.871-2.198l-5.728-13.52C181.682,75.887,180.714,75.499,179.873,75.873z"/>
				<path fill="#AFDEDA" stroke="#231F20" stroke-width="1.1674" d="M136.526,94.957l-19.206,8.453
					c-0.839,0.369-1.229,1.352-0.875,2.197l5.73,13.521c0.354,0.842,1.323,1.231,2.162,0.858l19.206-8.452
					c0.838-0.366,1.226-1.352,0.866-2.199l-5.726-13.52C138.327,94.974,137.359,94.587,136.526,94.957z"/>
			</g>
			<polygon fill="#010101" points="76.743,112.235 86.006,112.293 89.193,115.214 115.268,114.328 112.1,104.95 75.898,109.198 			
				"/>
			<polyline fill="#010101" points="185.185,72.27 191.951,60.864 196.797,66.1 188.955,81.104 185.103,72.854 			"/>
			<path fill="#914E30" d="M150.995,118.703c0,0,15.971,0.172,21.77-10.821C172.765,107.882,171.641,124.288,150.995,118.703z"/>
			<path fill="none" stroke="#3E2F2A" stroke-width="2.0429" stroke-linecap="round" stroke-linejoin="round" d="M114.368,96.537
				c0,0,3.188-6.622,7.053-7.67c3.867-1.046,8.521-1.423,11.234-4.579"/>
			<path fill="none" stroke="#3E2F2A" stroke-width="2.0429" stroke-linecap="round" stroke-linejoin="round" d="M156.764,70.832
				c0,0,9.348-9.811,21.943-3.24"/>
			<path fill="#C67B5A" d="M156.902,91.949c0,0,11.156,7.762,14.638,14.73l-11.866,3.756"/>
		</g>
		<path fill="#C67B5A" stroke="#914E30" stroke-width="1.1674" d="M213.637,213.128c0,0,13.201,27.847,5.367,66.306
			c0,0-12.889,9.587-15.397,17.692c-2.764,8.921,3.703,16.898,10.106,17.134c6.405,0.236,13.06-13.297,18.442-9.259
			c0,0-9.971,2.134-14.242,8.547c-4.276,6.41,21.362,14.243,21.362,14.243s27.772-3.561,30.625-4.984
			c2.848-1.427,6.653-12.901,6.653-12.901l-1.584-15.839c0,0,24.136-68.831,2.055-101.591"/>
		<path fill="#E92231" stroke="#A51E23" stroke-width="1.1674" d="M204.02,171.626l1.906,47.877
			c31.014,6.648,76.558-19.731,76.558-19.731c-12.146-40.896-36.853-59.619-56.695-68.188"/>
		<path fill="#914E30" d="M81.36,117.624c-3.507-1.22-8.163,2.568-6.767,6.507c0.253,0.713,0.694,1.762,1.567,1.807
			c1.636,0.096,0.665-1.106,0.857-1.878c0.249-1.024-1.172-1.919,0.448-2.554c1.074-0.417,2.139,0.883,2.671,1.515
			c0.976,1.162,1.175,4.098,2.976,4.537c2.925,0.709,1.135-2.639,0.065-3.696c-0.721-0.717-4.318-2.271-4.428-3.106
			c-0.303-2.378,3.864-0.9,4.914-0.84c-0.377-1.034-1.472-1.742-2.565-2.031"/>
		<g>
			<path fill="#FBEE35" stroke="#FFCF35" stroke-width="1.1674" d="M206.064,152.144c0,2.122-1.722,3.845-3.849,3.845h-16.597
				c-2.125,0-3.845-1.723-3.845-3.845v-0.23c0-2.123,1.72-3.847,3.845-3.847h16.597c2.127,0,3.849,1.725,3.849,3.847V152.144z"/>
			<circle fill="#FBEE35" stroke="#FFCF35" stroke-width="1.1674" cx="193.653" cy="147.275" r="3.958"/>
		</g>
		<g>
			<path fill="#FBEE35" stroke="#FFCF35" stroke-width="1.1674" d="M93.32,150.48c0,2.126-1.717,3.848-3.844,3.848H72.878
				c-2.127,0-3.844-1.722-3.844-3.848v-0.229c0-2.125,1.717-3.844,3.844-3.844h16.598c2.127,0,3.844,1.72,3.844,3.844V150.48z"/>
			<circle fill="#FBEE35" stroke="#FFCF35" stroke-width="1.1674" cx="80.913" cy="145.618" r="3.958"/>
		</g>
		<line fill="none" stroke="#2E6071" stroke-width="1.1674" x1="91.742" y1="194.27" x2="184.679" y2="195.856"/>
		<path fill="none" stroke="#2E6071" stroke-width="1.1674" stroke-dasharray="2.3347" d="M88.915,197.403
			c0,0-8.558,14.915-10.265,37.646l51.329,19.55l60.856-16.865c0,0-0.242-27.616-3.666-38.371"/>
	</g>
</g>
</svg>
