<?xml version="1.0" encoding="utf-8"?>
<!-- Generator: Adobe Illustrator 16.0.3, SVG Export Plug-In . SVG Version: 6.00 Build 0)  -->
<!DOCTYPE svg PUBLIC "-//W3C//DTD SVG 1.1 Basic//EN" "http://www.w3.org/Graphics/SVG/1.1/DTD/svg11-basic.dtd" [
	<!ENTITY ns_flows "http://ns.adobe.com/Flows/1.0/">
	<!ENTITY ns_extend "http://ns.adobe.com/Extensibility/1.0/">
	<!ENTITY ns_ai "http://ns.adobe.com/AdobeIllustrator/10.0/">
	<!ENTITY ns_graphs "http://ns.adobe.com/Graphs/1.0/">
]>
<svg version="1.1" baseProfile="basic" id="Layer_1" xmlns:x="&ns_extend;" xmlns:i="&ns_ai;" xmlns:graph="&ns_graphs;"
	 xmlns="http://www.w3.org/2000/svg" xmlns:xlink="http://www.w3.org/1999/xlink" xmlns:a="http://ns.adobe.com/AdobeSVGViewerExtensions/3.0/"
	 x="0px" y="0px" width="760px" height="344px" viewBox="0 0 760 344" xml:space="preserve">
<g>
	<g>
		
			<rect x="194.896" y="140.915" transform="matrix(0.8592 -0.5117 0.5117 0.8592 -23.3547 227.9589)" fill="#FCF4B6" stroke="#F8AD41" stroke-width="1.6699" width="415.163" height="30.991"/>
		<polygon fill="#E6C51F" stroke="#F8AD41" stroke-width="1.6699" points="225.366,266.992 583.071,53.964 588.758,63.511 
			231.05,276.533 		"/>
		
			<rect x="191.307" y="152.107" transform="matrix(-0.8592 0.5117 -0.5117 -0.8592 827.1704 87.6785)" fill="#F7EA31" stroke="#F8AD41" stroke-width="1.6699" width="420.426" height="11.109"/>
		<path fill="#F5D2AD" stroke="#DEAD80" stroke-width="1.6699" d="M232.056,275.936l-73.991,24.324l58.133-50.95
			c0,0,9.319,1.939,5.989,8.344c0,0,8.417,2.128,5.984,10.048C228.17,267.701,236.74,270.089,232.056,275.936z"/>
		<path fill="#010101" d="M158.065,300.26l14.03-12.437c0,0,7.466,1.679,3.79,6.937L158.065,300.26z"/>
		<path fill="#F5A4A8" stroke="#EA2B7B" stroke-width="1.6699" d="M649.778,16.279c2.979,4.993,1.339,11.452-3.653,14.429
			l-15.074,8.976c-4.992,2.976-11.452,1.334-14.424-3.658l-5.984-10.047c-2.977-4.996-1.335-11.452,3.657-14.427l15.069-8.979
			c4.997-2.972,11.456-1.335,14.428,3.66L649.778,16.279z"/>
		
			<rect x="577.997" y="23.251" transform="matrix(0.8592 -0.5117 0.5117 0.8592 64.3924 312.6436)" fill="#CCCCCC" stroke="#4D4D4D" stroke-width="1.6699" width="44.442" height="32.161"/>
		<path fill="#CCCCCC" stroke="#4D4D4D" stroke-width="1.6699" d="M593.427,61.069c1.242,2.081,0.558,4.773-1.527,6.013l0,0
			c-2.077,1.24-4.767,0.556-6.005-1.524l-16.163-27.131c-1.233-2.081-0.556-4.771,1.525-6.01l0,0
			c2.085-1.239,4.773-0.556,6.016,1.524L593.427,61.069z"/>
		<path fill="#CCCCCC" stroke="#4D4D4D" stroke-width="1.6699" d="M602.472,55.684c1.239,2.081,0.553,4.772-1.523,6.012l0,0
			c-2.085,1.238-4.779,0.557-6.012-1.522l-16.155-27.128c-1.242-2.084-0.56-4.776,1.521-6.014l0,0
			c2.085-1.241,4.778-0.559,6.012,1.524L602.472,55.684z"/>
		<path fill="#CCCCCC" stroke="#4D4D4D" stroke-width="1.6699" d="M620.559,44.915c1.238,2.079,0.556,4.769-1.525,6.008l0,0
			c-2.08,1.242-4.773,0.559-6.008-1.522l-16.162-27.129c-1.238-2.083-0.557-4.772,1.524-6.014l0,0
			c2.081-1.238,4.773-0.556,6.013,1.526L620.559,44.915z"/>
		<path fill="#CCCCCC" stroke="#4D4D4D" stroke-width="1.6699" d="M629.6,39.528c1.242,2.083,0.555,4.774-1.525,6.01l0,0
			c-2.081,1.24-4.775,0.559-6.015-1.522l-16.154-27.128c-1.235-2.083-0.554-4.775,1.527-6.012l0,0
			c2.08-1.238,4.771-0.559,6.013,1.522L629.6,39.528z"/>
	</g>
	<g>
		
			<linearGradient id="SVGID_1_" gradientUnits="userSpaceOnUse" x1="461.3643" y1="76.1362" x2="393.2619" y2="16.7641" gradientTransform="matrix(0.9829 0.1843 -0.1843 0.9829 6.2847 -48.0999)">
			<stop  offset="0" style="stop-color:#9F6E29"/>
			<stop  offset="0.0675" style="stop-color:#C88B2F"/>
			<stop  offset="0.0782" style="stop-color:#D39232"/>
			<stop  offset="0.0999" style="stop-color:#E29D38"/>
			<stop  offset="0.1269" style="stop-color:#EEA63D"/>
			<stop  offset="0.1648" style="stop-color:#F6AC40"/>
			<stop  offset="0.2699" style="stop-color:#F8AD41"/>
			<stop  offset="0.3165" style="stop-color:#F8BA3F"/>
			<stop  offset="0.3976" style="stop-color:#F8CC3C"/>
			<stop  offset="0.4868" style="stop-color:#F7DA38"/>
			<stop  offset="0.587" style="stop-color:#F8E335"/>
			<stop  offset="0.7069" style="stop-color:#F8E933"/>
			<stop  offset="0.8992" style="stop-color:#F8ED32"/>
			<a:midPointStop  offset="0" style="stop-color:#9F6E29"/>
			<a:midPointStop  offset="0.5" style="stop-color:#9F6E29"/>
			<a:midPointStop  offset="0.0675" style="stop-color:#C88B2F"/>
			<a:midPointStop  offset="0.13" style="stop-color:#C88B2F"/>
			<a:midPointStop  offset="0.2699" style="stop-color:#F8AD41"/>
			<a:midPointStop  offset="0.2059" style="stop-color:#F8AD41"/>
			<a:midPointStop  offset="0.8992" style="stop-color:#F8ED32"/>
		</linearGradient>
		<path fill="url(#SVGID_1_)"  a:adobe-blending-mode="multiply" d="M502.776,60.107c0,0-14.367,11.818-17.138-0.913
			c-2.767-12.731,14.492-8.658-4.376-22.427c-18.867-13.771-27.559-13.467-27.559-13.467s29.805,22.338,19.216,32.018
			c0,0-15.84,20.954,12.331,18.854c0,0,1.727,5.017-4.468,4.833c-6.202-0.186-13.509-5.274-17.88-4.184
			c-4.372,1.087,15.211,3.388,6.791,9.071c-8.421,5.684-15.381,3.167-8.421,5.684c6.969,2.517,5.634-1.803,8.102-1.354
			c2.472,0.45-5.327,14.083-11.183,8.634c-5.854-5.452-4.491-9.911-6.847-22.877c-2.347-12.967-11.532-9.618-21.977-5.552
			c-10.437,4.058,19.139-4.368,15.189,4.318c-3.947,8.692-9.452,21.489-3.479,22.262c5.98,0.768,10.993-1.146,11.734,2.125
			c0.738,3.271,0.984,1.746,2.767,4.892c1.774,3.143-7.407,6.494-14.15,3.392c-6.737-3.106-7.282-6.027-14.271-7.608
			c-6.989-1.581-28.743,0.115-19.438-15.752c9.304-15.871,8.215-21.711,0.634-24.341c-7.577-2.63,10.028,4.014-0.141,13.457
			c-10.171,9.442-38.63,46.291-14.114,41.646c24.518-4.643,40.221-12.142,34.195-3.201c-6.021,8.94-18.98,14.428-18.046,10.208
			c0.94-4.22-2.223-1.971,2.049-7.153c0,0-10.219,11.313-1.726,10.66c8.492-0.653,10.42,4.714,3.98,6.053
			c0,0-5.774,5.595-9.782,1.893c-4.01-3.704-4.84-6.019-9.908-3.151c-5.07,2.87-2.279-1.494,0.661,2.014
			c2.939,3.51,3.004,7.851-0.876,6.065c-3.875-1.787-12.59-2.825-8.5-9.117c4.088-6.292,4.581-11.346-8.119-10.13
			c-12.701,1.212,14.958,1.089,6.393,7.924c-8.563,6.833-14.569,11.424-8.668,10.87c5.899-0.551,12.571-3.129,11.571,1.018
			c-1,4.146-5.645,11.15-8.819,9.762c-3.178-1.387-1.003-2.617-4.883-4.401c-3.875-1.788-7.518,7.833-9.013-3.26
			c-1.494-11.092,16.19-11.942-6.651-11.757c-22.838,0.186-20.52-6.7-11.379-15.051c9.135-8.354-17.534,8.724-13.398,21.108
			c4.137,12.383,9.912,9.914,17.878,5.405c7.968-4.504,15.404-2.343,12.422,2.527c-2.982,4.867-4.895,9.931-0.744,7.98
			c4.156-1.951,12.275,1.416,5.797,3.486c-6.477,2.072-8.926,0.274-11.14,3.121c-2.216,2.845,1.724,2.206-0.298,4.544
			s-9.353-3.861-11.208-1.221c-1.853,2.64,0.042-1.615,0.661,2.014c0.619,3.63,1.198,8.874-5.325,5.797
			c-6.519-3.077-10.271-2.945-12.465-0.91c-2.193,2.039,5.694,14.292,0.898,6.658c-4.796-7.635,3.94-7.401-1.196-15.64
			c-5.139-8.236-6.715-9.335-4.923-2.786c1.79,6.549,7.672,6.803,2.046,10.381c-5.622,3.58-14.485,8.196-8.457,9.559
			c6.031,1.366,9.354-2.9,9.611,0.933c0.258,3.832-4.409,4.882-4.409,4.882s-4.837,0.745-2.706,1.132
			c2.129,0.384,4.646-0.237,4.646-0.237s30.762-16.606,36.706-18.775c5.942-2.168,8.735,0.232,11.332-3.625
			c2.599-3.855,5.454-3.882,5.454-3.882s2.432,2.607,5.177-0.141c2.752-2.748-0.34-0.603,2.752-2.748
			c3.088-2.146,3.619-2.049,6.854-3.086c3.242-1.034,1.83-1.832,5.112-4.483c3.284-2.651,3.92-6.594,9.824-7.146
			c5.899-0.553,7.839,0.34,9.884-2.807c2.044-3.146,22.024-16.835,27.417-18.292c5.387-1.458,3.75-0.133,7.331-0.566
			c3.572-0.432,6.964-0.359,6.348-3.988c-0.622-3.627-1.284-5.644,1.741-5.363c3.024,0.276,8.033-6.932,12.336-7.774
			c4.302-0.843,5.777-2.469,9.267-6.435c3.496-3.966,13.416-8.387,15.698-6.889c2.282,1.491,4.307,5.92,6.903,2.062
			c2.602-3.856,10.953-9.377,14.042-11.523c3.088-2.143,31.356-18.931,36.042-20.787c4.687-1.854,14.783-5.973,15.082-10.52
			c0.298-4.544-2.049-10.381-7.247-9.432c-5.197,0.952-13.505,4.855-13.553-0.292c-0.04-5.15-5.343,6.607,1.089,6.149
			c6.437-0.455,19.541,3.276,14.154,4.73c-5.396,1.458-1.452,0.819-8.782,1.383c-7.332,0.565-7.695,0.77-7.199,2.482
			c0.487,1.714-8.666,10.872-9.464,0.177c-0.786-10.694,0.895-13.636-4.84-12.782c-5.726,0.854-11.742-1.317-5.411,2.268
			c6.332,3.583,11.638,5.356,5.077,10.658c-6.561,5.303,3.561,7.138-5.263,10.138c-8.819,3-13.267,9.497-12.018,2.419
			c1.259-7.077,6.61-0.153,1.259-7.077c-5.351-6.922-14.767-1.595-13.335-1.609c1.423-0.01,14.32,5.035,7.798,8.721
			c-6.521,3.688-2.834-0.783-5.972-3.787c-3.129-3.004-5.517-0.459-8.048,0.972C495.281,60.577,504.45,56.958,502.776,60.107z"/>
		<path opacity="0.55" fill="#F8E700"  a:adobe-blending-mode="overlay" d="M350.351,137.291c0,0-5.949,4.548-9.625,3.009
			c-3.673-1.538-6.173-4.838-6.001-8.77c0.172-3.932-0.188-6.55,2.018-9.249c2.206-2.702,9.838-10.22,9.838-10.22
			s-10.624,8.374-9.958,13.877c0.669,5.507,5.028,13.967,12.5,8.855c7.472-5.111,13.625-1.692,13.864,0.051
			C362.986,134.844,357.584,130.435,350.351,137.291z"/>
		<path fill="#F8E700" d="M408.085,72.508c0,0-27.712,33.032-21.76,37.547c5.944,4.514,24.43-1.934,24.43-1.934
			S366.851,124.812,408.085,72.508z"/>
		<path opacity="0.57" fill="#F8E700"  a:adobe-blending-mode="overlay" d="M430.913,68.576c0,0,16.106-4.343,15.848,1.557
			c-0.254,5.9-11.161,24.809,4.327,23.746c0,0-12.687,2.72-11.389-2.699c1.299-5.422,7.251-19.028,5.029-22.278
			C442.506,65.652,430.913,68.576,430.913,68.576z"/>
		<path fill="#F8E700"  a:adobe-blending-mode="softLight" d="M424.675,98.837c0,0,6.443,0.361,8.275,2.685
			c1.826,2.325,10.924,9.694,17.811,6.173c6.893-3.524,7.203-5.166,7.203-5.166s-9.783,12.891-18.211,6.497
			C431.324,102.632,431.458,100.392,424.675,98.837z"/>
		<path fill="#F8AD41"  a:adobe-blending-mode="multiply" d="M370.204,158.285c1.693-3.117,5.597-5.339,9.152-5.095
			c3.604,0.249,1.928,0.638,4.085-2.042c1.478-1.831,3.006-1.115,5.104-1.954c1.443-0.578,3.854-2.03,4.871-2.988
			c1.375-1.294,2.366-3.572,3.814-4.876c1.467-1.321,3.149-2.276,4.884-3.318c1.634-0.98,3.169-1.04,4.774-1.731
			c0.271-0.118,1.044-0.031,1.391-0.071c0-0.099,0.102-0.633,0.137-0.728c-2.023-1.339-4.491-1.276-6.508-2.478
			c-1.726-1.03-3.085-2.833-5.005-3.41c1.778,0.002,3.859,2.5,4.166,4.186c0.468,2.596-1.388,2.777-2.959,3.956
			c-1.364,1.022-2.126,3.367-4.706,2.528c-1.981-0.643-2.448-2.681-5.299-2.99c3.277,1.533,5.754,6.293,2.713,8.971
			c-4.395-0.367-5.853,3.016-10.147,3.292c-0.137,0.679-0.75,1.22-0.756,2.034c-2.071,0.344-3.105-1.138-5.057-1.24
			c-0.375-1.631,1.151-3.287,0.345-4.714c-0.713-1.268-3.282-1.675-4.369-1.153c2.243,0.142,2.851,1.353,3.063,3.188
			c0.121,1.057,0.24,4.15-0.144,5.021c-3.006,0.387-3.385,2.833-5.202,4.226c-2.92,2.238-4.291-0.65-7.114,0.077
			c-0.806,3.236-0.862,5.362-4.506,5.973c-3.38,0.57-6.047-0.946-8.835-2.592c2.214,0.284,4.856,2.788,5.791,4.563
			c1.407,2.67,1.465,5.93,5.171,2.59c1.979-1.785,2.411-4.625,4.585-5.993c2.159-1.357,5.895,0.063,6.375-3.5
			c0.357,0.101,0.371-0.063,0.559-0.225"/>
		<path fill="#F8AD41"  a:adobe-blending-mode="multiply" d="M411.783,134.367c2.331,0.354,3.674-2.772,5.464-3.853
			c1.774-1.067,5.218-2.402,4.218-5.39c-1.383-4.121-14.553-1.202-12.775-5.977c-0.008,4.727,8.978,2.063,11.349,2.891
			c1.822,0.638,2.919,4.16,5.061,3.297c2.705-1.089,0.318-4.222,0.838-5.831c3.142,0.302,7.658-1.609,9.957-3.894
			c4.778-4.75-1.572-5.539-1.824-9.54c0.558,3.438,7.449,4.852,6.18,8.104c1.911,0.568,2.032-1.531,3.431-1.934
			c1.545-0.443,3.335,0.744,4.912,0.651c0.701-0.042,1.472-0.885,2.226-0.964c0.795-0.083,1.654,0.52,2.472,0.422
			c1.546-0.182,2.904-0.498,2.687-2.499c-1.727-0.962-1.009-4.116,0.152-5.202c0.501-0.469,2.036-0.385,2.831-1.022
			c0.879-0.71,1.428-1.431,1.492-2.565c-1.879-1.622-4.564-2.978-5.468-5.498c1.439,1.717,1.355,3.177,3.484,4.22
			c0.96,0.467,6.246,1.58,4.919,3.706c-0.476,0.76-4.402,0.012-5.513,1.012c-1.802,1.627-0.141,2.289,0.009,4.518
			c0.407,6.168-5.867,4.227-9.069,5.6c-1.001,0.432-0.443,1.054-1.88,1.416c-1.012,0.255-2.007-0.283-3.117,0.056
			c-1.802,0.548-3.83,2.119-5.58,2.916c-2.943,1.335-6.146,2.74-8.682,4.742c-1.178,0.927-1.823,2.295-3,3.197
			c-1.444,1.104-2.728,1.111-3.933,2.087c-0.52,0.419-0.557,1.311-1.104,1.766c-0.727,0.606-1.407,0.481-2.174,0.946
			c-1.536,0.931-1.75,1.556-2.964,2.693c-2.028,1.898-7.153,3.416-6.972-0.76c1.249,0.211,2.178,0.691,3.467,0.891"/>
		<path fill="#F8AD41"  a:adobe-blending-mode="multiply" d="M465.843,99.759c2.477-1.851,7.561-7.601,6.649-11.212
			c-1.512-5.964-7.331,1.638-9.952,0.627c2.694-1.202,5.161-4.337,8.19-4.575c5.782-0.454,3.524,4.966,2.439,7.997
			c1.533,0.417,3.403-0.718,3.564-2.361c1.702,0.459,1.774-1.396,1.928-2.752c3.157,0.522,6.013-0.28,6.094-4.24
			c-2.218-1.097-6.949-1.147-8.283-3.321c2.004,1.816,6.384,1.68,9.029,2.337c-0.098,0.546,0.233,1.007,0.071,1.619
			c2.662,0.623,4.492,0.899,4.694-2.432c2,0.254,3.803,0.314,5.697-0.389c1.344-0.498,2.908-2.448,4.51-0.937
			c0.842,0.796-0.666,3.84,2.02,3.865c2.307,0.022,2.105-3.046,0.741-4.114c4.013-1.005,1.727-6.213,2.581-8.811
			c1.501-0.06,2.537-1.123,2.396-2.675c-1.104-0.488-2.116-1.221-3.218-1.785c7.742,0.5,1.932,6.482,0.903,10.045
			c2.943,1.565,5.388,0.256,7.693-1.623c1.832-1.49,1.698-1.156,3.905-1.541c1.387-0.244,2.584-0.014,3.427-1.623
			c3.267-6.224-15.478-1.22-6.5-7.992c-0.396,0.633-0.415,1.625-0.621,2.367c3.427,1.541,7.024,0.667,10.666,1.52
			c0.075,3.851-6.344,5.601-9.098,7.311c-1.771,1.104-3.38,1.87-4.528,3.69c-0.565,0.899-0.766,2.075-1.392,2.833
			c-0.689,0.833-1.842,0.857-2.334,1.476c-1.444,1.815-1.073,5.23-4.171,5.75c-2.822,0.472-2.625-2.23-4.398-3.325
			c-3.029-1.867-3.925,0.708-6.214,1.349c-1.098,0.311-2.315-0.703-3.018-0.536c-0.734,0.172-1.894,1.419-2.608,1.858
			c-1.633,1.015-4.505,0.805-5.698,2.041c-1.936,1.998-0.008,4.136-3.451,5.73c-4.069,1.883-8.122-1.157-11.34,3.335"/>
		<path opacity="0.57" fill="#F8E700"  a:adobe-blending-mode="overlay" d="M458.668,25.499c7.203,6.287,21.135,11.72,19.442,23.183
			c-0.553,3.73-1.569,6.026-3.497,9.019c-1.246,1.932-4.334,5.222-3.818,7.791c0.827,4.109,12.634,9.985,15.791,6.537
			c-0.028,0.032,1.04-0.123,0.379-0.02c-4.48-0.686-15.634-4.763-12.771-11.169c0.517,0.557,1.354,0.784,1.843,1.313
			c0.605-3.537,1.189-6.293,4.5-8.194c-0.811,2.806-0.02,6.295,2.157,8.285c0.355-3.912-2.048-7.638-1.46-12.126
			c0.634-4.791,1.158-6.784-2.121-10.696c-5.398-6.434-13.879-7.71-19.856-12.537"/>
		<path fill="#F8AD41"  a:adobe-blending-mode="multiply" d="M527.786,66.915c0.532-4.839,3.488-2.514,5.92-4.294
			c2.976-2.175,0.729-4.747,1.032-7.972c0.294-3.214,2.283-7.078,1.943-10.275c-0.46-4.325-3.258-2.348-5.282-5.579
			c5.564,0.077,6.549,1.945,5.799,7.374c-0.42,3.011-2.674,13.287,3.903,10.886c2.287,3.327,5.613-1.068,7.073-2.125
			c2.008-1.456,7.823-2.853,5.452-5.583c4.54,0.608,16.693,0.288,13.469-6.799c-3.429-7.543-12.647-2.789-18.567-4.541
			c3.073-0.404,6.36,0.571,9.783-0.196c2.634-0.587,6.154-1.847,8.392,0.607c1.574,1.728,1.456,7.044,0,9.057
			c-1.624,2.243-6.027,2.214-8.238,3.638c-2.504,1.606-3.927,4.692-6.887,6.142c-2.582,1.264-5.541,1.194-8.153,2.709
			c-2.626,1.525-12.84,11.4-15.437,7.53C527.818,67.338,527.754,67.144,527.786,66.915"/>
	</g>
	<g>
		
			<rect x="246.13" y="183.193" transform="matrix(0.9522 -0.3056 0.3056 0.9522 -38.8322 150.3769)" fill="#FCF4B6" stroke="#F8AD41" stroke-width="1.6699" width="429.58" height="32.069"/>
		<polygon fill="#E6C51F" stroke="#F8AD41" stroke-width="1.6699" points="256.641,269.552 666.828,137.913 670.336,148.859 
			260.15,280.501 		"/>
		
			<rect x="242.153" y="194.517" transform="matrix(-0.9522 0.3056 -0.3056 -0.9522 958.5452 250.4929)" fill="#F7EA31" stroke="#F8AD41" stroke-width="1.6699" width="435.029" height="11.499"/>
		<path fill="#F5D2AD" stroke="#DEAD80" stroke-width="1.6699" d="M261.304,280.13l-80.255,7.328l70.456-37.863
			c0,0,8.948,4.118,4.099,9.808c0,0,7.99,4.105,3.7,11.518C259.304,270.92,267.387,275.315,261.304,280.13z"/>
		<path fill="#010101" d="M181.048,287.458l17.038-9.28c0,0,7.137,3.428,2.208,7.867L181.048,287.458z"/>
		<path fill="#F5A4A8" stroke="#EA2B7B" stroke-width="1.6699" d="M742.853,115.419c1.834,5.729-1.319,11.862-7.045,13.699
			l-17.283,5.547c-5.728,1.838-11.864-1.314-13.695-7.041l-3.692-11.521c-1.848-5.729,1.309-11.86,7.035-13.698l17.284-5.547
			c5.73-1.837,11.858,1.314,13.698,7.041L742.853,115.419z"/>
		
			<rect x="664.525" y="110.505" transform="matrix(0.9522 -0.3056 0.3056 0.9522 -5.9615 216.2081)" fill="#CCCCCC" stroke="#4D4D4D" stroke-width="1.6699" width="45.981" height="33.277"/>
		<path fill="#CCCCCC" stroke="#4D4D4D" stroke-width="1.6699" d="M675.618,147.484c0.766,2.385-0.549,4.94-2.935,5.708l0,0
			c-2.389,0.764-4.94-0.548-5.711-2.934l-9.984-31.111c-0.764-2.387,0.548-4.941,2.935-5.708l0,0
			c2.394-0.766,4.945,0.546,5.71,2.933L675.618,147.484z"/>
		<path fill="#CCCCCC" stroke="#4D4D4D" stroke-width="1.6699" d="M685.989,144.155c0.767,2.39-0.548,4.941-2.936,5.709l0,0
			c-2.388,0.765-4.943-0.547-5.711-2.937l-9.983-31.107c-0.763-2.389,0.549-4.944,2.936-5.71l0,0
			c2.389-0.764,4.944,0.548,5.71,2.936L685.989,144.155z"/>
		<path fill="#CCCCCC" stroke="#4D4D4D" stroke-width="1.6699" d="M706.724,137.499c0.771,2.388-0.543,4.942-2.935,5.709l0,0
			c-2.389,0.766-4.936-0.547-5.702-2.934l-9.983-31.11c-0.768-2.385,0.547-4.942,2.927-5.707l0,0
			c2.392-0.768,4.948,0.547,5.711,2.932L706.724,137.499z"/>
		<path fill="#CCCCCC" stroke="#4D4D4D" stroke-width="1.6699" d="M717.096,134.173c0.771,2.385-0.544,4.942-2.935,5.706l0,0
			c-2.383,0.766-4.945-0.546-5.702-2.936l-9.993-31.109c-0.757-2.387,0.557-4.942,2.935-5.706l0,0
			c2.389-0.766,4.945,0.546,5.711,2.934L717.096,134.173z"/>
	</g>
	<g>
		
			<linearGradient id="SVGID_2_" gradientUnits="userSpaceOnUse" x1="565.7441" y1="107.0845" x2="484.7756" y2="36.4954" gradientTransform="matrix(0.9682 0.2504 -0.2504 0.9682 10.8934 -70.0059)">
			<stop  offset="0" style="stop-color:#9F6E29"/>
			<stop  offset="0.0675" style="stop-color:#C88B2F"/>
			<stop  offset="0.0782" style="stop-color:#D39232"/>
			<stop  offset="0.0999" style="stop-color:#E29D38"/>
			<stop  offset="0.1269" style="stop-color:#EEA63D"/>
			<stop  offset="0.1648" style="stop-color:#F6AC40"/>
			<stop  offset="0.2699" style="stop-color:#F8AD41"/>
			<stop  offset="0.3165" style="stop-color:#F8BA3F"/>
			<stop  offset="0.3976" style="stop-color:#F8CC3C"/>
			<stop  offset="0.4868" style="stop-color:#F7DA38"/>
			<stop  offset="0.587" style="stop-color:#F8E335"/>
			<stop  offset="0.7069" style="stop-color:#F8E933"/>
			<stop  offset="0.8992" style="stop-color:#F8ED32"/>
			<a:midPointStop  offset="0" style="stop-color:#9F6E29"/>
			<a:midPointStop  offset="0.5" style="stop-color:#9F6E29"/>
			<a:midPointStop  offset="0.0675" style="stop-color:#C88B2F"/>
			<a:midPointStop  offset="0.13" style="stop-color:#C88B2F"/>
			<a:midPointStop  offset="0.2699" style="stop-color:#F8AD41"/>
			<a:midPointStop  offset="0.2059" style="stop-color:#F8AD41"/>
			<a:midPointStop  offset="0.8992" style="stop-color:#F8ED32"/>
		</linearGradient>
		<path fill="url(#SVGID_2_)"  a:adobe-blending-mode="multiply" d="M588.508,129.496c0,0-15.824,8.049-18.219-2.146
			c-2.396-10.196,15.815-5.567-3.682-17.921c-19.502-12.35-28.772-12.837-28.772-12.837s30.78,19.971,19.074,26.663
			c0,0-17.791,15.078,12.311,15.786c0,0,1.622,4.068-4.973,3.407c-6.596-0.661-14.161-5.254-18.863-4.765
			c-4.702,0.488,16.058,3.92,6.843,7.666c-9.218,3.747-16.528,1.196-9.218,3.747c7.312,2.55,6.077-0.94,8.687-0.385
			c2.613,0.558-6.291,10.579-12.287,5.825c-6.001-4.757-4.355-8.131-6.299-18.478c-1.936-10.343-11.864-8.488-23.171-6.182
			c-11.3,2.309,20.578-1.82,15.992,4.654c-4.588,6.47-11.008,16.027-4.673,17.128c6.335,1.103,11.754,0.024,12.4,2.645
			c0.652,2.622,0.983,1.447,2.737,4.061c1.758,2.608-8.174,4.461-15.224,1.472c-7.044-2.994-7.496-5.322-14.871-7.145
			c-7.38-1.821-30.623-2.308-20.018-13.951c10.602-11.644,9.694-16.308,1.734-18.999c-7.96-2.69,10.509,3.978-0.738,10.519
			c-11.246,6.542-43.176,33.01-16.852,31.421c26.325-1.588,43.378-6.149,36.567,0.347c-6.808,6.494-20.849,9.707-19.671,6.482
			c1.186-3.222-2.282-1.727,2.496-5.425c0,0-11.38,8.002-2.303,8.197c9.072,0.198,10.896,4.559,3.972,5.068
			c0,0-6.392,3.898-10.501,0.669c-4.109-3.236-4.891-5.114-10.415-3.295c-5.53,1.823-2.367-1.361,0.613,1.633
			c2.979,2.992,2.862,6.396-1.194,4.67c-4.053-1.718-13.291-3.259-8.662-7.843c4.629-4.585,5.372-8.496-8.21-8.607
			c-13.578-0.111,15.888,2.103,6.468,6.737c-9.42,4.632-16.018,7.726-9.71,7.786c6.311,0.061,13.529-1.399,12.283,1.759
			c-1.25,3.17-6.501,8.259-9.823,6.908c-3.323-1.351-0.952-2.134-5.009-3.852c-4.052-1.723-8.352,5.5-9.46-3.307
			c-1.104-8.806,17.771-7.995-6.572-9.755c-24.337-1.76-21.566-6.956-11.466-12.73c10.103-5.776-19.062,5.363-15.197,15.401
			c3.871,10.04,10.13,8.588,18.815,5.724c8.686-2.857,16.513-0.547,13.121,3.014c-3.388,3.561-5.648,7.362-1.137,6.186
			c4.508-1.177,13.009,2.129,6.021,3.21s-9.521-0.527-12.005,1.516c-2.484,2.041,1.742,1.867-0.516,3.533
			c-2.26,1.661-9.799-3.803-11.889-1.896c-2.089,1.912,0.117-1.258,0.622,1.633c0.5,2.892,0.883,7.045-5.928,4.094
			c-6.815-2.952-10.815-3.162-13.243-1.751c-2.428,1.412,5.444,11.659,0.669,5.283c-4.779-6.371,4.517-5.464-0.597-12.339
			c-5.113-6.88-6.747-7.863-5.121-2.594c1.621,5.278,7.875,5.964,1.726,8.295c-6.146,2.335-15.787,5.21-9.424,6.778
			c6.363,1.573,10.093-1.491,10.198,1.528c0.105,3.025-4.911,3.457-4.911,3.457s-5.187,0.182-2.928,0.661
			c2.249,0.479,4.955,0.197,4.955,0.197s33.499-10.428,39.926-11.63c6.424-1.201,9.296,0.911,12.231-1.888
			c2.939-2.806,5.979-2.588,5.979-2.588s2.477,2.246,5.521,0.322c3.049-1.919-0.334-0.5,3.049-1.919
			c3.384-1.421,3.948-1.304,7.444-1.845c3.493-0.539,2.028-1.277,5.641-3.079c3.61-1.808,4.46-4.836,10.771-4.775
			c6.315,0.061,8.339,0.92,10.658-1.375c2.314-2.29,24.198-11.335,30.003-12.026c5.806-0.692,4.004,0.21,7.838,0.171
			c3.827-0.042,7.437,0.296,6.937-2.595c-0.504-2.891-1.121-4.52,2.088-4.053c3.21,0.471,8.863-4.752,13.48-5.054
			c4.622-0.298,6.263-1.449,10.158-4.261c3.891-2.814,14.662-5.448,17.026-4.087c2.366,1.362,4.33,4.996,7.262,2.192
			c2.94-2.801,12.078-6.424,15.456-7.844c3.388-1.422,34.237-12.202,39.31-13.265c5.073-1.06,16.014-3.441,16.529-6.974
			c0.512-3.532-1.729-8.296-7.311-7.986c-5.577,0.311-14.598,2.672-14.421-1.361c0.178-4.032-5.985,4.727,0.887,4.906
			c6.881,0.177,20.679,4.193,14.873,4.884c-5.808,0.689-1.582,0.52-9.412,0.348c-7.834-0.169-8.23-0.041-7.782,1.341
			c0.443,1.381-9.711,7.787-10.086-0.649c-0.375-8.435,1.544-10.597-4.601-10.41c-6.144,0.193-12.453-2.011-5.863,1.322
			c6.589,3.333,12.161,5.164,4.94,8.767c-7.22,3.603,3.479,5.884-6.045,7.497c-9.53,1.611-14.551,6.323-12.909,0.891
			c1.649-5.434,7.045,0.43,1.649-5.434c-5.399-5.865-15.662-2.481-14.138-2.373c1.517,0.111,15.033,5.133,7.924,7.476
			c-7.102,2.343-2.979-0.851-6.19-3.464c-3.202-2.61-5.863-0.818-8.621,0.092C580.499,129.237,590.427,127.168,588.508,129.496z"/>
		<path opacity="0.55" fill="#F8E700"  a:adobe-blending-mode="overlay" d="M422.751,177.184c0,0-6.536,3.064-10.392,1.553
			c-3.847-1.509-6.363-4.303-6.009-7.368c0.355-3.06,0.089-5.139,2.557-7.069c2.468-1.929,10.924-7.177,10.924-7.177
			s-11.686,5.666-11.215,10.031c0.473,4.363,4.752,11.349,12.93,7.974c8.186-3.375,14.589-0.188,14.771,1.197
			C436.316,176.324,430.756,172.419,422.751,177.184z"/>
		<path fill="#F8E700" d="M487.09,131.298c0,0-30.97,23.54-24.828,27.57c6.142,4.028,26.114,0.526,26.114,0.526
			S440.873,168.792,487.09,131.298z"/>
		<path opacity="0.57" fill="#F8E700"  a:adobe-blending-mode="overlay" d="M511.576,130.124c0,0,17.347-2.054,16.814,2.541
			c-0.527,4.595-12.976,18.485,3.573,18.949c0,0-13.63,1.069-12.009-3.064c1.616-4.133,8.549-14.29,6.323-17.018
			C524.052,128.804,511.576,130.124,511.576,130.124z"/>
		<path fill="#F8E700"  a:adobe-blending-mode="softLight" d="M503.607,153.287c0,0,6.851,0.821,8.698,2.794
			c1.85,1.972,11.218,8.5,18.71,6.317c7.497-2.184,7.893-3.442,7.893-3.442s-10.981,9.275-19.68,3.567
			C510.527,156.816,510.769,155.074,503.607,153.287z"/>
		<path fill="#F8AD41"  a:adobe-blending-mode="multiply" d="M442.982,195.27c1.939-2.295,6.193-3.706,9.969-3.222
			c3.835,0.495,2.028,0.661,4.443-1.254c1.657-1.315,3.259-0.621,5.521-1.105c1.568-0.331,4.197-1.266,5.323-1.935
			c1.52-0.896,2.681-2.599,4.278-3.497c1.621-0.915,3.451-1.521,5.347-2.19c1.783-0.628,3.42-0.548,5.162-0.955
			c0.29-0.069,1.112,0.061,1.484,0.061c0.008-0.08,0.137-0.488,0.177-0.558c-2.097-1.217-4.73-1.379-6.823-2.483
			c-1.798-0.952-3.16-2.476-5.186-3.087c1.899,0.151,4.009,2.28,4.255,3.627c0.386,2.069-1.594,2.058-3.319,2.848
			c-1.5,0.686-2.411,2.46-5.129,1.588c-2.077-0.668-2.484-2.305-5.514-2.782c3.425,1.468,5.86,5.404,2.496,7.242
			c-4.66-0.652-6.363,1.872-10.951,1.735c-0.178,0.516-0.855,0.887-0.896,1.523c-2.219,0.101-3.259-1.145-5.331-1.391
			c-0.331-1.311,1.368-2.477,0.572-3.662c-0.709-1.053-3.424-1.584-4.604-1.262c2.383,0.295,2.976,1.29,3.12,2.75
			c0.09,0.835,0.082,3.266-0.365,3.916c-3.223,0.052-3.73,1.932-5.73,2.875c-3.211,1.504-4.541-0.871-7.582-0.537
			c-1,2.464-1.153,4.126-5.061,4.304c-3.625,0.161-6.4-1.251-9.299-2.767c2.343,0.403,5.053,2.581,5.972,4.049
			c1.38,2.209,1.303,4.762,5.396,2.46c2.185-1.235,2.766-3.411,5.145-4.307c2.363-0.884,6.275,0.539,6.944-2.206
			c0.375,0.109,0.399-0.021,0.604-0.134"/>
		<path fill="#F8AD41"  a:adobe-blending-mode="multiply" d="M488.324,180.019c2.468,0.477,4.032-1.859,5.992-2.557
			c1.936-0.687,5.661-1.444,4.726-3.867c-1.294-3.339-15.452-2.158-13.348-5.744c-0.218,3.699,9.478,2.365,11.965,3.212
			c1.912,0.646,2.927,3.497,5.246,3c2.932-0.625,0.524-3.276,1.146-4.49c3.33,0.495,8.226-0.624,10.779-2.22
			c5.302-3.317-1.432-4.467-1.525-7.616c0.443,2.736,7.719,4.417,6.223,6.854c2.016,0.607,2.242-1.024,3.743-1.225
			c1.669-0.216,3.523,0.861,5.209,0.921c0.747,0.022,1.605-0.569,2.411-0.569c0.848,0,1.739,0.544,2.614,0.534
			c1.653-0.012,3.121-0.146,2.968-1.732c-1.791-0.895-0.888-3.306,0.395-4.056c0.553-0.327,2.186-0.133,3.061-0.562
			c0.965-0.485,1.582-1.002,1.702-1.886c-1.936-1.425-4.733-2.711-5.585-4.759c1.46,1.464,1.303,2.599,3.528,3.594
			c0.997,0.448,6.58,1.76,5.076,3.31c-0.54,0.557-4.693-0.36-5.92,0.333c-1.987,1.124-0.245,1.778-0.184,3.537
			c0.164,4.861-6.441,2.819-9.904,3.628c-1.089,0.251-0.518,0.786-2.069,0.949c-1.089,0.117-2.125-0.391-3.322-0.215
			c-1.944,0.275-4.175,1.34-6.078,1.814c-3.192,0.8-6.66,1.633-9.451,2.986c-1.299,0.63-2.041,1.646-3.34,2.257
			c-1.577,0.736-2.943,0.641-4.274,1.302c-0.572,0.287-0.653,0.979-1.258,1.291c-0.799,0.42-1.517,0.258-2.354,0.561
			c-1.678,0.601-1.932,1.076-3.274,1.858c-2.242,1.318-7.774,2.076-7.396-1.178c1.322,0.274,2.289,0.727,3.656,0.984"/>
		<path fill="#F8AD41"  a:adobe-blending-mode="multiply" d="M547.43,157.446c2.721-1.242,8.382-5.318,7.568-8.22
			c-1.348-4.794-7.876,0.669-10.626-0.341c2.924-0.715,5.689-2.965,8.924-2.897c6.178,0.131,3.54,4.18,2.25,6.464
			c1.622,0.451,3.661-0.28,3.896-1.552c1.798,0.501,1.955-0.944,2.183-1.993c3.342,0.674,6.415,0.283,6.673-2.81
			c-2.314-1.044-7.348-1.478-8.678-3.292c2.061,1.591,6.73,1.846,9.516,2.585c-0.123,0.419,0.211,0.808,0,1.272
			c2.815,0.709,4.755,1.079,5.114-1.512c2.125,0.369,4.032,0.564,6.089,0.171c1.452-0.277,3.202-1.673,4.848-0.357
			c0.857,0.695-0.88,2.95,1.983,3.196c2.452,0.208,2.371-2.209,0.969-3.159c4.314-0.453,2.111-4.717,3.132-6.68
			c1.594,0.079,2.746-0.667,2.666-1.895c-1.154-0.474-2.198-1.131-3.348-1.664c8.231,1.034,1.774,5.233,0.525,7.936
			c3.063,1.47,5.726,0.651,8.267-0.626c2.016-1.015,1.858-0.764,4.225-0.883c1.492-0.073,2.76,0.208,3.727-0.982
			c3.747-4.599-16.437-2.246-6.576-6.799c-0.452,0.463-0.521,1.237-0.77,1.804c3.583,1.489,7.451,1.108,11.303,2.078
			c-0.09,3.02-7.013,3.853-10.014,4.962c-1.936,0.718-3.687,1.181-4.987,2.51c-0.643,0.657-0.903,1.56-1.605,2.103
			c-0.77,0.593-2.001,0.517-2.552,0.958c-1.617,1.303-1.372,4.005-4.695,4.153c-3.024,0.133-2.696-1.966-4.541-2.965
			c-3.145-1.716-4.209,0.224-6.677,0.534c-1.187,0.149-2.436-0.746-3.193-0.669c-0.791,0.073-2.08,0.949-2.864,1.238
			c-1.782,0.653-4.826,0.251-6.157,1.119c-2.149,1.399-0.19,3.234-3.928,4.196c-4.415,1.135-8.594-1.583-12.222,1.663"/>
		<path opacity="0.57" fill="#F8E700"  a:adobe-blending-mode="overlay" d="M543.029,98.726
			c7.396,5.522,22.002,10.936,19.694,19.767c-0.75,2.873-1.936,4.587-4.117,6.766c-1.406,1.407-4.842,3.727-4.407,5.779
			c0.701,3.287,13.02,8.869,16.537,6.434c-0.032,0.023,1.117-0.009,0.407,0.016c-4.742-0.911-16.448-5.03-13.118-9.807
			c0.521,0.478,1.412,0.728,1.907,1.179c0.8-2.716,1.541-4.822,5.154-6.037c-0.992,2.13-0.307,4.927,1.936,6.667
			c0.549-3.033-1.851-6.148-1.024-9.611c0.879-3.698,1.524-5.217-1.803-8.549c-5.463-5.489-14.448-7.194-20.602-11.471"/>
		<path fill="#F8AD41"  a:adobe-blending-mode="multiply" d="M614.855,136.909c0.775-3.744,3.823-1.678,6.496-2.867
			c3.264-1.456,0.985-3.656,1.441-6.154c0.459-2.492,2.749-5.349,2.523-7.881c-0.298-3.422-3.371-2.107-5.389-4.807
			c5.933,0.528,6.897,2.068,5.86,6.254c-0.576,2.322-3.431,10.178,3.683,8.845c2.289,2.797,6.023-0.367,7.628-1.072
			c2.199-0.972,8.456-1.579,6.05-3.916c4.815,0.857,17.775,1.621,14.653-4.197c-3.329-6.189-13.352-3.236-19.588-5.103
			c3.293-0.058,6.757,0.978,10.435,0.665c2.826-0.241,6.633-0.932,8.911,1.174c1.605,1.483,1.251,5.632-0.394,7.088
			c-1.833,1.62-6.517,1.23-8.938,2.158c-2.736,1.05-4.387,3.345-7.605,4.232c-2.811,0.775-5.959,0.472-8.806,1.444
			c-2.863,0.974-14.174,7.849-16.775,4.604C614.872,137.244,614.809,137.087,614.855,136.909"/>
	</g>
	<path opacity="0.22" fill="#010101"  a:adobe-blending-mode="multiply" d="M664.352,140.516c3.194,3.024,7.771-1.873,11.259-2.882
		c1.919-0.547,3.88-1.606,6.04-1.623c2.709-0.021,5.662,1.078,8.46,0.826c2.492-0.223,4.113-2.125,6.429-2.604
		c1.258-0.26,2.564,0.526,3.773,0.292c1.271-0.244,1.968-1.175,2.916-1.49c2.968-0.992,9.903-1.985,11.135-5.155
		c6.983-0.082,11.218,3.667,18.211,0.472c7.031-3.212,7.5-8.912,8.83-15.929c0.961,3.137,3.537,8.103,0.806,12.203
		c-2.281,3.437-7.906,5.231-11.415,6.367c-3.835,1.238-9.335,1.021-12.561,3.59c-1.478,1.18-1.921,4.112-3.687,5.068
		c-2.041,1.098-5.187-0.1-7.411-0.396c-1.719,4.976-5.508,3.167-9.598,3.236c-3.969,0.069-7.669,1.592-11.461,2.597
		c-0.58,3.647-3.343,4.388-6.472,4.657c-2.062,0.179-1.888-0.572-3.844,0.131c-0.907,0.329-1.919,1.76-3.071,2.281
		c-6.535,2.938-7.179-6.651-9.315-10.975"/>
	<path opacity="0.22" fill="#010101"  a:adobe-blending-mode="multiply" d="M582.084,56.795c3.613,2.118,6.811-3.417,9.835-5.105
		c1.661-0.924,3.258-2.331,5.267-2.81c2.504-0.604,5.484-0.218,8.024-1.058c2.266-0.746,3.363-2.86,5.403-3.804
		c1.114-0.512,2.5-0.066,3.574-0.542c1.128-0.502,1.571-1.519,2.383-2.015c2.544-1.559,8.771-3.979,9.233-7.188
		c6.465-1.583,11.204,0.988,17.01-3.49c5.835-4.498,5.049-9.894,4.762-16.695c1.574,2.704,5.033,6.762,3.381,11.159
		c-1.371,3.683-6.211,6.56-9.227,8.372c-3.292,1.976-8.444,2.964-10.88,6.046c-1.125,1.414-0.904,4.232-2.336,5.499
		c-1.652,1.462-4.834,1.029-6.968,1.234c-0.519,4.991-4.439,4.129-8.218,5.077c-3.67,0.916-6.779,3.13-10.081,4.879
		c0.249,3.512-2.158,4.798-5.005,5.72c-1.88,0.613-1.871-0.121-3.541,0.954c-0.773,0.5-1.398,2.048-2.358,2.778
		c-5.437,4.14-8.102-4.629-11.021-8.182"/>
	<path opacity="0.12" fill="#010101"  a:adobe-blending-mode="multiply" d="M259.304,270.92l-69.833,14.606l53.266-3.18
		l18.568-2.217C261.304,280.13,266.149,275.089,259.304,270.92z"/>
</g>
<g>
	<linearGradient id="SVGID_3_" gradientUnits="userSpaceOnUse" x1="56.2832" y1="208.3438" x2="57.397" y2="268.4613">
		<stop  offset="0" style="stop-color:#90298C"/>
		<stop  offset="1" style="stop-color:#010101"/>
		<a:midPointStop  offset="0" style="stop-color:#90298C"/>
		<a:midPointStop  offset="0.5" style="stop-color:#90298C"/>
		<a:midPointStop  offset="1" style="stop-color:#010101"/>
	</linearGradient>
	<path fill="url(#SVGID_3_)" d="M112.768,213.318c-1.647,19.663-8.494,35.434-20.536,47.318
		c-11.597,11.46-25.082,16.545-40.459,15.259c-12.815-1.072-22.806-3.839-29.97-8.271c-8.049-4.972-15.38-13.569-21.995-25.787
		l22.671-50.596c2.948,6.693,7.557,12.376,13.826,17.045c6.267,4.67,12.782,7.29,19.549,7.855c4.205,0.355,7.666-0.314,10.39-2.008
		c2.72-1.686,4.248-4.514,4.583-8.478c0.79-9.451-3.269-17.081-12.174-22.896c-8.396-4.541-16.731-9.149-25.012-13.84
		c-8.96-6.426-12.976-15.13-12.057-26.104c1.022-12.192,6.226-21.35,15.622-27.469c7.313-4.761,17.475-7.747,30.481-8.957
		c8.842-0.791,18.9-0.718,30.18,0.229l-2.855,34.066c-5.872-3.867-10.326-6.468-13.36-7.799c-3.041-1.327-5.942-2.106-8.71-2.34
		c-3.381-0.285-6.026,0.453-7.928,2.211c-1.905,1.764-3.034,4.774-3.392,9.038c-0.103,1.224,5.196,3.281,15.899,6.173
		c10.697,2.893,18.896,7.954,24.588,15.184C111.082,174.343,114.633,191.067,112.768,213.318z"/>
	<linearGradient id="SVGID_4_" gradientUnits="userSpaceOnUse" x1="141.7183" y1="206.7578" x2="142.8321" y2="266.8754">
		<stop  offset="0" style="stop-color:#90298C"/>
		<stop  offset="1" style="stop-color:#010101"/>
		<a:midPointStop  offset="0" style="stop-color:#90298C"/>
		<a:midPointStop  offset="0.5" style="stop-color:#90298C"/>
		<a:midPointStop  offset="1" style="stop-color:#010101"/>
	</linearGradient>
	<path fill="url(#SVGID_4_)" d="M179.133,228.078c-3.235,4.665-6.698,8.251-10.392,10.767c-3.697,2.508-8.102,4.21-13.22,5.097
		c-11.693,2.037-22.339-0.919-31.939-8.863c-9.606-7.944-15.582-18.689-17.938-32.223c-2.478-14.248-1.312-26.752,3.495-37.528
		c5.127-11.463,13.152-18.148,24.075-20.046c4.436-0.771,7.621-1.166,9.55-1.184c1.932-0.015,4.785,0.465,8.563,1.452l6.465,37.159
		c-2.196-0.988-4.785-1.218-7.771-0.697c-4.095,0.71-7.476,2.392-10.135,5.04c-2.66,2.654-3.667,5.831-3.019,9.55
		c0.521,3.009,2.376,5.33,5.563,6.964c3.184,1.633,6.825,2.092,10.922,1.384c2.131-0.371,3.974-1.037,5.521-1.993
		c1.549-0.951,2.718-2.451,3.504-4.5L179.133,228.078z"/>
	<linearGradient id="SVGID_5_" gradientUnits="userSpaceOnUse" x1="211.041" y1="205.4746" x2="212.1548" y2="265.5929">
		<stop  offset="0" style="stop-color:#90298C"/>
		<stop  offset="1" style="stop-color:#010101"/>
		<a:midPointStop  offset="0" style="stop-color:#90298C"/>
		<a:midPointStop  offset="0.5" style="stop-color:#90298C"/>
		<a:midPointStop  offset="1" style="stop-color:#010101"/>
	</linearGradient>
	<path fill="url(#SVGID_5_)" d="M252.71,199.479c0,4.226-0.762,9.109-2.28,14.658c-2.473,8.943-6.225,16.109-11.256,21.489
		c-6.935,7.371-15.818,11.058-26.645,11.058c-12.16,0-22.419-4.267-30.777-12.796c-8.361-8.528-12.539-18.796-12.539-30.804
		c0-13.416,3.893-24.809,11.684-34.164c8.263-9.936,18.808-14.906,31.632-14.906c11.492,0,21.063,4.431,28.711,13.293
		C248.886,176.171,252.71,186.895,252.71,199.479z M226.634,190.584c0-2.734-1.044-5.098-3.133-7.089
		c-2.088-1.993-4.611-2.983-7.553-2.983c-4.18,0-8.026,1.491-11.542,4.475c-3.99,3.404-5.983,7.759-5.983,13.062
		c0,3.069,1.02,5.621,3.063,7.649c2.042,2.032,4.631,3.049,7.767,3.049c3.99,0,7.883-1.992,11.682-5.973
		C224.733,198.794,226.634,194.733,226.634,190.584z"/>
	<linearGradient id="SVGID_6_" gradientUnits="userSpaceOnUse" x1="290.0537" y1="204.0107" x2="291.1675" y2="264.1275">
		<stop  offset="0" style="stop-color:#90298C"/>
		<stop  offset="1" style="stop-color:#010101"/>
		<a:midPointStop  offset="0" style="stop-color:#90298C"/>
		<a:midPointStop  offset="0.5" style="stop-color:#90298C"/>
		<a:midPointStop  offset="1" style="stop-color:#010101"/>
	</linearGradient>
	<path fill="url(#SVGID_6_)" d="M331.862,222.634l-26.262,41.931l-30.617-48.313l-7.093,43.2h-17.799l-2.736-122.135
		c3.317-2.962,7.446-5.273,12.382-6.937c4.935-1.657,10.102-2.488,15.497-2.488c11.281,0,20.454,3.083,27.505,9.246
		c7.549,6.639,11.326,15.766,11.326,27.379c0,6.995-1.538,13.42-4.605,19.285c-3.072,5.871-7.429,11.057-13.068,15.561
		L331.862,222.634z M285.688,173.938c0-3.554-1.079-6.635-3.236-9.245c-2.157-2.605-4.605-3.909-7.343-3.909
		c-1.492,0-2.946,0.599-4.355,1.798l2.863,26.648c0.994,0,1.697,0,2.113,0c2.655,0,4.98-1.48,6.972-4.445
		C284.692,181.826,285.688,178.203,285.688,173.938z"/>
	<linearGradient id="SVGID_7_" gradientUnits="userSpaceOnUse" x1="353.6348" y1="202.835" x2="354.7486" y2="262.954">
		<stop  offset="0" style="stop-color:#90298C"/>
		<stop  offset="1" style="stop-color:#010101"/>
		<a:midPointStop  offset="0" style="stop-color:#90298C"/>
		<a:midPointStop  offset="0.5" style="stop-color:#90298C"/>
		<a:midPointStop  offset="1" style="stop-color:#010101"/>
	</linearGradient>
	<path fill="url(#SVGID_7_)" d="M394.899,226.48c-3.759,4.372-7.734,7.783-11.935,10.227c-4.202,2.44-9.172,4.183-14.913,5.223
		c-13.11,2.375-24.895,0.178-35.357-6.585c-10.464-6.763-16.795-16.228-18.996-28.381c-2.316-12.791-0.625-24.175,5.08-34.152
		c6.082-10.621,15.245-17.04,27.491-19.257c4.974-0.899,8.54-1.401,10.693-1.504c2.156-0.103,5.324,0.204,9.507,0.925l6.042,33.373
		c-2.419-0.799-5.3-0.888-8.647-0.282c-4.592,0.831-8.416,2.508-11.466,5.028s-4.274,5.448-3.669,8.786
		c0.49,2.703,2.484,4.719,5.986,6.058c3.504,1.334,7.551,1.589,12.144,0.759c2.389-0.436,4.465-1.121,6.225-2.053
		c1.758-0.933,3.106-2.348,4.048-4.238L394.899,226.48z"/>
	<linearGradient id="SVGID_8_" gradientUnits="userSpaceOnUse" x1="417.8457" y1="201.6436" x2="418.9595" y2="261.7618">
		<stop  offset="0" style="stop-color:#90298C"/>
		<stop  offset="1" style="stop-color:#010101"/>
		<a:midPointStop  offset="0" style="stop-color:#90298C"/>
		<a:midPointStop  offset="0.5" style="stop-color:#90298C"/>
		<a:midPointStop  offset="1" style="stop-color:#010101"/>
	</linearGradient>
	<path fill="url(#SVGID_8_)" d="M451.08,111.396l-8.662,143.397l-25.095-7.23l2.223-50.587l-16.881,9.037l3.331,52.744
		l-21.21-13.041l-3.221-118.201l23.317-8.028v46.774h15.216l8.108-63.088L451.08,111.396z"/>
	<linearGradient id="SVGID_9_" gradientUnits="userSpaceOnUse" x1="472.9912" y1="200.6211" x2="474.105" y2="260.7381">
		<stop  offset="0" style="stop-color:#90298C"/>
		<stop  offset="1" style="stop-color:#010101"/>
		<a:midPointStop  offset="0" style="stop-color:#90298C"/>
		<a:midPointStop  offset="0.5" style="stop-color:#90298C"/>
		<a:midPointStop  offset="1" style="stop-color:#010101"/>
	</linearGradient>
	<path fill="url(#SVGID_9_)" d="M498.873,151.448l2.774,32.015l-36.704,5.12l1.016,9.268l20.373-2.839l1.201,10.948l-16.105,2.984
		l0.936,8.535l30.659-2.745l3.77,15.659l-55.607,16.08l-12.15-84.081L498.873,151.448z"/>
	<linearGradient id="SVGID_10_" gradientUnits="userSpaceOnUse" x1="540.2441" y1="199.376" x2="541.3579" y2="259.493">
		<stop  offset="0" style="stop-color:#90298C"/>
		<stop  offset="1" style="stop-color:#010101"/>
		<a:midPointStop  offset="0" style="stop-color:#90298C"/>
		<a:midPointStop  offset="0.5" style="stop-color:#90298C"/>
		<a:midPointStop  offset="1" style="stop-color:#010101"/>
	</linearGradient>
	<path fill="url(#SVGID_10_)" d="M583.145,204.634c0.396,11.378-5.193,21.392-16.759,30.033
		c-11.255,8.388-24.212,12.835-38.866,13.339c-2.725,0.098-5.331,0.025-7.822-0.208c-2.492-0.239-4.839-0.683-7.025-1.336
		l-15.8-77.619c4.557-2.825,9.824-5.168,15.815-7.034c5.989-1.86,12.066-2.9,18.235-3.114c13.695-0.475,24.769,2.05,33.213,7.574
		c6.815,4.452,11.84,10.742,15.089,18.871C581.596,191.116,582.906,197.616,583.145,204.634z M557.602,199.705
		c0.13-0.814,0.179-1.621,0.154-2.432c-0.093-2.665-1.29-4.762-3.585-6.3c-3.533-2.383-9.424-3.431-17.674-3.145l2.621,26.938
		c4.959-0.173,9.323-1.719,13.069-4.633C555.933,207.214,557.739,203.737,557.602,199.705z"/>
</g>
<linearGradient id="SVGID_11_" gradientUnits="userSpaceOnUse" x1="291.2163" y1="150.8198" x2="294.5561" y2="234.3145">
	<stop  offset="0.0368" style="stop-color:#F8ED32"/>
	<stop  offset="0.2782" style="stop-color:#F8CE3C"/>
	<stop  offset="0.5031" style="stop-color:#FAB041"/>
	<stop  offset="0.8896" style="stop-color:#91298C"/>
	<stop  offset="1" style="stop-color:#762773"/>
	<a:midPointStop  offset="0.0368" style="stop-color:#F8ED32"/>
	<a:midPointStop  offset="0.5211" style="stop-color:#F8ED32"/>
	<a:midPointStop  offset="0.5031" style="stop-color:#FAB041"/>
	<a:midPointStop  offset="0.5" style="stop-color:#FAB041"/>
	<a:midPointStop  offset="0.8896" style="stop-color:#91298C"/>
	<a:midPointStop  offset="0.5" style="stop-color:#91298C"/>
	<a:midPointStop  offset="1" style="stop-color:#762773"/>
</linearGradient>
<path fill="url(#SVGID_11_)" stroke="#F8ED32" stroke-width="1.6699" stroke-miterlimit="10" d="M58.603,268.294
	c-1.369,0-2.779-0.061-4.185-0.174c-11.957-1.008-21.294-3.54-27.752-7.54c-6.795-4.194-13.191-11.509-19.036-21.768l17.672-39.438
	c2.809,3.771,6.229,7.162,10.235,10.147c7,5.218,14.445,8.185,22.124,8.83c0.869,0.072,1.716,0.104,2.536,0.104
	c4.198,0,7.87-0.96,10.915-2.851c2.838-1.762,6.344-5.326,6.932-12.315c0.939-11.222-4.049-20.74-14.431-27.506l-0.171-0.113
	l-0.181-0.101c-8.301-4.487-16.604-9.081-24.686-13.654c-7.339-5.355-10.535-12.379-9.777-21.467
	c0.897-10.666,5.267-18.417,13.364-23.691c6.593-4.287,16.085-7.035,28.215-8.164c3.853-0.347,8.033-0.52,12.406-0.52
	c3.762,0,7.747,0.129,11.894,0.385l-1.744,20.802c-2.81-1.673-5.142-2.911-7.049-3.748c-3.534-1.544-6.999-2.468-10.299-2.744
	c-0.615-0.053-1.209-0.077-1.786-0.077c-4.025,0-7.378,1.212-9.963,3.601c-2.883,2.673-4.512,6.696-4.982,12.301
	c-0.433,5.172,4.264,7.287,19.584,11.424c9.585,2.593,16.974,7.118,21.958,13.449c1.646,2.052,3.109,4.379,4.384,6.952l5.529,11.184
	l3.741-11.903c0.637-2.028,1.236-3.653,1.889-5.116c4.44-9.932,11.1-15.543,20.354-17.15c5.158-0.899,7.6-1.103,8.741-1.111
	c0.639,0,1.889,0.085,4.145,0.554l4.717,27.111c-0.819,0.051-1.659,0.153-2.513,0.3c-5.113,0.89-9.424,3.053-12.811,6.432
	c-3.817,3.803-5.345,8.63-4.418,13.953c0.554,3.182,2.424,7.597,8.211,10.565c2.925,1.5,6.156,2.258,9.605,2.258
	c1.439,0,2.941-0.137,4.464-0.399c2.746-0.479,5.199-1.371,7.287-2.657c0.022-0.013,0.042-0.024,0.062-0.036l4.132,7.302
	l9.278-3.419c-0.496-2.557-0.748-5.246-0.748-7.988c0-12.323,3.444-22.448,10.525-30.953c7.333-8.82,16.42-13.104,27.782-13.104
	c10.057,0,18.209,3.781,24.919,11.553c2.567,2.977,4.681,6.24,6.276,9.692l9.554-2.219l-0.859-38.401
	c2.494-1.851,5.484-3.368,8.917-4.522c4.397-1.476,9.073-2.226,13.898-2.226c10.122,0,18.041,2.619,24.209,8.007
	c6.463,5.683,9.613,13.41,9.613,23.608c0,6.14-1.359,11.846-4.034,16.962c-2.734,5.228-6.688,9.92-11.755,13.966l-5.404,4.311
	l35.297,23.162l-3.624-12.889c-0.359-1.28-0.666-2.611-0.908-3.96c-2.119-11.702-0.647-21.767,4.5-30.771
	c5.356-9.354,13.217-14.854,24.035-16.814c5.901-1.068,8.718-1.366,10.043-1.431c0.193-0.008,0.397-0.012,0.615-0.012
	c1.139,0,2.597,0.115,4.357,0.345l4.224,23.328c-1.105,0.069-2.253,0.21-3.43,0.424c-5.424,0.979-10.053,3.028-13.763,6.097
	c-5.652,4.67-6.061,9.939-5.409,13.541c0.564,3.118,2.604,7.351,9.129,9.844c2.724,1.04,5.712,1.565,8.884,1.565
	c1.893,0,3.891-0.191,5.939-0.558c2.886-0.524,5.468-1.383,7.68-2.557c0.379-0.202,0.748-0.419,1.101-0.649l12.512,18.368
	l-7.262,4.71l-0.573,0.38c-0.257,0.168-0.512,0.347-0.77,0.5c-3.672,2.133-8.144,3.685-13.283,4.62
	c-3.098,0.557-6.144,0.844-9.057,0.844c-8.283,0-15.705-2.194-22.687-6.706c-1.887-1.219-3.675-2.586-5.315-4.062l-4.432-3.987
	l-20.092,32.078l-33.403-52.709l-8.537,51.987h-8.646l-0.816-36.378l-9.747-1.512c-2.19,6.404-5.188,11.67-8.916,15.654
	c-5.988,6.363-13.511,9.465-22.983,9.465c-10.855,0-19.751-3.694-27.198-11.291c-1.158-1.182-2.277-2.472-3.33-3.835l-4.042-5.243
	l-3.945,5.315c-2.569,3.456-5.289,6.174-8.09,8.081c-3.084,2.094-6.875,3.545-11.26,4.307c-2.089,0.362-4.164,0.549-6.161,0.549
	c-7.838,0-14.945-2.726-21.726-8.34c-4.323-3.577-7.875-7.852-10.559-12.706l-7.004-12.674l-2.325,14.295
	c-2.44,15.017-8.554,27.445-18.172,36.941C81.401,263.714,70.824,268.294,58.603,268.294z M218.174,172.716
	c-5.382,0-10.354,1.907-14.786,5.669c-5.146,4.388-7.75,10.062-7.75,16.881c0,4.375,1.571,8.246,4.542,11.202
	c2.958,2.944,6.866,4.504,11.297,4.504c5.393,0,10.543-2.532,15.307-7.523c4.703-4.929,7.085-10.19,7.085-15.646
	c0-4.09-1.622-7.795-4.688-10.719C226.183,174.224,222.376,172.716,218.174,172.716z M277.335,152.989
	c-2.714,0-5.272,1.008-7.605,2.998l-2.014,1.716l3.627,33.752h6.615c3.035,0,7.431-1.157,11.128-6.662
	c2.546-3.782,3.839-8.376,3.839-13.64c0-4.729-1.476-8.916-4.384-12.434C284.618,153.983,280.283,152.989,277.335,152.989z
	 M391.947,240.083l-0.432-15.724l-2.618-96.09l13.202-4.545v44.76h24.632l7.871-61.271l13.478,4.843l-3.138,51.969l51.64-9.445
	l1.521,17.542l6.689-3.551c3.477-1.845,7.38-3.449,11.61-4.762c5.537-1.722,11.23-2.696,16.921-2.893
	c1.023-0.037,2.027-0.055,3.023-0.055c11.182,0,20.36,2.292,27.276,6.814c5.98,3.914,10.292,9.321,13.175,16.536
	c2.145,5.402,3.347,11.403,3.572,17.812c0.33,9.723-4.492,18.175-14.754,25.843c-10.368,7.728-22.498,11.881-36.044,12.349
	c-0.71,0.028-1.414,0.04-2.109,0.04c-1.737,0-3.443-0.08-5.071-0.233c-1.105-0.104-2.183-0.258-3.219-0.456L506.1,175.309
	l-44.438,6.202l2.105,19.23l20.375-2.843l0.134,1.198l-16.105,2.979l1.976,18.05l31.244-2.799l1.637,6.799l-45.479,13.154
	l-5.004-34.635l-9.961,0.415l-2.561,42.405l-15.3-4.408l2.437-55.435l-27.471,14.702l2.925,46.318L391.947,240.083z
	 M541.278,179.986c-0.879,0-1.79,0.021-2.725,0.048l-5.331,0.187l3.588,36.929l4.707-0.161c6.02-0.209,11.392-2.124,15.973-5.689
	c6.057-4.714,7.375-10.162,7.354-14.061c0.129-0.98,0.179-1.961,0.145-2.925c-0.153-4.286-2.152-7.843-5.806-10.287
	C555.151,181.313,549.296,179.986,541.278,179.986z"/>
<g>
	<path fill="none" d="M503.373,295.953c12.502-4.379,25.599-10.383,24.333-17.045c-0.134-0.679-0.879-0.767-1.759-0.601
		c-5.641,1.075-23.188,16.355-22.953,17.597C503.019,296.019,503.019,296.019,503.373,295.953z"/>
	<path fill="none" stroke="#010101" stroke-width="5.0098" d="M306.889,303.563c-0.519-2.364-0.797-4.658-0.776-6.646
		c47.002-10.308,60.789-21.253,58.183-33.08c-3.347-15.21-40.892-24.118-72.792-18.788c-5.723,0.956-10.7,4.239-10.107,6.944
		c0.472,2.143,1.842,2.15,9.103,1.98c1.813-0.065,3.182-0.065,3.257,0.279c0.023,0.111,0.05,0.225-0.708,0.932
		c-5.414,5.46-5.375,26.363-4.961,41.706c-1.273,0.449-3.176,1.118-2.704,3.254c0.248,1.131,2.105,1.288,3.722,1.369
		c0.03,3.263,0.07,7.577,0.963,11.633c0.667,3.041,7.136,25.575,8.781,27.869c0.318,0.415,3.473,0.238,7.214-0.383
		c5.279-0.887,11.487-2.743,11.212-3.98c-0.073-0.338-0.735-1.278-1.151-2.142C315.359,333.116,307.932,308.294,306.889,303.563z
		 M308.24,255.805c14.183-0.854,31.862,5.885,33.796,14.671c2.006,9.131-13.551,16.163-36.771,21.563
		C303.593,280.286,305.691,262.887,308.24,255.805z"/>
	<path fill="none" stroke="#010101" stroke-width="3.3399" stroke-miterlimit="10" d="M603.678,227.159
		c12.363-5.63,14.199-13.155,12.029-18.502c-1.984-4.892-7.238-8.104-11.167-6.323c-6.08,2.771-13.968,18.309-11.307,24.873
		C594.597,230.57,598.77,229.393,603.678,227.159z"/>
	<g>
		<path fill="none" stroke="#010101" stroke-width="5.0098" d="M671.036,197.511c-0.321-1.693-1.237-2.693-3-2.354
			c-6.169,1.176-6.491,14.808-5.66,26.815c0.233,1.242,0.191,1.017,0.298,1.58C666.859,218.662,672.078,202.923,671.036,197.511z"/>
		<path fill="none" stroke="#010101" stroke-width="5.0098" d="M348.628,301.562c12.501-4.375,25.6-10.379,24.332-17.041
			c-0.133-0.673-0.878-0.77-1.76-0.6c-5.64,1.071-23.182,16.354-22.947,17.594C348.273,301.632,348.273,301.632,348.628,301.562z"/>
		<path fill="none" stroke="#010101" stroke-width="5.0098" d="M756.32,230.034c-0.237-1.238-1.799-1.763-3.204-1.496
			c-0.534,0.105-1.195,0.463-1.66,0.903c-2.607,2.602-7.906,7.354-9.366,8.339c2.028-5.653,4.041-13.291,2.771-19.952
			c-0.641-3.384-2.174-6.606-5.044-9.22c-0.679-0.685-7.26-0.717-9.727-0.245c-0.533,0.101-0.863,0.278-0.84,0.391
			c-0.62,5.952-13.782,19.981-22.855,29.046c-0.146,0.098-0.282,0.198-0.398,0.308c-5.417,5.124-9.95,10.085-18.764,11.766
			c-14.272,2.722-18.582-3.592-21.748-20.189c7.916-13.091,14.763-27.962,12.674-38.914c-1.032-5.42-4.863-10.187-9.799-9.242
			c-3.702,0.7-8.073,3.641-10.179,6.031c-10.903,12.727-11.088,29.958-8.374,44.181c0.431,2.259,0.839,4.403,1.403,6.404
			c-4.513,5.04-9.978,10.242-13.014,12.997c-0.008,0.008-0.016,0.012-0.024,0.016c-2.694,2.149-10.307,11.085-17.889,12.532
			c-10.569,2.017-16.371-11.149-19.799-21.493c-0.287-0.527-6.553-1.794-10.783-0.987c-1.234,0.234-2.25,0.665-3.04,1.282
			c-5.621,4.819-17.194,16.577-23.623,22.422c-0.178,0.136-0.37,0.256-0.512,0.435c-0.053,0.061-0.109,0.108-0.165,0.17
			c-0.149,0.137-0.314,0.29-0.461,0.41c-0.402,0.339-0.652,0.662-0.846,0.984c-5.384,5.597-10.993,8.178-17.614,9.44
			c-13.924,2.656-18.51-1.268-19.478-6.344c-0.428-2.258,0.242-4.495,2.868-6.049c8.072-4.472,15.354-8.577,20.964-12.114
			l0.718,9.856c4.961-3.848,8.699-14.139,10.098-18.445c0.485-0.742,0.718-1.402,0.609-1.967c-0.56-2.937-5.754-3.347-10.514-2.444
			c-15.859,3.024-39.913,28.204-51.034,38.866c-0.081,0.073-0.13,0.145-0.203,0.22c-0.031,0.029-0.072,0.045-0.096,0.07
			c-6.085,6.423-12.182,11.799-16.412,12.605c-2.646,0.504-4.541-3.703-7.949-10.074c-3.447-6.592-8.995-11.733-17.278-10.152
			c-9.694,1.847-19.732,12.419-26.808,20.319c1.604-4.988,5.468-18.243,4.221-24.792c-0.516-2.706-1.915-4.311-4.561-3.803
			c-0.88,0.161-1.92,0.48-3.063,1.168c-11.168,6.195-33.003,28.294-41.62,36.467c-0.162,0.109-0.309,0.202-0.49,0.339
			c-4.883,4.085-10.726,11.754-21.653,13.836c-10.399,1.984-13.749-2.174-14.372-5.447c-0.088-0.451-0.193-1.017-0.104-1.501
			c23.302-8.069,35.85-18.883,34.237-27.352c-0.494-2.599-4.455-3.247-9.036-2.372c-14.981,2.854-34.694,21.117-47.804,33.8
			c-0.927,0.881-1.128,1.735-1,2.411c0.258,1.356,1.906,2.331,3.315,2.059c0.35-0.064,0.681-0.246,0.993-0.541
			c1.412-1.202,4.289-4.326,6.607-6.524c-0.818,1.443-1.046,3.125-0.703,4.932c1.057,5.533,8.141,11.081,24.354,7.992
			c11.993-2.287,21.07-9.593,28.467-17.327c0.185-0.113,0.354-0.235,0.487-0.36c6.609-6.524,14.94-14.544,24.67-20.028
			c0.996-0.54,1.988-1.081,2.339-1.149c0.355-0.069,1.013,0.509,1.226,1.642c0.948,4.968-1.826,20.114-2.245,25.582
			c-0.178,0.969-0.274,2.387-0.166,2.952c0.278,1.468,2.876,1.677,5.699,1.136c3.169-0.604,6.701-2.212,7.652-3.916
			c4.412-7.507,7.336-21.871,23.372-24.932c7.404-1.407,10.913,2.606,14.743,6.437c4.477,4.29,7.17,6.938,14.042,5.629
			c10.223-1.952,16.041-8.791,21.855-14.699c0.331-0.335,0.597-0.648,0.84-0.955c0.241-0.152,0.479-0.298,0.697-0.504
			c2.767-2.755,4.602-4.622,6.766-6.674c-0.374,0.895-0.382,1.831-0.229,2.617c1.976,10.388,17.984,10.029,30.143,7.706
			c10.512-2.001,20.013-7.403,26.296-14.348c0.259-0.118,0.484-0.274,0.642-0.496c6.896-6.933,11.758-11.133,16.484-15.073
			c6.311,12.016,15.529,23.009,25.747,21.062c14.212-2.71,27.115-13.162,33.281-20.301c0.138-0.097,0.298-0.168,0.415-0.281
			c4.642-4.396,8.889-8.948,11.235-11.033c2.213,11.63,10.129,18.663,25.638,15.702c13.92-2.652,20.7-7.339,31.865-18.711
			c0.011-0.012,0.016-0.024,0.028-0.032c4.483-4.201,10.803-11.21,19.965-17.698c0.652,0.577,1.267,1.863,1.589,3.557
			c0.799,4.174,0.371,10.577-0.848,12.795c-0.686,1.187-2.427,1.634-4.192,1.968c-1.058,0.202-2.308,0.327-3.19,0.497
			c-2.294,0.436-2.452,1.516-2.174,2.983c1.121,5.876,8.227,6.737,12.984,5.835c4.937-0.943,5.438-4.08,6.211-5.75
			c3.064-1.17,11.396-9.19,13.72-11.388C756.002,232.199,756.489,230.937,756.32,230.034z M371.2,283.921
			c0.881-0.17,1.627-0.073,1.76,0.6c1.268,6.662-11.831,12.666-24.332,17.041c-0.355,0.07-0.355,0.07-0.375-0.047
			C348.018,300.275,365.56,284.992,371.2,283.921z M662.376,221.973c-0.831-12.008-0.509-25.64,5.66-26.815
			c1.763-0.34,2.679,0.66,3,2.354c1.042,5.412-4.177,21.151-8.362,26.042C662.567,222.989,662.609,223.215,662.376,221.973z"/>
	</g>
	<path fill="#F7EA31" d="M601.893,225.614c12.362-5.626,14.197-13.158,12.027-18.506c-1.984-4.888-7.233-8.104-11.161-6.318
		c-6.09,2.771-13.973,18.303-11.308,24.877C592.81,229.021,596.984,227.848,601.893,225.614z"/>
	<path fill="#F7EA31" d="M305.104,302.018c-0.52-2.362-0.798-4.656-0.778-6.646c47.005-10.307,60.788-21.251,58.184-33.078
		c-3.345-15.211-40.892-24.119-72.793-18.788c-5.723,0.952-10.7,4.243-10.106,6.944c0.47,2.142,1.84,2.145,9.104,1.983
		c1.81-0.072,3.179-0.063,3.256,0.275c0.024,0.112,0.049,0.226-0.709,0.935c-5.414,5.457-5.374,26.356-4.96,41.705
		c-1.272,0.443-3.178,1.113-2.706,3.257c0.249,1.123,2.105,1.284,3.722,1.364c0.032,3.262,0.07,7.576,0.963,11.635
		c0.667,3.039,7.136,25.57,8.781,27.867c0.319,0.412,3.472,0.239,7.217-0.387c5.278-0.879,11.484-2.738,11.21-3.975
		c-0.073-0.34-0.735-1.275-1.152-2.147C313.573,331.576,306.147,306.753,305.104,302.018z M306.454,254.258
		c14.183-0.852,31.863,5.887,33.799,14.67c2.004,9.128-13.551,16.166-36.773,21.566
		C301.806,278.743,303.907,261.338,306.454,254.258z"/>
	<g>
		<path fill="none" d="M669.25,195.963c-0.318-1.692-1.237-2.688-2.995-2.354c-6.175,1.177-6.496,14.812-5.666,26.819
			c0.239,1.243,0.189,1.021,0.299,1.581C665.069,217.117,670.287,201.383,669.25,195.963z"/>
		<path fill="none" d="M346.841,300.019c12.501-4.372,25.6-10.38,24.332-17.041c-0.131-0.679-0.879-0.768-1.76-0.602
			c-5.639,1.076-23.183,16.352-22.947,17.594C346.489,300.083,346.489,300.083,346.841,300.019z"/>
		<path fill="#F7EA31" d="M754.534,228.49c-0.237-1.243-1.799-1.763-3.209-1.492c-0.524,0.096-1.186,0.459-1.655,0.898
			c-2.604,2.601-7.911,7.354-9.363,8.335c2.025-5.648,4.037-13.291,2.768-19.944c-0.646-3.388-2.171-6.605-5.041-9.218
			c-0.686-0.694-7.266-0.723-9.734-0.251c-0.523,0.098-0.854,0.278-0.836,0.391c-0.616,5.948-13.779,19.982-22.854,29.047
			c-0.15,0.097-0.288,0.201-0.399,0.307c-5.416,5.129-9.949,10.089-18.76,11.768c-14.275,2.717-18.582-3.594-21.751-20.188
			c7.919-13.09,14.76-27.97,12.674-38.921c-1.037-5.417-4.866-10.183-9.799-9.243c-3.702,0.709-8.073,3.645-10.174,6.032
			c-10.904,12.727-11.094,29.961-8.379,44.18c0.426,2.263,0.838,4.404,1.403,6.403c-4.51,5.041-9.978,10.244-13.014,13.001
			c-0.004,0.009-0.021,0.009-0.029,0.017c-2.692,2.154-10.302,11.089-17.879,12.533c-10.574,2.017-16.373-11.153-19.809-21.493
			c-0.282-0.532-6.548-1.79-10.774-0.984c-1.237,0.235-2.25,0.662-3.049,1.279c-5.612,4.818-17.194,16.577-23.614,22.42
			c-0.182,0.134-0.375,0.254-0.516,0.432c-0.053,0.064-0.109,0.113-0.161,0.178c-0.153,0.133-0.315,0.282-0.46,0.411
			c-0.411,0.334-0.662,0.661-0.851,0.984c-5.385,5.588-10.993,8.173-17.619,9.436c-13.919,2.652-18.501-1.267-19.473-6.347
			c-0.428-2.259,0.242-4.492,2.867-6.045c8.073-4.473,15.355-8.578,20.969-12.117l0.714,9.863
			c4.961-3.856,8.698-14.139,10.102-18.453c0.476-0.737,0.714-1.399,0.604-1.964c-0.556-2.932-5.749-3.351-10.509-2.44
			c-15.863,3.021-39.921,28.2-51.039,38.858c-0.085,0.08-0.133,0.149-0.206,0.226c-0.027,0.023-0.063,0.039-0.096,0.068
			c-6.081,6.423-12.179,11.795-16.408,12.603c-2.642,0.508-4.541-3.695-7.948-10.066c-3.452-6.597-8.992-11.743-17.275-10.162
			c-9.694,1.847-19.736,12.421-26.813,20.324c1.608-4.983,5.473-18.242,4.222-24.792c-0.516-2.709-1.919-4.314-4.561-3.807
			c-0.879,0.169-1.915,0.484-3.064,1.169c-11.166,6.199-33.002,28.296-41.619,36.471c-0.16,0.109-0.307,0.203-0.491,0.339
			c-4.883,4.088-10.726,11.751-21.652,13.835c-10.399,1.98-13.749-2.173-14.372-5.448c-0.087-0.451-0.194-1.016-0.104-1.499
			c23.299-8.073,35.853-18.889,34.237-27.358c-0.495-2.596-4.455-3.24-9.039-2.37c-14.981,2.86-34.694,21.123-47.802,33.801
			c-0.927,0.879-1.128,1.734-0.997,2.411c0.255,1.355,1.903,2.332,3.313,2.066c0.353-0.07,0.684-0.251,0.994-0.542
			c1.414-1.21,4.291-4.33,6.609-6.524c-0.821,1.439-1.049,3.12-0.703,4.927c1.052,5.534,8.139,11.083,24.354,7.994
			c11.991-2.291,21.068-9.593,28.465-17.332c0.187-0.112,0.354-0.229,0.486-0.354c6.609-6.525,14.945-14.549,24.671-20.033
			c0.996-0.532,1.988-1.082,2.339-1.146c0.355-0.068,1.012,0.508,1.226,1.642c0.952,4.964-1.822,20.114-2.242,25.578
			c-0.185,0.969-0.278,2.396-0.169,2.956c0.278,1.468,2.88,1.674,5.694,1.141c3.174-0.609,6.702-2.218,7.661-3.919
			c4.412-7.509,7.332-21.872,23.369-24.929c7.403-1.411,10.908,2.596,14.747,6.428c4.468,4.299,7.165,6.944,14.036,5.63
			c10.224-1.948,16.042-8.787,21.856-14.695c0.326-0.339,0.602-0.653,0.843-0.956c0.234-0.148,0.476-0.294,0.693-0.504
			c2.767-2.751,4.602-4.621,6.767-6.674c-0.378,0.892-0.378,1.826-0.229,2.618c1.979,10.387,17.98,10.023,30.142,7.71
			c10.514-2.01,20.014-7.412,26.293-14.349c0.257-0.121,0.483-0.277,0.645-0.5c6.896-6.928,11.759-11.134,16.485-15.072
			c6.311,12.017,15.524,23.008,25.747,21.061c14.207-2.71,27.114-13.166,33.281-20.296c0.137-0.096,0.298-0.168,0.42-0.285
			c4.636-4.396,8.884-8.949,11.226-11.034c2.219,11.627,10.133,18.658,25.643,15.703c13.925-2.653,20.7-7.339,31.865-18.711
			c0.013-0.012,0.016-0.023,0.028-0.035c4.483-4.203,10.806-11.212,19.961-17.695c0.661,0.572,1.273,1.863,1.596,3.556
			c0.795,4.178,0.367,10.574-0.854,12.796c-0.683,1.186-2.424,1.634-4.186,1.972c-1.062,0.201-2.315,0.323-3.194,0.491
			c-2.294,0.436-2.452,1.518-2.171,2.985c1.118,5.87,8.224,6.738,12.981,5.83c4.937-0.939,5.433-4.076,6.215-5.746
			c3.065-1.169,11.392-9.189,13.718-11.392C754.221,230.654,754.703,229.393,754.534,228.49z M369.413,282.376
			c0.881-0.166,1.629-0.077,1.76,0.602c1.268,6.661-11.831,12.669-24.332,17.041c-0.353,0.064-0.353,0.064-0.375-0.049
			C346.23,298.728,363.774,283.452,369.413,282.376z M660.589,220.428c-0.83-12.008-0.509-25.643,5.666-26.819
			c1.758-0.334,2.677,0.662,2.995,2.354c1.037,5.42-4.181,21.154-8.362,26.046C660.778,221.448,660.828,221.671,660.589,220.428z"/>
	</g>
</g>
<path opacity="0.51" fill="#F8E700"  a:adobe-blending-mode="softLight" d="M363.796,122.625c-7.588-1.745,7.068-15.599-6.66-14.689
	c3.448,1.575,6.96,1.571,5.607,6.958c-0.813,3.23-6.986,5.828-6.419,8.803c1.963,0.066,5.194-0.871,6.916-1.351"/>
<g>
	<path fill="none" stroke="#010101" stroke-width="4.2677" d="M715.678,258.378v14.453h5.194v3.612h-13.74v-18.065H715.678z"/>
	<path fill="none" stroke="#010101" stroke-width="4.2677" d="M731.48,258.378v14.453h5.194v3.612h-13.739v-18.065H731.48z"/>
	<path fill="none" stroke="#010101" stroke-width="4.2677" d="M758.059,266.242h-8.542v-3.138c0-0.912-0.087-1.484-0.274-1.71
		c-0.18-0.227-0.586-0.338-1.209-0.338c-0.701,0-1.145,0.136-1.338,0.41c-0.186,0.274-0.282,0.871-0.282,1.786v8.393
		c0,0.879,0.097,1.451,0.282,1.718c0.193,0.271,0.617,0.403,1.282,0.403c0.632,0,1.048-0.133,1.246-0.403
		c0.198-0.267,0.293-0.896,0.293-1.888v-2.273h8.542v0.701c0,1.875-0.242,3.202-0.718,3.984c-0.483,0.781-1.544,1.468-3.185,2.056
		c-1.646,0.59-3.67,0.884-6.078,0.884c-2.504,0-4.568-0.25-6.189-0.746c-1.621-0.5-2.697-1.193-3.227-2.073
		c-0.523-0.883-0.79-2.209-0.79-3.98v-5.278c0-1.302,0.08-2.282,0.241-2.927c0.162-0.654,0.646-1.282,1.452-1.888
		c0.807-0.601,1.919-1.072,3.348-1.42c1.428-0.346,3.067-0.52,4.919-0.52c2.518,0,4.593,0.271,6.23,0.802
		c1.634,0.537,2.714,1.202,3.227,2.001c0.511,0.799,0.77,2.041,0.77,3.73V266.242z"/>
</g>
<g>
	<path fill="#F7EA31" d="M715.678,258.378v14.453h5.194v3.612h-13.74v-18.065H715.678z"/>
	<path fill="#F7EA31" d="M731.48,258.378v14.453h5.194v3.612h-13.739v-18.065H731.48z"/>
	<path fill="#F7EA31" d="M758.059,266.242h-8.542v-3.138c0-0.912-0.087-1.484-0.274-1.71c-0.18-0.227-0.586-0.338-1.209-0.338
		c-0.701,0-1.145,0.136-1.338,0.41c-0.186,0.274-0.282,0.871-0.282,1.786v8.393c0,0.879,0.097,1.451,0.282,1.718
		c0.193,0.271,0.617,0.403,1.282,0.403c0.632,0,1.048-0.133,1.246-0.403c0.198-0.267,0.293-0.896,0.293-1.888v-2.273h8.542v0.701
		c0,1.875-0.242,3.202-0.718,3.984c-0.483,0.781-1.544,1.468-3.185,2.056c-1.646,0.59-3.67,0.884-6.078,0.884
		c-2.504,0-4.568-0.25-6.189-0.746c-1.621-0.5-2.697-1.193-3.227-2.073c-0.523-0.883-0.79-2.209-0.79-3.98v-5.278
		c0-1.302,0.08-2.282,0.241-2.927c0.162-0.654,0.646-1.282,1.452-1.888c0.807-0.601,1.919-1.072,3.348-1.42
		c1.428-0.346,3.067-0.52,4.919-0.52c2.518,0,4.593,0.271,6.23,0.802c1.634,0.537,2.714,1.202,3.227,2.001
		c0.511,0.799,0.77,2.041,0.77,3.73V266.242z"/>
</g>
<g>
	<path fill="#010101" d="M708.506,280.436v1.054c0,0.237-0.023,0.414-0.07,0.523c-0.049,0.109-0.15,0.215-0.299,0.307
		c-0.154,0.098-0.339,0.165-0.549,0.205c-0.218,0.041-0.451,0.064-0.719,0.064c-0.347,0-0.636-0.023-0.871-0.064
		c-0.229-0.048-0.409-0.112-0.547-0.205c-0.138-0.092-0.234-0.189-0.29-0.294c-0.061-0.102-0.089-0.263-0.089-0.489v-1.101
		c0-0.29,0.048-0.508,0.136-0.652c0.093-0.146,0.279-0.263,0.553-0.351c0.279-0.085,0.608-0.134,1-0.134
		c0.319,0,0.609,0.032,0.858,0.097c0.251,0.058,0.44,0.13,0.565,0.219c0.124,0.088,0.21,0.185,0.254,0.298
		C708.482,280.017,708.506,280.195,708.506,280.436z M707.049,280.17c0-0.17-0.014-0.273-0.045-0.319
		c-0.028-0.044-0.101-0.06-0.21-0.06s-0.182,0.021-0.215,0.063c-0.031,0.05-0.052,0.15-0.052,0.315v1.54
		c0,0.186,0.016,0.3,0.049,0.334c0.032,0.039,0.1,0.058,0.21,0.058c0.107,0,0.18-0.019,0.213-0.068
		c0.032-0.041,0.05-0.146,0.05-0.298V280.17z"/>
	<path fill="#010101" d="M712.208,279.363v0.509h-1.805v0.531c0.225-0.146,0.515-0.213,0.869-0.213c0.4,0,0.703,0.06,0.912,0.181
		c0.203,0.122,0.307,0.355,0.307,0.703v0.451c0,0.226-0.021,0.391-0.06,0.495c-0.036,0.106-0.125,0.203-0.255,0.29
		c-0.129,0.089-0.311,0.158-0.54,0.205c-0.234,0.05-0.517,0.073-0.852,0.073c-0.374,0-0.705-0.036-0.988-0.104
		c-0.29-0.072-0.492-0.178-0.612-0.323c-0.121-0.136-0.178-0.354-0.178-0.651v-0.171h1.457v0.197c0,0.207,0.013,0.352,0.036,0.436
		c0.028,0.085,0.121,0.13,0.272,0.13c0.072,0,0.135-0.011,0.179-0.037c0.044-0.023,0.067-0.052,0.072-0.08
		c0-0.031,0.008-0.153,0.012-0.376v-0.625c0-0.12-0.02-0.2-0.068-0.24c-0.049-0.045-0.122-0.065-0.226-0.065
		c-0.068,0-0.124,0.008-0.17,0.033c-0.048,0.02-0.076,0.048-0.087,0.072c-0.018,0.024-0.021,0.08-0.021,0.177h-1.439l0.055-1.597
		H712.208z"/>
	<path fill="#010101" d="M714.773,280.96v0.542h-1.914v-0.542H714.773z"/>
	<path fill="#010101" d="M718.598,280.436v1.054c0,0.237-0.026,0.414-0.073,0.523c-0.049,0.109-0.145,0.215-0.3,0.307
		c-0.152,0.098-0.337,0.165-0.548,0.205c-0.213,0.041-0.451,0.064-0.718,0.064c-0.348,0-0.638-0.023-0.871-0.064
		c-0.226-0.048-0.41-0.112-0.548-0.205c-0.137-0.092-0.235-0.189-0.29-0.294c-0.062-0.102-0.09-0.263-0.09-0.489v-1.101
		c0-0.29,0.049-0.508,0.137-0.652c0.099-0.146,0.279-0.263,0.555-0.351c0.277-0.085,0.607-0.134,1.004-0.134
		c0.313,0,0.6,0.032,0.854,0.097c0.251,0.058,0.443,0.13,0.564,0.219c0.125,0.088,0.21,0.185,0.259,0.298
		C718.571,280.017,718.598,280.195,718.598,280.436z M717.136,280.17c0-0.17-0.011-0.273-0.04-0.319
		c-0.032-0.044-0.104-0.06-0.212-0.06c-0.109,0-0.182,0.021-0.215,0.063c-0.032,0.05-0.048,0.15-0.048,0.315v1.54
		c0,0.186,0.011,0.3,0.045,0.334c0.036,0.039,0.101,0.058,0.213,0.058c0.105,0,0.178-0.019,0.209-0.068
		c0.032-0.041,0.048-0.146,0.048-0.298V280.17z"/>
	<path fill="#010101" d="M722.088,279.363v2.068h0.412v0.537h-0.412v0.556h-1.46v-0.556h-1.724v-0.537l1.257-2.068H722.088z
		 M720.628,281.432v-1.351l-0.641,1.351H720.628z"/>
	<path fill="#010101" d="M724.588,280.96v0.542h-1.914v-0.542H724.588z"/>
	<path fill="#010101" d="M728.117,281.989v0.535h-3.206v-0.452c0.952-0.837,1.517-1.358,1.694-1.559
		c0.177-0.198,0.266-0.354,0.266-0.469c0-0.084-0.024-0.148-0.08-0.194c-0.053-0.044-0.137-0.06-0.246-0.06
		s-0.189,0.024-0.246,0.069c-0.057,0.044-0.08,0.14-0.08,0.277v0.303h-1.308v-0.117c0-0.178,0.016-0.314,0.05-0.419
		c0.034-0.102,0.119-0.202,0.249-0.298c0.133-0.102,0.306-0.179,0.517-0.227c0.209-0.053,0.467-0.081,0.757-0.081
		c0.581,0,1.017,0.081,1.315,0.237c0.298,0.158,0.443,0.353,0.443,0.594c0,0.178-0.081,0.371-0.245,0.573
		c-0.17,0.2-0.658,0.628-1.478,1.286H728.117z"/>
	<path fill="#010101" d="M732.113,280.436v1.054c0,0.237-0.023,0.414-0.068,0.523c-0.049,0.109-0.15,0.215-0.303,0.307
		c-0.148,0.098-0.33,0.165-0.547,0.205c-0.211,0.041-0.452,0.064-0.714,0.064c-0.353,0-0.638-0.023-0.868-0.064
		c-0.234-0.048-0.42-0.112-0.556-0.205c-0.138-0.092-0.23-0.189-0.291-0.294c-0.056-0.102-0.084-0.263-0.084-0.489v-1.101
		c0-0.29,0.044-0.508,0.141-0.652c0.089-0.146,0.274-0.263,0.548-0.351c0.275-0.085,0.609-0.134,0.999-0.134
		c0.324,0,0.606,0.032,0.86,0.097c0.255,0.058,0.439,0.13,0.564,0.219c0.126,0.088,0.209,0.185,0.253,0.298
		C732.095,280.017,732.113,280.195,732.113,280.436z M730.661,280.17c0-0.17-0.016-0.273-0.047-0.319
		c-0.028-0.044-0.099-0.06-0.211-0.06c-0.104,0-0.178,0.021-0.212,0.063c-0.038,0.05-0.055,0.15-0.055,0.315v1.54
		c0,0.186,0.017,0.3,0.05,0.334c0.031,0.039,0.104,0.058,0.209,0.058c0.112,0,0.177-0.019,0.214-0.068
		c0.036-0.041,0.052-0.146,0.052-0.298V280.17z"/>
	<path fill="#010101" d="M734.885,279.363v3.161h-1.457v-1.693c0-0.245-0.008-0.396-0.031-0.444
		c-0.024-0.047-0.081-0.087-0.179-0.111c-0.096-0.025-0.314-0.036-0.653-0.036h-0.146v-0.367c0.711-0.085,1.243-0.255,1.607-0.509
		H734.885z"/>
	<path fill="#010101" d="M738.187,280.734c0.217,0.041,0.383,0.104,0.491,0.197c0.104,0.093,0.161,0.307,0.161,0.646
		c0,0.254-0.052,0.448-0.156,0.584c-0.108,0.142-0.29,0.251-0.548,0.323c-0.263,0.068-0.592,0.104-0.996,0.104
		c-0.464,0-0.823-0.039-1.09-0.125c-0.265-0.084-0.436-0.188-0.516-0.309c-0.089-0.122-0.13-0.332-0.13-0.635v-0.249h1.46v0.511
		c0,0.137,0.016,0.228,0.044,0.262c0.028,0.039,0.094,0.058,0.199,0.058c0.111,0,0.189-0.024,0.226-0.068
		c0.031-0.049,0.055-0.169,0.055-0.37v-0.219c0-0.122-0.031-0.209-0.08-0.267c-0.047-0.057-0.12-0.093-0.221-0.108
		c-0.101-0.021-0.291-0.029-0.572-0.031v-0.462c0.342,0,0.56-0.003,0.641-0.019c0.079-0.018,0.142-0.044,0.178-0.093
		c0.031-0.05,0.055-0.125,0.055-0.23v-0.174c0-0.109-0.023-0.181-0.063-0.222c-0.044-0.032-0.109-0.048-0.198-0.048
		c-0.102,0-0.175,0.016-0.206,0.052c-0.041,0.037-0.057,0.118-0.057,0.238v0.263h-1.46v-0.271c0-0.303,0.13-0.508,0.384-0.612
		c0.254-0.105,0.656-0.162,1.214-0.162c0.694,0,1.169,0.072,1.415,0.222c0.246,0.15,0.366,0.352,0.366,0.612
		c0,0.179-0.039,0.308-0.128,0.384C738.564,280.597,738.408,280.67,738.187,280.734z"/>
</g>
</svg>
