<?xml version="1.0" encoding="utf-8"?>
<!-- Generator: Adobe Illustrator 16.0.3, SVG Export Plug-In . SVG Version: 6.00 Build 0)  -->
<!DOCTYPE svg PUBLIC "-//W3C//DTD SVG 1.1//EN" "http://www.w3.org/Graphics/SVG/1.1/DTD/svg11.dtd">
<svg version="1.1" id="Layer_1" xmlns="http://www.w3.org/2000/svg" xmlns:xlink="http://www.w3.org/1999/xlink" x="0px" y="0px"
	 width="300px" height="300px" viewBox="0 0 300 300" enable-background="new 0 0 300 300" xml:space="preserve">
<g>
	<defs>
		<circle id="SVGID_1_" cx="150" cy="150" r="140"/>
	</defs>
	<clipPath id="SVGID_2_">
		<use xlink:href="#SVGID_1_"  overflow="visible"/>
	</clipPath>
	
		<circle clip-path="url(#SVGID_2_)" fill="#F58620" stroke="#000000" stroke-width="10" stroke-linecap="round" stroke-linejoin="round" stroke-miterlimit="10" cx="150" cy="150" r="140"/>
	<g clip-path="url(#SVGID_2_)">
		<g>
			<path fill="#9B5235" stroke="#773519" stroke-width="1.1674" d="M117.811,103.115c-1.354,1.998-3.245-4.171-3.373-5.223
				c-0.545-4.377-0.276-8.831-0.832-13.236c-1.357-10.699-3.652-21.488-13.377-27.697c-8.162-5.208-21.9-6.947-30.833-2.982
				c-3.069,1.361-5.216,3.701-7.897,5.625c-3.229,2.323-6.21,4.388-9,7.239c-5.881,6.007-9.598,12.872-10.457,21.357
				c-0.565,5.586,0.52,14.09,4.463,18.454c-2.853-3.226,1.729-7.92,3.722-10.192c0.261,2.581-0.412,5.208-0.098,7.875
				c0.285,2.416,0.978,4.757,2.285,6.845c0.647-0.731,1.052-2.088,1.696-3.009c0.941-1.355,2.178-2.339,3.326-3.43
				c-1.921,4.314-1.95,11.849,1.747,15.355c0.654-3.195,1.381-6.604,4.401-8.503c-1.13,1.798-1.547,5.074-1.794,7.181
				c-0.308,2.611-0.765,5.607-0.127,8.155c0.664,2.652,1.785,5.149,2.638,7.735c0.444,1.352,0.65,3.099,1.359,4.244
				c0.176-2.466-0.413-5.137,1.409-7.183c0.249,2.595,1.176,5.313,2.18,7.71c1.18,2.816,3.29,4.785,4.851,7.337
				c-0.316-3.738-1.693-5.938,0.039-9.75c-0.352,3.948,3.376,5.844,4.774,9.127c0.759,1.787,1.189,4.648,0.136,6.462
				c-0.55,0.952-1.905,1.373-2.271,2.233c2.416,0.164,3.702-0.475,5.59-2.031c2.168-1.781,2.626-4.686,4.359-6.351
				c0.347,1.271,0.452,3.019,0.349,4.334c-0.136,1.774-1.489,2.873-1.875,4.403c4.583-0.908,9.043-4.654,9.765-9.475
				c1-6.659-3.479-12.655-2.421-19.272c0.963-5.988,6.286-8.865,11.45-11.23c2.012-0.919,4.24-1.75,6.448-1.226
				c1.458,0.342,2.799,1.213,4.236,1.588c0.224,0.007-0.145-0.11-0.2-0.186"/>
			<path fill="#C16B51" d="M90.266,80.658c0.195,0.053,0.322,0,0.39-0.162c-2.251-3.324-5.93-4.458-9.906-3.708
				c-4.56,0.857-7.019,2.925-9.718,6.32c0.683-2.97,3.575-5.267,3.947-8.213c-3.314-0.425-6.504,1.639-8.689,3.825
				c1.788-2.746,4.701-4.594,6.454-7.189c-3.575-2.272-9.868,1.184-11.487,4.725c2.282-5.545,7.475-13.5,14.401-13.883
				c-2.611-1.095-8.203-0.744-10.43,1.114c2.425-1.165,4.046-2.787,6.791-3.533c2.404-0.654,4.917-0.838,7.348-1.257
				c-1.119-2.387-7.089-1.733-9.046-0.661c3.016-1.127,5.492-2.646,8.853-2.823c1.41-0.072,4.057-0.342,5.251,0.503
				c-1.519-0.803-2.931-1.324-4.639-1.548c6.25-0.174,13.509,1.407,18.542,5.214c5.159,3.897,8.232,8.079,10.292,14.21
				c-0.992-1.862-2.335-3.196-3.634-4.81c2.181,4.593,3.251,8.867,3.707,13.925c-1.311-6.036-5.964-10.821-10.511-14.619
				c4.142,4.15,6.25,9.899,5.946,15.692c-0.436-3.47-3.446-6.059-5.777-8.335c2.204,3.621,3.336,7.358,3.12,11.672
				c-1.367-1.995-3.504-8.13-6.45-8.19c1.024,2.396,1.514,4.854,1.359,7.473c-1.083-1.901-2.226-4.859-4.32-5.9
				c-0.047,1.098-0.121,2.08-0.426,3.124c-0.365-0.81-0.967-2.972-1.54-3.141"/>
			<path fill="#773519" d="M90.794,145.4c2.241-3.328,0.338-9.395-0.306-13.032c-0.832-4.691-0.769-9.303,0.999-13.812
				c1.699-4.349,5.867-7.135,10.408-7.72c3.79-0.491,6.861,0.841,10.413,1.027c-0.664-1.024-2.166-2.146-3.431-2.293
				c2.102-0.656,5.843,0.666,7.871,1.601c-0.317-0.421-1.144-1.145-1.266-1.706c-0.131-0.602,0.418-0.664,0.446-1.226
				c0.051-0.931-0.109-1.606-0.247-2.635c-1.608-0.606-2.328-2.417-3.262-3.752c-1.548-2.226-2.609-4.039-3.206-6.584
				c-0.853,1.468,1.369,4.129,1.193,5.9c-1.578-1.063-3.627-2.556-5.028-3.819c1.891,2.173,3.508,4.677,4.696,7.322
				c-4.607-2.042-9.18-3.429-14.181-4.157c2.142,1.153,4.389,2.752,6.602,4.016c-3.601,0.183-10.179,0.18-12.742,3.287
				c2.33,0.165,4.631-0.259,6.947,0.073c-3.471,2.421-7.186,3.191-9.6,7.025c-1.748,2.784-1.405,6.011-2.202,9.027
				c0.615-1.408,1.628-2.177,2.713-3.232c-0.218,2.911-1.295,5.255-0.986,8.32c0.265,2.632,0.493,5.235,0.474,7.895
				c0.18-0.79,0.637-1.846,1.377-2.029c0.776,1.994,1.503,4.206,1.829,6.338C90.497,142.47,90.087,144.494,90.794,145.4"/>
			<path fill="#773519" d="M92.373,99.607c-2.676-1.7-8.076,0.066-10.492,1.526c-4.003,2.417-7.229,8.166-8.635,12.508
				c-1.889,5.82,1.542,12.298-2.644,16.953c1.952-3.546,0.379-8.052,0.364-11.864c-0.018-4.814,1.117-10.417,3.294-14.691
				c3.491-6.837,12.644-9.195,18.81-4.784"/>
		</g>
		<path fill="#9B5235" stroke="#773519" stroke-width="1.1674" d="M179.849,131.864c8.232,9.006-0.367,21.83-1.552,31.56
			c-2.09,17.169,5.169,30.906,17.082,42.845c10.562,10.583,26.806,22.559,26.809,39.143c0.006,13.063-3.861,24.735-16.304,30.573
			c3.686-2.455,8.461-2.877,12.284-5.488c4.424-3.024,9.109-6.542,12.25-10.894c7.127-9.87,10.522-22.154,13.99-33.468
			c-0.188,8.769-2.51,17.515-5.808,25.638c2.471-7.842,7.064-15.08,8.352-23.396c0.991-6.409,0.062-13.378-1.774-19.496
			c4.186,6.255,4.674,14.689,11.808,18.29c-4.875-4.564-7.396-11.177-8.591-17.703c-1.127-6.183-3.297-16.888-1.129-22.76
			c1.903,3.185,2.425,7.303,3.71,10.805c4.912-14.442,3.543-29.358,0.089-43.881c-3.232-13.593-11.288-24.421-20.357-34.839
			c-9.524-10.944-40.496-27.828-49.933-7.87c-2.45,5.177-2.272,9.489-0.515,14.776"/>
		<path fill="#773519" d="M182.315,135.154c5.238,3.018,2.594,14.028,1.632,18.909c-1.466,7.43-2.934,15.198-2.054,23.029
			c2.001,17.818,21.803,25.28,31.65,37.809c7.771,9.882,8.788,21.566,11.021,33.171c0.295-2.89,0.903-12.206,2.479-13.827
			c0.679,2.451,1.673,4.865,2.564,7.249c-0.112-7.224-0.589-15.858-3.68-22.429c2.05,1.241,3.735,4.546,4.594,6.91
			c2.187-5.067-5.945-14.716-8.271-19.233c3.594,2.415,5.398,4.129,7.675,7.715c-2.774-8.198-9.68-13.167-16.326-17.889
			c1.561,2.484,3.129,5.518,4.015,8.353c-1.024-1.286-2.121-2.591-3.478-3.554c2.708,7.035,5.501,13.614,6.427,21.229
			c-3.426-6.624-7.573-13.534-12.854-18.795c-3.954-3.936-8.192-6.705-11.272-11.458c3.98,1.692,6.404,6.177,10.809,7.298
			c-5.576-5.872-7.162-13.323-9.352-20.792c2.71,4.721,6.053,8.375,9.938,12.056c-2.483-6.005-6.388-11.412-7.408-17.955
			c-0.741-4.779-0.992-10.606-0.842-15.475c0.299,3.896-1.332,7.399-1.214,11.263c-2.686-8.96-6.105,0.36-7.421,4.933
			c-1.928-5.573-0.67-14.903-0.431-20.717c0.536,1.67,1.139,3.379,2.416,4.365c0.132-2.007,0.254-4.297-0.178-6.193
			c0.644,1.114,1.867,1.903,2.643,2.474c0.176-6.086-3.103-11.021-5.643-16.246c5.348,2.816,8.337,10.032,11.389,14.622
			c-0.274-6.781-6.149-12.946-8.918-18.836c4.714,1.513,7.172,7.508,10.99,10.171c-2.668-5.926-6.933-12.209-12.964-15.165
			c3.021-0.308,5.371,2.182,8.066,3.132c-2.138-2.746-13.816-11.358-16.413-5.99"/>
		<path fill="#F3DBE9" stroke="#CE9380" stroke-width="1.1674" d="M120.659,216.026c0,0-0.834,15.519-3.016,22.462l-5.462,0.65
			l-1.68,8.496l3.476,1.881c0,0-3.648,4.989-2.43,5.774c1.218,0.788,2.663,3.015,4.388,1.682c1.725-1.334,2.907-3.163,2.907-3.163
			s0.556,1.366,3.097,0.559c0,0,1.94,2.119,4.469,0.438c2.523-1.684,4.86-9.536,3.622-11.631c-1.241-2.098-3.201-3.075-3.201-3.075
			s5.49-22.806,3.297-26.961C127.938,208.981,121.449,208.832,120.659,216.026z"/>
		<path fill="#CFECFB" stroke="#62A6C4" stroke-width="1.1674" d="M127.317,170.898c0,0,4.356-8.358,10.099-2.413
			c0,0,10.072,19.49-2.026,24.586l-2.205-0.282l1.764-9.636c0,0-3,15.256-3.971,17.157l-8.652-1.196
			C122.326,199.114,122.685,184.888,127.317,170.898z"/>
		<path fill="#CFECFB" stroke="#62A6C4" stroke-width="1.1674" d="M116.859,206.573c1.222,0.092-0.407-2.688-0.566-3.394
			c-0.407-1.813,0.147-2.713,1.619-3.668c3.109-2.017,7.285-1.252,10.767-0.594c2.11,0.396,10.091,2.039,7.907,5.635
			c-0.815,1.343-2.993,1.576-2.291,3.791c0.46,1.449,2.18,2.288,2.67,3.91c1.122,3.718-3.485,7.032-6.919,6.089
			c-0.642-1.5,0.583-1.768-0.965-2.876c-0.91-0.649-2.441-1.004-3.529-1.241c-0.974-0.212-2.548-0.591-3.428-0.001
			c-1.214,0.816-0.419,2.216-2,2.691c-2.23,0.675-5.925-1.315-6.519-3.554c-0.341-1.291-0.109-3.087,0.622-4.244
			c0.712-1.12,2.392-1.361,2.863-2.442"/>
		<path fill="#F3DBE9" stroke="#CE9380" stroke-width="1.1674" d="M136.522,247.703c0.328,0.987,7.153,39.133,3.041,48.587
			l6.578,2.467c0,0,4.11-36.171-0.821-51.794C140.387,231.342,136.522,247.703,136.522,247.703z"/>
		<polyline fill="#F3DBE9" stroke="#CE9380" stroke-width="1.1674" points="156.913,243.43 177.629,290.126 183.88,287.495 
			168.093,240.798 		"/>
		<path fill="#030303" d="M133.563,166.475c0,0-11.84,14.473-3.618,56.565l41.434-2.632c0,0,1.315-47.684-16.44-54.59
			L133.563,166.475z"/>
		<path fill="#FFFFFF" stroke="#62A6C4" stroke-width="1.1674" d="M161.89,168.145c0,0-7.093-6.209-10.286,1.418
			c0,0-2.308,21.814,10.817,22.17l1.952-1.063l-5.145-8.338c0,0,8.335,13.125,9.931,14.544l7.626-4.256
			C176.785,192.619,171.288,179.495,161.89,168.145z"/>
		<path fill="#FFFFFF" stroke="#62A6C4" stroke-width="1.1674" d="M184.591,197.584c-1.104,0.527-0.6-2.652-0.707-3.369
			c-0.279-1.833-1.124-2.474-2.84-2.828c-3.63-0.75-7.242,1.479-10.249,3.354c-1.82,1.137-8.66,5.567-5.318,8.125
			c1.245,0.953,3.36,0.381,3.509,2.7c0.099,1.517-1.199,2.921-1.067,4.612c0.305,3.875,5.8,5.288,8.661,3.161
			c0.051-1.633-1.189-1.437-0.148-3.03c0.613-0.938,1.91-1.822,2.84-2.437c0.829-0.552,2.155-1.479,3.191-1.246
			c1.428,0.32,1.197,1.91,2.843,1.78c2.322-0.182,5.044-3.377,4.783-5.68c-0.151-1.326-1.021-2.916-2.123-3.729
			c-1.066-0.784-2.722-0.398-3.551-1.236"/>
		<path fill="#F3DBE9" stroke="#CE9380" stroke-width="1.1674" d="M121.938,254.367c0,0,2.672-1.57,3.864-4.128
			c0,0,2.216-3.58,3.239,0.683"/>
		<path fill="#F3DBE9" stroke="#CE9380" stroke-width="1.1674" d="M120.178,251.603l1.875-3.578c0,0,4.432-3.752,3.922,1.533"/>
		<path fill="#F3DBE9" stroke="#CE9380" stroke-width="1.1674" d="M113.359,253.99c0,0,0.509-4.262,3.238-4.433
			c2.728-0.173,4.146,2.022,2.245,4.251"/>
		<path fill="#F3DBE9" stroke="#CE9380" stroke-width="1.1674" d="M113.977,249.516l3.472,1.406c0,0,2.216,1.191,2.386-1.195
			c0.172-2.386-3.578-4.262-3.578-4.262s3.24,2.046,4.431-0.171"/>
		<path fill="#942E8C" stroke="#762670" stroke-width="1.1674" d="M129.946,223.04c0,0,0.238,5.958,0.971,10.664
			c1.079,6.945-1.313,18.97-4.602,20.286c0,0,13.153-1.316,17.428-0.33c4.278,0.988,15.128,1.316,19.732-0.329
			c4.604-1.644,16.771-5.918,21.705-4.273c4.933,1.645-6.893-23.059-13.8-29.965L129.946,223.04z"/>
		<path fill="#F3DBE9" stroke="#CE9380" stroke-width="1.1674" d="M176.579,213.339c0,0,7.714,13.487,9.65,20.504l-4.233,3.509
			l3.195,8.05l3.942-0.307c0,0-0.361,6.171,1.09,6.171s3.873,1.089,4.597-0.97c0.727-2.055,0.727-4.232,0.727-4.232
			s1.21,0.846,2.905-1.211c0,0,2.782,0.726,3.989-2.058c1.21-2.781-1.088-10.645-3.266-11.733c-2.176-1.091-4.355-0.848-4.355-0.848
			s-7.762-22.138-11.854-24.438C178.869,203.473,173.337,206.866,176.579,213.339z"/>
		<line fill="#F3DBE9" stroke="#CE9380" stroke-width="1.1674" x1="186.958" y1="238.319" x2="189.254" y2="245.459"/>
		<path fill="#C16B51" d="M236.165,208.735c0.613-6.489-9.884-15.269-13.565-20.054c-5.66-7.355-8.364-15.813-10.214-24.721
			c1.158,0.987,2.497,2.651,3.563,3.635c-0.629-7.541-1.496-16.41-4.705-23.366c0.769,0.917,2.187,1.51,3.073,1.967
			c0.9-6.529-6.664-12.154-11.03-15.543c-2.276-1.769-4.155-4.339-6.494-5.898c-2.073-1.384-4.908-1.659-6.625-3.474
			c2.227-1.008,5.188-0.534,7.643-0.493c-2.693-1.069-5.69-2.056-8.384-2.809c1.999-0.658,4.707-0.043,6.009-1.657
			c-2.11-0.774-4.489-1.605-6.419-2.523c1.062-1.264,2.761-1.999,4.274-2.601c-1.328-0.198-2.869-0.498-3.954-1.028
			c1.471-0.194,3.034-0.719,4.044-1.655c-0.937-0.018-1.65-0.477-2.368-0.596c5.808-5.955,18.536,0.905,23.653,4.953
			c-2.664,0.421-5.271-0.535-7.973-0.348c2.043,0.959,4.221,1.921,5.608,3.636c-2.482,0.313-6.113-1.42-7.746,0.496
			c1.506,1.089,3.528,1.761,4.856,2.804c-1.532-0.147-3.313-0.521-4.846-0.698c0.356,1.999,3.476,4.024,5.166,5.321
			c-1.281-0.194-2.656-0.168-3.879-0.39c7.707,6.786,11.452,17.127,15,26.268c2.798,7.214,2.358,16.16,5.938,22.965
			c1.656-1.383,1.678-4.62,2.064-6.82c0.419,1.322,1.351,2.601,2.305,3.11c0.229-1.746,0.422-3.797,1.636-4.845
			c0.2,1.107,0.977,2.08,1.197,3.128c1.135-2.46,0.555-6.037,0.505-8.8c0.518,1.728,1.088,3.743,2.415,4.783
			c0.238-2.056-0.536-4.029-0.257-6.1c0.458,0.885,1.667,1.997,2.303,2.801c0.743-5.194-1.907-10.695-4.479-15.029
			c1.086,2.132,2.531,5.761,4.52,6.826c-1.513-5.569-4.417-10.519-7.2-15.471c8.396,11.757,15.194,26.324,13.829,41.267
			c-0.794-2.142-2.592-5.488-4.446-6.827c-0.116,3.497,0.972,7.118,0.676,10.639c-2.266-1.272-3.099-5.398-6.053-5.266
			c0.282,2.105,1.213,4.314,1.543,6.5c-1.192-1.169-2.695-2.69-4.501-3.232c-1.134,2.561,0.938,5.979,1.609,8.577
			c-0.668-0.935-1.983-1.957-2.729-2.844c0.241,10.672,13.262,24.31,8.146,34.559c-1.07-3.603-2.093-7.09-3.298-10.739"/>
		<path fill="#FFFFFF" stroke="#62A6C4" stroke-width="1.1674" d="M124.285,288.818l11.337-1.301c0,0,5.016,10.964-3.902,9.104
			c-8.921-1.856-8.921-1.856-8.921-1.856"/>
		<polygon fill="#FFFFFF" stroke="#62A6C4" stroke-width="1.1674" points="150.433,164.236 143.482,169.252 139.61,183.243 
			135.562,164.59 133.893,165.206 130.813,188.436 135.829,174.619 139.522,190.281 143.92,174.443 148.06,189.226 151.313,165.206 
			152.194,164.679 		"/>
		<path fill="#C668A6" stroke="#723A60" stroke-width="1.1674" d="M167.411,268.359c0.029-0.114-0.001-0.188-0.1-0.221
			c-1.942,2.05-0.067,3.736,1.406,5.157c0.419,0.405,1.319,1.08,1.107,1.612c-0.164,0.417-1.334,0.849-1.638,1.356
			c-1.938,3.267,2.801,4.993,4.907,6.047c-2.517,0.673-1.662,2.406-0.064,3.638c0.683,0.519,2.002,0.904,2.509,1.601
			c0.73,1-0.431,1.943-0.776,2.966c-0.836,2.46,1.231,3.453,3.189,4.216c0.978,0.381,1.138,0.193,2.002-0.403
			c0.93-0.646,1.872-1.24,2.91-1.707c2.585-1.165,7.714-1.702,6.501-5.695c-0.208-0.682-0.597-1.599-1.381-1.787
			c-0.929-0.222-1.752,0.798-2.434,1.307c-1.236,0.925-2.179,1.992-3.185,3.164c-0.712,0.834-1.42,1.163-2.374,1.641
			c1.781-0.514,4.577-3.426,5.559-4.805c1.127-1.578,0.032-2.119,0.125-4.036c0.051-0.982,0.102-1.771-1.004-2.032
			c-0.933-0.221-2.054,0.336-2.708,1.024c-1.636,1.72-1.526,4.764-4.646,4.217c-0.576-0.102-1.023-0.354-1.537-0.61
			c1.501,1.167,3.496,0.351,4.503-0.995c0.956-1.28,1.895-2.431,2.98-3.606c1.072-1.162,1.467-3.676,0.881-5.126
			c-0.325-0.805-1.03-1.464-1.804-1.778c-1.328-0.539-1.653,0.346-2.263,1.403c-1.54,2.661-3.971,5.299-7.114,3.398
			c1.147,1.384,4.053-0.081,5.084-0.987c0.632-0.555,1.023-1.196,1.429-1.933c0.495-0.896,1.092-1.329,1.763-2.031
			c1.144-1.192,0.801-2.91-0.052-4.19c-0.674-1.011-2.216-3.11-3.527-3.196c-0.156,2.811-1.06,6.956-4.633,6.609
			c-2.874-0.277-3.993-2.089-5.316-4.317"/>
		<g>
			<defs>
				<path id="SVGID_3_" d="M167.411,268.359c0.029-0.114-0.001-0.188-0.1-0.221c-1.942,2.05-0.067,3.736,1.406,5.157
					c0.419,0.405,1.319,1.08,1.107,1.612c-0.164,0.417-1.334,0.849-1.638,1.356c-1.938,3.267,2.801,4.993,4.907,6.047
					c-2.517,0.673-1.662,2.406-0.064,3.638c0.683,0.519,2.002,0.904,2.509,1.601c0.73,1-0.431,1.943-0.776,2.966
					c-0.836,2.46,0.627,3.467,2.583,4.229c0.979,0.38,1.676,1.521,2.54,0.923c0.929-0.645,3.812-0.225,4.849-0.691
					c2.584-1.165,5.844-4.057,4.631-8.05c-0.208-0.682-0.597-1.599-1.381-1.787c-0.929-0.222-1.752,0.798-2.434,1.307
					c-1.236,0.925-2.179,1.992-3.185,3.164c-0.712,0.834-1.42,1.163-2.374,1.641c1.781-0.514,4.577-3.426,5.559-4.805
					c1.127-1.578,0.032-2.119,0.125-4.036c0.051-0.982,0.102-1.771-1.004-2.032c-0.933-0.221-2.054,0.336-2.708,1.024
					c-1.636,1.72-1.526,4.764-4.646,4.217c-0.576-0.102-1.023-0.354-1.537-0.61c1.501,1.167,3.496,0.351,4.503-0.995
					c0.956-1.28,1.895-2.431,2.98-3.606c1.072-1.162,1.467-3.676,0.881-5.126c-0.325-0.805-1.03-1.464-1.804-1.778
					c-1.328-0.539-1.653,0.346-2.263,1.403c-1.54,2.661-3.622,6.093-6.765,4.195c1.147,1.382,3.703-0.878,4.734-1.784
					c0.632-0.555,1.023-1.196,1.429-1.933c0.495-0.896,1.092-1.329,1.763-2.031c1.144-1.192,0.801-2.91-0.052-4.19
					c-0.674-1.011-2.216-3.11-3.527-3.196c-0.156,2.811-1.06,6.956-4.633,6.609c-2.874-0.277-3.993-2.089-5.316-4.317"/>
			</defs>
			<clipPath id="SVGID_4_">
				<use xlink:href="#SVGID_3_"  overflow="visible"/>
			</clipPath>
			<g clip-path="url(#SVGID_4_)">
				<circle fill="#76BCBD" cx="180.058" cy="295.38" r="1.616"/>
			</g>
		</g>
		<path fill="#C668A6" stroke="#723A60" stroke-width="1.1674" d="M169.719,273.928c0,0,4.115,3.214,5.521,1.008"/>
		<path fill="#FFFFFF" stroke="#62A6C4" stroke-width="1.1674" d="M138.46,263.55c0,0,4.816,2.508,9.935-0.904
			c0,0,0.803,31.212-2.006,36.531l-9.835-3.011c0,0-4.691-5.375-0.931-8.648C141.379,282.501,138.46,263.55,138.46,263.55z"/>
		<g>
			<defs>
				<path id="SVGID_5_" d="M138.46,263.55c0,0,4.816,2.508,9.935-0.904c0,0,0.803,31.212-2.006,36.531l-9.835-3.011
					c0,0-6.822-2.786-2.417-5.117C140.452,287.704,138.46,263.55,138.46,263.55z"/>
			</defs>
			<clipPath id="SVGID_6_">
				<use xlink:href="#SVGID_5_"  overflow="visible"/>
			</clipPath>
			<g clip-path="url(#SVGID_6_)">
				<path fill="#833D79" d="M137.154,264.752c0,0,3.009,4.316,12.948,0.102l-0.104,1.807c0,0-8.029,3.412-12.544,0.501"/>
				<path fill="#833D79" d="M137.154,268.268c0,0,3.009,4.313,12.948,0.099l-0.104,1.807c0,0-8.029,3.414-12.544,0.501"/>
			</g>
		</g>
		<path fill="#010101" stroke="#7CACC5" stroke-width="1.1674" d="M106.46,300.705c0,0,4.003-11.854,17.622-13.136
			c0,0,2.909-0.683,4.323,3.845c0.802,2.563,2.084,3.365,3.842,2.563c1.767-0.802,2.248-4.806,0.485-6.889
			c0,0,1.921-1.281,4.646,0.96c2.723,2.242,7.368,8.812,10.571,3.045c0,0,2.402,5.127,1.283,9.452
			C148.112,304.871,110.143,305.353,106.46,300.705z"/>
		<g>
			<defs>
				<path id="SVGID_7_" d="M106.46,300.705c0,0,4.003-11.854,17.622-13.136c0,0,2.909-0.683,4.323,3.845
					c0.802,2.563,2.084,3.365,3.842,2.563c1.767-0.802,2.248-4.806,0.485-6.889c0,0,1.921-1.281,4.646,0.96
					c2.723,2.242,7.368,8.812,10.571,3.045c0,0,2.402,5.127,1.283,9.452C148.112,304.871,110.143,305.353,106.46,300.705z"/>
			</defs>
			<clipPath id="SVGID_8_">
				<use xlink:href="#SVGID_7_"  overflow="visible"/>
			</clipPath>
			<path clip-path="url(#SVGID_8_)" fill="#7CACC5" d="M105.144,298.854c0,0,22.286,7.239,47.384-0.744l-0.742,7.621H105.33
				l-1.486-5.763"/>
		</g>
		<g>
			<path fill="#010101" stroke="#7CACC5" stroke-width="1.1674" d="M185.266,290.475c0,0-18.342,0.121-19.359,11.989
				c0,0,1.148,5.724,19.325,6.953c18.178,1.228,22.455-5.646,22.455-5.646S207.653,291.744,185.266,290.475z"/>
			<g>
				<defs>
					<path id="SVGID_9_" d="M185.266,290.475c0,0-18.342,0.121-19.359,11.989c0,0,1.148,5.724,19.325,6.953
						c18.178,1.228,22.455-5.646,22.455-5.646S207.653,291.744,185.266,290.475z"/>
				</defs>
				<clipPath id="SVGID_10_">
					<use xlink:href="#SVGID_9_"  overflow="visible"/>
				</clipPath>
				<path clip-path="url(#SVGID_10_)" fill="#7CACC5" d="M164.425,300.494c0,0,4.599,6.058,22.032,6.527
					c17.436,0.471,22.308-5.796,22.308-5.796l-0.055,5.563l-23.196,4.585l-16.959-3.021"/>
			</g>
		</g>
		<path fill="#C668A6" stroke="#723A60" stroke-width="1.1674" d="M180.227,292.688c0,0-3.223,0.59-4.222,1.474
			c0,0-2.84,3.062,2.917,1.922c5.756-1.142,13.353-0.796,14.476-0.132c0,0,4.289,0.016,1.093-2.085
			C190.194,291.047,180.855,292.769,180.227,292.688z"/>
		<polygon fill="#C668A6" points="135.544,177.053 139.238,187.59 138.518,188.852 134.104,180.926 		"/>
		<polygon fill="#D698C3" points="144.281,177.232 139.688,187.05 139.962,188.489 145.271,181.555 		"/>
		<path fill="#9D5284" d="M135.748,191.989c-0.083,2.746,1.023,6.047-1.733,8.028c0.971-0.231,1.872-1.067,2.541-1.833
			c-0.016,0.839,0.438,2.089,0.946,2.763c-0.221-1.738-0.162-3.41,0.03-5.173c0.102-0.913,0.094-2.946,0.735-3.64
			c1.24-1.338,1.58,1.73,1.718,2.675c0.273,1.835,0.285,3.734,1.064,5.429c0.021-0.622,0.077-1.353,0.354-1.847
			c0.387,0.99,1.299,1.87,2.237,2.374c-1.758-2.058-2.069-5.372-2.211-7.942c-0.059-1.104-0.094-2.03-0.972-2.72
			c-1.088-0.858-2.883-0.496-3.88,0.348"/>
		<path fill="#CA80B5" d="M138.945,183.942c-0.83-0.096-3.036,2.255-3.792,2.929c-0.959,0.859-1.991,1.981-2.336,3.251
			c-0.614,2.231,1.818,2.667,2.706,0.849c-0.231,0.688-0.927,2.874,0.229,3.155c1.012,0.247,1.835-1.97,1.892-2.691
			c0.063,0.773,0.138,3.498,1.453,2.958c0.939-0.389,0.911-3.147,0.674-3.905c0.176,0.948,1.05,3.15,2.248,3.165
			c1.484,0.021,0.996-2.122,0.587-3.049c0.204,1.022,1.659,3.563,2.523,1.859c0.651-1.278-1.006-3.113-1.999-3.683
			c0.654,0.572,1.345,1.411,2.306,1.181c0.344-1.854-2.111-2.894-3.298-3.74c-1.183-0.849-0.478-1.489-0.884-2.817
			c-0.898,0.524-2.68,0.75-3.466-0.338c0.145,0.513-0.146,1.596-0.507,2.029"/>
		<path fill="#F3DBE9" stroke="#CE9380" stroke-width="1.1674" d="M115.555,147.38c-0.439,3.417-3.865,3.29-6.244,1.653
			c-2.461-1.699-3.339-3.459-3.86-6.428c-0.627-3.563,2.337-4.792,5.445-4.459c2.875,0.311,4.797,2.746,6.117,5.083
			c-1.031-3.926-3.302-9.294-1.308-12.794c3.04-5.333,2.812-12.994,8.715-14.237c6.559-1.382,24.727-3.011,30.796-0.29
			c6.021,2.698,9.767,0.64,14.818,4.939c2.667,2.267,6.88,17.433,6.108,21.382c0.672-2.696,4.314-3.021,5.813-1.416
			c1.21,1.304,1.248,4.055,0.929,5.702c-0.751,3.846-6.787,8.842-9.342,4.187c-7.229,18.821-32.701,22.488-47.146,11.767
			c-4.043-3-8.692-8.648-9.974-13.35"/>
		<path fill="none" stroke="#CE9380" stroke-width="1.1674" d="M111.513,146.792c-0.85-0.908-2.301-2.752-0.726-3.824
			c0.836-0.566,2.528-0.344,3.311,0.2c1.7,1.18,1.237,3.66,2.157,5.368c0.048,0.138-0.019,0.195-0.204,0.166"/>
		<path fill="none" stroke="#CE9380" stroke-width="1.1674" d="M179.418,147.675c0.513-0.914,1.633-2.754,0.837-3.812
			c-0.705-0.93-2.214-0.482-2.945,0.21c-0.823,0.773-3.358,7.03-4.151,7.108"/>
		<path fill="#9B5235" stroke="#773519" stroke-width="1.1674" d="M165.434,133.852c-0.313-1.786-5.891-0.87-7.338-1.016
			c-1.496-0.146-3.21,0.399-4.663,0.699c-1.33,0.277-2.551,1.018-3.879,1.298c-0.737,0.155-3.073,0.988-3.099-0.174
			c-0.024-1.237,2.412-1.993,3.09-2.428c2.467-1.585,4.693-1.322,7.62-1.463c1.534-0.075,10.225-0.292,8.269,3.246"/>
		<path fill="#9B5235" stroke="#773519" stroke-width="1.1674" d="M141.152,136.001c1.735-0.247,3.056,1.533,1.1,1.944
			c-1.489,0.317-3.787-0.072-5.298-0.198c-3.219-0.261-6.989-0.498-10.016-1.457c-1.16-0.368-3.055-1.385-1.727-2.56
			c0.986-0.867,3.728-0.235,4.868,0c3.254,0.672,6.315,1.564,9.619,2.118c0.605,0.101,1.137,0.118,1.769,0.153"/>
		<path fill="#231F20" d="M164.732,148.474c0.385,0,11.604-6.438,11.604-6.438v-2.695v-1.06l-12.173,6.895"/>
		<path fill="#CE9380" d="M149.181,158.172c-0.866-0.016-1.251,0.346-2.045,0.406c-0.767,0.053-1.783,0.438-2.521,0.249
			c-0.836-0.211-1.094-0.167-2.019-0.504c-0.453-0.165-2.263-1.452-2.859-1.095c-0.525,0.318,0.01-0.381,0.169,0.169
			c0.185,0.64,2.03,2.441,2.605,2.604c1.335,0.393,1.132,0.244,2.522,0.087c1.136-0.13,2.775-0.759,4.146-1.798
			c-0.046,0-0.064,0.023-0.061,0.072"/>
		<path fill="#231F20" d="M133.851,151.344"/>
		<path fill="#231F20" d="M147.051,149.764c0,0-2.213-2.019-4.236-0.192l-0.286-2.403c0,0,2.598-1.735,5.102,0.19"/>
		<path fill="#231F20" d="M125.604,147.793c-0.386,0-8.477-4.888-8.477-4.888l-1.54-2.794l-0.388-2.115l11.203,6.837"/>
		<path fill="#EAA0C6" stroke="#BE6890" stroke-width="1.1674" d="M114.535,117.251c-1.303,0.584-2.182-0.588-2.539-1.732
			c-0.47-1.51,0.244-2.706,0.833-4.036c-0.692,1.202-0.675,2.428-0.748,3.761c-2.981,0.428-1.246-5.732-0.55-6.893
			c1.502-2.494,4.122-4.641,7.288-4.109c-0.755,0.347-1.647,1.061-2.083,1.801c1.754-2.233,5.102-1.937,4.955,1.288
			c-0.152,3.305-3.243,5.062-4.579,7.652"/>
		<path fill="#EAA0C6" stroke="#BE6890" stroke-width="1.1674" d="M177.604,134.783c0.988,1.217,2.428,0.506,3.343-0.436
			c1.204-1.245,1.104-2.767,1.184-4.363c0.085,1.521-0.543,2.71-1.135,4.053c2.706,1.896,4.061-4.993,3.951-6.471
			c-0.23-3.187-1.737-6.584-5.093-7.629c0.563,0.71,1.085,1.852,1.147,2.791c-0.614-3.055-4.034-4.417-5.485-1.193
			c-1.49,3.309,0.665,6.558,0.693,9.755"/>
		<circle fill="#231F20" cx="158.122" cy="148.101" r="11.247"/>
		<circle fill="#A5DDEE" cx="158.121" cy="148.101" r="9.864"/>
		<path fill="#7EBBC9" d="M162.093,149.668l-6.087,4.396l5.021-5.001c0,0,0.666-0.565,1.066-0.223
			C162.39,149.094,162.157,149.572,162.093,149.668z"/>
		<path fill="#7EBBC9" d="M163.437,144.925l-9.492,6.875l8.429-7.481c0,0,0.664-0.564,1.063-0.223
			C163.737,144.352,163.504,144.829,163.437,144.925z"/>
		<path fill="#7EBBC9" d="M158.273,143.046l-6.992,5.252l5.928-5.861c0,0,0.666-0.562,1.064-0.219
			C158.576,142.47,158.342,142.95,158.273,143.046z"/>
		<circle fill="#231F20" cx="132.636" cy="146.75" r="11.246"/>
		<path fill="#A5DDEE" d="M122.773,146.75c0,5.451,4.416,9.865,9.86,9.865c5.45,0,9.863-4.414,9.863-9.865
			c0-5.448-4.414-9.863-9.863-9.863C127.189,136.887,122.773,141.302,122.773,146.75z"/>
		<path fill="#7EBBC9" d="M136.609,148.32l-6.09,4.393l5.023-5c0,0,0.664-0.562,1.067-0.22
			C136.905,147.745,136.674,148.223,136.609,148.32z"/>
		<path fill="#7EBBC9" d="M137.951,143.574l-9.493,6.881l8.429-7.488c0,0,0.667-0.561,1.064-0.219
			C138.25,143.003,138.018,143.481,137.951,143.574z"/>
		<path fill="#7EBBC9" d="M132.789,141.697l-6.992,5.254l5.925-5.859c0,0,0.666-0.563,1.067-0.223
			C133.086,141.124,132.853,141.6,132.789,141.697z"/>
		<path fill="#9B5235" stroke="#773519" stroke-width="1.1674" d="M112.776,140.057l3.243,1.946c0,0-2.595-10.055,7.298-15.407
			c0,0-4.673-6.213,4.214-8.917c3.73-1.136,10.057,4.05,10.057,4.05s4.211,2.759,8.103,4.217l3.569-25.293
			c0,0-23.835-6.813-32.756,11.348c-8.919,18.163-3.89,27.404-3.89,27.404"/>
		<path fill="#773519" d="M146.18,125.136c-0.623-1.789-3.757-3.072-5.309-4.102c0.961,0.114,1.814,0.689,2.735,0.973
			c-0.533-1.742-2.146-3.181-3.276-4.615c0.935,0.744,1.95,1.48,2.98,2.161c-0.396-1.489-1.563-2.848-2.596-4.002
			c0.908,0.053,1.937,0.53,2.748,0.946c-0.75-1.567-2.547-2.815-3.765-3.967c1.259,0.23,2.623,0.818,3.78,1.366
			c-0.873-1.784-2.518-2.914-3.637-4.467c1.208,0.151,2.501,0.787,3.619,1.34c-0.838-1.662-2.584-3.35-4.085-4.393
			c1.372-0.269,3.429,0.313,4.432,1.286c-0.593-1.004-1.664-1.693-2.421-2.532c1.145,0.066,2.416,0.444,3.581,0.677
			c-0.533-1.069-1.854-1.926-2.724-2.675c1.156-0.138,2.264-0.195,3.361,0.247c-0.652-0.902-1.633-1.496-2.49-2.083
			c1.073-0.122,2.446,0.081,3.409,0.569c-0.4-0.642-1.073-1.167-1.8-1.474c1.216-0.019,3.205,0.266,4.074,0.711
			c-0.303-0.039-0.65,0.079-0.94,0.079c2.231,2.409,1.324,9.263,0.754,12.283c-0.395,2.104-0.511,3.451-0.971,5.515
			c-0.373,1.668-1.76,4.608-2.547,5.883"/>
		<path fill="#773519" d="M113.588,137.624c0.181,0.402,0.473,0.784,0.778,1.085c-0.003-0.812-0.444-1.75-0.597-2.517
			c0.205,0.147,0.885,0.299,1.092,0.438c-0.079-0.897-0.398-1.81-0.434-2.714c0.194,0.131,0.692,0.267,0.918,0.454
			c-0.101-0.908-0.513-1.801-0.598-2.724c0.555,0.099,1.096,0.475,1.582,0.768c-0.501-0.71-0.763-1.701-0.767-2.555
			c0.467,0.153,1.019,0.504,1.411,0.903c-0.184-0.992-0.889-1.963-0.768-3.016c0.431,0.269,0.934,0.368,1.425,0.574
			c-0.624-0.92-0.709-1.916-0.605-3.006c0.403,0.53,0.991,1.118,1.691,1.262c-0.451-0.857-0.901-1.792-0.879-2.719
			c1.069,0.63,2.297,1.306,3.476,1.577c-1.284-1.25-1.81-2.934-2.059-4.624c0.271,0.488,0.586,0.942,0.949,1.361
			c0.06-1.336-0.667-2.688-0.591-4.154c0.53,0.388,1.129,0.939,1.73,1.267c-0.253-0.83-0.508-1.906-0.094-2.716
			c0.329,0.309,0.866,0.521,1.233,0.776c-0.688-2.354-0.394-2.516,1.986-1.834c-0.209-0.496-0.199-1.01-0.154-1.544
			c0.649,0.393,1.265,0.928,2.067,1.095c-0.89-1.324-1.833-2.633-2.52-4.041c0.856,0.473,1.9,0.739,2.722,1.248
			c-0.936-1.128-1.434-2.658-2.799-3.286c0.224,0.326,0.333,0.791,0.485,1.06c-0.462-0.312-1.014-0.685-1.567-0.772
			c-0.346,0.746-0.22,1.62,0.068,2.362c-0.36-0.417-0.707-0.8-1.081-1.191c0.112,1.031,0.754,1.975,0.788,2.979
			c-0.496-0.557-0.825-1.279-1.398-1.722c-0.065,0.923,0.249,1.78,0.299,2.695c-0.224-0.532-0.497-1.053-0.825-1.52
			c0.017,1.045-0.003,2.092,0.012,3.137c-0.331-0.719-0.601-1.436-0.822-2.172c0.168,1.706-0.212,3.588-0.355,5.291
			c-0.474-0.75-0.848-2.071-1.056-2.896c-0.531,1.256-0.587,3.546-0.521,4.957c-0.597-0.94-0.81-2.386-1.105-3.333
			c-0.236,2.008-0.227,4.503-0.847,6.415c-0.374-0.945-0.712-2.12-0.682-3.172c-1.275,1.645-0.032,4.453-0.778,6.176
			c-0.404-0.704-0.307-1.916-0.613-2.608c-0.465,2.432-0.674,4.918-0.838,7.395c-0.132-0.456-0.36-0.9-0.502-1.358
			c0.031,2.07,0.076,6.725,1.629,7.895"/>
		<path fill="#C16B51" d="M135.964,117.679c-0.186-1.661-3.194-2.436-4.493-2.923c0.79,0.005,1.585,0.019,2.362-0.022
			c-0.36-1.202-2.368-2.041-3.371-2.7c0.943-0.159,2.049-0.239,2.882-0.557c-0.88-1.179-2.451-1.825-3.856-2.272
			c0.961-0.698,2.171-0.911,3.348-1.252c-0.913-0.656-2.305-1.5-3.463-1.292c1.101-1.055,2.523-0.724,3.823-1.184
			c-0.798-0.58-2.296-0.796-3.346-0.799c1.178-1.085,3.198-0.981,4.515-1.756c-0.95-0.348-2.263-0.27-3.379-0.356
			c1.243-0.803,2.887-0.756,4.03-1.423c-0.439-0.405-1.128-0.42-1.76-0.319c1.493-0.658,3.847-0.442,5.126,0.44
			c-0.896,0.171-1.809,0.278-2.689,0.523c0.895,0.252,1.781,0.668,2.482,1.311c-1.071-0.38-2.04-0.081-2.844,0.603
			c0.68-0.057,1.338,0.22,1.72,0.818c-1.013-0.032-1.939,0.01-2.65,0.846c1.02-0.008,1.661,0.88,2.344,1.506
			c0.063,0.053,0.064,0.048,0.011-0.011c-0.896-0.108-1.98-0.202-2.562,0.571c0.959-0.126,1.639,0.408,2.207,1.144
			c-1.02,0.057-2.207-0.138-3.019,0.47c1.042,0.282,2.198,1.201,2.727,2.115c-0.744,0.054-1.535-0.051-2.198,0.205
			c1.151,0.107,1.796,1.275,2.237,2.205c-0.713-0.449-1.764-0.617-2.57-0.259c1.298-0.146,2.521,1.581,3.014,2.567
			c-0.554-0.377-1.224-0.657-1.914-0.599c0.495,0.43,1.069,1.087,1.448,1.587"/>
		<path fill="#9B5235" stroke="#773519" stroke-width="1.1674" d="M178.281,139.892l-3.078,2.919c0,0,1.134-3.026-7.167-10.61
			c0,0,6.035-4.9-1.936-9.672c-3.346-2.003-10.735,1.505-10.735,1.505s-5.707,1.279-9.836,1.751l3.604-25.031
			c0,0,24.778-0.845,29.038,18.937c4.262,19.778-0.214,20.528-0.214,20.528"/>
		<path fill="#773519" d="M146.914,125.457c1.08-1.558,3.066-2.239,4.836-2.814c-0.955-0.146-1.931,0.175-2.894,0.203
			c0.98-1.53,2.922-2.488,4.392-3.567c-1.097,0.467-2.277,0.905-3.448,1.285c0.785-1.332,2.271-2.324,3.575-3.159
			c-0.89-0.192-2.008-0.009-2.899,0.174c1.136-1.312,3.207-2.031,4.685-2.814c-1.269-0.114-2.739,0.083-4.001,0.301
			c1.313-1.483,3.201-2.128,4.7-3.325c-1.203-0.178-2.62,0.088-3.848,0.319c1.256-1.374,3.392-2.533,5.112-3.136
			c-1.247-0.626-3.383-0.62-4.612,0.048c0.839-0.807,2.061-1.189,3.015-1.789c-1.124-0.241-2.444-0.217-3.631-0.306
			c0.802-0.89,2.305-1.359,3.338-1.849c-1.078-0.441-2.128-0.797-3.3-0.663c0.869-0.691,1.975-1.004,2.955-1.339
			c-0.997-0.404-2.379-0.578-3.437-0.366c0.559-0.511,1.348-0.837,2.131-0.937c-1.167-0.348-3.16-0.606-4.118-0.409
			c0.306,0.043,0.605,0.25,0.886,0.328c-2.794,1.72-2.011,8.302-2.271,11.364c-0.179,2.131-0.916,4.049-1.028,6.158
			c-0.109,2.078-0.851,4.447-0.393,6.035"/>
		<path fill="#773519" d="M175.781,140.388c-0.274,0.348-0.648,0.649-1.021,0.868c0.2-0.787,0.854-1.593,1.187-2.299
			c-0.23,0.094-0.926,0.077-1.162,0.159c0.294-0.851,0.826-1.661,1.079-2.528c-0.217,0.084-0.736,0.091-1.003,0.219
			c0.321-0.856,0.936-1.624,1.241-2.499c-0.563-0.036-1.18,0.198-1.723,0.362c0.657-0.567,1.582-4.654,1.795-5.478
			c-0.491,0.029-1.541,3.428-2.021,3.722c0.421-0.92,1.336-1.687,1.477-2.743c-0.486,0.156-0.997,0.131-1.521,0.213
			c0.829-0.743,1.149-1.688,1.313-2.772c-0.521,0.42-1.234,0.848-1.948,0.818c0.649-0.725,1.31-1.521,1.515-2.424
			c-1.19,0.35-2.546,0.707-3.756,0.686c1.547-0.903,2.465-2.412,3.114-3.99c-0.377,0.409-0.792,0.774-1.247,1.095
			c0.266-1.31,1.298-2.451,1.578-3.891c-0.612,0.247-1.323,0.636-1.985,0.813c0.447-0.747,0.95-1.729,0.749-2.611
			c-0.396,0.215-0.966,0.294-1.383,0.453c1.23-2.119,0.987-2.344-1.483-2.261c0.319-0.43,0.435-0.933,0.518-1.462
			c-0.725,0.228-1.446,0.596-2.27,0.564c1.183-1.069,2.413-2.111,3.421-3.314c-0.942,0.252-2.019,0.258-2.94,0.556
			c1.184-0.866,2.034-2.233,3.512-2.51c-0.296,0.261-0.517,0.685-0.728,0.909c0.526-0.191,1.146-0.423,1.706-0.372
			c0.153,0.809-0.175,1.625-0.636,2.275c0.453-0.316,0.88-0.602,1.335-0.893c-0.357,0.974-1.208,1.732-1.482,2.699
			c0.617-0.419,1.11-1.042,1.772-1.334c-0.162,0.913-0.673,1.67-0.94,2.545c0.345-0.464,0.733-0.903,1.166-1.277
			c-0.27,1.013-0.503,2.032-0.771,3.043c0.493-0.619,0.931-1.248,1.327-1.91c-0.582,1.618-0.664,3.531-0.938,5.219
			c0.641-0.614,1.32-1.802,1.721-2.558c0.217,1.348-0.284,3.587-0.688,4.94c0.806-0.771,1.365-2.121,1.879-2.969
			c-0.259,2.007-0.873,4.424-0.733,6.432c0.594-0.828,1.207-1.888,1.433-2.914c0.84,1.905-1.048,4.329-0.739,6.181
			c0.562-0.584,0.758-1.781,1.226-2.385c-0.136,2.477-0.536,4.941-0.976,7.382c0.24-0.414,0.566-0.79,0.815-1.2
			c-0.534,2.003-1.697,6.506-3.487,7.268"/>
		<path fill="#C16B51" d="M157.922,120.489c0.578-1.567,3.683-1.589,5.063-1.75c-0.769-0.185-1.542-0.363-2.286-0.592
			c0.638-1.079,2.793-1.406,3.922-1.803c-0.873-0.383-1.924-0.731-2.66-1.24c1.138-0.93,2.822-1.172,4.287-1.27
			c-0.758-0.913-1.883-1.408-2.938-2.023c1.041-0.418,2.597-0.898,3.668-0.421c-0.814-1.288-2.272-1.309-3.42-2.068
			c0.914-0.369,2.42-0.22,3.435,0.031c-0.883-1.339-2.863-1.724-3.953-2.795c1.006-0.11,2.264,0.285,3.365,0.469
			c-1.015-1.08-2.619-1.43-3.564-2.353c0.519-0.287,1.194-0.134,1.782,0.116c-1.289-1-3.622-1.357-5.083-0.812
			c0.831,0.38,1.695,0.708,2.489,1.158c-0.929,0.025-1.889,0.217-2.729,0.669c1.13-0.11,2,0.415,2.616,1.274
			c-0.646-0.219-1.354-0.111-1.872,0.377c0.992,0.215,1.882,0.48,2.37,1.461c-0.987-0.255-1.825,0.454-2.638,0.894
			c-0.075,0.039-0.075,0.032-0.005-0.013c0.89,0.113,1.967,0.284,2.344,1.175c-0.903-0.354-1.688,0-2.415,0.574
			c0.971,0.303,2.173,0.399,2.814,1.185c-1.085,0.022-2.424,0.638-3.158,1.396c0.706,0.233,1.501,0.319,2.078,0.728
			c-1.141-0.175-2.047,0.806-2.694,1.599c0.796-0.266,1.854-0.169,2.546,0.369c-1.224-0.454-2.819,0.93-3.539,1.766
			c0.629-0.234,1.348-0.341,1.997-0.118c-0.582,0.295-1.3,0.792-1.784,1.191"/>
	</g>
</g>
</svg>
