<?xml version="1.0" encoding="utf-8"?>
<!-- Generator: Adobe Illustrator 16.0.3, SVG Export Plug-In . SVG Version: 6.00 Build 0)  -->
<!DOCTYPE svg PUBLIC "-//W3C//DTD SVG 1.1//EN" "http://www.w3.org/Graphics/SVG/1.1/DTD/svg11.dtd">
<svg version="1.1" id="Layer_1" xmlns="http://www.w3.org/2000/svg" xmlns:xlink="http://www.w3.org/1999/xlink" x="0px" y="0px"
	 width="300px" height="300px" viewBox="0 0 300 300" enable-background="new 0 0 300 300" xml:space="preserve">
<g>
	<defs>
		<circle id="SVGID_1_" cx="150" cy="150" r="140"/>
	</defs>
	<clipPath id="SVGID_2_">
		<use xlink:href="#SVGID_1_"  overflow="visible"/>
	</clipPath>
	
		<circle clip-path="url(#SVGID_2_)" fill="#F58620" stroke="#000000" stroke-width="10" stroke-linecap="round" stroke-linejoin="round" stroke-miterlimit="10" cx="150" cy="150" r="140"/>
	<g clip-path="url(#SVGID_2_)">
		<g>
			<polyline fill="#FBD1BF" stroke="#CC9280" stroke-width="1.1674" points="110.905,350.284 111.876,381.66 150.101,383.916 
				151.072,359.014 			"/>
			<polyline fill="#FFFFFF" stroke="#9ABDCD" stroke-width="1.1674" points="102.295,393.891 132.265,416.964 149.764,408.126 
				150.584,382.108 107.348,381.983 105.396,391.357 			"/>
			<path fill="#231F20" stroke="#69CCE2" stroke-width="0.5837" d="M150.938,404.205c0,0-4.914,4.904-13.259,4.904
				c-8.355,0-10.326-23.555-40.304-20.117c-29.968,3.431-33.9,18.644-34.882,26.501c-0.982,7.844,11.644,22.218,52.548,13.575
				c41.446-8.76,36.879-8.561,36.879-8.561L150.938,404.205z"/>
			<path fill="#FFFFFF" stroke="#69CCE2" stroke-width="0.5837" d="M92.959,391.936c0,0,11.858,3.012,18.249,11.293l7.298-0.385
				C118.506,402.844,108.471,391.936,92.959,391.936z"/>
			<path fill="none" stroke="#FFFFFF" stroke-width="1.1674" d="M67.406,419.42c0,0,10.812,7.846,41.278,4.904
				c30.461-2.951,41.761-10.308,41.761-10.308"/>
			<polyline fill="#FBD1BF" stroke="#CC9280" stroke-width="1.1674" points="190.304,351.382 189.332,382.76 151.111,385.021 
				150.141,360.108 			"/>
			<polyline fill="#FFFFFF" stroke="#9ABDCD" stroke-width="1.1674" points="198.921,393.162 168.942,416.221 151.445,407.394 
				150.629,381.371 193.865,381.242 195.808,390.628 			"/>
			<path fill="#231F20" stroke="#69CCE2" stroke-width="0.5837" d="M150.271,403.466c0,0,4.905,4.906,13.26,4.906
				c8.357,0,10.325-23.561,40.299-20.122c29.973,3.437,33.903,18.655,34.882,26.502c0.982,7.849-3.625,17.045-45.395,15.078
				c-41.764-1.955-42.512-12.273-42.512-12.273L150.271,403.466z"/>
			<path fill="#FFFFFF" stroke="#69CCE2" stroke-width="0.5837" d="M208.25,391.202c0,0-11.859,3.006-18.249,11.284l-7.3-0.375
				C182.701,402.111,192.732,391.202,208.25,391.202z"/>
			<path fill="none" stroke="#FFFFFF" stroke-width="1.1674" d="M233.803,418.681c0,0-10.812,7.848-41.271,4.901
				c-30.469-2.946-41.767-10.304-41.767-10.304"/>
			<g>
				<path fill="#FBD1BF" stroke="#CC9280" stroke-width="1.1674" d="M186.951,252.895c2.206,7.377,6.937,63.963,7.022,66.074
					c0.128,3.04-5.05,6.988-6.701,9.272c-1.884,2.635-2.075,2.765-1.175,5.475c1.041,3.14,6.456,6.024,6.096,9.396
					c1.217-10.501,7.201-13.812,7.201-13.59c-0.102-0.112-5.984,6.624-6.898,13.356c0.614,1.792,9.546,9.395,11.256,9.621
					c2.794,0.375,6.555-6.11,8.367-8.159c4.058-4.594,10.33-8.493,12.292-15.014c-2.618-3.311-5.965-5.109-8.184-9.016
					c-2.584-4.554-2.378-70.274-4.45-73.83"/>
				<path fill="#EF6596" stroke="#B43C6E" stroke-width="1.1674" d="M184.009,244.479c-1.501,3.041,3.715,5.986,1.58,8.866
					c1.235-1.539,2.555-3.323,3.704-4.796c-0.361,9.771,2.17,19.489,2.17,29.441c0,6.113,0,12.222,0,18.336
					c0,4.04,0.51,8.357-0.949,12.236c-1.178,3.116-5.113,6.689-3.548,10.346c1.364,3.188,4.418,2.005,6.911,2.878
					c-0.01-1.437-0.126-2.638-0.398-4.064c-1.219,0.229-1.965,0.181-2.785,1.128c7.097-3.991,16.397-6.04,24.443-3.205
					c0.097,1.604,0.033,3.268,0.126,4.863c15.894,2.511,6.865-25.551,5.347-33.252c-2.962-15.013-2.368-30.379-0.825-45.821
					c0.929-9.323,0.035-23.755-6.249-31.273c-5.762-6.904-14.856-8.718-23.324-8.718"/>
				<path fill="#FBD1BF" stroke="#CC9280" stroke-width="1.1674" d="M194.794,335.578c2.513-0.28,4.982,0.344,5.826,2.916"/>
			</g>
			<g>
				<path fill="#FBD1BF" stroke="#CC9280" stroke-width="1.1674" d="M96.617,257.381c-2.204,7.375-6.927,63.963-7.02,66.072
					c-0.128,3.042,5.058,6.992,6.702,9.278c1.883,2.628,2.075,2.759,1.181,5.468c-1.046,3.144-6.463,6.023-6.11,9.396
					c-1.212-10.505-7.195-13.819-7.195-13.589c0.105-0.116,5.983,6.624,6.896,13.358c-0.618,1.787-9.546,9.391-11.252,9.619
					c-2.795,0.381-6.552-6.11-8.37-8.164c-4.052-4.589-10.324-8.487-12.285-15.011c2.61-3.312,5.961-5.112,8.18-9.022
					c2.583-4.549,2.371-70.271,4.446-73.827"/>
				<path fill="#EF6596" stroke="#B43C6E" stroke-width="1.1674" d="M92.116,248.829c1.493,3.052,3.73,6.121,5.861,9.001
					c-1.232-1.54-2.547-3.331-3.702-4.798c0.359,9.772-2.159,19.492-2.159,29.445c0,6.114,0,12.227,0,18.333
					c0,4.044-0.516,8.363,0.938,12.234c1.173,3.132,5.122,6.693,3.552,10.349c-1.364,3.185-4.423,2.004-6.91,2.875
					c0.007-1.432,0.123-2.634,0.396-4.058c1.22,0.217,1.971,0.181,2.787,1.126c-7.099-3.996-16.399-6.043-24.448-3.197
					c-0.093,1.59-0.03,3.256-0.126,4.854c-15.89,2.506-6.861-25.547-5.337-33.252c2.953-15.012,2.367-30.377,0.819-45.819
					c-0.931-9.323-0.034-23.765,6.249-31.273c5.762-6.905,14.853-8.723,23.326-8.723"/>
				<path fill="#FBD1BF" stroke="#CC9280" stroke-width="1.1674" d="M88.778,340.063c-2.515-0.281-4.978,0.347-5.832,2.915"/>
			</g>
			<path fill="#B43C6E" stroke="#852855" stroke-width="1.1674" d="M91.07,209.778c3.358,12.271,1.093,25.26,1.66,37.819
				c0.563,12.556-0.645,25.349-0.015,37.894c0.684,13.588,1.15,26.856-2.994,39.994c-2.828,8.94-7.912,18.256-9.838,27.019
				c8.311-3.931,20.986,2.912,28.675,5.971c14.16,5.63,27.732,10.115,43.238,7.411c7.208-1.262,15.003-3.064,21.659-6.142
				c6.176-2.858,11.642-6.001,18.424-7.082c9.937-1.58,18.9-2.048,28.174-5.836c-2.181-1.16-3.031-4.396-4.532-6.361
				c-2.211-2.913-4.749-5.488-7.078-8.311c-3.78-4.604-6.56-10.73-9.81-15.845c-5.696-8.991-3.633-21.002-4.998-31.553
				c-2.746-21.249-6.735-43.232-3.837-64.463c1.291-9.406,2.916-11.281,4.579-20.096c-4.737-0.996-17.802-0.24-22.908,0
				c-0.325,11.511-1.298,18.411-10.326,26.237c-8.068,6.995-21.337,8.632-31.642,8.765c-10.978,0.155-15.833-6.724-18.419-15.841
				c-2.065-7.286-8.087-10.953-15.746-9.97c-0.192,0.399-0.367,0.805-0.51,1.223"/>
			<path fill="#EF6596" stroke="#852856" stroke-width="1.1674" d="M111.058,205.612c-1.818,1.338,4.435,8.726,6.617,10.142
				c-1.626-2.782-12.686-12.563-11.521-3.478c0.976,7.602,8.531,9.234,13.933,12.541c-3.331-1.453-6.948-3.224-9.539-5.771
				c-2.654-2.605-3.442-6.432-6.145-8.9c-3.126,4.788,0.293,13.369,4.164,17.124c4.164,4.042,8.905,4.806,14.027,6.267
				c-3.719-1.474-7.533-1.376-11.115-3.359c-3.671-2.036-4.452-4.455-6.686-7.745c1.59,6.921,2.97,10.97,9.189,15.657
				c6.234,4.694,14.644,8.366,22.583,7.522c14.295-1.516,36.851-8.37,37.728-24.963c-12.405,8.885-26.484,12.037-41.442,12.037
				c3.913,0.3,8.827-1.382,12.791-2.175c4.641-0.93,9.227-2.349,13.747-3.656c10.199-2.956,16.27-6.401,20.342-16.527
				c-3.216,3.624-7.734,5.155-12.305,6.113c6.485-0.275,18.419-12.217,10.304-17.386c-5.081-3.239-12.254,2.274-17.502,3.742
				c-5.033,1.403-10.197,2.706-15.316,3.765c-4.671,0.961-8.838,0.043-13.437,0.301"/>
			<path fill="#852855" d="M106.069,317.663c5.923,3.882,14.711,4.608,21.593,4.982c10.167,0.558,20.24,1.109,30.453,0.845
				c9.863-0.26,16.103-4.32,24.59-7.486c-3.184,13.343-24.392,9.055-34.73,9.152c-9.947,0.102-20.436,0.302-30.482,0.906
				c7.714,4.321,18.087,8.719,27.225,8.26c-8.8,0.271-18.075-0.479-26.577-2.609c-3.622-0.913-11.839-2.468-12.03-6.912
				c3.27-0.172,6.604-0.132,9.843,0.363c-4.863-1.151-7.605-5.725-11.549-7.92"/>
		</g>
		<path fill="#FAD3D2" stroke="#CC9280" stroke-width="1.1674" d="M200.164,185.479c0.909,6.341,8.054,6.104,13.011,3.063
			c5.133-3.146,6.963-6.406,8.057-11.911c1.302-6.604-4.884-8.887-11.362-8.271c-5.987,0.572-9.997,5.09-12.743,9.425
			c2.132-7.276,6.875-17.229,2.729-23.718c-6.344-9.89-5.871-24.086-18.184-26.397c-13.679-2.562-51.553-5.582-64.21-0.535
			c-12.557,4.998-20.367,1.18-30.899,9.153c-5.559,4.209-14.342,32.323-12.737,39.642c-1.398-5.001-8.989-5.604-12.111-2.62
			c-2.534,2.41-2.612,7.515-1.944,10.572c1.568,7.125,14.148,16.393,19.482,7.755c15.068,34.903,68.179,41.699,98.301,21.815
			c8.418-5.556,18.123-16.033,20.797-24.749"/>
		<path fill="none" stroke="#CC9280" stroke-width="1.1674" d="M208.586,184.387c1.77-1.684,4.79-5.104,1.521-7.084
			c-1.758-1.054-5.273-0.643-6.903,0.369c-3.552,2.189-2.583,6.786-4.505,9.947c-0.096,0.258,0.047,0.364,0.425,0.313"/>
		<path fill="none" stroke="#CC9280" stroke-width="1.1674" d="M66.997,186.027c-1.064-1.694-3.399-5.105-1.735-7.069
			c1.463-1.727,4.612-0.891,6.138,0.388c1.713,1.435,7,13.043,8.652,13.183"/>
		<g>
			<path fill="#FBF174" stroke="#F6D60B" stroke-width="1.1674" d="M101.544,153.496c-2.078,1.854-6.447,0.927-7.667,3.522
				c-1.447,3.079,2.089,4.694,3.148,7.024c2.192,4.831,0.917,12.383-2.304,16.494c-3.028,3.862-9.306,5.965-9.173,11.684
				c0.121,5.271,6.704,9.436,10.346,4.194c2.821,10.611-11.597,12.598-18.528,8.229c-0.194-0.182-0.19-0.188,0.012-0.014
				c2.309,3.243,7.982,7.038,11.779,8.71c3.255,1.431,12.384,3.581,13.95,7.031c3.221,7.101-9.271,5.84-12.402,6.442
				c-7.981,1.531-6.552,12.365-0.623,9.21c1.439,5.871-9.217,6.313-12.169,2.351c-4.115-5.521,1.17-10.971,0-16.594
				c-1.584-7.653-7.874-3.928-13.533-6.808c-6.237-3.176-6.414-8.02-6.802-14.138c-6.229,2.165-11.278-4.399-14.411-8.945
				c2.313,2.603,7.085,3.296,9.754,0.705c2.962-2.876,1.548-7.727,0.105-10.937c-3.175-7.05-9.643-12.519-12.514-19.617
				c-2.947-7.258-3.887-16.051,1.297-22.53c2.166-2.703,4.428-3.99,5.647-7.144c1.458-3.768,1.4-8.594,1.952-12.57
				c2.596-18.562,3.875-37.302,23.113-47.795c4.587-2.5,8.855-4.264,14.056-4.51c4.531-0.222,8.166,1.148,12.269-0.617
				c8.582-3.68,14.155-11.344,24.376-11.456c9.122-0.1,15.396,6.124,23.761,7.53c8.623,1.454,15.906-4.922,23.843-7.405
				c9.622-3.012,20.761-0.08,27.382,6.791c9.423,9.782,16.667,2.926,28.282,4.125c12.907,1.326,24.319,15.917,23.074,28.188
				c-0.515,5.115-4.919,13.567-0.543,17.756c6.456,6.172,11.776-1.683,10.958-8.048c5.597,13.221-1.086,19.728-10.649,27.914
				c9.681-0.73,8.482,12.664,6.687,18.708c-1.305,4.404-3.18,8.902,1.291,12.587c4.287,3.532,6.33,0.133,5.111-3.973
				c5.927,9.206,3.39,16.704-5.823,22.067c7.533,2.881-5.833,12.704-8.464,14.973c-2.504,2.164-5.552,3.666-4.657,7.658
				c0.785,3.52,4.404,2.989,5.702,5.015c2.91,4.536-4.85,9.536-9.278,10.099c-7.33,0.933-11.385-3.819-16.518-7.519
				c-4.396,2.613-3.552,7.418,0.307,10.034c-4.677-0.069-9.871,0.647-14.277-1.011c-4.451-1.667-5.556-5.471-8.666-8.019
				c-3.593,8.974-18.484,3.043-23.144-1.61c10.497,4.776,11.138-11.626,9.666-17.362c-9.064,4.333-16.103-2.89-17.479-11.255
				c-1.522-9.276,2.822-16.867-1.79-25.646c-4.729-9.008-9.765-12.07-20.003-12.07c-7.895,0-15.13,1.252-22.859,2.52
				c-4.694,0.776-10.015,2.5-14.819,2.001"/>
			<path fill="#FBF174" stroke="#F6D60B" stroke-width="1.1674" d="M130.449,99.173c8.37,13.311-7.761,14.582-16.522,16.211
				c-13.303,2.472-22.817,14.424-20.667,28.047c0.976,6.179,5.752,11.067,10.361,15.092c3.625,3.16,9.321,5.396,11.869,9.442
				c5.317,8.416-2.793,17.604-12.001,15.105c-0.873-0.24-2.235-1.611-2.915-2.244c2.467,9.582,15.871,8.861,23.16,5.748
				c4.536-1.933,8.264-4.911,10.202-9.443c1.648-3.869,0.249-8.311,1.804-12.059c3.04-7.31,16.298-8.146,23.088-10.941
				c10.148-4.168,18.295-18.622,9.803-27.694c-0.884-0.949-2.091-1.758-3.083-2.616"/>
			<path fill="#F6D60B" d="M79.38,152.414c-4.075,6.272-19.468-0.766-17.996-8.426c5.463,4.63,10.35,5.762,14.363-2.065
				c1.507-2.932,2.271-7.943,1.148-11.083c-1.36-3.793-5.636-5.146-6.751-9.162c-2.434-8.801,8.162-18.697,14.758-23.007
				c3.928-2.573,25.368-13.1,25.415-4.023c0,0-3.847-14.106-28.342-0.468c-24.485,13.639-14.31,29.132-14.31,29.132
				s8.907,9.915,4.773,18.904c-4.141,8.989-11.455-1.859-11.455-1.859s-5.41,4.65,2.547,13.636
				C63.531,153.993,73.29,160.748,79.38,152.414z"/>
			<path fill="#F6D60B" d="M75.22,166.567c7.941,1.432-6.549,14.536-6.596,18.106c-0.085,6.67,9.569,5.629,9.694-0.349
				c3.742,9.554-11.478,11.971-13.96,2.358c-2.744-10.574,12.911-11.032,11.38-18.604"/>
			<path fill="#F6D60B" d="M204.261,164.557c2.953,6.003-5.48,10.74-9.688,11.133c-6.964,0.646-12.353-0.416-14.455,6.987
				c-3.651,12.854,17,12.848,10.841,2.15c0.189,0.857-0.524,2.638-2.754,2.948c-1.582,1.241-5.084-0.102-4.598-4.721
				c0.564-5.472,4.652-4.323,8.781-4.415C201.037,178.453,207.618,173.832,204.261,164.557"/>
			<path fill="#F6D60B" d="M231.055,167.629c6.436,2.22,3.896,11.377,1.194,14.55c-4.471,5.245-9.06,8.19-5.188,14.888
				c6.719,11.621,21.354-2.58,9.241-5.925c0.755,0.475,1.544,2.223,0.188,3.976c-0.228,1.968-3.686,3.424-6.686-0.177
				c-3.562-4.274,0.175-6.266,3.031-9.169C238.825,179.688,240.146,171.895,231.055,167.629"/>
			<path fill="#F6D60B" d="M188.772,117.784c6.856-0.906,12.876-2.478,18.097,3.533c4.791,5.515,3.123,10.018,4.076,16.72
				c0.607,4.324,2.302,9.087,7.249,9.417c4.713,0.323,9.298-4.999,7.202-9.403c1.324,8.927,0.215,19.441-11.806,20.084
				c12.14,3.902,22.75-18.276,13.995-25.713c-0.6,5.257-9.422,12.257-11.984,5.984c-2.09-5.131,0.121-11.66-2.052-17.099
				c-5.832-14.626-16.211-10.683-26.837-3.521"/>
			<path fill="#F6D60B" d="M184.848,96.265c6.033,9.108,23.409,1.629,19.615-11.139c-1.469,12.957-26.744-15.74-34.63-0.093
				c3.499-6.191,9.487,0.228,12.812,2.81c4.262,3.3,15.609,6.812,20.521,3.548c-1.406,4.647-12.728,7.206-17.281,5.378"/>
		</g>
		<path fill="#010101" stroke="#010101" stroke-width="1.1674" d="M140.248,192.829c0.441,1.376,1.913,2.135,3.284,1.692
			c1.372-0.437,2.135-1.913,1.691-3.285c-0.443-1.374-1.914-2.132-3.288-1.69C140.563,189.989,139.809,191.456,140.248,192.829z"/>
		<path fill="#FFFFFF" d="M140.4,191.662c0.21,0.641,0.886,0.995,1.535,0.785c0.636-0.207,0.995-0.889,0.784-1.53
			c-0.205-0.638-0.889-0.993-1.532-0.787C140.548,190.331,140.194,191.022,140.4,191.662z"/>
		<path fill="#010101" stroke="#010101" stroke-width="1.1674" d="M123.858,193.064c0.438,1.375,1.911,2.131,3.283,1.689
			c1.377-0.44,2.134-1.909,1.691-3.282c-0.434-1.374-1.908-2.131-3.285-1.691C124.176,190.223,123.419,191.692,123.858,193.064z"/>
		<path fill="#FFFFFF" d="M124.01,191.891c0.206,0.645,0.894,0.999,1.538,0.792c0.638-0.201,0.987-0.892,0.783-1.532
			c-0.21-0.645-0.887-0.994-1.532-0.788C124.161,190.57,123.8,191.255,124.01,191.891z"/>
		<path fill="#010101" d="M99.022,193.657c-0.182-0.813,0.33-1.613,1.135-1.793l0,0c0.085-0.017,20.311-4.521,47.026-3.343l0,0
			c6.031,0.27,12.393,0.824,18.935,1.796l0,0c0.815,0.122,1.384,0.884,1.258,1.702l0,0c-0.12,0.818-0.883,1.386-1.698,1.265l0,0
			c-6.425-0.956-12.688-1.503-18.629-1.767l0,0c-13.155-0.584-24.737,0.24-33.012,1.204l0,0c-8.282,0.966-13.215,2.062-13.226,2.07
			l0,0c-0.131,0.029-0.265,0.039-0.396,0.033l0,0C99.753,194.794,99.171,194.326,99.022,193.657L99.022,193.657z"/>
		<path fill="#CC9280" d="M127.877,201.477c0,0,5.725,7.025,14.568,0.521C142.445,201.997,134.123,213.443,127.877,201.477z"/>
	</g>
</g>
</svg>
