<?xml version="1.0" encoding="utf-8"?>
<!-- Generator: Adobe Illustrator 16.0.3, SVG Export Plug-In . SVG Version: 6.00 Build 0)  -->
<!DOCTYPE svg PUBLIC "-//W3C//DTD SVG 1.1 Basic//EN" "http://www.w3.org/Graphics/SVG/1.1/DTD/svg11-basic.dtd" [
	<!ENTITY ns_flows "http://ns.adobe.com/Flows/1.0/">
	<!ENTITY ns_extend "http://ns.adobe.com/Extensibility/1.0/">
	<!ENTITY ns_ai "http://ns.adobe.com/AdobeIllustrator/10.0/">
	<!ENTITY ns_graphs "http://ns.adobe.com/Graphs/1.0/">
]>
<svg version="1.1" baseProfile="basic" id="Layer_1" xmlns:x="&ns_extend;" xmlns:i="&ns_ai;" xmlns:graph="&ns_graphs;"
	 xmlns="http://www.w3.org/2000/svg" xmlns:xlink="http://www.w3.org/1999/xlink" xmlns:a="http://ns.adobe.com/AdobeSVGViewerExtensions/3.0/"
	 x="0px" y="0px" width="97.059px" height="43.845px" viewBox="0 0 97.059 43.845" xml:space="preserve">
<g>
	<g>
		
			<rect x="24.902" y="17.955" transform="matrix(0.8592 -0.5117 0.5117 0.8592 -2.9611 29.1058)" fill="#FAF4B8" stroke="#E6AC4A" stroke-width="0.2132" width="52.993" height="3.956"/>
		
			<rect x="25.412" y="20.352" transform="matrix(-0.8592 0.5117 -0.5117 -0.8592 107.4225 12.5581)" fill="#DDC438" stroke="#E6AC4A" stroke-width="0.2132" width="53.143" height="1.418"/>
		
			<rect x="24.444" y="19.383" transform="matrix(-0.8592 0.5117 -0.5117 -0.8592 105.6123 11.119)" fill="#F4EA49" stroke="#E6AC4A" stroke-width="0.2132" width="53.665" height="1.418"/>
		<path fill="#ECD1AD" stroke="#D0AB81" stroke-width="0.2132" d="M29.645,35.189l-9.444,3.105l7.42-6.504
			c0,0,1.189,0.248,0.764,1.064c0,0,1.074,0.272,0.764,1.283C29.149,34.138,30.243,34.442,29.645,35.189z"/>
		<path d="M20.201,38.294l1.791-1.588c0,0,0.953,0.214,0.484,0.885L20.201,38.294z"/>
		<path fill="#E1A2A6" stroke="#CA2D78" stroke-width="0.2132" d="M82.965,2.045c0.38,0.638,0.171,1.462-0.466,1.842l-1.924,1.146
			c-0.638,0.38-1.462,0.17-1.842-0.467l-0.764-1.283c-0.38-0.638-0.171-1.462,0.467-1.842l1.923-1.146
			c0.638-0.379,1.463-0.17,1.842,0.467L82.965,2.045z"/>
		
			<rect x="73.802" y="2.935" transform="matrix(0.8591 -0.5117 0.5117 0.8591 8.2425 39.9212)" fill="#CCCCCC" stroke="#4D4D4D" stroke-width="0.2132" width="5.673" height="4.106"/>
		<path fill="#CCCCCC" stroke="#4D4D4D" stroke-width="0.2132" d="M75.772,7.763c0.158,0.266,0.071,0.609-0.195,0.768l0,0
			c-0.265,0.158-0.608,0.071-0.767-0.194l-2.063-3.463c-0.158-0.266-0.071-0.609,0.194-0.767l0,0
			c0.266-0.158,0.61-0.071,0.768,0.195L75.772,7.763z"/>
		<path fill="#CCCCCC" stroke="#4D4D4D" stroke-width="0.2132" d="M76.926,7.076c0.158,0.265,0.071,0.609-0.194,0.767l0,0
			c-0.266,0.158-0.61,0.071-0.768-0.194l-2.062-3.462c-0.158-0.266-0.071-0.61,0.194-0.768l0,0c0.266-0.158,0.61-0.071,0.768,0.195
			L76.926,7.076z"/>
		<path fill="#CCCCCC" stroke="#4D4D4D" stroke-width="0.2132" d="M79.235,5.701c0.158,0.266,0.071,0.609-0.194,0.767l0,0
			c-0.266,0.159-0.61,0.071-0.768-0.194L76.21,2.811c-0.158-0.266-0.071-0.609,0.195-0.768l0,0c0.266-0.158,0.609-0.071,0.767,0.195
			L79.235,5.701z"/>
		<path fill="#CCCCCC" stroke="#4D4D4D" stroke-width="0.2132" d="M80.389,5.013c0.158,0.266,0.071,0.609-0.195,0.767l0,0
			c-0.265,0.158-0.609,0.071-0.768-0.194l-2.062-3.462c-0.158-0.266-0.071-0.61,0.195-0.768l0,0
			c0.266-0.158,0.609-0.071,0.767,0.194L80.389,5.013z"/>
	</g>
	<g>
		
			<linearGradient id="SVGID_1_" gradientUnits="userSpaceOnUse" x1="43.1885" y1="99.832" x2="34.495" y2="92.253" gradientTransform="matrix(0.9829 0.1843 -0.1843 0.9829 32.8683 -91.8497)">
			<stop  offset="0" style="stop-color:#916C2F"/>
			<stop  offset="0.0675" style="stop-color:#B8893B"/>
			<stop  offset="0.0759" style="stop-color:#C1903E"/>
			<stop  offset="0.0979" style="stop-color:#D29C43"/>
			<stop  offset="0.1252" style="stop-color:#DDA547"/>
			<stop  offset="0.1635" style="stop-color:#E4AB49"/>
			<stop  offset="0.2699" style="stop-color:#E6AC4A"/>
			<stop  offset="0.3347" style="stop-color:#EABE4A"/>
			<stop  offset="0.4346" style="stop-color:#EFD249"/>
			<stop  offset="0.5474" style="stop-color:#F2E149"/>
			<stop  offset="0.6825" style="stop-color:#F4E949"/>
			<stop  offset="0.8992" style="stop-color:#F5EC49"/>
			<a:midPointStop  offset="0" style="stop-color:#916C2F"/>
			<a:midPointStop  offset="0.5" style="stop-color:#916C2F"/>
			<a:midPointStop  offset="0.0675" style="stop-color:#B8893B"/>
			<a:midPointStop  offset="0.13" style="stop-color:#B8893B"/>
			<a:midPointStop  offset="0.2699" style="stop-color:#E6AC4A"/>
			<a:midPointStop  offset="0.2059" style="stop-color:#E6AC4A"/>
			<a:midPointStop  offset="0.8992" style="stop-color:#F5EC49"/>
		</linearGradient>
		<path fill="url(#SVGID_1_)"  a:adobe-blending-mode="multiply" d="M64.201,7.64c0,0-1.834,1.508-2.188-0.117
			s1.85-1.105-0.559-2.862c-2.408-1.758-3.518-1.719-3.518-1.719s3.805,2.852,2.453,4.087c0,0-2.022,2.675,1.573,2.407
			c0,0,0.221,0.64-0.57,0.617c-0.791-0.023-1.724-0.673-2.282-0.534c-0.558,0.139,1.941,0.432,0.867,1.158s-1.963,0.404-1.075,0.726
			c0.889,0.321,0.719-0.23,1.034-0.173s-0.68,1.797-1.427,1.102c-0.748-0.696-0.574-1.265-0.874-2.92
			c-0.3-1.655-1.472-1.228-2.805-0.708c-1.333,0.518,2.442-0.558,1.938,0.551c-0.504,1.109-1.207,2.743-0.444,2.841
			c0.763,0.098,1.403-0.146,1.498,0.271c0.094,0.417,0.126,0.223,0.353,0.624s-0.945,0.829-1.806,0.433
			c-0.86-0.396-0.929-0.769-1.821-0.971c-0.892-0.202-3.669,0.015-2.481-2.011c1.188-2.025,1.048-2.771,0.081-3.107
			c-0.967-0.335,1.28,0.513-0.018,1.718c-1.298,1.205-4.931,5.909-1.801,5.316s5.133-1.55,4.365-0.409s-2.423,1.842-2.303,1.303
			c0.12-0.539-0.284-0.251,0.261-0.913c0,0-1.304,1.444-0.22,1.361s1.33,0.602,0.508,0.772c0,0-0.737,0.714-1.248,0.242
			c-0.512-0.473-0.618-0.768-1.265-0.402c-0.647,0.366-0.291-0.19,0.084,0.257c0.375,0.448,0.384,1.002-0.111,0.774
			s-1.607-0.36-1.085-1.164s0.584-1.448-1.037-1.293c-1.621,0.155,1.91,0.139,0.816,1.011c-1.093,0.873-1.86,1.458-1.106,1.388
			c0.753-0.07,1.604-0.399,1.477,0.13c-0.127,0.529-0.72,1.423-1.125,1.246s-0.128-0.334-0.623-0.562
			c-0.495-0.228-0.96,1-1.15-0.416c-0.191-1.416,2.066-1.524-0.849-1.5c-2.915,0.023-2.619-0.855-1.453-1.921
			c1.166-1.066-2.238,1.114-1.71,2.694s1.265,1.266,2.282,0.69c1.017-0.575,1.966-0.299,1.586,0.323
			c-0.381,0.621-0.625,1.268-0.095,1.019c0.53-0.249,1.567,0.181,0.74,0.445c-0.827,0.265-1.139,0.035-1.422,0.398
			s0.22,0.282-0.038,0.58c-0.258,0.299-1.194-0.493-1.431-0.156c-0.236,0.337,0.005-0.206,0.084,0.257
			c0.079,0.463,0.153,1.133-0.68,0.74c-0.832-0.393-1.311-0.376-1.591-0.116c-0.28,0.26,0.727,1.824,0.114,0.85
			s0.503-0.945-0.152-1.996c-0.656-1.051-0.857-1.192-0.628-0.356c0.229,0.836,0.979,0.869,0.261,1.325
			c-0.718,0.457-1.849,1.046-1.08,1.22c0.77,0.174,1.194-0.37,1.227,0.119c0.033,0.489-0.563,0.623-0.563,0.623
			s-0.618,0.095-0.345,0.145c0.271,0.049,0.593-0.031,0.593-0.031s3.927-2.119,4.685-2.396c0.759-0.277,1.115,0.029,1.447-0.463
			s0.696-0.496,0.696-0.496s0.311,0.333,0.661-0.018c0.351-0.351-0.043-0.077,0.351-0.351c0.395-0.274,0.462-0.262,0.875-0.394
			c0.414-0.132,0.234-0.234,0.652-0.573c0.419-0.338,0.5-0.841,1.254-0.912c0.753-0.07,1.001,0.043,1.262-0.358
			c0.261-0.402,2.812-2.149,3.5-2.335s0.479-0.017,0.936-0.072s0.889-0.046,0.811-0.509c-0.079-0.463-0.164-0.72,0.222-0.685
			c0.387,0.036,1.025-0.885,1.575-0.992s0.737-0.315,1.183-0.821s1.712-1.071,2.004-0.879c0.291,0.19,0.55,0.755,0.881,0.263
			c0.332-0.492,1.398-1.197,1.792-1.471c0.394-0.273,4.002-2.417,4.601-2.653s1.887-0.762,1.925-1.343
			c0.038-0.58-0.261-1.325-0.925-1.204c-0.664,0.122-1.724,0.62-1.73-0.037c-0.005-0.657-0.682,0.843,0.139,0.785
			c0.821-0.058,2.494,0.418,1.806,0.604c-0.688,0.186-0.185,0.104-1.121,0.177c-0.936,0.072-0.982,0.098-0.919,0.316
			c0.063,0.219-1.106,1.388-1.208,0.023c-0.101-1.365,0.114-1.741-0.618-1.632c-0.731,0.109-1.499-0.168-0.69,0.29
			s1.485,0.684,0.647,1.36s0.455,0.911-0.671,1.294c-1.126,0.383-1.693,1.212-1.534,0.309c0.161-0.903,0.843-0.02,0.161-0.903
			c-0.684-0.884-1.885-0.204-1.703-0.206c0.182-0.001,1.828,0.643,0.996,1.113s-0.362-0.1-0.762-0.483
			c-0.399-0.383-0.704-0.059-1.027,0.124C63.244,7.7,64.415,7.238,64.201,7.64z"/>
		<path opacity="0.55" fill="#F4E833"  a:adobe-blending-mode="overlay" d="M44.745,17.492c0,0-0.759,0.581-1.229,0.384
			c-0.469-0.196-0.788-0.618-0.766-1.119c0.022-0.502-0.024-0.836,0.257-1.181c0.282-0.345,1.256-1.305,1.256-1.305
			s-1.356,1.069-1.271,1.771c0.085,0.703,0.642,1.783,1.596,1.13c0.954-0.652,1.739-0.216,1.77,0.006
			C46.357,17.18,45.668,16.617,44.745,17.492z"/>
		<path fill="#F4E833" d="M52.114,9.223c0,0-3.538,4.217-2.778,4.793c0.759,0.576,3.119-0.247,3.119-0.247
			S46.851,15.899,52.114,9.223z"/>
		<path opacity="0.57" fill="#F4E833"  a:adobe-blending-mode="overlay" d="M55.028,8.721c0,0,2.056-0.555,2.023,0.199
			c-0.033,0.753-1.425,3.167,0.552,3.031c0,0-1.619,0.347-1.453-0.345c0.166-0.692,0.925-2.429,0.642-2.843
			C56.507,8.348,55.028,8.721,55.028,8.721z"/>
		<path fill="#F4E833"  a:adobe-blending-mode="softLight" d="M54.231,12.584c0,0,0.822,0.046,1.056,0.342
			c0.233,0.297,1.395,1.237,2.274,0.788c0.88-0.45,0.919-0.659,0.919-0.659s-1.249,1.646-2.324,0.829
			C55.081,13.068,55.098,12.782,54.231,12.584z"/>
		<path fill="#E6AC4A"  a:adobe-blending-mode="multiply" d="M47.279,20.172c0.216-0.398,0.714-0.682,1.168-0.65
			c0.46,0.032,0.246,0.082,0.521-0.261c0.188-0.233,0.384-0.142,0.651-0.25c0.185-0.074,0.492-0.259,0.622-0.381
			c0.176-0.165,0.302-0.456,0.487-0.623c0.187-0.168,0.402-0.291,0.623-0.423c0.208-0.125,0.405-0.133,0.61-0.221
			c0.034-0.015,0.133-0.003,0.177-0.009c0-0.013,0.013-0.081,0.017-0.093c-0.258-0.171-0.573-0.163-0.83-0.316
			c-0.221-0.131-0.394-0.362-0.639-0.435c0.228,0,0.493,0.319,0.532,0.534c0.06,0.331-0.177,0.354-0.377,0.505
			c-0.174,0.13-0.271,0.43-0.601,0.323c-0.252-0.082-0.312-0.342-0.676-0.382c0.418,0.196,0.735,0.803,0.347,1.145
			c-0.561-0.047-0.747,0.385-1.295,0.42c-0.018,0.087-0.096,0.156-0.097,0.26c-0.264,0.044-0.396-0.145-0.646-0.158
			c-0.048-0.208,0.147-0.419,0.044-0.602c-0.091-0.162-0.419-0.214-0.558-0.147c0.286,0.018,0.364,0.173,0.391,0.407
			c0.015,0.135,0.031,0.53-0.018,0.641c-0.384,0.049-0.433,0.361-0.664,0.539c-0.373,0.286-0.548-0.083-0.908,0.01
			c-0.103,0.413-0.11,0.685-0.575,0.763c-0.431,0.073-0.772-0.121-1.128-0.331c0.283,0.037,0.62,0.356,0.739,0.583
			c0.18,0.341,0.187,0.757,0.66,0.331c0.253-0.228,0.308-0.59,0.585-0.765c0.275-0.173,0.752,0.008,0.813-0.447
			c0.046,0.013,0.047-0.008,0.071-0.028"/>
		<path fill="#E6AC4A"  a:adobe-blending-mode="multiply" d="M52.586,17.119c0.297,0.045,0.469-0.354,0.698-0.492
			c0.226-0.136,0.666-0.307,0.538-0.688c-0.176-0.526-1.857-0.153-1.63-0.763c-0.001,0.603,1.146,0.263,1.449,0.369
			c0.232,0.081,0.372,0.531,0.646,0.42c0.345-0.139,0.041-0.539,0.107-0.744c0.401,0.039,0.978-0.205,1.271-0.497
			c0.61-0.606-0.201-0.707-0.232-1.217c0.071,0.438,0.951,0.619,0.788,1.034c0.245,0.073,0.26-0.195,0.438-0.247
			c0.197-0.057,0.426,0.095,0.627,0.083c0.089-0.005,0.188-0.113,0.284-0.123c0.102-0.011,0.211,0.066,0.315,0.054
			c0.197-0.023,0.371-0.063,0.342-0.319c-0.22-0.123-0.128-0.525,0.02-0.664c0.063-0.06,0.26-0.049,0.361-0.13
			c0.113-0.091,0.183-0.183,0.191-0.327c-0.24-0.207-0.583-0.38-0.698-0.702c0.184,0.219,0.173,0.406,0.445,0.539
			c0.123,0.06,0.797,0.202,0.627,0.473c-0.061,0.097-0.562,0.001-0.704,0.129c-0.229,0.208-0.018,0.292,0.001,0.577
			c0.052,0.787-0.749,0.54-1.157,0.715c-0.128,0.055-0.057,0.134-0.24,0.181c-0.129,0.033-0.256-0.036-0.398,0.007
			c-0.23,0.07-0.489,0.271-0.712,0.372c-0.375,0.17-0.784,0.35-1.108,0.605c-0.15,0.119-0.232,0.293-0.382,0.408
			c-0.184,0.141-0.348,0.142-0.502,0.267c-0.066,0.053-0.071,0.167-0.141,0.225c-0.093,0.078-0.179,0.062-0.277,0.121
			c-0.196,0.119-0.224,0.198-0.378,0.344c-0.259,0.242-0.913,0.436-0.89-0.097c0.16,0.027,0.278,0.088,0.443,0.114"/>
		<path fill="#E6AC4A"  a:adobe-blending-mode="multiply" d="M59.486,12.701c0.316-0.236,0.965-0.97,0.849-1.431
			c-0.193-0.761-0.935,0.209-1.27,0.08c0.344-0.153,0.659-0.553,1.045-0.584c0.738-0.058,0.45,0.634,0.312,1.021
			c0.196,0.053,0.434-0.092,0.455-0.301c0.217,0.059,0.227-0.178,0.247-0.352c0.403,0.067,0.767-0.036,0.777-0.541
			c-0.283-0.14-0.886-0.146-1.057-0.424c0.256,0.231,0.815,0.214,1.152,0.298c-0.012,0.07,0.03,0.129,0.009,0.207
			c0.34,0.08,0.574,0.115,0.599-0.311c0.256,0.032,0.485,0.04,0.728-0.05c0.171-0.063,0.371-0.313,0.575-0.12
			c0.108,0.102-0.085,0.49,0.258,0.494c0.294,0.002,0.269-0.389,0.094-0.525c0.512-0.128,0.221-0.793,0.33-1.125
			c0.191-0.008,0.323-0.144,0.305-0.341c-0.141-0.063-0.27-0.156-0.411-0.228c0.989,0.064,0.247,0.828,0.115,1.282
			c0.376,0.2,0.688,0.033,0.982-0.207c0.233-0.19,0.216-0.147,0.498-0.197c0.177-0.031,0.33-0.002,0.438-0.207
			c0.417-0.794-1.976-0.156-0.83-1.021c-0.05,0.081-0.053,0.208-0.08,0.302c0.438,0.197,0.896,0.085,1.362,0.194
			c0.01,0.491-0.81,0.715-1.162,0.933c-0.226,0.141-0.431,0.238-0.578,0.471c-0.073,0.115-0.098,0.265-0.178,0.362
			c-0.088,0.106-0.235,0.109-0.298,0.188c-0.184,0.231-0.137,0.667-0.533,0.734c-0.36,0.06-0.335-0.285-0.562-0.424
			c-0.386-0.238-0.5,0.09-0.793,0.172c-0.14,0.04-0.295-0.09-0.385-0.068c-0.094,0.022-0.242,0.181-0.333,0.237
			c-0.208,0.129-0.575,0.103-0.728,0.261c-0.247,0.255,0,0.528-0.44,0.731c-0.52,0.24-1.037-0.148-1.448,0.425"/>
		<path opacity="0.57" fill="#F4E833"  a:adobe-blending-mode="overlay" d="M58.571,3.223c0.919,0.802,2.698,1.496,2.481,2.959
			c-0.07,0.476-0.201,0.769-0.446,1.151C60.447,7.58,60.053,8,60.119,8.327c0.105,0.524,1.612,1.274,2.016,0.834
			c-0.004,0.004,0.133-0.016,0.048-0.002c-0.572-0.087-1.996-0.608-1.63-1.426c0.066,0.071,0.173,0.1,0.235,0.167
			c0.077-0.451,0.152-0.803,0.575-1.046c-0.104,0.358-0.003,0.804,0.275,1.058c0.045-0.499-0.262-0.975-0.186-1.548
			C61.532,5.753,61.599,5.499,61.18,5c-0.689-0.821-1.771-0.984-2.534-1.6"/>
		<path fill="#E6AC4A"  a:adobe-blending-mode="multiply" d="M67.393,8.509c0.068-0.618,0.445-0.321,0.756-0.548
			c0.379-0.278,0.093-0.606,0.131-1.018c0.038-0.411,0.292-0.903,0.249-1.312c-0.059-0.552-0.417-0.3-0.674-0.712
			c0.71,0.01,0.836,0.249,0.74,0.941c-0.053,0.384-0.341,1.696,0.499,1.389c0.292,0.425,0.716-0.136,0.902-0.271
			c0.256-0.186,0.999-0.364,0.696-0.713c0.58,0.078,2.131,0.037,1.72-0.868c-0.438-0.963-1.614-0.356-2.37-0.58
			c0.392-0.051,0.812,0.073,1.249-0.025c0.336-0.075,0.785-0.236,1.071,0.078c0.201,0.22,0.186,0.899,0,1.156
			c-0.208,0.286-0.77,0.283-1.052,0.464c-0.319,0.205-0.501,0.599-0.879,0.784c-0.33,0.161-0.708,0.152-1.041,0.346
			c-0.335,0.195-1.639,1.455-1.971,0.961C67.397,8.563,67.389,8.538,67.393,8.509"/>
	</g>
	<g>
		
			<rect x="31.442" y="23.351" transform="matrix(0.9522 -0.3056 0.3056 0.9522 -4.9456 19.2001)" fill="#FAF4B8" stroke="#E6AC4A" stroke-width="0.2132" width="54.833" height="4.093"/>
		
			<rect x="31.692" y="25.938" transform="matrix(-0.9522 0.3056 -0.3056 -0.9522 123.6913 33.9813)" fill="#DDC438" stroke="#E6AC4A" stroke-width="0.2132" width="54.988" height="1.468"/>
		
			<rect x="30.934" y="24.796" transform="matrix(-0.9522 0.3056 -0.3056 -0.9522 122.3902 31.9031)" fill="#F4EA49" stroke="#E6AC4A" stroke-width="0.2132" width="55.528" height="1.468"/>
		<path fill="#ECD1AD" stroke="#D0AB81" stroke-width="0.2132" d="M33.378,35.724L23.134,36.66l8.993-4.833
			c0,0,1.142,0.526,0.523,1.252c0,0,1.02,0.524,0.472,1.47C33.123,34.549,34.155,35.11,33.378,35.724z"/>
		<path d="M23.134,36.66l2.175-1.185c0,0,0.911,0.438,0.282,1.004L23.134,36.66z"/>
		<path fill="#E1A2A6" stroke="#CA2D78" stroke-width="0.2132" d="M94.845,14.7c0.235,0.731-0.168,1.514-0.899,1.749l-2.206,0.708
			c-0.731,0.235-1.514-0.167-1.748-0.898l-0.472-1.471c-0.235-0.731,0.167-1.514,0.898-1.749l2.206-0.708
			c0.731-0.234,1.514,0.168,1.749,0.899L94.845,14.7z"/>
		
			<rect x="84.847" y="14.073" transform="matrix(0.9522 -0.3056 0.3056 0.9522 -0.7505 27.5987)" fill="#CCCCCC" stroke="#4D4D4D" stroke-width="0.2132" width="5.869" height="4.248"/>
		<path fill="#CCCCCC" stroke="#4D4D4D" stroke-width="0.2132" d="M86.263,18.793c0.098,0.305-0.07,0.631-0.375,0.729l0,0
			c-0.305,0.097-0.63-0.07-0.729-0.375l-1.274-3.971c-0.097-0.305,0.07-0.631,0.375-0.729l0,0c0.305-0.098,0.631,0.07,0.729,0.375
			L86.263,18.793z"/>
		<path fill="#CCCCCC" stroke="#4D4D4D" stroke-width="0.2132" d="M87.586,18.368c0.098,0.305-0.07,0.631-0.375,0.729l0,0
			c-0.305,0.098-0.631-0.069-0.729-0.375l-1.274-3.971c-0.098-0.305,0.07-0.631,0.375-0.729l0,0c0.305-0.097,0.631,0.07,0.729,0.375
			L87.586,18.368z"/>
		<path fill="#CCCCCC" stroke="#4D4D4D" stroke-width="0.2132" d="M90.233,17.519c0.099,0.305-0.069,0.631-0.375,0.729l0,0
			c-0.305,0.098-0.63-0.069-0.728-0.374l-1.274-3.971c-0.098-0.305,0.07-0.631,0.374-0.729l0,0c0.305-0.098,0.631,0.07,0.729,0.375
			L90.233,17.519z"/>
		<path fill="#CCCCCC" stroke="#4D4D4D" stroke-width="0.2132" d="M91.557,17.094c0.099,0.304-0.069,0.631-0.375,0.728l0,0
			c-0.304,0.098-0.631-0.07-0.728-0.375l-1.275-3.971c-0.097-0.305,0.07-0.631,0.375-0.729l0,0c0.305-0.098,0.631,0.07,0.729,0.375
			L91.557,17.094z"/>
	</g>
	<g>
		
			<linearGradient id="SVGID_2_" gradientUnits="userSpaceOnUse" x1="55.915" y1="141.2471" x2="45.5798" y2="132.2368" gradientTransform="matrix(0.9682 0.2504 -0.2504 0.9682 49.1407 -128.4083)">
			<stop  offset="0" style="stop-color:#916C2F"/>
			<stop  offset="0.0675" style="stop-color:#B8893B"/>
			<stop  offset="0.0759" style="stop-color:#C1903E"/>
			<stop  offset="0.0979" style="stop-color:#D29C43"/>
			<stop  offset="0.1252" style="stop-color:#DDA547"/>
			<stop  offset="0.1635" style="stop-color:#E4AB49"/>
			<stop  offset="0.2699" style="stop-color:#E6AC4A"/>
			<stop  offset="0.3347" style="stop-color:#EABE4A"/>
			<stop  offset="0.4346" style="stop-color:#EFD249"/>
			<stop  offset="0.5474" style="stop-color:#F2E149"/>
			<stop  offset="0.6825" style="stop-color:#F4E949"/>
			<stop  offset="0.8992" style="stop-color:#F5EC49"/>
			<a:midPointStop  offset="0" style="stop-color:#916C2F"/>
			<a:midPointStop  offset="0.5" style="stop-color:#916C2F"/>
			<a:midPointStop  offset="0.0675" style="stop-color:#B8893B"/>
			<a:midPointStop  offset="0.13" style="stop-color:#B8893B"/>
			<a:midPointStop  offset="0.2699" style="stop-color:#E6AC4A"/>
			<a:midPointStop  offset="0.2059" style="stop-color:#E6AC4A"/>
			<a:midPointStop  offset="0.8992" style="stop-color:#F5EC49"/>
		</linearGradient>
		<path fill="url(#SVGID_2_)"  a:adobe-blending-mode="multiply" d="M75.144,16.497c0,0-2.02,1.027-2.325-0.274
			s2.019-0.71-0.47-2.288c-2.489-1.576-3.672-1.639-3.672-1.639s3.929,2.549,2.435,3.404c0,0-2.271,1.924,1.571,2.015
			c0,0,0.207,0.52-0.635,0.435c-0.842-0.084-1.808-0.671-2.408-0.608c-0.601,0.063,2.05,0.5,0.873,0.979
			c-1.176,0.479-2.109,0.153-1.176,0.479c0.933,0.325,0.775-0.12,1.108-0.049c0.333,0.071-0.803,1.35-1.568,0.744
			c-0.766-0.607-0.556-1.038-0.804-2.359c-0.247-1.32-1.515-1.083-2.958-0.789c-1.442,0.295,2.626-0.232,2.041,0.594
			c-0.585,0.826-1.405,2.046-0.596,2.186c0.808,0.141,1.5,0.003,1.583,0.338c0.083,0.334,0.125,0.185,0.349,0.519
			c0.224,0.333-1.043,0.569-1.943,0.188s-0.957-0.679-1.898-0.912c-0.942-0.232-3.909-0.294-2.556-1.781
			c1.354-1.486,1.238-2.082,0.222-2.425c-1.017-0.343,1.341,0.508-0.095,1.343s-5.511,4.213-2.151,4.011
			c3.36-0.203,5.537-0.785,4.668,0.044c-0.869,0.829-2.662,1.239-2.511,0.828c0.151-0.411-0.291-0.221,0.318-0.693
			c0,0-1.453,1.021-0.294,1.047c1.159,0.025,1.391,0.582,0.507,0.647c0,0-0.816,0.497-1.34,0.085
			c-0.525-0.413-0.625-0.653-1.33-0.42s-0.302-0.174,0.079,0.208c0.38,0.381,0.365,0.816-0.152,0.596
			c-0.518-0.219-1.696-0.416-1.105-1.001c0.591-0.585,0.686-1.084-1.048-1.099s2.028,0.269,0.825,0.86
			c-1.202,0.591-2.044,0.986-1.239,0.994c0.806,0.008,1.727-0.178,1.568,0.225c-0.16,0.404-0.83,1.054-1.254,0.881
			c-0.424-0.172-0.122-0.272-0.639-0.492s-1.066,0.703-1.208-0.422c-0.141-1.124,2.268-1.021-0.839-1.245s-2.753-0.888-1.464-1.625
			c1.29-0.737-2.433,0.685-1.939,1.966c0.494,1.282,1.293,1.096,2.401,0.731c1.109-0.365,2.108-0.07,1.676,0.385
			c-0.433,0.454-0.722,0.939-0.146,0.789c0.576-0.15,1.661,0.272,0.769,0.41c-0.893,0.138-1.215-0.068-1.532,0.193
			c-0.317,0.26,0.222,0.238-0.066,0.451c-0.289,0.212-1.25-0.485-1.518-0.242c-0.267,0.244,0.015-0.161,0.079,0.208
			c0.063,0.369,0.113,0.899-0.757,0.522c-0.869-0.376-1.38-0.404-1.69-0.223c-0.31,0.18,0.695,1.488,0.085,0.674
			c-0.61-0.813,0.577-0.697-0.076-1.575s-0.861-1.004-0.654-0.331c0.207,0.674,1.005,0.762,0.221,1.059
			c-0.785,0.298-2.016,0.665-1.203,0.865c0.812,0.201,1.288-0.19,1.302,0.195s-0.627,0.441-0.627,0.441s-0.662,0.023-0.374,0.084
			c0.287,0.061,0.633,0.025,0.633,0.025s4.275-1.331,5.096-1.484c0.82-0.154,1.187,0.116,1.562-0.242
			c0.375-0.358,0.763-0.33,0.763-0.33s0.316,0.286,0.705,0.041c0.389-0.245-0.043-0.063,0.389-0.245
			c0.432-0.181,0.504-0.166,0.95-0.235c0.446-0.069,0.259-0.164,0.72-0.394c0.461-0.23,0.57-0.617,1.375-0.609
			c0.806,0.008,1.064,0.118,1.36-0.175c0.295-0.292,3.089-1.447,3.83-1.535s0.511,0.027,1,0.022
			c0.489-0.005,0.949,0.038,0.885-0.332s-0.143-0.577,0.267-0.517c0.41,0.06,1.131-0.606,1.721-0.646
			c0.59-0.038,0.799-0.185,1.296-0.543c0.497-0.359,1.871-0.695,2.173-0.522c0.302,0.174,0.553,0.638,0.927,0.28
			c0.375-0.357,1.542-0.82,1.973-1.001c0.433-0.182,4.37-1.558,5.018-1.693c0.647-0.135,2.044-0.439,2.11-0.89
			c0.065-0.451-0.221-1.059-0.933-1.02c-0.712,0.04-1.864,0.341-1.841-0.173c0.023-0.515-0.764,0.603,0.114,0.626
			c0.878,0.022,2.639,0.535,1.898,0.624c-0.741,0.088-0.201,0.066-1.201,0.044s-1.05-0.005-0.993,0.171
			c0.057,0.176-1.24,0.994-1.288-0.083c-0.048-1.077,0.197-1.353-0.587-1.329c-0.784,0.025-1.589-0.256-0.749,0.169
			s1.552,0.659,0.63,1.119c-0.921,0.46,0.444,0.751-0.771,0.957c-1.216,0.206-1.857,0.807-1.648,0.114
			c0.21-0.693,0.9,0.055,0.21-0.693c-0.689-0.749-1.999-0.317-1.805-0.303c0.194,0.014,1.919,0.655,1.012,0.954
			c-0.907,0.299-0.38-0.108-0.79-0.442c-0.409-0.333-0.749-0.104-1.101,0.012C74.122,16.464,75.389,16.2,75.144,16.497z"/>
		<path opacity="0.55" fill="#F4E833"  a:adobe-blending-mode="overlay" d="M53.986,22.584c0,0-0.834,0.391-1.326,0.199
			c-0.491-0.193-0.812-0.55-0.767-0.941c0.045-0.391,0.011-0.656,0.326-0.902c0.314-0.246,1.394-0.916,1.394-0.916
			s-1.492,0.723-1.431,1.28c0.06,0.557,0.606,1.449,1.65,1.018s1.862-0.024,1.885,0.153C55.718,22.475,55.007,21.976,53.986,22.584z
			"/>
		<path fill="#F4E833" d="M62.198,16.727c0,0-3.953,3.005-3.169,3.519s3.333,0.067,3.333,0.067S56.299,21.513,62.198,16.727z"/>
		<path opacity="0.57" fill="#F4E833"  a:adobe-blending-mode="overlay" d="M65.324,16.577c0,0,2.214-0.262,2.146,0.324
			c-0.067,0.587-1.656,2.36,0.457,2.419c0,0-1.74,0.136-1.534-0.391c0.207-0.528,1.092-1.824,0.808-2.172
			S65.324,16.577,65.324,16.577z"/>
		<path fill="#F4E833"  a:adobe-blending-mode="softLight" d="M64.307,19.534c0,0,0.874,0.105,1.11,0.357
			c0.236,0.251,1.432,1.085,2.388,0.806c0.957-0.279,1.008-0.439,1.008-0.439s-1.402,1.184-2.512,0.455S65.221,19.762,64.307,19.534
			z"/>
		<path fill="#E6AC4A"  a:adobe-blending-mode="multiply" d="M56.568,24.893c0.248-0.293,0.791-0.474,1.273-0.412
			c0.489,0.063,0.258,0.084,0.567-0.16c0.211-0.168,0.416-0.08,0.705-0.141c0.2-0.042,0.536-0.162,0.679-0.247
			c0.194-0.115,0.342-0.332,0.546-0.447c0.207-0.117,0.441-0.194,0.683-0.28c0.227-0.08,0.437-0.07,0.658-0.122
			c0.038-0.009,0.143,0.008,0.189,0.008c0.001-0.01,0.018-0.063,0.023-0.071c-0.267-0.156-0.604-0.176-0.871-0.317
			c-0.229-0.122-0.404-0.316-0.662-0.394c0.242,0.02,0.511,0.291,0.542,0.463c0.049,0.264-0.203,0.262-0.424,0.363
			c-0.191,0.087-0.308,0.314-0.654,0.203c-0.265-0.085-0.317-0.294-0.704-0.355c0.437,0.188,0.748,0.69,0.319,0.925
			c-0.596-0.083-0.813,0.239-1.398,0.221c-0.022,0.066-0.109,0.114-0.114,0.195c-0.283,0.013-0.416-0.146-0.681-0.177
			c-0.042-0.167,0.175-0.316,0.073-0.467c-0.09-0.134-0.437-0.202-0.588-0.162c0.304,0.038,0.38,0.165,0.399,0.351
			c0.011,0.107,0.01,0.417-0.047,0.5c-0.411,0.006-0.476,0.247-0.731,0.367c-0.41,0.192-0.58-0.111-0.968-0.068
			c-0.128,0.314-0.147,0.526-0.646,0.549c-0.463,0.021-0.817-0.159-1.187-0.353c0.299,0.052,0.645,0.33,0.762,0.517
			c0.176,0.282,0.166,0.608,0.688,0.314c0.279-0.157,0.354-0.436,0.657-0.55c0.302-0.113,0.801,0.069,0.887-0.282
			c0.048,0.014,0.051-0.002,0.077-0.017"/>
		<path fill="#E6AC4A"  a:adobe-blending-mode="multiply" d="M62.356,22.946c0.315,0.061,0.515-0.238,0.765-0.327
			c0.248-0.087,0.723-0.184,0.604-0.493c-0.165-0.426-1.972-0.275-1.704-0.733c-0.028,0.473,1.21,0.302,1.527,0.41
			c0.244,0.083,0.374,0.447,0.67,0.383c0.374-0.08,0.067-0.418,0.146-0.573c0.425,0.063,1.05-0.08,1.375-0.284
			c0.677-0.423-0.183-0.57-0.194-0.972c0.057,0.35,0.985,0.564,0.794,0.875c0.257,0.077,0.286-0.131,0.478-0.157
			c0.213-0.027,0.449,0.11,0.665,0.118c0.095,0.003,0.206-0.073,0.308-0.073c0.108,0,0.222,0.07,0.333,0.068
			c0.211-0.001,0.398-0.019,0.379-0.221c-0.229-0.114-0.114-0.422,0.05-0.518c0.07-0.042,0.279-0.017,0.391-0.072
			c0.124-0.062,0.202-0.128,0.217-0.241c-0.247-0.182-0.604-0.346-0.713-0.607c0.187,0.187,0.167,0.332,0.451,0.458
			c0.127,0.057,0.84,0.225,0.648,0.423c-0.069,0.071-0.599-0.046-0.755,0.042c-0.254,0.143-0.032,0.227-0.024,0.451
			c0.021,0.621-0.822,0.36-1.264,0.463c-0.139,0.032-0.066,0.101-0.264,0.122c-0.139,0.015-0.271-0.05-0.424-0.028
			c-0.248,0.035-0.532,0.171-0.775,0.232c-0.408,0.102-0.851,0.208-1.207,0.381c-0.165,0.081-0.26,0.21-0.426,0.288
			c-0.201,0.094-0.376,0.082-0.546,0.166c-0.073,0.037-0.083,0.125-0.16,0.165c-0.102,0.053-0.194,0.033-0.301,0.071
			c-0.214,0.077-0.247,0.137-0.418,0.238c-0.287,0.168-0.992,0.265-0.944-0.15c0.169,0.035,0.292,0.092,0.467,0.125"/>
		<path fill="#E6AC4A"  a:adobe-blending-mode="multiply" d="M69.9,20.065c0.347-0.159,1.07-0.679,0.966-1.049
			c-0.172-0.612-1.005,0.085-1.356-0.043c0.373-0.091,0.726-0.379,1.139-0.37c0.789,0.017,0.452,0.534,0.287,0.825
			c0.207,0.058,0.467-0.036,0.498-0.198c0.229,0.064,0.249-0.12,0.278-0.254c0.426,0.086,0.819,0.036,0.852-0.359
			c-0.296-0.133-0.938-0.189-1.108-0.42c0.263,0.203,0.859,0.236,1.214,0.33c-0.016,0.053,0.027,0.103,0,0.162
			c0.359,0.091,0.606,0.138,0.652-0.193c0.271,0.047,0.515,0.072,0.777,0.022c0.185-0.035,0.409-0.214,0.618-0.045
			c0.11,0.088-0.112,0.376,0.253,0.408c0.313,0.026,0.303-0.282,0.124-0.403c0.551-0.058,0.27-0.602,0.4-0.853
			c0.204,0.01,0.351-0.085,0.34-0.242c-0.148-0.06-0.281-0.144-0.428-0.212c1.051,0.132,0.227,0.668,0.067,1.013
			c0.392,0.188,0.731,0.083,1.055-0.08c0.258-0.129,0.238-0.098,0.54-0.113c0.19-0.009,0.352,0.027,0.476-0.125
			c0.479-0.587-2.098-0.287-0.839-0.868c-0.058,0.059-0.066,0.158-0.099,0.23c0.458,0.19,0.952,0.141,1.443,0.265
			c-0.012,0.386-0.895,0.492-1.278,0.633c-0.247,0.092-0.47,0.151-0.637,0.32c-0.082,0.084-0.115,0.199-0.205,0.269
			c-0.098,0.076-0.255,0.066-0.326,0.122c-0.206,0.167-0.175,0.511-0.599,0.53c-0.387,0.017-0.345-0.251-0.58-0.378
			c-0.402-0.219-0.537,0.028-0.853,0.068c-0.151,0.019-0.311-0.095-0.408-0.085c-0.1,0.009-0.266,0.121-0.365,0.158
			c-0.228,0.083-0.617,0.032-0.786,0.143c-0.274,0.179-0.024,0.413-0.501,0.536c-0.563,0.145-1.097-0.202-1.561,0.212"/>
		<path opacity="0.57" fill="#F4E833"  a:adobe-blending-mode="overlay" d="M69.338,12.569c0.945,0.705,2.809,1.396,2.514,2.523
			c-0.095,0.367-0.247,0.585-0.525,0.863c-0.18,0.18-0.618,0.476-0.563,0.738c0.089,0.419,1.662,1.132,2.111,0.821
			c-0.004,0.003,0.143-0.001,0.052,0.002c-0.605-0.116-2.1-0.642-1.674-1.252c0.066,0.061,0.18,0.093,0.244,0.151
			c0.102-0.347,0.197-0.616,0.658-0.771c-0.126,0.271-0.039,0.628,0.248,0.851c0.069-0.387-0.237-0.785-0.131-1.227
			c0.112-0.472,0.194-0.666-0.23-1.091c-0.697-0.701-1.844-0.918-2.629-1.464"/>
		<path fill="#E6AC4A"  a:adobe-blending-mode="multiply" d="M78.507,17.443c0.099-0.478,0.488-0.214,0.83-0.366
			c0.416-0.186,0.125-0.466,0.184-0.785c0.058-0.318,0.35-0.683,0.322-1.006c-0.038-0.437-0.43-0.269-0.688-0.613
			c0.757,0.067,0.88,0.264,0.748,0.798c-0.073,0.296-0.438,1.299,0.47,1.129c0.292,0.357,0.769-0.047,0.974-0.137
			c0.281-0.124,1.08-0.202,0.772-0.5c0.615,0.109,2.27,0.207,1.871-0.536c-0.426-0.79-1.705-0.413-2.5-0.651
			c0.42-0.007,0.862,0.125,1.332,0.085c0.361-0.031,0.847-0.119,1.138,0.15c0.204,0.189,0.159,0.719-0.051,0.905
			c-0.234,0.207-0.832,0.157-1.141,0.275c-0.349,0.134-0.56,0.427-0.97,0.54c-0.359,0.099-0.761,0.061-1.124,0.185
			c-0.366,0.124-1.81,1.002-2.142,0.587C78.509,17.486,78.501,17.466,78.507,17.443"/>
	</g>
	<path opacity="0.22"  a:adobe-blending-mode="multiply" d="M84.825,17.904c0.408,0.386,0.992-0.239,1.438-0.368
		c0.245-0.07,0.495-0.205,0.771-0.208c0.346-0.002,0.723,0.138,1.08,0.105c0.318-0.028,0.525-0.271,0.82-0.333
		c0.161-0.033,0.328,0.067,0.482,0.038c0.162-0.031,0.251-0.15,0.372-0.19c0.379-0.126,1.264-0.253,1.421-0.658
		c0.891-0.01,1.432,0.468,2.324,0.06c0.897-0.41,0.958-1.138,1.127-2.033c0.123,0.4,0.452,1.034,0.103,1.558
		c-0.292,0.439-1.009,0.668-1.457,0.813c-0.489,0.158-1.192,0.131-1.604,0.458c-0.188,0.151-0.245,0.525-0.47,0.647
		c-0.261,0.14-0.662-0.013-0.947-0.051c-0.219,0.635-0.703,0.404-1.225,0.413c-0.506,0.009-0.979,0.204-1.462,0.332
		c-0.074,0.466-0.427,0.56-0.826,0.595c-0.263,0.023-0.241-0.073-0.491,0.017c-0.116,0.042-0.245,0.225-0.392,0.291
		c-0.834,0.375-0.917-0.849-1.189-1.401"/>
	<path opacity="0.22"  a:adobe-blending-mode="multiply" d="M74.324,7.217c0.461,0.271,0.87-0.436,1.255-0.652
		c0.212-0.118,0.416-0.297,0.672-0.358c0.32-0.077,0.7-0.028,1.024-0.135c0.289-0.095,0.43-0.365,0.689-0.485
		c0.142-0.065,0.32-0.009,0.456-0.069c0.145-0.064,0.201-0.194,0.305-0.257c0.325-0.199,1.119-0.508,1.179-0.917
		c0.825-0.202,1.43,0.126,2.171-0.446c0.745-0.574,0.645-1.263,0.608-2.131c0.201,0.345,0.643,0.863,0.432,1.424
		c-0.176,0.47-0.793,0.837-1.178,1.068c-0.42,0.252-1.079,0.378-1.389,0.772c-0.144,0.18-0.115,0.54-0.298,0.702
		c-0.211,0.187-0.617,0.131-0.89,0.158c-0.066,0.637-0.566,0.527-1.049,0.648c-0.468,0.117-0.866,0.399-1.287,0.623
		c0.032,0.448-0.275,0.612-0.639,0.73c-0.239,0.078-0.239-0.016-0.452,0.122c-0.099,0.064-0.179,0.262-0.301,0.354
		c-0.694,0.529-1.034-0.591-1.407-1.044"/>
	<path opacity="0.12"  a:adobe-blending-mode="multiply" d="M33.123,34.549l-8.914,1.865l6.799-0.406l2.37-0.283
		C33.378,35.724,33.997,35.081,33.123,34.549z"/>
</g>
<g>
	<linearGradient id="SVGID_3_" gradientUnits="userSpaceOnUse" x1="7.209" y1="26.561" x2="7.3512" y2="34.2347">
		<stop  offset="0" style="stop-color:#7C2B89"/>
		<stop  offset="1" style="stop-color:#000000"/>
		<a:midPointStop  offset="0" style="stop-color:#7C2B89"/>
		<a:midPointStop  offset="0.5" style="stop-color:#7C2B89"/>
		<a:midPointStop  offset="1" style="stop-color:#000000"/>
	</linearGradient>
	<path fill="url(#SVGID_3_)" d="M14.418,27.196c-0.21,2.51-1.084,4.523-2.621,6.04c-1.48,1.463-3.202,2.112-5.165,1.948
		c-1.636-0.137-2.911-0.49-3.825-1.056C1.78,33.494,0.844,32.396,0,30.837l2.894-6.458c0.376,0.854,0.965,1.58,1.765,2.176
		c0.8,0.596,1.631,0.93,2.495,1.002c0.537,0.045,0.979-0.04,1.326-0.256c0.347-0.216,0.542-0.576,0.585-1.082
		c0.101-1.207-0.417-2.181-1.554-2.922c-1.072-0.58-2.136-1.168-3.193-1.767c-1.144-0.82-1.656-1.931-1.539-3.332
		c0.131-1.556,0.795-2.725,1.994-3.506c0.934-0.607,2.23-0.989,3.891-1.143c1.128-0.101,2.412-0.092,3.852,0.029l-0.364,4.348
		c-0.75-0.494-1.318-0.826-1.706-0.996c-0.388-0.169-0.758-0.269-1.112-0.299c-0.432-0.036-0.769,0.058-1.012,0.283
		c-0.243,0.225-0.388,0.609-0.433,1.154c-0.013,0.156,0.663,0.418,2.029,0.788c1.366,0.369,2.412,1.015,3.139,1.938
		C14.204,22.222,14.657,24.356,14.418,27.196z"/>
	<linearGradient id="SVGID_4_" gradientUnits="userSpaceOnUse" x1="18.1143" y1="26.3589" x2="18.2564" y2="34.0325">
		<stop  offset="0" style="stop-color:#7C2B89"/>
		<stop  offset="1" style="stop-color:#000000"/>
		<a:midPointStop  offset="0" style="stop-color:#7C2B89"/>
		<a:midPointStop  offset="0.5" style="stop-color:#7C2B89"/>
		<a:midPointStop  offset="1" style="stop-color:#000000"/>
	</linearGradient>
	<path fill="url(#SVGID_4_)" d="M22.89,29.081c-0.413,0.595-0.855,1.053-1.326,1.374c-0.472,0.32-1.034,0.538-1.688,0.651
		c-1.493,0.26-2.852-0.117-4.077-1.132c-1.226-1.014-1.989-2.385-2.29-4.113c-0.316-1.818-0.167-3.415,0.446-4.79
		c0.654-1.463,1.679-2.316,3.073-2.559c0.566-0.098,0.973-0.148,1.219-0.151c0.247-0.002,0.611,0.06,1.093,0.185l0.825,4.743
		c-0.28-0.126-0.611-0.155-0.992-0.089c-0.523,0.091-0.955,0.305-1.294,0.644s-0.468,0.745-0.385,1.219
		c0.067,0.384,0.304,0.68,0.71,0.889c0.407,0.208,0.871,0.267,1.395,0.176c0.272-0.047,0.507-0.132,0.705-0.254
		s0.347-0.313,0.447-0.575L22.89,29.081z"/>
	<linearGradient id="SVGID_5_" gradientUnits="userSpaceOnUse" x1="26.9624" y1="26.1953" x2="27.1046" y2="33.8686">
		<stop  offset="0" style="stop-color:#7C2B89"/>
		<stop  offset="1" style="stop-color:#000000"/>
		<a:midPointStop  offset="0" style="stop-color:#7C2B89"/>
		<a:midPointStop  offset="0.5" style="stop-color:#7C2B89"/>
		<a:midPointStop  offset="1" style="stop-color:#000000"/>
	</linearGradient>
	<path fill="url(#SVGID_5_)" d="M32.281,25.43c0,0.539-0.097,1.163-0.291,1.871c-0.315,1.142-0.794,2.056-1.437,2.743
		c-0.885,0.94-2.019,1.411-3.401,1.411c-1.552,0-2.861-0.544-3.928-1.633c-1.067-1.088-1.601-2.399-1.601-3.932
		c0-1.712,0.497-3.167,1.491-4.361c1.055-1.268,2.401-1.902,4.038-1.902c1.467,0,2.689,0.565,3.665,1.697
		S32.281,23.824,32.281,25.43z M28.953,24.295c0-0.35-0.133-0.651-0.4-0.905c-0.267-0.254-0.589-0.381-0.964-0.381
		c-0.533,0-1.024,0.19-1.473,0.571c-0.509,0.434-0.764,0.99-0.764,1.667c0,0.392,0.13,0.718,0.391,0.977
		c0.261,0.259,0.591,0.389,0.992,0.389c0.509,0,1.006-0.254,1.491-0.762C28.71,25.343,28.953,24.824,28.953,24.295z"/>
	<linearGradient id="SVGID_6_" gradientUnits="userSpaceOnUse" x1="37.0479" y1="26.0088" x2="37.19" y2="33.6823">
		<stop  offset="0" style="stop-color:#7C2B89"/>
		<stop  offset="1" style="stop-color:#000000"/>
		<a:midPointStop  offset="0" style="stop-color:#7C2B89"/>
		<a:midPointStop  offset="0.5" style="stop-color:#7C2B89"/>
		<a:midPointStop  offset="1" style="stop-color:#000000"/>
	</linearGradient>
	<path fill="url(#SVGID_6_)" d="M42.385,28.386l-3.352,5.352l-3.908-6.167l-0.905,5.515h-2.272l-0.349-15.59
		c0.423-0.378,0.95-0.673,1.58-0.885c0.63-0.211,1.29-0.317,1.978-0.317c1.44,0,2.611,0.394,3.511,1.18
		c0.963,0.848,1.445,2.013,1.445,3.495c0,0.893-0.196,1.713-0.587,2.462c-0.392,0.749-0.948,1.411-1.668,1.986L42.385,28.386z
		 M36.491,22.17c0-0.454-0.138-0.847-0.413-1.18c-0.275-0.333-0.588-0.499-0.937-0.499c-0.19,0-0.376,0.077-0.556,0.229l0.366,3.401
		c0.126,0,0.216,0,0.27,0c0.339,0,0.636-0.189,0.89-0.567C36.364,23.176,36.491,22.715,36.491,22.17z"/>
	<linearGradient id="SVGID_7_" gradientUnits="userSpaceOnUse" x1="45.1641" y1="25.8579" x2="45.3062" y2="33.5321">
		<stop  offset="0" style="stop-color:#7C2B89"/>
		<stop  offset="1" style="stop-color:#000000"/>
		<a:midPointStop  offset="0" style="stop-color:#7C2B89"/>
		<a:midPointStop  offset="0.5" style="stop-color:#7C2B89"/>
		<a:midPointStop  offset="1" style="stop-color:#000000"/>
	</linearGradient>
	<path fill="url(#SVGID_7_)" d="M50.431,28.877c-0.479,0.558-0.987,0.993-1.523,1.305c-0.537,0.312-1.171,0.534-1.904,0.667
		c-1.673,0.303-3.177,0.022-4.513-0.841c-1.336-0.863-2.144-2.071-2.425-3.622c-0.296-1.633-0.08-3.086,0.648-4.359
		c0.776-1.356,1.946-2.175,3.509-2.458c0.635-0.115,1.09-0.179,1.365-0.192s0.679,0.026,1.213,0.118l0.771,4.26
		c-0.309-0.102-0.677-0.113-1.104-0.036c-0.586,0.106-1.074,0.32-1.463,0.642c-0.39,0.322-0.546,0.696-0.469,1.122
		c0.063,0.345,0.317,0.602,0.764,0.772c0.447,0.17,0.964,0.203,1.55,0.097c0.305-0.055,0.57-0.143,0.794-0.262
		s0.396-0.299,0.517-0.541L50.431,28.877z"/>
	<linearGradient id="SVGID_8_" gradientUnits="userSpaceOnUse" x1="53.3604" y1="25.7061" x2="53.5025" y2="33.3799">
		<stop  offset="0" style="stop-color:#7C2B89"/>
		<stop  offset="1" style="stop-color:#000000"/>
		<a:midPointStop  offset="0" style="stop-color:#7C2B89"/>
		<a:midPointStop  offset="0.5" style="stop-color:#7C2B89"/>
		<a:midPointStop  offset="1" style="stop-color:#000000"/>
	</linearGradient>
	<path fill="url(#SVGID_8_)" d="M57.602,14.187l-1.105,18.304l-3.203-0.923l0.283-6.458l-2.155,1.153l0.425,6.733l-2.707-1.665
		l-0.411-15.088l2.977-1.025v5.971h1.942l1.035-8.053L57.602,14.187z"/>
	<linearGradient id="SVGID_9_" gradientUnits="userSpaceOnUse" x1="60.3989" y1="25.5762" x2="60.5411" y2="33.2498">
		<stop  offset="0" style="stop-color:#7C2B89"/>
		<stop  offset="1" style="stop-color:#000000"/>
		<a:midPointStop  offset="0" style="stop-color:#7C2B89"/>
		<a:midPointStop  offset="0.5" style="stop-color:#7C2B89"/>
		<a:midPointStop  offset="1" style="stop-color:#000000"/>
	</linearGradient>
	<path fill="url(#SVGID_9_)" d="M63.702,19.299l0.355,4.086l-4.686,0.653l0.129,1.183l2.601-0.362l0.153,1.397L60.2,26.638
		l0.119,1.09l3.914-0.351l0.481,1.999l-7.098,2.053l-1.551-10.732L63.702,19.299z"/>
	<linearGradient id="SVGID_10_" gradientUnits="userSpaceOnUse" x1="68.9834" y1="25.4165" x2="69.1256" y2="33.0898">
		<stop  offset="0" style="stop-color:#7C2B89"/>
		<stop  offset="1" style="stop-color:#000000"/>
		<a:midPointStop  offset="0" style="stop-color:#7C2B89"/>
		<a:midPointStop  offset="0.5" style="stop-color:#7C2B89"/>
		<a:midPointStop  offset="1" style="stop-color:#000000"/>
	</linearGradient>
	<path fill="url(#SVGID_10_)" d="M74.459,26.088c0.05,1.453-0.663,2.73-2.14,3.833c-1.437,1.07-3.09,1.639-4.961,1.703
		c-0.348,0.012-0.681,0.003-0.999-0.027s-0.618-0.087-0.896-0.17l-2.017-9.908c0.582-0.361,1.254-0.66,2.019-0.898
		c0.765-0.237,1.54-0.37,2.328-0.397c1.748-0.061,3.161,0.262,4.24,0.967c0.869,0.568,1.511,1.371,1.925,2.409
		C74.262,24.362,74.429,25.192,74.459,26.088z M71.199,25.458c0.017-0.104,0.023-0.207,0.02-0.31
		c-0.012-0.34-0.165-0.607-0.458-0.804c-0.451-0.304-1.203-0.438-2.256-0.401l0.334,3.438c0.633-0.022,1.19-0.219,1.668-0.592
		S71.216,25.974,71.199,25.458z"/>
</g>
<linearGradient id="SVGID_11_" gradientUnits="userSpaceOnUse" x1="37.1963" y1="19.2183" x2="37.6226" y2="29.8762">
	<stop  offset="0.0368" style="stop-color:#F5EC49"/>
	<stop  offset="0.375" style="stop-color:#EBC04A"/>
	<stop  offset="0.5031" style="stop-color:#E7AE4A"/>
	<stop  offset="0.8896" style="stop-color:#7D2B8A"/>
	<stop  offset="1" style="stop-color:#662370"/>
	<a:midPointStop  offset="0.0368" style="stop-color:#F5EC49"/>
	<a:midPointStop  offset="0.5211" style="stop-color:#F5EC49"/>
	<a:midPointStop  offset="0.5031" style="stop-color:#E7AE4A"/>
	<a:midPointStop  offset="0.5" style="stop-color:#E7AE4A"/>
	<a:midPointStop  offset="0.8896" style="stop-color:#7D2B8A"/>
	<a:midPointStop  offset="0.5" style="stop-color:#7D2B8A"/>
	<a:midPointStop  offset="1" style="stop-color:#662370"/>
</linearGradient>
<path fill="url(#SVGID_11_)" stroke="#F5EC49" stroke-width="0.2132" stroke-miterlimit="10" d="M7.505,34.214
	c-0.175,0-0.354-0.007-0.534-0.022c-1.526-0.128-2.718-0.452-3.542-0.962c-0.867-0.536-1.684-1.47-2.43-2.779l2.256-5.034
	c0.358,0.481,0.795,0.915,1.306,1.295c0.894,0.666,1.844,1.044,2.824,1.127c0.111,0.009,0.219,0.014,0.324,0.014
	c0.536,0,1.004-0.123,1.393-0.364c0.362-0.225,0.81-0.68,0.885-1.572c0.12-1.433-0.517-2.647-1.842-3.511l-0.022-0.014L8.1,22.378
	c-1.06-0.573-2.12-1.159-3.151-1.743c-0.937-0.684-1.345-1.58-1.248-2.74c0.114-1.361,0.672-2.351,1.706-3.024
	c0.842-0.547,2.053-0.898,3.602-1.042c0.492-0.044,1.025-0.066,1.583-0.066c0.48,0,0.989,0.017,1.519,0.049l-0.223,2.655
	c-0.359-0.214-0.656-0.372-0.9-0.479c-0.451-0.197-0.893-0.315-1.314-0.35c-0.079-0.007-0.155-0.01-0.228-0.01
	c-0.514,0-0.942,0.155-1.272,0.46c-0.368,0.341-0.576,0.854-0.636,1.57c-0.055,0.66,0.544,0.93,2.5,1.458
	c1.224,0.331,2.167,0.909,2.803,1.717c0.21,0.262,0.397,0.559,0.56,0.887l0.706,1.428l0.478-1.52
	c0.082-0.259,0.158-0.466,0.241-0.653c0.567-1.268,1.417-1.984,2.598-2.189c0.658-0.115,0.97-0.141,1.116-0.142
	c0.082,0,0.241,0.011,0.529,0.071l0.602,3.46c-0.104,0.006-0.211,0.02-0.32,0.038c-0.653,0.114-1.203,0.39-1.635,0.821
	c-0.487,0.485-0.683,1.101-0.564,1.781c0.07,0.406,0.309,0.969,1.048,1.348c0.374,0.191,0.786,0.288,1.226,0.288
	c0.184,0,0.375-0.017,0.57-0.051c0.351-0.061,0.664-0.175,0.93-0.339c0.003-0.002,0.005-0.003,0.008-0.005l0.527,0.932l1.185-0.437
	c-0.063-0.326-0.096-0.669-0.096-1.019c0-1.573,0.44-2.865,1.344-3.951c0.936-1.125,2.096-1.672,3.546-1.672
	c1.284,0,2.324,0.482,3.181,1.475c0.328,0.38,0.598,0.796,0.801,1.237l1.219-0.283l-0.109-4.902c0.318-0.236,0.7-0.43,1.138-0.577
	c0.562-0.188,1.158-0.284,1.774-0.284c1.292,0,2.303,0.334,3.09,1.022c0.825,0.726,1.227,1.711,1.227,3.013
	c0,0.784-0.173,1.512-0.515,2.166c-0.349,0.667-0.854,1.266-1.5,1.782l-0.69,0.551l4.505,2.956l-0.462-1.646
	c-0.046-0.163-0.085-0.333-0.116-0.505c-0.271-1.494-0.083-2.778,0.574-3.928c0.684-1.194,1.687-1.896,3.068-2.146
	c0.753-0.136,1.113-0.174,1.282-0.183c0.025-0.001,0.051-0.001,0.079-0.001c0.146,0,0.332,0.015,0.556,0.044l0.539,2.978
	c-0.141,0.009-0.288,0.027-0.438,0.054c-0.692,0.125-1.283,0.387-1.757,0.778c-0.722,0.596-0.774,1.269-0.69,1.729
	c0.072,0.397,0.333,0.938,1.165,1.256c0.348,0.132,0.729,0.199,1.134,0.199c0.242,0,0.497-0.024,0.758-0.071
	c0.369-0.067,0.698-0.176,0.98-0.326c0.048-0.026,0.095-0.053,0.141-0.083l1.597,2.345l-0.927,0.601l-0.073,0.049
	c-0.033,0.021-0.065,0.044-0.099,0.063c-0.469,0.272-1.04,0.471-1.695,0.59c-0.396,0.071-0.784,0.108-1.156,0.108
	c-1.057,0-2.004-0.28-2.896-0.856c-0.241-0.155-0.469-0.33-0.679-0.518l-0.565-0.509l-2.565,4.095l-4.264-6.728L33.96,32.09h-1.104
	l-0.104-4.643l-1.244-0.193c-0.279,0.817-0.662,1.489-1.138,1.998c-0.764,0.813-1.725,1.208-2.934,1.208
	c-1.386,0-2.521-0.472-3.472-1.441c-0.148-0.15-0.291-0.315-0.425-0.489l-0.516-0.669l-0.504,0.678
	c-0.328,0.441-0.675,0.788-1.032,1.031c-0.394,0.267-0.878,0.453-1.438,0.55c-0.267,0.047-0.531,0.07-0.787,0.07
	c-1,0-1.907-0.349-2.773-1.064c-0.552-0.457-1.005-1.002-1.348-1.622l-0.894-1.618l-0.297,1.825
	c-0.312,1.917-1.092,3.503-2.32,4.715C10.415,33.629,9.065,34.214,7.505,34.214z M27.873,22.014c-0.687,0-1.321,0.244-1.887,0.724
	c-0.657,0.56-0.989,1.285-0.989,2.155c0,0.559,0.201,1.053,0.58,1.43c0.377,0.375,0.876,0.575,1.442,0.575
	c0.688,0,1.346-0.323,1.954-0.96c0.6-0.629,0.904-1.301,0.904-1.998c0-0.522-0.207-0.995-0.598-1.368
	C28.896,22.207,28.41,22.014,27.873,22.014z M35.425,19.496c-0.347,0-0.673,0.129-0.971,0.383l-0.257,0.219l0.463,4.308h0.845
	c0.387,0,0.948-0.147,1.42-0.85c0.325-0.483,0.49-1.069,0.49-1.741c0-0.604-0.188-1.138-0.56-1.587
	C36.354,19.623,35.801,19.496,35.425,19.496z M50.054,30.613l-0.055-2.007L49.665,16.34l1.685-0.58v5.713h3.144l1.005-7.821
	l1.72,0.618l-0.4,6.634l6.591-1.206l0.194,2.239l0.854-0.453c0.444-0.235,0.942-0.44,1.482-0.608c0.707-0.22,1.434-0.344,2.16-0.369
	c0.13-0.005,0.259-0.007,0.386-0.007c1.427,0,2.599,0.292,3.481,0.87c0.764,0.5,1.314,1.19,1.682,2.111
	c0.274,0.69,0.428,1.455,0.456,2.273c0.042,1.241-0.573,2.32-1.883,3.298c-1.323,0.986-2.871,1.517-4.601,1.577
	c-0.09,0.003-0.18,0.005-0.269,0.005c-0.222,0-0.44-0.01-0.648-0.029c-0.141-0.014-0.278-0.033-0.41-0.059l-1.669-8.202
	l-5.672,0.791l0.269,2.455l2.601-0.363l0.017,0.153l-2.055,0.38l0.252,2.304l3.988-0.357l0.209,0.868l-5.805,1.679l-0.639-4.421
	l-1.271,0.053L56.191,31.3l-1.953-0.563l0.311-7.076l-3.507,1.877l0.374,5.912L50.054,30.613z M69.115,22.942
	c-0.112,0-0.228,0.002-0.348,0.006l-0.68,0.023l0.458,4.714l0.601-0.021c0.768-0.026,1.454-0.271,2.039-0.726
	c0.773-0.602,0.941-1.297,0.938-1.795c0.017-0.125,0.023-0.25,0.019-0.373c-0.019-0.547-0.275-1-0.741-1.313
	C70.886,23.111,70.138,22.942,69.115,22.942z"/>
<g>
	<path fill="none" d="M64.277,37.744c1.596-0.559,3.268-1.325,3.105-2.176c-0.017-0.086-0.112-0.098-0.224-0.077
		c-0.72,0.138-2.959,2.087-2.929,2.246C64.232,37.752,64.232,37.752,64.277,37.744z"/>
	<path fill="none" stroke="#000000" stroke-width="0.6395" d="M39.197,38.716c-0.066-0.302-0.102-0.595-0.099-0.849
		c6-1.315,7.759-2.712,7.427-4.223c-0.428-1.941-5.22-3.078-9.292-2.397c-0.73,0.122-1.366,0.541-1.29,0.886
		c0.061,0.273,0.235,0.274,1.162,0.253c0.231-0.009,0.406-0.008,0.416,0.035c0.003,0.015,0.006,0.029-0.09,0.119
		c-0.691,0.697-0.686,3.365-0.633,5.324c-0.163,0.057-0.405,0.142-0.345,0.416c0.032,0.144,0.269,0.164,0.475,0.174
		c0.004,0.417,0.009,0.967,0.123,1.485c0.085,0.388,0.911,3.265,1.121,3.558c0.041,0.053,0.444,0.03,0.921-0.049
		c0.674-0.113,1.466-0.35,1.432-0.508c-0.01-0.043-0.094-0.163-0.147-0.273C40.278,42.488,39.33,39.32,39.197,38.716z M39.37,32.62
		c1.81-0.109,4.067,0.751,4.314,1.873c0.256,1.165-1.73,2.063-4.694,2.752C38.776,35.745,39.044,33.523,39.37,32.62z"/>
	<path fill="none" stroke="#000000" stroke-width="0.4263" stroke-miterlimit="10" d="M77.08,28.963
		c1.578-0.719,1.813-1.68,1.536-2.362c-0.253-0.624-0.924-1.034-1.425-0.806c-0.777,0.353-1.783,2.336-1.444,3.175
		C75.921,29.398,76.454,29.248,77.08,28.963z"/>
	<g>
		<path fill="none" stroke="#000000" stroke-width="0.6395" d="M85.678,25.179c-0.041-0.216-0.158-0.344-0.383-0.301
			c-0.788,0.15-0.829,1.891-0.723,3.423c0.03,0.158,0.025,0.13,0.039,0.202C85.145,27.878,85.811,25.87,85.678,25.179z"/>
		<path fill="none" stroke="#000000" stroke-width="0.6395" d="M44.525,38.46c1.596-0.559,3.268-1.325,3.105-2.175
			c-0.017-0.086-0.112-0.098-0.225-0.077c-0.72,0.137-2.959,2.087-2.929,2.246C44.479,38.469,44.479,38.469,44.525,38.46z"/>
		<path fill="none" stroke="#000000" stroke-width="0.6395" d="M96.564,29.33c-0.03-0.158-0.229-0.225-0.409-0.191
			c-0.068,0.013-0.152,0.059-0.211,0.115c-0.333,0.332-1.01,0.939-1.195,1.064c0.258-0.722,0.515-1.697,0.353-2.546
			c-0.082-0.432-0.277-0.843-0.644-1.177c-0.087-0.087-0.927-0.092-1.242-0.032c-0.067,0.013-0.11,0.036-0.107,0.05
			c-0.079,0.759-1.759,2.55-2.917,3.707c-0.019,0.013-0.037,0.026-0.051,0.039c-0.691,0.655-1.27,1.288-2.395,1.502
			c-1.822,0.348-2.372-0.458-2.776-2.577c1.011-1.671,1.884-3.57,1.618-4.967c-0.132-0.692-0.621-1.3-1.251-1.18
			c-0.472,0.09-1.03,0.465-1.299,0.77c-1.392,1.625-1.416,3.824-1.069,5.64c0.055,0.288,0.107,0.562,0.179,0.817
			c-0.576,0.644-1.273,1.308-1.662,1.66c0,0.001-0.002,0.001-0.003,0.002c-0.344,0.274-1.315,1.415-2.283,1.6
			c-1.35,0.257-2.09-1.423-2.528-2.744c-0.036-0.067-0.836-0.229-1.376-0.125c-0.158,0.03-0.287,0.084-0.389,0.164
			c-0.717,0.615-2.195,2.116-3.015,2.862c-0.023,0.017-0.048,0.032-0.065,0.055c-0.007,0.008-0.014,0.014-0.021,0.022
			c-0.019,0.017-0.041,0.037-0.059,0.053c-0.052,0.043-0.084,0.084-0.108,0.125c-0.687,0.714-1.403,1.043-2.249,1.205
			c-1.777,0.339-2.362-0.162-2.486-0.81c-0.055-0.288,0.031-0.574,0.366-0.771c1.031-0.571,1.96-1.095,2.676-1.547l0.091,1.259
			c0.633-0.492,1.11-1.805,1.289-2.355c0.062-0.094,0.091-0.179,0.078-0.25c-0.071-0.375-0.734-0.428-1.341-0.312
			c-2.025,0.386-5.096,3.6-6.515,4.96c-0.011,0.01-0.017,0.019-0.026,0.028c-0.003,0.003-0.009,0.005-0.012,0.009
			c-0.776,0.82-1.555,1.506-2.095,1.609c-0.337,0.064-0.58-0.472-1.014-1.285c-0.44-0.842-1.148-1.499-2.206-1.297
			c-1.238,0.236-2.519,1.585-3.422,2.594c0.205-0.637,0.698-2.329,0.539-3.165c-0.066-0.346-0.245-0.55-0.582-0.486
			c-0.112,0.021-0.245,0.062-0.391,0.149c-1.425,0.791-4.213,3.612-5.313,4.655c-0.021,0.014-0.04,0.026-0.063,0.043
			c-0.624,0.521-1.369,1.5-2.764,1.766c-1.327,0.253-1.755-0.278-1.834-0.696c-0.011-0.058-0.024-0.129-0.013-0.191
			c2.974-1.03,4.576-2.411,4.37-3.491c-0.063-0.332-0.568-0.415-1.153-0.303c-1.912,0.364-4.429,2.696-6.102,4.314
			c-0.119,0.112-0.145,0.222-0.128,0.308c0.033,0.173,0.243,0.297,0.423,0.263c0.044-0.009,0.087-0.032,0.126-0.069
			c0.18-0.154,0.548-0.552,0.844-0.833c-0.104,0.184-0.134,0.398-0.09,0.629c0.135,0.707,1.039,1.415,3.108,1.021
			c1.531-0.292,2.689-1.225,3.634-2.212c0.023-0.015,0.045-0.03,0.062-0.046c0.844-0.833,1.907-1.857,3.149-2.557
			c0.127-0.069,0.254-0.138,0.299-0.146c0.045-0.009,0.129,0.065,0.156,0.209c0.122,0.634-0.233,2.567-0.286,3.265
			c-0.023,0.124-0.036,0.305-0.021,0.377c0.036,0.188,0.367,0.214,0.727,0.146c0.405-0.077,0.855-0.283,0.977-0.5
			c0.563-0.958,0.937-2.792,2.984-3.183c0.945-0.18,1.392,0.332,1.882,0.821c0.571,0.548,0.915,0.886,1.792,0.719
			c1.305-0.249,2.047-1.122,2.79-1.876c0.042-0.043,0.077-0.083,0.107-0.122c0.03-0.02,0.061-0.038,0.089-0.064
			c0.353-0.352,0.587-0.59,0.864-0.852c-0.048,0.114-0.049,0.233-0.029,0.333c0.252,1.326,2.295,1.28,3.847,0.984
			c1.342-0.256,2.555-0.945,3.356-1.832c0.033-0.015,0.062-0.035,0.082-0.063c0.88-0.884,1.501-1.421,2.104-1.924
			c0.805,1.534,1.982,2.937,3.286,2.688c1.814-0.346,3.461-1.68,4.248-2.591c0.018-0.012,0.038-0.021,0.053-0.036
			c0.592-0.561,1.134-1.143,1.434-1.409c0.283,1.484,1.293,2.382,3.273,2.005c1.777-0.339,2.642-0.937,4.067-2.389
			c0.001-0.001,0.002-0.003,0.003-0.004c0.573-0.536,1.379-1.431,2.548-2.259c0.084,0.074,0.162,0.238,0.203,0.454
			c0.102,0.533,0.047,1.35-0.108,1.633c-0.087,0.151-0.31,0.208-0.535,0.251c-0.135,0.026-0.295,0.042-0.408,0.063
			c-0.293,0.056-0.313,0.194-0.277,0.381c0.143,0.75,1.05,0.86,1.657,0.744c0.63-0.12,0.694-0.521,0.793-0.733
			c0.392-0.149,1.455-1.173,1.751-1.454C96.523,29.606,96.586,29.445,96.564,29.33z M47.406,36.208
			c0.112-0.021,0.208-0.01,0.225,0.077c0.162,0.85-1.51,1.617-3.105,2.175c-0.045,0.009-0.045,0.009-0.048-0.006
			C44.447,38.296,46.686,36.346,47.406,36.208z M84.572,28.301c-0.106-1.533-0.065-3.273,0.723-3.423
			c0.225-0.043,0.342,0.084,0.383,0.301c0.132,0.691-0.534,2.7-1.067,3.324C84.597,28.431,84.603,28.459,84.572,28.301z"/>
	</g>
	<path fill="#F4EA49" d="M76.852,28.766c1.578-0.718,1.813-1.679,1.536-2.362c-0.253-0.624-0.924-1.035-1.425-0.807
		c-0.777,0.354-1.784,2.337-1.443,3.175C75.693,29.201,76.226,29.051,76.852,28.766z"/>
	<path fill="#F4EA49" d="M38.969,38.519c-0.066-0.302-0.102-0.595-0.099-0.848c6-1.316,7.759-2.713,7.426-4.223
		c-0.427-1.941-5.219-3.079-9.292-2.398c-0.73,0.122-1.366,0.542-1.29,0.887c0.06,0.273,0.234,0.274,1.162,0.253
		c0.231-0.009,0.406-0.008,0.416,0.035c0.003,0.015,0.006,0.029-0.091,0.12c-0.691,0.696-0.686,3.364-0.633,5.323
		c-0.162,0.057-0.405,0.143-0.345,0.416c0.032,0.144,0.269,0.164,0.475,0.174c0.004,0.417,0.009,0.967,0.123,1.485
		c0.085,0.388,0.911,3.264,1.121,3.557c0.041,0.053,0.443,0.03,0.921-0.049c0.674-0.113,1.466-0.35,1.431-0.508
		c-0.009-0.043-0.093-0.163-0.146-0.273C40.05,42.291,39.103,39.123,38.969,38.519z M39.142,32.422
		c1.81-0.108,4.067,0.751,4.314,1.873c0.256,1.165-1.729,2.063-4.694,2.752C38.548,35.547,38.816,33.326,39.142,32.422z"/>
	<g>
		<path fill="none" d="M85.45,24.981c-0.041-0.216-0.158-0.343-0.383-0.3c-0.788,0.15-0.829,1.891-0.723,3.423
			c0.03,0.159,0.024,0.13,0.038,0.202C84.917,27.682,85.583,25.673,85.45,24.981z"/>
		<path fill="none" d="M44.297,38.263c1.595-0.558,3.268-1.325,3.105-2.175c-0.017-0.086-0.112-0.098-0.225-0.077
			c-0.72,0.137-2.959,2.087-2.929,2.246C44.251,38.271,44.251,38.271,44.297,38.263z"/>
		<path fill="#F4EA49" d="M96.336,29.133c-0.03-0.158-0.229-0.225-0.409-0.19c-0.067,0.013-0.152,0.059-0.211,0.115
			c-0.333,0.333-1.01,0.939-1.195,1.064c0.258-0.721,0.516-1.696,0.353-2.546c-0.082-0.433-0.277-0.843-0.644-1.177
			c-0.087-0.088-0.927-0.092-1.242-0.032c-0.068,0.013-0.11,0.036-0.107,0.05c-0.079,0.759-1.759,2.55-2.917,3.707
			c-0.019,0.012-0.036,0.026-0.051,0.04c-0.691,0.654-1.27,1.288-2.395,1.501c-1.822,0.347-2.372-0.458-2.776-2.577
			c1.011-1.671,1.884-3.57,1.618-4.968c-0.132-0.691-0.621-1.3-1.251-1.18c-0.473,0.09-1.03,0.465-1.299,0.77
			c-1.392,1.625-1.416,3.824-1.069,5.64c0.055,0.289,0.107,0.562,0.179,0.817c-0.576,0.643-1.273,1.307-1.661,1.659
			c-0.001,0.001-0.002,0.001-0.003,0.002c-0.344,0.274-1.315,1.415-2.283,1.6c-1.35,0.257-2.089-1.423-2.528-2.743
			c-0.036-0.068-0.836-0.229-1.376-0.126c-0.158,0.03-0.287,0.084-0.389,0.164c-0.717,0.615-2.195,2.116-3.015,2.862
			c-0.023,0.017-0.047,0.032-0.065,0.055c-0.007,0.008-0.014,0.015-0.021,0.023c-0.019,0.017-0.04,0.036-0.059,0.052
			c-0.052,0.043-0.084,0.084-0.108,0.125c-0.687,0.714-1.403,1.043-2.249,1.205c-1.777,0.339-2.362-0.162-2.486-0.81
			c-0.055-0.288,0.031-0.573,0.366-0.771c1.031-0.571,1.96-1.095,2.677-1.547l0.091,1.259c0.633-0.492,1.11-1.805,1.289-2.355
			c0.061-0.094,0.091-0.179,0.077-0.251c-0.071-0.374-0.734-0.428-1.341-0.312c-2.025,0.386-5.095,3.6-6.515,4.96
			c-0.011,0.01-0.017,0.019-0.026,0.029c-0.004,0.003-0.009,0.005-0.013,0.008c-0.776,0.82-1.555,1.506-2.095,1.609
			c-0.337,0.065-0.58-0.472-1.014-1.285c-0.44-0.842-1.148-1.499-2.206-1.297c-1.237,0.236-2.519,1.585-3.422,2.594
			c0.205-0.636,0.698-2.328,0.539-3.164c-0.066-0.346-0.245-0.55-0.582-0.486c-0.112,0.021-0.245,0.062-0.391,0.149
			c-1.425,0.791-4.213,3.612-5.313,4.655c-0.021,0.014-0.039,0.026-0.063,0.043c-0.624,0.522-1.369,1.5-2.764,1.767
			c-1.327,0.253-1.755-0.277-1.834-0.695c-0.011-0.058-0.024-0.13-0.013-0.192c2.974-1.03,4.577-2.411,4.37-3.491
			c-0.063-0.332-0.569-0.415-1.154-0.303c-1.912,0.365-4.428,2.696-6.102,4.314c-0.118,0.112-0.144,0.222-0.127,0.308
			c0.032,0.173,0.243,0.297,0.423,0.263c0.045-0.009,0.087-0.032,0.126-0.069c0.181-0.154,0.548-0.552,0.844-0.833
			c-0.104,0.184-0.134,0.398-0.09,0.629c0.134,0.706,1.039,1.414,3.109,1.02c1.53-0.292,2.689-1.225,3.633-2.212
			c0.024-0.015,0.045-0.03,0.062-0.046c0.844-0.833,1.907-1.856,3.149-2.557c0.127-0.068,0.253-0.138,0.298-0.146
			c0.045-0.009,0.129,0.065,0.157,0.209c0.121,0.634-0.233,2.567-0.287,3.265c-0.023,0.124-0.036,0.305-0.021,0.377
			c0.036,0.188,0.367,0.214,0.727,0.146c0.405-0.078,0.855-0.283,0.978-0.5c0.563-0.958,0.936-2.792,2.983-3.182
			c0.945-0.18,1.393,0.332,1.882,0.821c0.57,0.548,0.915,0.886,1.792,0.719c1.305-0.249,2.047-1.122,2.79-1.876
			c0.042-0.043,0.077-0.083,0.107-0.122c0.03-0.019,0.061-0.038,0.089-0.064c0.353-0.351,0.587-0.59,0.864-0.852
			c-0.048,0.114-0.049,0.234-0.029,0.334c0.252,1.326,2.295,1.279,3.847,0.984c1.342-0.256,2.555-0.946,3.356-1.832
			c0.033-0.015,0.062-0.035,0.082-0.063c0.88-0.885,1.501-1.421,2.104-1.924c0.805,1.534,1.982,2.937,3.286,2.688
			c1.814-0.346,3.461-1.681,4.249-2.59c0.017-0.013,0.038-0.022,0.053-0.037c0.592-0.561,1.134-1.142,1.433-1.408
			c0.283,1.484,1.293,2.381,3.273,2.004c1.777-0.338,2.642-0.937,4.067-2.388c0.001-0.001,0.002-0.003,0.004-0.004
			c0.572-0.536,1.379-1.431,2.548-2.259c0.084,0.073,0.162,0.238,0.203,0.454c0.102,0.533,0.047,1.35-0.108,1.633
			c-0.087,0.151-0.31,0.208-0.535,0.251c-0.135,0.025-0.295,0.041-0.408,0.063c-0.292,0.056-0.313,0.194-0.277,0.381
			c0.143,0.75,1.05,0.86,1.657,0.745c0.63-0.12,0.693-0.521,0.793-0.734c0.391-0.149,1.454-1.173,1.751-1.454
			C96.296,29.409,96.358,29.248,96.336,29.133z M47.178,36.011c0.113-0.021,0.208-0.01,0.225,0.077
			c0.162,0.85-1.51,1.617-3.105,2.175c-0.045,0.008-0.045,0.008-0.048-0.006C44.219,38.099,46.458,36.148,47.178,36.011z
			 M84.345,28.104c-0.106-1.533-0.065-3.273,0.723-3.423c0.225-0.043,0.342,0.084,0.383,0.3c0.132,0.692-0.534,2.701-1.067,3.325
			C84.369,28.234,84.375,28.263,84.345,28.104z"/>
	</g>
</g>
<path opacity="0.51" fill="#F4E833"  a:adobe-blending-mode="softLight" d="M46.461,15.62c-0.969-0.223,0.902-1.991-0.85-1.875
	c0.44,0.201,0.888,0.2,0.716,0.888c-0.104,0.412-0.892,0.744-0.82,1.124c0.251,0.008,0.663-0.111,0.883-0.172"/>
<g>
	<path fill="none" stroke="#000000" stroke-width="0.5447" d="M91.376,32.948v1.845h0.663v0.461h-1.753v-2.307H91.376z"/>
	<path fill="none" stroke="#000000" stroke-width="0.5447" d="M93.394,32.948v1.845h0.663v0.461h-1.753v-2.307H93.394z"/>
	<path fill="none" stroke="#000000" stroke-width="0.5447" d="M96.786,33.952h-1.09v-0.401c0-0.117-0.012-0.189-0.035-0.218
		c-0.023-0.029-0.075-0.043-0.154-0.043c-0.09,0-0.147,0.018-0.171,0.053c-0.024,0.035-0.037,0.111-0.037,0.228v1.071
		c0,0.112,0.012,0.185,0.037,0.219c0.024,0.035,0.078,0.052,0.163,0.052c0.081,0,0.134-0.017,0.159-0.052
		c0.025-0.034,0.038-0.115,0.038-0.241v-0.29h1.09v0.089c0,0.239-0.031,0.408-0.092,0.508c-0.061,0.1-0.197,0.188-0.406,0.263
		c-0.21,0.075-0.469,0.112-0.775,0.112c-0.32,0-0.583-0.032-0.79-0.095c-0.208-0.064-0.345-0.152-0.412-0.264
		c-0.067-0.113-0.101-0.282-0.101-0.508v-0.674c0-0.166,0.01-0.291,0.031-0.374c0.021-0.083,0.083-0.163,0.185-0.24
		c0.103-0.077,0.246-0.137,0.427-0.181c0.182-0.044,0.392-0.066,0.628-0.066c0.321,0,0.586,0.034,0.795,0.102
		c0.208,0.069,0.346,0.153,0.412,0.256c0.065,0.102,0.099,0.26,0.099,0.476V33.952z"/>
</g>
<g>
	<path fill="#F4EA49" d="M91.376,32.948v1.845h0.663v0.461h-1.753v-2.307H91.376z"/>
	<path fill="#F4EA49" d="M93.394,32.948v1.845h0.663v0.461h-1.753v-2.307H93.394z"/>
	<path fill="#F4EA49" d="M96.786,33.952h-1.09v-0.401c0-0.117-0.012-0.189-0.035-0.218c-0.023-0.029-0.075-0.043-0.154-0.043
		c-0.09,0-0.147,0.018-0.171,0.053c-0.024,0.035-0.037,0.111-0.037,0.228v1.071c0,0.112,0.012,0.185,0.037,0.219
		c0.024,0.035,0.078,0.052,0.163,0.052c0.081,0,0.134-0.017,0.159-0.052c0.025-0.034,0.038-0.115,0.038-0.241v-0.29h1.09v0.089
		c0,0.239-0.031,0.408-0.092,0.508c-0.061,0.1-0.197,0.188-0.406,0.263c-0.21,0.075-0.469,0.112-0.775,0.112
		c-0.32,0-0.583-0.032-0.79-0.095c-0.208-0.064-0.345-0.152-0.412-0.264c-0.067-0.113-0.101-0.282-0.101-0.508v-0.674
		c0-0.166,0.01-0.291,0.031-0.374c0.021-0.083,0.083-0.163,0.185-0.24c0.103-0.077,0.246-0.137,0.427-0.181
		c0.182-0.044,0.392-0.066,0.628-0.066c0.321,0,0.586,0.034,0.795,0.102c0.208,0.069,0.346,0.153,0.412,0.256
		c0.065,0.102,0.099,0.26,0.099,0.476V33.952z"/>
</g>
<g>
	<path d="M90.461,35.763v0.135c0,0.031-0.003,0.053-0.009,0.067c-0.006,0.014-0.019,0.027-0.038,0.039
		c-0.02,0.013-0.043,0.021-0.07,0.026s-0.058,0.008-0.091,0.008c-0.044,0-0.082-0.003-0.111-0.009
		c-0.03-0.005-0.053-0.014-0.07-0.026c-0.018-0.012-0.03-0.024-0.037-0.038c-0.008-0.013-0.011-0.033-0.011-0.062v-0.141
		c0-0.037,0.006-0.064,0.018-0.083s0.036-0.033,0.07-0.045c0.036-0.011,0.078-0.017,0.128-0.017c0.041,0,0.077,0.004,0.109,0.012
		c0.032,0.008,0.056,0.017,0.072,0.028s0.027,0.024,0.032,0.038C90.458,35.71,90.461,35.733,90.461,35.763z M90.275,35.729
		c0-0.021-0.002-0.035-0.006-0.041c-0.003-0.005-0.013-0.008-0.027-0.008c-0.014,0-0.023,0.003-0.027,0.008
		c-0.004,0.006-0.006,0.019-0.006,0.04v0.197c0,0.023,0.002,0.038,0.006,0.042c0.004,0.004,0.013,0.007,0.027,0.007
		c0.014,0,0.023-0.002,0.027-0.008s0.006-0.019,0.006-0.039V35.729z"/>
	<path d="M90.933,35.627v0.064h-0.23v0.068c0.029-0.019,0.066-0.027,0.111-0.027c0.051,0,0.09,0.007,0.116,0.023
		c0.026,0.015,0.039,0.045,0.039,0.089v0.058c0,0.029-0.002,0.05-0.007,0.063c-0.005,0.014-0.016,0.026-0.032,0.037
		s-0.04,0.021-0.069,0.026c-0.03,0.006-0.066,0.009-0.108,0.009c-0.048,0-0.09-0.005-0.126-0.014
		c-0.037-0.009-0.063-0.022-0.078-0.041c-0.016-0.018-0.023-0.046-0.023-0.083v-0.022h0.186v0.025c0,0.026,0.002,0.044,0.005,0.056
		c0.003,0.011,0.016,0.016,0.035,0.016c0.009,0,0.017-0.001,0.022-0.004c0.006-0.003,0.009-0.007,0.009-0.01
		c0-0.004,0.001-0.02,0.001-0.048v-0.08c0-0.015-0.003-0.025-0.009-0.031c-0.006-0.006-0.016-0.008-0.029-0.008
		c-0.009,0-0.016,0.001-0.022,0.004c-0.005,0.002-0.009,0.006-0.011,0.009c-0.002,0.003-0.003,0.011-0.003,0.022h-0.184l0.007-0.203
		H90.933z"/>
	<path d="M91.261,35.83v0.07h-0.244v-0.07H91.261z"/>
	<path d="M91.749,35.763v0.135c0,0.031-0.003,0.053-0.009,0.067c-0.006,0.014-0.019,0.027-0.039,0.039
		c-0.019,0.013-0.042,0.021-0.07,0.026s-0.058,0.008-0.091,0.008c-0.044,0-0.082-0.003-0.111-0.009
		c-0.03-0.005-0.053-0.014-0.07-0.026c-0.018-0.012-0.03-0.024-0.038-0.038c-0.007-0.013-0.011-0.033-0.011-0.062v-0.141
		c0-0.037,0.006-0.064,0.018-0.083s0.035-0.033,0.07-0.045c0.035-0.011,0.078-0.017,0.128-0.017c0.041,0,0.077,0.004,0.109,0.012
		c0.032,0.008,0.056,0.017,0.072,0.028c0.016,0.011,0.027,0.024,0.033,0.038C91.746,35.71,91.749,35.733,91.749,35.763z
		 M91.563,35.729c0-0.021-0.002-0.035-0.006-0.041c-0.004-0.005-0.013-0.008-0.027-0.008c-0.014,0-0.023,0.003-0.027,0.008
		c-0.004,0.006-0.006,0.019-0.006,0.04v0.197c0,0.023,0.001,0.038,0.006,0.042c0.004,0.004,0.013,0.007,0.027,0.007
		c0.014,0,0.023-0.002,0.027-0.008c0.004-0.006,0.007-0.019,0.007-0.039V35.729z"/>
	<path d="M92.194,35.627v0.264h0.053v0.069h-0.053v0.071h-0.186v-0.071h-0.221v-0.069l0.161-0.264H92.194z M92.008,35.891v-0.172
		l-0.082,0.172H92.008z"/>
	<path d="M92.514,35.83v0.07h-0.245v-0.07H92.514z"/>
	<path d="M92.964,35.962v0.069h-0.409v-0.058c0.121-0.107,0.193-0.173,0.216-0.199c0.023-0.025,0.034-0.045,0.034-0.06
		c0-0.011-0.003-0.019-0.01-0.025c-0.007-0.005-0.018-0.008-0.032-0.008c-0.014,0-0.024,0.003-0.031,0.009s-0.01,0.018-0.01,0.036
		v0.039h-0.167V35.75c0-0.022,0.002-0.041,0.006-0.054s0.015-0.026,0.032-0.039c0.017-0.013,0.039-0.022,0.065-0.029
		c0.027-0.006,0.06-0.01,0.097-0.01c0.074,0,0.13,0.01,0.168,0.03c0.038,0.02,0.057,0.045,0.057,0.075
		c0,0.023-0.011,0.047-0.032,0.074c-0.021,0.025-0.084,0.08-0.188,0.164H92.964z"/>
	<path d="M93.475,35.763v0.135c0,0.031-0.003,0.053-0.009,0.067c-0.006,0.014-0.019,0.027-0.038,0.039
		c-0.02,0.013-0.042,0.021-0.07,0.026c-0.027,0.005-0.058,0.008-0.091,0.008c-0.044,0-0.081-0.003-0.111-0.009
		c-0.029-0.005-0.053-0.014-0.07-0.026c-0.018-0.012-0.03-0.024-0.037-0.038c-0.008-0.013-0.011-0.033-0.011-0.062v-0.141
		c0-0.037,0.006-0.064,0.018-0.083c0.012-0.019,0.035-0.033,0.07-0.045c0.036-0.011,0.078-0.017,0.128-0.017
		c0.041,0,0.077,0.004,0.109,0.012c0.032,0.008,0.056,0.017,0.072,0.028s0.027,0.024,0.032,0.038
		C93.472,35.71,93.475,35.733,93.475,35.763z M93.289,35.729c0-0.021-0.002-0.035-0.006-0.041c-0.004-0.005-0.013-0.008-0.027-0.008
		c-0.014,0-0.023,0.003-0.027,0.008c-0.004,0.006-0.006,0.019-0.006,0.04v0.197c0,0.023,0.002,0.038,0.006,0.042
		c0.004,0.004,0.013,0.007,0.027,0.007c0.014,0,0.022-0.002,0.027-0.008s0.007-0.019,0.007-0.039V35.729z"/>
	<path d="M93.828,35.627v0.404h-0.186v-0.217c0-0.031-0.001-0.05-0.004-0.056c-0.002-0.006-0.01-0.011-0.023-0.015
		c-0.012-0.003-0.04-0.005-0.083-0.005h-0.018v-0.047c0.09-0.011,0.158-0.032,0.205-0.064H93.828z"/>
	<path d="M94.249,35.801c0.028,0.005,0.049,0.014,0.063,0.026c0.014,0.012,0.021,0.039,0.021,0.082c0,0.033-0.007,0.057-0.021,0.075
		c-0.013,0.018-0.037,0.031-0.07,0.041c-0.033,0.009-0.076,0.014-0.127,0.014c-0.059,0-0.105-0.005-0.139-0.016
		s-0.056-0.024-0.066-0.04c-0.011-0.016-0.016-0.042-0.016-0.081V35.87h0.186v0.066c0,0.017,0.002,0.028,0.006,0.033
		c0.003,0.005,0.012,0.007,0.025,0.007c0.014,0,0.024-0.003,0.028-0.009s0.007-0.021,0.007-0.047v-0.028
		c0-0.015-0.003-0.026-0.01-0.034s-0.016-0.012-0.028-0.014c-0.013-0.002-0.037-0.003-0.073-0.004v-0.059
		c0.044,0,0.071-0.001,0.082-0.002c0.01-0.002,0.018-0.006,0.022-0.012c0.004-0.006,0.007-0.016,0.007-0.029v-0.022
		c0-0.014-0.002-0.023-0.008-0.028c-0.005-0.004-0.014-0.006-0.025-0.006c-0.013,0-0.021,0.002-0.026,0.007s-0.007,0.015-0.007,0.03
		v0.034h-0.186v-0.035c0-0.039,0.016-0.065,0.049-0.078c0.033-0.014,0.084-0.021,0.155-0.021c0.089,0,0.149,0.009,0.181,0.028
		c0.031,0.019,0.047,0.044,0.047,0.078c0,0.022-0.005,0.039-0.017,0.049C94.297,35.784,94.278,35.793,94.249,35.801z"/>
</g>
</svg>
