<?xml version="1.0" encoding="utf-8"?>
<!-- Generator: Adobe Illustrator 16.0.3, SVG Export Plug-In . SVG Version: 6.00 Build 0)  -->
<!DOCTYPE svg PUBLIC "-//W3C//DTD SVG 1.1//EN" "http://www.w3.org/Graphics/SVG/1.1/DTD/svg11.dtd">
<svg version="1.1" id="Layer_1" xmlns="http://www.w3.org/2000/svg" xmlns:xlink="http://www.w3.org/1999/xlink" x="0px" y="0px"
	 width="300px" height="300px" viewBox="0 0 300 300" enable-background="new 0 0 300 300" xml:space="preserve">
<g>
	<defs>
		<circle id="SVGID_1_" cx="150" cy="150" r="140"/>
	</defs>
	<clipPath id="SVGID_2_">
		<use xlink:href="#SVGID_1_"  overflow="visible"/>
	</clipPath>
	
		<circle clip-path="url(#SVGID_2_)" fill="#F58620" stroke="#000000" stroke-width="10" stroke-linecap="round" stroke-linejoin="round" stroke-miterlimit="10" cx="150" cy="150" r="140"/>
	<g clip-path="url(#SVGID_2_)">
		<path fill="#E6B8AB" stroke="#CC9280" stroke-width="1.1674" d="M119.274,188.945c0,12.568,16.489,22.758,36.82,22.758
			c20.342,0,36.831-10.189,36.831-22.758s-16.489-22.762-36.831-22.762C135.764,166.184,119.274,176.377,119.274,188.945z"/>
		<path fill="#231F20" stroke="#69CCE3" stroke-width="0.5837" d="M254.445,411.094c0,0,0-32.4-32.391-33.631
			c-32.398-1.229-39.365,6.975-39.365,6.975l-32.812,24.189v12.305c0,0,28.709,12.301,42.65,12.301
			c13.942,0,52.899-11.074,56.997-15.172C253.631,413.959,254.445,411.094,254.445,411.094z"/>
		<path fill="none" stroke="#9ABECE" stroke-width="1.1674" d="M248.703,406.576c0,0-36.904,12.711-53.713,13.125
			c-16.814,0.404-38.545-6.973-38.545-6.973"/>
		<path fill="#808184" stroke="#231F20" stroke-width="1.1674" d="M227.469,327.105c1.354,3.791-1.924,11.402-2.449,15.578
			c-0.563,4.48-0.27,9.59-1.305,13.887c-2.996,0.398-5.149,1.086-8.013,2.152c4.898-2.371,9.556-1.893,14.578-1.617
			c1.551,7.775,2.994,15.045,1.636,22.828c-5.924,1.813-12.168,4.426-18.31,6.141c-5.188,1.455-10.523,1.666-15.66,2.861
			c-3.713,0.859-7.199,0.287-10.365,2.055c-6.642,3.691-14.532,5.162-21.225,9.213c-4.394,2.658-10.776,9.711-15.544,6.035
			c-2.657-2.041-3.763-8.061-4.147-11.883c-0.363-3.564,0.042-7.557,0.419-11.078c0.438-4.051,2.228-5.635,5.758-7.885
			c3.722-2.361,9.061-3.713,13.404-4.826c-5.515,0.889-13.144,4.504-17.008,7.771c-0.787-5.361-0.402-11.063-0.92-16.465
			c-0.691-7.316-1.507-14.582-0.492-22.057c3.293-24.326,46.673-30.254,65.697-23.787"/>
		<path fill="#48494D" d="M174.893,368.029c0,0,29.529-9.021,36.502-9.836c0,0-17.23,1.221-25.836,3.684
			c-8.614,2.465-7.383-4.504-7.383-4.504L174.893,368.029z"/>
		<path fill="#231F20" stroke="#69CCE3" stroke-width="0.5837" d="M46.527,411.938c0,0,0-32.393,32.397-33.627
			c32.398-1.227,39.363,6.973,39.363,6.973l32.808,24.199v12.297c0,0-28.707,12.299-42.646,12.299
			c-13.94,0-52.898-11.068-57.003-15.172C47.35,414.807,46.527,411.938,46.527,411.938z"/>
		<path fill="none" stroke="#9ABECE" stroke-width="1.1674" d="M52.27,407.426c0,0,36.904,12.709,53.715,13.119
			c16.817,0.412,38.552-6.973,38.552-6.973"/>
		<path fill="#808184" stroke="#231F20" stroke-width="1.1674" d="M72.735,320.645c-1.359,3.793,2.701,18.715,3.226,22.893
			c0.559,4.479,0.262,9.584,1.304,13.873c2.997,0.402,5.146,1.09,8.015,2.16c-4.908-2.373-9.561-1.891-14.577-1.619
			c-1.556,7.773-3.004,15.049-1.633,22.828c5.915,1.82,12.156,4.424,18.301,6.143c5.185,1.449,10.527,1.668,15.662,2.859
			c3.714,0.865,7.193,0.285,10.36,2.053c6.644,3.693,14.535,5.164,21.228,9.219c4.395,2.658,10.772,9.711,15.548,6.035
			c2.647-2.043,3.758-8.063,4.144-11.885c0.36-3.57-0.042-7.561-0.42-11.076c-0.433-4.055-2.224-5.637-5.763-7.885
			c-3.72-2.361-9.057-3.719-13.396-4.83c5.512,0.893,13.139,4.502,17.01,7.768c0.782-5.35,0.399-11.059,0.912-16.465
			c0.695-7.311,4.161-29.035,3.153-36.508c-3.294-24.316-49.334-15.797-68.354-9.326"/>
		<path fill="#48494D" d="M126.081,368.875c0,0-29.526-9.023-36.495-9.84c0,0,17.224,1.234,25.832,3.699
			c8.609,2.451,7.384-4.518,7.384-4.518L126.081,368.875z"/>
		<path fill="#FFFFFF" stroke="#9ABECE" stroke-width="1.1674" d="M128.425,180.439c0,0,0,25.01,23.785,25.01
			c23.786,0,32.808-22.963,29.938-31.162c-2.872-8.201,13.943-12.715,13.943-12.715L200.6,318.91c0,0-12.716,6.146-45.106,6.146
			c-32.401,0-38.548-6.965-38.548-6.965l-3.692-149.139L128.425,180.439z"/>
		<path fill="#231F20" stroke="#3F8B9D" stroke-width="0.5837" d="M124.39,177.947l4.604,160.414c0,0-42.912,2.402-67.002-5.627
			c-6.138-2.047,14.83-136.885,14.83-136.885l2.044-30.176l31.716-16.365"/>
		<path fill="#CA7B29" d="M86.328,172.016"/>
		<path fill="#F3DBE9" stroke="#CC9280" stroke-width="1.1674" d="M72.883,240.465c-3.177,9.648-6.442,63.584-6.554,66.342
			c-0.169,3.965,7.473,9.068,9.911,12.041c2.79,3.416,4.746,8.35,3.445,11.895c-1.502,4.102-7.749,6.609-10.556,7.535
			c-1.872-13.693-10.685-17.953-10.683-17.658c0.148-0.15,7.975,4.701,9.362,13.48c-0.887,2.338-13.071,16.209-15.581,16.533
			c-4.103,0.516-9.67-7.914-12.354-10.576c-5.986-5.951-15.232-10.982-18.156-19.475c3.81-4.34,8.708-6.713,11.934-11.828
			c3.768-5.969,2.929-91.691,5.948-96.352"/>
		<path fill="#231F20" stroke="#3F8B9D" stroke-width="0.5837" d="M86.335,165.063c0,0-27.005-5.311-38.333,8.053
			c-11.329,13.361-17.827,36.896-17.827,36.896s-3.675,21.021-15.494,22.732c0,0,9.76,10.422,25.655,18.371
			c15.886,7.947,30.979,9.576,30.979,9.576l7.558-34.662"/>
		<line fill="#F3DBE9" stroke="#CC9280" stroke-width="1.1674" x1="63.259" y1="326.33" x2="55.879" y2="327.604"/>
		<polygon fill="#CA7B29" points="95.751,334.986 105.463,162.605 100.35,157.488 91.146,161.072 78.866,332.943 		"/>
		<polyline fill="#231F20" stroke="#3F8B9D" stroke-width="0.5837" points="117.744,205.055 104.956,183.066 90.637,212.727 
			96.261,150.326 121.321,162.094 		"/>
		<path fill="#231F20" stroke="#3F8B9D" stroke-width="0.5837" d="M175.611,178.41l-4.601,160.469c0,0,42.911,2.408,66.999-5.621
			c6.139-2.045-14.832-136.949-14.832-136.949l-2.046-30.178l-31.713-16.363"/>
		<path fill="#F3DBE9" stroke="#CC9280" stroke-width="1.1674" d="M227.114,240.92c3.179,9.646,6.445,63.59,6.559,66.346
			c0.169,3.969-7.471,9.066-9.908,12.043c-2.793,3.412-4.752,8.35-3.448,11.898c1.497,4.102,7.752,6.604,10.557,7.531
			c1.866-13.693,10.681-17.955,10.681-17.658c-0.146-0.15-7.979,4.695-9.367,13.484c0.894,2.336,13.078,16.209,15.584,16.527
			c4.105,0.518,9.679-7.912,12.346-10.57c5.999-5.955,15.242-10.982,18.168-19.479c-3.813-4.34-8.713-6.717-11.94-11.832
			c-3.763-5.965-2.927-91.691-5.94-96.348"/>
		<path fill="#231F20" stroke="#3F8B9D" stroke-width="0.5837" d="M213.666,165.527c0,0,27.008-5.314,38.336,8.049
			s17.821,36.9,17.821,36.9s3.679,21.018,15.496,22.729c0,0-9.756,10.42-25.653,18.369c-15.888,7.949-30.977,9.578-30.977,9.578
			l-7.558-34.668"/>
		<line fill="#F3DBE9" stroke="#CC9280" stroke-width="1.1674" x1="236.743" y1="326.791" x2="244.117" y2="328.066"/>
		<polygon fill="#CA7B29" points="203.374,335.887 194.534,163.066 199.653,157.949 208.854,161.531 220.254,333.842 		"/>
		<polyline fill="#231F20" stroke="#3F8B9D" stroke-width="0.5837" points="182.26,205.516 195.044,183.523 209.367,213.191 
			203.739,150.787 178.679,162.553 		"/>
		<path fill="#69CCE3" stroke="#69CCE3" stroke-width="2.3347" d="M84.185,141.431c0.531-0.193,0.814,0.064,1.26-0.346
			c1.715,1.145,3.726,2.441,4.988,4.13c1.107,1.502,1.514,4.475,2.895,5.689c1.908,1.686,7.573,3.432,10.288,4.055
			c-4.068-6.041-8.452-15.522-2.039-21.407c-5.539-4.303-5.501-13.911-5.729-20.253c-0.097-2.864,0.156-5.638,1.574-8.134
			c1.582-2.804,3.733-2.521,5.72-4.395c-3.877-6.625-2.873-12.045,0.678-18.619c3.361-6.21,7.63-11.255,14.481-12.932
			c6.008-1.461,11.91-3.707,17.928-4.974c2.546-0.535,5.217-0.18,7.62-0.313c5.697-0.325,11.89-1.735,16.964,0.874
			c4.006,2.058,8.52,3.009,12.69,4.813c6.549,2.826,10.818,6.915,15.764,11.9c3.684,3.708,6.53,7.839,7.805,12.908
			c1.087,4.32,0.279,7.773,0.061,11.96c3.214-1.397,8.242,3.625,9.728,6.115c2.427,4.073,3.55,9.939,1.264,14.115
			c-0.777,1.402-2.818,3.068-2.875,4.723c-0.071,1.987,5.094,3.976,5.604,6.158c1.271,5.436,0.11,9.054,0.778,14.478
			c1.773,0.232,7.625-4.445,9.001-3.519c2.174-3.195-1.867,1.332,0.336-2c2.037-3.078,4.265-3.691,6.619-6.046
			c3.544-3.547,0.974-13.924,2.664-19.16c0.856-2.646,3.979-4.071,3.088-6.562c-1.005-2.779-4.055-4.272-4.746-7.625
			c-1.401-6.745-0.465-13.865-2.912-20.517c-2.259-6.137-6.469-8.964-11.783-12.028c5.301-6.939-12.904-19.68-18.356-20.166
			c-0.109-7.937-15.377-11.305-21.174-11.305c-3.542,0-6.444,0.542-9.762,1.2c-6.934,1.371-14.119,0.987-21.167,1.624
			c-4.424,0.396-8.035,1.101-12.359-0.381c-3.223-1.108-6.148-2.821-9.281-4.087c-6.377-2.58-14.185-0.848-18.771,4.167
			c-3.641,3.983-5.15,8.374-4.699,13.533c-7.586-2.24-19.118,9.161-10.701,14.471c-5.231-0.538-6.952,6.07-8.238,9.851
			c-1.865,5.474-2.396,8.658,1.217,13.492c-10.714-0.711-8.697,15.767-4.934,21.497c1.185,1.801,3.607,2.819,4.678,4.484
			c1.101,1.724,1.172,4.824,1.313,6.785c0.316,4.271,0.871,8.428,1.009,12.662c0.797-0.722,2.273-1.289,3.091-1.543"/>
		<g>
			<path fill="#F3DBE9" stroke="#CC9280" stroke-width="1.1674" d="M89.087,153.951c-0.183,6.932-4.845,6.953-8.27,3.84
				c-3.546-3.221-4.946-6.693-6.015-12.644c-1.279-7.12,2.591-9.854,6.853-9.428c3.935,0.388,6.835,5.137,8.905,9.75
				c-1.869-7.832-3.625-21.856,0.307-30.286c6.001-12.862,4.146-39.687,17.062-43.378c14.36-4.103,50.799-10.818,64.648-5.274
				c13.732,5.505,25.65,9.664,37.458,19.035c6.229,4.941,12.552,47.738,11.5,55.803c1.017-5.523,8.239-6.613,11.42-3.553
				c2.583,2.486,2.993,8.044,2.546,11.41c-1.024,7.853-12.475,18.671-18.138,9.574c-20.127,31.281-65.51,49.332-99.047,26.223
				c-9.374-6.463-21.521-18.15-27.835-27.627"/>
			<path fill="none" stroke="#CC9280" stroke-width="1.1674" d="M83.535,153.094c-1.267-1.76-3.456-5.365-1.448-7.644
				c1.066-1.213,3.388-0.909,4.517,0.133c2.445,2.236,2.115,7.281,3.577,10.638c0.08,0.275-0.008,0.396-0.259,0.357"/>
			<path fill="none" stroke="#CC9280" stroke-width="1.1674" d="M228.729,151.977c0.91-1.908,2.927-5.753,1.204-7.793
				c-1.521-1.797-4.477-0.71-5.854,0.772c-1.546,1.656-5.855,14.604-7.419,14.854"/>
		</g>
		<path fill="#231F20" d="M84.185,141.431c0.531-0.193,0.814,0.064,1.26-0.346c1.715,1.145,3.726,2.441,4.988,4.13
			c1.107,1.502,1.514,4.475,2.895,5.689c1.908,1.686,7.573,3.432,10.288,4.055c-4.068-6.041-8.452-15.522-2.039-21.407
			c-5.539-4.303-5.501-13.911-5.729-20.253c-0.097-2.864,0.156-5.638,1.574-8.134c1.582-2.804,3.733-2.521,5.72-4.395
			c-3.877-6.625-2.873-12.045,0.678-18.619c3.361-6.21,7.63-11.255,14.481-12.932c6.008-1.461,11.91-3.707,17.928-4.974
			c2.546-0.535,5.217-0.18,7.62-0.313c5.697-0.325,11.89-1.735,16.964,0.874c4.006,2.058,8.52,3.009,12.69,4.813
			c6.549,2.826,10.818,6.915,15.764,11.9c3.684,3.708,6.53,7.839,7.805,12.908c1.087,4.32,0.279,7.773,0.061,11.96
			c3.214-1.397,8.242,3.625,9.728,6.115c2.427,4.073,3.55,9.939,1.264,14.115c-0.777,1.402-2.818,3.068-2.875,4.723
			c-0.071,1.987,5.094,3.976,5.604,6.158c1.271,5.436,0.11,9.054,0.778,14.478c1.773,0.232,7.625-4.445,9.001-3.519
			c2.174-3.195-1.867,1.332,0.336-2c2.037-3.078,4.265-3.691,6.619-6.046c3.544-3.547,0.974-13.924,2.664-19.16
			c0.856-2.646,3.979-4.071,3.088-6.562c-1.005-2.779-4.055-4.272-4.746-7.625c-1.401-6.745-0.465-13.865-2.912-20.517
			c-2.259-6.137-6.469-8.964-11.783-12.028c5.301-6.939-12.904-19.68-18.356-20.166c-0.109-7.937-15.377-11.305-21.174-11.305
			c-3.542,0-6.444,0.542-9.762,1.2c-6.934,1.371-14.119,0.987-21.167,1.624c-4.424,0.396-8.035,1.101-12.359-0.381
			c-3.223-1.108-6.148-2.821-9.281-4.087c-6.377-2.58-14.185-0.848-18.771,4.167c-3.641,3.983-5.15,8.374-4.699,13.533
			c-7.586-2.24-19.118,9.161-10.701,14.471c-5.231-0.538-6.952,6.07-8.238,9.851c-1.865,5.474-2.396,8.658,1.217,13.492
			c-10.714-0.711-8.697,15.767-4.934,21.497c1.185,1.801,3.607,2.819,4.678,4.484c1.101,1.724,1.172,4.824,1.313,6.785
			c0.316,4.271,0.871,8.428,1.009,12.662c0.797-0.722,2.273-1.289,3.091-1.543"/>
		<path fill="#3F8B9D" stroke="#231F20" stroke-width="0.5837" d="M218.832,141.431c-0.568-0.262-1.195-1.014-1.853-1.334
			c0.522-0.314,1.274-1.445,1.887-1.81c-0.854-0.928-2.157-1.751-2.843-2.847c4.277-2.029,0.482-3.49-1.328-5.37
			c1.017-1.194,2.485-2.001,3.238-3.479c-1.647-1.292-2.893-1.671-2.208-3.518c0.65-1.752,4.306-2.389,1.168-4.641
			c4.17-3.453-0.685-4.677-3.083-7.523c0.968,0.128,1.839-0.322,2.771-0.432c-0.226-2.573-4.37-4.063-6.547-4.75
			c0.638-1.051,1.502-2.083,2.72-2.528c-2.434-1.208-7.41-2.224-9.879-0.52c2.405-2.413,7.84-2.077,9.308-4.383
			c-0.807-0.125-1.443-0.833-2.055-1.019c1.262-1.15,2.944-1.876,4.014-3.146c-1.149-0.76-2.87-1.381-3.716-2.531
			c0.947-0.236,1.794-1.111,2.388-1.585c-0.547-0.116-1.194-0.779-1.593-0.931c0.344-0.308,0.571-0.966,0.875-1.265
			c-1.324-0.929-3.13-1.045-4.548-1.833c4.334-1.174-6.527-2.902-7.92-2.949c0.465-1.955,2.478-3.285,3.087-5.224
			c-1.503-0.654-3.274-0.417-4.927-0.366c4.851-2.273-0.598-3.381-2.198-4.116c0.569-0.278,1.284-1.265,1.846-1.579
			c-2.202-2.725-8.196-1.719-11.373-1.968c0.906-1.715,2.086-3.379,3.419-4.672c-1.725-0.976-3.917-0.627-5.873-0.613
			c3.503-0.364,1.763-3.514-1.562-2.195c5.375-3.632-7.023-2.124-8.215-1.973c1.199-1.185,1.593-3.034,2.08-4.631
			c-1.298,0.268-2.471,1.098-3.704,1.737c1.302-4.823-3.124-2.998-5.946-1.761c0.79-0.472,0.874-0.833,1.461-1.561
			c-0.482,0.21-1.059,0.335-1.514,0.564c1.396-2.325,6.102-5.48,9.081-4.959c-0.668,0.598-0.864,1.206-1.844,1.602
			c1.76,0.762,4.977,0.898,7.136,0.846c-0.964,0.681-1.845,1.53-2.401,2.497c2.444,0.138,4.958,0.078,7.427,0.035
			c-0.737,0.568-1.203,1.579-1.764,2.172c2.89-0.064,6.368,0.593,8.788,2.247c-0.763,1.08-2.305,1.545-3.077,2.764
			c2.401,0.926,6.353-0.07,8.126,2.215c-1.035,0.44-1.915,1.003-2.712,1.745c1.848,0.389,4.906,0.44,6.175,1.729
			c-1.065,0.318-2.135,0.772-3.103,1.325c1.118,1.407,4.289,2.169,6.251,2.274c-0.496,0.289-1.321,1.197-1.836,1.459
			c2.001,0.368,5.069,0.464,6.259,2.194c-0.986,0.47-2.039,0.833-3.112,1.086c1.568,0.878,3.585,1.64,5.244,2.706
			c-1.387,0.291-2.583,1.006-3.257,2.285c1.887,1.292,4.443,1.76,6.498,2.918c-0.237,0.088-0.842,0.498-1.224,0.614
			c1.942,1.513,4.785,2.16,6.815,3.71c-1.493,0.499-3.167,0.997-3.646,2.456c0.958,0.129,2.044,0.666,2.772,0.921
			c-1.258,0.69-2.409,1.446-3.176,2.623c1.137,0.812,2.774,0.987,4.131,1.64c-1.069,0.773-2.903,1.277-3.413,2.392
			c1.031,0.134,2.07,0.394,3.063,0.741c0.011,1.605-1.629,2.17-2.454,3.35c1.584,0.634,3.572,0.697,4.438,2.287
			c-0.952,1.039-2.139,2.106-3.396,2.836c1.764,0.299,3.912,1.329,4.909,2.758c-0.434,0.212-0.694,0.547-0.972,0.705
			c1.434,1.225,3.363,1.739,4.744,3.237c-0.822,0.78-1.954,1.108-3.098,1.557c3.929,4.063,0.126,1.863-1.646,4.987
			c0.79,0.729,1.915,1.279,2.867,1.856c-0.721,1.253-2.427,1.453-3.492,2.542c1.283,1.521,3.796,3.479,0.717,4.79
			c0.524,0.853,1.114,1.934,1.489,2.722c-1.242,0.305-2.43,0.908-3.07,1.889c1.416,0.391,4.859,1.768,1.886,2.961
			c0.233,0.121,0.715,0.723,1.195,0.875c-0.821,1.222-2.448,2.1-3.75,2.848"/>
		<path fill="#3F8B9D" stroke="#231F20" stroke-width="0.5837" d="M97.115,69.225c0.478,0.671,0.768,1.255,0.579,2.085
			c-1.105-0.662-1.776-0.596-2.518,0.127c2.19,1.847-0.21,2.347-0.92,3.697c-1.034,1.96-1.275,2.139-0.347,4.45
			c-0.398-0.218-1.38-0.33-1.786-0.55c0.046,1.447,0.755,2.916,1.174,4.335c-0.323-0.21-1.475-0.348-1.817-0.547
			c-0.233,1.634,0.637,3.04,0.524,4.66c-2.632-2.822-1.307,2.072-1.247,3.463c-0.374-0.267-1.151-0.383-1.476-0.558
			c0.192,0.807-0.108,1.598,0.232,2.435c-2.016,0.174-3.736-1.337-4.711-2.99c0.056,2.635-0.039,5.106,1.87,7.078
			c-0.297,0.061-0.572,0.051-0.871,0.108c0.221,0.743,0.046,1.701,0.21,2.454c-0.204-0.114-0.287-0.403-0.504-0.509
			c0.129,0.799-0.175,1.86-0.111,2.688c-0.783-0.218-1.983,0.018-2.754-0.213c0.642,1.698,2.053,3.31,2.438,5.292
			c-0.271-0.142-0.594-0.409-0.835-0.583c-0.059,1.188,0.447,2.363,0.841,3.399c-0.372-0.009-0.804,0.089-1.173,0.084
			c0.216,1.682,1.3,3.426,1.806,4.959c-0.318-0.045-0.543-0.183-0.858-0.246c0.014,1.666,1.196,3.089,1.486,4.65
			c-0.389-0.095-0.759-0.106-1.153-0.233c0.038,1.705,1.317,3.465,2.104,4.957c-0.352-0.058-0.501-0.105-0.843-0.226
			c-0.084,1.881,1.633,3.153,1.786,4.973c-0.297-0.008-0.58-0.145-0.863-0.16c0.403,1.271,1.465,2.586,1.471,3.947
			c-0.526-0.317-0.991-0.331-1.48-0.543c0.545,1.213,1.384,2.4,1.828,3.684c-0.584-0.313-1.204-0.305-1.814-0.863
			c0.898,3.01,4.094,7.104,7.566,6.933c-0.696-0.974-1.584-1.909-2.297-2.874c0.742-0.657,1.792-1.141,2.849-1.33
			c-0.751-0.898-1.602-1.966-2.14-3.012c0.699,0.295,1.424,0.189,2.196,0.769c-0.902-3.626-3.942-6.694-4.944-10.341
			c0.717,0.551,1.607,0.797,2.304,1.283c-0.99-1.325-2.359-2.846-2.703-4.351c0.391,0.122,1.105,0.12,1.494,0.236
			c-0.169-1.339-1.242-2.493-1.818-3.684c0.798,0.221,1.266,0,2.048,0.53c-1.123-1.573-2.73-3.063-3.3-4.949
			c0.39,0.205,1.416,0.32,1.817,0.532c-0.582-1.992-2.536-3.718-2.125-5.899c0.423,0.181,0.767,0.199,1.239,0.47
			c-0.343-1.76-1.792-2.895-2.2-4.592c1.141,0.487,2.441,0.834,3.667,0.876c-1.431-1.324-2.507-2.952-2.077-4.954
			c2.679,0.52,5.508-0.068,8.112,0.532c-1.06-1.823-4.465-3.4-4.318-6.229c0.73,0.736,1.874,1.524,3.053,1.507
			c-0.312-1.489-1.267-3.029-1.165-4.654c0.642,0.33,1.77,0.398,2.417,0.879c-0.28-1.424-1.221-2.9-1.483-4.336
			c0.715,0.158,1.325-0.065,2.073,0.244c-0.954-1.253-1.93-2.486-2.309-4.028c1.105-0.03,2.281,0.313,3.328,0.544
			c-0.987-1.394-1.984-2.789-1.511-4.651c0.425,0.214,1.334,0.25,1.806,0.573c-0.087-0.993-2.295-4.032-1.808-4.731
			c0.646-0.941,3.214,0.453,4.029,0.61c-0.403-1.315-0.945-2.622-0.875-4.009c1.267-0.162,2.491,0.112,3.706,0.226
			c-0.414-1.422-1.489-2.556-1.492-4.02c0.781,0.306,2.042,0.476,2.74,0.862c-0.076-0.978,0.168-2.091,0.103-3.063
			c1.103,0.373,2.437,1.007,3.683,1.411c-0.009-1.249-0.819-2.515-1.174-3.612c0.963-0.091,4.197,0.913,4.694,0.614
			c1.282-0.762,0.207-2.803,1.255-4.009c3.191,3.201,8.88,4.554,13.221,3.279c-2.502-3.014-4.12-6.909-5.354-10.653
			c-0.553-1.687-1.325-3.386-1.949-5.035c-0.696-1.824,0.071-3.6-0.408-4.983c-0.51-1.464-1.19-2.455-3.616-1.653
			c-2.571,0.846-2.125,2.484-1.554,5.374c0.64,3.279,1.143,6.932,1.887,10.281c-1.012-0.895-2.006-1.978-3.104-2.693
			c0.216,1.069,0.567,2.166,0.517,3.323c-0.825-0.708-1.878-1.383-2.741-1.741c-0.15,1.578,0.892,2.79,0.843,4.351
			c-0.51-0.325-1.542-0.397-2.091-0.892c0.066,0.544-0.198,1.291-0.11,1.837c-0.323-0.292-1.12-0.566-1.463-0.888
			c0.111,0.735-0.219,1.702-0.116,2.456c-0.514-0.236-1.415-0.348-1.813-0.548c-0.015,0.332,0.218,0.543,0.237,0.875
			c-0.308-0.348-0.906-0.678-1.227-1.128c0.174,0.434,0.155,1.032,0.289,1.421c-2.233-1.469-9.059-1.059-10.882,1.394
			c2.155,0.608,5.239,0.561,5.207,3.646c-0.996-0.323-2.103-0.323-3.114,0.05"/>
		<path fill="#231F20" stroke="#69CCE3" stroke-width="0.5837" d="M168.689,46.203c0.381,0.019,0.475,0.676,0.674,0.012
			c-5.721-13.541-20.53-23.762-35.911-19.186c-8.182,2.438-11.517,6.819-12.699,15.154c-0.874,6.163-1.308,15.464,3.091,20.111
			c0.706,0.742,1.619,1.347,2.237,2.128c-5.082,3.383,0.726,8.471,3.275,11.086c2.265,2.339,3.62,4.401,2.365,7.578
			c-1.521,3.831-3.444,2.316-6.553,3.161c-2.128,0.579-4.596,2.758-3.867,5.36c1.164,4.183,8.555,3.684,11.678,4.73
			c12.763,4.245-1.006,13.568-3.713,6.412c0.009,9.499,13.427,8.778,19.175,5.826c9.233-4.745,9.727-15.129,6.608-23.588
			c-1.978-5.35-1.056-4.45,3.479-5.589c3.006-0.758,8.86-3.002,10.742-5.428c1.652-2.146,2.391-6.975,1.555-9.476
			c-0.741-2.199-3.684-5.583-2.45-6.943"/>
		<path fill="#3F8B9D" stroke="#231F20" stroke-width="0.5837" d="M141.573,105.799c6.099,1.372,7.057-10.583,6.742-14.162
			c0.973,0.559,1.546,1.573,1.77,2.716c1.619-7.212-1.595-13.244-1.196-20.053c1.811,1.539,1.476,2.643,4.102,2.81
			c2.952,0.187,6.654-2.872,8.373-5.051c2.974-3.748,1.97-7.417,1.654-11.571c0.234,2.034-1.004,6.197-2.792,7.129
			c-0.12-2.244,0.04-4.582-0.1-6.813c-1.149,1.339-2.114,3.103-3.353,4.293c-0.115-1.554,1.196-6.786,0.505-7.798
			c-1.807-2.627-5.652,2.214-7.393,2.75c0.817-2.682,2.628-4.843,3.961-7.181c-3.272-0.161-6.94-0.067-9.786,1.737
			c2.863-5.105,5.45-13.51,13.01-9.162c-2.107-2.026-4.762-3.556-7.594-4.365c3.821-1.63,7.637-0.634,10.982,1.849
			c-3.96-7.098-11.63-11.118-19.279-12.51c-6.725-1.224-14.389,2.013-15.64,9.453c2.747-1.705,5.359-3.755,8.759-3.694
			c-4.302,4.215-10.039,6.859-9.444,14.029c0.398-2.575,5.405-5.637,7.865-5.539c-1.663,3.307-2.67,9.983-0.982,13.431
			c-0.048-2.853,1.645-4.876,3.158-7.065c0.325,4.183-0.372,10.66,3.146,13.689c0.093-1.391,0.061-2.824,0.061-4.232
			c-0.283,2.467-0.944,4.673-0.944,7.226c0,2.887,1.053,5.071,1.535,7.781c-2.23-0.675-3.742-2.283-4.049-4.6
			c-1.668,4.88,6.293,10.766,7.129,15.636c-1.766-1.569-2.989-3.398-4.232-5.302c-0.438,2.896,2.051,7.397,2.81,10.285
			c-0.787-1.583-2.286-2.633-4.103-2.381c1.389,3.335,5.875,4.729,6.969,8.711c0.567,2.039,0.952,6.953-1.011,8.271"/>
		<polyline fill="#231F20" points="197.162,126.55 153.738,117.16 159.21,110.113 148.65,116.377 139.654,110.904 143.176,117.16 
			108.359,124.984 142.781,121.461 117.358,137.11 147.48,122.636 187.769,135.935 157.259,121.853 196.772,128.116 		"/>
		<path fill="#CC9280" d="M158.432,140.243c0,0-3.909,4.693-8.215,4.693c-4.31,0-12.521-4.693-12.521-4.693s6.651,8.603,10.564,9.39
			C152.171,150.41,159.21,146.891,158.432,140.243z"/>
	</g>
</g>
</svg>
