<?xml version="1.0" encoding="utf-8"?>
<!-- Generator: Adobe Illustrator 16.0.3, SVG Export Plug-In . SVG Version: 6.00 Build 0)  -->
<!DOCTYPE svg PUBLIC "-//W3C//DTD SVG 1.1 Basic//EN" "http://www.w3.org/Graphics/SVG/1.1/DTD/svg11-basic.dtd" [
	<!ENTITY ns_flows "http://ns.adobe.com/Flows/1.0/">
	<!ENTITY ns_extend "http://ns.adobe.com/Extensibility/1.0/">
	<!ENTITY ns_ai "http://ns.adobe.com/AdobeIllustrator/10.0/">
	<!ENTITY ns_graphs "http://ns.adobe.com/Graphs/1.0/">
]>
<svg version="1.1" baseProfile="basic" id="Layer_1" xmlns:x="&ns_extend;" xmlns:i="&ns_ai;" xmlns:graph="&ns_graphs;"
	 xmlns="http://www.w3.org/2000/svg" xmlns:xlink="http://www.w3.org/1999/xlink" xmlns:a="http://ns.adobe.com/AdobeSVGViewerExtensions/3.0/"
	 x="0px" y="0px" width="377.76px" height="178.38px" viewBox="0 0 377.76 178.38" xml:space="preserve">
<g>
	<path fill="#EB6324" d="M374.966,120.401c-4.131,28.871-89.936,40.488-191.659,25.946C81.587,131.81,2.469,96.619,6.594,67.749
		c4.13-28.871,89.936-40.493,191.66-25.954C299.974,56.336,379.09,91.528,374.966,120.401z"/>
	<path fill="#A461A7" stroke="#DAB5D4" stroke-width="1.6533" d="M365.396,110.481c-3.906,27.338-87.98,37.938-187.787,23.672
		S0.06,86.16,3.97,58.822c3.907-27.338,87.981-37.935,187.793-23.669C291.564,49.416,369.304,83.143,365.396,110.481z"/>
	<path fill="#742A85" d="M358.325,109.47c-3.412,23.869-83.92,32.102-179.821,18.395C82.605,114.158,7.629,83.7,11.041,59.833
		c3.411-23.866,83.917-32.101,179.819-18.395C286.759,55.146,361.734,85.605,358.325,109.47z"/>
	<path fill="#8B3C96" d="M358.44,111.66c-3.187,22.281-81.4,29.53-174.704,16.193C90.438,114.519,17.384,85.647,20.57,63.368
		c3.186-22.28,81.401-29.53,174.701-16.196C288.57,60.509,361.623,89.382,358.44,111.66z"/>
	<g>
		<path fill="#FFFFFF" d="M50.235,71.232c-0.445-0.102-1.397-0.429-2.846-0.977c-0.675,2.38-1.697,6.579-3.07,12.601
			c-0.142,0.638-0.474,1.125-0.988,1.47c-0.512,0.344-1.079,0.447-1.7,0.303c-0.639-0.144-1.118-0.483-1.428-1.016
			c-0.316-0.532-0.399-1.117-0.253-1.754l1.6-7.024c0.534-2.343,1.425-5.607,2.683-9.797c1.365-4.531,2.291-7.788,2.775-9.773
			l0.751-3.295c0.357-1.577,0.717-2.702,1.068-3.376c0.687-1.316,1.606-1.745,2.758-1.283c0.546-0.043,1.295,0.005,2.256,0.137
			c0.958,0.135,2.12,0.358,3.491,0.668c2.915,0.667,5.419,2.281,7.518,4.855c2.303,2.836,3.097,5.798,2.397,8.889
			c-0.896,3.952-3.115,6.756-6.643,8.416C57.449,71.769,53.995,72.088,50.235,71.232z M55.747,52.533
			c-0.703-0.158-1.328-0.288-1.887-0.38c-0.554-0.093-1.034-0.151-1.428-0.172l-1.051,4.384l-2.667,9.394l2.557,0.913
			c2.675,0.608,5.087,0.443,7.227-0.492c2.343-1.025,3.802-2.796,4.374-5.315c0.41-1.785-0.198-3.539-1.816-5.263
			C59.556,54.017,57.789,52.997,55.747,52.533z"/>
		<path fill="#FFFFFF" d="M73.764,90.339c-2.719-0.387-4.915-1.725-6.587-4.009c-1.86-2.542-2.583-5.711-2.16-9.493
			c0.429-3.67,1.813-6.757,4.148-9.26c2.733-2.961,6.12-4.154,10.167-3.571c3.235,0.459,5.473,2.291,6.715,5.486
			c0.985,2.584,1.212,5.556,0.683,8.911c-0.563,3.585-1.936,6.514-4.126,8.793C80.119,89.783,77.172,90.827,73.764,90.339z
			 M78.314,68.886c-2.375-0.359-4.389,0.51-6.04,2.6c-1.316,1.679-2.14,3.692-2.472,6.036c-0.335,2.344,0.04,4.262,1.128,5.757
			c0.916,1.235,2.089,1.955,3.531,2.16c1.683,0.24,3.218-0.167,4.607-1.222c1.568-1.162,2.557-2.894,2.969-5.198
			C83.156,72.795,81.917,69.417,78.314,68.886z"/>
		<path fill="#FFFFFF" d="M110.183,72.993c-0.343-0.049-0.742-0.121-1.196-0.221c-0.456-0.099-0.856-0.171-1.192-0.22
			c-0.377-0.054-1.491-0.089-3.353-0.105l-1.591,14.401l-0.127,1.071l-0.153,1.24c-0.443,3.552-1.543,5.2-3.306,4.947
			c-0.648-0.091-1.181-0.385-1.597-0.872c-0.418-0.486-0.58-1.045-0.488-1.676c0.088-0.614,0.242-1.535,0.465-2.755
			c0.225-1.225,0.381-2.142,0.469-2.755l1.542-14.236c-1.178-0.219-2.952-0.613-5.328-1.185c-1.413-0.4-2.017-1.305-1.819-2.711
			c0.104-0.71,0.409-1.269,0.909-1.675c0.509-0.406,1.099-0.563,1.776-0.465l5.035,1.141c0.116-0.825,0.24-1.935,0.364-3.326
			c0.126-1.395,0.229-2.399,0.318-3.013c0.096-0.678,0.415-1.206,0.946-1.585c0.532-0.379,1.138-0.518,1.816-0.419
			c1.456,0.207,2.137,1.519,2.04,3.932c-0.04,0.602-0.118,1.324-0.237,2.168l-0.248,1.396l-0.242,1.503
			c2.045,0.026,3.211,0.061,3.5,0.101c1.68,0.243,2.771,0.481,3.269,0.715c0.937,0.464,1.322,1.298,1.149,2.494
			c-0.1,0.711-0.408,1.264-0.915,1.663C111.476,72.943,110.876,73.092,110.183,72.993z"/>
		<path fill="#FFFFFF" d="M128.038,75.487c-0.504-0.199-0.788-0.509-0.857-0.928c-0.041-0.292,0.038-0.84,0.239-1.629
			c-0.757-0.102-1.943-0.203-3.563-0.308c-1.708-0.006-2.734,0.427-3.092,1.283c0.238,0.208,0.473,0.393,0.722,0.544
			c1.958,1.216,3.32,2.361,4.079,3.43c1.113,1.563,1.299,3.251,0.572,5.076c-0.597,1.491-1.696,2.361-3.291,2.605
			c-1.32,0.193-2.801-0.039-4.441-0.691c-1.2-0.482-2.264-1.142-3.193-1.98c-1.205-1.077-1.625-2.071-1.258-2.991
			c0.147-0.365,0.419-0.631,0.816-0.787c0.399-0.162,0.782-0.168,1.148-0.02c0.282,0.112,0.563,0.479,0.836,1.098
			c0.134,0.301,0.56,0.671,1.274,1.114c0.57,0.359,1.064,0.618,1.487,0.787c0.77,0.309,1.48,0.487,2.145,0.539
			c0.96,0.076,1.553-0.178,1.781-0.753c0.5-1.244-0.034-2.438-1.601-3.572l-1.301-0.885c-1.111-0.755-1.852-1.412-2.221-1.974
			c-0.54-0.812-0.6-1.732-0.186-2.768c0.763-1.919,2.212-2.92,4.346-3.013c0.647-0.029,1.644,0.028,2.991,0.17
			c1.347,0.139,2.329,0.196,2.946,0.166c0.44-0.016,0.881,0.064,1.319,0.239c0.395,0.16,0.668,0.417,0.817,0.772
			c0.147,0.36,0.14,0.745-0.024,1.157c-0.104,0.266-0.202,0.678-0.296,1.236c-0.09,0.558-0.188,0.971-0.292,1.239
			c-0.167,0.412-0.424,0.694-0.779,0.852C128.807,75.649,128.431,75.648,128.038,75.487z"/>
		<path fill="#FFFFFF" d="M142.978,74.861c-1.218-0.178-1.82-1.091-1.811-2.761c0.021-4.088,0.081-6.463,0.176-7.129
			c0.238-1.665,1.021-2.405,2.345-2.215c1.23,0.177,1.837,1.046,1.833,2.612c-0.001,4.045-0.062,6.472-0.176,7.279
			C145.11,74.314,144.32,75.052,142.978,74.861z"/>
		<path fill="#FFFFFF" d="M160.343,99.818c-1.039-0.147-1.542-0.802-1.514-1.955l0.058-4.044c0.035-1.434,0.139-2.77,0.314-4.004
			c0.05-0.34,0.149-0.91,0.307-1.711c0.158-0.807,0.265-1.375,0.313-1.714c0.373-2.611,0.077-3.987-0.891-4.122
			c-1.355-0.194-2.761,0.425-4.225,1.854c-1.321,1.303-2.454,3.028-3.402,5.175c-0.092,0.466-0.229,1.052-0.418,1.753
			c-0.158,0.595-0.277,1.176-0.36,1.744c-0.053,0.361-0.09,0.911-0.122,1.646c-0.031,0.735-0.075,1.281-0.126,1.646
			c-0.078,0.542-0.305,0.959-0.687,1.251c-0.382,0.29-0.83,0.403-1.351,0.323c-0.529-0.075-0.935-0.305-1.213-0.688
			c-0.28-0.386-0.382-0.85-0.301-1.394c0.05-0.364,0.092-0.913,0.116-1.648c0.026-0.733,0.064-1.288,0.116-1.647
			c0.178-1.246,0.512-2.958,1.001-5.14c0.487-2.176,0.821-3.891,1.001-5.136c0.055-0.386,0.119-0.964,0.184-1.73
			c0.066-0.768,0.129-1.345,0.181-1.73c0.076-0.52,0.307-0.921,0.701-1.205c0.393-0.283,0.841-0.389,1.349-0.315
			c1.11,0.16,1.607,1.03,1.494,2.618l-0.249,2.128c2.417-2.419,4.697-3.473,6.837-3.165c1.929,0.274,3.158,1.32,3.671,3.131
			c0.361,1.212,0.406,2.93,0.135,5.164l-0.26,1.83l-0.262,1.682c-0.143,1.002-0.2,2.316-0.165,3.941
			c0.035,1.63-0.022,2.935-0.167,3.929c-0.073,0.533-0.309,0.938-0.698,1.222C161.316,99.788,160.864,99.89,160.343,99.818z"/>
		<path fill="#FFFFFF" d="M182.094,97.968c-0.429-0.163-1.323-0.614-2.68-1.359c-1,2.261-2.596,6.275-4.792,12.048
			c-0.23,0.611-0.625,1.053-1.18,1.32c-0.557,0.269-1.135,0.291-1.732,0.062c-0.612-0.23-1.033-0.631-1.268-1.205
			c-0.241-0.565-0.244-1.158-0.011-1.769l2.56-6.733c0.851-2.25,2.193-5.355,4.017-9.331c1.984-4.295,3.354-7.396,4.108-9.29
			l1.2-3.16c0.579-1.514,1.085-2.58,1.529-3.196c0.862-1.21,1.83-1.509,2.905-0.889c0.545,0.032,1.286,0.184,2.218,0.448
			c0.926,0.271,2.05,0.649,3.364,1.148c2.797,1.064,5.05,3.01,6.767,5.849c1.888,3.127,2.271,6.176,1.146,9.139
			c-1.44,3.789-4.024,6.259-7.751,7.412C189.163,99.501,185.698,99.339,182.094,97.968z M190.151,80.217
			c-0.671-0.259-1.277-0.471-1.816-0.642c-0.536-0.167-1.003-0.293-1.393-0.373l-1.644,4.201l-3.947,8.933l2.404,1.261
			c2.567,0.971,4.973,1.146,7.22,0.509c2.471-0.685,4.159-2.234,5.076-4.648c0.647-1.714,0.293-3.534-1.07-5.468
			C193.716,82.216,192.106,80.957,190.151,80.217z"/>
		<path fill="#FFFFFF" d="M221.976,116.209c-0.305,0.028-0.899-0.287-1.769-0.936c-0.788-0.609-1.385-1.156-1.785-1.65
			c-1.489,0.976-2.816,1.729-3.97,2.256c-1.152,0.528-2.129,0.826-2.931,0.892c-3.807,0.311-6.67-0.537-8.591-2.542
			c-1.807-1.882-2.884-4.911-3.223-9.08c-0.323-3.94,0.759-7.422,3.238-10.447c2.483-3.023,5.605-4.685,9.365-4.992
			c1.418-0.118,3.033,0.121,4.85,0.707c2.293,0.732,3.487,1.74,3.593,3.025c0.041,0.44-0.095,0.846-0.392,1.214
			c-0.111,0.635-0.155,1.662-0.128,3.084c0.021,1.425,0.122,3.247,0.286,5.459c0.146,2.022,0.411,3.605,0.81,4.757
			c0.218,0.701,0.846,2.092,1.887,4.171c0.14,0.283,0.359,0.699,0.669,1.247l0.182,0.405c0.053,0.649-0.133,1.203-0.556,1.669
			C223.09,115.906,222.58,116.163,221.976,116.209z M215.508,99.649c-0.055-0.698-0.072-1.462-0.046-2.294
			c0.02-0.826,0.082-1.716,0.184-2.659c-0.629-0.255-1.167-0.443-1.61-0.553c-0.441-0.112-0.792-0.158-1.051-0.139
			c-2.528,0.206-4.623,1.417-6.286,3.623c-1.661,2.213-2.382,4.659-2.16,7.347c0.217,2.671,0.85,4.635,1.904,5.892
			c1.053,1.261,2.524,1.812,4.415,1.656c1.564-0.127,2.867-0.521,3.91-1.179c0.564-0.357,1.334-1.046,2.317-2.059
			C216.209,105.012,215.688,101.801,215.508,99.649z"/>
		<path fill="#FFFFFF" d="M249.261,117.284c-1.391-0.194-2.063-1.068-2.025-2.614l0.076-5.408c0.044-1.925,0.186-3.712,0.425-5.362
			c0.061-0.453,0.202-1.219,0.413-2.293c0.211-1.076,0.348-1.84,0.414-2.289c0.497-3.497,0.101-5.335-1.192-5.521
			c-1.811-0.26-3.697,0.572-5.653,2.484c-1.769,1.746-3.284,4.054-4.557,6.924c-0.118,0.632-0.307,1.412-0.555,2.348
			c-0.215,0.795-0.373,1.573-0.48,2.334c-0.07,0.484-0.129,1.218-0.168,2.203c-0.041,0.985-0.1,1.72-0.169,2.203
			c-0.103,0.727-0.408,1.285-0.918,1.677c-0.51,0.389-1.11,0.531-1.81,0.433c-0.712-0.098-1.254-0.41-1.626-0.926
			c-0.369-0.513-0.502-1.137-0.399-1.862c0.069-0.485,0.118-1.221,0.156-2.205c0.031-0.987,0.081-1.724,0.153-2.207
			c0.236-1.666,0.687-3.96,1.341-6.876c0.654-2.92,1.104-5.21,1.342-6.873c0.078-0.519,0.155-1.293,0.245-2.32
			c0.088-1.027,0.17-1.8,0.244-2.317c0.101-0.694,0.412-1.231,0.935-1.611c0.529-0.377,1.127-0.519,1.806-0.424
			c1.491,0.216,2.153,1.385,1.999,3.507l-0.333,2.848c3.23-3.235,6.284-4.646,9.148-4.236c2.588,0.371,4.229,1.765,4.918,4.193
			c0.479,1.618,0.538,3.924,0.175,6.907l-0.344,2.449l-0.35,2.252c-0.191,1.344-0.267,3.104-0.223,5.281
			c0.047,2.175-0.032,3.925-0.22,5.251c-0.101,0.714-0.417,1.258-0.937,1.637C250.564,117.244,249.959,117.387,249.261,117.284z"/>
		<path fill="#FFFFFF" d="M259.227,86.307c-0.282-0.389-0.385-0.854-0.306-1.401c0.048-0.349,0.2-0.855,0.444-1.515
			c0.252-0.656,0.402-1.161,0.453-1.512c0.075-0.545,0.306-0.965,0.686-1.257c0.383-0.292,0.84-0.402,1.359-0.323
			c0.581,0.081,1.107,0.267,1.574,0.558c0.642,0.413,1.737,0.962,3.272,1.646c1.535,0.686,2.646,1.24,3.324,1.674
			c2.237,1.421,3.173,3.399,2.811,5.934c-0.196,1.373-0.836,2.327-1.915,2.867c-0.744,0.375-1.954,0.624-3.616,0.743l-1.953,0.148
			c-2.387,0.254-3.7,1.207-3.937,2.854c-0.108,0.765,0.378,1.402,1.458,1.92c0.742,0.349,1.619,0.598,2.638,0.743
			c0.562,0.081,1.257,0.105,2.087,0.078c1.048-0.035,1.733-0.171,2.065-0.407c0.681-0.499,1.207-0.724,1.577-0.67
			c0.49,0.071,0.896,0.313,1.229,0.731c0.33,0.422,0.46,0.869,0.386,1.359c-0.169,1.212-1.238,2.026-3.202,2.438
			c-1.521,0.328-3.073,0.379-4.666,0.149c-2.172-0.312-3.908-0.978-5.207-2.007c-1.569-1.25-2.211-2.869-1.929-4.843
			c0.344-2.416,1.596-4.119,3.758-5.11c1.485-0.678,3.656-1.068,6.516-1.165c0.363-0.01,0.731-0.059,1.118-0.14
			c0.149-1.143-0.698-2.238-2.538-3.296c-1.807-0.889-3.144-1.514-4.023-1.874c-0.272,0.975-0.531,1.607-0.754,1.897
			c-0.325,0.409-0.828,0.568-1.493,0.473C259.922,86.924,259.513,86.696,259.227,86.307z"/>
	</g>
	<path fill="#FFFFFF" d="M313.859,78.883c-1.206,8.448-9.429,14.258-18.356,12.984c-8.933-1.277-15.195-9.161-13.99-17.607
		c1.211-8.447,9.429-14.256,18.364-12.98C308.806,62.557,315.069,70.436,313.859,78.883z"/>
	<line fill="none" stroke="#A9D7D5" stroke-width="0.4133" x1="289.993" y1="63.227" x2="305.021" y2="90.206"/>
	<line fill="none" stroke="#A9D7D5" stroke-width="0.4133" x1="289.993" y1="63.227" x2="305.021" y2="90.206"/>
	<line fill="none" stroke="#A9D7D5" stroke-width="0.4133" x1="286.599" y1="65.476" x2="308.423" y2="87.959"/>
	<line fill="none" stroke="#A9D7D5" stroke-width="0.4133" x1="283.944" y1="68.489" x2="311.071" y2="84.944"/>
	<line fill="none" stroke="#A9D7D5" stroke-width="0.4133" x1="282.216" y1="72.064" x2="312.803" y2="81.37"/>
	<line fill="none" stroke="#A9D7D5" stroke-width="0.4133" x1="281.524" y1="75.956" x2="313.492" y2="77.476"/>
	<line fill="none" stroke="#A9D7D5" stroke-width="0.4133" x1="281.929" y1="79.897" x2="313.092" y2="73.534"/>
	<line fill="none" stroke="#A9D7D5" stroke-width="0.4133" x1="283.396" y1="83.624" x2="311.625" y2="69.808"/>
	<line fill="none" stroke="#A9D7D5" stroke-width="0.4133" x1="285.815" y1="86.878" x2="309.2" y2="66.551"/>
	<line fill="none" stroke="#A9D7D5" stroke-width="0.4133" x1="289.042" y1="89.445" x2="305.979" y2="63.987"/>
	<line fill="none" stroke="#A9D7D5" stroke-width="0.4133" x1="292.838" y1="91.139" x2="302.178" y2="62.292"/>
	<line fill="none" stroke="#A9D7D5" stroke-width="0.4133" x1="296.956" y1="91.853" x2="298.063" y2="61.578"/>
	<path fill="#7DC242" d="M297.232,85.975c0,0,7.141,22.284-0.4,36.504l1.56,0.332c0,0,7.936-12.973,0.377-37.157
		C291.212,61.469,297.232,85.975,297.232,85.975z"/>
	<line fill="none" stroke="#A9D7D5" stroke-width="0.4133" x1="301.113" y1="91.532" x2="293.904" y2="61.897"/>
	<path fill="#FFFFFF" d="M308.262,78.154c-0.801,5.604-6.257,9.467-12.19,8.616c-5.934-0.846-10.089-6.08-9.288-11.689
		c0.801-5.608,6.262-9.468,12.19-8.619C304.906,67.308,309.065,72.542,308.262,78.154z"/>
	<path fill="#419F47" d="M293.84,123.94c10.944,9.064,15.231-10.215,19.062-15.083c2.685,4.529,11.444,7.013,16.625,7.177
		c-7.229-4.213-8.792-13.122-14.898-18.195c-2.474,2.021-5.165,3.87-8.651,2.207c0.371,3.044,2.94,5.195,5.227,7.07
		c-1.916-1.195-3.91-3.398-4.575-4.45c-1.102,7.623-2.871,16.145-10.161,19.768c-1.082-6.414,1.193-15.567-2.929-20.998
		c-4.385-5.772-12.304-8.644-13.684-16.191c-0.479,3.858-0.032,8.601,2.081,12.135c2.044,3.426,5.682,4.502,7.988,6.987
		c2.183,2.358,6.064,19.25,4.805,20.162"/>
	
		<text transform="matrix(0.969 0.2473 -0.2473 0.969 339.7539 80.2158)" fill="#030303" font-family="'ComicSansMS'" font-size="11.1952">™</text>
</g>
</svg>
