<?xml version="1.0" encoding="utf-8"?>
<!-- Generator: Adobe Illustrator 16.0.3, SVG Export Plug-In . SVG Version: 6.00 Build 0)  -->
<!DOCTYPE svg PUBLIC "-//W3C//DTD SVG 1.1 Basic//EN" "http://www.w3.org/Graphics/SVG/1.1/DTD/svg11-basic.dtd" [
	<!ENTITY ns_flows "http://ns.adobe.com/Flows/1.0/">
	<!ENTITY ns_extend "http://ns.adobe.com/Extensibility/1.0/">
	<!ENTITY ns_ai "http://ns.adobe.com/AdobeIllustrator/10.0/">
	<!ENTITY ns_graphs "http://ns.adobe.com/Graphs/1.0/">
]>
<svg version="1.1" baseProfile="basic" id="Layer_1" xmlns:x="&ns_extend;" xmlns:i="&ns_ai;" xmlns:graph="&ns_graphs;"
	 xmlns="http://www.w3.org/2000/svg" xmlns:xlink="http://www.w3.org/1999/xlink" xmlns:a="http://ns.adobe.com/AdobeSVGViewerExtensions/3.0/"
	 x="0px" y="0px" width="800px" height="1280px" viewBox="0 0 800 1280" xml:space="preserve">
<g>
	<defs>
		<rect id="SVGID_1_" x="0" y="0" width="800" height="1280"/>
	</defs>
	<clipPath id="SVGID_2_">
		<use xlink:href="#SVGID_1_"  overflow="visible"/>
	</clipPath>
	
		<rect x="-1274.751" y="-2.771" clip-path="url(#SVGID_2_)" fill="#90298C" stroke="#FFFFFF" stroke-width="1.2667" width="2111.972" height="1291.456"/>
	<path clip-path="url(#SVGID_2_)" fill="#F7EA31" d="M837.221,51.891c0,0-293.193-81.994-514.329-29.816
		c0,0-89.238,53.077-114.294,44.724c-14.908-4.969-47.209-57.147-84.479-9.938c-37.27,47.209-91.934,124.233-233.56,94.418
		c-141.626-29.816-673.346,32.3-611.229,181.381c62.117,149.08-19.877,96.902-62.117,141.626
		c-42.239,44.725-236.044,171.442-81.994,193.805s342.885,27.332,347.854,94.418c4.97,67.086-154.05,233.559-59.631,273.314
		c94.417,39.755,163.987,0,173.927,0c9.938,0,14.908,32.301-19.877,84.478c-34.786,52.179-29.816,119.264,12.423,119.264
		c42.24,0,1247.307,0,1247.307,0V51.891z"/>
	<path clip-path="url(#SVGID_2_)" fill="#82C341" d="M837.221,125.415c0,0-213.684-142.178-454.697-90.477
		C141.512,86.639,243.383,112.49,183.751,91.809c-59.633-20.68-136.658,124.082-275.799,98.231
		c-139.143-25.851-278.284-25.851-385.125,25.851c-106.841,51.701-221.136,87.892-201.258,155.103
		c19.877,67.211,7.454,87.891-29.816,108.572c-37.27,20.68-193.805,157.688-9.938,199.049
		c183.865,41.36,236.043,80.136,231.074,162.857c-4.97,82.721-109.325,237.825,9.938,222.313
		c119.265-15.509,104.356-41.36,94.418,62.041c-9.939,103.402-47.209,162.857,37.27,162.857c84.479,0,1182.705,0,1182.705,0V125.415
		z"/>
	<path clip-path="url(#SVGID_2_)" fill="#050907" d="M-584.442,623.58c-163.876-46.822-96.765-162.317-73.353-166.998
		c13.994-2.8,56.186-7.804,35.897-78.039c-11.88-41.118,108.077-96.609,146.708-120.178
		c49.462-30.162,242.077-15.117,298.067-24.125c77.024-12.398,156.44-15.448,231.054-38.932
		c94.771-29.836,216.221-100.98,314.918-93.929c42.04,3.005,119.978-54.414,161.504-47.209
		c33.813,5.865,189.864,33.58,223.619,39.755c79.44,14.529-35.019,127.439,33.654,174.677c38.438,26.441,62.78,65.72,65.733,116.029
		c4.047,69.096-28.034,134.744-10.127,207.241c19.408,78.563,53.466,117.868,10.127,210.184
		c-21.989,46.851,26.76,80.955,8.457,129.743c-13.646,36.408-19.744,74.229-20.955,112.866
		c-1.13,36.068,0.906,72.985-14.156,106.815c-17.485,39.278-55.269,67.871-90.182,90.754
		c-92.014,60.312-196.257,100.166-307.015,100.809c-50.588,0.296-99.199-0.371-147.221-18.426
		c-32.363-12.171-60.784-30.217-95.854-34.727c-51.648-6.633-103.509,10.128-151.855,25.691
		c-40.453,13.021-96.476,40.735-139.952,27.019c-33.292-10.497-43.043-39.192-63.239-63.63
		c-18.851-22.822-44.271-35.463-72.541-42.783c-57.166-14.798-128.214-9.975-121.659-88.387
		c3.904-46.7,73.798-146.414,17.49-179.605c-23.768-14.003-54.181-11.756-78.014-26.389c-29.894-18.356-32.041-47.538-31.842-80.003
		c0.411-65.445,33.639-77.756-4.406-138.337c-26.499-42.189-59.308-68.672-90.522-84.278"/>
	<path clip-path="url(#SVGID_2_)" fill="#FFFFFF" d="M522.765,941.886c0,0-11.287-19.974-3.472-53.837
		c7.815-33.864,20.839-47.756,24.313-60.783c3.473-13.025,14.761-6.078,14.761-6.078l65.124,30.391l-18.235,99.858"/>
	<ellipse clip-path="url(#SVGID_2_)" fill="#C6C9C7" cx="287.882" cy="904.545" rx="76.846" ry="55.574"/>
	<rect x="-355.196" y="902.809" clip-path="url(#SVGID_2_)" fill="#F5F6F6" width="646.987" height="6.947"/>
	<ellipse clip-path="url(#SVGID_2_)" fill="#F5F6F6" cx="312.629" cy="904.112" rx="25.181" ry="20.406"/>
	<ellipse clip-path="url(#SVGID_2_)" fill="#C6C9C7" cx="98.543" cy="650.994" rx="76.846" ry="55.574"/>
	<rect x="-355.196" y="649.256" clip-path="url(#SVGID_2_)" fill="#F5F6F6" width="457.648" height="6.947"/>
	<ellipse clip-path="url(#SVGID_2_)" fill="#F5F6F6" cx="123.291" cy="650.56" rx="25.181" ry="20.406"/>
	<g clip-path="url(#SVGID_2_)">
		<path fill="#C1C4C4" d="M564.074,577.122c0,0-6.385,30.385-6.641,41.875c0,0-1.236,8.128,3.871,7.107
			c5.105-1.021,5.347,0.452,6.161,2.738c0.817,2.287-0.855,6.164-0.855,6.164l-4.068,0.844l0.766,8.938l-4.852,19.66
			c0,0,86.101-5.597,97.336-3.555c11.235,2.041-15.114-23.256-15.114-23.256l-4.342-70.218"/>
		<path fill="#A2A5B4" d="M563.749,641.571c0,0,3.476-2.388,4.126,1.086c0.65,3.474,5.21,12.591,5.21,12.591s0.867,5.21,4.774,3.689
			c3.908-1.52,14.547-5.426,17.585-5.426s11.938-8.684,6.729-23.229c-5.21-14.544-3.69-8.683,0-12.808
			c3.692-4.125,2.606-10.203,1.521-12.59c0,0-2.172-2.604-4.776,1.737c-2.605,4.341-11.723,12.808-22.793,8.466
			c-11.071-4.342-11.29-7.597-11.29-8.466c0-0.869,33.215-9.118,33.215-9.118l8.248-1.519l12.158-3.256l5.859,7.598l4.776,9.768
			l7.815,21.709c0,0,5.645,6.946,6.73,7.597c1.084,0.651,9.551,18.887,9.551,18.887l-8.684-2.172c0,0-6.078-8.684-7.598-12.59
			c-1.521-3.907-8.9-3.474-8.032-11.722c0.868-8.25-13.025-10.638-9.551-19.104c3.472-8.466-4.343-11.506-6.295-9.552
			c-1.956,1.954-1.738,11.939-4.344,14.762c-2.604,2.822-2.604,9.552-0.649,13.459c1.953,3.907,0.982,17.035,5.324,16.6
			c4.342-0.434,7.636-0.314,6.769,7.934c-0.87,8.249-48.563,9.33-49.431,10.416c-0.869,1.086-6.079-4.342-6.079-4.342
			L563.749,641.571"/>
		<path fill="#26302F" d="M586.76,658.937l52.967-19.134c0,0,3.732,1.166,5.834,3.266c2.099,2.101,6.768,14.002,6.768,14.002
			L586.76,658.937z"/>
		<path fill="#FFFFFF" d="M560.084,640.446c-1.504,1.059-1.487,2.593-3.744,2.755c1.914-0.007,0.89,1.813,0.264,2.755
			c-0.883,1.333-2.033,1.774-3.565,1.935c2.852,0.659-0.943,6.209-2.88,6.504c0.143,0.082,0.283,0.126,0.427,0.202
			c0.444,2.406-3.295,4.487-4.258,6.479c0.596-0.012,2.286-0.501,2.708,0.022c0.386,0.472-0.343,2.275-0.288,2.926
			c0.265-0.168,0.719-0.244,0.981-0.434c-0.864,2.448-3.522,3.925-3.044,6.986c0.989-0.972,2.224-2.287,3.586-2.857
			c0.866,2.374,0.233,5.045-0.486,7.287c0.659-0.952,2.094-2.004,3.214-2.346c0.059,0.943-0.237,1.827-0.287,2.734
			c4.037-2.363,8.659-3.514,12.581-6.152c3.147-2.115,4.15-6.205,6.142-9.122c-1.408-0.358-2.418-3.284-3.039-4.525
			c-0.97-1.931-1.256-3.733-1.596-5.85c-0.455-2.853-4.686-7.651-2.431-10.121c-1.495-0.63-4.599-0.206-5.146,1.338"/>
		<path fill="#6B7174" d="M557.33,675.747c-1.166-0.423-1.271-2.093-0.754-3.112c-0.591,0.133-1.13,0.199-1.769,0.197
			c0.639-1.036,1.173-2.43,1.286-3.611c-0.536,0.307-1.109,0.668-1.666,0.998c0.382-1.456,0.733-3.188,1.636-4.43
			c-0.868-0.078-1.721,0.369-2.457,0.638c0.995-1.765,1.911-2.241,1.802-4.445c-1.027,0.769-2.424,1.17-3.382,2.042
			c-0.443-2.322,1.718-5.129,3.519-6.365c-0.742,0.205-1.551,0.455-2.344,0.33c0.551-1.211,1.656-2.317,2.565-3.215
			c-0.674-0.079-1.348,0.067-2.001,0.111c1.235-1.604,4.01-3.061,4.057-5.26c-0.479,0.543-0.988,1.033-1.685,1.131
			c1.158-1.877,3.367-3.355,4.655-5.148c-0.996-1.129,0.67-2.081,1.345-2.859c-0.442,0.244-0.895,0.156-1.34,0.256
			c-0.252-2.858,2.069-4.145,4.56-4.292c-0.521,1.434-0.319,3.415,0.883,4.472c0.246-0.5,0.619-0.7,0.912-1.127
			c-0.228,1.102-0.831,2.238-0.838,3.361c0.248-0.186,0.889-0.379,1.147-0.656c0.049,0.891-0.314,2.495,0.244,3.223
			c0.612,0.797,1.137,0.106,1.51,0.888c0.601,1.258-0.25,4.801-0.143,6.365c0.138-0.102,0.325-0.233,0.477-0.347
			c0.718,0.617-0.25,2.992,1.181,2.453c0.093,0.67,0.193,1.352,0.229,2.031c0.154-0.1,0.488-0.205,0.63-0.311
			c1.217,1.547,0.06,4.628-0.698,6.17c-0.536,1.096-1.297,2.114-1.688,3.28c-0.268,0.798-0.17,1.61-0.51,2.351
			c-0.177-0.553-0.366-1.11-0.56-1.646c-1.688,1.557-1.8,3.994-1.884,6.166c-1.129-0.836-1.04-2.391-1.693-3.279
			c-1.279,1.324-2.947,2.289-4.459,3.233c0.409-0.406,0.63-0.772,0.818-1.223c-0.585,1.359-1.704,2.716-2.721,3.723
			c-0.739-0.505-0.84-1.726-0.865-2.608"/>
		<path fill="#6B7174" d="M578.168,621.228c0,0-4.518,11.685-8.133,12.408l-2.226,0.685c0,0,1.503-4.489,0.512-6.163
			c-1.27-2.148-5.135-2.909-5.135-2.909l2.681-2.814c0,0,8.682-4.581,11.094-3.134"/>
		<path fill="#050907" d="M571.403,634.492c0,0,15.139-2.618,22.544-1.597l-0.512-2.554c0,0,2.554,3.32,1.276,5.618l-0.765-2.042
			l-31.405,1.933L571.403,634.492z"/>
		<path fill="#050907" d="M566.627,623.958c0,0,4.851-3.575,9.957-1.788c0,0,0.256,1.788-2.042,1.788
			C572.242,623.958,566.627,623.958,566.627,623.958z"/>
		<path fill="#FFFFFF" d="M570.967,577.741c0,0-10.979,46.728-7.66,46.472c0,0,3.32-8.426,12.768-6.894c0,0,3.574,1.021,4.085,4.085
			c0,0,0.18,5.613,11.488,6.639c6.293,0.571,8.706,3.555,5.813,11.514l-0.193,2.275c0,0,1.276-5.873-1.277-9.447
			c-2.554-3.575-8.681-4.085-8.681-4.085s-9.958-2.554-10.725-6.128c-0.765-3.575-10.214,0-10.979,2.042s-3.029,1.803-5.328,1.548
			c-2.298-0.255-5.396-4.612,3.287-47.509"/>
		<path fill="#050907" d="M560.498,591.275c0,0,28.598-3.321,39.321-4.087c0,0-0.204,6.902,0.05,9.2l0.242,2.171
			c0,0-3.377,18.81-23.271,16.206c-17.767-2.326-13.533-15.576-15.576-15.065C559.222,600.211,560.498,591.275,560.498,591.275z"/>
		<polyline fill="#050907" points="599.819,587.188 637.101,583.104 638.518,589.065 598.175,598.769 		"/>
		<circle fill="#A2A5B4" cx="602.825" cy="592.511" r="2.043"/>
		<circle fill="#A2A5B4" cx="609.12" cy="591.208" r="2.043"/>
		<circle fill="#A2A5B4" cx="614.33" cy="590.123" r="2.042"/>
		<path fill="#82C341" d="M564.568,595.425c0,0-1.228,17.926,13.85,16.865c15.079-1.06,14.969-15.19,14.969-15.19
			s1.896-6.142-2.459-5.584c-4.355,0.557-25.688,2.569-25.688,2.569S564.513,594.253,564.568,595.425z"/>
		<path fill="#FFFFFF" d="M589.742,634.492l-26.286,1.93l-0.239,1.929C563.217,638.351,581.785,638.351,589.742,634.492z"/>
		<path fill="#6B7174" d="M570.451,582.644l1.93,3.376c0,0,0.723,0.965,1.688,0.724c0.964-0.241,11.817-3.376,14.951-1.688
			c0,0,0.967,0.241,1.689-0.241c0.723-0.482,1.444-3.376,1.444-3.376s0.724-1.929-0.722-2.652
			c-1.447-0.723-8.683-5.305-20.018,1.929"/>
	</g>
	<rect x="228.144" y="684.264" clip-path="url(#SVGID_2_)" fill="#FFFFFF" width="84.395" height="1.466"/>
	<path clip-path="url(#SVGID_2_)" fill="#9B9F9F" d="M646.942,939.9c1.253,18.525,9.081,39.611,15.604,57.209
		c9.189,24.798,18.062,51.278,34.235,72.252c19.646,25.483,62.69,38.418,88.852,16.401c-32.451-17.229-61.963-30.204-87.479-57.153
		c-17.089-18.049-42.937-44.559-45.737-70.096"/>
	<g clip-path="url(#SVGID_2_)">
		<path fill="#576269" d="M505.09,785.352c-1.42-0.209-1.807-2.479-2.534-0.046c2.415,5.712,0.584,12.055,3.933,17.724
			c13.386-1.053,31.187-3.714,44.921-7.127c1.774-14.288,7.895-31.855-7.905-37.971c-6.829-2.643-41.369-7.258-38.414,3.574"/>
		<path fill="#0E1516" d="M504.629,789.504c0,0,0.001,11.824,3.941,11.824c3.943,0,7.885-12.262,9.197-16.643"/>
		<path fill="#C6C9C7" d="M284.191,640.072c0.05-1.189-0.272,2.576,0.448,3.289c0.954,0.947,3.654,0.428,4.783,0.056
			c3.573-1.179,2.49-4.167,3.692-7.746c-1.665-1.266-3.643-1.14-3.382,1.364c-0.563-0.277-1.536-0.057-2.122-0.271
			c-0.335,1.918-2.14,2.109-3.794,2.561"/>
		<polygon fill="#C6C9C7" points="138.797,646.801 138.489,641.504 141.479,640.008 141.479,636.645 141.852,631.786 145.59,632.16 
			146.338,635.15 196.423,638.888 283.882,638.513 284.63,646.363 139.236,648.979 		"/>
		<path fill="#C6C9C7" d="M293.535,646.801c-0.255-1.139,8.644-4.609,10.83-5.223c1.696-0.476,7.165-1.263,8.24,0.365
			c2.474,3.75-3.606,2.492-4.867,2.908c-6.106,2.01-0.004,9.962-7.11,12.133c-4.422,1.35-13.856-2.686-9.335-8.314"/>
		<path fill="#9B9F9F" d="M316.775,683.739c0.628-5.962,3.738-7.765,3.736-12.708c-4.884-1.967-8.29-1.803-10.082-8.231
			c-0.62-2.222,0.58-5.136-0.008-7.093c-0.948-3.152-3.26-2.059-6.354-2.615c-5.132-0.924-9.267-4.17-12.617-8.317
			c-3.583-4.439,3.295-4.288-2.775-4.328l-149.878,4.485c0,0-6.354,5.98,0,17.566l83.35-1.868l3.804,22.362l5.606,0.374
			c0,0,5.233,17.192,24.294,16.818c19.063-0.373,9.345-5.232,9.345-5.232l-3.737-0.374l-5.608,2.99c0,0-16.818,0-12.333-12.334
			c4.484-12.334,16.819-4.111,16.819-4.111l4.859,7.85l53.074,0.374L316.775,683.739z"/>
		<rect x="233.799" y="647.484" fill="#C6C9C7" width="45.973" height="26.911"/>
		<path fill="#9B9F9F" d="M270.802,660.754c0,2.787-2.26,5.045-5.046,5.045h-31.022v-10.092h31.022
			C268.542,655.707,270.802,657.967,270.802,660.754L270.802,660.754z"/>
		<path fill="#576269" d="M282.388,688.225c1.733-0.521,4.134-3.328,5.879-4.58c2.706-1.943,5.533-3.615,8.323-5.428
			c4.578-2.976,10.253-7.235,15.702-7.559c1.177-0.07,11.532-1.051,12.332-0.374c1.66,1.405-3.958,6.844-4.858,8.597
			c-3.083,6.001-0.375,10.092-11.961,10.466c-8.648,0.278-17.103-0.374-25.79-0.374"/>
		<path fill="#C6C9C7" d="M282.014,672.9c3.976,2.711,5.147-7.058,6.813-8.596c2.272-2.097,11.622,0.418,7.868-6.748
			c-1.191-2.271-2.533-1.688-4.569-1.383c-3.176,0.479-2.407,2.038-4.876-1.215c-2.005-2.645-3.079-6.671-5.982-7.475"/>
		<rect x="234.564" y="650.769" fill="#FFFFFF" width="44.474" height="2.054"/>
		<path fill="#FFFFFF" d="M283.144,652.138c1.971-0.899,4.245,5.575,6.38,6.163c1.449,0.398,3.003-0.66,4.338-0.182
			c1.296,0.462,2.38,2.22,0.948,3.105c0.196-0.673-0.469-1.553-1.403-1.621c-1.897-0.141-0.486,1.143-1.353,1.661
			c-1.57,0.938-0.843-0.556-1.826-0.882c-0.753-0.252-1.938-0.032-2.717,0c-0.03,1.486-0.556,2.957-1.358,4.229
			c0.448-2.731,0.367-5.064-0.674-7.69c-0.532-1.345-2.923-3.491-2.564-4.557"/>
		<path fill="#8C93A3" d="M284.952,715.078c-4.142,3.162-6.488,10.658-9.522,15.1c-3.767,5.521-8.472,8.73-5.646,15.742
			c2.811,6.967,5.632,13.952,8.057,20.92c1.389,3.997,1.917,4.951,6.344,5.561c4.774,0.658,9.712,0.275,14.499,0.943
			c7.243,1.01,14.744,0.898,21.918,2.049c3.626,0.582,4.731,1.518,7.886-0.686c2.913-2.035,5.305-4.209,8.587-5.724
			c7.467-3.439,16.418,1.261,23.723,4.302c7.61,3.172,14.99,7.122,22.281,10.963c7.566,3.989,16.523,9.943,25.281,10.709
			c3.309,0.291,9.124,1.644,12.072-0.068c3.328-1.931,5.842-2.379,9.538-3.574c6.432-2.078,13.974-7.201,20.27-4.771
			c5.835,2.253,7.109,2.803,13.379,2.504c12.18-0.582,24.498-1.161,36.704-0.609c5.285,0.237,11.992,0.892,17.331-0.72
			c2.283-10.736,8.369-28.909-3.073-36.036c-10.279-6.403-22.951-8.228-34.803-8.5c-16.529-0.381-33.327,1.824-49.828,2.672
			c-13.317,0.684-26.824-0.631-40.024-1.903c-3.068-0.296-5.682,0.296-8.654,0.273c-2.564-0.018-5.813-1.093-8.569-1.37
			c-10.955-1.108-25.193-8.363-36.495-7.803c-7.709,0.384-13.591,8.523-20.732,10.671c-6.515,1.96-14.591,10.471-21.609,9.044
			c-6.878-1.398-16.382-6.238-17.14-13.627c-0.894-8.705,5.385-16.422,7.208-24.396c-0.107-0.475,0.224,0.331,0.333,0.392"/>
		<path fill="#FFFFFF" d="M548.012,766.274c0.872,13.239-3.409,28.421-4.739,41.731c-1.483,14.819-0.542,24.656,3.813,37.891
			c2.013,6.113,1.665,10.367,0.894,16.924c-1.009,8.541-0.653,7.287,2.122,14.573c2.526,6.626,3.79,12.734,5.359,18.847
			c2.082,8.109,1.162,9.139,11.422,12.13c0.876,6.374,2.611,12.95,3.52,19.135c0.729,4.963-1.566,18.825,0.243,22.417
			c4.558,9.051,34.62,8.672,45.151,8.139c1.455-58.705-9.963-118.93-7.239-177.543c0.336-7.252,3.549-24.307,0.293-30.695
			c-4.031-7.903-9.184-4.645-18.182-3.491c-14.296,1.835-27.637,5.683-41.287,8.2c-0.962,5.706-1.993,11.262-3.753,16.514"/>
		<path fill="#A2A5B4" d="M261.508,688.086c0.805-1.651,11.798,0,14.44,0c5.856,0,11.599,0.089,17.329,0.678
			c5.042,0.518,10.307,0.338,15.462,0.338c3.304,0,5.531,0.557,7.527-2.357c1.318-1.923,1.429-4.323,2.594-6.312
			c6.788,4.929,13.867,14.494,18.073,21.791c5.049,0.314,10.094,0.552,15.139,1.063c4.418,0.446,11.345,2.088,15.572,0.092
			c2.784-1.316,11.406-1.391,14.633-2.684c5.683-2.274,10.859-2.83,16.692-4.768c9.618-3.193,18.294-5.62,29.29-10.018
			c6.539-2.615,14.883-0.945,21.633-2.726c4.557-1.201,6.603-0.003,11.077,2.012c16.656,7.491,26.927,9.44,45.897,4.909
			c6.462-1.543,12.965-5.735,19.283-8.109c7.383-2.773,17.625,8.891,20.936,15.141c4.041,7.622,6.717,16.025,9.72,24.08
			c3.619,9.721,5.802,19.462,6.429,29.816c0.306,5.018,3.498,26.693-4.302,26.885c-3.219,0.079-7.4-1.307-10.748-1.62
			c-3.969-0.37-7.937-0.624-11.896-1.016c-7.161-0.708-12.003,0.175-19.275,1.724c-5.533,1.176-15.381,2.248-19.944,5.404
			c-3.94-3.746-8.142-6.174-13.521-5.363c-3.093,0.469-5.985,0.783-9.207,0.938c-3.976,0.193-7.568,1.709-11.405,2.376
			c-6.1,1.06-9.939-1.063-15.549-3.126c-10.335-3.803-20.418-7.967-30.679-12.091c-11.692-4.7-23.633-8.634-35.563-12.761
			c-9.426-3.26-18.293-7.817-27.974-10.651c-6.342-1.856-16.334-4.979-23.064-3.296c-2.873,0.719-5.636,2.877-8.442,4.07
			c-3.803,1.621-8.684,1.841-12.859,2.03c-6.217,0.28-12.41,0.663-18.495,1.022c-5.227,0.309-11.462,2.073-16.585,1.284
			c0.057-3.473-0.413-6.382-3.17-8.306c-3.255-2.271-4.959-3.082-4.333-7.865c0.601-4.602,1.903-4.87-1.411-8.771
			c-2.61-3.072-2.279-6.049,0.448-9.48c-1.95-4.742,1.353-9.606-4.098-13.264c-3.654-2.449-10.765-2.349-14.87-1.41
			c-3.188-2.698-2.501-7.491-2.307-11.299c7.158-0.644,13.665-0.362,20.563,0.627"/>
		<g>
			<path fill="#050907" d="M555.577,722.229c5.211,2.218-0.336,18.373-0.358,22.732c-2.277-4.987-5.471,1.376-7.717,1.609
				c0.145-10.202-9.631-9.629-17.777-8.868c-4.423,0.413-8.744,1.288-13.265,0.513c-5.271-0.904-10.244-3.113-15.579-3.699
				c-11.826-1.297-24.262-0.506-36.025-2.51c-5.791-0.986-10.7-3.408-15.881-5.988c-3.386-1.688-7.89-5.788-11.523-6.412
				c-2.464-0.425-6.044,1.186-4.956,4.473c0.672,2.025,7.495,7.234,9.217,8.626c5.465,4.421,12.89,6.896,18.259,9.663
				c-8.695-0.033-16.004-3.596-24.137-5.316c-8.468-1.791-16.185-2.541-23.274-7.861c-3.706-2.779-7.473-5.234-11.146-8.027
				c-3.475-2.643-13.369-14.055-18.278-9.882c-6.262,5.32,14.529,11.274,17.222,13.272c3.065,2.275,14.362,14.756,4.175,14.254
				c-3.437-0.17-7.03-3.107-10.091-4.571c-4.36-2.089-9.291-2.768-14.018-3.969c-10.432-2.654-19.904-7.773-29.425-12.588
				c-3.63-1.837-6.791-2.802-10.835-2.14c-5.271,0.866-9.987,4.048-14.158-0.283c-2.431-2.527-4.015-5.648-6.668-8.132
				c-2.594-2.425-5.266-3.943-6.691-7.319c-4.857,1.44-10.076,2.943-15.318,2.004c-4.373-0.785-8.321-2.142-12.858-2.344
				c-7.066-0.315-14.427,0.65-21.24,0.358c-0.248,2.443,2.317,4.94,3.027,7.301c1.24,4.122-0.102,4.423-1.839,7.823
				c-3.04,5.945,4.151,9.338,3.807,15.803c-0.219,4.097-0.512,4.65,2.777,7.274c1.256,1.001,2.561,1.339,3.494,2.814
				c0.688,1.093,0.534,2.979,1.36,3.948c3.205,3.765,13.441-0.736,17.919-1.635c6.293-1.26,11.708-1.128,18.196-0.785
				c3.05,0.162,6.658,0.405,9.681,0c3.362-0.448,5.398-2.14,8.52-3.59c6.386-2.969,12.602-1.252,18.979,0.966
				c6.021,2.095,12.601,4.489,18.289,7.35c14.621,7.351,30.286,11.01,45.228,16.653c11.453,4.326,23.532,12.193,36.02,12.337
				c3.982,0.046,16.843-0.853,17.834-5.83c1.541-7.724-16.987-5.864-21.328-5.827c-2.943,0.024-10.762,0.737-10.08-4.242
				c0.706-5.162,10.218-3.476,13.572-3.485c8.951-0.024,18.3,1.835,25.95,6.692c6.126,3.888,11.768,9.005,18.593,12.006
				c7.455,3.277,15.157-6.039,22.019-8.589c0.982,7.673,8.181,6.045,13.996,6.934c5.915,0.902,11.68,2.244,17.817,3.183
				c5.064,0.775,13.346,3.08,16.184-2.109c2.846-5.209,2.013-12.561,2.02-18.504c0.006-4.338-3.473-35.46-9.293-32.92"/>
			<path fill="#FFFFFF" d="M526.918,681.949c-7.741,1.209-15.706,6.456-23.625,8.834c-3.938,1.181-8.435,2.422-12.395,2.794
				c-4.016,0.378-8.038-0.649-11.947-0.317c2.344,3.416,6.99,5.59,10.785,7.205c3.543,1.507,6.826,3.717,10.314,5.146
				c-1.642-6.396,38.424-9.439,44.623-7.453c-3.14-3.51-3.204-8.723-6.816-12.043c-2.034-1.87-9.234-5.421-11.327-4.94"/>
			<path fill="#FFFFFF" d="M336.754,700.541c7.517-0.517,15.827-0.449,23.529-1.185c9.087-0.866,17.277-3.003,26.045-4.938
				c15.841-3.495,30.608-10.643,46.477-14.888c5.472-1.464,13.668-2.337,18.686,0.859c4.293,2.735,7.978,6.079,12.548,8.549
				c-5.453-0.082-10.358-2.167-16.131-1.556c-6.665,0.706-12.987,3.577-19.383,5.42c-4.779,1.377-10.405,1.46-8.974,7.735
				c1.194,5.238,5.442,9.876,6.62,15.047c-6.384,1.277-8.498-8.117-12.817-11.173c-4.493-3.179-9.918-5.313-15.406-5.056
				c-6.766,0.318-14.023,1.417-20.525,3.604c-2.099,0.707-6.829,2.758-7.303,5.326c-0.466,2.552,3.173,4.125,4.154,6.195
				c-3.039,2.625-8.196-0.783-10.785-2.701c-4.157-3.078-7.755-4.988-12.791-6.292c-7.091-1.836-16.836-0.22-19.866-8.764
				c-0.138-0.146-0.144-0.142-0.021,0.013c2.048,1.838,5.164,4.689,7.881,3.028"/>
			<path fill="#FFFFFF" d="M241.479,686.598c-1.052,8.917,5.086,12.869,13.137,10.758c-0.188-0.081-0.617-0.193-1.015-0.299
				c4.835,0.201,11.171,3.15,9.964,9.302c-0.558,2.839-3.374,3.731-2.623,6.886c0.644,2.709,2.575,3.736,2.613,7.049
				c0.041,3.301-1.619,5.791,0.388,8.518c1.889,2.568,3.64,2.308,4.26,5.813c0.647,3.654-0.788,5.173,2.347,7.646
				c1.753,1.387,4.752,2.265,6.889,2.364c-0.599-6.163-9.186-5.739-9.624-12.724c-0.209-3.35,0.203-5.936-1.249-8.906
				c-1.356-2.782-3.634-4.186-2.923-7.745c0.618-3.099,3.345-4.634,2.717-7.842c-0.495-2.544-2.527-4.744-3.192-7.265
				c-1.236-4.675-0.981-3.586-5.421-5.123c-3.145-1.087-3.637-3.73-5.715-5.032c-0.003-0.004-0.788-1.464-0.772-1.433
				c-0.776,1.449-1.197,2.923-1.318,4.558c-2.435,0.386-6.807-0.479-6.543-3.813c0.275-3.505,4.44-2.881,6.852-3.475
				c-2.511-0.995-11.155-2.998-10.32,2.313"/>
		</g>
		<path fill="#050907" d="M270.212,738.047c2.841,1.175,6.412-0.555,9.54-0.292c0.851,2.933,1.868,20.358,7.208,18.749
			c0.046-3.172-1.408-6.448-2.014-9.545c-0.534-2.73-0.573-5.563-1.656-8.141c1.842-1.09,4.567-0.997,6.804-1.115
			c3.883-0.204,4.758-0.444,5.142,3.385c0.601,5.99,2.509,12.576,2.109,18.502c0.646,0.195,1.995,0.193,2.64,0
			c-0.396-5.034,0.681-10.06-0.367-15.031c-1.162-5.524-1.464-8.165,5.217-8.227c2.739-0.025,3.762-0.174,4.874,2.049
			c1.349,2.689,0.563,6.979,1.03,9.946c0.67,4.257,1.812,8.909,3.061,12.978c0.629,0.091,2.041-0.086,2.64-0.344
			c0.881-5.912-5.129-13.463-0.027-17.523c1.01-0.803,2.24-1.582,3.43-2.049c2.408-0.947,1.481-1.219,3.495,0.086
			c2.403,1.557,2.862,4.83,5.151,6.555c5.278-3.482,9.07-6.883,16.111-5.793c5.845,0.903,10.605,5.58,15.845,8.227
			c5.805,2.934,11.618,6.424,17.407,8.477c3.766,1.333,7.02,3.739,10.712,5.168c3.413,1.321,6.552,1.115,10.114,1.715
			c9.431,1.586,19.591,5.289,28.535,9.17c5.285,2.292,12.966,5.953,19.069,3.822c-5.074,4.32-10.577,6.176-16.918,8.002
			c-6.143,1.771-13.196,4.043-19.367,2.725c-6.672-1.424-13.474-5.477-20.064-7.874c-8.105-2.952-15.675-6.491-23.47-9.94
			c-4.717-2.088-10.342-4.998-15.35-5.912c-2.362-0.434-3.917-0.184-5.896-1.622c-2.042-1.486-2.44-4.073-4.303-5.526
			c-2.52,4.102-9.16,10.185-13.452,12.564c-5.018,2.779-13.054,1.583-18.511,0.493c-6.791-1.356-13.521-1.708-20.501-2.56
			c-2.05-0.251-6.814,0.257-8.57-0.678c-1.775-0.945-2.833-4.391-3.402-6.102c-1.341-4.04-1.476-8.27-2.482-12.34
			c-0.484-1.949-3.81-9.926-3.782-9.942"/>
		<path fill="#A2A5B4" d="M271.269,735.966c4.405-0.405,10.281-11.577,12.119-15.245c2.022-4.027,1.951-5.799,7.02-5.792
			c2.987,0.005,6.216,0.719,8.879,1.907c-4.875,5.598-10.376,11.361-14.801,17.316c2.296,1.93,7.593-5.979,9.337-7.942
			c2.66-2.995,5.531-5.495,7.682-8.795c2.352,0.253,4.592,1.293,6.927,1.845c-4.186,5.708-9.156,11.711-12.667,17.896
			c3.075-1.349,3.891-1.153,5.992-4.244c1.75-2.575,3.599-4.825,5.555-7.312c0.848-1.075,2.726-4.626,3.958-5.121
			c2.148-0.861,5.954,1.768,7.835,2.445c-2.515,5.384-5.97,10.504-8.681,15.793c0.759,0.264,1.365,0.896,2.262,0.959
			c-0.085,1.024,0.06,2.289,0.351,3.043c0.831-1.488,0.509-3.805,0.906-5.535c0.467-2.026,1.464-3.625,2.447-5.486
			c1.862-3.521,2.836-8.949,7.318-7.087c1.596,0.663,4.521,2.173,5.504,3.666c1.323,2.005,0.277,2.999-1.16,4.953
			c-1.834,2.491-4.619,5.011-4.695,8.179c-12.068,0.078-7.019,12.573-7.622,19.816c-4.016-0.276-3.654,0.569-4.291-3.85
			c-0.376-2.619-0.851-5.166-1.446-7.689c-0.822-3.473-1.258-11.766-5.193-12.575c-7.262-1.493-6.259,7.038-6.03,11.646
			c0.128,2.548,0.532,5.334,0.238,7.941c-0.301,2.676-2.269,5.072-3.673,1.525c-0.758-1.914-0.148-5.527-0.357-7.623
			c-0.239-2.391-0.644-5.028-1.145-7.311c-1.187-5.422-4.646-5.361-9.716-4.532c-0.217,4.376,1.967,7.727,2.993,11.843
			c0.909,3.65,1.884,7.895-3.598,6.967c-1.458-5.197-2.485-10.458-4.092-15.436c-1.521-4.711-5.346-5.217-9.643-3.238
			c0.156-0.583,0.466-1.447,0.878-2.012"/>
		<path fill="#FFFFFF" d="M600.614,572.862c1.964,2.891,5.873,7.993,9.771,6.87c-0.235,5.319,4.822,4.961,8.576,5.616
			c-4.254,4.442,2.826,12.78,7.444,13.767c-4.079,5.376,5.218,9.98,5.842,13.613c0.529,3.095-1.886,5.287,0.193,8.587
			c1.549,2.456,4.121,3.531,6.823,3.988c-0.483,4.327,0.292,10.474,5.976,9.215c-0.597,1.877-0.333,4.049,0.306,5.913
			c0.396,1.155,1.182,2.719,2.093,3.526c0.554,0.491,2.181,0.704,2.49,1.148c0.743,1.067-0.006,2.545,1.073,3.75
			c1.68,1.873,4.082,0.854,6.199,0.479c-3.095,1.837,0.854,5.861,3.574,3.921c0.253,3.544,0.407,9.842,5.905,7.747
			c-1.477,3.328,4.464,4.055,5.499,0.967c-1.345,3.086,3.44,3.885,5.567,3.198c1.323,4.784,5.59,3.146,8.378,0.647
			c2.999,3.438,10.222-1.783,11.9-4.514c-1.633,0.785-0.741,2.054,0.369,2.893c1.926,1.456,6.327-0.281,7.99-1.482
			c3.678-2.664,7.652-8.957,8.054-13.535c-7.255,3.854-19.541,0.516-19.41-8.667c-2.62,4.549-10.447,4.275-13.953,0.625
			c-0.947,2.986-3.8,4.71-6.848,3.419c-3.765-1.595-4.681-6.198-4.8-9.731c-4.77-0.33-2.745-7.252-1.464-9.828
			c-4.95,0.17-16.554-2.468-11.412-9.31c-4.081,3.13-9.745,0.097-7.963-4.994c-4.871,1.818-10.442-0.497-9.217-6.229
			c-4.32,0.462-4.784-4.274-1.856-6.528c-1.097-0.802-3.396-1.264-4.094-2.494c-1.41-2.476,1.152-4.972,2.628-6.536
			c-2.708,0.82-4.616,2.345-6.256-0.571c-1.025-1.823-0.683-4.679,0.655-6.183c-4.789,0.006-7.398-1.552-3.515-5.597
			c-3.104,3.265-16.298,2.002-13.049-3.944c2.079,0.94,5.178-0.93,6.367-2.768c-3.482,2.282-11.155,1.811-14.436-0.738
			c1.159,1.914,1.259,4.759-1.847,4.367c-1.664-0.21-3.322-2.76-4.084-3.859C599.999,570.725,600.319,571.852,600.614,572.862"/>
		<path fill="#FFFFFF" d="M557.133,572.817c-3.437,8.877,15.212,13.402,16.607,4.166c1.954,5.019,7.772,1.801,10.129-1.505
			c4.46,3.911,11.876,6.399,15.637,0.82c1.717,7.798,9.673,8.384,15.081,4.818c-0.438,2.899,0.692,5.311,3.481,6.218
			c-0.919,3.153-0.897,6.449,0.254,9.463c1.582,4.14,6.262,5.192,7.919,8.415c1.647,3.206-1.039,7.129-0.396,10.798
			c0.868,4.948,4.331,6.09,6.682,9.787c1.65,2.598,1.124,6.292,2.752,9.409c2.225,4.256,6.542,4.449,9.44,7.678
			c2.873,3.203,10.537,26.846,18.061,15.871c-3.425,9.047,11.28,16.018,14.486,8.724c7.024,7.673,16.029,4.067,19.713-4.608
			c6.974,4.361,15.178,2.65,17.312-4.971c11.227,5.393,32.722-6.772,27.338-20.496c20.116,4.707,44.376-25.493,35.65-44
			c5.742-4.313,9.371-15.82,4.301-21.995c7.203-3.018,7.49-14.068,8.656-20.515c1.748-9.633,0.042-19.464-9.477-24.817
			c0.28-5.761,1.06-10.708-1.476-16.335c-3.273-7.264-6.422-4.754-10.851-8.331c-2.788-2.252-4.57-5.875-7.693-8.309
			c-2.102-1.637-5.859-5.53-8.793-6.104c0.475-12.176-14.146-25.005-25.487-16.575c-3.406-10.968-10.416-10.205-19.711-12.62
			c-5.051-1.313-13.686-9.976-18.533-3.663c-2.276-10.082-20.513-15.145-24.952-4.116c-8.098-5.706-17.091-10.692-23.157-0.208
			c-9.541-9.642-22.783-0.404-29.68,7.134c-1.089,1.189-0.764,3.762-1.997,4.699c-1.86,1.415-7.129,1.261-9.487,2.16
			c-5.111,1.951-9.382,4.221-7.099,10.33c-6.914-0.684-15.465,1.705-13.712,10.132c-6.488,0.552-15.239,8.883-12.856,15.784
			c-11.438-2.947-19.362,10.435-13.852,20.604c-4.59-2.904-10.74-0.699-12.128,4.867c-1.161,4.665,2.795,8.088,5.443,11.539
			c-9.09,0.64-14.334,15.018-4.13,17.86c-4.054,9.833,3.763,26.562,15.153,21.32"/>
		<path fill="#7A8083" d="M579.795,567.196c2.518,2.027,5.967,1.926,8.74,0.888c0.199,5.613,7.539,5.46,10.456,1.563
			c2.294,3.867,10.281,4.768,14.174,2.587c1.354,0.415,3.553,1.482,4.887,2.057c0.174,3.87,3.246,6.358,6.701,7.577
			c-1.757,7.65,2.522,7.384,5.103,12.702c1.751,3.609-0.951,10.497,6.02,9.89c-0.507,3.653,0.627,5.724,0.94,8.809
			c0.211,2.075,0.209,7.188,1.85,9.614c0.896,1.325,2.79,1.477,3.636,2.574c0.503,0.649,2.276,2.68,3.124,3.578
			c2.478,2.617,2.378,5.879,7.573,5.591c0.755,3.148,0.064,8.244,4.118,7.707c2.063,5.26,3.933,12.063,7.654,16.267
			c1.819-1.77,4.156-2.774,6.743-2.739c1.466,2.65,4.487,1.691,6.868-0.014c-0.113,0.97,0.327,2.281,0.221,3.236
			c5.509,2.121,11.596,1.271,16.854,2.348c5.587,1.144,12.427,3.059,15.372-4.164c3.756-0.626,6.85,0.662,10.33,0.032
			c3.217-0.579,6.502-2.474,9.431-3.582c9.929-3.766,7.941-9.077,9.129-16.88c22.233,5.635,44.618-22.484,39.016-43.6
			c-1.102-4.147-4.531-7.977-4.985-12.226c-0.474-4.417,2.811-10.173,4.316-14.212c3.813-10.213,8.084-20.486,1.049-30.281
			c-1.864-2.596-4.2-4.8-6.616-6.894c5.844-9.466-3.841-16.161-10.938-20c0.558-7.196-9.944-9.485-13.983-13.576
			c-3.074-3.115-4.87-6.817-6.535-10.453c-2.607-5.705-1.311-6.553-7.558-6.569c-4.48-0.013-7.46,2.445-12.529-0.972
			c-3.259-2.197-5.212-6.781-8.021-9.598c-6.039-6.058-16.944-3.056-21.594-9.342c-3.034,1.336-9.843,0.356-12.868-1.287
			c-5.987-3.25-4.424-7.854-10.974-7.022c-1.392,0.178-3.705,2.277-5.469,2.72c-1.936,0.489-4.846,0.082-6.856,0
			c-4.73-0.189-7.443,0.218-12.114,0.822c1.105,0.463,1.981,1.59,3.151,2.093c-2.616,2.802-17.758,7.261-10.852,12.616
			c-3.475-6.69-13.669,0.969-15.217,5.606c-8.099,0.444-15.734,12.627-8.401,18.677c-4.796-0.438-8.611,7.212-6.221,10.85
			c-3.278-6.395-10.497-5.004-16.056-2.555c0.197,1.601-0.169,2.798,0.477,3.944c-3.1-5.95-12.314,0.853-13.676,5.534
			c0.882,0.63,1.492,2.139,2.569,2.781c-8.334,0.42-13.016,19.178-3.272,21.373c-2.763,4.937-1.348,11.006,4.095,13.046
			c-1.449,2.064-1.419,4.241,0.513,6.064c-0.685-0.287-1.794-0.409-2.351-0.632C575.282,552.721,577.878,565.652,579.795,567.196z"
			/>
		<path fill="#797E82" d="M556.359,780.582c9.493-9.998,1.528-48.027-1.221-60.781c-3.746-17.41-15.054-32.688-32.907-38.152
			c12.74-9.184,30.89-10.924,45.157-16.426c18.079-6.976,33.185-12.221,53.356-12.221c33.984,0,77.571,10.43,98.667,38.451
			c28.064,37.279,22.872,85.806,18.215,131.156c-5.579,54.288,10.533,102.344,28.253,152.387
			c7.219,20.389,15.23,41.141,28.534,58.097c-20.531,11.669-40.679,21.088-62.781,28.911c-18.326,6.486-40.78,17.84-56.311,3.548
			c-39.848-36.671-70.71-84.012-85.316-137.058c-6.661-24.186-9.8-49.648-9.8-75.18c0-24.086,3.551-46.668,2.177-70.141
			c-8.383-3.379-18.522-1.045-27.071-4.045c0.132-0.279,1.102-1.559,1.085-1.705c0.094,1.193,0.359,3.391,1.154,4.351"/>
		<path fill="#576269" d="M565.896,780.582c17.311-8.471,43.713,9.111,58.493,17.617c10.16,5.846,21.096,10.144,29.743,18.127
			c8.658,7.997,15.468,17.407,24.889,24.676c-2.477-16.451-12.989-29.157-26.055-38.928c-12.538-9.374-30.121-11.879-41.669-20.034
			c9.405-3.058,20.809-0.396,29.293,3.464c-18.017-17.078-49.957-11.485-71.83-16.85c5.386-4.443,12.719-6.014,18.238-10.52
			c-8.184-1.502-16.416,4.252-24.499,4.744c-0.849,5.104-1.429,10.209-2.444,15.076c1.724,0.277,4.073,0.625,5.841,0.24"/>
		<path fill="#576269" d="M588.553,798.468c2.174,11.692,5.968,31.336,17.644,36.845c2.404-13.031-15.994-26.234-13.793-37.11
			c2.132-10.53,9.283,1.813,13.109,5.931c7.103,7.644,14.541,13.98,23.657,18.95c-3.523-23.504-30.486-23.024-45.473-34.928
			c1.688,3.791,3.549,7.796,4.855,11.505"/>
		<path fill="#576269" d="M601.667,947.511c25.731,21.39,56.457,46.931,89.269,54.04c-14.477-7.511-25.793-21.169-38.293-31.413
			c-10.658-8.738-23.075-16.45-26.674-30.849c24.357,8.748,44.391,28.591,62.999,44.922c10.342,9.076,22.905,20.568,37.773,19.16
			c-4.085-9.557-6.016-20.439-10.848-29.664c-5.018-9.574-12.695-18.436-16.01-28.719c7.687,5.572,14.421,14.894,23.223,17.863
			c1.178-10.635-7.395-19.729-10.462-29.344c3.084,3.943,5.522,7.736,10.462,7.855c1.539-28.121-11.261-54.338-25.96-75.733
			c12.694,11.608,14.898,28.831,21.666,43.724c4.416,9.723,9.921,18.555,14.013,28.259c6.098-18.903-7.005-50.019-10.991-68.862
			c-1.74-8.221-3.731-19.319-7.759-26.432c-4.888-8.637-14.174-12.543-20.208-19.828c19.026,4.313,20.23-24.934,18.687-36.873
			c-1.434-11.084-4.201-21.957-10.437-31.527c-4.39-6.73-12.846-12.68-15.64-19.795c15.563,2.72,32.778-1.218,23.991-20.781
			c-4.949-11.01-16.021-17.797-22.828-26.885c16.961-0.841,33.801,34.422,37.998,47.452c7.312,22.688,4.746,41.104,2.391,64.387
			c-2.617,25.837,2.444,48.603,5.987,73.863c3.822,27.241,6.434,52.065,14.343,78.755c5.604,18.913,6.763,40.401,17.376,57.109
			c-3.354-6.482-21.39-21.417-27.719-23.596c8.437,16.891,33.643,45.522,18.418,63.927c-10.82,13.078-38.672,17.826-53.422,24.146
			c-20.438,8.758-43.533-15.1-56.036-30.97c-12.96-16.448-17.451-36.695-29.514-53.684
			C610.814,978.655,591.929,959.256,601.667,947.511"/>
		<path fill="#9B9F9F" d="M555.167,694.734c13.41,0.404,26.709-1.176,40.538-1.192c15.449-0.019,30.998,5.038,46.142,3.577
			c-7.064,1.142-16.805-3.951-18.565-10.793c11.647-11.455,39.831-18.477,54.54-13.258c-20.603-10.424-45.528-16.34-68.972-11.72
			c-25.643,5.054-48.839,15.638-73.564,21.728c6.67,5.46,14.249,9.159,21.074,14.043"/>
		<path fill="#9B9F9F" d="M589.744,886.7c5.998,13.507,0.436,52.229,21.339,55.882c-10.386-31.157-24.383-67.746-21.097-101.094
			c26.68,30.251,37.856,81.617,69.947,107.124c-12.229-18.765-22.036-40.29-34.448-59.55c-9.201-14.281-17.878-29.105-17.676-46.35
			c11.182,2.766,20.081,18.389,29.499,25.71c-5.328-11.712-22.133-19.425-23.595-32.894c13.725,3.066,26.039,29.116,33.263,40.203
			c7.398,11.354,18.229,26.444,28.402,34.723c-0.248-28.424-54.262-69.717-78.301-80.868c1.773,6.47,5.109,12.511,1.34,18.546
			c-4.313-4.012-8.352-9.373-14.455-8.945c1.142,23.148,0.893,44.953,4.59,67.781"/>
		<path fill="#26302F" d="M599.673,796.073c0,0-7.446,3.942-5.256,12.265c2.189,8.32,8.76,15.327,6.569,21.898
			c-2.189,6.568-2.627,22.776,0,29.783c2.629,7.008-3.504,53.871,11.825,69.639l14.455,4.817c0,0-15.768-28.905-13.578-59.127
			c0,0-4.381-12.263-2.189-19.271c2.189-7.009-4.38-14.016-1.754-20.147c2.628-6.132-1.313-10.949-2.188-19.271
			c-0.876-8.32-0.876-8.32-0.876-8.32l0,0l3.504-7.01L599.673,796.073"/>
	</g>
	<g clip-path="url(#SVGID_2_)">
		<g>
			<path fill="#9C449A" d="M725.763,935.148"/>
			<path fill="#080F0C" d="M774.337,868.778c2.272,3.151,6.671,3.868,9.823,1.597s3.868-6.669,1.597-9.821
				c-2.27-3.151-6.668-3.866-9.82-1.6C772.783,861.227,772.068,865.624,774.337,868.778z"/>
			<circle fill="#080F0C" cx="765.342" cy="856.951" r="8.99"/>
			<path fill="#080F0C" d="M766.964,865.898c2.02,2.803,5.93,3.438,8.732,1.42c2.803-2.02,3.438-5.93,1.422-8.732
				c-2.018-2.803-5.928-3.438-8.732-1.418C765.585,859.186,764.946,863.094,766.964,865.898z"/>
			<circle fill="#080F0C" cx="773.083" cy="873.055" r="5.863"/>
			<circle fill="#080F0C" cx="781.749" cy="857.661" r="8.208"/>
			<g>
				<path fill="#050907" d="M769.771,859.421c1.127,10.652,12.873,3.659,14.824-0.812c2.984,13.706,25.688-1.604,26.405-10.18
					c9.549,5.725,20.396-14.146,17.948-22.908c9.857,0.734,23.119-23.715,11.941-27.973c-0.51,4.648,2.38,6.254,5.67,2.307
					c4.701-5.634-1.647-11.598-6.265-14.617c6.39-3.662,4.568-11.625-1.619-14.444c2.931-4.22,9.597-16.524-0.632-16.459
					c5.677-9.451,4.098-26.695-10.486-24.923c2.672-8.949-6.591-33.477-17.013-20.151c-0.195-12.266-4.327-36.399-16.676-17.556
					c-5.408-13.188-23.443-16.331-26.842-0.339c-3.099-7.269-21.867-12.857-17.657-2.488c-5.181-10.964-36.255-12.921-33.722,3.567
					c-3.731-4.947-14.169-5.688-19.748-3.466c-4.576,1.823-12.011,10.327-3.811,11.675c-11.612-6.068-27.617,11.112-20.813,12.789
					c-8.302-5.709-25.889,6.096-22.33,15.518c0.273-0.168,2.092-0.854,2.482-0.955c-7.854-3.377-15.085,18.287-8.704,21.444
					c-12.374-6.392-18.327,27.227-6.812,28.081c-0.034-0.12-0.022-2.088,0.011-2.241c-11.215,1.265-2.801,27.63,1.474,19.852
					c-10.343-0.532-6.847,24.636,5.557,22.841c-3.45,7.217,0.342,15.141,9.717,11.999c-2.74,6.543,2.236,11.703,8.142,6.933
					c-0.513,5.958,5.268,8.539,7.372,2.357c1.489,1.596,5.06-3.041,6.847-6.275c6.256,7.885,11.99-8.717,18.3-6.658
					c2.908,0.949,2.251,7.792,7.402,9.227c5.07,1.41,13.046-4.039,17.979-4.768c1.85,7.285-2.308,12.187,6.752,14.922
					c2.896,0.875,8.355-2.141,10.659-0.828c2.718,1.541,0.289,4.79,2.479,6.572c4.955,4.021,10.489,0.904,15.767,2.755
					c2.97,1.043,0.84,7.561,7.846,4.392c-0.185,1.149,0.341,2.74,0.16,3.903c2.531,0.544,5.658,0.327,7.362-0.614"/>
				<path fill="#050907" stroke="#050907" stroke-width="0.6912" d="M771.553,856.446c1.132,10.653,12.875,3.659,14.826-0.81
					c2.985,13.705,25.689-1.605,26.407-10.181c9.546,5.724,20.394-14.146,17.948-22.907c9.855,0.736,23.12-23.715,11.94-27.973
					c-0.51,4.647,2.378,6.253,5.672,2.309c4.7-5.637-1.65-11.6-6.268-14.619c6.39-3.662,4.57-11.625-1.62-14.445
					c2.932-4.218,9.599-16.523-0.63-16.459c5.676-9.45,4.097-26.695-10.486-24.922c2.672-8.949-6.59-33.477-17.014-20.151
					c-0.194-12.266-4.327-36.4-16.673-17.556c-5.41-13.188-23.445-16.332-26.846-0.34c-3.096-7.268-21.865-12.857-17.653-2.488
					c-5.185-10.963-36.255-12.92-33.724,3.57c-3.73-4.949-14.169-5.69-19.748-3.468c-4.576,1.823-12.009,10.327-3.81,11.675
					c-11.614-6.067-27.615,11.111-20.813,12.789c-8.303-5.709-25.887,6.097-22.331,15.518c0.273-0.168,2.091-0.854,2.482-0.955
					c-7.853-3.377-15.086,18.288-8.704,21.445c-12.373-6.393-18.325,27.225-6.81,28.08c-0.034-0.121-0.021-2.088,0.012-2.242
					c-11.216,1.266-2.803,27.629,1.471,19.852c-10.344-0.53-6.845,24.637,5.559,22.842c-3.451,7.215,0.339,15.14,9.715,11.998
					c-2.741,6.546,2.237,11.701,8.143,6.933c-0.515,5.96,5.267,8.54,7.372,2.356c1.49,1.596,5.059-3.041,6.85-6.273
					c6.252,7.883,11.985-8.718,18.299-6.66c2.906,0.949,2.248,7.792,7.402,9.227c5.068,1.412,13.044-4.038,17.976-4.764
					c1.851,7.283-2.304,12.186,6.756,14.922c2.894,0.874,8.354-2.145,10.657-0.832c2.719,1.543,0.289,4.791,2.479,6.573
					c4.954,4.023,10.488,0.905,15.765,2.754c2.971,1.047,0.839,7.562,7.845,4.394c-0.181,1.146,0.342,2.74,0.162,3.904
					c2.531,0.545,5.66,0.326,7.364-0.616"/>
				<path fill="#050907" d="M652.896,805.77c-0.276,2.229,1.544,4.324,3.602,3.352c-4.394,1.128-0.968,5.713,2.79,5.452
					c-3.542,2.042-0.228,7.054,4.288,6.509c-3.258-0.757-4.565,7.681-0.075,5.452c-3.555,2.406,2.127,7.137,3.274,3.818
					c-1.358,1.131-0.756,3.613,1.834,2.092c-1.557,2.419,1.057,7.587,4.612,4.97c-0.475,1.777,0.103,3.012,1.759,3.582
					c0.479-0.831,1.274-1.039,1.512-2.279c2.19,0.805,3.21-1.833,1.925-3.518c2.306,0.06,3.284-2.566,2.248-4.557
					c3.929,0.74,5.537-4.935,1.913-6.914c2.924,1.842,0.103-7.531-4.039-8.85c0.183,0.074,0.945,0.222,1.279,0.34
					c0.725-3.556-4.426-12.989-8.12-9.375c1.366-5.475-6.568-6.404-8.947-2.736c1.676-4.72-8.303-5.994-7.495-2.362"/>
				<path fill="#8B8E8A" d="M720.084,905.177c-0.459-0.103-0.829-0.315-1.278-0.429c-4.848,7.674,3.687,12.748,2.054,21.112
					c-1.881,9.623-1.79,15.952,8.359,20.403c15.088,6.618,32.424-4.982,43.045-15.19c5.825-5.606,13.394-13.591,13.011-22.354
					c-0.367-8.576-11.605-11.134-12.633-19.907c-0.873-7.477,3.466-17.208-3.826-23.128c-7.92-6.435-21.328-1.381-28.566,3.471
					c-12.196,8.172-22.17,22.274-23.847,36.902"/>
				<path fill="#535752" d="M722.64,940.178c-1.225-3.455-2.195-6.18-0.765-9.746c1.271-3.167,2.039-6.379,1.052-9.838
					c-0.886-3.092-2.677-5.912-3.606-8.959c-1.167-3.835,2.335-7.031,5.008-9.178c1.015-0.813,2.202-1.661,3.485-1.981
					c0.647,1.401,0.045,3.4,0.188,4.963c0.207,2.177,0.985,4.636,1.721,6.725c1.622,4.606,3.394,7.748,2.168,12.657
					c-0.98,3.92-1.6,8.599-1.182,12.787c0.344,3.492,2.987,4.953,4.218,7.846c-6.953-0.01-8.269-11.021-6.999-16.127
					c0.823-3.303,2.52-6.722,1.93-10.301c-0.598-3.647-3.233-6.586-4.16-10.152c-0.295-1.13-0.612-2.367-0.82-3.488
					c-3.222,1.214-3.505,7.047-2.199,9.639c1.961,3.885,3.318,6.768,3.222,11.219c-0.082,3.74-1.995,6.879-2.189,10.652
					c-0.11,2.169,0.775,2.74,1.44,4.496c0.847,2.242-0.545,1.91-1.758,0.456c-0.73-0.877-1.323-2.419-1.351-3.53"/>
				<path fill="#535752" d="M730.344,899.648c0.007-0.709-0.04,1.671-0.024,2.106c0.063,2.027,0.263,4.191,0.797,6.163
					c0.991,3.676,3.414,6.764,4.11,10.545c1.265,6.861-4.286,17.348,1.837,22.714c1.458,1.28,2.827,2.606,4.921,2.328
					c2.174-0.292,2.607-1.493,1.851-3.267c-1.182-2.742-2.994-5-3.63-8.05c-0.705-3.392-0.881-7.308-0.844-10.769
					c0.042-3.848,1.151-7.063-0.02-10.943c-0.886-2.939-3.14-5.069-4.245-7.882c-0.606-1.536-1.419-3.755-0.817-5.372
					c1.225-3.303,3.212-0.963,4.121,1.127c2.115,4.863,4.77,9.623,5.435,14.82c0.869,6.735,1.127,13.668,2.025,20.436
					c0.332,2.549,1.569,9.546,5.838,7.913c4.79-1.833,0.027-12.876-0.584-15.825c-0.936-4.523-2.295-8.863-3.446-13.316
					c-0.873-3.379-1.066-6.498-2.93-9.467c-1.342-2.143-2.779-4.26-3.587-6.684c-0.695-2.084-0.981-4.025-3.71-3.709
					c-1.974,0.232-6.442,3.54-6.054,5.701"/>
				<path fill="#535752" d="M759.6,936.088c-0.623,0.551-2.259-4.795-2.659-5.973c-0.959-2.805-1.604-5.692-2.528-8.522
					c-1.936-5.896-2.221-12.735-4.994-18.209c-1.808-3.56-4.588-6.486-6.784-9.823c-2.319-3.52-0.249-6.137,2.516-8.793
					c1.539-1.475,3.108-2.959,4.817-4.268c2.141-1.635,2.743-2.641,3.492,0.409c1.088,4.46,4.86,8.142,5.418,12.42
					c0.519,4.035,1.274,7.489,2.957,11.243c1.477,3.294,3.804,6.018,5.663,9.076c1.812,2.977,5.61,8.828,3.313,12.424
					c-2.907,4.535-7.574-10.293-8.26-12.275c-1.315-3.82-3.927-6.725-5.405-10.326c-0.932-2.269-1.354-4.874-2.027-7.226
					c-0.733-2.563-3.605-9.587-7.302-9.17c-4.283,0.482-1.16,7.017-0.114,9.111c3.833,7.698,9.577,14.892,11.067,23.601
					c0.641,3.771,0.436,7.656,1.466,11.354c0.642,2.283,1.321,3.753-0.646,5.563"/>
				<path fill="#535752" d="M774.429,920.385c-0.198,0.162-0.153,0.323-0.375,0.394c0.133-5.938-2.468-11.788-5.813-16.595
					c-3.155-4.538-4.683-7.713-5.781-13.181c-1.003-4.993-3.971-9.9-4.616-14.74c-0.433-3.24,1.424-9.288,5.683-9.018
					c3.23,0.208,4.259,8.051,4.412,10.575c0.372,5.938,0.596,11.232,3.722,16.511c2.207,3.727,4.608,6.651,7.295,10.028
					c1.145,1.439,4.384,7.059,1.141,7.867c-3.684-2.576-4.987-8.415-7.275-12.11c-3.196-5.181-6.12-9.044-6.987-15.296
					c-0.371-2.672-1.012-5.283-1.405-7.906c-0.218-1.429-0.056-3.786-1.221-4.867c-4.273-3.979-3.355,6.889-2.792,8.525
					c1.641,4.749,4.188,9.148,5.715,13.99c0.584,1.854,0.914,3.518,1.898,5.119c1.055,1.721,2.652,3.02,3.914,4.588
					c2.781,3.459,3.866,6.971,4.869,11.198c0.361,1.515,0.568,8.442-2.607,6.358"/>
				<path fill="#FFFFFF" d="M762.916,857.996c-5.356,0.313-0.365,12.164-0.122,14.176c0.886,7.225-0.952,7.237-3.999,10.912
					c-6.341,7.652-12.387,15.752-19.526,22.685c-9.487,9.221-20.319,17.529-32.039,23.794c-7.026,3.756-14.28,7.084-21.733,9.915
					c-3.678,1.401-6.516,2.603-7.657-0.64c1.631-8.616,3.649-13.03,2.708-22.169c-0.39-3.781-0.838-8.913-4.906-10.216
					c1.867-2.791,3.926-6.875,3.025-10.314c0,0,0.404-7.248-7.403-14.794c-0.721-0.695-2.575-1.601-3.847-2.147
					c0.696-4.106,3.729-7.548,3.558-12.102c0,0,0.381-2.418-2.383-2.31c-2.483,0.097,11.179-3.101,11.179-3.101
					c-7.835,0.925-15.04,4.336-21.861,8.057c3.996-3.914,6.814-9.499,9.78-14.196c2.338-3.707,4.808-7.77,5.643-12.129
					c0.4,0.216-0.203-0.431,0,0c0,0,17.275-40.526,29.976-46.89C717.533,789.403,838.705,853.545,762.916,857.996z"/>
				<path fill="#C1C4C4" d="M682.895,858.613c-2.486-1.719-1.917-3.117-1.77-4.499c0.72,2.955,8.456,7.497,7.059,3.875
					c-0.236-0.59,0.062-1.155-0.416-1.794c3.159,0.304,0.907-3.118,0.541-4.527c-0.636-2.418,0.051-5.279-0.507-7.789
					c0.137,4.005,1.676,11.873,7.168,10.302c3.827-1.094,6.263-7.51,7.325-10.827c1.632-5.108,2.283-9.947,2.076-15.438
					c-0.133-3.606-0.536-14.597,5.022-7.896c1.316,1.582,4.545,7.237,6.828,6.771c2.171-0.442,6.26-8.557,7.101-10.687
					c0.348,4.755,8.889-1.796,9.669-3.917c1.384-3.777,0.271-7.656-1.895-10.877c5.841-0.605,10.212-1.831,16.03,0.5
					c5.015,2.012,9.347,5.532,13.231,9.189c4.728,4.445,5.334,11.689,5.243,17.951c-0.075,5.094,1.24,9.611,1.659,14.574
					c0.47,5.58,4.131,14.439-1.476,15.135c-12.556,1.556-0.967,11.256-4.765,19.067c-2.268,4.661-5.388,6.81-8.565,10.799
					c-4.358,5.466-9.138,10.326-13.83,15.604c-7.655,8.599-16.801,14.806-21.925,18.095c-3.391,2.17-6.894,4.76-10.529,6.398
					c-3.095,1.398-6.548,3.336-9.919,3.821c1.152-2.687,2.208-5.386,0.211-8.138c-1.589-2.186-4.253-2.732-6.178-4.46
					c-1.662-1.497-2.949-3.401-1.903-5.711c1.71-3.755,4.895-2.1,7.443-0.591c3.859,2.285,10.58,5.43,9.764-1.682
					c-0.33-2.869-8.9,0.111-9.673-1.949c-1.161-3.092,7.211-3.259,11.804-4.633c4.478-1.34,8.716-3.14,12.845-5.277
					c3.867-2.001,8.107-3.727,11.742-6.336c6.596-4.732,11.771-15.959,5.023-23.059c-0.868-0.911,0.937,0.539,0,0
					c4.695-0.835,7.946-0.515,10.87-6.679c1.861-3.92-1.036-8.175-3.509-10.671c-6.648-6.703-14.195-2.84-21.396-0.185
					c0.894-0.812,0.12-2.427-0.086-3.616c0.017,2.162-0.32,3.682-3.654,4.97c-0.124-3.329,0.353-5.651-2.343-7.943
					c2.685-1.911,6.662-3.892,1.494-6.817c-3.945-2.23-6.869-1.92-9.73,1.332c-4.269,4.846-7.395,13.031-13.406,15.681
					c0.533,0.128,1.104,0.653,2.028,0.61c0.366,2.316-1.252,4.213-1.795,6.314c-0.545,2.121-0.138,4.55-0.807,6.646
					c-1.561,4.892,1.01,6.069,0.703,9.605c-1.002-3.755-7.09-6.817-10.044-3.319c-2.162,2.57-2.098,2.807-5.888,3.181
					c4.13-2.726,3.341-5.793,4.931-10.26c0.838-2.358,1.268-3.429,0.752-6.595c-0.307-1.904,0.238-2.411-2.085-3.909"/>
				<path fill="#080F0C" d="M670.871,927.414c0,0,6.593-6.157,12.219-0.533c0,0,1.131,0.693,0.668,1.185
					C682.616,929.279,680.85,920.471,670.871,927.414z"/>
				<path fill="#080F0C" d="M669.946,938.114c0,0,1.957-9.016,10.903-7.079c0,0,1.067-0.058,0.879,0.693
					C681.325,933.33,673.867,927.191,669.946,938.114z"/>
				<path fill="#080F0C" d="M673.192,920.973c0,0,7.551-3.621,11.298,2.73c0,0,1.266,1.686,0.746,1.902
					C683.701,926.256,684.073,917.597,673.192,920.973z"/>
				<path fill="#FFFFFF" stroke="#12120D" stroke-width="0.6912" d="M701.742,853.271c0,0,6.39-6.661,14.676-7.301
					c3.31-0.254,3.832,6.167,3.095,9.085l-1.552,1.957l-7.596,6.614c-6.147-0.125-8.994-5.576-8.664-10.18"/>
				<path fill="#050907" stroke="#050907" stroke-width="0.6912" d="M675.723,817.523c-4.484,2.199-10.989-0.199-14.701-3.252
					c-3.461-2.844-5.608-14.203-0.328-9.398c-6.629-2.201-11.969-12.451-7.961-18.858c-8.448-7.085,6.905-26.177,13.936-20.614
					c-1.443-0.096-1.604-0.496-2.656-1.189c3.172-1.576,7.614-3.743,10.851-1.422c-7.442-4.009-11.697-13.468-12.398-21.585
					c-0.396-4.558,1.689-16.339,8.758-11.087c-6.116-2.014,1.591-8.561,4.221-9.902c6.065-3.098,20.053-4.141,21.104,5.186
					c-6.327,2.831,1.659-9.815,3.92-11.35c2.624-1.779,14.444-5.695,13.205,1.348c6.562-9.721,23.886-4.287,14.329,6.148
					c5.301-3.992,17.496-6.927,23.695-4.216c4.082,1.785,5.715,8.001,1.504,11.021c8.295-4.833,23.063-4.374,30.741,1.31
					c9.599,7.104,1.239,14.579-4.017,20.563c3.524,2.955,11.28,3.283,13.672,7.146c2.777,4.481-2.64,7.754-6.79,8.275
					c3.22,1.796,18.47,7.527,12.141,12.915c-0.85-5.271,7.305-8.646,11.498-8.146c4.849,0.576,7.905,4.659,2.326,7.442
					c8.397-0.565,8.929,9.2,1.215,11.496c10.304-1.275,13.7,11.225,3.396,14.379c2.811,1.856,7.107,3.048,7.328,7.425
					c0.309,6.074-6.216,6.109-10.712,5.629c2.276-0.439,6.187,2.762,6.431,5.69c0.406,4.888-3.934,4.587-7.347,5.438
					c9.284,1.127,1.938,15.113-6.669,11.977c3.936-1.638,2.052,3.264-0.148,4.854c-2.653,1.919-11.354,2.756-10.407-2.288
					c6.099,1.875-4.474,12.064-9.351,11.221c6.329-4.336-3.135,16.287-4.969,7.52c-0.497,4.166-9.31,7.117-8.032,1.282
					c-1.229,6.257-11.621-0.146-7.702-4.031c-6.703,1.532-0.508-7.017,0.458-8.53c-5.019,0.725-1.838-5.279-0.494-7.48
					c-8.032,1.439-11.795-11.605-12.962-17.369c-1.625,5.871-12.162,2.059-7.328-5.283c-3.747,1.504-6.783-4.848-4.537-6.953
					c0.023,0.49-0.09,1.285-0.014,1.732c-3.628,0.975-9.021-0.067-8.485-4.945c0.663,5.574-11.849,5.444-9.007-2.498
					c-5.468,4.498-4.688-6.447-2.983-9.168c-0.149,2.643-3.132,3.598-5.467,4.103c-1.808,0.387-9.262-0.185-5.119-1.975
					c1.541,6.313-9.337,7.421-9.519,1.687c4.462,4.102-3.148,8.819-6.143,10.352c4.932,0.78,2.709,8.572-2.256,6.689
					c4.63,6.572-6.553,7.725-2.807,1.672c1.506,1.713,0.233,2.827-1.444,4.102c-3.979,3.031-5.346-1.529-4.722-1.59
					c3.092-0.301,1.576,2.607-0.568,3.373c-3.072,1.101-5.911-1.807-6.066-4.673c0.393,0.913,0.145,2.047,0.147,3.122
					c-2.679,0.322-3.071-3.735-4.87-5.525c0.085-0.686,0.471-0.334,0.882-0.883"/>
				<path fill="#050907" stroke="#050907" stroke-width="0.6912" d="M750.687,849.205c-2.838-3.666-10.507-2.221-15.204-2.02
					c6.881-3.671,5.388-13.334-0.009-18.4c9.113,0.376,3.569-13.831,1.081-17.521c-1.314-1.946-5.352-4.436-6.021-6.291
					c-1.575-4.383,5.849-7.563,9.202-7.953c4.316-0.506,9.514,2.674,12.998,4.894c6.248,3.978,10.146,9.089,13.145,15.662
					c5.973,13.087,7.412,24.332,5.399,38.63c-0.237-5.293-13.441-11.131-17.745-9.805c0.917-2.377-1.073-5.482-2.634-7.252
					c-0.223,2.854-0.21,6.919-0.202,9.137"/>
				<path fill="#C1C4C4" d="M702.136,887.316c1.708,2.055,9.521,1.522,12.733,0.372c4.602-1.655,8.048-5.037,10.041-9.493
					c1.666-3.719,2.305-10.924-0.578-14.346c-3.678-4.366-10.499-0.438-13.758,2.639c-2.746,2.594-8.336,8.439-7.422,12.351"/>
				<path fill="none" stroke="#12120D" stroke-width="0.6912" d="M699.121,857.323c2.25-6.298,13.736-12.936,20.356-11.015"/>
				<path fill="none" stroke="#213A77" stroke-width="0.3456" stroke-linecap="round" stroke-linejoin="round" d="M703.286,853.695
					c-1.549,4.053,6.291,8.268,8.057,2.822c1.361-4.2-5.302-7.271-6.316-2.785c-0.599,2.665,4.106,4.721,4.31,1.834
					c0.228-3.221-4.891-0.406-1.257,0.227"/>
				<path fill="#FFFFFF" stroke="#12120D" stroke-width="0.6912" d="M672.379,864.814c0.633,3.564,2.488,6.609,6.589,6.281"/>
				<path fill="#FFFFFF" stroke="#12120D" stroke-width="0.6912" d="M678.146,862.816c-0.227,1.857,0.529,4.089,2.721,3.02"/>
				<path fill="#FFFFFF" stroke="#12120D" stroke-width="0.6912" d="M680.218,862.609c-0.231,1.02-0.027,1.639,0.903,1.389"/>
				<path fill="#12120D" d="M693.173,855.412c0.575,1.748,2.41,2.492,4.063,1.842c2.723-1.072,5.656-5.405,5.963-7.789
					c1.448-11.285,0.925-13.509,1.585-26.002c0.335-6.32,5.287-5.132,6.549-2.986c2.696,4.597,6.496,8.768,8.299,13.814
					c-0.553-3.062-2.218-6.262-3.286-9.204c-1.64-4.534-3.573-8.904-7.503-11.948c-1.449-1.123-4.224-3.238-5.555-1.744
					c-0.81,0.91-0.601,3.966-0.693,5.106c-0.282,3.411-0.331,6.849-0.527,10.269c-0.465,8.207-0.389,19.622-3.377,27.469
					C698.234,855.436,695.11,857.594,693.173,855.412"/>
				<path fill="#12120D" d="M679.609,861.729c0.988-0.065,1.512-0.939,1.576-2.094c0.075-1.299-1.563-2.997-2.416-3.688
					c2.64,3.638,1.659,3.735-1.964,3.866c-2.968,0.105-5.803,0.408-8.732,1.103c-1.666,0.392-4.314,0.55-5.781,1.252
					c-1.608,0.767-1.064,1.365-2.028,3.018c-1.197,2.05-4.718,4.105-6.903,2.232c0.97,1.432,4.214,3.854,5.682,2.073
					C659.042,869.49,670.678,862.33,679.609,861.729z"/>
				<path fill="none" stroke="#747471" stroke-width="0.3456" stroke-linecap="round" stroke-linejoin="round" d="M687.85,858.563
					c-4.41,0.502-7.959-7.884-5.898-11.077c1.466,3.455,1.305,7.922,5.695,9.008"/>
				<g>
					<path opacity="0.84" fill="#8E479B" d="M724.799,871.875c-0.109,9.199-7.656,16.57-16.858,16.456
						c-9.197-0.108-16.564-7.655-16.455-16.853c0.112-9.199,7.657-16.568,16.854-16.456
						C717.54,855.134,724.91,862.679,724.799,871.875z"/>
					<path fill="#080F0C" d="M718.306,885.813c-3.034,2.187-6.621,3.316-10.375,3.271c-4.647-0.056-8.998-1.92-12.245-5.246
						c-3.249-3.326-5.006-7.721-4.949-12.369c0.063-5.5,2.771-10.707,7.24-13.93c3.038-2.184,6.623-3.314,10.372-3.268
						c9.601,0.112,17.316,8.017,17.203,17.613C725.484,877.387,722.778,882.593,718.306,885.813L718.306,885.813L718.306,885.813z
						 M698.855,858.762c-4.083,2.939-6.56,7.697-6.615,12.724c-0.053,4.249,1.555,8.263,4.522,11.302
						c2.965,3.04,6.941,4.742,11.188,4.794c3.429,0.04,6.704-0.993,9.478-2.987v-0.002c4.084-2.941,6.561-7.696,6.62-12.725
						c0.104-8.769-6.946-15.986-15.715-16.094C704.906,855.732,701.631,856.768,698.855,858.762L698.855,858.762z"/>
					<polygon fill="#080F0C" points="723.034,864.396 758.036,836.538 756.023,833.498 721.023,861.357 723.034,864.396 					"/>
					<polygon fill="#C1C4C4" points="746.259,841.771 721.97,861.155 722.342,861.691 745.937,842.807 					"/>
				</g>
				<path opacity="0.84" fill="#8E479B" stroke="#080F0C" stroke-width="0.6912" d="M685.037,878.748
					c-0.098,8.123-6.761,14.63-14.88,14.531c-8.121-0.098-14.628-6.758-14.527-14.883c0.098-8.115,6.76-14.622,14.88-14.523
					C678.63,863.97,685.133,870.633,685.037,878.748z"/>
				<path fill="#893E97"  a:adobe-blending-mode="colorDodge" d="M661.235,876.016c-0.529-0.141-0.266-1.709,0.3-2.125
					c0.787-0.58,1.954-0.084,2.768,0.262c2.801,1.184,11.665,15.703,6.538,16.951c0.899,1.33,4.831,0.004,5.879-0.715
					c1.669-1.141,4.452-2.678,5.005-4.504c-1.123,3.097-5.395-0.756-6.531-2.097c-1.182-1.399-5.856-6.044-6.84-7.181
					c-1.277-1.482-3.383-2.866-4.094-4.734c-0.716-1.883-0.395-4.65,1.73-5.559c-2.455,0.785-4.05,1.195-5.88,3.193
					c-1.329,1.454-2.837,3.801-2.745,5.791c0.446-2.746,3.684-1.518,3.337,0.709"/>
				<path fill="#FFFFFF" d="M680.732,858.021c4.83,10.782-11.004,18.651-7.498,24.543c1.085,2.041,2.734,3.23,4.926,3.917
					c2.772,0.866,5.853,1.539,8.418,1.481"/>
				<path fill="#FFFFFF" d="M682.626,866.229c-0.535,0.959-0.336,1.508-0.156,2.563c0.434,2.531,1.495,4.924,1.843,7.49
					c0.328,2.403,0.41,4.829,0.261,7.237c-0.063,1.049-0.323,2.485,0.751,3.083c0.803,0.446,2.364,0.222,3.078-0.286
					c1.592-1.13,1.344-3.814,1.363-5.479c0.028-2.42-0.173-4.732-0.549-7.125c-0.387-2.447-0.643-5.656-2.328-7.621
					c-1.358-1.59-2.324-0.188-3.952-0.268"/>
				<path fill="none" stroke="#12120D" stroke-width="0.6912" d="M680.867,865.836c0,0,2.092-7.976,10.201,0.33"/>
				<path fill="#6D7171" d="M750.983,852.222c0,0-13.448-9.778-32.601,3.774l1.255-4.267
					C719.638,851.729,734.064,841.74,750.983,852.222z"/>
				<path fill="#F2BAB4" d="M757.388,856.446c0.632,2.596,2.995,4.144,5.49,3.476c2.731-0.731,3.074-2.814,3.611-5.201
					c1.009-4.502,3.668-9.492,4.128-14.171c0.504-5.179-4.645-16.53-10.166-17.504c-7.099-1.25-10.672,8.995-10.719,14.517
					c-0.023,2.737-0.021,10.509,1.677,11.838"/>
				<path fill="#C1C4C4" d="M757.388,856.446c0.632,2.596,2.995,4.144,5.49,3.476c2.731-0.731,3.074-2.814,3.611-5.201
					c1.009-4.502,3.668-9.492,4.128-14.171c0.504-5.179-4.645-16.53-10.166-17.504c-7.099-1.25-10.672,8.995-10.719,14.517
					c-0.023,2.737-0.021,10.509,1.677,11.838"/>
				<path fill="none" d="M758.334,853.424c-0.084-0.617,1.669-3,1.578-4.529c-0.139-2.178-1.876-2.803-3.297-3.98
					c-3.188-2.641-3.625-5.652-3.52-9.744c0.106-4.125,0.579-7.693,4.959-8.964c4.559-1.319,7.057,1.814,8.909,5.469
					c-2.022-2.912-4.557-5.405-8.273-3.966c0.01,2.215,5.904,7.488,7.978,6.762c3.266,4.582-0.104,18.64-6.465,19.242
					c0.946-3.885,12.101-16.675,1.377-18.139c-2.519-0.344-3.962,0.968-4.281,3.287c-0.469,3.314,1.457,2.79,3.055,4.803
					c2.276,2.878,0.107,7.817-2.023,10.064"/>
				<path fill="#8B8E8A" d="M758.334,853.424c-0.084-0.617,1.669-3,1.578-4.529c-0.139-2.178-1.876-2.803-3.297-3.98
					c-3.188-2.641-3.625-5.652-3.52-9.744c0.106-4.125,0.579-7.693,4.959-8.964c4.559-1.319,7.057,1.814,8.909,5.469
					c-2.022-2.912-4.557-5.405-8.273-3.966c0.01,2.215,5.904,7.488,7.978,6.762c3.266,4.582-0.104,18.64-6.465,19.242
					c0.946-3.885,12.101-16.675,1.377-18.139c-2.519-0.344-3.962,0.968-4.281,3.287c-0.469,3.314,1.457,2.79,3.055,4.803
					c2.276,2.878,0.107,7.817-2.023,10.064"/>
				<path fill="#F2BAB4"  a:adobe-blending-mode="multiply" d="M716.687,861.908c-2.173-0.016-5.058,2.742-7.551,3.309
					c-2.684,0.617-5.357,0.533-7.595-1.012c4.717,1.509,10.087-1.015,14.538-1.998"/>
				<path fill="#050907" stroke="#050907" stroke-width="0.6912" d="M810.385,774.58c4.819,0.041,3.457-10.353-0.785-8.358
					c5.292-1.406,2.354-8.621-1.614-9.966c4.515,2.178,3.702-10.02-3.786-9.772c2.667-2.347-4.139-9.863-4.521-6.979
					c0.526-4.255-5.865-5.496-8.519-3.318c0.054-4.492-4.606-5.61-7.819-3.107c1.771-2.916-2.405-7.408-5.97-5.925
					c2.205-4.968-4.435-9.762-8.129-5.118c1.013-2.342-1.046-3.932-3.081-4.96c-3.655-1.847-5.792-0.343-8.328,2.537
					c-1.208-4.337-8.546-4.304-9.817-0.022c-5.657-5.09-11.68,2.883-15.458,5.258c-0.337,0.213,0.914-0.49,0,0
					c-3.838,2.051-11.529,7.669-14.956,10.385c-4.382,3.471-10.668,9.756-16.998,7.642c-2.613-0.874-4.508-3.674-6.916-4.962
					c-2.856-1.529-6.432-2.432-9.6-2.975c-6.388-1.094-13.104,0.146-16.69,6.088c5.442-9.135-14.408-1.123-4.617,3.704
					c-8.189-6.945-16.545,11.3-8.853,11.354c-4.844-5.119-11.584,12.607-3.916,11.418c-6.099-1.988-6.984,13.958-1.45,13.771
					c-5.398-5.432-7.256,19.079,1.556,15.826c-5.668,0.806,0.359,15.557,6.868,8.768c-3.985,2.957,3.974,11.58,6.815,5.109
					c-1.096,1.266-1.732,4.917,0.519,5.917c3.306,1.461,7.23-5.759,7.778-8.135c-0.883,0.984-0.566,1.417-0.835,2.673
					c3.481,0.709,9.048-4.534,7.971-7.609c-0.032,0.148-0.488,1.188-0.555,1.268c4.391,0.291,7.181-7.907,8.358-11.177
					c1.508,7.126,15.795-8.118,17.946-8.591c0.364,6.348,14.352-1.809,17.161-2.574c0.552,6.563,7.548,7.938,13.105,7.074
					c-0.578,11.347,8.57,10.988,17.323,11.696c-1.008,3.878-5.059,10.364,0.314,13.388c-2.535,3.034-2.029,14.495,0.799,10.885
					c-5.592-2.305-10.298,12.625-3.833,12.288c0.574,0.009-1.409,0.014-0.925,0.083c2.48,2.683,6.026-0.766,7.819-2.649
					c-1.847,5.214,4.194,9.698,6.842,4.327c-2.673,4.738,3.855,4.618,5.84,0.799c-2.332,5.894,6.727,2.115,8.146-1.661
					c2.865,5.4,9.083-4.46,8.681-8.05c4.926,6.283,12.964-5.591,11.698-10.91c2.616,3.461,5.875-1.259,6.894-3.69
					c1.852-4.403-0.838-7.576-0.263-11.929c3.207,1.536,4.26-0.42,5.028-3.142c0.74-2.636-0.302-6.704-0.814-9.29
					c-0.154-0.768-0.325-5.086-0.884-3.176"/>
				<path fill="#6D7171" d="M775.104,843.525c-2.064,0.445-3.439-1.811-3.606-4.016c-0.619,0.617-1.806,0.783-2.244,1.119
					c-0.067-1.078-0.906-2.438-0.968-3.432c-2.648,2.834-9.646,5.109-9.266-1.167c-2.819,1.083-3.99-2.016-3.951-4.54
					c-3.04,3.593-7.557-1.559-4.162-4.598c-4.352,1.688-4.76-3.867-5.462-6.613c-3.75-0.129-3.326-3.455-2.206-6.01
					c-2.763,0.43-5.029-1.154-4.557-4.096c-1.655,0.859-3.538,0.94-5.37,0.613c-0.197-1.498-0.85-2.531-0.203-4.089
					c-3.36,0.522-6.546-2.876-3.487-5.431c-3.822,0.105-7.15-4.175-5.473-7.826c0.311,5.574,6.272,5.564,10.07,3.701
					c0.279,1.858-0.898,2.891-2.517,3.232c1.167,1.818,0.579,2.906-1.565,3.207c1.062,0.828,1.659,1.607,3.092,1.965
					c0.348,3.349,4.402,3.834,6.402,2.067c-1.226-1.142-1.957-2.813-1.267-4.333c1.16,3.279,4.486,2.627,7.293,2.773
					c0.125,0.439-0.564,0.432-0.726,0.746c0.359-0.144,1.49-1.023,1.728-1.309c0.34,0.018,0.34,0.033,0.001,0.045
					c-2.203-1.296-2.742-4.033-1.916-6.337c1.385,4.765,7.275,5.726,11.47,6.517c-2.167,3.189-6.511,2.299-8.606-0.486
					c0.686,2.207-5.236,4.257-6.99,2.692c-1.994,2.582-0.203,4.759,2.722,5.315c0.226-0.378,0.259-0.855,0.429-1.168
					c1.199,0.881,1.933,1.066,3.05,1.694c-1.177,1.753-0.567,1.786,0.165,3.262c0.338-0.008,0.338-0.026,0-0.057
					c-1.42,1.376-1.08,2.142,0.771,2.878c-0.29,1.712,0.236,3.068,1.718,3.592c-1.048,1.242-0.604,1.973-0.746,3.62
					c0.86-0.261,1.717,0.11,2.594-0.312c-0.379,2.305,0.762,4.486,3.221,3.861c0.04,0.073-0.581,0.575-0.378,0.633
					c1.462,0.144,1.891-0.101,3.137-0.921c-1.639-1.573-2.884-3.991-1.822-6.187c-0.412,4.47,4.127,4.726,7.317,3.668
					c-0.016,2.363-2.4,2.746-4.358,1.711c0.691,0.839,0.906,1.754,1.572,2.645c-3.356-2.445-2.403,5.291,1.01,1.242
					c-0.364,3.606,3.356,7.096,5.287,2.667c-1.136-1.326-0.773-2.204-1.094-3.623c1.889,1.462,4.824,3.661,6.731,0.591
					c-1.907-1.027-3.06-2.865-2.648-5.039c2.578,3.339,6.968,3.089,10.05,0.918c0.292,2.961-3.397,3.991-5.879,3.637
					c0.263,2.354-1.417,3.897-3.734,4.111c0.418,0.502,0.472,1.244,1.299,1.82c0.32-0.161,0.557-0.752,0.834-0.82
					c0.004,1.924,1.001,2.808,2.822,2.364c1.483,1.346,3.089,1.003,3.791-1.019c1.316,2.162,3.967,2.192,4.481,0.412
					c0.761,3.237-2.129,3.916-4.454,5.053c0.236,0.464,0.479,0.944,0.751,1.396c-0.805,0.516-1.058,1.105-2.19,1.435
					c0.22,1.61-0.789,2.926-2.393,3.521c0.031-0.262-0.173-1.734-0.173-1.734c-1.024,0.783-1.347,0.334-2.607,0.748
					c-0.123-0.43-0.247-0.893-0.469-1.219c1.94,0.841,3.295-0.388,3.651-2.615c0.046,0.174,0.16,0.244,0.34,0.219
					c0.51-0.758,0.404-1.365,0.529-2.159c-0.422-0.114-0.919,0.048-1.309-0.085"/>
				<path fill="#6D7171" d="M717.318,796.894c-2.191,1.708-5.198,2.31-7.267,0.415c-0.927,1.738-2.695,2.436-4.64,1.912
					c-0.506,2.906-4.404,3.58-6.916,2.545c-0.128,2.002-1.385,3.601-3.27,4.326c-0.101-0.177-0.113-0.361-0.047-0.554
					c-1.419,1.858-4.643,5.396-5.56,1.728c0.184,2.412-0.659,4.582-1.947,6.582c-0.021-0.249,0.02-0.486,0.124-0.715
					c10.159,4.043-12.793,8.852-5.237,3.596c0.415,5.127-7.072,4.294-5.856-1.313c-2.013,1.463-5.383,2.048-6.535-0.633
					c-3.602,0.238-6.12-1.063-5.801-5.031c-2.715,1.044-5.697-1.378-4.743-4.293c-2.478,0.279-5.617-0.313-5.409-3.051
					c0.201-0.149,0.215-0.139,0.043,0.033c-2.597-0.086-3.386-3.757-3.563-6.184c1.75,2.215,5.311,1.423,7.307-0.385
					c0.259,2.512-2.112,3.778-4.406,3.54c1.657,3.49,5.804,2.095,8.495,1.032c-1.627,0.77-2.254,0.313-3.066-1.413
					c0.123-0.175,0.293-0.292,0.497-0.351c2.952,2.516,6.132,0.193,8.652-1.756c1.567,3.84-2.544,5.918-5.881,5.258
					c0.17,0.326,0.527,0.664,0.698,0.962c-1.129,0.292-1.928,0.927-3.244,0.868c1.648,0.948,2.713,5.641,5.914,2.415
					c0.285,1.958,0.502,1.567,1.359,2.806c-0.983,4.244,3.623,5.826,5.604,2.466c-1.936,0.173-3.105-1.642-2.661-3.741
					c2.427,3.773,6.061,0.602,8.057-1.82c-2.053,0.214-4.153-0.528-5.644-1.998c3.694,0.753,6.702-2.287,8.662-3.535
					c-2.243-0.569-3.878-2.253-4.091-4.607c3.409,2.188,6.272,2.453,9.981,1.05c0.264,2.952-1.95,2.606-3.654,4.056
					c-1.049,0.896-2.588,3.248-4.498,3.597c1.739,1.246,3.941,1.433,5.408-0.234c-0.771,2.437-3.614,3.404-6.003,4.005
					c0.937,1.489,1.707,2.126,3.462,2.237c-2.043,0.585-4.54,1.406-6.642,0.45c-1.941,2.171-0.645,6.355,2.022,3.318
					c0.633,2.613,2.335,2.643,3.775,0.525c1.671,0.973,1.552,0.732,3.229-0.189c0.546,0.326,1.26,0.645,1.758,0.95
					c-0.255-1.51,0.061-1.891-0.855-3.181c1.481-2.492,2.749-5.113,2.9-8.096c0.803,3.707,4.128,0.732,4.59-1.736
					c0.427,0.314,0.95,0.484,1.392,0.809c0.893-0.8,1.707-1.778,1.913-3.077c-1.631,0.657-3.227,0.106-4.223-1.429
					c3.223,1.994,7.011-0.007,8.735-2.788c-0.454,1.413-0.219,2.285-1.279,3.532c0.228-0.104,1.349,0.089,1.707,0.045
					c0.163-0.069,0.207-0.924,0.427-1.146c1.805,1.491,3.118-0.392,3.935-2.227c0.26,0.146,0.474,0.332,0.655,0.563
					c-1.76-1.007-3.107-2.459-3.987-4.289c1.385,0.641,2.491,0.51,4.041,0.832c-2.221-1.112-4.801-2.78-4.323-5.551
					c2.867,1.387,6.077,2.939,8.694,0.215c0.038,2.334-2.164,3.133-4.026,3.562c0.574,1.73,1.693,2.431,3.404,2.118
					c0.162-0.177,0.156-0.185-0.021-0.021c-1.189,1.143-1.993,1.686-3.569,2.009c0.869,2.069,2.841,1.511,3.986-0.319
					c0.25,0.378,0.37,0.775,0.641,1.168c1.005-0.756,2.416-1.488,3.065-2.624c-0.177,2.728,2.398,3.026,4.188,3.229"/>
				<path fill="#6D7171" d="M665.933,791.224c-3.003-0.806-5.395-3.999-4.93-7.247c-3.124,2.372-6.819,0.064-6.969-3.877
					c-3.989,1.561-6.006-5.43-2.612-7.314c-4.056-1.7-3.526-10.436,1.031-11.525c-2.021,3.1-1.682,7.971,3.484,7.313
					c-1.471,1.068-3.281,1.242-4.929,0.592c0.469,2.02,2.036,3.802,3.471,5.395c-0.738,0.313-1.122,1-1.739,1.336
					c1.141,2.047,3.608,2.205,5.842,1.943c-1.895-1.148-2.195-3.197-1.026-5.057c1.455,3.246,6.32,6.107,9.972,3.945
					c-1.445,2.37-6.106,4.219-8.262,1.703c0.286,2.018-0.4,2.036-2.331,2.201c0.87,3.137,4.778,2.018,7.2,1.455
					c-0.041,2.881,2.897,9.896,6.082,6.036c0.191-0.027,0.322,0.044,0.392,0.22c-0.947-1.468-1.234-3.149-0.813-4.857
					c2.63,3.467,5.872,5.317,9.441,1.503c0.56,4.091-5.879,6.163-8.245,3.255c0.446,0.637,0.523,1.786,0.873,2.5
					c-2.13,1.432-4.895,1.485-6.429-0.74c0.99,1.717,2.712,2.982,4.463,3.692c-2.405,1.079-4.733-0.952-4.873-3.401"/>
				<path fill="#893E97"  a:adobe-blending-mode="colorDodge" d="M697.251,869.199c-0.584-0.164-0.292-1.979,0.329-2.465
					c0.866-0.672,2.143-0.094,3.039,0.301c3.071,1.374,12.786,18.197,7.158,19.646c0.989,1.546,5.307,0.002,6.455-0.832
					c1.826-1.321,4.884-3.105,5.495-5.225c-1.232,3.592-5.918-0.869-7.167-2.427c-1.302-1.622-6.421-7-7.497-8.317
					c-1.405-1.719-3.714-3.321-4.491-5.49c-0.781-2.18-0.428-5.389,1.902-6.439c-2.696,0.91-4.444,1.389-6.451,3.707
					c-1.459,1.684-3.115,4.406-3.018,6.713c0.489-3.184,4.043-1.763,3.66,0.818"/>
				<path fill="#3A3D39" d="M787.812,851.705c6.36,3.531,14.3-6.176,15.552-11.633c-2.972,2.998-7.643,2.767-9.664-1.044
					c7.209-0.151,12.798-6.179,15.207-12.021c0.68,3.762-1.056,7.318-3.9,9.427c8.632,0.702,10.01-8.987,10.652-15.581
					c-2.705,2.219-2.872,1.557-6.257,1.9c5.794-3.078,9.799-10.231,11.253-16.387c1.152,3.662,1.541,8.213-1.664,10.891
					c6.813-3.178,11.613-7.678,13.019-15.585c-0.229,0.052,0.197,1.894-0.048,0.633c1.572-3.737,1.042-8.052-1.416-11.354
					c-1.628,2.18-3.855,4.801-7.078,4.574c2.368-4.402,1.6-9.641-0.254-14.167c-1.985,1.969-4.111,2.985-6.444,4.22
					c2.817-6.027,3.452-10.398,3.472-17.12c2.276,3.415,2.788,7.687,2.503,11.782c0.231-0.746,1.281-2.631,1.637-3.889
					c3.223,2.229,3.623,7.133,3.708,10.997c2.96-3.585,4.721-9.619,2.539-13.884c0.412,0.525,1.044,2.167,0.874,1.414
					c1.772-5.018-1.115-10.422-6.203-12.477c3.757-4.27-0.714-10.167-5.489-11.32c0.955-4.025,1.908-9.123-3.282-10.895
					c0.202,3.586-1.605,7.031-3.944,9.268c1.671-4.896,0.305-10.145-3.042-14.234c-0.576,3.507-1.235,6.703-2.719,9.949
					c-0.891-7.387-3.991-9.362-9.204-14.449c2.931,0.803,5.831,2.336,8.41,3.285c0.436-3.896-0.363-7.461-2.227-10.938
					c2.442,1.457,5.105,3.369,7.116,5.365c0.858-3.658-0.813-7.338-2.84-10.202c3.579,3.366,7.129,8.204,6.958,13.319
					c3.384-9.726-3.127-13.811-6.297-19.807c-1.561-0.288-3.144-1.42-4.6-2.05c0.538-0.781,0.891-2.021,1.429-2.808
					c-3.354-4.934-7.694-11.702-14.016-9.227c3.911-4.127,9.269-2.098,13.311,0.627c-0.543-1.578-0.413-3.412-1.336-5.039
					c4.314,2.992,4.235,9.348,5.522,14.145c8.675,0.825,12.583-1.881,15.979,8.124c-2.437-2.97-5.838-3.577-9.609-3.766
					c2.435,7.704,7.03,12.229,6.131,21.452c-0.868-0.596-1.69-0.846-2.345-1.211c0.695,2.176,1.897,5.061,3.266,7.092
					c7.692-14.285,14.273-2.473,11.767,9.645c0.368-3.86-1.341-7.482-5.442-6.962c-0.227,3.005,0.274,5.762,0.419,8.676
					c-0.9-0.687-2.232-1.311-3.16-2.07c3.4,4.979,6.375,6.937,6.594,13.247c0.052-1.649,0.677-3.926,0.658-5.918
					c2.84,3.549,2.688,8.279,2.129,12.586c-0.568-0.897-2.204-2.588-2.88-3.762c0.599,3.979,2.246,8.276,2.288,12.632
					c1.074-1.622,2.59-2.788,3.169-5.3c0.06,4.012,0.185,8.734-1.593,11.775c-0.05-0.931-0.074-1.957-0.144-2.918
					c-0.047,3.918-0.222,7.905,0.021,11.773c0.765-1.15,2.322-2.125,3.107-3.627c1.339,4.112,1.227,9.98,0.014,13.996
					c0.168-3.034-0.365-6.146-2.363-8.418c-0.682,4.274-1.688,8.351-1.742,12.562c0.533-0.53,1.631-1.409,2.326-2.026
					c1.08,7.278-4.629,12.308-9.349,14.838c1.305-2.543,1.278-3.406,1.957-6.089c-1.686,3.764-4.79,7.571-7.11,11.065
					c0.523-0.437,1.421-0.844,2.036-1.137c-1.456,4.516-1.717,13.8-8.093,16.82c1.518-3.741,2.395-8.529,1.053-12.367
					c-0.269,4.32-1.329,9.309-4.623,12.463c-0.294,0.31-0.28,0.322,0.045,0.045c0.318-1.492,0.626-2.998,1.136-4.438
					c-1.657,5.346-5.281,8.597-9.553,12.428c0.149-1.104,0.257-2.627,0.512-3.703c1.094,4.708-2.141,8.188-6.524,9.357
					c-3.275,0.877-10.309-0.657-8.9-1.717"/>
				<polygon fill="#FFFFFF" points="684.162,895.869 686.913,904.004 691.539,904.059 696.512,903.948 702.516,903.334 
					709.224,901.187 717.484,898.373 706.521,897.899 691.262,894.893 686.727,894.839 				"/>
				<path fill="none" stroke="#747471" stroke-width="0.6912" stroke-linecap="round" stroke-linejoin="round" d="M681.4,898.238
					c2.65-3.404,6.681-3.902,10.607-3.266c9.727,1.57,14.936,3.034,16.913,3.15c11.122,0.65,22.993-2.084,29.787-12.527
					c3.966-6.094-0.624-13.16-1.378-14.986"/>
				<path fill="none" stroke="#747471" stroke-width="0.6912" stroke-linecap="round" stroke-linejoin="round" d="M684.304,896.085
					c0.786,1.593,1.895,5.735,2.444,7.405c-1.998-0.696-7.205,0.483-8.85,1.566c4.791-2.086,11.422-0.746,16.555-1.134
					c2.801-0.212,6.968-0.218,9.612-1.085c2.293-0.752,12.449-4.002,14.605-5.011"/>
				<path fill="none" stroke="#747471" stroke-width="0.6912" stroke-linecap="round" stroke-linejoin="round" d="M728.351,877.864
					c1.07-6.073,10.719-9.966,15.944-7.618"/>
			</g>
			<path fill="#21100E" d="M678.98,882.322l3.931-0.676c0,0,6.417-3.038,9.125,1.354c2.71,4.391-4.945,2.09-4.945,2.09l-6.128-1.591
				C680.963,883.499,676.085,882.707,678.98,882.322z"/>
			<path fill="#080F0C" d="M718.809,892.73c0,0-2.424-1.063-3.724,0.533c0,0-0.335,0.381,0.145,0.344
				C715.707,893.575,716.312,892.051,718.809,892.73z"/>
			<path fill="#080F0C" d="M721.705,891.02c0,0-2.422-1.063-3.724,0.533c0,0-0.335,0.38,0.145,0.345
				C718.605,891.865,719.207,890.342,721.705,891.02z"/>
			<path fill="#080F0C" d="M725.483,891.446c0,0-2.42-1.063-3.722,0.532c0,0-0.338,0.379,0.141,0.344
				C722.383,892.287,722.987,890.764,725.483,891.446z"/>
			<path fill="#080F0C" d="M714.961,894.475c0,0-2.635-0.165-3.029-2.18c0,0-0.117-0.491,0.292-0.24
				C712.627,892.305,712.441,893.935,714.961,894.475z"/>
			<path fill="#080F0C" d="M710.53,889.141c0,0,2.486,0.277,2.543,2.398c0,0,0.032,0.512-0.313,0.235
				C712.412,891.498,712.846,889.807,710.53,889.141z"/>
			<path fill="#080F0C" d="M715.304,889.516c0,0-2.182,1.217-1.416,3.191c0,0,0.167,0.488,0.378,0.1
				C714.48,892.416,713.426,891.025,715.304,889.516z"/>
			<path fill="#080F0C" d="M707.813,895.076c0,0,0.178-2.58,2.26-3.242c0,0,0.503-0.181,0.246,0.246
				C710.059,892.508,708.38,892.557,707.813,895.076z"/>
			<path fill="#080F0C" d="M716.527,888.582c0,0,0.713,1.709-0.685,2.91c0,0-0.33,0.306-0.271-0.063
				C715.633,891.057,716.922,890.397,716.527,888.582z"/>
			<path fill="#080F0C" d="M709.313,895.26c0,0-0.131-2.551,1.91-2.986c0,0,0.489-0.128,0.276,0.273
				C711.29,892.945,709.587,892.807,709.313,895.26z"/>
			<path fill="#080F0C" d="M708.546,889.186c0,0,2.39,0.002,2.696,2.203c0,0,0.091,0.531-0.27,0.284
				C710.611,891.424,710.818,889.611,708.546,889.186z"/>
			<path fill="#080F0C" d="M709.466,894.031c0,0-2.636-0.163-3.03-2.18c0,0-0.118-0.492,0.291-0.242
				C707.132,891.86,706.947,893.492,709.466,894.031z"/>
			<path fill="#080F0C" d="M705.032,888.698c0,0,2.49,0.274,2.547,2.396c0,0,0.03,0.515-0.316,0.238
				C706.916,891.055,707.352,889.361,705.032,888.698z"/>
			<path fill="#080F0C" d="M709.811,889.071c0,0-2.186,1.22-1.419,3.192c0,0,0.167,0.49,0.38,0.101S707.93,890.582,709.811,889.071z
				"/>
			<path fill="#080F0C" d="M702.317,894.635c0,0,0.181-2.584,2.261-3.246c0,0,0.505-0.18,0.244,0.247
				C704.563,892.064,702.886,892.111,702.317,894.635z"/>
			<path fill="#080F0C" d="M703.815,894.818c0,0-0.126-2.553,1.91-2.988c0,0,0.49-0.127,0.279,0.271
				C705.795,892.504,704.09,892.364,703.815,894.818z"/>
			<path fill="#080F0C" d="M703.05,888.742c0,0,2.39,0,2.696,2.202c0,0,0.092,0.535-0.271,0.288
				C705.118,890.982,705.321,889.168,703.05,888.742z"/>
			<path fill="#080F0C" d="M703.815,893.805c0,0-2.635-0.164-3.029-2.182c0,0-0.118-0.492,0.29-0.242
				C701.48,891.633,701.295,893.264,703.815,893.805z"/>
			<path fill="#080F0C" d="M699.382,888.473c0,0,2.488,0.273,2.545,2.394c0,0,0.032,0.515-0.313,0.237
				C701.264,890.827,701.701,889.136,699.382,888.473z"/>
			<path fill="#080F0C" d="M704.159,888.845c0,0-2.186,1.219-1.417,3.19c0,0,0.167,0.491,0.381,0.102
				C703.333,891.748,702.277,890.355,704.159,888.845z"/>
			<path fill="#080F0C" d="M695.982,893.594c0,0,0.957-2.402,3.139-2.398c0,0,0.539-0.02,0.161,0.311
				C698.905,891.834,697.288,891.365,695.982,893.594z"/>
			<path fill="#080F0C" d="M698.164,894.592c0,0-0.129-2.553,1.912-2.989c0,0,0.487-0.128,0.276,0.272
				C700.141,892.273,698.438,892.137,698.164,894.592z"/>
			<path fill="#080F0C" d="M683.608,894.721c0,0-0.129-2.555,1.908-2.986c0,0,0.492-0.128,0.28,0.27
				C685.585,892.405,683.882,892.266,683.608,894.721z"/>
			<path fill="#080F0C" d="M689.554,893.339c0,0-0.13-2.552,1.905-2.987c0,0,0.492-0.127,0.279,0.271
				C691.53,891.025,689.823,890.887,689.554,893.339z"/>
			<path fill="#080F0C" d="M697.4,888.515c0,0,2.387,0,2.695,2.206c0,0,0.094,0.531-0.271,0.283
				C699.467,890.754,699.674,888.939,697.4,888.515z"/>
			<path fill="#080F0C" d="M693.678,892.08c0,0,1.256-2.263,3.419-1.982c0,0,0.536,0.05,0.118,0.326
				C696.799,890.704,695.26,890.037,693.678,892.08z"/>
			<path fill="#080F0C" d="M695.36,892.859c0,0,0.646-2.471,2.72-2.272c0,0,0.506,0.025,0.186,0.344
				C697.943,891.248,696.358,890.604,695.36,892.859z"/>
			<path fill="#080F0C" d="M695.09,888.992c0,0,2.221-0.873,3.313,1.067c0,0,0.277,0.464-0.15,0.364
				C697.826,890.324,697.36,888.556,695.09,888.992z"/>
			<path fill="#080F0C" d="M691.711,894.016c0,0-0.523-2.534,1.302-3.734c0,0,0.437-0.311,0.301,0.175
				C693.182,890.937,691.576,891.433,691.711,894.016z"/>
			<path fill="#080F0C" d="M693.495,893.51c0,0-1.122-2.295,0.58-3.498c0,0,0.4-0.31,0.366,0.143
				C694.4,890.604,692.781,891.148,693.495,893.51z"/>
			<path fill="#080F0C" d="M690.768,890.754c0,0,1.117-2.111,3.207-1.35c0,0,0.514,0.169,0.124,0.373
				C693.711,889.977,692.207,888.939,690.768,890.754z"/>
			<path fill="#080F0C" d="M691.418,887.26c0,0,2.534-0.515,3.729,1.315c0,0,0.309,0.438-0.175,0.302
				C694.49,888.742,693.998,887.135,691.418,887.26z"/>
			<path fill="#080F0C" d="M691.916,889.046c0,0,2.301-1.112,3.496,0.593c0,0,0.308,0.402-0.142,0.364
				C694.819,889.965,694.283,888.342,691.916,889.046z"/>
			<path fill="#080F0C" d="M694.685,886.33c0,0,2.106,1.122,1.339,3.211c0,0-0.174,0.514-0.374,0.125
				C695.448,889.275,696.488,887.771,694.685,886.33z"/>
			<path fill="#080F0C" d="M684.573,887.192c0,0,2.585,0.151,3.271,2.226c0,0,0.187,0.5-0.245,0.246
				S687.102,887.733,684.573,887.192z"/>
			<path fill="#080F0C" d="M686.611,886.713c0,0,2.583,0.149,3.266,2.223c0,0,0.19,0.502-0.244,0.249
				C689.2,888.928,689.138,887.251,686.611,886.713z"/>
			<path fill="#080F0C" d="M688.178,890.547c0,0,1.577-2.012,3.401-1.001c0,0,0.451,0.226,0.029,0.388
				C691.188,890.098,689.994,888.877,688.178,890.547z"/>
			<path fill="#080F0C" d="M689.47,886.893c0,0,2.387,0.085,2.612,2.298c0,0,0.072,0.535-0.28,0.274
				C691.451,889.205,691.728,887.395,689.47,886.893z"/>
			<path fill="#080F0C" d="M678.369,898.23c0,0-0.532-2.533,1.289-3.736c0,0,0.438-0.311,0.302,0.172
				C679.83,895.149,678.228,895.649,678.369,898.23z"/>
			<path fill="#080F0C" d="M681.178,898.053c0,0-1.759-1.857-0.495-3.512c0,0,0.291-0.414,0.389,0.023
				C681.172,895.007,679.789,896.013,681.178,898.053z"/>
			<path fill="#080F0C" d="M677.414,894.973c0,0,1.111-2.115,3.206-1.359c0,0,0.516,0.168,0.123,0.373
				C680.355,894.189,678.85,893.154,677.414,894.973z"/>
			<path fill="#080F0C" d="M678,899.585c0,0-0.531-2.53,1.29-3.735c0,0,0.435-0.313,0.302,0.17
				C679.457,896.504,677.855,897.006,678,899.585z"/>
			<path fill="#080F0C" d="M679.188,899.762c0,0-1.131-2.294,0.57-3.498c0,0,0.399-0.314,0.362,0.138
				C680.084,896.852,678.467,897.4,679.188,899.762z"/>
			<path fill="#080F0C" d="M678.451,890.6c0,0,2.591,0.026,3.375,2.062c0,0,0.209,0.493-0.232,0.261
				C681.149,892.686,681.004,891.014,678.451,890.6z"/>
			<path fill="#080F0C" d="M678.568,892.449c0,0,2.482-0.609,3.296,1.313c0,0,0.218,0.455-0.214,0.322
				C681.215,893.952,681.029,892.254,678.568,892.449z"/>
			<path fill="#080F0C" d="M683.948,896.137c0,0-1.853-1.811-1.012-3.823c0,0,0.188-0.502,0.35-0.027
				C683.442,892.764,682.393,894.072,683.948,896.137z"/>
			<path fill="#080F0C" d="M685.144,894.717c0,0-2.215-1.274-1.476-3.221c0,0,0.157-0.482,0.379-0.088
				C684.271,891.804,683.228,893.159,685.144,894.717z"/>
			<path fill="#080F0C" d="M681.34,893.959c0,0-0.255-2.377,1.902-2.912c0,0,0.522-0.146,0.315,0.238
				C683.345,891.67,681.516,891.653,681.34,893.959z"/>
			<path fill="#080F0C" d="M681.086,888.93c0,0,2.546-0.476,3.71,1.37c0,0,0.304,0.444-0.176,0.304
				C684.139,890.457,683.671,888.843,681.086,888.93z"/>
			<path fill="#080F0C" d="M681.559,890.723c0,0,2.315-1.081,3.487,0.649c0,0,0.302,0.403-0.147,0.357
				C684.448,891.684,683.938,890.055,681.559,890.723z"/>
			<path fill="#080F0C" d="M684.37,888.051c0,0,2.088,1.154,1.288,3.229c0,0-0.18,0.51-0.379,0.119
				C685.086,891.007,686.151,889.521,684.37,888.051z"/>
			<path fill="#080F0C" d="M687.682,894.88c0,0-1.021-2.376,0.524-3.918c0,0,0.366-0.392,0.333,0.107
				C688.502,891.569,687.03,892.379,687.682,894.88z"/>
			<path fill="#080F0C" d="M689.325,894.025c0,0-1.558-2.021-0.131-3.541c0,0,0.33-0.383,0.383,0.064
				C689.631,890.997,688.153,891.855,689.325,894.025z"/>
			<path fill="#080F0C" d="M686.103,891.873c0,0,0.67-2.295,2.871-1.965c0,0,0.539,0.063,0.197,0.342
				C688.831,890.523,687.147,889.81,686.103,891.873z"/>
		</g>
		<path fill="#CCCFD3" d="M674.22,908.27c-0.192-0.435-0.671-0.336-0.466-0.828c0.857,3.137-2.064,7.576-5.371,5.822
			c-2.234-1.181-1.47-2.997-4.565-2.295c-2.399,0.543-3.105,2.378-6.001,1.684c-6.638-1.592,0.065-9.035-4.175-13.105
			c-3.965-3.811-10.093,0.089-9.633-8.248c-2.948-1.143-3.859,2.438-6.286,2.381c-3.103-0.076-2.585-3.343-2.109-5.356
			c1.867-7.909-1.346-10.427-8.084-14.202c4.705-0.602,10.648,1.938,11.426,6.871c0.33,2.107-0.866,4.101,0.692,5.969
			c2.454,2.943,3.414-0.123,5.692-0.119c3.53,0.004,5.54,5.239,7.577,7.516c1.362,1.525,7.702,6.824,7.941,2.104
			c1.781,1.306,1.823,2.446,3.688,2.684c0.83,0.105,2.684-0.587,3.98-0.512c2.389,0.14,6.898,0.179,4.829,3.81
			c2.568,0.35,1.897,2.684-0.052,3.131"/>
		<path fill="#7D818A" d="M686.121,902.579c-0.739,1.263-6.547,1.923-8.529,2.748c-1.798,0.745-9.516,4.502-9.216-0.238
			c0.302-4.728,20.9-7.528,18.195-2.513"/>
		<path fill="#FFFFFF" d="M667.46,906.955c0.112,0.217,0.433,0.43,0.61,0.605c-0.647-0.861-0.927-1.93-0.828-2.989
			c-2.307,0.64-0.834,4.464,1.12,2.831"/>
	</g>
	<polyline clip-path="url(#SVGID_2_)" fill="#050907" points="678.991,989.174 701.561,993.97 683.788,1081.705 680.402,1075.781 	
		"/>
	<path clip-path="url(#SVGID_2_)" fill="#9B9F9F" d="M471.145,927.163c1.3-0.714,2.325-1.552,3.833-2.211
		c1.348-0.59,3.771-1.428,3.522-3.402c-0.207-1.652-2.686-2.511-3.901-3.187c-2.063-1.15-3.658-2.487-5.394-4.201
		c-3.71-3.663-7.451-8.578-9.064-13.551c-1.018-3.141-2.413-7.203-6.048-8.416c-0.448-0.15-0.198-0.023-0.435-0.002H343.787
		l-12.521,0.863v35.403l63.248-0.864c0,0-4.103,19.213,12.736,21.586c16.838,2.375,12.737-0.862,12.737-0.862l-1.943-2.157
		c0,0-22.018-9.499-17.053-18.566c4.965-9.066,22.881,0,22.881,0l5.614,4.749l28.709,10.362l18.348-12.736L471.145,927.163z"/>
	<path clip-path="url(#SVGID_2_)" fill="#A2A5B4" d="M406.646,929.521c-1.611-0.373-2.582,0.072-3.818-0.938
		c23.293,0.848,27.395,0.077,48.811,0.127c7.57,0.018-4.952-2.887,2.044-1.276c9.304,2.141,53.095,8.53,64.571,10.044
		c17.471,2.306,39.392,1.195,55.407,0.52c12.658-0.537,34.421-5.992,45.063-3.051c9.1,2.517,7.281,5.78,17.714,5.698
		c7.693-0.06,13.642-1.679,20.612-2.67c6.828-0.97,14.018-2.188,20.65-2.472c9.188-0.395,8.777,1.498,10.073,8.023
		c2.006,10.11,1.843,19.061,0.635,29.298c-1.525,12.937-12.246,11.671-28.688,12.171c-7.431,0.225-14.654-0.731-22.345-0.015
		c-7.582,0.71-14.656,2.744-22.532,3.235c-14.329,0.893-37.03,2.641-50.473-1.387c-15.014-4.495-28.89-11.695-44.065-17.002
		c-6.285-2.197-31.987-6.471-39.513-6.541c-9.703-0.094-17.995,5.403-27.294,7.058c-9.201,1.637-3.812,0.659-13.348-0.86
		c-13.886-2.215-12.189-2.955-12.331-10.6c-0.085-4.583,0.112-11.82-4.211-15.607c-6.786-5.95-15.819-2.675-26.868-6.152
		c-2.268-3.881-1.834-14.195,8.466-7.643"/>
	<path clip-path="url(#SVGID_2_)" fill="#050907" d="M409.515,939.092c2.806-4.234,49.274,3.965,33.448-8.055
		c26.371,5.169,67.557,8.667,91.287,13.992c-2.173,0.928-3.953,3.154-6.538,4.178c6.232,8.661,36.064,18.031,49.966,16.434
		c-0.51-4.782-8.458-9.191-14.531-11.293c10.217-0.87,19.738,5.26,28.809,6.832c7.418,1.285,15.186,2.422,22.967,1.629
		c-0.06-2.537-1.333-2.694-2.613-5.149c3.747,4.365,8.809,3.004,14.874,3.937c5.3,0.816,9.824,2.841,14.776,3.729
		c9.275,1.662,21.611,1.861,29.076,3.448c-1.316,0.384-2.551,1.425-3.473,1.768c9.721,2.663,6.681,8.183-0.923,11.091
		c-7.119,2.723-19.028,1.964-27.232,1.906c-8.238-0.057-17.657-0.064-25.766-1.621c-9.124-1.75-18.521-5.416-29.475-4.053
		c0.999,3.603,5.803,6.457,9.674,9.035c-31.749,1.26-49.055-10.878-75.584-22.04c-15.37-6.47-39.596-7.733-56.125-1.475
		c-13.579,5.145-8.183,11.093-23.233,3.368c2.626-0.096,3.986-0.826,6.413-1.09c1.156-3.061-1.466-5.41-6.413-6.422
		c9.814,1.494,7.744-5.168,1.722-7.313c0.851-0.138,2.452-0.014,3.388-0.052c2.356-6.003-4.495-9.738-13.393-11.645
		c-5.403-1.155-24.463-1.874-25.409-1.219"/>
	<path clip-path="url(#SVGID_2_)" fill="#576269" d="M672.801,996.361c-18.809,47.449-7.267,100.455-7.267,120.974
		c0,23.101-8.977,44.888-8.977,44.888l29.923,2.563l-4.702-104.303c0,0-8.124-5.986-7.269-19.664"/>
	<path clip-path="url(#SVGID_2_)" fill="#050907" d="M674.883,1119.669c0,0-6.813,14.424-4.008,18.431
		c2.805,4.008,6.01-2.404,6.01-2.404l-0.801,26.847l-16.829-0.4c0,0,1.604-3.605,3.607-8.815c2.002-5.21,2.803-22.439,2.803-22.439
		l2.806-8.413c0,0-5.608-42.476-5.209-54.496c0.4-12.021,0-14.024,0-14.024s-18.433-39.27-10.818-56.5l0.4-5.207l20.436,2.003
		l0.802,4.809c0,0-18.834,7.212-16.029,13.624c2.807,6.41,15.628-0.803,15.628-0.803s-16.428,8.815-15.228,17.631
		c1.204,8.816,9.618,6.011,16.431,0c0,0-13.223,10.018-11.221,14.827c2.003,4.81,6.413,11.619,18.434-2.005l-12.021,17.232
		c0,0-7.613,10.817-4.809,14.824c2.805,4.008,7.528-1.318,12.021-7.612c0,0-11.621,14.425-10.017,19.634
		c1.603,5.209,8.413-0.001,13.223-8.014C685.301,1070.382,658.053,1118.466,674.883,1119.669z"/>
	<path clip-path="url(#SVGID_2_)" fill="#3F494F" d="M670.81,994.254c0,0-9.591,15.516,0.849,46.547c0,0-9.029,14.951-5.079,21.44
		c3.95,6.487,10.439,21.159,14.105,23.134c0,0-1.129,9.592-0.564,11.002s-7.335,47.675-6.206,50.497
		c1.128,2.821,4.514,2.538,4.514,2.538l7.898-69.398l-5.36-22.568l2.258-61.781"/>
	<path clip-path="url(#SVGID_2_)" fill="#6B7277" d="M677.018,1147.156c-0.596-17.968,0.281-36.957,5.924-56.14
		c0.949-3.232,6.185-6.908,7.52-10.155c1.518-3.688-1.603-9.919-0.894-11.737c2.692-6.923,18.021-6.681,5.961-18.429
		c6.606-3.262,2.551-7.729,2.901-13.379c0.331-5.328,2.267-7.203,3.281-13.113c2.178-12.705-3.105-17.445,6.162-28.521
		c-4.765-4.186-9.002-8.887-13.662-12.178c-0.683-18.029-7.206-36.848-14.313-53.234c7.143-2.654,18.086-0.559,26.167-1.344
		c9.271-0.901,16.525-2.778,25.182-5.692c15.962-5.374,33.413-17.333,50.363-17.271c15.204,0.058,30.428,10.84,42.517,19.867
		c17.72,13.236,21.702,55.18,22.654,76.946c2.565,58.563-11.142,85.96-45.979,106.408c2.8,6.759,6.045,11.056,2.957,17.519
		c-4.919,10.296-10.082,6.535-7.419,19.702c2.712,13.397,7.351,26.259,11.543,38.901c-15.588,0.021-11.412,11.1-27.368,9.751
		c-14.351-1.215-31.588-8.851-44.833-14.507c-13.851-5.916-27.226-14.514-41.66-17.328c-10.482-2.043-19.438,1.771-17.285-12.116"/>
	<path clip-path="url(#SVGID_2_)" fill="#050907" d="M676.484,1133.692c3.619,5.76,5.131,16.241,10.987,10.997
		c4.032-3.609,14.073-11.586,14.825-16.665c2.169-14.639-2.902-31.479-1.282-46.168c13.066,6.66,12.094,22.226,21.472,32.255
		c11.796-11.313-7.473-37.273-13.024-48.107c10.036,0.757,15.313,15.324,25.143,18.303c4.964-17.776-21.621-29.79-25.115-43.465
		c15.508-6.599,30.282,16.586,43.268,21.568c-7.157-11.768-20.351-23.633-30.157-32.51c8.951,0.553,17.96,5.875,26.928,7.516
		c-5.369-3.356-12.422-10.853-5.14-14.328c5.282-2.523,16.626,5.317,21.07,7.652c14.177,7.45,24.311,17.724,34.597,29.449
		c-14.742-53.067-65.924-78.023-107.966-71.416c19.743-17.363-21.097-34.748-17.614-56.368c10.365,0.253,22.775,8.436,33.754,9.653
		c11.918,1.319,26.405,2.109,38.505,2.217c-5.142-2.086-18.254-4.211-22.981-10.67c14.07-8.948,34.854,6.105,50.027,5.033
		c1.099-6.426-9.69-12.143-6.721-16.578c2.692-4.026,16.8,3.075,19.998,4.429c19.043,8.063,3.861-13.47,22.107-5.36
		c7.694,3.42,47.449,49.16,22.229,138.93c-1.026-12.032-0.911-26.107-11.97-31.208c2.204,12.534,5.752,26.682-0.854,39.329
		c-2.943-1.575-2.253-9.448-4.275-11.97c-1.886,16.563-7.763,35.043-18.809,47.877c-1.288-6.934-0.699-6.636-6.021-11.677
		c-0.467,7.923,1.228,17.132-1.474,24.686c-1.658-0.839-4.295-0.424-6.16-1.911c-1.226,8.555,1.158,18.207,0.709,27.175
		c-3.226-2.449-5.976-6.286-9.496-8.558c1.971,12.057,12.047,25.731,17.188,36.864c-9.232,4.828-15.991,13.011-26.382,16.427
		c-4.184,1.374-12.468,4.359-17.057,2.209c-4.904-2.294-4.9-9.631-11.409-11.573c-5.893-1.757-12.233,1.444-18.371,0.905
		c-5.743-0.504-12.115-3.865-17.514-5.836c-9.925-3.625-14.068-8.289-25.016-7.851c-1.897-6.74-0.481-21.671,0.4-26.848"/>
	<path opacity="0.63" clip-path="url(#SVGID_2_)" fill="#576269" d="M704.9,990.787c0,0-10.293,18.795-14.321,53.258
		c0,0-9.398,40.28-7.607,49.232c0,0,36.175-26.449,33.938-34.506s-11.534-19.414-11.534-19.414s23.672-24.431,37.1-32.486"/>
	<path clip-path="url(#SVGID_2_)" fill="#797E82" d="M675.794,992.088l12.824,2.564c0,0-9.833,63.266-3.421,74.38l-2.564,16.67
		c0,0-11.542-14.533-14.962-29.923c0,0,0.854-9.402,6.412-13.25C674.083,1042.529,660.404,998.073,675.794,992.088z"/>
	<path clip-path="url(#SVGID_2_)" fill="#9B9F9F" d="M700.426,988.996c0,0-10.294,18.797-14.323,53.258
		c0,0-6.265,42.071-4.475,51.023c0,0,35.276-27.85,33.038-35.904c-2.237-8.057-13.346-18.699-13.346-18.699
		s26.839-26.215,40.265-34.271"/>
	<path clip-path="url(#SVGID_2_)" fill="#FFFFFF" d="M404.524,926.717c-12.974-0.378-15.13,10.114-2.129,11.609
		c6.734,0.775,22.538,1.985,18.471,7.629c-0.997,1.381-1.77,2.327-0.503,3.768c1.233,1.403,3.062,1.241,4.684,2.133
		c1.701,0.936,0.859,1.875-0.061,2.922c-1.511,1.718-1.382,2.142,0.559,3.639c2.76,2.127-1.191,4.829,2.234,7.092
		c1.631,1.078,7.468,4.352,10.048,2.979c0.101-0.056,0.525,0.025,0.668,0.009c-3.248-1.093-8.28-4.029-7.753-6.468
		c0.26-1.203,3.04-1.719,3.211-2.633c0.12-0.637-2.562-2.289-2.909-3.087c-1.147-2.626,3.996-3.659,1.612-6.202
		c-2.217-2.365-4.983-4.568-3.89-7.112c2.143-4.991-9.373-5.173-15.281-5.978c-9.005-1.23-5.704-6.361-3.087-9.683
		c-1.82-0.539-5.09,0.687-6.458,1.35c-2.251,1.088-3.013,2.691-3.354,4.29c-1.592-2.198-0.503-4.37,2.156-5.974
		c-0.254,0.17-0.179,0.331-0.284,0.511"/>
	<path clip-path="url(#SVGID_2_)" fill="#FFFFFF" d="M540.552,945.257c5.3-0.073,10.071,1.977,14.438,3.52
		c2.632,0.929,6.949,3.212,9.776,3.293c-2.419-1.735-5.282-3.251-6.804-5.403c2.351-1.461,6.845,0.64,9.45,1.111
		c5.688,1.03,11.664,1.35,17.227,2.443c9.083,1.785,17.743,3.97,26.1,6.326c-3.358-1.455-8.401-7.863-7.092-10.662
		c1.411-3.017,8.729-4.793,12.958-4.138c6.775,1.052,11.92,4.368,19.061,4.825c5.375,0.342,11.36,0.52,14.919-2.436
		c-4.162-0.089-7.008-0.003-11.284-1.031c-3.286-0.791-6.23-1.795-9.23-3.067c-6.204-2.63-10.982-5.515-18.507-6.493
		c-8.322-1.08-15.998,0.006-24.528-0.005c-10.108-0.013-20.421,0.366-30.844,1.016c-13.46,0.838-26.745,4.571-40.011-0.471
		c-4.129-1.569-33.937-3.384-37.999-5.173c-4.458-1.964-23.145-1.711-28.459-1.928c7.459,4.426,57.28,8.199,65.752,11.396
		c7.83,2.954,18.987,2.027,23.252,7.518c0.485,0.067,0.945,0.049,1.448,0.06"/>
	<path clip-path="url(#SVGID_2_)" fill="#6B7277" d="M677.839,938.838c0,0-43.06-16.057-42.191-2.165c0,0-36.47-12.154-40.812-6.078
		c0,0-34.746-6.839-38.646,3.961c0,0-49.924-11.774-59.476-2.225c-9.551,9.552,7.816,22.577,7.816,22.577l15.773,14.92l177.863,0.71
		"/>
	<path clip-path="url(#SVGID_2_)" fill="#9B9F9F" d="M501.813,929.676c0,0,44.883-2.139,51.725,3.419
		c6.838,5.558,13.252,28.212,11.114,34.198c-2.139,5.985,0,0,0,0s-2.992-26.504-22.657-35.053"/>
	<path clip-path="url(#SVGID_2_)" fill="#050907" d="M478.181,928.912c0,0-9.252,32.074,1.168,42.494l15.63,0.869
		c0,0,15.63,5.207,39.074,15.629c23.445,10.42,61.652,16.496,83.359,8.684c21.709-7.814,113.649,5.219,138.744,20.719
		c29.069,17.955,32.916,26.076,32.916,26.076l-44.882-94.554l-69.716-16.424c0,0-9.306,1.943-4.528,5.709
		c4.776,3.769-14.316,7.618-23.004,1.786c-8.688-5.832-22.47-6.395-16.873,0.138c5.596,6.534,24.935,34.142,2.974,18.344
		c-21.96-15.8-37.338-23.444-32.129-14.763c5.211,8.684,34.734,46.893-2.603,19.973c-37.339-26.919-40.813-26.05-37.339-19.973
		c3.473,6.078,9.999,38.309-5.211,19.973C540.552,945.257,503.932,926.361,478.181,928.912z"/>
	<polygon clip-path="url(#SVGID_2_)" fill="#6B7277" points="701.32,1038.674 685.872,1061.4 703.262,1040.702 	"/>
	<path clip-path="url(#SVGID_2_)" fill="#6B7277" d="M477.873,967.293c0,0,0,8.979,3.419,10.26c3.421,1.281,23.939,0,23.939,0
		s3.846,0.853,21.801,5.555c17.953,4.705,51.758,19.859,84.213,14.108c48.563-8.606,102.163,5.781,102.163,5.781
		s-76.943-19.034-69.25-22.453c7.695-3.419,0-1.71,0-1.71s-26.93-18.381-11.113,1.71c15.818,20.091,0.856,4.703-8.121,2.993
		s7.267,8.979-6.84,8.979s-49.161,0.853-87.205-14.108c-38.043-14.961-42.746-5.983-42.746-5.983s-8.55,1.71-8.123-12.826
		c0.427-14.533-0.854-24.365-0.854-24.365S474.453,951.902,477.873,967.293z"/>
	<path clip-path="url(#SVGID_2_)" fill="#9B9F9F" d="M563.368,928.822"/>
	<polygon clip-path="url(#SVGID_2_)" fill="#576269" points="674.759,1043.904 679.556,1054.343 680.966,1057.445 673.068,1045.315 
			"/>
</g>
<rect x="0" y="0" opacity="0.3" width="800" height="1280"/>
</svg>
