<?xml version="1.0" encoding="utf-8"?>
<!-- Generator: Adobe Illustrator 16.0.3, SVG Export Plug-In . SVG Version: 6.00 Build 0)  -->
<!DOCTYPE svg PUBLIC "-//W3C//DTD SVG 1.1 Basic//EN" "http://www.w3.org/Graphics/SVG/1.1/DTD/svg11-basic.dtd" [
	<!ENTITY ns_flows "http://ns.adobe.com/Flows/1.0/">
	<!ENTITY ns_extend "http://ns.adobe.com/Extensibility/1.0/">
	<!ENTITY ns_ai "http://ns.adobe.com/AdobeIllustrator/10.0/">
	<!ENTITY ns_graphs "http://ns.adobe.com/Graphs/1.0/">
]>
<svg version="1.1" baseProfile="basic" id="Layer_1" xmlns:x="&ns_extend;" xmlns:i="&ns_ai;" xmlns:graph="&ns_graphs;"
	 xmlns="http://www.w3.org/2000/svg" xmlns:xlink="http://www.w3.org/1999/xlink" xmlns:a="http://ns.adobe.com/AdobeSVGViewerExtensions/3.0/"
	 x="0px" y="0px" width="377.756px" height="178.377px" viewBox="0 0 377.756 178.377" xml:space="preserve">
<g>
	<g>
		<g>
			<path fill="#45B649" d="M209.323,86.083c-15.149,0-27.43,15.547-27.43,34.725s12.28,34.725,27.43,34.725
				c15.148,0,27.429-15.547,27.429-34.725S224.471,86.083,209.323,86.083z M202.612,135.397c-6.447,0-11.672-8.166-11.672-18.238
				s5.225-18.236,11.672-18.236c6.445,0,11.672,8.164,11.672,18.236S209.057,135.397,202.612,135.397z"/>
		</g>
		<g>
			<path fill="none" stroke="#006735" d="M209.323,86.083c-15.149,0-27.43,15.547-27.43,34.725s12.28,34.725,27.43,34.725
				c15.148,0,27.429-15.547,27.429-34.725S224.471,86.083,209.323,86.083z M202.612,135.397c-6.447,0-11.672-8.166-11.672-18.238
				s5.225-18.236,11.672-18.236c6.445,0,11.672,8.164,11.672,18.236S209.057,135.397,202.612,135.397z"/>
		</g>
	</g>
	<g>
		<g>
			<path fill="#45B649" d="M248.913,96.295c-15.148,0-27.429,15.547-27.429,34.724c0,19.178,12.28,34.725,27.429,34.725
				c15.149,0,27.43-15.547,27.43-34.725C276.342,111.842,264.062,96.295,248.913,96.295z M244.828,149.403
				c-7.091,0-12.839-8.361-12.839-18.676s5.748-18.676,12.839-18.676s12.84,8.361,12.84,18.676S251.918,149.403,244.828,149.403z"/>
		</g>
		<g>
			<path fill="none" stroke="#006735" d="M248.913,96.295c-15.148,0-27.429,15.547-27.429,34.724
				c0,19.178,12.28,34.725,27.429,34.725c15.149,0,27.43-15.547,27.43-34.725C276.342,111.842,264.062,96.295,248.913,96.295z
				 M244.828,149.403c-7.091,0-12.839-8.361-12.839-18.676s5.748-18.676,12.839-18.676s12.84,8.361,12.84,18.676
				S251.918,149.403,244.828,149.403z"/>
		</g>
	</g>
	<g>
		<path fill="#45B649" stroke="#006735" d="M320.82,145.491c-8.624,7.975-17.685,11.963-27.179,11.963
			c-8.771,0-16.181-3.48-22.231-10.439c-6.052-6.957-9.078-15.766-9.078-26.422c0-11.381,3.642-21.112,10.926-29.194
			c7.283-8.083,15.818-12.125,25.604-12.125c2.972,0,5.437,0.218,7.394,0.654c1.957,0.436,4.168,1.344,6.632,2.724l-10.111,17.626
			c-2.61-2.745-5.364-4.118-8.263-4.118c-3.263,0-6.09,1.773-8.482,5.321c-2.391,3.548-3.587,7.929-3.587,13.14
			c0,3.621,1.123,6.517,3.37,8.689c2.247,2.172,5.183,3.257,8.807,3.257c3.116,0,5.87-0.834,8.262-2.5
			c2.392-1.667,4.132-4.096,5.22-7.286L320.82,145.491z"/>
	</g>
	<g>
		<path fill="#45B649" stroke="#006735" d="M374.756,157.366l-27.185-2.009l0.617-20.382l-12.728,1.008v26.076l-22.86-5.125
			l2.966-71.454l27.803-1.407l-1.854,36.145l10.874,0.502l1.235-27.61l21.131-0.903V157.366z"/>
	</g>
	<g>
		<path fill="#45B649" stroke="#006735" d="M188.927,80.046l-7.681,94.896l-22.255-4.783l1.969-33.479l-14.968,5.979l2.954,34.906
			l-18.809-8.631l-2.855-78.221l20.679-5.314v30.955h13.491l7.188-41.749L188.927,80.046z"/>
	</g>
</g>
<g>
	<path fill="#006735" d="M4.039,43.742c1.926,3.424,17.466,12.425,21.246,14.121c3.483,1.563,4.461,1.916,7.048,4.438
		c5.004,4.878,0.012,15.092,1.577,14.745c1.591-0.353,3.825-7.247,3.825-9.368c0-5.055-2.577-8.928-7.73-11.62
		c-4.814-2.039-9.6-4.117-14.356-6.237c-5.21-3.017-7.815-7.46-7.815-13.332c0-6.522,2.435-11.619,7.305-15.287
		c3.794-2.854,9.232-4.892,16.311-6.115c4.813-0.815,21.45-1.652,27.679-1.652l-9.671,25.902
		c-3.398-1.792-11.372-4.187-13.099-4.757c-1.728-0.57,1.038-11.737-0.49-11.806c-3.917-0.177-4.285,2.643-5.02,5.286
		c-0.443,1.597-1.099,3.818-1.099,6.101c0,0.652,3.001,1.509,9.005,2.568c6.003,1.059,10.731,3.382,14.187,6.968
		c5.437,5.542,8.155,14.262,8.155,26.162c0,10.515-3.03,19.192-9.089,26.039c-5.834,6.601-12.998,9.901-21.493,9.901
		c-7.079,0-11.203-0.984-15.361-2.917c-3.646-1.695-6.707-5.22-7.93-6.975C7.224,95.906-6.635,78.425,4.039,43.742z"/>
	<path fill="#006735" d="M87.105,47.09l-10.867-2.643l0.588,37.297L58.325,68.089l6.314-26.138L51.57,38.133l9.398-20.705h26.872
		L87.105,47.09z"/>
	<path fill="#006735" d="M121.319,23.156c0,6.541,1.222,22.752,0.441,29.074c-0.782,6.322,1.762,18.943-6.726,27.021
		c-4.101,3.902-7.159,7.119-12.218,7.119c-5.801,0-10.45-3.231-13.947-9.695c-3.333-6.146-4.999-25.921-4.999-35.1
		c0-4.269,0.472-8.459,1.417-12.569l17.089-3.207l-0.392,14.231c0,10.984,1.093,16.475,3.28,16.475c1.774,0,3.125-1.347,4.053-4.041
		c0.929-2.694,1.393-6.276,1.393-10.746c0-2.156-0.063-4.121-0.187-5.897c-0.125-1.775-2.928-11.35-3.301-13.105L121.319,23.156z"/>
	<path fill="#006735" d="M202.042,57.716c0,6.52-3.658,12.137-10.974,16.854c-7.118,4.577-15.199,6.866-24.245,6.866
		c-1.681,0-3.287-0.094-4.819-0.277c-1.532-0.186-2.966-0.486-4.3-0.902l-9.072-54.898c2.867-1.525,8.604-1.254,12.335-2.202
		c3.731-0.948,11.612-0.881,15.419-0.881c8.451,0,11.207,1.518,16.299,4.846c4.104,2.682,5.525,14.644,7.355,19.36
		C201.374,49.948,202.042,53.693,202.042,57.716z M186.397,54.384c0.098-0.462,0.147-0.925,0.147-1.387
		c0-1.525,0.916-8.652-0.468-9.578c-2.127-1.433-8.126-6.167-13.216-6.167l1.821,25.383c3.064,0,5.783-0.797,8.156-2.392
		C185.211,58.648,186.397,56.695,186.397,54.384z"/>
	<path fill="#006735" d="M233.821,60.187c0,4.896-2.983,9.02-8.952,12.371c-5.71,3.22-12.449,4.83-20.218,4.83
		c-3.446,0-6.392-0.507-8.836-1.52c-2.443-1.016-5.646-2.977-9.607-5.886l9.26-13.751c1.75,3.661,5.119,5.491,10.109,5.491
		c3.035,0,5.415-0.508,7.139-1.522c1.723-1.015,2.585-2.604,2.585-4.767c0-1.5-2.136-2.847-6.405-4.038
		c-6.482-1.81-10.443-3.067-11.884-3.774c-4.271-2.03-6.405-4.788-6.405-8.274c0-3.751,2.547-6.962,7.641-9.631
		c5.092-2.67,10.777-4.006,17.054-4.006c3.704,0,6.79,0.321,9.26,0.96s5.093,1.865,7.872,3.674l-8.721,10.998
		c-0.463-1.547-1.287-2.784-2.469-3.712c-1.184-0.928-2.727-1.393-4.63-1.393c-2.06,0-3.821,0.365-5.287,1.092
		s-2.199,1.819-2.199,3.274c0,1.191,2.135,2.36,6.405,3.507c5.607,1.5,9.568,2.999,11.885,4.499
		C231.686,51.344,233.821,55.203,233.821,60.187z"/>
	<path fill="#006735" d="M278.839,60.029l-10.62,12.212L250.75,49.697l0.699,13.804l-19.496,3.47V12.628l20.194-0.453l-3.494,18.091
		l16.839-20.746l9.853,13.418l-14.323,16.057L278.839,60.029z"/>
	<path fill="#006735" d="M295.327,61.04l-23.789-6.167l0.006-47.865l21.14-1.474L295.327,61.04z"/>
	<g>
		<path fill="#006735" d="M161.417,74.034l-36.423-2.924l-7.248-56.024l33.959-6.175l1.524,12.625l-18.059,3.105l1.892,11.396
			l11.749-1.565l1.796,9.579l-8.686,3.995l1.091,4.347l15.946-2.216L161.417,74.034z"/>
	</g>
</g>
<g>
	<g>
		<path fill="#BE1E2D" d="M212.323,81.083c-15.149,0-27.43,15.547-27.43,34.725s12.28,34.725,27.43,34.725
			c15.148,0,27.429-15.547,27.429-34.725S227.471,81.083,212.323,81.083z M205.612,130.397c-6.447,0-11.672-8.166-11.672-18.238
			s5.225-18.236,11.672-18.236c6.445,0,11.672,8.164,11.672,18.236S212.057,130.397,205.612,130.397z"/>
	</g>
	<g>
		<path fill="#BE1E2D" d="M251.913,91.295c-15.148,0-27.429,15.547-27.429,34.724c0,19.178,12.28,34.725,27.429,34.725
			c15.149,0,27.43-15.547,27.43-34.725C279.342,106.842,267.062,91.295,251.913,91.295z M247.828,144.403
			c-7.091,0-12.839-8.361-12.839-18.676s5.748-18.676,12.839-18.676s12.84,8.361,12.84,18.676S254.918,144.403,247.828,144.403z"/>
	</g>
	<g>
		<path fill="#BE1E2D" d="M323.82,140.491c-8.624,7.975-17.685,11.963-27.179,11.963c-8.771,0-16.181-3.48-22.231-10.439
			c-6.052-6.957-9.078-15.766-9.078-26.422c0-11.381,3.642-21.112,10.926-29.194c7.283-8.083,15.818-12.125,25.604-12.125
			c2.972,0,5.437,0.218,7.394,0.654c1.957,0.436,4.168,1.344,6.632,2.724l-10.111,17.626c-2.61-2.745-5.364-4.118-8.263-4.118
			c-3.263,0-6.09,1.773-8.482,5.321c-2.391,3.548-3.587,7.929-3.587,13.14c0,3.621,1.123,6.517,3.37,8.689
			c2.247,2.172,5.183,3.257,8.807,3.257c3.116,0,5.87-0.834,8.262-2.5c2.392-1.667,4.132-4.096,5.22-7.286L323.82,140.491z"/>
	</g>
	<g>
		<path fill="#BE1E2D" d="M377.756,152.366l-27.185-2.009l0.617-20.382l-12.728,1.008v26.076l-22.86-5.125l2.966-71.454
			l27.803-1.407l-1.854,36.145l10.874,0.502l1.235-27.61l21.131-0.904V152.366z"/>
	</g>
	<g>
		<path fill="#BE1E2D" d="M191.927,75.046l-7.681,94.896l-22.255-4.783l1.969-33.479l-14.968,5.979l2.954,34.906l-18.809-8.631
			l-2.855-78.221l20.679-5.314v30.955h13.491l7.188-41.749L191.927,75.046z"/>
	</g>
</g>
<g>
	<path fill="#FFF200" stroke="#006735" d="M6.039,38.742c1.926,3.424,17.466,12.425,21.246,14.12
		c3.483,1.563,4.461,1.917,7.048,4.438c5.004,4.877,0.012,15.091,1.577,14.745c1.591-0.353,3.825-7.248,3.825-9.368
		c0-5.055-2.577-8.928-7.73-11.62c-4.814-2.039-9.6-4.117-14.356-6.237c-5.21-3.017-7.815-7.46-7.815-13.332
		c0-6.522,2.435-11.619,7.305-15.287c3.794-2.854,9.232-4.892,16.311-6.115c4.813-0.815,21.45-1.652,27.679-1.652l-9.671,25.902
		c-3.398-1.792-11.372-4.187-13.099-4.757c-1.728-0.57,1.038-11.737-0.49-11.806c-3.917-0.177-4.285,2.643-5.02,5.286
		c-0.443,1.597-1.099,3.818-1.099,6.101c0,0.652,3.001,1.509,9.005,2.568c6.003,1.059,10.731,3.382,14.187,6.968
		c5.437,5.542,8.155,14.262,8.155,26.162c0,10.514-3.03,19.193-9.089,26.039c-5.834,6.601-12.998,9.901-21.493,9.901
		c-7.079,0-11.203-0.984-15.361-2.917c-3.646-1.695-6.707-5.22-7.93-6.975C9.224,90.906-4.635,73.424,6.039,38.742z"/>
	<path fill="#FFF200" stroke="#006735" d="M89.105,42.09l-10.867-2.643l0.588,37.297L60.325,63.089l6.314-26.138L53.57,33.133
		l9.398-20.705h26.872L89.105,42.09z"/>
	<path fill="#FFF200" stroke="#006735" d="M123.319,18.156c0,6.541,1.222,22.752,0.441,29.074
		c-0.782,6.322,1.762,18.942-6.726,27.021c-4.101,3.903-7.159,7.12-12.218,7.12c-5.801,0-10.45-3.232-13.947-9.696
		c-3.333-6.146-4.999-25.921-4.999-35.1c0-4.269,0.472-8.459,1.417-12.569l17.089-3.207l-0.392,14.231
		c0,10.984,1.093,16.476,3.28,16.476c1.774,0,3.125-1.347,4.053-4.041c0.929-2.694,1.393-6.276,1.393-10.746
		c0-2.156-0.063-4.121-0.187-5.897c-0.125-1.775-2.928-11.35-3.301-13.105L123.319,18.156z"/>
	<path fill="#FFF200" stroke="#006735" d="M204.042,52.716c0,6.52-3.658,12.137-10.974,16.853
		c-7.118,4.578-15.199,6.867-24.245,6.867c-1.681,0-3.288-0.094-4.819-0.277c-1.533-0.186-2.966-0.486-4.3-0.902l-9.072-54.898
		c2.867-1.525,8.603-1.254,12.334-2.202c3.731-0.948,11.612-0.881,15.419-0.881c8.451,0,11.207,1.518,16.299,4.846
		c4.104,2.682,5.525,14.644,7.355,19.36C203.374,44.948,204.042,48.693,204.042,52.716z M188.397,49.384
		c0.098-0.462,0.147-0.925,0.147-1.387c0-1.525,0.916-8.652-0.468-9.578c-2.127-1.433-8.126-6.167-13.216-6.167l1.821,25.383
		c3.064,0,5.783-0.797,8.156-2.392C187.211,53.648,188.397,51.695,188.397,49.384z"/>
	<path fill="#FFF200" stroke="#006735" d="M235.821,55.187c0,4.896-2.983,9.02-8.952,12.372c-5.71,3.219-12.449,4.83-20.218,4.83
		c-3.446,0-6.392-0.507-8.836-1.52c-2.443-1.015-5.646-2.976-9.607-5.885l9.26-13.751c1.75,3.661,5.119,5.491,10.109,5.491
		c3.035,0,5.415-0.507,7.139-1.522c1.723-1.015,2.585-2.604,2.585-4.767c0-1.5-2.136-2.847-6.405-4.038
		c-6.482-1.81-10.443-3.067-11.884-3.774c-4.271-2.03-6.405-4.788-6.405-8.274c0-3.751,2.547-6.962,7.641-9.631
		c5.092-2.67,10.777-4.006,17.054-4.006c3.704,0,6.79,0.321,9.26,0.96s5.093,1.865,7.872,3.674l-8.721,10.998
		c-0.463-1.547-1.287-2.784-2.469-3.712c-1.184-0.928-2.727-1.393-4.63-1.393c-2.06,0-3.821,0.365-5.287,1.092
		s-2.199,1.819-2.199,3.274c0,1.191,2.135,2.36,6.405,3.507c5.607,1.5,9.568,2.999,11.885,4.499
		C233.686,46.344,235.821,50.203,235.821,55.187z"/>
	<path fill="#FFF200" stroke="#006735" d="M280.839,55.029l-10.62,12.211L252.75,44.697l0.699,13.804l-19.496,3.47V7.628
		l20.194-0.453l-3.494,18.091l16.839-20.746l9.853,13.418l-14.323,16.057L280.839,55.029z"/>
	<path fill="#FFF200" stroke="#006735" d="M297.327,56.041l-23.789-6.167l0.006-47.865l21.14-1.474L297.327,56.041z"/>
	<g>
		<path fill="#FFF200" stroke="#006735" d="M163.417,69.034l-36.423-2.924l-7.248-56.024l33.96-6.175l1.524,12.625l-18.059,3.105
			l1.892,11.396l11.749-1.565l1.796,9.579l-8.686,3.995l1.091,4.347l15.946-2.216L163.417,69.034z"/>
	</g>
</g>
<g>
	<path fill="#010101" stroke="#FFC928" d="M116.021,93.491l0.592-2.645c-4.18,2.803-6.104,4.63-5.772,5.482
		c0.067,0.184,0.206,0.299,0.417,0.35c0.264,0.063,1.685-0.186,4.266-0.742L116.021,93.491z M110.86,115.286
		c-5.473,3.602-8.434,6.35-8.883,8.248c-0.212,0.896,0.235,1.475,1.342,1.736c1.223,0.291,3.252-0.049,5.536-0.758l1.333-5.441
		L110.86,115.286z M115.337,118.833l-0.697,3.346c3.723-1.82,5.775-3.529,6.153-5.125c0.125-0.527-0.1-1.289-0.668-2.287
		c-0.572-0.998-0.702-1.795-0.395-2.391c0.861-1.52,2.327-2.189,4.398-2.004c2.071,0.184,4.114,0.375,6.125,0.572
		c1.299-0.08,2.642-0.168,4.027-0.256c1.384-0.092,2.445-0.049,3.184,0.127c0.526,0.125,0.949,0.336,1.269,0.635
		c1.063,0.92,1.798,2.986,2.206,6.199c0.352,2.977,0.291,4.883-0.186,5.715c-0.668,1.178-1.745,1.73-3.229,1.656
		c-0.224,0.004-0.738-0.174-1.544-0.531c-0.503-0.23-1.015-0.184-1.536,0.137c-2.658,1.82-5.335,3.607-8.032,5.361
		c-3.779,2.557-7.152,4.348-10.12,5.369c-1.786,0.605-3.516,0.998-5.189,1.178l-0.861,3.813l-6.159,26.012
		c-0.315,1.33-1.65,2.154-2.982,1.84l0,0c-1.332-0.316-2.156-1.652-1.84-2.982l6.036-25.496l0.579-3.35
		c-0.296-0.053-0.591-0.115-0.883-0.184c-3.162-0.748-6.476-3.092-9.94-7.029c-2.84-3.287-4.473-6.262-4.9-8.924
		c-0.117-0.918-0.068-1.824,0.144-2.721c0.549-2.318,2.318-4.738,5.309-7.26c1.533-1.307,4.404-3.324,8.613-6.057
		c-2.949-2.59-4.697-4.256-5.245-5c0,0-2.048-4.629-1.612-7.645c0.347-2.644,4.614-6.741,12.803-12.288
		c4.39-2.976,7.464-4.917,10.349-6.095c0.921-0.377,1.3-3.203,1.3-3.203l0.508-2.145l5.773-24.38
		c0.315-1.332,1.651-2.156,2.982-1.84l0,0c1.332,0.315,2.156,1.65,1.84,2.982l-5.659,23.899l-0.379,1.6l-0.27,1.696
		c3.268,0.773,6.468,3.492,9.084,7.728c2.238,3.703,3.207,6.549,2.904,8.536c-0.147,0.855-0.651,1.571-1.511,2.146
		c-0.86,0.578-1.744,0.785-2.652,0.625c-0.475-0.113-1.282-1.11-2.422-2.995c-1.14-1.883-2.158-2.932-3.054-3.145
		c-0.969-0.229-3.085,0.584-6.349,2.439l-0.921,3.917l-0.886,4.819c1.109,0.484,2.513,1.848,4.209,4.086
		c1.696,2.238,2.491,3.818,2.385,4.738c-0.129,1.25-0.219,1.98-0.269,2.191c-0.269,0.66-0.789,1.094-1.56,1.299
		c-2.706,0.605-5.687,1.795-8.941,3.566L115.337,118.833z"/>
</g>
<g>
	<path fill="#FFFFFF" stroke="#006735" d="M119.021,90.991l0.592-2.645c-4.18,2.803-6.104,4.63-5.772,5.482
		c0.067,0.184,0.206,0.299,0.417,0.35c0.264,0.063,1.685-0.186,4.266-0.742L119.021,90.991z M113.86,112.786
		c-5.473,3.602-8.434,6.35-8.883,8.248c-0.212,0.896,0.235,1.475,1.342,1.736c1.223,0.291,3.252-0.049,5.536-0.758l1.333-5.441
		L113.86,112.786z M118.337,116.333l-0.697,3.346c3.723-1.82,5.775-3.529,6.153-5.125c0.125-0.527-0.1-1.289-0.668-2.287
		c-0.572-0.998-0.702-1.795-0.395-2.391c0.861-1.52,2.327-2.189,4.398-2.004c2.071,0.184,4.114,0.375,6.125,0.572
		c1.299-0.08,2.642-0.168,4.027-0.256c1.384-0.092,2.445-0.049,3.184,0.127c0.526,0.125,0.949,0.336,1.269,0.635
		c1.063,0.92,1.798,2.986,2.206,6.199c0.352,2.977,0.291,4.883-0.186,5.715c-0.668,1.178-1.745,1.73-3.229,1.656
		c-0.224,0.004-0.738-0.174-1.544-0.531c-0.503-0.23-1.015-0.184-1.536,0.137c-2.658,1.82-5.335,3.607-8.032,5.361
		c-3.779,2.557-7.152,4.348-10.12,5.369c-1.786,0.605-3.516,0.998-5.189,1.178l-0.861,3.813l-6.159,26.012
		c-0.315,1.33-1.65,2.154-2.982,1.84l0,0c-1.332-0.316-2.156-1.652-1.84-2.982l6.036-25.496l0.579-3.35
		c-0.296-0.053-0.591-0.115-0.883-0.184c-3.162-0.748-6.476-3.092-9.94-7.029c-2.84-3.287-4.473-6.262-4.9-8.924
		c-0.117-0.918-0.068-1.824,0.144-2.721c0.549-2.318,2.318-4.738,5.309-7.26c1.533-1.307,4.404-3.324,8.613-6.057
		c-2.949-2.59-4.697-4.256-5.245-5c0,0-2.048-4.629-1.612-7.645c0.347-2.644,4.614-6.74,12.803-12.287
		c4.39-2.976,7.464-4.917,10.349-6.095c0.921-0.377,1.3-3.203,1.3-3.203l0.508-2.145l5.773-24.38
		c0.315-1.332,1.651-2.156,2.982-1.84l0,0c1.332,0.315,2.156,1.65,1.84,2.982l-5.659,23.899l-0.379,1.6l-0.27,1.696
		c3.268,0.773,6.468,3.492,9.084,7.728c2.238,3.703,3.207,6.549,2.904,8.536c-0.147,0.855-0.651,1.571-1.511,2.146
		c-0.86,0.577-1.744,0.784-2.652,0.624c-0.475-0.112-1.282-1.109-2.422-2.994c-1.14-1.883-2.158-2.932-3.054-3.145
		c-0.969-0.229-3.085,0.584-6.349,2.439l-0.921,3.917l-0.886,4.819c1.109,0.484,2.513,1.848,4.209,4.086
		c1.696,2.238,2.491,3.818,2.385,4.738c-0.129,1.25-0.219,1.98-0.269,2.191c-0.269,0.66-0.789,1.094-1.56,1.299
		c-2.706,0.605-5.687,1.795-8.941,3.566L118.337,116.333z"/>
</g>
</svg>
