<?xml version="1.0" encoding="utf-8"?>
<!-- Generator: Adobe Illustrator 16.0.3, SVG Export Plug-In . SVG Version: 6.00 Build 0)  -->
<!DOCTYPE svg PUBLIC "-//W3C//DTD SVG 1.1//EN" "http://www.w3.org/Graphics/SVG/1.1/DTD/svg11.dtd">
<svg version="1.1" id="Layer_1" xmlns="http://www.w3.org/2000/svg" xmlns:xlink="http://www.w3.org/1999/xlink" x="0px" y="0px"
	 width="300px" height="300px" viewBox="0 0 300 300" enable-background="new 0 0 300 300" xml:space="preserve">
<g>
	<defs>
		<circle id="SVGID_1_" cx="150" cy="150" r="140"/>
	</defs>
	<clipPath id="SVGID_2_">
		<use xlink:href="#SVGID_1_"  overflow="visible"/>
	</clipPath>
	
		<circle clip-path="url(#SVGID_2_)" fill="#F58620" stroke="#000000" stroke-width="10" stroke-linecap="round" stroke-linejoin="round" stroke-miterlimit="10" cx="150" cy="150" r="140"/>
	<g clip-path="url(#SVGID_2_)">
		<path fill="#115371" stroke="#003649" stroke-width="1.1674" d="M195.14,335.571c1.22,3.268-1.73,9.843-2.203,13.448
			c-0.505,3.861-0.24,8.271-1.174,11.982c-2.7,0.338-4.626,0.935-7.208,1.854c4.408-2.055,8.595-1.634,13.115-1.396
			c1.39,6.714,2.691,12.989,1.464,19.705c-5.321,1.569-10.939,3.82-16.463,5.307c-4.662,1.249-9.465,1.437-14.083,2.468
			c-3.339,0.743-6.467,0.246-9.319,1.766c-5.968,3.188-13.068,4.462-19.09,7.959c-3.953,2.293-9.688,8.378-13.985,5.208
			c-2.381-1.766-3.377-6.957-3.724-10.257c-0.324-3.083,0.034-6.518,0.372-9.561c0.402-3.499,2.002-4.866,5.183-6.807
			c3.351-2.042,8.147-3.209,12.054-4.169c-4.959,0.773-11.822,3.891-15.298,6.705c-0.705-4.62-0.357-9.544-0.819-14.21
			c-0.627-6.316-1.359-12.589-0.452-19.034c2.967-21,41.978-26.114,59.089-20.532"/>
		<path fill="#8D4920" stroke="#572D18" stroke-width="1.1674" d="M217.635,408.481c0,0,0-27.964-29.134-29.025
			c-29.137-1.06-35.402,6.02-35.402,6.02l-29.505,20.884v10.621c0,0,25.814,10.613,38.355,10.613
			c12.539,0,47.58-9.556,51.262-13.098C216.901,410.962,217.635,408.481,217.635,408.481z"/>
		<path fill="#8D4920" stroke="#572D18" stroke-width="1.1674" d="M212.473,404.586c0,0-33.192,10.97-48.31,11.329
			c-15.123,0.351-34.67-6.018-34.67-6.018"/>
		<path fill="#8D4920" stroke="#572D18" stroke-width="1.1674" d="M179.28,378.748c0,0-12.003,1.974-20.012,11.957l-9.122-2.754"/>
		<path fill="#003649" d="M146.475,368.751c0,0,26.554-7.784,32.821-8.493c0,0-15.493,1.063-23.237,3.185
			c-7.744,2.123-6.637-3.894-6.637-3.894L146.475,368.751z"/>
		<path fill="#63A0BE" stroke="#115371" stroke-width="1.1674" d="M199.814,380.576c-7.728-0.039-15.488-0.898-23.232-0.36
			c-31.627,2.191-51.926,27.312-53.722,30.712c-4.399-2.335-2.92-20.092-2.664-24.135c0.54-8.443,5.708-11.381,14.2-13.085
			c3.969-0.8,7.082-1.801,10.954-3.086c3.973-1.316,8.057-1.408,12.094-2.764c6.166-2.049,11.839-3.304,18.285-4.46
			c7.741-1.391,15.811-2.927,23.382-2.927c-2.206,0-4.493-0.07-6.474,0.308c-0.055-1.26-0.178-2.421-0.379-3.546
			c5.639-0.866,11.637,0.93,12.132,6.509c0.64,7.21-1.55,10.905-2.669,17.565c-1.176-0.284-1.742-1.305-3.048-1.458"/>
		<path fill="#115371" stroke="#003649" stroke-width="1.1674" d="M50.874,312.34c-1.214,3.268,2.95,33.985,3.426,37.596
			c0.505,3.858,0.237,8.271,1.173,11.974c2.698,0.345,4.63,0.941,7.198,1.864c-4.398-2.053-8.59-1.636-13.105-1.399
			c-1.393,6.714-2.694,12.993-1.461,19.707c5.319,1.563,10.934,3.821,16.457,5.3c4.666,1.257,9.465,1.438,14.083,2.469
			c3.344,0.744,6.47,0.246,9.323,1.77c5.973,3.186,13.065,4.465,19.09,7.956c3.956,2.296,9.684,8.387,13.98,5.202
			c2.391-1.754,3.378-6.952,3.729-10.252c0.322-3.076-0.042-6.519-0.38-9.556c-0.392-3.503-2.007-4.871-5.18-6.813
			c-3.343-2.035-8.146-3.203-12.059-4.162c4.963,0.773,11.825,3.893,15.303,6.705c0.705-4.625,0.357-9.54,0.819-14.209
			c0.627-6.314,1.358-12.592,0.453-19.034c-2.968-20.989-41.983-26.119-59.096-20.529"/>
		<path fill="#8D4920" stroke="#572D18" stroke-width="1.1674" d="M29.594,409.398c0,0,0-27.966,29.137-29.025
			c29.133-1.062,35.407,6.018,35.407,6.018l29.505,20.885v10.614c0,0-25.813,10.619-38.363,10.619
			c-12.532,0-47.573-9.554-51.261-13.102C30.333,411.873,29.594,409.398,29.594,409.398z"/>
		<path fill="#8D4920" stroke="#572D18" stroke-width="1.1674" d="M34.759,405.502c0,0,33.19,10.972,48.31,11.325
			c15.124,0.352,34.671-6.017,34.671-6.017"/>
		<path fill="#8D4920" stroke="#572D18" stroke-width="1.1674" d="M67.949,379.666c0,0,12.001,1.971,20.018,11.953l9.119-2.754"/>
		<path fill="#003649" d="M100.763,369.67c0,0-26.553-7.787-32.823-8.496c0,0,15.49,1.063,23.237,3.189
			c7.744,2.12,6.634-3.901,6.634-3.901L100.763,369.67z"/>
		<path fill="#63A0BE" stroke="#115371" stroke-width="1.1674" d="M47.421,381.498c7.726-0.046,15.485-0.904,23.232-0.365
			c31.626,2.192,51.922,27.316,53.715,30.71c4.409-2.335,2.932-20.093,2.67-24.135c-0.547-8.446-5.714-11.378-14.203-13.082
			c-3.969-0.798-7.076-1.803-10.947-3.086c-3.979-1.321-8.059-1.416-12.1-2.76c-6.169-2.058-11.835-3.314-18.286-4.469
			c-7.736-1.389-15.81-2.929-23.38-2.929c2.205,0,4.496-0.068,6.477,0.312c0.053-1.255,0.179-2.423,0.383-3.546
			c-5.647-0.865-11.641,0.932-12.137,6.511c-0.644,7.213,1.547,10.9,2.668,17.565c1.178-0.287,1.743-1.303,3.044-1.465"/>
		<path opacity="0.71" fill="#8D4920" d="M237.226,193.487c-1.507-6.563-4.98-12.877-6.504-19.677
			c-1.014-4.509-0.684-9.617-2.655-13.854c0.845,2.633,2.037,5.322,3.081,8.012c-3.415-8.119-5.792-16.603-8.898-24.365
			c1.043,0.85,2.602,1.336,3.69,2.262c-0.851-1.687-0.675-3.634-0.996-5.233c3.11,0.748,6.34,0.644,9.036,2.427
			c-6.265-9.486-10.161-19.123-18.823-26.741c3.274,0.576,6.425,3.306,9.349,5.225c-10.138-11.024-19.399-25.297-33.963-29.888
			c5.089,6.078,11.516,9.357,15.587,16.446c6.288,10.953,10.906,22.245,8.306,35.149c-1.737,8.639-1.548,18.774-3.739,26.941
			c-1.853,6.902-2.801,5.064-8.272,4.044c-5.009-0.937-4.68-1.727-8.494,2.311"/>
		<path opacity="0.71" fill="#8D4920" d="M192.12,176.934c4.243,7.954,1.777,18.705,3.427,27.061
			c1.533-2.438,2.031-5.161,2.971-7.867c1.199,3.021,0.832,7.112,2.151,9.579c2.695-2.727,2.57-6.318,4.683-9.253
			c3.861,4.16,6.538,14.442,6.951,20.476c3.277-10.5,5.376-21.437,4.522-32.342c0.619,1.646,1.713,3.031,2.221,4.795
			c0.744-3.222,0.869-6.855,2.527-9.674"/>
		<polygon fill="#FBD2CF" stroke="#D99F9D" stroke-width="1.1674" points="208.489,155.283 120.683,96.037 90.123,143.409 
			177.917,202.657 		"/>
		<path fill="#0F8040" stroke="#0F4526" stroke-width="1.1674" d="M80.303,163.055c0.164-0.053-0.842-2.725,1.102-2.559
			c2.766-0.652,2.204-3.484,4.362-4.992c-5.968-8.245-2.519-12.677,7.169-14.556c8.29-1.601,10.564,1.84,17.919,5.575
			c10.6,5.372,23.018,2.738,37.358,10.903c10.083,8.559,20.841,9.488,23.004,12.578c4.006,5.744,8.321,2.859,13.972,6.869
			c3.693,2.619,13.188,6.191,14.733,10.68c2.509,7.308-5.803,8.373-11.087,11.803c13.256,5.038,2.8,0.478-3.195,5.53
			c-10.212,8.609,10.891-7.674,13.355,4.813c4.827,24.531,8.132,93.243,8.611,118.254c0.212,11.358-4.582,16.795-16.438,21.76
			c-14.907,6.242-34.625,4.175-50.522,2.149c-19.1-2.423-45.08-2.079-62.953-8.973c-10.232-3.954-42.103-9.101-46.83-18.954
			c-6.656-13.865,15.685-53.586,19.158-67.962c3.87-16.014,14.973-30.561,23.158-44.711c4.776-8.253,9.266-16.863,11.88-25.892
			c2.989-10.328-11.562-8.505-0.674-14.817c-0.969-2.938-3.646-7.352-4.32-7.885L80.303,163.055z"/>
		<path opacity="0.68" fill="#21552A" d="M46.432,307.887c0,0,34.786,8.334,41.214,14.153c6.428,5.817,30.176,9.83,37.247,0
			c7.069-9.831,11.846,21.447,33.344,18.987c21.498-2.461,46.268-12.673,46.268-12.673l2.245-2.07l-2.245-11.969l0.347-46.899
			c0,0-2.465-17.396-7.408-22.337c-4.941-4.94,6.24,33.442-5.322,35.665c-11.562,2.224-82.632-21.051-82.632-21.051
			s-43.537,4.686-35.858-34.205C81.307,186.6,22.676,292.856,46.432,307.887z"/>
		<path fill="#8D4920" stroke="#572D18" stroke-width="0.5837" d="M129.719,96.862c-0.67,12.804,2.47,27.301,8.722,38.667
			c-0.736-6.573,2.635-14.528,7.027-19.516c10.34,13.381,31.149,33.186,36.134,49.464c1.741-5.11-3.375-24.951-2.943-26.813
			c4.092,10.146,8.779,16.561,12.965,29.387c5.431,16.637,14.631,31.948,17.818,38.745c10.041-19.962,16.039-48.953,7.301-69.989
			c3.164,1.875,5.854,3.433,7.762,6.789c-4.016-8.391-5.783-19.738-11.112-27.3c-2.228-3.153-5.15-4.712-7.939-7.217
			c-1.745-1.571-7.217-8.122-5.697-5.005"/>
		<path fill="#8D4920" stroke="#572D18" stroke-width="0.5837" d="M129.719,96.862c-1.164,8.177-6.862,16.019-8.801,24.571
			c-1.988-6.438-0.62-13.656,1.882-19.794c-6.141,9.479-10.733,21.38-15.417,31.351c-0.751-3.355-0.592-9.131-0.192-12.589
			c-3.006,5.075-4.647,10.674-7.882,15.887c0.12-2.924-0.702-5.235-0.02-8.291c-3.385-0.365-6.792-0.738-10.258,0.394
			c2.87-2.105,5.581-4.385,8.118-6.848c-7.471,1.425-19.168-0.65-23.52-7.746c7.682,1.415,18.439-2.167,22.038-9.63
			c-5.293-0.942-10.512-4.022-15.058-7.566c4.443-1.131,9.74-2.178,14.222-4.529"/>
		<path fill="#231F20" d="M144.625,149.377c-1.126,1.752-3.471,2.256-5.216,1.128c-1.749-1.13-2.258-3.467-1.123-5.217
			c1.131-1.751,3.467-2.252,5.216-1.131C145.248,145.288,145.756,147.628,144.625,149.377z"/>
		<path fill="#231F20" d="M159.246,157.619c-1.13,1.76-3.472,2.255-5.226,1.125c-1.749-1.125-2.254-3.465-1.12-5.221
			c1.128-1.752,3.462-2.244,5.216-1.113C159.865,153.531,160.375,155.865,159.246,157.619z"/>
		<path fill="#B26844" d="M141.006,98.778c-2.857,2.031-1.999,7.493-1.666,10.668c1.104-2.425,1.859-5.252,3.31-7.469
			c3.803,1.521,6.813,7.688,9.054,10.954c3.267,4.762,5.679,9.947,8.796,14.817c-0.897-4.092-4.304-14.032,2.53-8.982
			c6.081,4.492,7.884,12.036,11.374,18.089c1.295-4.348-0.618-9.577,1.149-13.636c11.594,4.675,21.686,23.949,25.404,35.3
			c-0.367-4.693-2.786-10.544-1.213-15.026c7.771,3.995,9.567,20.708,11.534,28.336c2.422-8.363,2.038-17.844,0.449-26.316
			c-1.077-5.703-4.897-11.69-5.051-17.352c2.408,0.932,4.059,2.554,5.608,4.612c-2.395-9.951-9.141-16.559-15.212-24.298
			c4.036,4.99,8.628,15.085,7.667,21.543c-3.406-5.194-6.587-10.789-11.605-14.648c-2.84,4.398,10.472,14.808,5.687,21.184
			c-2.93-3.008-4.259-11.24-7.915-12.396c0.422,2.812,2.062,5.868,1.468,8.662c-2.88-2.713-3.972-7.395-6.339-10.644
			c0.019,1.24-0.052,2.661,0.425,3.919c-4.645-3.575-5.073-11.3-9.702-15.069c0.333,1.316,0.162,2.947,0.262,4.185
			c-2.755-1.738-4.729-9.339-8.33-9.493c-3.752-0.167-1.666,5.931-0.827,8.273c-1.947-2.513-3.619-6.809-6.533-8.132
			c-0.318,1.557-0.36,3.371-1.086,4.786c-1.077-1.861-2.442-3.726-3.672-5.551c-1.575,0.988-1.32,3.428-1.764,5.128
			c-1.086-1.773-1.364-4.173-3.07-5.488c-0.117,0.882-1.076,2.36-1.192,3.239c-6.295-4.798-5.044-14.071-6.196-20.854
			c-1.855,2.428-2.033,5.234-3.411,7.813c-0.938-3.584-0.304-7.633-0.494-11.332c-2.428,1.694-3.657,5.286-6.124,7.054
			c0.751-2.191,1.492-4.979,1.57-7.06c-1.573,2.979-1.938,6.164-2.949,9.403c7.437,1.393,4.966,8.725,4.901,13.954
			c1.111-1.82,2.293-3.605,3.448-5.396"/>
		<path fill="#B26844" d="M115.401,98.315c-3.756,5.794-11.13,17.896-18.747,17.917c4.247-4.783,7.418-10.321,10.601-15.883
			c-3.081,1.126-5.662,2.748-9.128,1.787c3.835-1.741,8.048-2.799,10.275-6.731c-3.992-0.76-8.442,0.67-11.866-2.128
			c4.266,1.198,12.176-0.275,14.536-4.438c-2.235-0.311-5.607-0.022-7.33-0.444c2.345-0.292,8.12-2.91,8.041-5.905
			c-0.088-3.174-5.874-5.1-8.195-5.761c5.178,3.495,12.203,3.383,17.741,6.669c0.877-3.516-1.161-8.695-1.754-12.349
			c1.64,2.228,3.604,8.139,6.319,7.636c2.113-0.397,4.744-6.411,7.588-7.372c-0.796,3.774-3.525,7.306-3.737,11.203
			c1.692-1.21,3.719-2.692,5.308-3.599c-2.428,3.576-6.512,6.338-8.178,10.63c-1.053,2.736-1.134,6.018-2.192,8.873
			c-0.238-2.658-0.361-5.418-0.956-8.029c-3.471,1.531-4.281,5.832-5.514,9.062c0.205-2.443-0.06-5.345-0.692-7.512
			c-1.983,2.193-3.015,5.32-4.634,7.86"/>
		<path opacity="0.43" fill="#0C5D31" d="M86.675,188.311c3.889-6.799-10.044-14.656-1.838-17.534
			c-0.307-2.414-2.462-3.978-2.529-6.132c-0.107-3.533,2.014-2.981,3-6.797c1.382-5.344-5.449-11.325,2.706-15.321
			c-5.706,7.202,13.056,14.884,17.655,17.551c4.944,2.868,18.387,15.652,23.453,15.056c-6.229,1.661-15.581-6.445-20.494-9.988
			c-4.021-2.899-15.769-12.553-20.5-10.303c1.164,5.52-1.271,9.522,2.807,15.039c2.619,3.543,9.487,11.121,13.688,12.235
			c-2.456-0.592-16.023-11.94-17.458-6.688c-0.965,3.518,11.705,13.047,14.634,14.684c-5.575-4.066-9.751-5.434-15.284-0.348"/>
		<path opacity="0.71" fill="#8D4920" d="M154.825,122.505c6.303,9.774,17.086,16.041,18.045,29.468
			c0.059-3.369,0.282-7.042-0.465-10.401c0.348,0.977,1.211,2.088,1.624,3.154c1.489-2.969,1.395-6.69,2.415-9.713
			c5.746,4.993,9.104,16.575,13.041,23.069c4.267,7.047,4.996,15.002,8.481,21.852c-0.389-0.702-0.859-0.338-1.099-0.71
			c3.59,3.204,10.6,17.443,11.053,22.696c3.151-5.548,9.937-27.062,8.358-33.288c-1.573,2.634-1.555,5.808-3.327,8.409
			c-2.717-2.771-5.689-8.148-7.072-11.963c0.594,2.561,1.285,5.127-0.081,7.353c-5.52-5.96-13.573-16.644-16.964-23.835
			c0.207,0.985,0.296,2.218,0.621,3.139c-6.036-5.456-7.959-16.256-12.684-22.934c-0.421,4.912-2.389,8.594-4.08,12.938
			c-2.172-3.396-3.556-7.431-6.223-10.61c0.054,0.943-0.192,1.801-0.228,2.496c-4.606-3.25-8.226-7.482-13.223-10.727"/>
		<path fill="#B26844" d="M145.631,77.64c3.267,2.269,4.086,5.92,5.236,9.528c-1.799-8.43,4.501-4.23,7.961-1.13
			c-0.273-1.784,0.071-4.185,0.991-6.135c4.355,2.322,6.727,5.657,10.255,8.913c-0.688-1.634-0.197-3.771-0.39-4.882
			c4.484,2.447,8.211,5.568,11.471,9.5c-0.878-1.477-1.211-3.346-1.884-4.85c3.178,1.565,6.016,4.269,8.372,6.899
			c-0.419-0.925-0.681-2.161-0.979-2.887c3.046,1.98,5.347,5.246,8.216,7.32c-2.612-5.339-6.34-10.435-10.109-14.91
			c9.428-2.031,14.721,2.559,22.074,7.26c-7.388-12.735-26.316-17.046-40.007-15.699c2.466,0.856,5.072,2.093,7.183,3.804
			c-3.001-0.395-5.729-2.078-8.328-3.234c0.006,0.902-0.205,1.58-0.264,2.242c-2.207-1.216-4.37-2.754-6.574-3.976
			c0.144,0.521,0.038,2.891,0.425,3.885c-1.655-1.216-3.864-2.07-5.518-3.271c0.091,0.852-0.386,2.398-0.078,3.55
			c-1.234-1.254-3.411-2.215-4.645-3.5c0.04,0.865-0.04,1.933,0.131,2.965c-1.061-0.521-0.958-0.738-0.994-0.526"/>
		<path fill="#381D12" stroke="#22150F" stroke-width="0.5837" d="M68.54,100.659c0.465,0.184,0.915,0.417,1.335,0.706
			c-2.389,6.344-10.95,11.587-18.876,7.974c5.517,5.268,12.537,7.158,18.331,5.007c2.142,8.457-11.159,13.437-17.754,12.541
			c6.671,2.246,12.1-0.747,18.104-1.099c0.247,7.455-6.693,10.003-10.153,14.874c3.267,3.32,13.182-2.316,17.271-1.91
			c2.189,5.062-3.543,16.348,6.01,13.469c4.117-1.245,7.483-3.429,12.245-0.237c1.566,1.054,2.768,2.858,4.312,3.985
			c2.872,2.082,5.831,2.77,9.003,3.637c23.027,6.279,45.373,14.546,67.823,24.795c12.478,5.701,25.421,9.99,37.775,15.799
			c-0.417-1.015-0.478-1.523-0.788-2.769c-1.683,6.745,6.639,10.117,9.993,14.866c-3.184-3.783-4.192-11.054-3.748-15.147
			c1.957,9.282,9.781,9.737,16.221,13.741c-3.845-1.165-6.917-10.144-7.183-13.742c4.952,7.605,10.946,8.854,18.266,8.16
			c-4.093-5.437-9.665-10.771-11.459-17.377c5.021,4.357,8.929,9.12,15.572,8.624c-5.085-2.003-11.614-9.149-13.846-14.08
			c4.596,1.254,9.004,5.052,14.305,5.808c-1.471-2.95-4.83-6.137-6.867-9.006c-3.515-4.95-6.375-10.268-10.159-15.039
			c0.236-0.175,0.41,0.094,0.672-0.004c-4.72-7.788-15.754-14.45-23.475-18.298c-15.254-7.618-32.102-12.243-47.771-18.172
			c-18.183-6.878-33.262-21.082-50.975-29.462c-7.767-3.669-16.577-7.086-24.463-6.771c-2.135,0.078-15.423,2.412-11.763,6.399"/>
		<path fill="#FBD2CF" stroke="#D9A4A2" stroke-width="0.5837" d="M202.647,187.937c-7.01,3.167-15.084,2.743-22.188,0.301
			c-18.847-6.508-34.893-16.493-51.461-27.188c-7.875-5.08-26.697-8.994-31.271-17.376c-7.02-12.885,3.833-26.167,10.885-33.625
			c9.136-9.681,17.4-11.575,30.208-8.71c23.132,5.171,37.341,20.012,52.177,37.283c6.241,7.274,19.833,17.953,21.037,28.392
			c0.736,6.395-4.669,13.273-7.653,19.297"/>
		<path opacity="0.6" fill="#D9A4A2" d="M112.236,141.842c1.989,2.148,9.273-5.867,11.001-7.413
			c-3.028,6.688,6.286,12.185,11.193,14.219c-4.39-4.409-5.381-11.586-2.963-17.312c1.146,1.051,1.672,2.967,2.343,4.414
			c1.029-2.387,1.083-5.279,2.231-7.708c2.914,3.377,5.347,7.606,8.156,11.152c-0.026-1.835-1.049-7.035,1.467-6.817
			c1.263,0.112,3.244,2.856,4.22,3.604c2.141,1.663,4.466,2.931,6.478,4.776c4.587,4.225,10.359,9.793,12.818,15.527
			c-0.127-1.499-0.429-3.515,0.177-4.844c3.335,4.495,6.594,9.81,9.836,14.331c-0.072-1.153-0.023-2.352,0.447-3.362
			c3.57,3.661,6.636,8.706,9.589,12.978c2.289,3.326,4.241,7.301,7.808,9.435c-1.45,2.144-5.402,0.57-7.534,0.387
			c3.072-0.262,13.045,3.826,13.924,0.301c0.928-3.688,2.012-6.312,3.667-3.303c3.861,6.982-11.064-13.919-24.649-31.975
			c-3.897-5.186-8.476-9.815-12.723-14.703c-4.227-4.864-7.884-10.213-11.972-15.196c-5.028-6.126-13.347-16.541-21.878-17.542
			c-8.119-0.95-13.557,5.922-17.81,11.868c-4.003,5.606-8.286,11.946-10.883,18.327c-3.054,7.478,2.809,11.405,8.795,15.54
			c10.008,6.909,20.983,13.264,31.478,19.462c8.261,4.876,17.099,9.941,26.084,13.331c2.857,1.083,6.913,4.316,9.956,4.34
			c0.137-2.63-4.054-5.493-5.839-7.121c-2.468-2.254-4.995-3.986-6.967-6.735c-3.358-4.648-7.232-8.346-11.267-12.243
			c-6.716-6.496-15.599-7.271-24.079-9.317c-3.958-0.952-8.325-1.973-11.972-4.014c-1.749-0.974-9.987-5.27-10.547-4.325"/>
		<path fill="#231F20" d="M152.287,152.076c-1.081,1.666-3.307,2.146-4.968,1.07c-1.669-1.075-2.151-3.299-1.072-4.963
			c1.076-1.661,3.298-2.146,4.967-1.074C152.875,148.186,153.354,150.409,152.287,152.076z"/>
		<path fill="#231F20" d="M162.577,157.227c-1.07,1.668-3.289,2.145-4.958,1.066c-1.666-1.079-2.146-3.297-1.071-4.961
			c1.071-1.664,3.293-2.145,4.959-1.069C163.178,153.34,163.655,155.563,162.577,157.227z"/>
		<path fill="#0F8040" stroke="#0F4526" stroke-width="1.1674" d="M187.887,212.977c3.938-0.49,6.818-0.88,8.393-4.612
			c1.482-3.519,3.449-4.292,7.881-6.334c-4.481-0.418-11.124-0.949-14.129,2.139c2.761-2.09,12.293-1.946,15.595-2.875
			c2.757-0.775,1.685-2.146,4.408-4.039c6.018-4.196,4.017-13.479,0.444-18.981c-3.324,9.174-12.144,8.89-20.203,6.091
			c-4.596-1.603-19.316-12.391-22.533-15.54c-6.768-6.611-12.708-11.169-21.506-14.367c-10.347-3.771-20.946-7.365-30.976-11.835
			c-4.679-2.08-19.084-11.24-14.457-18.444c-1.792,0.54-5.198,0.101-4.906,2.318l0.577-0.121c-0.036-0.505,0.792-0.465,0.111-0.888
			c-5.18,0.852-11.274,2.89-12.173,8.68c-0.748,4.812,1.569,6.628-1.632,10.509c-2.664,3.226-4.323,3.474-3.312,8.056
			c0.884,4.017,3.904,7.914,6.163,11.27"/>
		<path opacity="0.51" fill="#0C5D31" d="M206.749,190.163c-1.799,8.159-11.942,9.533-18.873,8.302
			c-2.012-0.357-4.518-0.403-6.421-1.287c-2.932-1.357-5.027-3.555-8.205-4.753c-5.881-2.216-13.458-6.841-19.602-7.131
			c8.025-0.286,17.889,4.847,25.411,7.399c5.828,1.981,13.46,3.535,19.387,1.556c11.583-3.883-5.896-7.554-10.154-8.74
			c-5.445-1.519-11.888-1.761-16.122-6.03c-2.828-2.871-6.531-9.234-7.967-12.91c7.334,3.9,11.21,12.948,19.303,15.707
			c4.452,1.514,9.72,1.676,14.371,2.91c3.893,1.031,8.229,0.203,7.117,5.354"/>
		<path opacity="0.51" fill="#0C5D31" d="M100.85,125.002c-2.292-1.613,2.732,7.988,3.969,9.597
			c2.919,3.787,5.421,6.991,9.786,9.595c7.988,4.775,17.287,4.272,25.329,9.463c-3.993-2.314-9.662-0.561-14.056-1.349
			c-4.401-0.78-7.978-2.841-11.868-5.055c-3.948-2.255-5.62-4.358-8.192-7.534c-2.925-3.587-4.42-6.135-5.846,0.503
			c-1.683,7.822,8.171,13.853,13.885,17.919c3.465,2.467,5.7,5.921,8.924,8.565c3.511,2.886,7.07,2.927,10.694,5.435
			c-9.938,4.333-18.062-8.74-23.652-14.38c-3.642-3.679-16.33-18.995-19.905-11.613c-3.699,7.627,11.29,17.344,15.967,21.158
			c4.086,3.337,7.688,6.435,11.369,10.091c2.208,2.191,8.275,6.3,9.361,8.943c0.114,0.266,1.032,0.668,1.304,0.812
			c-16.899-1.814-26.45-23.195-40.64-30.468c-3.249-1.672-8.133-4.008-8.235-7.751c-0.049-1.86,2.027-3.533,2.831-5.219
			c1.229-2.579,1.367-2.914,2.038-5.529c1.126-4.37,1.104-7.275,4.95-10.584c2.724-2.333,8.568-5.157,11.042-1.142"/>
		<path fill="#8D4920" stroke="#572D18" stroke-width="0.5837" d="M80.003,143.289c7.315-3.106,17.772,2.688,26.47-2.467
			c10.351-6.137,15.162-15.84,17.942-27.565c-1.528,9.496-0.216,22.196,4.71,30.473c5.241,8.81,15.88,7.581,15.408-3.788
			c-1.464,3.961-0.45,7.078-5.745,4.832c-2.325-0.994-5.644-5.019-6.585-7.414c-2.615-6.644-0.065-17.438,1.786-23.414
			c13.535,13.793,28.125,25.771,42.706,38.563c15.96,14.014,40.929,38.42,32.173,62.305c3.864-3.017,8.701-8.857,10.717-13.841
			c2.59-6.409,0.538-14.777,3.031-20.424c7.642,7.278,14.464,17.898,14.515,28.527c2.552-4.566,3.935-10.697,4.405-15.911
			c0.561-6.309-3.245-11.934-2.964-17.623c6.195,4.067,8.579,11.062,10.596,17.857c4.657-3.157,3.554-32.064,1.562-36.671
			c-1.166-2.731-3.984-5.89-4.028-8.666c4.515,1.56,5.444,6.767,8.25,10.024c3.928-12.363-4.855-31.35-11.076-41.635
			c-8.006-13.256-19.747-19.454-32.001-27.705c9.585-3.25,24.964-0.691,33.51,4.599c-4.213-13.996-27.754-19.082-40.152-20.317
			c-8.595-0.853-18.198-1.672-26.799-1.147c-6.914,0.419-11.123,1.333-17.224,1.652c0.205-9.788,9.831-10.008,14.235-17.232
			c-6.638-3.956-24.899,5.525-29.521,10.92c0.819-5.326-0.071-11.833-2.784-17.694c-3.634,5.312-5.693,11.625-9.863,16.729
			c-2.342-8.403-7.892-16.417-17.609-18.588c5.513,6.501,7.247,12.294,7.307,20.76c-1.527-4.338-7.96-9.11-12.608-9.068
			c-6.595,0.071-14.113,8.368-16.71,13.443C82.291,95.026,66.68,93.192,69.422,72.109c-0.429,9.733-5.423,20.825-0.71,30.459
			c-7.829-3.375-9.6-13.379-8.235-20.63c-6.082,13.686,6.259,40.068,23.698,33.513c-4.558,6.516-18.292,12.278-25.688,7.537
			c8.176,8.479,25.714,8.566,35.033,2.095c-1.714,7.202-6.965,16.524-14.976,17.989c0.929,0.238,0.818,0.918,1.386,1.374"/>
		<path opacity="0.71" fill="#8D4920" d="M120.66,107.709c9.129,3.781-6.488,23.612-10.275,26.964
			c-7.544,6.673-17.632,9.256-27.547,8.467c4.617-4.198,10.859-14.204,11.64-20.736c-10.324,5.809-21.711,8.17-32.914,3.345
			c12.373,3.86,27.698-8.236,32.51-18.746c-8.205,6.26-17.373,10.907-26.752,4.587c-8.874-5.974-10.035-15.754-8.95-25.733
			c1.518,15.492,14.146,19.957,26.849,16.035c-6.126,2.31-10.939,2.829-16.161-2.656c-1.556-1.633-2.753-16.979-0.834-21.892
			c0.364,11.021,5.73,19.257,17.351,11.981c4.274-2.681,8.042-5.333,11.203-8.832c3.782-4.176,8.483-5.863,12.563-9.046
			c-2.303,1.181-4.595,2.766-6.121,4.721c2.982-1.726,7.065-2.761,10.457-2.349c-3.92,2.108-10.357,2.578-11.955,7.477
			c3.156-0.679,7-2.114,10.494-2.492c-4.561,2.985-7.517,5.754-10.175,10.537c2.417-2.628,6.12-4.259,9.398-5.335
			c-4.898,2.37-10.65,6.933-13.163,11.876c2.547-3.04,6.126-5.338,10.042-6.089c-6.966,5.034-15.298,8.934-22.088,14.526
			c4.669-0.155,9.997-2.951,13.981-5.403c-0.847,5.058-3.598,9.842-5.534,14.551c3.03-2.133,4.94-5.373,8.118-7.384
			c2.701,5.948-5.498,13.372-7.905,18.43c1.813-1.519,3.644-3.791,5.196-5.24c2.354,5.259-4,14.432-7.928,17.483
			c6.694-4.057,13.941-10.071,16.139-17.78c0.25,3.489-0.259,7.03-1.538,10.253c5.174-4.646,7.718-11.429,10.359-17.917
			c-0.25,1.753-0.186,6.77-1.111,9.459c2.937-2.917,4.113-9.084,5.577-13.348c-0.429-1.187-0.503-0.172-0.057,0.06"/>
		<path opacity="0.71" fill="#8D4920" d="M116.569,71.783c2.123-0.779,6.43,0.598,9.241,2.522
			c-0.019-8.754-5.293-18.762-8.709-26.107c8.943,4.604,13.292,15.461,14.905,24.671c5.529-2.203,9.342-17.468,11.16-23.226
			c1.214,8.802-6.201,18.562-3.119,27.01c2.401-1.168,4.612-2.749,6.394-4.727c-1.22,2.185-2.703,4.019-4.02,5.96
			c3.994-2.669,7.987-5.833,11.963-8.621c-0.174,0.225-0.561,1.055-0.652,1.378c2.708-5.121,13.687-14.214,19.854-14.347
			c-6.258,4.811-13.021,11.319-16.373,18.695c5.691-1.048,11.857-2.729,17.858-1.224c-4.025-0.239-8.691,1.349-11.582,4.172
			c4.905-0.799,14.289-2.825,17.993,0.195c-5.081-1.411-10.553,2.333-15.16,3.869c-4.822,1.61-9.951,2.472-15.346,3.737
			c4.02-2.489,8.505-1.131,12.63,0.312c-4.681-1.132-11.687,0.99-15.231,4.203c3.505-0.218,9.205,2.907,10.598,6.288
			c-3.264-2.191-10.416-4.011-13.702-2.33c4.274,6.608,10.325,10.581,13.553,18.126c-3.242-2.932-9.692-7.862-14.213-6.868
			c6.606,6.01,13.982,13.933,15.664,23.034c-4.342-3.199-7.661-8.898-13.486-9.934c3.196,5.378,8.235,9.695,11.115,15.258
			c-4.289-4.509-9.628-8.597-14.279-12.76c-3.357-2.988-8.81-5.737-11.239-9.373c-2.75,5.781-5.198,11.919-2.915,18.684
			c1.602,4.74,8.064,15.679,13.19,9.168c2.064,14.036-12.883,2.152-15.061-4.627c-2.562-7.974,0.354-19.936,2.175-27.627
			c0.608,0.684,0.676,0.838,1.157,1.754c-0.66-4.976-6.479-9.494-11.042-6.418c2.793-3.056,7.692-2.541,11.542-2.544
			c-4.882-2.647-8.355-5.215-13.766-2.406c2.709-3.99,7.422-4.983,11.923-5.809c-3.65-0.581-8.302,0.171-11.604,1.675
			c4.709-3.217,11.377-4.22,16.727-1.706c-4.722-4.357-10.75-7.355-17.186-4.812c5.979-1.511,11.493-1.87,17.455,0.575
			c-5.799-2.75-14.105-12.305-20.792-6.496c5.753-1.413,12.169-2.047,17.759,0.36c-4.188-2.076-11.208-11.353-15.186-5.982
			c2.427-0.343,5.716,0.199,7.977-0.233c-2.872-1.837-7.676-4.004-10.832-2.818c0.283,1.283,1.24,2.663,2.414,3.578"/>
		<path opacity="0.71" fill="#8D4920" d="M211.421,207.284c-1.778-14.738-6.505-31.371-15.874-43.353
			c-3.973-5.08-9.043-8.314-14.211-12.061c-6.069-4.396-10.11-9.564-15.31-14.833c9.41,5.705,19.332,10.854,26.515,19.054
			c-1.331-6.822-6.992-12.102-9.421-18.456c6.416,7.405,14.331,15.632,21.074,22.312c-2.008-6.484-5.612-12.42-7.477-18.938
			c6.609,8.869,14.223,19.304,16.599,29.999c-1.048-6.146-3.366-12.345-2.855-18.741c4.172,2.185,6.64,10.735,9.525,14.779
			c5.214-14.695-15.499-34.095-21.632-45.977c11.912,6.044,22.035,24.622,27.065,36.562c-0.543-6.973-4.599-13.482-6.307-20.354
			c3.343,4.309,6.16,8.951,9.899,12.949c-0.438-4.038-3.94-7.444-3.958-11.511c1.842,2.38,3.216,5.356,5.854,6.942
			c-0.015-6.959-2.519-14.329-5.545-20.68c-4.114-8.635-11.691-10.773-16.67-16.951c8.769-0.798,17.149,12.37,24.004,16.773
			c-3.021-11.364-18.19-22.627-28.177-27.954c8.469,2.425,15.422,8.08,23.236,11.946c-3.876-9.035-16.56-18.104-25.769-21.461
			c3.863,2.42,9.15,3.724,13.5,4.959c-7.162-7.212-15.858-6.398-24.341-9.219c17.762-7.853,40.624-4.011,54.891,8.082
			c-9.019-1.337-24.327-7.082-33.14-2.706c12.941,8.83,24.192,17.313,31.255,31.663c5.388,10.934,11.808,23.967,11.553,35.577
			c-4.313-3.413-9.68-8.747-13.869-11.082c5.104,8.488,5.033,16.249,5.787,25.478c0.468,5.678,4.116,15.717,1.697,20.598
			c-4.305-8.912-11.946-16.031-17.82-24.072c1.769,7.65,4.981,13.827,5.111,21.998c0.075,5.306,1.027,10.821,0.748,16.238
			c-2.2-10.501-12.289-26.887-21.904-32.268c-0.637,5.129,1.01,10.329,0.604,15.552c-0.281,3.631-1.521,7.46-1.614,11.191
			c-0.226-4.101-1.581-10.492-4.083-13.835c2.923,4.873,2.319,17.319-0.125,22.579"/>
		<path fill="#B26844" d="M119.093,110.434c-0.235-1.146,1.256-3.822,3.51-4.988c-2.646,0.17-4.949,1.629-6.58,3.71
			c0.561-3.257,3.203-6.01,5.48-8.176c-2.76-0.431-5.84-0.675-8.302,0.7c0.216-3.066,2.739-5.104,5.464-6.125
			c-2.768-0.975-5.643-0.655-8.553-0.641c3.232-2.789,6.138-5.773,10.18-6.998c-3.647-0.789-7.161-1.242-10.826-0.104
			c2.667-4.185,8.059-6.353,12.889-6.164c-3.942-0.069-7.52-4.657-10.988-2.172c1.175-2.346,3.477-4.086,5.718-5.254
			c-1.912-0.914-4.166-1.143-6.303-0.789c2.398-1.278,4.363-3.023,6.394-4.854c-0.805,0.241-4.239,0.792-5.737,0.884
			c2.545-2.745,7.418-2.624,11.178-2.207c-10.533-4.339-17.163-5.629-24.048,4.009c4.444-1.856,8.742-2.494,13.458-3.37
			c-3.062,0.602-5.882,2.486-8.104,4.472c3.488-0.237,7.346-0.949,10.851-0.098c-3.676,2.215-9.694,2.627-11.869,6.597
			c3.65,0.596,6.481-2.207,10.325-1.482c-1.245,1.021-2.406,2.92-4.034,3.861c0.961-0.059,2.464,0.559,3.794,0.354
			c-0.918,1.06-1.264,2.392-2.447,3.362c0.702-0.132,1.566-0.171,2.382-0.469c-4.044,4.496-8.359,7.798-11.368,13.324
			c2.808-3.497,6.826-6.743,11.251-7.023c-5.083,2.974-9.228,8.484-9.148,14.792c2.212-2.7,4.958-4.887,8.15-6.477
			c-2.461,4.82-8.413,9.546-7.457,15.073c1.602-2.755,4.084-4.815,6.006-7.339c0.285,3.698-2.405,8.166-2.03,11.87
			c2.334-3.504,4.094-8.304,7.167-10.934c0.392,2.712-0.947,5.521-1.73,8.078c2.356-2.317,4.221-5.162,6.581-7.6"/>
		<path fill="#B26844" d="M162.56,135.059c-1.032-2.055-1.671-5.464-2.973-7.399c2.729,2.009,5.772,4.037,8.909,5.611
			c-1.131-1.603-2.026-3.585-3.152-5.188c1.092,0.688,2.687,1.159,3.767,1.879c-1.281-1.885-3.216-4.396-4.788-6.45
			c2.896,1.123,6.045,2.938,9.259,3.552c-2.903-2.284-5.482-5.111-8.564-7.324c3.567,0.814,7.067,2.521,10.864,3.222
			c-3.648-3.416-11.638-6.843-12.786-11.639c6.126-0.518,15.961,2.556,21.259,5.851c-4.921-6.263-12.969-11.21-20.429-13.479
			c7.568-4.203,17.223-2.285,25.198,0.154c-7.706-4.322-15.998-7.437-23.559-11.578c7.39-3.981,18.889-2.394,27.11-2.456
			c-7.548-0.456-18.535-1.407-25.275-4.527c9.369-3.265,20.362-8.449,30.5-5.481c-7.142-4.87-14.315-2.973-21.951-3.563
			c10.478-5.538,22.958-2.333,34.059-2.35c-6.424,0.708-15.742,2.531-20.395,6.855c2.943,0.939,6.378,0.849,9.242,2.537
			c-4.048-1.375-8.313-0.255-12.482-0.607c5.535,1.709,18.316,1.133,19.8,8.391c-6.236-1.045-12.188-3.988-18.48-4.61
			c1.614,5.454,15.134,4.119,17.049,11.827c-4.366-2.372-13.819-7.205-18.2-4.769c7.264,4.706,14.596,7.688,19.471,15.141
			c-5.899-3.565-13.677-10.289-20.724-10.115c5.164,6.568,14.768,9.259,17.848,17.802c-4.635-4.565-14.777-11.184-21.274-9.584
			c4.58,5.974,13.87,12.822,14.232,20.755c-5.274-3.572-10.644-8.769-16.407-11.498c4.634,5.612,9.806,11.441,12.245,18.55
			c-6.257-3.723-13.269-9.008-18.778-13.823c3.281,6.083,9.757,10.563,10.594,17.839c-5.178-2.789-9.835-6.414-14.518-9.716
			c2.079,3.298,4.603,6.413,6.321,9.963c-3.884-1.903-7.592-4.41-11.42-6.403c-0.048,2.239,1.219,4.521,2.617,6.406
			c-1.131-1.15-3.788-4.212-3.865-4.327"/>
		<path fill="#B26844" d="M147.141,75.756c-0.487,0.573-1.04,0.744-1.643,0.504c3.607-8.521,16.418-10.673,20.642-18.486
			c-4.765-0.305-16.229,6.25-20.006,9.881c0.716-2.053,2.079-4.087,3.569-5.491c-1.123,2.72-3.219,5.166-6.099,5.785
			c-0.553-4.462-1.507-9.208-2.493-13.819c0.76,4.021-0.644,11.419-1.676,16.123c0.451-0.19-0.869-0.87-0.903-0.877
			c-0.219,0.326-0.918,1.759-1.219,1.892c2.973-3.487,2.376-8.439,2.391-12.753c-1.961,3.565-4.924,6.551-6.837,10.117
			c-1.441-4.452-3.791-9.791-7.331-13.195c1.299,5,3.943,10.292,5.417,15.198c1.903-2.756,3.151-5.972,5.755-8.191
			c-0.038,0.907,0.79,3.542,0.645,4.638c0.792-0.964,1.9-1.59,2.651-2.716c0.077,3.802-0.731,8.89-0.404,12.785
			c1.931-2.154,4.128-4.023,6.715-5.292c-1.163,2.453-2.749,4.864-3.923,7.346c2.413-2.251,5.182-5.274,8.586-6.314"/>
		<path fill="#0F8040" stroke="#0F4526" stroke-width="1.1674" d="M185.203,199.498c48.284-9.506,56.711,77.23,60.346,98.102
			c3.808,21.794-29.35,19.662-49.848,27.77c-11.42,4.519-31.265,14.748-43.611,8.964c-11.118-5.211-17.708-29.628-15.812-40.502
			c2.857-16.39,15.003-19.909,29.154-20.506c23.22-0.986,37.602,20.108,36.054-3.683c-0.979-14.908-2.87-17.865-13.26-27.343
			c3.411,4.472,1.196,1.515,3.985,6.111c-2.104-0.234-7.525,0.781-7.43,0.781"/>
		<path fill="#FFFFFF" d="M160.688,154.021c-0.418,0.65-1.283,0.839-1.932,0.422c-0.653-0.422-0.838-1.287-0.42-1.939
			c0.42-0.645,1.285-0.83,1.934-0.413C160.923,152.504,161.113,153.378,160.688,154.021z"/>
		<path fill="#FFFFFF" d="M150.352,148.935c-0.419,0.65-1.283,0.839-1.932,0.417c-0.656-0.42-0.837-1.285-0.416-1.934
			c0.416-0.65,1.285-0.837,1.929-0.418C150.588,147.418,150.776,148.286,150.352,148.935z"/>
		<path fill="#0F8040" stroke="#0F4526" stroke-width="1.1674" d="M86.708,179.037c-48.154-10.132-57.702,76.492-61.605,97.303
			c-4.09,21.747,29.088,20.054,49.479,28.421c11.364,4.66,31.069,15.15,43.488,9.531c11.19-5.072,18.104-29.398,16.342-40.299
			c-2.649-16.426-14.746-20.098-28.89-20.882c-23.203-1.285-37.856,19.622-36.001-4.15c1.166-14.887,3.104-17.828,13.614-27.166
			c-3.468,4.431-1.214,1.499-4.068,6.061c2.106-0.215,7.521,0.875,7.414,0.877"/>
		<path fill="#21552A" d="M102.83,293.841c-1.914,10.82,16.335,14.177,22.267,8.287c4.739-4.71,8.18-14.394,4.568-20.649
			c-2.677-4.639-16.431-8.343-19.124-2.675c0.421,0.815,1.153,1.288,2.027,1.67"/>
		<path fill="#1E311B" d="M123.161,300.963c1.115,6.146-12.543,5.347-17.393,1.787c-2.979-2.18-3.946-9.657-4.926-12.694
			c-2.508-7.806-1.95-18.277,6.876-22.781c13.882-7.087,18.004,8.806,14.046,17.471c-1.997,4.366-22.519,13.886-7.453,16.625
			C117.075,301.872,120.884,302.143,123.161,300.963"/>
		<path fill="none" stroke="#0F4526" stroke-width="1.1674" d="M111.614,263.785c0,0-23.383,7.771-2.488,44.505"/>
		<path fill="#21552A" d="M169.733,307.227c0.432,10.982-13.702,11.573-18.794,4.93c-4.055-5.297-6.166-15.359-1.746-21.074
			c3.275-4.231,17.403-6.059,19.314-0.076c-0.528,0.749-1.318,1.129-2.23,1.388"/>
		<path fill="#1E311B" d="M148.988,308.4c-1.93,5.935,9.981,11.088,15.267,8.218c3.243-1.761,8.384-10.455,9.756-13.327
			c3.539-7.403,4.401-17.849-3.734-23.501c-12.811-8.895-19.03,6.301-16.273,15.421c1.383,4.594,20.438,16.787,5.146,17.477
			C156.343,312.814,151.089,309.879,148.988,308.4"/>
		<path fill="#FBD2CF" stroke="#D99F9D" stroke-width="1.1674" d="M118.224,283.18c1.159,5.504,10.489,7.544,14.998,5.484
			c3.989-1.834,7.701-6.917,8.444-11.223c-3.065-0.936-1.294-2.382-3.156-4.77c-3.371-4.304-5.589-3.733-0.498-3.224
			c4.481,0.447,22.664,7.907,18.347-3.576c-1.913-5.081-9.15-4.8-13.343-7.313c-3.888-2.328-6.352-6.791-0.151-7.295
			c4.879-0.399,9.327,4.531,14.119,5.19c5.593,0.763,6.747-2.742,2.227-6.303c-2.455-1.936-24.332-8.024-12.975-12.915
			c4.016-1.736,25.528,11.121,22.425,0.132c-2.453-8.67-26.132-8.847-31.483-5.146c-8.042,5.569-10.808,14.396-13.988,23.27
			c-1.908,5.329-1.958,10.309-8.328,10.613c-4.224,0.193-4.842-1.473-8.402,1.731c-2.057,1.848-4.434,6.003-4.62,8.709
			c-0.653,9.442-3.252,13.615,21.665,12.061c-0.887-1.468-2.161-3.013-2.845-4.559"/>
		<path fill="#FBD2CF" stroke="#D99F9D" stroke-width="1.1674" d="M154.938,289.434c-4.394,3.522-12.896-0.831-15.059-5.286
			c-1.924-3.954-1.566-10.24,0.603-14.039c2.965,1.232,8.632,3.09,11.58,2.441c5.336-1.181,4.647-5.565,0.388-8.408
			c-3.754-2.498-26.591-6.179-15.964-12.297c4.701-2.714,10.108,2.104,14.95,2.834c4.48,0.669,9.217-1.21,4.756-5.542
			c-3.514-3.413-10.087-2.433-14.208-4.968c-4.802-2.966-3.46-6.396,2.281-6.277c3.134,0.063,23.897,9.26,18.235-1.729
			c-2.002-3.89-26.78-7.628-17.396-14.142c7.391-5.137,25.798,9.77,27.57,16.024c2.673,9.413-0.805,17.991-3.981,26.856
			c-1.916,5.333-5.043,9.211-0.311,13.486c3.136,2.832,4.666,1.945,5.385,6.682c0.42,2.73,1.897,7.546,0.673,9.979
			c-5.436,10.791-22.415,5.297-27.036-4.776c1.62-0.568,3.589-0.949,5.099-1.711"/>
		<path fill="none" stroke="#0F4526" stroke-width="1.1674" d="M166.947,274.767c0,0,22.126,10.852-3.523,44.44"/>
		<polyline fill="#C59659" stroke="#572D18" stroke-width="0.5837" points="146.492,410.928 154.977,399.219 148.835,398.931 
			140.646,409.163 		"/>
		<polyline fill="#C59659" stroke="#572D18" stroke-width="0.5837" points="137.907,409.346 146.382,397.646 140.244,397.35 
			132.054,407.585 		"/>
		<polyline fill="#C59659" stroke="#572D18" stroke-width="0.5837" points="101.214,412.558 92.734,400.862 98.877,400.569 
			107.065,410.811 		"/>
		<polyline fill="#C59659" stroke="#572D18" stroke-width="0.5837" points="109.805,410.98 101.325,399.288 107.463,398.991 
			115.651,409.227 		"/>
		<path fill="none" stroke="#C59659" stroke-width="0.5837" d="M187.143,407.414c0,0-1.752-12.574-12.282-15.208
			c-10.526-2.634-11.111-1.17-11.111-1.17"/>
		<path fill="none" stroke="#C59659" stroke-width="0.5837" d="M58.503,408.724c0,0,1.757-12.572,12.283-15.208
			c10.53-2.626,11.119-1.168,11.119-1.168"/>
	</g>
</g>
</svg>
